<?xml version="1.0" encoding="utf-8"?>
<!-- Generator: Adobe Illustrator 23.0.3, SVG Export Plug-In . SVG Version: 6.00 Build 0)  -->
<svg version="1.1" id="Layer_1" xmlns="http://www.w3.org/2000/svg" xmlns:xlink="http://www.w3.org/1999/xlink" x="0px" y="0px"
	 viewBox="0 0 47 48" style="enable-background:new 0 0 47 48;" xml:space="preserve">
<style type="text/css">
	.st4{fill:none;stroke:#D23A2E;stroke-width:2;stroke-miterlimit:10;}
	.st5{fill:#D23A2E;}
</style>
<g>
	<path class="st4" d="M23.5,46.5C11,46.5,1,36.5,1,24S11,1.5,23.5,1.5S46,11.5,46,24S36,46.5,23.5,46.5z"/>
	<path class="st5" d="M24,12.8L24,12.8c-0.1-0.1-0.2-0.2-0.3-0.2c0,0,0,0-0.1,0l0,0c-0.1,0-0.2-0.1-0.3-0.1h-0.1c-0.1,0-0.2,0-0.3,0
		h-0.1c-0.1,0-0.2,0.1-0.2,0.1s0,0-0.1,0l0,0l0,0l-8.2,8.9c-0.4,0.4-0.3,1,0.1,1.4c0.4,0.4,1,0.3,1.4-0.1l6.5-7v18.4
		c0,0.6,0.4,1,1,1s1-0.4,1-1V16l6.9,7.1c0.2,0.2,0.5,0.3,0.7,0.3c0.3,0,0.5-0.1,0.7-0.3c0.4-0.4,0.4-1,0-1.4L24,12.8z"/>
</g>
</svg>
