<svg xmlns="http://www.w3.org/2000/svg" width="125" height="81" viewBox="0 0 124.72 80.85"><defs><style>.cls-1{fill:#fff;}</style></defs><title>drag-icon</title><g id="Слой_2" data-name="Слой 2"><g id="Layer_6" data-name="Layer 6"><path class="cls-1" d="M62.26,80.85a40.43,40.43,0,1,1,40.42-40.42A40.47,40.47,0,0,1,62.26,80.85Zm0-77.35A36.93,36.93,0,1,0,99.18,40.43,37,37,0,0,0,62.26,3.5Z"/><path class="cls-1" d="M112.35,52.43a1.75,1.75,0,0,1-1.24-3l8.77-8.76-9.27-9.27a1.75,1.75,0,0,1,2.48-2.47L124.65,40.5a.24.24,0,0,1,.07.18.22.22,0,0,1-.07.17L113.59,51.91A1.75,1.75,0,0,1,112.35,52.43Z"/><path class="cls-1" d="M12.87,52.43a1.75,1.75,0,0,1-1.24-.52L.07,40.35A.26.26,0,0,1,0,40.18.29.29,0,0,1,.07,40L11.13,28.94a1.75,1.75,0,0,1,2.48,2.47L4.85,40.18l9.26,9.26a1.76,1.76,0,0,1-1.24,3Z"/><path class="cls-1" d="M53.31,54.58a.29.29,0,0,1-.18-.07.24.24,0,0,1-.07-.18V49l-4.4-5.87a.27.27,0,0,1,0-.15V35.05a6.18,6.18,0,0,1,6.18-6.18h.08l0-.08a4.7,4.7,0,0,1,4.34-2.89,4.55,4.55,0,0,1,1.81.37l14.6,6.08a.25.25,0,0,1,.15.23V42.81a.36.36,0,0,1,0,.11l-2.94,5.89v5.52a.25.25,0,0,1-.08.18.26.26,0,0,1-.17.07Zm16.06-3.47V48a.2.2,0,0,1,0-.11l2.94-5.88V34.72L59.71,29.46a1.27,1.27,0,0,0-.47-.09A1.23,1.23,0,0,0,58,30.6v8.9a.25.25,0,0,1-.25.25h-3a.24.24,0,0,1-.18-.07.29.29,0,0,1-.07-.18V32.35a2.69,2.69,0,0,0-1.67.78A2.64,2.64,0,0,0,52.08,35v6.84l4.39,5.87a.25.25,0,0,1,.05.15v3.21Z"/></g></g></svg>