<?xml version="1.0" encoding="utf-8"?>
<!-- Generator: Adobe Illustrator 23.1.1, SVG Export Plug-In . SVG Version: 6.00 Build 0)  -->
<svg version="1.1" id="Layer_6" xmlns="http://www.w3.org/2000/svg" xmlns:xlink="http://www.w3.org/1999/xlink" x="0px" y="0px"
	 viewBox="0 0 82.9 83.9" style="enable-background:new 0 0 82.9 83.9;" xml:space="preserve">
<style type="text/css">
	.st0{fill:#FFFFFF;}
</style>
<g>
	<g>
		<path class="st0" d="M41.4,82.4C19.2,82.4,1,64.2,1,42S19.2,1.5,41.4,1.5S81.9,19.7,81.9,42S63.7,82.4,41.4,82.4z M41.4,5
			C21.1,5,4.5,21.6,4.5,42s16.6,36.9,36.9,36.9S78.4,62.3,78.4,42S61.8,5,41.4,5z"/>
	</g>
</g>
<g>
	<g>
		<path class="st0" d="M38.4,54c-0.5,0-0.9-0.2-1.2-0.5c-0.3-0.3-0.5-0.8-0.5-1.2s0.2-0.9,0.5-1.2l8.8-8.8l-9.3-9.3
			c-0.3-0.3-0.5-0.8-0.5-1.2s0.2-0.9,0.5-1.2c0.3-0.3,0.8-0.5,1.2-0.5s0.9,0.2,1.2,0.5L50.7,42c0,0,0.1,0.1,0.1,0.2s0,0.1-0.1,0.2
			L39.6,53.4C39.3,53.8,38.9,54,38.4,54z"/>
	</g>
</g>
</svg>
