<?xml version="1.0" encoding="utf-8"?>
<!-- Generator: Adobe Illustrator 23.1.1, SVG Export Plug-In . SVG Version: 6.00 Build 0)  -->
<svg version="1.0" id="_x33_" xmlns="http://www.w3.org/2000/svg" xmlns:xlink="http://www.w3.org/1999/xlink" x="0px" y="0px"
	 viewBox="0 0 426.77 426.76" style="enable-background:new 0 0 426.77 426.76;" xml:space="preserve">
<style type="text/css">
	.st0{fill:#D63B27;}
	.st1{fill:#FFFFFF;}
	.st2{font-family:'PoynterOSDisp-Roman';}
	.st3{font-size:85.618px;}
	.st4{font-family:'Fieldwork-Geo-Regular';}
	.st5{font-size:16.0864px;}
	.st6{opacity:0.7;fill:#D63B26;}
	.st7{opacity:0.7;fill:none;stroke:#D63B26;stroke-width:16.3784;stroke-linecap:round;stroke-linejoin:round;}
	.st8{opacity:0.7;fill:none;stroke:#D63B26;stroke-width:10.5981;stroke-linecap:round;stroke-linejoin:round;}
	.st9{opacity:0.7;fill:none;stroke:#D63B26;stroke-width:8.1084;stroke-linecap:round;stroke-linejoin:round;}
	.st10{opacity:0.7;fill:none;stroke:#D63B26;stroke-width:23.2012;stroke-linecap:round;stroke-linejoin:round;}
	.st11{opacity:0.7;fill:none;stroke:#D63B26;stroke-width:15.0127;stroke-linecap:round;stroke-linejoin:round;}
	.st12{opacity:0.7;fill:none;stroke:#D63B26;stroke-width:11.4862;stroke-linecap:round;stroke-linejoin:round;}
</style>
<g>
	<path class="st0" d="M213.47,112.24c-56.15,0-101.66,45.51-101.66,101.66c0,56.15,45.52,101.66,101.66,101.66
		s101.66-45.51,101.66-101.66C315.13,157.76,269.61,112.24,213.47,112.24"/>
	<text transform="matrix(1 0 0 1 178.6203 227.0711)" class="st1 st2 st3">18</text>
	<text transform="matrix(1 0 0 1 179.7472 251.2557)"><tspan x="0" y="0" class="st1 st4 st5">MILLION</tspan><tspan x="17.3" y="19.3" class="st1 st4 st5">USD</tspan></text>
</g>
<path class="st6" d="M174.92,101.46c-1.17-4.36,1.42-8.85,5.79-10.03c4.38-1.16,8.85,1.43,10.02,5.81
	c1.17,4.36-1.43,8.85-5.79,10.02c-0.72,0.19-1.42,0.27-2.12,0.27C179.21,107.54,175.9,105.12,174.92,101.46 M147.28,115.26
	c-2.27-3.92-0.93-8.94,2.99-11.2c3.9-2.26,8.92-0.93,11.18,2.99c2.26,3.92,0.93,8.92-2.99,11.18v0.01c-1.29,0.75-2.7,1.1-4.09,1.1
	C151.54,119.35,148.8,117.88,147.28,115.26 M124.14,135.71c-3.2-3.19-3.2-8.38,0-11.57v-0.01c3.19-3.19,8.38-3.19,11.58,0
	c3.19,3.2,3.19,8.4,0,11.58c-1.6,1.6-3.7,2.4-5.79,2.4C127.83,138.12,125.74,137.31,124.14,135.71 M107.05,161.44
	c-3.9-2.26-5.25-7.26-2.99-11.18c2.27-3.92,7.28-5.25,11.2-2.99c3.92,2.26,5.25,7.28,2.99,11.2c-1.52,2.62-4.28,4.08-7.09,4.08
	C109.76,162.54,108.35,162.2,107.05,161.44 M97.24,190.71c-4.36-1.16-6.96-5.65-5.79-10.02c1.17-4.36,5.66-6.96,10.02-5.79
	c4.38,1.17,6.96,5.66,5.79,10.02c-0.97,3.66-4.29,6.08-7.91,6.08C98.66,191,97.96,190.91,97.24,190.71"/>
<path class="st6" d="M91.44,246.06c-1.16-4.37,1.43-8.87,5.81-10.02c4.36-1.17,8.85,1.43,10.02,5.79c1.17,4.38-1.43,8.87-5.79,10.02
	c-0.72,0.2-1.43,0.29-2.13,0.29C95.73,252.13,92.42,249.72,91.44,246.06 M104.06,276.5L104.06,276.5
	c-2.26-3.92-0.93-8.92,2.99-11.18c3.92-2.28,8.92-0.93,11.18,2.99c2.27,3.9,0.93,8.92-2.97,11.18c-1.3,0.76-2.7,1.1-4.1,1.1
	C108.34,280.59,105.58,279.13,104.06,276.5 M124.14,302.63L124.14,302.63c-3.2-3.2-3.2-8.38,0-11.58c3.19-3.19,8.38-3.19,11.57,0
	c3.2,3.2,3.2,8.38,0,11.58c-1.59,1.6-3.69,2.4-5.79,2.4C127.83,305.03,125.73,304.23,124.14,302.63 M150.26,322.69
	c-3.92-2.26-5.25-7.26-2.99-11.18c2.27-3.92,7.28-5.25,11.2-2.99c3.9,2.27,5.25,7.28,2.97,11.2c-1.52,2.62-4.26,4.09-7.09,4.09
	C152.96,323.81,151.54,323.45,150.26,322.69 M180.69,335.32L180.69,335.32c-4.36-1.17-6.96-5.66-5.79-10.02
	c1.17-4.37,5.66-6.96,10.02-5.79c4.38,1.16,6.96,5.65,5.79,10.02c-0.97,3.66-4.29,6.08-7.91,6.08
	C182.12,335.61,181.4,335.51,180.69,335.32"/>
<path class="st6" d="M325.29,251.88c-4.38-1.17-6.96-5.66-5.79-10.02c1.17-4.38,5.65-6.96,10.02-5.81
	c4.38,1.17,6.96,5.66,5.79,10.04c-0.97,3.66-4.29,6.06-7.91,6.06C326.71,252.15,326.01,252.06,325.29,251.88 M311.51,279.51
	c-3.9-2.28-5.25-7.28-2.99-11.2c2.27-3.92,7.28-5.25,11.2-2.99c3.9,2.27,5.25,7.28,2.99,11.2c-1.52,2.62-4.28,4.09-7.11,4.09
	C314.21,280.61,312.81,280.25,311.51,279.51 M291.04,302.63c-3.19-3.19-3.19-8.38,0-11.58c3.2-3.19,8.39-3.19,11.58,0
	c3.2,3.2,3.2,8.39,0,11.58c-1.6,1.6-3.69,2.4-5.79,2.4C294.75,305.03,292.65,304.23,291.04,302.63 M265.32,319.72
	c-2.26-3.92-0.93-8.92,2.99-11.2c3.92-2.26,8.92-0.93,11.18,2.99c2.27,3.92,0.93,8.92-2.97,11.2c-1.3,0.74-2.7,1.1-4.1,1.1
	C269.58,323.81,266.83,322.34,265.32,319.72 M236.03,329.53c-1.17-4.36,1.43-8.85,5.79-10.02c4.38-1.17,8.87,1.43,10.04,5.81
	c1.16,4.36-1.43,8.85-5.81,10.03c-0.7,0.18-1.42,0.27-2.12,0.27C240.32,335.61,237,333.19,236.03,329.53"/>
<path class="st6" d="M241.85,107.27c-4.38-1.17-6.96-5.66-5.81-10.02c1.17-4.38,5.66-6.96,10.04-5.79
	c4.36,1.16,6.96,5.65,5.79,10.02c-0.97,3.66-4.29,6.08-7.91,6.08C243.27,107.56,242.55,107.46,241.85,107.27 M268.31,118.25
	c-3.9-2.27-5.25-7.28-2.97-11.2c2.26-3.9,7.26-5.25,11.18-2.97c3.92,2.26,5.25,7.26,2.99,11.18c-1.52,2.62-4.28,4.09-7.09,4.09
	C271.01,119.35,269.61,119,268.31,118.25 M291.06,135.73L291.06,135.73c-3.2-3.2-3.2-8.39,0-11.58c3.19-3.2,8.38-3.2,11.58,0
	c3.19,3.2,3.19,8.38-0.01,11.58c-1.59,1.59-3.69,2.39-5.78,2.39C294.75,138.12,292.66,137.31,291.06,135.73 M308.53,158.46
	c-2.27-3.92-0.93-8.92,2.99-11.18c3.9-2.28,8.91-0.93,11.18,2.97c2.26,3.92,0.93,8.94-2.99,11.2c-1.29,0.75-2.7,1.1-4.09,1.1
	C312.8,162.56,310.05,161.1,308.53,158.46 M319.5,184.95c-1.16-4.38,1.43-8.87,5.81-10.02c4.36-1.17,8.85,1.41,10.02,5.79
	c1.16,4.38-1.43,8.85-5.81,10.02c-0.7,0.19-1.42,0.29-2.12,0.29C323.79,191.03,320.49,188.61,319.5,184.95"/>
<path class="st7" d="M95.36,213.39"/>
<path class="st6" d="M167.14,87.12c-0.9-2.78,0.63-5.76,3.42-6.67c2.79-0.89,5.78,0.64,6.66,3.43c0.9,2.79-0.63,5.76-3.42,6.66
	c-0.54,0.17-1.09,0.26-1.62,0.26C169.95,90.81,167.86,89.37,167.14,87.12 M140.22,100.59c-1.5-2.52-0.67-5.78,1.84-7.27
	c2.52-1.5,5.76-0.67,7.26,1.85c1.49,2.5,0.66,5.76-1.84,7.26c-0.86,0.5-1.79,0.74-2.72,0.74
	C142.96,103.18,141.2,102.25,140.22,100.59 M116.96,119.71c-2.02-2.12-1.93-5.48,0.19-7.49c2.12-2.02,5.46-1.93,7.49,0.19
	c2.02,2.12,1.93,5.48-0.19,7.49c-1.03,0.97-2.35,1.46-3.66,1.46C119.41,121.35,118.01,120.81,116.96,119.71 M98.53,143.51
	c-2.43-1.62-3.1-4.9-1.47-7.34c1.62-2.45,4.91-3.1,7.35-1.49c2.43,1.63,3.09,4.91,1.47,7.35c-1.02,1.53-2.7,2.37-4.42,2.37
	C100.45,144.41,99.43,144.11,98.53,143.51 M85.85,170.81c-2.75-1.03-4.12-4.09-3.09-6.83h0.01c1.03-2.73,4.09-4.1,6.82-3.08
	c2.75,1.05,4.12,4.11,3.09,6.84c-0.82,2.12-2.82,3.42-4.96,3.42C87.09,171.15,86.46,171.05,85.85,170.81 M79.57,200.25
	c-2.89-0.4-4.92-3.07-4.52-5.98c0.4-2.89,3.07-4.92,5.96-4.52c2.9,0.4,4.93,3.08,4.53,5.96c-0.36,2.66-2.63,4.58-5.25,4.58
	C80.07,200.29,79.83,200.28,79.57,200.25"/>
<path class="st6" d="M80.47,256.21L80.47,256.21c-0.9-2.79,0.63-5.78,3.42-6.66c2.79-0.9,5.76,0.63,6.66,3.42
	c0.9,2.79-0.64,5.78-3.42,6.67c-0.54,0.17-1.09,0.26-1.63,0.26C83.27,259.88,81.18,258.45,80.47,256.21 M93.32,284.71L93.32,284.71
	c-1.5-2.52-0.67-5.76,1.84-7.26c2.52-1.49,5.76-0.67,7.26,1.84c1.49,2.52,0.67,5.78-1.84,7.26c-0.86,0.51-1.79,0.74-2.7,0.74
	C96.07,287.3,94.31,286.38,93.32,284.71 M112.23,309.62c-2.03-2.12-1.94-5.48,0.17-7.49c2.12-2.02,5.48-1.93,7.49,0.19
	c2.02,2.12,1.93,5.48-0.19,7.49c-1.02,0.97-2.33,1.46-3.65,1.46C114.66,311.27,113.26,310.72,112.23,309.62 M136.17,329.71
	L136.17,329.71c-2.45-1.62-3.1-4.9-1.47-7.34c1.62-2.44,4.91-3.1,7.34-1.49c2.45,1.62,3.1,4.91,1.49,7.35
	c-1.03,1.53-2.7,2.36-4.42,2.36C138.09,330.6,137.07,330.31,136.17,329.71 M163.98,344L163.98,344c-2.75-1.03-4.12-4.09-3.09-6.84
	c1.04-2.73,4.1-4.1,6.84-3.07c2.75,1.04,4.12,4.1,3.07,6.83c-0.8,2.12-2.82,3.43-4.95,3.43C165.23,344.36,164.6,344.24,163.98,344
	 M194.29,351.72c-2.9-0.4-4.93-3.06-4.53-5.96c0.4-2.9,3.07-4.93,5.98-4.53h-0.01c2.9,0.4,4.93,3.08,4.53,5.96
	c-0.36,2.66-2.63,4.59-5.23,4.59C194.77,351.78,194.53,351.77,194.29,351.72"/>
<path class="st6" d="M345.76,237.02c-2.9-0.4-4.93-3.08-4.53-5.96c0.4-2.9,3.07-4.93,5.98-4.53c2.89,0.4,4.92,3.07,4.52,5.96
	c-0.36,2.66-2.63,4.57-5.23,4.57C346.24,237.06,346,237.05,345.76,237.02 M337.18,265.88c-2.75-1.04-4.12-4.1-3.09-6.84
	c1.04-2.75,4.1-4.12,6.84-3.09c2.75,1.04,4.12,4.1,3.09,6.85c-0.82,2.12-2.82,3.42-4.96,3.42
	C338.42,266.22,337.79,266.11,337.18,265.88 M322.38,292.09c-2.45-1.63-3.1-4.92-1.49-7.35c1.62-2.45,4.92-3.1,7.35-1.49
	c2.43,1.63,3.1,4.92,1.49,7.35h-0.01c-1.02,1.55-2.7,2.38-4.42,2.38C324.29,292.98,323.28,292.69,322.38,292.09 M302.13,314.37
	c-2.02-2.12-1.93-5.48,0.19-7.49c2.12-2.02,5.48-1.93,7.49,0.19c2.02,2.12,1.93,5.48-0.19,7.49c-1.03,0.97-2.33,1.46-3.65,1.46
	C304.57,316.01,303.17,315.46,302.13,314.37 M277.46,331.6c-1.5-2.52-0.67-5.76,1.84-7.26h-0.01c2.52-1.49,5.78-0.67,7.28,1.84
	c1.49,2.52,0.66,5.78-1.86,7.26c-0.84,0.52-1.77,0.74-2.7,0.74C280.2,334.19,278.45,333.28,277.46,331.6 M249.54,342.89
	c-0.9-2.79,0.63-5.78,3.42-6.66c2.79-0.9,5.78,0.64,6.66,3.43c0.9,2.78-0.63,5.76-3.42,6.66c-0.54,0.17-1.09,0.26-1.62,0.26
	C252.35,346.57,250.26,345.13,249.54,342.89"/>
<path class="st6" d="M231.04,85.55c-2.89-0.4-4.92-3.07-4.52-5.96c0.4-2.9,3.07-4.93,5.96-4.53c2.9,0.4,4.93,3.08,4.53,5.96
	c-0.36,2.66-2.63,4.58-5.25,4.58C231.54,85.59,231.3,85.58,231.04,85.55 M259.04,92.67c-2.75-1.03-4.12-4.09-3.07-6.82
	c1.03-2.75,4.09-4.12,6.82-3.09c2.75,1.04,4.12,4.1,3.09,6.83c-0.82,2.12-2.82,3.43-4.96,3.43
	C260.28,93.03,259.65,92.91,259.04,92.67 M284.74,105.88c-2.45-1.63-3.1-4.92-1.49-7.35c1.63-2.43,4.92-3.1,7.35-1.49
	c2.45,1.63,3.1,4.92,1.47,7.35c-1.02,1.54-2.7,2.37-4.42,2.37C286.65,106.77,285.64,106.48,284.74,105.88 M306.87,124.46
	c-2.02-2.12-1.94-5.48,0.19-7.49c2.12-2.02,5.46-1.93,7.49,0.19c2.02,2.12,1.93,5.48-0.19,7.49c-1.03,0.97-2.35,1.46-3.66,1.46
	C309.31,126.1,307.92,125.55,306.87,124.46 M324.34,147.48L324.34,147.48c-1.49-2.52-0.67-5.78,1.84-7.26
	c2.52-1.5,5.78-0.67,7.26,1.84c1.5,2.5,0.67,5.76-1.84,7.26c-0.84,0.5-1.77,0.74-2.7,0.74C327.1,150.07,325.34,149.14,324.34,147.48
	 M336.22,173.81L336.22,173.81c-0.89-2.79,0.64-5.78,3.42-6.66c2.79-0.9,5.78,0.63,6.68,3.42c0.89,2.79-0.64,5.78-3.43,6.67
	c-0.54,0.17-1.09,0.26-1.62,0.26C339.02,177.48,336.95,176.05,336.22,173.81"/>
<path class="st8" d="M79.57,225.09"/>
<path class="st6" d="M149.91,80.8c-0.9-2.04,0.01-4.43,2.06-5.35c2.06-0.9,4.45,0.01,5.35,2.06c0.92,2.04,0,4.45-2.06,5.35
	c-0.53,0.24-1.09,0.36-1.63,0.36C152.07,83.22,150.58,82.31,149.91,80.8 M127.85,93.83c-1.24-1.86-0.76-4.38,1.1-5.62
	c1.86-1.26,4.38-0.77,5.62,1.09c1.26,1.86,0.77,4.38-1.09,5.63c-0.7,0.46-1.49,0.69-2.26,0.69
	C129.92,95.61,128.63,94.99,127.85,93.83 M108.4,110.52c-1.56-1.62-1.52-4.18,0.1-5.74c1.6-1.56,4.18-1.52,5.73,0.1
	c1.56,1.6,1.52,4.18-0.1,5.72v0.01c-0.79,0.76-1.8,1.13-2.82,1.13C110.26,111.75,109.2,111.33,108.4,110.52 M92.15,130.32
	c-1.82-1.32-2.22-3.86-0.9-5.66c1.32-1.82,3.85-2.22,5.66-0.9c1.8,1.32,2.22,3.85,0.9,5.66c-0.8,1.09-2.03,1.67-3.29,1.67
	C93.7,131.09,92.87,130.84,92.15,130.32 M79.57,152.63c-2.02-0.99-2.85-3.42-1.87-5.42c0.99-2.01,3.42-2.84,5.42-1.87
	c2.02,0.99,2.85,3.42,1.87,5.43c-0.7,1.43-2.15,2.27-3.65,2.27C80.74,153.05,80.14,152.9,79.57,152.63 M71.03,176.79
	c-2.16-0.63-3.4-2.88-2.77-5.02c0.61-2.16,2.86-3.4,5.02-2.77c2.15,0.61,3.39,2.86,2.77,5.02c-0.51,1.77-2.15,2.93-3.9,2.93
	C71.77,176.94,71.4,176.88,71.03,176.79 M66.83,202.04c-2.23-0.23-3.85-2.23-3.62-4.46c0.24-2.22,2.23-3.83,4.46-3.61
	c2.23,0.23,3.85,2.23,3.6,4.46c-0.21,2.07-1.97,3.63-4.02,3.63C67.11,202.07,66.97,202.05,66.83,202.04 M62.76,223.89
	c-0.16-2.23,1.53-4.16,3.76-4.32c2.23-0.16,4.18,1.52,4.33,3.76v-0.01c0.16,2.24-1.53,4.18-3.76,4.33c-0.1,0.02-0.2,0.02-0.29,0.02
	C64.7,227.67,62.92,226.04,62.76,223.89"/>
<path class="st6" d="M75.45,274.8c-0.9-2.05,0.01-4.45,2.06-5.35c2.04-0.92,4.45,0.01,5.35,2.06c0.92,2.05-0.01,4.43-2.06,5.35
	c-0.53,0.23-1.09,0.34-1.64,0.34C77.61,277.2,76.12,276.3,75.45,274.8 M88.21,297.82L88.21,297.82c-1.26-1.84-0.76-4.38,1.09-5.62
	c1.86-1.26,4.38-0.77,5.63,1.09c1.24,1.86,0.76,4.37-1.1,5.63c-0.69,0.47-1.47,0.69-2.26,0.69
	C90.26,299.61,88.99,298.98,88.21,297.82 M104.78,318.27c-1.56-1.61-1.52-4.18,0.1-5.73c1.6-1.56,4.18-1.52,5.73,0.1
	c1.54,1.6,1.5,4.18-0.1,5.73c-0.79,0.76-1.8,1.14-2.82,1.14C106.64,319.52,105.58,319.1,104.78,318.27 M124.66,335.52
	c-1.82-1.32-2.22-3.85-0.9-5.66c1.32-1.82,3.85-2.22,5.66-0.9c1.82,1.32,2.22,3.85,0.9,5.66c-0.79,1.1-2.03,1.67-3.29,1.67
	C126.22,336.29,125.37,336.05,124.66,335.52 M147.21,349.08c-2.02-0.99-2.85-3.42-1.86-5.43c0.97-2,3.4-2.85,5.42-1.86
	c2.02,0.99,2.85,3.42,1.86,5.42c-0.7,1.44-2.15,2.27-3.65,2.27C148.38,349.48,147.78,349.35,147.21,349.08 M171.76,358.52
	c-2.15-0.62-3.39-2.86-2.77-5.01c0.61-2.16,2.86-3.4,5.02-2.79c2.15,0.63,3.39,2.87,2.77,5.02c-0.51,1.77-2.13,2.93-3.89,2.93
	C172.52,358.67,172.14,358.63,171.76,358.52 M197.59,363.56c-2.23-0.24-3.85-2.24-3.62-4.46c0.24-2.23,2.23-3.85,4.46-3.6
	c2.23,0.23,3.85,2.22,3.6,4.45c-0.21,2.09-1.97,3.63-4.03,3.63C197.88,363.58,197.73,363.56,197.59,363.56 M219.57,360.25
	c-0.16-2.23,1.53-4.18,3.76-4.33c2.23-0.16,4.18,1.53,4.33,3.76c0.16,2.23-1.53,4.18-3.76,4.33c-0.1,0-0.2,0.01-0.29,0.01
	C221.5,364.02,219.73,362.38,219.57,360.25"/>
<path class="st6" d="M355.91,203.44L355.91,203.44c-0.16-2.23,1.53-4.18,3.76-4.33c2.23-0.16,4.18,1.53,4.33,3.76
	c0.16,2.23-1.53,4.18-3.76,4.33c-0.1,0.01-0.19,0.01-0.29,0.01C357.84,207.22,356.07,205.57,355.91,203.44 M359.1,232.79
	c-2.23-0.23-3.85-2.22-3.6-4.45c0.23-2.23,2.23-3.85,4.45-3.6c2.23,0.23,3.85,2.23,3.62,4.45h-0.01c-0.21,2.09-1.97,3.63-4.02,3.63
	C359.39,232.81,359.24,232.81,359.1,232.79 M353.51,257.78c-2.16-0.61-3.4-2.86-2.79-5.02c0.63-2.15,2.87-3.39,5.02-2.78
	c2.16,0.62,3.4,2.86,2.77,5.02c-0.5,1.77-2.13,2.93-3.89,2.93C354.25,257.94,353.88,257.88,353.51,257.78 M343.66,281.42
	c-2.02-0.99-2.86-3.4-1.87-5.42c0.99-2.02,3.42-2.85,5.42-1.86c2.02,0.97,2.85,3.4,1.87,5.42c-0.72,1.44-2.15,2.27-3.65,2.27
	C344.83,281.84,344.23,281.71,343.66,281.42 M329.86,303.02c-1.8-1.32-2.22-3.85-0.9-5.66c1.32-1.81,3.85-2.22,5.66-0.9
	s2.22,3.85,0.9,5.66c-0.79,1.09-2.03,1.67-3.27,1.67C331.42,303.79,330.57,303.53,329.86,303.02 M312.54,321.89
	c-1.56-1.6-1.52-4.18,0.1-5.73c1.6-1.56,4.18-1.52,5.73,0.1c1.56,1.6,1.52,4.18-0.1,5.74c-0.79,0.76-1.8,1.14-2.82,1.14
	C314.4,323.14,313.34,322.72,312.54,321.89 M292.2,337.48c-1.26-1.86-0.77-4.38,1.09-5.64c1.86-1.24,4.38-0.76,5.63,1.09
	c1.24,1.86,0.76,4.38-1.1,5.64c-0.69,0.47-1.47,0.7-2.26,0.7C294.26,339.27,292.99,338.64,292.2,337.48 M269.44,349.26
	c-0.9-2.04,0.03-4.45,2.07-5.36v0.02c2.04-0.92,4.43,0.01,5.35,2.06c0.9,2.04-0.01,4.43-2.06,5.35c-0.54,0.24-1.1,0.34-1.64,0.34
	C271.6,351.67,270.11,350.77,269.44,349.26"/>
<path class="st6" d="M199.12,67.1c-0.16-2.25,1.52-4.18,3.75-4.33c2.23-0.16,4.18,1.52,4.33,3.75c0.16,2.25-1.52,4.18-3.76,4.33
	c-0.09,0.01-0.19,0.01-0.29,0.01C201.05,70.86,199.26,69.23,199.12,67.1 M228.34,71.28L228.34,71.28c-2.23-0.23-3.85-2.23-3.6-4.46
	c0.23-2.22,2.23-3.83,4.46-3.6c2.22,0.23,3.83,2.23,3.6,4.46c-0.23,2.07-1.99,3.62-4.03,3.62
	C228.62,71.29,228.48,71.29,228.34,71.28 M252.76,76.04c-2.15-0.61-3.39-2.86-2.76-5.02c0.61-2.15,2.86-3.39,5.01-2.78
	c2.16,0.63,3.4,2.87,2.77,5.02c-0.51,1.77-2.13,2.93-3.89,2.93C253.52,76.2,253.15,76.15,252.76,76.04 M276,84.99
	c-2-0.99-2.85-3.42-1.86-5.43c0.99-2,3.42-2.85,5.42-1.86c2.02,0.99,2.85,3.42,1.87,5.42c-0.72,1.44-2.16,2.27-3.66,2.27
	C277.19,85.39,276.57,85.26,276,84.99 M297.35,97.82c-1.82-1.32-2.22-3.86-0.9-5.66c1.32-1.81,3.85-2.22,5.66-0.9
	c1.82,1.32,2.22,3.85,0.9,5.66c-0.79,1.09-2.03,1.67-3.29,1.67C298.91,98.59,298.07,98.33,297.35,97.82 M316.17,114.13
	c-1.56-1.6-1.52-4.18,0.09-5.73c1.62-1.56,4.18-1.51,5.73,0.1c1.56,1.6,1.52,4.18-0.1,5.73c-0.79,0.76-1.8,1.13-2.82,1.13
	C318.01,115.36,316.96,114.96,316.17,114.13 M331.84,133.47c-1.24-1.84-0.76-4.36,1.1-5.62c1.84-1.26,4.38-0.77,5.62,1.09
	c1.26,1.86,0.77,4.37-1.09,5.63c-0.7,0.47-1.49,0.7-2.27,0.7C333.9,135.27,332.63,134.64,331.84,133.47 M343.91,155.26
	c-0.92-2.05,0.01-4.43,2.06-5.35c2.05-0.9,4.43,0.01,5.35,2.06c0.9,2.05-0.01,4.45-2.06,5.35c-0.54,0.24-1.1,0.36-1.64,0.36
	C346.06,157.68,344.59,156.78,343.91,155.26"/>
<path class="st9" d="M70.84,248.92"/>
<path class="st6" d="M158.89,54.84c-1.66-6.19,2.02-12.55,8.21-14.2c6.19-1.66,12.56,2.02,14.2,8.21c1.66,6.19-2.02,12.54-8.21,14.2
	c-1,0.27-2,0.4-3,0.4C164.97,63.45,160.28,60.03,158.89,54.84 M119.74,74.38c-3.2-5.55-1.32-12.64,4.23-15.86
	c5.55-3.2,12.64-1.3,15.85,4.23c3.22,5.55,1.32,12.64-4.23,15.86c-1.83,1.04-3.82,1.56-5.79,1.56
	C125.79,80.17,121.88,78.08,119.74,74.38 M86.96,103.35c-4.53-4.52-4.53-11.87,0-16.4c4.53-4.53,11.88-4.53,16.4,0
	c4.53,4.53,4.53,11.88,0,16.42c-2.26,2.26-5.23,3.39-8.19,3.39C92.2,106.75,89.23,105.62,86.96,103.35 M62.76,139.8
	c-5.55-3.2-7.44-10.31-4.23-15.84c3.22-5.55,10.31-7.45,15.85-4.23c5.55,3.2,7.45,10.3,4.23,15.85c-2.15,3.72-6.05,5.79-10.05,5.79
	C66.6,141.36,64.6,140.86,62.76,139.8 M48.86,181.27c-6.19-1.66-9.87-8.02-8.21-14.21c1.64-6.19,8.01-9.85,14.2-8.21
	c6.19,1.66,9.87,8.02,8.21,14.21c-1.39,5.18-6.08,8.6-11.2,8.6C50.88,181.66,49.87,181.53,48.86,181.27"/>
<path class="st6" d="M40.64,259.67L40.64,259.67c-1.66-6.19,2.03-12.56,8.21-14.21c6.19-1.64,12.56,2.03,14.2,8.22h0.01
	c1.64,6.19-2.03,12.54-8.22,14.2c-1,0.27-2,0.4-3,0.4C46.72,268.28,42.03,264.85,40.64,259.67 M58.52,302.8
	c-3.2-5.55-1.3-12.64,4.23-15.85c5.55-3.22,12.64-1.32,15.86,4.23c3.2,5.53,1.32,12.64-4.23,15.85c-1.83,1.06-3.83,1.56-5.81,1.56
	C64.57,308.59,60.68,306.52,58.52,302.8 M86.95,339.81c-4.52-4.53-4.52-11.88,0-16.4c4.53-4.53,11.88-4.53,16.42,0
	c4.53,4.53,4.52,11.87,0,16.4c-2.27,2.26-5.23,3.39-8.21,3.39S89.22,342.07,86.95,339.81 M123.96,368.24
	c-5.55-3.22-7.44-10.31-4.23-15.86c3.2-5.53,10.31-7.44,15.84-4.22v-0.01c5.55,3.22,7.45,10.31,4.23,15.86
	c-2.15,3.72-6.05,5.79-10.05,5.79C127.78,369.8,125.79,369.3,123.96,368.24 M167.07,386.12c-6.19-1.64-9.87-8.01-8.21-14.2
	c1.64-6.19,8.01-9.87,14.2-8.21c6.19,1.66,9.85,8.01,8.21,14.2c-1.39,5.19-6.08,8.61-11.2,8.61
	C169.08,386.52,168.07,386.39,167.07,386.12"/>
<path class="st6" d="M371.91,267.91c-6.19-1.66-9.87-8.01-8.21-14.2c1.66-6.19,8.02-9.87,14.2-8.21c6.19,1.66,9.87,8.01,8.21,14.2
	c-1.39,5.19-6.06,8.61-11.2,8.61C373.93,268.31,372.91,268.18,371.91,267.91 M352.39,307.05c-5.55-3.22-7.45-10.31-4.23-15.86
	c3.2-5.54,10.3-7.44,15.85-4.22c5.55,3.2,7.44,10.3,4.23,15.85c-2.15,3.72-6.05,5.79-10.05,5.79
	C356.21,308.61,354.22,308.11,352.39,307.05 M323.41,339.81c-4.53-4.53-4.53-11.87,0-16.4c4.53-4.53,11.87-4.53,16.4,0
	c4.53,4.53,4.53,11.88,0,16.42c-2.26,2.26-5.23,3.39-8.21,3.39C328.64,343.21,325.67,342.08,323.41,339.81 M286.95,364.01
	c-3.22-5.54-1.32-12.64,4.23-15.85c5.53-3.2,12.64-1.31,15.85,4.23c3.2,5.55,1.32,12.64-4.23,15.85c-1.83,1.06-3.82,1.57-5.79,1.57
	C293,369.81,289.1,367.73,286.95,364.01 M245.47,377.92c-1.66-6.19,2.02-12.55,8.21-14.2c6.19-1.66,12.54,2.02,14.2,8.21
	c1.66,6.18-2.02,12.54-8.21,14.2c-1,0.27-2.02,0.4-3,0.4C251.55,386.53,246.86,383.11,245.47,377.92"/>
<path class="st6" d="M253.71,63.07L253.71,63.07c-6.19-1.66-9.87-8.02-8.21-14.21c1.66-6.18,8.02-9.85,14.21-8.19
	c6.18,1.64,9.85,8.01,8.19,14.2c-1.37,5.18-6.06,8.61-11.2,8.61C255.72,63.47,254.71,63.34,253.71,63.07 M291.2,78.61
	c-5.55-3.2-7.45-10.31-4.23-15.85c3.2-5.55,10.3-7.44,15.85-4.23c5.55,3.2,7.44,10.31,4.23,15.84c-2.15,3.72-6.05,5.79-10.05,5.79
	C295.02,80.17,293.03,79.67,291.2,78.61 M323.41,103.37L323.41,103.37c-4.52-4.53-4.52-11.87,0-16.4c4.53-4.53,11.88-4.53,16.42,0
	c4.52,4.53,4.52,11.87,0,16.4c-2.27,2.26-5.23,3.4-8.21,3.4C328.64,106.77,325.68,105.62,323.41,103.37 M348.16,135.58
	c-3.2-5.55-1.32-12.64,4.23-15.85c5.55-3.22,12.64-1.31,15.86,4.23c3.2,5.54,1.32,12.64-4.23,15.85c-1.83,1.06-3.83,1.56-5.81,1.56
	C354.21,141.38,350.32,139.3,348.16,135.58 M363.72,173.1c-1.66-6.19,2.02-12.54,8.21-14.2c6.19-1.66,12.54,2.02,14.2,8.21
	c1.66,6.19-2.02,12.56-8.21,14.2c-1,0.27-2.02,0.4-3,0.4C369.8,181.7,365.11,178.29,363.72,173.1"/>
<path class="st10" d="M46.19,213.39"/>
<path class="st6" d="M147.88,34.52c-1.27-3.95,0.9-8.17,4.85-9.44c3.95-1.27,8.17,0.9,9.44,4.85c1.27,3.95-0.9,8.18-4.85,9.44v0.01
	c-0.77,0.24-1.54,0.36-2.3,0.36C151.84,39.74,148.9,37.71,147.88,34.52 M109.73,53.6c-2.12-3.58-0.94-8.18,2.62-10.29
	c3.56-2.12,8.17-0.96,10.28,2.62c2.13,3.56,0.96,8.17-2.62,10.28c-1.2,0.72-2.52,1.06-3.82,1.06
	C113.63,57.26,111.13,55.95,109.73,53.6 M76.79,80.69c-2.86-3-2.73-7.75,0.26-10.61c3-2.86,7.77-2.75,10.63,0.26
	c2.85,3,2.73,7.75-0.27,10.61c-1.44,1.39-3.32,2.07-5.18,2.07C80.25,83.02,78.27,82.24,76.79,80.69 M50.68,114.41
	c-3.45-2.29-4.39-6.95-2.09-10.41c2.29-3.45,6.95-4.39,10.4-2.09c3.46,2.29,4.4,6.95,2.1,10.4c-1.44,2.17-3.83,3.36-6.26,3.36
	C53.41,115.66,51.97,115.25,50.68,114.41 M32.7,153.07c-3.88-1.47-5.82-5.81-4.36-9.68c1.47-3.88,5.81-5.83,9.68-4.36
	c3.88,1.47,5.83,5.81,4.36,9.68c-1.14,3-3.99,4.85-7.02,4.85C34.48,153.56,33.58,153.4,32.7,153.07 M23.84,194.78
	c-4.12-0.56-6.99-4.35-6.42-8.45c0.56-4.1,4.35-6.98,8.45-6.42c4.1,0.57,6.98,4.35,6.42,8.47c-0.51,3.76-3.73,6.48-7.44,6.48
	C24.52,194.85,24.18,194.83,23.84,194.78"/>
<path class="st6" d="M25.08,274.04L25.08,274.04c-1.26-3.95,0.9-8.17,4.85-9.44c3.95-1.27,8.18,0.9,9.45,4.85
	c1.26,3.95-0.92,8.18-4.86,9.44c-0.76,0.26-1.53,0.37-2.29,0.37C29.06,279.26,26.11,277.23,25.08,274.04 M43.3,314.43
	c-2.12-3.56-0.94-8.17,2.62-10.28c3.56-2.13,8.17-0.96,10.28,2.6c2.13,3.58,0.96,8.18-2.6,10.3c-1.2,0.72-2.53,1.06-3.83,1.06
	C47.21,318.1,44.7,316.79,43.3,314.43 M70.07,349.71c-2.86-2.99-2.73-7.75,0.26-10.61c3-2.86,7.77-2.73,10.63,0.27
	c2.85,2.99,2.73,7.75-0.27,10.61c-1.44,1.37-3.3,2.06-5.16,2.06C73.53,352.04,71.56,351.27,70.07,349.71 M104.01,378.18
	c-3.46-2.29-4.4-6.95-2.1-10.41c2.29-3.45,6.95-4.39,10.41-2.09c3.45,2.29,4.39,6.95,2.09,10.41c-1.44,2.17-3.83,3.35-6.25,3.35
	C106.72,379.44,105.28,379.04,104.01,378.18 M143.39,398.43c-3.88-1.47-5.82-5.8-4.36-9.68c1.47-3.88,5.81-5.83,9.68-4.36
	c3.88,1.47,5.83,5.81,4.36,9.68c-1.14,3-3.99,4.85-7.02,4.85C145.16,398.92,144.26,398.76,143.39,398.43 M186.32,409.35
	c-4.1-0.56-6.98-4.35-6.42-8.45c0.57-4.1,4.35-6.98,8.47-6.42c4.1,0.57,6.98,4.35,6.41,8.47c-0.51,3.76-3.73,6.48-7.42,6.48
	C187.01,409.43,186.66,409.41,186.32,409.35"/>
<path class="st6" d="M400.9,246.87c-4.1-0.57-6.98-4.35-6.42-8.47c0.57-4.1,4.35-6.98,8.45-6.41c4.12,0.56,6.99,4.35,6.42,8.45
	c-0.51,3.76-3.73,6.49-7.42,6.49C401.59,246.94,401.24,246.91,400.9,246.87 M388.75,287.74c-3.88-1.47-5.83-5.81-4.36-9.68
	c1.47-3.88,5.81-5.83,9.68-4.36c3.88,1.47,5.83,5.81,4.36,9.68c-1.14,3-3.99,4.85-7.02,4.85
	C390.52,288.23,389.62,288.07,388.75,287.74 M367.77,324.87c-3.45-2.29-4.39-6.95-2.09-10.4c2.29-3.46,6.95-4.4,10.41-2.1
	c3.45,2.29,4.39,6.95,2.09,10.41c-1.44,2.17-3.82,3.35-6.25,3.35C370.5,326.13,369.05,325.73,367.77,324.87 M339.11,356.44
	c-2.86-3-2.75-7.75,0.26-10.63c3-2.86,7.75-2.73,10.61,0.27c2.86,2.99,2.75,7.75-0.26,10.61c-1.46,1.37-3.32,2.06-5.18,2.06
	C342.55,358.76,340.58,357.99,339.11,356.44 M304.14,380.85c-2.12-3.56-0.96-8.17,2.62-10.28c3.55-2.13,8.17-0.96,10.28,2.6
	c2.12,3.56,0.94,8.18-2.62,10.29c-1.2,0.72-2.52,1.06-3.82,1.06C308.03,384.53,305.54,383.21,304.14,380.85 M264.6,396.84
	c-1.27-3.95,0.9-8.18,4.85-9.45v0.01c3.95-1.27,8.18,0.9,9.45,4.85c1.26,3.95-0.92,8.17-4.86,9.44c-0.76,0.24-1.53,0.36-2.29,0.36
	C268.58,402.05,265.63,400.02,264.6,396.84"/>
<path class="st6" d="M238.4,32.29c-4.1-0.57-6.98-4.35-6.41-8.47c0.56-4.1,4.35-6.98,8.45-6.41c4.1,0.56,6.98,4.35,6.42,8.45
	c-0.51,3.76-3.75,6.49-7.44,6.49C239.09,32.36,238.75,32.33,238.4,32.29 M278.06,42.39c-3.88-1.47-5.83-5.81-4.36-9.68
	c1.47-3.88,5.81-5.83,9.68-4.36c3.88,1.47,5.83,5.8,4.36,9.68c-1.14,3-3.99,4.85-7.02,4.85C279.83,42.87,278.93,42.72,278.06,42.39
	 M314.47,61.09L314.47,61.09c-3.46-2.3-4.4-6.95-2.1-10.41c2.29-3.44,6.95-4.39,10.41-2.09c3.45,2.29,4.39,6.95,2.09,10.4
	c-1.44,2.17-3.82,3.36-6.25,3.36C317.19,62.35,315.74,61.94,314.47,61.09 M345.83,87.41c-2.86-3-2.75-7.75,0.26-10.61
	c2.99-2.86,7.75-2.74,10.61,0.26c2.86,3,2.75,7.75-0.26,10.61c-1.46,1.39-3.32,2.07-5.18,2.07
	C349.28,89.74,347.3,88.96,345.83,87.41 M370.57,120.03c-2.12-3.58-0.96-8.18,2.62-10.3c3.56-2.12,8.17-0.96,10.28,2.62
	c2.12,3.56,0.96,8.17-2.62,10.28c-1.2,0.72-2.52,1.06-3.83,1.06C374.46,123.69,371.97,122.39,370.57,120.03 M387.39,157.32
	L387.39,157.32c-1.26-3.95,0.92-8.18,4.86-9.45c3.95-1.26,8.17,0.92,9.44,4.86c1.27,3.95-0.9,8.18-4.85,9.44
	c-0.77,0.24-1.54,0.36-2.3,0.36C391.36,162.53,388.42,160.5,387.39,157.32"/>
<path class="st11" d="M23.83,229.97"/>
<path class="st6" d="M123.47,25.57c-1.29-2.9,0.03-6.29,2.92-7.58c2.9-1.29,6.29,0.01,7.58,2.92c1.29,2.9-0.01,6.29-2.92,7.58
	c-0.76,0.33-1.54,0.5-2.32,0.5C126.53,28.99,124.43,27.72,123.47,25.57 M92.21,44.02c-1.77-2.63-1.07-6.19,1.56-7.97
	c2.63-1.77,6.19-1.09,7.97,1.54c1.77,2.63,1.09,6.21-1.54,7.98c-0.99,0.66-2.1,0.97-3.2,0.97C95.14,46.55,93.32,45.66,92.21,44.02
	 M64.67,67.66c-2.2-2.27-2.15-5.92,0.13-8.12c2.29-2.2,5.92-2.15,8.12,0.13c2.2,2.29,2.15,5.92-0.13,8.12
	c-1.12,1.09-2.56,1.62-3.99,1.62C67.3,69.4,65.8,68.82,64.67,67.66 M41.64,95.71c-2.57-1.86-3.15-5.46-1.27-8.02
	c1.86-2.57,5.45-3.13,8.01-1.27c2.57,1.86,3.15,5.45,1.29,8.02c-1.13,1.54-2.87,2.36-4.66,2.36C43.84,96.8,42.66,96.46,41.64,95.71
	 M23.81,127.32c-2.85-1.39-4.03-4.83-2.65-7.68c1.4-2.85,4.83-4.03,7.69-2.65c2.85,1.4,4.02,4.83,2.63,7.69v-0.01
	c-1,2.04-3.03,3.23-5.16,3.23C25.48,127.91,24.62,127.72,23.81,127.32 M11.71,161.53c-3.05-0.87-4.8-4.05-3.92-7.11
	c0.87-3.05,4.05-4.8,7.09-3.93c3.06,0.89,4.82,4.06,3.93,7.11c-0.72,2.53-3.02,4.16-5.51,4.16
	C12.78,161.75,12.24,161.68,11.71,161.53 M5.76,197.32c-3.16-0.33-5.45-3.16-5.11-6.32c0.33-3.15,3.15-5.43,6.31-5.11
	c3.16,0.33,5.45,3.16,5.11,6.31c-0.3,2.96-2.8,5.15-5.71,5.15C6.16,197.35,5.96,197.33,5.76,197.32 M0.01,228.28
	c-0.21-3.16,2.16-5.91,5.32-6.13c3.17-0.21,5.92,2.16,6.13,5.32c0.23,3.17-2.16,5.92-5.32,6.13c-0.13,0.01-0.27,0.03-0.4,0.03
	C2.76,233.63,0.23,231.31,0.01,228.28"/>
<path class="st6" d="M17.99,300.38c-1.29-2.9,0.01-6.29,2.92-7.59c2.9-1.27,6.29,0.03,7.58,2.93c1.29,2.9-0.01,6.29-2.92,7.58
	c-0.76,0.33-1.54,0.49-2.33,0.49C21.04,303.79,18.93,302.52,17.99,300.38 M36.05,333c-1.77-2.63-1.09-6.19,1.54-7.96
	c2.63-1.77,6.21-1.09,7.98,1.54c1.77,2.63,1.07,6.19-1.54,7.98c-0.99,0.66-2.1,0.97-3.22,0.97C38.97,335.53,37.17,334.65,36.05,333
	 M59.53,361.98L59.53,361.98c-2.2-2.29-2.15-5.92,0.13-8.12c2.29-2.22,5.92-2.15,8.12,0.13c2.2,2.29,2.15,5.92-0.13,8.12
	c-1.12,1.07-2.56,1.61-3.99,1.61C62.16,363.72,60.66,363.13,59.53,361.98 M87.69,386.4L87.69,386.4c-2.56-1.86-3.13-5.45-1.27-8.01
	c1.86-2.57,5.45-3.15,8.02-1.29c2.56,1.86,3.13,5.46,1.27,8.02c-1.13,1.54-2.87,2.37-4.65,2.37
	C89.89,387.5,88.71,387.15,87.69,386.4 M119.64,405.59c-2.85-1.39-4.03-4.82-2.63-7.68c1.39-2.85,4.82-4.03,7.68-2.63h-0.01
	c2.86,1.39,4.05,4.82,2.65,7.68c-0.99,2.03-3.03,3.22-5.16,3.22C121.31,406.18,120.45,405.99,119.64,405.59 M154.43,418.98
	c-3.06-0.87-4.82-4.06-3.93-7.09c0.87-3.06,4.05-4.82,7.11-3.95c3.05,0.89,4.8,4.06,3.93,7.11c-0.73,2.53-3.03,4.16-5.52,4.16
	C155.49,419.21,154.96,419.14,154.43,418.98 M191.01,426.11c-3.16-0.33-5.45-3.15-5.12-6.31c0.33-3.16,3.16-5.45,6.32-5.12
	c3.15,0.34,5.43,3.16,5.11,6.32c-0.31,2.95-2.8,5.15-5.71,5.15C191.41,426.16,191.21,426.14,191.01,426.11 M222.16,421.42
	c-0.23-3.16,2.15-5.91,5.32-6.13c3.16-0.21,5.91,2.16,6.13,5.32c0.21,3.17-2.16,5.92-5.33,6.13c-0.13,0.01-0.27,0.01-0.4,0.01
	C224.89,426.76,222.36,424.46,222.16,421.42"/>
<path class="st6" d="M415.3,199.29c-0.23-3.16,2.16-5.91,5.32-6.13c3.16-0.22,5.91,2.16,6.13,5.32c0.23,3.17-2.16,5.92-5.32,6.14
	c-0.14,0.01-0.29,0.01-0.41,0.01C418.03,204.63,415.52,202.33,415.3,199.29 M419.81,240.88c-3.15-0.34-5.45-3.16-5.11-6.32
	c0.33-3.14,3.16-5.43,6.31-5.1c3.16,0.33,5.45,3.16,5.12,6.31c-0.31,2.96-2.82,5.15-5.72,5.15
	C420.21,240.91,420.01,240.9,419.81,240.88 M411.88,276.27c-3.06-0.87-4.82-4.06-3.93-7.11c0.87-3.05,4.05-4.81,7.11-3.93
	c3.05,0.89,4.8,4.06,3.93,7.11c-0.73,2.52-3.03,4.16-5.52,4.16C412.94,276.5,412.41,276.43,411.88,276.27 M397.93,309.77
	c-2.86-1.39-4.05-4.83-2.65-7.68c1.39-2.85,4.83-4.03,7.68-2.63c2.85,1.39,4.03,4.82,2.65,7.68c-1,2.03-3.05,3.22-5.18,3.22
	C399.59,310.35,398.73,310.17,397.93,309.77 M378.39,340.35c-2.57-1.86-3.15-5.45-1.29-8.02c1.86-2.57,5.46-3.13,8.02-1.27
	c2.57,1.86,3.15,5.45,1.27,8.02c-1.12,1.54-2.87,2.36-4.65,2.36C380.58,341.44,379.41,341.1,378.39,340.35 M353.85,367.1
	c-2.2-2.28-2.15-5.91,0.13-8.12c2.29-2.2,5.92-2.15,8.12,0.14c2.2,2.27,2.15,5.9-0.13,8.12c-1.12,1.07-2.56,1.62-3.99,1.62
	C356.48,368.86,354.98,368.27,353.85,367.1 M325.04,389.18c-1.77-2.63-1.09-6.21,1.54-7.98c2.63-1.77,6.21-1.09,7.98,1.54
	s1.07,6.21-1.56,7.98c-0.97,0.67-2.09,0.99-3.2,0.99C327.95,391.71,326.15,390.82,325.04,389.18 M292.8,405.86
	c-1.29-2.9,0.01-6.29,2.92-7.58c2.9-1.29,6.29,0.01,7.58,2.92c1.29,2.9-0.03,6.29-2.92,7.58c-0.76,0.34-1.54,0.5-2.33,0.5
	C295.85,409.28,293.75,408.01,292.8,405.86"/>
<path class="st6" d="M193.17,6.15c-0.23-3.16,2.16-5.91,5.32-6.13c3.16-0.23,5.91,2.16,6.13,5.32c0.21,3.16-2.16,5.92-5.32,6.13
	c-0.14,0.02-0.27,0.02-0.41,0.02C195.9,11.49,193.39,9.18,193.17,6.15 M234.57,12.07c-3.16-0.33-5.45-3.16-5.12-6.31
	c0.34-3.16,3.16-5.45,6.32-5.12c3.15,0.34,5.43,3.16,5.11,6.32c-0.31,2.95-2.8,5.13-5.71,5.13C234.97,12.1,234.77,12.1,234.57,12.07
	 M269.18,18.82c-3.06-0.87-4.82-4.06-3.93-7.11c0.87-3.05,4.05-4.81,7.11-3.93c3.05,0.89,4.8,4.06,3.92,7.11
	c-0.72,2.52-3.02,4.16-5.51,4.16C270.24,19.05,269.71,18.98,269.18,18.82 M302.1,31.49c-2.86-1.39-4.05-4.83-2.65-7.68
	c1.39-2.86,4.83-4.03,7.68-2.65c2.85,1.39,4.03,4.83,2.63,7.68c-0.99,2.05-3.03,3.23-5.16,3.23
	C303.76,32.08,302.9,31.89,302.1,31.49 M332.33,49.67c-2.56-1.87-3.13-5.46-1.27-8.02c1.87-2.57,5.46-3.15,8.02-1.27
	c2.57,1.86,3.13,5.45,1.27,8.01c-1.12,1.56-2.87,2.38-4.65,2.38C334.53,50.75,333.36,50.4,332.33,49.67 M358.99,72.79L358.99,72.79
	c-2.2-2.29-2.15-5.92,0.13-8.12c2.29-2.22,5.92-2.15,8.12,0.13c2.2,2.27,2.15,5.92-0.13,8.12c-1.12,1.07-2.56,1.61-4,1.61
	C361.6,74.54,360.1,73.95,358.99,72.79 M381.19,100.19c-1.77-2.63-1.07-6.21,1.56-7.98c2.62-1.77,6.19-1.07,7.97,1.56
	c1.77,2.62,1.09,6.19-1.54,7.96c-0.99,0.67-2.1,0.99-3.2,0.99C384.13,102.72,382.31,101.84,381.19,100.19 M398.28,131.05
	L398.28,131.05c-1.29-2.9,0.01-6.29,2.92-7.58c2.9-1.29,6.29,0.03,7.58,2.92c1.29,2.9-0.01,6.29-2.92,7.58
	c-0.76,0.34-1.54,0.5-2.33,0.5C401.33,134.47,399.24,133.2,398.28,131.05"/>
<path class="st12" d="M11.46,263.73"/>
</svg>
