<?xml version="1.0" encoding="utf-8"?>
<!-- Generator: Adobe Illustrator 23.1.1, SVG Export Plug-In . SVG Version: 6.00 Build 0)  -->
<svg version="1.0" id="_x34_" xmlns="http://www.w3.org/2000/svg" xmlns:xlink="http://www.w3.org/1999/xlink" x="0px" y="0px"
	 viewBox="0 0 493.18 355.61" style="enable-background:new 0 0 493.18 355.61;" xml:space="preserve">
<style type="text/css">
	.st0{fill:none;}
	.st1{fill:#D43927;}
	.st2{enable-background:new    ;}
	.st3{fill:#D63B27;}
	.st4{fill:none;stroke:#D63B27;stroke-width:2;stroke-linecap:round;stroke-linejoin:round;stroke-dasharray:0,6.062;}
	.st5{fill:none;stroke:#D63B27;stroke-width:2;stroke-linecap:round;stroke-linejoin:round;}
	.st6{fill:none;stroke:#D63B27;stroke-width:2;stroke-linecap:round;stroke-linejoin:round;stroke-dasharray:0,5.61;}
	.st7{fill:#FFFFFF;}
</style>
<rect y="14.87" class="st0" width="325.88" height="325.88"/>
<path class="st1" d="M3.81,153.61c-1.68,9.13-2.61,18.51-2.61,28.11c0,87.17,72.41,157.83,161.74,157.83s161.74-70.66,161.74-157.83
	c0-9.6-0.93-18.98-2.61-28.11L3.81,153.61L3.81,153.61z M61.95,54.57C32.06,77.93,10.87,111.41,3.81,149.7h318.27
	c-7.06-38.29-28.25-71.78-58.14-95.13C263.94,54.57,61.95,54.57,61.95,54.57z M64.16,50.33h198.17
	c-27.16-21.22-61.59-33.94-99.08-33.94S91.32,29.11,64.16,50.33"/>
<g class="st2">
	<path class="st3" d="M369.17,129.29l-7.43,14.85c-5.02,10.04-7.95,16.37-9.52,20.09c-0.21,0.47-0.58,0.89-0.89,0.89
		c-0.78,0-1.57-0.42-1.57-0.99c0-0.31,0.16-0.68,0.42-1.1c2.3-3.61,5.6-9.52,10.51-19.46l5.75-11.56h-11.67
		c-4.18,0-5.28,0.47-6.8,3.09l-0.99,1.73h-0.52l2.98-9.05h0.31c1.05,0.99,1.36,1.05,9.05,1.05h10.04L369.17,129.29z"/>
	<path class="st3" d="M386.54,164.65c-0.99,0-5.44-0.11-7.43-0.11c-1.99,0-7.01,0.11-8,0.11v-0.58l2.04-0.26
		c3.19-0.42,3.92-1.31,3.92-6.7v-20.03c0-5.28-0.73-5.96-4.55-5.96h-1.41v-0.58c3.24-0.47,7.06-1.57,9.52-2.56l0.47,0.26v28.87
		c0,5.39,0.78,6.28,3.66,6.7l1.78,0.26V164.65z"/>
	<path class="st3" d="M389.47,171.45l-0.26-0.47c2.62-1.83,3.92-4.08,3.92-6.12c-2.98-1.36-3.82-2.3-3.82-3.71
		c0-1.1,0.84-1.99,2.04-1.99c1.99,0,3.77,1.73,3.77,4.39C395.12,166.64,392.87,169.46,389.47,171.45z"/>
	<path class="st3" d="M410.76,165.28c-8.37,0-12.24-8.16-12.24-18.57c0-10.51,4.6-18.57,12.24-18.57c8.37,0,12.24,8.16,12.24,18.57
		C423,157.22,418.39,165.28,410.76,165.28z M410.29,128.98c-4.92,0-7.17,5.86-7.17,16.69c0,11.82,2.41,18.78,8.11,18.78
		c4.92,0,7.17-5.86,7.17-16.69C418.39,135.93,415.99,128.98,410.29,128.98z"/>
	<path class="st3" d="M440.05,165.28c-8.37,0-12.24-8.16-12.24-18.57c0-10.51,4.6-18.57,12.24-18.57c8.37,0,12.24,8.16,12.24,18.57
		C452.29,157.22,447.69,165.28,440.05,165.28z M439.58,128.98c-4.92,0-7.17,5.86-7.17,16.69c0,11.82,2.41,18.78,8.11,18.78
		c4.92,0,7.17-5.86,7.17-16.69C447.69,135.93,445.28,128.98,439.58,128.98z"/>
	<path class="st3" d="M469.34,165.28c-8.37,0-12.24-8.16-12.24-18.57c0-10.51,4.6-18.57,12.24-18.57c8.37,0,12.24,8.16,12.24,18.57
		C481.58,157.22,476.98,165.28,469.34,165.28z M468.87,128.98c-4.92,0-7.17,5.86-7.17,16.69c0,11.82,2.41,18.78,8.11,18.78
		c4.92,0,7.17-5.86,7.17-16.69C476.98,135.93,474.57,128.98,468.87,128.98z"/>
</g>
<g class="st2">
	<path d="M362.36,195.14v2.91h-1.13v-9.28h4.1c1.74,0,3.24,1.01,3.24,3.21c0,1.98-1.5,3.17-3.24,3.17H362.36z M362.36,194.13h2.84
		c1.2,0,2.21-0.81,2.21-2.14c0-1.48-1.01-2.18-2.21-2.18h-2.84V194.13z"/>
	<path d="M370.41,198.06v-9.28h6.66v1.03h-5.53v2.97h4.81v1.03h-4.81v3.24h5.67v1.02H370.41z"/>
	<path d="M383.21,188.64c2.82,0,4.92,2.02,4.92,4.83c0,2.78-2.09,4.74-4.92,4.74c-2.78,0-4.87-1.96-4.87-4.74
		C378.35,190.66,380.44,188.64,383.21,188.64z M383.21,197.14c2.19,0,3.75-1.5,3.75-3.68c0-2.19-1.55-3.76-3.75-3.76
		c-2.15,0-3.7,1.57-3.7,3.76C379.51,195.64,381.06,197.14,383.21,197.14z"/>
	<path d="M391.31,195.14v2.91h-1.13v-9.28h4.1c1.74,0,3.24,1.01,3.24,3.21c0,1.98-1.5,3.17-3.24,3.17H391.31z M391.31,194.13h2.84
		c1.2,0,2.21-0.81,2.21-2.14c0-1.48-1.01-2.18-2.21-2.18h-2.84V194.13z"/>
	<path d="M399.36,198.06v-9.28h1.13v8.26h5.45v1.03H399.36z"/>
	<path d="M407.55,198.06v-9.28h6.66v1.03h-5.53v2.97h4.81v1.03h-4.81v3.24h5.67v1.02H407.55z"/>
	<path d="M418.16,188.77h1.2l3.23,8.09l3.23-8.09H427l-3.73,9.28h-1.39L418.16,188.77z"/>
	<path d="M428.51,188.77h1.13v9.28h-1.13V188.77z"/>
	<path d="M434.05,193.61c-1.24-0.39-2.3-1-2.3-2.32c0-1.63,1.23-2.65,3.31-2.65c1.07,0,1.98,0.21,2.73,0.51l-0.12,1.05
		c-0.72-0.33-1.7-0.53-2.52-0.53c-1.36,0-2.21,0.53-2.21,1.52c0,0.97,0.81,1.19,1.63,1.46l1.46,0.46c1.52,0.5,2.23,1.16,2.23,2.43
		c0,1.59-1.31,2.66-3.34,2.66c-1.09,0-2.38-0.25-3.19-0.64l0.11-1.07c0.79,0.38,2.02,0.67,2.99,0.67c1.35,0,2.26-0.58,2.26-1.59
		c0-0.75-0.41-1.13-1.47-1.47L434.05,193.61z"/>
	<path d="M440.22,188.77h1.13v9.28h-1.13V188.77z"/>
	<path d="M447.16,189.83v8.23h-1.12v-8.23h-3.11v-1.05h7.33v1.05H447.16z"/>
	<path d="M451.84,198.06v-9.28h6.66v1.03h-5.53v2.97h4.81v1.03h-4.81v3.24h5.67v1.02H451.84z"/>
	<path d="M464.49,188.77c3.1,0,4.68,1.91,4.68,4.65c0,2.84-1.59,4.63-4.7,4.63h-3.79v-9.28H464.49z M461.81,189.81v7.22h2.6
		c2.4,0,3.6-1.3,3.6-3.6c0-2.24-1.2-3.62-3.6-3.62H461.81z"/>
	<path d="M375.03,206.63v8.23h-1.12v-8.23h-3.11v-1.05h7.33v1.05H375.03z"/>
	<path d="M386.42,210.61h-5.58v4.25h-1.13v-9.28h1.13v4.01h5.58v-4.01h1.13v9.28h-1.13V210.61z"/>
	<path d="M390.25,214.86v-9.28h6.66v1.03h-5.53v2.97h4.81v1.03h-4.81v3.24h5.67v1.02H390.25z"/>
	<path d="M403.53,211.94v2.91h-1.13v-9.28h4.1c1.74,0,3.24,1.01,3.24,3.21c0,1.52-0.88,2.56-2.06,2.97l2.56,3.1h-1.42l-2.34-2.91
		H403.53z M403.53,210.93h2.84c1.2,0,2.21-0.81,2.21-2.14c0-1.48-1.01-2.18-2.21-2.18h-2.84V210.93z"/>
	<path d="M411.96,214.86v-9.28h6.66v1.03h-5.53v2.97h4.81v1.03h-4.81v3.24h5.67v1.02H411.96z"/>
	<path d="M428.2,207.17c-0.47-0.25-1.6-0.66-2.89-0.66c-2.56,0-4.23,1.5-4.23,3.69c0,2.21,1.68,3.73,4.25,3.73
		c0.85,0,1.7-0.12,2.24-0.42v-2.71h-3.03v-1.02h4.13v4.44c-0.94,0.55-2.19,0.77-3.29,0.77c-3.29,0-5.48-1.94-5.48-4.78
		s2.15-4.77,5.43-4.77c1.05,0,2.08,0.21,2.98,0.66L428.2,207.17z"/>
	<path d="M430.92,205.57h1.13v9.28h-1.13V205.57z"/>
	<path d="M438.96,205.44c2.82,0,4.92,2.02,4.92,4.83c0,2.78-2.09,4.74-4.92,4.74c-2.78,0-4.87-1.96-4.87-4.74
		C434.1,207.46,436.19,205.44,438.96,205.44z M438.96,213.94c2.19,0,3.75-1.5,3.75-3.68c0-2.19-1.55-3.76-3.75-3.76
		c-2.15,0-3.7,1.57-3.7,3.76C435.26,212.44,436.81,213.94,438.96,213.94z"/>
	<path d="M454.56,214.86h-1.18l-6.31-7.58v7.58h-1.13v-9.28h1.18l6.32,7.61v-7.61h1.13V214.86z"/>
</g>
<g>
	<path class="st4" d="M172.97,349.17c90.72-3.16,159.88-77.05,161.38-168.33"/>
	<path class="st4" d="M334.28,171.75c-3-90.89-73.14-163.8-164.34-165.38"/>
	<path class="st5" d="M166.91,6.34L166.91,6.34 M334.38,177.81L334.38,177.81 M166.91,349.28L166.91,349.28"/>
	<path class="st3" d="M161.94,349.28L161.94,349.28c0,2.21,1.79,4,4,4l0,0c2.21,0,4-1.79,4-4l0,0c0-2.21-1.79-4-4-4l0,0
		C163.73,345.28,161.94,347.07,161.94,349.28z"/>
	<path class="st3" d="M161.94,6.34L161.94,6.34c0,2.21,1.79,4,4,4l0,0c2.21,0,4-1.79,4-4l0,0c0-2.21-1.79-4-4-4l0,0
		C163.73,2.34,161.94,4.13,161.94,6.34z"/>
	<line class="st6" x1="345.95" y1="177.81" x2="485.83" y2="177.81"/>
	<path class="st5" d="M379.61,177.81L379.61,177.81 M340.34,177.81L340.34,177.81"/>
</g>
<g class="st2">
	<path class="st7" d="M132.69,99.85l-1.85,5.64h-11.56l-0.22-0.31l5.7-6.35c3.42-3.82,4.65-5.98,4.65-8.82
		c0-2.47-1.57-4.22-4.28-4.22c-2.28,0-3.73,1.33-5.36,3.73l-0.37-0.22c1.69-3.33,3.82-5.3,6.9-5.3c3.08,0,5.27,1.91,5.27,5.21
		c0,3.24-1.79,5.24-5.02,8.75l-5.21,5.64h4.9c3.36,0,4.22-0.43,5.55-2.74l0.59-1.02H132.69z"/>
	<path class="st7" d="M147.49,99.85l-1.85,5.64h-11.56l-0.22-0.31l5.7-6.35c3.42-3.82,4.65-5.98,4.65-8.82
		c0-2.47-1.57-4.22-4.28-4.22c-2.28,0-3.73,1.33-5.36,3.73l-0.37-0.22c1.69-3.33,3.82-5.3,6.9-5.3c3.08,0,5.27,1.91,5.27,5.21
		c0,3.24-1.79,5.24-5.02,8.75l-5.21,5.64h4.9c3.36,0,4.22-0.43,5.55-2.74l0.59-1.02H147.49z"/>
	<path class="st7" d="M149.64,109.53l-0.15-0.28c1.54-1.08,2.31-2.4,2.31-3.61c-1.76-0.8-2.25-1.36-2.25-2.19
		c0-0.65,0.49-1.17,1.2-1.17c1.17,0,2.22,1.02,2.22,2.59C152.97,106.7,151.65,108.36,149.64,109.53z"/>
	<path class="st7" d="M162.19,105.89c-4.93,0-7.21-4.81-7.21-10.94c0-6.2,2.71-10.94,7.21-10.94c4.93,0,7.21,4.81,7.21,10.94
		C169.4,101.15,166.69,105.89,162.19,105.89z M161.91,84.5c-2.9,0-4.22,3.45-4.22,9.83c0,6.97,1.42,11.06,4.78,11.06
		c2.9,0,4.22-3.45,4.22-9.83C166.69,88.6,165.27,84.5,161.91,84.5z"/>
	<path class="st7" d="M179.45,105.89c-4.93,0-7.21-4.81-7.21-10.94c0-6.2,2.71-10.94,7.21-10.94c4.93,0,7.21,4.81,7.21,10.94
		C186.66,101.15,183.95,105.89,179.45,105.89z M179.17,84.5c-2.9,0-4.22,3.45-4.22,9.83c0,6.97,1.42,11.06,4.78,11.06
		c2.9,0,4.22-3.45,4.22-9.83C183.95,88.6,182.53,84.5,179.17,84.5z"/>
	<path class="st7" d="M196.71,105.89c-4.93,0-7.21-4.81-7.21-10.94c0-6.2,2.71-10.94,7.21-10.94c4.93,0,7.21,4.81,7.21,10.94
		C203.92,101.15,201.21,105.89,196.71,105.89z M196.43,84.5c-2.9,0-4.22,3.45-4.22,9.83c0,6.97,1.42,11.06,4.78,11.06
		c2.9,0,4.22-3.45,4.22-9.83C201.21,88.6,199.79,84.5,196.43,84.5z"/>
</g>
<g class="st2">
	<path class="st7" d="M142.39,118.69l3.19,4.18h-1.32l-2.8-3.72h-2.04v3.72h-1.05v-8.64h1.05v3.96h2.1l2.31-3.96h1.22L142.39,118.69
		z"/>
	<path class="st7" d="M155,122.87h-1.1l-0.8-2h-4.56l-0.8,2h-1.11l3.58-8.64h1.23L155,122.87z M148.87,119.97h3.89l-1.94-4.65
		L148.87,119.97z"/>
	<path class="st7" d="M165.36,122.87h-1.1l-5.87-7.06v7.06h-1.06v-8.64h1.1l5.88,7.08v-7.08h1.05V122.87z"/>
	<path class="st7" d="M171.75,115.21v7.66h-1.04v-7.66h-2.9v-0.98h6.83v0.98H171.75z"/>
	<path class="st7" d="M180.56,114.11c2.63,0,4.58,1.88,4.58,4.49c0,2.59-1.95,4.41-4.58,4.41c-2.58,0-4.53-1.82-4.53-4.41
		C176.03,115.99,177.98,114.11,180.56,114.11z M180.56,122.02c2.04,0,3.49-1.4,3.49-3.43c0-2.04-1.44-3.5-3.49-3.5
		c-2,0-3.44,1.46-3.44,3.5C177.12,120.62,178.56,122.02,180.56,122.02z"/>
</g>
<g class="st2">
	<path class="st7" d="M119.68,239.94c2.62,0,4.55,1.87,4.55,4.47c0,2.58-1.94,4.39-4.55,4.39c-2.57,0-4.51-1.81-4.51-4.39
		C115.18,241.81,117.11,239.94,119.68,239.94z M119.68,247.81c2.03,0,3.48-1.39,3.48-3.41c0-2.03-1.44-3.48-3.48-3.48
		c-2,0-3.43,1.46-3.43,3.48C116.26,246.42,117.69,247.81,119.68,247.81z"/>
	<path class="st7" d="M127.04,240.06h1.04v5.47c0,1.46,1.08,2.27,2.67,2.27c1.63,0,2.69-0.86,2.69-2.27v-5.47h1.04v5.53
		c0,2.07-1.61,3.2-3.73,3.2c-2.22,0-3.72-1.15-3.72-3.2V240.06z"/>
	<path class="st7" d="M140.78,241.04v7.62h-1.04v-7.62h-2.88v-0.98h6.79v0.98H140.78z"/>
	<path class="st7" d="M147.58,244.54c-1.15-0.36-2.13-0.92-2.13-2.15c0-1.51,1.14-2.46,3.06-2.46c0.99,0,1.84,0.2,2.53,0.47
		l-0.11,0.97c-0.67-0.31-1.58-0.49-2.34-0.49c-1.26,0-2.05,0.49-2.05,1.41c0,0.9,0.75,1.1,1.51,1.35l1.35,0.43
		c1.41,0.46,2.06,1.08,2.06,2.25c0,1.48-1.21,2.46-3.1,2.46c-1.01,0-2.2-0.23-2.95-0.59l0.1-0.99c0.73,0.35,1.87,0.62,2.77,0.62
		c1.25,0,2.09-0.54,2.09-1.48c0-0.69-0.38-1.05-1.36-1.36L147.58,244.54z"/>
	<path class="st7" d="M154.28,240.06h1.04v8.6h-1.04V240.06z"/>
	<path class="st7" d="M162.35,240.06c2.87,0,4.34,1.77,4.34,4.31c0,2.63-1.48,4.29-4.35,4.29h-3.51v-8.6H162.35z M159.88,241.02
		v6.69h2.41c2.22,0,3.34-1.2,3.34-3.34c0-2.07-1.11-3.35-3.34-3.35H159.88z"/>
	<path class="st7" d="M169.62,248.66v-8.6h6.17v0.95h-5.12v2.75h4.46v0.95h-4.46v3h5.26v0.94H169.62z"/>
	<path class="st7" d="M185.32,241.04v7.62h-1.04v-7.62h-2.88v-0.98h6.79v0.98H185.32z"/>
	<path class="st7" d="M196.87,244.73h-5.17v3.93h-1.04v-8.6h1.04v3.72h5.17v-3.72h1.04v8.6h-1.04V244.73z"/>
	<path class="st7" d="M201.42,248.66v-8.6h6.17v0.95h-5.12v2.75h4.46v0.95h-4.46v3h5.26v0.94H201.42z"/>
	<path class="st7" d="M117.38,261.52v2.7h-1.04v-8.6h3.8c1.61,0,3,0.94,3,2.97c0,1.84-1.39,2.93-3,2.93H117.38z M117.38,260.58h2.63
		c1.11,0,2.05-0.75,2.05-1.98c0-1.37-0.94-2.02-2.05-2.02h-2.63V260.58z"/>
	<path class="st7" d="M126.87,261.52v2.7h-1.04v-8.6h3.8c1.61,0,3,0.94,3,2.97c0,1.41-0.81,2.38-1.91,2.75l2.37,2.88h-1.31
		l-2.17-2.7H126.87z M126.87,260.58h2.63c1.11,0,2.05-0.75,2.05-1.98c0-1.37-0.94-2.02-2.05-2.02h-2.63V260.58z"/>
	<path class="st7" d="M135.68,264.22v-8.6h6.17v0.95h-5.12v2.75h4.46v0.95h-4.46v3h5.26v0.94H135.68z"/>
	<path class="st7" d="M145.92,260.28v3.93h-1.04v-8.6h5.93v0.95h-4.88v2.77h3.91v0.94H145.92z"/>
	<path class="st7" d="M153.41,264.22v-8.6h6.17v0.95h-5.12v2.75h4.46v0.95h-4.46v3h5.26v0.94H153.41z"/>
	<path class="st7" d="M166.64,264.34c-2.9,0-4.88-1.8-4.88-4.43c0-2.62,1.95-4.42,4.81-4.42c1.11,0,2.06,0.27,2.61,0.54l-0.11,0.98
		c-0.53-0.25-1.45-0.52-2.51-0.52c-2.2,0-3.7,1.39-3.7,3.42c0,2.04,1.56,3.44,3.84,3.44c1.32,0,2.2-0.42,2.45-0.56l0.17,0.99
		C169.1,263.89,168.18,264.34,166.64,264.34z"/>
	<path class="st7" d="M174.91,256.59v7.62h-1.04v-7.62h-2.88v-0.98h6.79v0.98H174.91z"/>
	<path class="st7" d="M180.16,255.62h1.04v5.47c0,1.46,1.08,2.27,2.67,2.27c1.63,0,2.69-0.86,2.69-2.27v-5.47h1.04v5.53
		c0,2.07-1.61,3.2-3.73,3.2c-2.22,0-3.72-1.15-3.72-3.2V255.62z"/>
	<path class="st7" d="M192.06,261.52v2.7h-1.04v-8.6h3.8c1.61,0,3,0.94,3,2.97c0,1.41-0.81,2.38-1.91,2.75l2.37,2.88h-1.31
		l-2.17-2.7H192.06z M192.06,260.58h2.63c1.11,0,2.05-0.75,2.05-1.98c0-1.37-0.94-2.02-2.05-2.02h-2.63V260.58z"/>
	<path class="st7" d="M200.87,264.22v-8.6h6.17v0.95h-5.12v2.75h4.46v0.95h-4.46v3h5.26v0.94H200.87z"/>
</g>
<g class="st2">
	<path class="st7" d="M149.8,33.12c-1.39,0-2.72-0.79-2.72-2.12c0-1.18,0.65-1.88,2.04-2.56c-1.1-0.48-1.78-1.22-1.78-2.39
		c0-1.18,1.07-2.16,2.63-2.16c1.4,0,2.44,0.87,2.44,1.95c0,0.98-0.7,1.7-1.83,2.24c1.47,0.65,2.09,1.43,2.09,2.64
		C152.67,32.16,151.36,33.12,149.8,33.12z M149.36,28.54c-0.95,0.58-1.26,1.23-1.26,2.31c0,1.31,0.75,2.07,1.92,2.07
		c1.09,0,1.83-0.75,1.83-1.91C151.85,29.93,151.28,29.37,149.36,28.54z M149.73,24.1c-1,0-1.61,0.73-1.61,1.65
		c0,0.98,0.57,1.5,2.22,2.22c0.71-0.44,1.12-0.95,1.12-1.96C151.46,24.84,150.89,24.1,149.73,24.1z"/>
	<path class="st7" d="M153.75,34.66l-0.06-0.12c0.65-0.46,0.97-1.01,0.97-1.52c-0.74-0.34-0.95-0.57-0.95-0.92
		c0-0.27,0.21-0.49,0.51-0.49c0.49,0,0.94,0.43,0.94,1.09C155.15,33.46,154.59,34.16,153.75,34.66z"/>
	<path class="st7" d="M159.04,33.12c-2.08,0-3.04-2.03-3.04-4.62c0-2.61,1.14-4.62,3.04-4.62c2.08,0,3.04,2.03,3.04,4.62
		C162.08,31.12,160.94,33.12,159.04,33.12z M158.92,24.1c-1.22,0-1.78,1.46-1.78,4.15c0,2.94,0.6,4.67,2.02,4.67
		c1.22,0,1.78-1.46,1.78-4.15C160.94,25.83,160.34,24.1,158.92,24.1z"/>
	<path class="st7" d="M166.32,33.12c-2.08,0-3.04-2.03-3.04-4.62c0-2.61,1.14-4.62,3.04-4.62c2.08,0,3.04,2.03,3.04,4.62
		C169.36,31.12,168.22,33.12,166.32,33.12z M166.2,24.1c-1.22,0-1.78,1.46-1.78,4.15c0,2.94,0.6,4.67,2.02,4.67
		c1.22,0,1.78-1.46,1.78-4.15C168.22,25.83,167.62,24.1,166.2,24.1z"/>
	<path class="st7" d="M173.6,33.12c-2.08,0-3.04-2.03-3.04-4.62c0-2.61,1.14-4.62,3.04-4.62c2.08,0,3.04,2.03,3.04,4.62
		C176.64,31.12,175.5,33.12,173.6,33.12z M173.48,24.1c-1.22,0-1.78,1.46-1.78,4.15c0,2.94,0.6,4.67,2.02,4.67
		c1.22,0,1.78-1.46,1.78-4.15C175.5,25.83,174.9,24.1,173.48,24.1z"/>
</g>
<g class="st2">
	<path class="st7" d="M153.66,40.86l2.2,2.89h-0.91l-1.93-2.57h-1.41v2.57h-0.73v-5.97h0.73v2.74h1.45l1.6-2.74h0.84L153.66,40.86z"
		/>
	<path class="st7" d="M156.7,37.78h0.73v5.97h-0.73V37.78z"/>
	<path class="st7" d="M164.71,43.74h-0.76l-4.06-4.87v4.87h-0.73v-5.97h0.76l4.06,4.89v-4.89h0.73V43.74z"/>
	<path class="st7" d="M169.23,40.86l2.2,2.89h-0.91l-1.93-2.57h-1.41v2.57h-0.73v-5.97h0.73v2.74h1.45l1.6-2.74h0.84L169.23,40.86z"
		/>
	<path class="st7" d="M172.27,37.78H173v5.97h-0.73V37.78z"/>
</g>
<circle class="st1" cx="488.33" cy="178.03" r="3.5"/>
<g class="st2">
	<path class="st7" d="M125.21,220.74h-4.58v8.41h-3.04v-8.41h-13.04l-0.29-0.42l14.87-20.08h1.5v19.12h4.58V220.74z M117.58,219.36
		v-15.5l-11.5,15.5H117.58z"/>
	<path class="st7" d="M130.37,229.44c-2.58,0-3.96-1-3.96-2.38c0-1.08,0.83-1.67,1.75-1.67c1.54,0,2.71,0.88,4.21,2.88
		c3.87-0.33,7.46-3.17,7.46-7.71c0-3.83-2.42-5.67-6.17-5.67c-1.42,0-2.58,0.33-3.92,0.96l-0.42-0.71c7.91-4.33,9.33-6.46,9.33-9.16
		c0-2.21-1.54-3.79-4.54-3.79c-2.79,0-4.87,1.33-7.04,3.33l-0.42-0.46c3-3.62,5.96-5.04,9.16-5.04c3.54,0,5.83,1.79,5.83,4.92
		c0,2.67-1.96,4.87-6.37,7.58c4.37,0.25,7,2.37,7,6.17C142.28,225.65,135.41,229.44,130.37,229.44z"/>
	<path class="st7" d="M144.78,234.4l-0.21-0.38c2.08-1.46,3.12-3.25,3.12-4.87c-2.37-1.08-3.04-1.83-3.04-2.96
		c0-0.88,0.67-1.58,1.62-1.58c1.58,0,3,1.37,3,3.5C149.28,230.57,147.49,232.82,144.78,234.4z"/>
	<path class="st7" d="M161.73,229.48c-6.67,0-9.75-6.5-9.75-14.79c0-8.37,3.67-14.79,9.75-14.79c6.67,0,9.75,6.5,9.75,14.79
		C171.48,223.07,167.81,229.48,161.73,229.48z M161.36,200.57c-3.92,0-5.71,4.67-5.71,13.29c0,9.41,1.92,14.95,6.46,14.95
		c3.92,0,5.71-4.67,5.71-13.29C167.81,206.12,165.9,200.57,161.36,200.57z"/>
	<path class="st7" d="M185.06,229.48c-6.67,0-9.75-6.5-9.75-14.79c0-8.37,3.67-14.79,9.75-14.79c6.67,0,9.75,6.5,9.75,14.79
		C194.81,223.07,191.14,229.48,185.06,229.48z M184.68,200.57c-3.92,0-5.71,4.67-5.71,13.29c0,9.41,1.92,14.95,6.46,14.95
		c3.92,0,5.71-4.67,5.71-13.29C191.14,206.12,189.22,200.57,184.68,200.57z"/>
	<path class="st7" d="M208.38,229.48c-6.67,0-9.75-6.5-9.75-14.79c0-8.37,3.67-14.79,9.75-14.79c6.67,0,9.75,6.5,9.75,14.79
		C218.13,223.07,214.46,229.48,208.38,229.48z M208.01,200.57c-3.92,0-5.71,4.67-5.71,13.29c0,9.41,1.92,14.95,6.46,14.95
		c3.92,0,5.71-4.67,5.71-13.29C214.46,206.12,212.55,200.57,208.01,200.57z"/>
</g>
</svg>
