<?xml version="1.0" encoding="utf-8"?>
<!-- Generator: Adobe Illustrator 23.1.1, SVG Export Plug-In . SVG Version: 6.00 Build 0)  -->
<svg version="1.0" id="_x31_" xmlns="http://www.w3.org/2000/svg" xmlns:xlink="http://www.w3.org/1999/xlink" x="0px" y="0px"
	 viewBox="0 0 487.6 352.09" style="enable-background:new 0 0 487.6 352.09;" xml:space="preserve">
<style type="text/css">
	.st0{opacity:0.5;fill:#D63B27;}
	.st1{fill:none;stroke:#D63B27;stroke-width:2;stroke-linecap:round;stroke-linejoin:round;stroke-dasharray:0,4.7041;}
	.st2{fill:none;stroke:#D63B27;stroke-width:1.5736;stroke-linecap:round;stroke-linejoin:round;}
	.st3{fill:#D63B27;}
	.st4{font-family:'PoynterOSDisp-Roman';}
	.st5{font-size:54.8773px;}
	.st6{font-family:'Fieldwork-Geo-Light';}
	.st7{font-size:14px;}
	.st8{clip-path:url(#SVGID_2_);fill:#D63B27;}
	.st9{clip-path:url(#SVGID_4_);}
	.st10{fill:#FFFFFF;}
	.st11{font-size:17.6564px;}
	.st12{font-size:12px;}
	.st13{font-size:8.5614px;}
	.st14{font-size:9px;}
	.st15{fill:none;stroke:#FFFFFF;}
	.st16{fill:none;stroke:#D63B27;stroke-width:2;stroke-linecap:round;stroke-linejoin:round;stroke-dasharray:0,4.7335;}
	.st17{fill:none;stroke:#D63B27;stroke-width:2;stroke-linecap:round;stroke-linejoin:round;}
</style>
<path class="st0" d="M160.43,336.6c88.6,0,160.43-71.83,160.43-160.43c0-88.6-71.83-160.43-160.43-160.43S0,87.57,0,176.17
	C0,264.77,71.83,336.6,160.43,336.6"/>
<path class="st1" d="M167.23,348.1c91.94-2.47,162.95-77.24,164.13-169.58"/>
<path class="st1" d="M331.32,171.46C328.95,79.43,257.17,5.42,164.88,4.18"/>
<path class="st2" d="M162.51,4.17L162.51,4.17 M331.36,176.17L331.36,176.17 M162.51,348.17L162.51,348.17"/>
<path class="st3" d="M163.3,344.24L163.3,344.24c2.17,0,3.93,1.76,3.93,3.93l0,0c0,2.17-1.76,3.93-3.93,3.93h0
	c-2.17,0-3.93-1.76-3.93-3.93l0,0C159.38,346,161.14,344.24,163.3,344.24z"/>
<path class="st3" d="M483.51,172.08L483.51,172.08c2.26,0,4.09,1.83,4.09,4.09v0c0,2.26-1.83,4.09-4.09,4.09h0
	c-2.26,0-4.09-1.83-4.09-4.09v0C479.43,173.91,481.26,172.08,483.51,172.08z"/>
<path class="st3" d="M163.55,0L163.55,0c2.3,0,4.17,1.87,4.17,4.17v0c0,2.3-1.87,4.17-4.17,4.17l0,0c-2.3,0-4.17-1.87-4.17-4.17v0
	C159.38,1.87,161.24,0,163.55,0z"/>
<g>
	<text transform="matrix(1 0 0 1 371.1427 167.9911)" class="st3 st4 st5">662</text>
</g>
<text transform="matrix(1 0 0 1 377.9543 195.457)"><tspan x="0" y="0" class="st6 st7">T</tspan><tspan x="7.77" y="0" class="st6 st7">O</tspan><tspan x="18.91" y="0" class="st6 st7">T</tspan><tspan x="25.91" y="0" class="st6 st7">AL OF </tspan></text>
<text transform="matrix(1 0 0 1 363.3664 212.4511)"><tspan x="0" y="0" class="st6 st7">EMP</tspan><tspan x="30.65" y="0" class="st6 st7">L</tspan><tspan x="38.55" y="0" class="st6 st7">O</tspan><tspan x="49.19" y="0" class="st6 st7">YMENT</tspan></text>
<path class="st3" d="M38.07,104.36c0,20.69,16.77,37.46,37.46,37.46c20.69,0,37.46-16.77,37.46-37.46S96.22,66.9,75.53,66.9
	C54.84,66.9,38.07,83.67,38.07,104.36"/>
<g>
	<defs>
		<path id="SVGID_1_" d="M236.71,159.47c0,4.79,3.88,8.67,8.67,8.67c4.79,0,8.67-3.88,8.67-8.67c0-4.79-3.88-8.67-8.67-8.67
			C240.59,150.81,236.71,154.69,236.71,159.47"/>
	</defs>
	<clipPath id="SVGID_2_">
		<use xlink:href="#SVGID_1_"  style="overflow:visible;"/>
	</clipPath>
	<path class="st8" d="M245.38,168.14c4.79,0,8.67-3.88,8.67-8.67c0-4.79-3.88-8.67-8.67-8.67c-4.79,0-8.67,3.88-8.67,8.67
		C236.71,164.26,240.59,168.14,245.38,168.14"/>
</g>
<g>
	<defs>
		<path id="SVGID_3_" d="M190.04,115.73c0,7.76,6.29,14.04,14.04,14.04c7.75,0,14.04-6.29,14.04-14.04
			c0-7.75-6.29-14.04-14.04-14.04C196.33,101.69,190.04,107.97,190.04,115.73"/>
	</defs>
	<use xlink:href="#SVGID_3_"  style="overflow:visible;fill:#D63B27;"/>
	<clipPath id="SVGID_4_">
		<use xlink:href="#SVGID_3_"  style="overflow:visible;"/>
	</clipPath>
	<g class="st9">
		<defs>
			<rect id="SVGID_5_" x="188.97" y="100.62" width="30.21" height="30.21"/>
		</defs>
		<clipPath id="SVGID_6_">
			<use xlink:href="#SVGID_5_"  style="overflow:visible;"/>
		</clipPath>
	</g>
</g>
<path class="st3" d="M118.23,66.9c0,25.47,20.65,46.13,46.12,46.13c25.47,0,46.12-20.65,46.12-46.13
	c0-25.47-20.65-46.12-46.12-46.12C138.88,20.77,118.23,41.42,118.23,66.9"/>
<path class="st3" d="M47.57,227.59c0,56.59,45.88,102.46,102.46,102.46S252.5,284.18,252.5,227.59
	c0-56.59-45.88-102.46-102.46-102.46S47.57,171.01,47.57,227.59"/>
<text transform="matrix(1 0 0 1 93.5817 237.0009)"><tspan x="0" y="0" class="st10 st6 st11">V</tspan><tspan x="11.31" y="0" class="st10 st6 st11">O</tspan><tspan x="25.4" y="0" class="st10 st6 st11">L</tspan><tspan x="34.9" y="0" class="st10 st6 st11">UNTEERS</tspan></text>
<text transform="matrix(1 0 0 1 131.5058 64.9618)"><tspan x="0" y="0" class="st10 st6 st12">P</tspan><tspan x="7.34" y="0" class="st10 st6 st12">AR</tspan><tspan x="23.44" y="0" class="st10 st6 st12">T</tspan><tspan x="29.29" y="0" class="st10 st6 st12">-TIME </tspan></text>
<text transform="matrix(1 0 0 1 134.5287 79.539)"><tspan x="0" y="0" class="st10 st6 st12">W</tspan><tspan x="11.92" y="0" class="st10 st6 st12">O</tspan><tspan x="21.5" y="0" class="st10 st6 st12">R</tspan><tspan x="29.68" y="0" class="st10 st6 st12">KERS</tspan></text>
<text transform="matrix(1 0 0 1 64.9928 101.6874)"><tspan x="0" y="0" class="st10 st6 st13">P</tspan><tspan x="5.24" y="0" class="st10 st6 st13">AID </tspan></text>
<text transform="matrix(1 0 0 1 46.5719 111.2978)"><tspan x="0" y="0" class="st10 st6 st13">V</tspan><tspan x="5.48" y="0" class="st10 st6 st13">O</tspan><tspan x="12.32" y="0" class="st10 st6 st13">L</tspan><tspan x="16.92" y="0" class="st10 st6 st13">UNTEERS</tspan></text>
<text transform="matrix(1 0 0 1 236.4303 113.1835)" class="st10 st6 st14">FULL-TIME </text>
<text transform="matrix(1 0 0 1 236.4303 122.1737)" class="st10 st6 st14">WORKERS</text>
<text transform="matrix(1 0 0 1 270.8249 158.4257)" class="st10 st6 st14">DISPATCH </text>
<text transform="matrix(1 0 0 1 270.8249 168.9911)" class="st10 st6 st14">WORKERS</text>
<line class="st15" x1="204.08" y1="115.73" x2="232.16" y2="115.73"/>
<line class="st15" x1="244.97" y1="159.39" x2="265.85" y2="159.39"/>
<line class="st16" x1="341.07" y1="176.17" x2="479.16" y2="176.17"/>
<path class="st17" d="M481.53,176.17L481.53,176.17 M336.34,176.17L336.34,176.17"/>
</svg>
