<?xml version="1.0" encoding="utf-8"?>
<!-- Generator: Adobe Illustrator 23.1.1, SVG Export Plug-In . SVG Version: 6.00 Build 0)  -->
<svg version="1.1" id="_x34_" xmlns="http://www.w3.org/2000/svg" xmlns:xlink="http://www.w3.org/1999/xlink" x="0px" y="0px"
	 viewBox="0 0 349.2 355.6" style="enable-background:new 0 0 349.2 355.6;" xml:space="preserve">
<style type="text/css">
	.st0{fill:#D43927;}
	.st1{fill:#EA776E;}
	.st2{fill:#FFFFFF;}
	.st3{fill:none;stroke:#FFFFFF;stroke-width:1.5;stroke-linecap:round;stroke-linejoin:round;}
	.st4{fill:none;stroke:#FFFFFF;stroke-width:1.5;stroke-linecap:round;stroke-linejoin:round;stroke-dasharray:1.9619,3.9239;}
</style>
<circle class="st0" cx="174" cy="177.5" r="174"/>
<circle class="st1" cx="135.8" cy="230.5" r="108.8"/>
<g>
	<path class="st2" d="M73.9,238.9c-4.9,0-7.2-4.8-7.2-10.9c0-6.2,2.7-10.9,7.2-10.9c4.9,0,7.2,4.8,7.2,10.9
		C81.1,234.2,78.4,238.9,73.9,238.9z M73.6,217.5c-2.9,0-4.2,3.5-4.2,9.8c0,7,1.4,11.1,4.8,11.1c2.9,0,4.2-3.5,4.2-9.8
		C78.4,221.6,77,217.5,73.6,217.5z"/>
	<path class="st2" d="M85.8,238.7c-1,0-1.7-0.7-1.7-1.7c0-0.9,0.7-1.7,1.7-1.7s1.7,0.7,1.7,1.7C87.4,237.9,86.7,238.7,85.8,238.7z"
		/>
	<path class="st2" d="M96.5,238.9c-3.3,0-6.4-1.9-6.4-5c0-2.8,1.5-4.5,4.8-6.1c-2.6-1.1-4.2-2.9-4.2-5.7c0-2.8,2.5-5.1,6.2-5.1
		c3.3,0,5.8,2.1,5.8,4.6c0,2.3-1.7,4-4.3,5.3c3.5,1.5,5,3.4,5,6.3C103.3,236.7,100.2,238.9,96.5,238.9z M95.4,228.1
		c-2.2,1.4-3,2.9-3,5.5c0,3.1,1.8,4.9,4.6,4.9c2.6,0,4.3-1.8,4.3-4.5C101.4,231.4,100,230,95.4,228.1z M96.3,217.5
		c-2.4,0-3.8,1.7-3.8,3.9c0,2.3,1.4,3.5,5.3,5.3c1.7-1,2.6-2.2,2.6-4.7C100.4,219.3,99.1,217.5,96.3,217.5z"/>
	<path class="st2" d="M137.7,238.6c-0.7,0-2,0-3.4,0s-2.8,0-3.5,0v-0.3l0.6-0.1c1.5-0.2,1.7-0.5,1.7-3.2v-6.3c0-2.5-1-3.7-2.9-3.7
		c-1.5,0-2.9,0.8-4,1.9c0.1,0.4,0.1,1,0.1,1.6v6.4c0,2.7,0.2,3,1.7,3.2l0.6,0.1v0.3c-0.8,0-2.1,0-3.4,0s-2.7,0-3.5,0v-0.3l0.6-0.1
		c1.5-0.2,1.7-0.5,1.7-3.2v-6.3c0-2.5-1-3.7-2.9-3.7c-1.4,0-2.8,0.7-3.9,1.8v8.1c0,2.7,0.2,3,1.7,3.2l0.6,0.1v0.3
		c-0.8,0-2.1,0-3.5,0c-1.4,0-2.7,0-3.5,0v-0.3l0.6-0.1c1.4-0.2,1.6-0.6,1.6-3.2v-7.3c0-1.5-0.3-1.8-1.4-2.3l-0.9-0.3v-0.2l4.3-1
		l0.3,0.2v2.2c1.7-1.4,2.9-2.4,4.9-2.4c2.3,0,3.4,1,3.9,2.6c1.7-1.5,3.1-2.6,5.1-2.6c2.8,0,4.2,1.4,4.2,4.6v6.6c0,2.7,0.2,3,1.6,3.2
		l0.6,0.1V238.6z"/>
	<path class="st2" d="M145.7,238.6c-0.8,0-2.1,0-3.5,0c-1.4,0-2.7,0-3.5,0v-0.3l0.6-0.1c1.4-0.2,1.6-0.6,1.6-3.2v-7.3
		c0-1.5-0.3-1.8-1.4-2.3l-0.9-0.3v-0.2l4.3-1l0.3,0.2v11c0,2.7,0.2,3,1.7,3.2l0.6,0.1V238.6z M142,220.4c-0.9,0-1.6-0.7-1.6-1.6
		c0-0.9,0.7-1.6,1.6-1.6c0.9,0,1.6,0.7,1.6,1.6C143.6,219.8,142.9,220.4,142,220.4z"/>
	<path class="st2" d="M153.8,238.6c-0.8,0-2.1,0-3.5,0c-1.4,0-2.7,0-3.5,0v-0.3l0.6-0.1c1.4-0.2,1.6-0.6,1.6-3.2v-15.2
		c0-1.5-0.3-1.8-1.4-2.3l-0.9-0.3v-0.2l4.3-1l0.3,0.2v18.9c0,2.7,0.2,3,1.7,3.2l0.6,0.1V238.6z"/>
	<path class="st2" d="M161.9,238.6c-0.8,0-2.1,0-3.5,0c-1.4,0-2.7,0-3.5,0v-0.3l0.6-0.1c1.4-0.2,1.6-0.6,1.6-3.2v-15.2
		c0-1.5-0.3-1.8-1.4-2.3l-0.9-0.3v-0.2l4.3-1l0.3,0.2v18.9c0,2.7,0.2,3,1.7,3.2l0.6,0.1V238.6z"/>
	<path class="st2" d="M170.3,238.6c-0.8,0-2.1,0-3.5,0c-1.4,0-2.7,0-3.5,0v-0.3l0.6-0.1c1.4-0.2,1.6-0.6,1.6-3.2v-7.3
		c0-1.5-0.3-1.8-1.4-2.3l-0.9-0.3v-0.2l4.3-1l0.3,0.2v11c0,2.7,0.2,3,1.7,3.2l0.6,0.1V238.6z M166.6,220.4c-0.9,0-1.6-0.7-1.6-1.6
		c0-0.9,0.7-1.6,1.6-1.6c0.9,0,1.6,0.7,1.6,1.6C168.2,219.8,167.5,220.4,166.6,220.4z"/>
	<path class="st2" d="M179.1,238.9c-3.8,0-7-2.6-7-7.8c0-4.3,3.1-7.5,7-7.5c3.8,0,7,2.6,7,7.8C186.1,235.8,183,238.9,179.1,238.9z
		 M178.6,224.2c-2.4,0-3.9,1.8-3.9,6.4c0,4.7,2,7.8,4.9,7.8c2.4,0,3.9-1.8,3.9-6.4C183.5,227.4,181.5,224.2,178.6,224.2z"/>
	<path class="st2" d="M204.1,238.6c-0.7,0-2,0-3.4,0s-2.8,0-3.5,0v-0.3l0.6-0.1c1.5-0.2,1.7-0.5,1.7-3.2v-6.3c0-2.5-1.1-3.7-3-3.7
		c-1.6,0-2.9,0.7-4,1.8v8.1c0,2.7,0.2,3,1.7,3.2l0.6,0.1v0.3c-0.8,0-2.1,0-3.5,0c-1.4,0-2.7,0-3.4,0v-0.3l0.6-0.1
		c1.4-0.2,1.6-0.6,1.6-3.2v-7.3c0-1.5-0.3-1.8-1.4-2.3l-0.9-0.3v-0.2l4.3-1l0.3,0.2v2.2c1.7-1.4,3-2.4,5-2.4c2.8,0,4.3,1.4,4.3,4.6
		v6.6c0,2.7,0.2,3,1.6,3.2l0.6,0.1V238.6z"/>
</g>
<g>
	<path class="st2" d="M126.7,259.7v1h-6.1v-1l2.9-2.8c1.1-1.1,1.6-1.8,1.6-2.8c0-1.3-0.9-1.8-2-1.8c-0.8,0-1.6,0.3-2.2,0.7l-0.2-1
		c0.8-0.5,1.7-0.7,2.6-0.7c1.6,0,3.1,0.8,3.1,2.8c0,1.3-0.9,2.4-2,3.5l-2.2,2.1H126.7z"/>
	<path class="st2" d="M128.2,256.1c0-2.7,1.2-4.8,3.8-4.8c2.5,0,3.8,2.1,3.8,4.8c0,2.7-1.2,4.8-3.8,4.8
		C129.4,260.9,128.2,258.8,128.2,256.1z M131.9,259.8c1.8,0,2.7-1.6,2.7-3.7c0-2.2-0.9-3.7-2.7-3.7c-1.8,0-2.6,1.6-2.6,3.7
		C129.3,258.2,130.2,259.8,131.9,259.8z"/>
	<path class="st2" d="M138.7,252.5h-1.9v-1h3v9.3h-1.1V252.5z"/>
	<path class="st2" d="M148.4,251.7l-0.1,1c-0.6-0.3-1.2-0.4-2-0.4c-1.8,0-3.1,1-3.1,3.8c0.5-0.8,1.5-1.3,2.6-1.3c1.8,0,3.3,1,3.3,3
		c0,1.9-1.4,3.1-3.4,3.1c-2.4,0-3.5-1.7-3.5-4.3c0-3.5,1.5-5.3,4.1-5.3C147.1,251.3,147.9,251.5,148.4,251.7z M147.8,257.8
		c0-1.3-0.9-2.1-2.2-2.1c-1.4,0-2.2,0.9-2.2,2c0,1.1,0.8,2.1,2.2,2.1S147.8,259.1,147.8,257.8z"/>
</g>
<g>
	<path class="st2" d="M91.7,81.1c-0.7,0-3.7-0.1-5.1-0.1c-1.4,0-4.8,0.1-5.5,0.1v-0.4l1.4-0.2c2.2-0.3,2.7-0.9,2.7-4.6V62.3
		c0-3.6-0.5-4.1-3.1-4.1h-1v-0.4c2.2-0.3,4.8-1.1,6.5-1.7l0.3,0.2V76c0,3.7,0.5,4.3,2.5,4.6l1.2,0.2V81.1z"/>
	<path class="st2" d="M95.7,81.3c-1.1,0-1.9-0.9-1.9-1.9c0-1.1,0.8-1.9,1.9-1.9s1.9,0.9,1.9,1.9C97.6,80.4,96.8,81.3,95.7,81.3z"/>
	<path class="st2" d="M103.6,81.5c-2.2,0-3.4-0.9-3.4-2c0-0.9,0.7-1.4,1.5-1.4c1.3,0,2.3,0.7,3.6,2.5c3.3-0.3,6.4-2.7,6.4-6.6
		c0-3.3-2.1-4.8-5.3-4.8c-1.2,0-2.2,0.3-3.3,0.8l-0.4-0.6c6.8-3.7,8-5.5,8-7.8c0-1.9-1.3-3.2-3.9-3.2c-2.4,0-4.2,1.1-6,2.9l-0.4-0.4
		c2.6-3.1,5.1-4.3,7.8-4.3c3,0,5,1.5,5,4.2c0,2.3-1.7,4.2-5.5,6.5c3.7,0.2,6,2,6,5.3C113.8,78.3,107.9,81.5,103.6,81.5z"/>
	<path class="st2" d="M153.9,81.1c-0.9,0-2.3,0-3.9,0c-1.6,0-3.2,0-4.1,0v-0.4l0.7-0.1c1.7-0.2,2-0.6,2-3.7v-7.2
		c0-2.9-1.2-4.2-3.3-4.2c-1.7,0-3.4,0.9-4.7,2.2c0.1,0.4,0.1,1.2,0.1,1.8v7.4c0,3.1,0.2,3.5,2,3.7l0.7,0.1v0.4c-0.9,0-2.4,0-4,0
		c-1.6,0-3.2,0-4.1,0v-0.4l0.7-0.1c1.7-0.2,2-0.6,2-3.7v-7.2c0-2.9-1.2-4.2-3.3-4.2c-1.7,0-3.2,0.9-4.5,2.1v9.4c0,3.1,0.2,3.5,2,3.7
		l0.7,0.1v0.4c-0.9,0-2.4,0-4,0c-1.6,0-3.1,0-4,0v-0.4l0.7-0.1c1.6-0.2,1.9-0.6,1.9-3.7v-8.4c0-1.7-0.3-2.1-1.6-2.6l-1-0.4v-0.3
		l5-1.2l0.3,0.2v2.5c1.9-1.7,3.3-2.8,5.7-2.8c2.6,0,4,1.1,4.6,3c2-1.7,3.6-3,5.9-3c3.2,0,4.9,1.7,4.9,5.3v7.6c0,3.1,0.2,3.5,1.9,3.7
		l0.7,0.1V81.1z"/>
	<path class="st2" d="M163.1,81.1c-0.9,0-2.4,0-4,0c-1.6,0-3.1,0-4,0v-0.4l0.7-0.1c1.6-0.2,1.9-0.6,1.9-3.7v-8.4
		c0-1.7-0.3-2.1-1.6-2.6l-1-0.4v-0.3l5-1.2l0.3,0.2v12.7c0,3.1,0.2,3.5,2,3.7l0.7,0.1V81.1z M158.8,60.2c-1.1,0-1.9-0.8-1.9-1.9
		c0-1.1,0.8-1.9,1.9-1.9c1.1,0,1.9,0.8,1.9,1.9C160.7,59.4,159.8,60.2,158.8,60.2z"/>
	<path class="st2" d="M172.5,81.1c-0.9,0-2.4,0-4,0c-1.6,0-3.1,0-4,0v-0.4l0.7-0.1c1.6-0.2,1.9-0.6,1.9-3.7V59.4
		c0-1.7-0.3-2.1-1.6-2.6l-1-0.4v-0.3l5-1.2l0.3,0.2v21.8c0,3.1,0.2,3.5,2,3.7l0.7,0.1V81.1z"/>
	<path class="st2" d="M181.9,81.1c-0.9,0-2.4,0-4,0c-1.6,0-3.1,0-4,0v-0.4l0.7-0.1c1.6-0.2,1.9-0.6,1.9-3.7V59.4
		c0-1.7-0.3-2.1-1.6-2.6l-1-0.4v-0.3l5-1.2l0.3,0.2v21.8c0,3.1,0.2,3.5,2,3.7l0.7,0.1V81.1z"/>
	<path class="st2" d="M191.6,81.1c-0.9,0-2.4,0-4,0c-1.6,0-3.1,0-4,0v-0.4l0.7-0.1c1.6-0.2,1.9-0.6,1.9-3.7v-8.4
		c0-1.7-0.3-2.1-1.6-2.6l-1-0.4v-0.3l5-1.2l0.3,0.2v12.7c0,3.1,0.2,3.5,2,3.7l0.7,0.1V81.1z M187.2,60.2c-1.1,0-1.9-0.8-1.9-1.9
		c0-1.1,0.8-1.9,1.9-1.9s1.9,0.8,1.9,1.9C189.1,59.4,188.3,60.2,187.2,60.2z"/>
	<path class="st2" d="M201.7,81.6c-4.4,0-8.1-3-8.1-9c0-5,3.6-8.7,8.1-8.7c4.4,0,8.1,3,8.1,9C209.9,77.9,206.2,81.6,201.7,81.6z
		 M201.2,64.5c-2.8,0-4.5,2.1-4.5,7.4c0,5.4,2.3,9,5.7,9c2.8,0,4.5-2.1,4.5-7.4C206.8,68.2,204.5,64.5,201.2,64.5z"/>
	<path class="st2" d="M230.6,81.1c-0.9,0-2.3,0-3.9,0s-3.2,0-4.1,0v-0.4l0.7-0.1c1.7-0.2,2-0.6,2-3.7v-7.2c0-2.9-1.3-4.2-3.4-4.2
		c-1.8,0-3.3,0.9-4.6,2.1v9.4c0,3.1,0.2,3.5,2,3.7l0.7,0.1v0.4c-0.9,0-2.4,0-4,0c-1.6,0-3.1,0-4,0v-0.4l0.7-0.1
		c1.6-0.2,1.9-0.6,1.9-3.7v-8.4c0-1.7-0.3-2.1-1.6-2.6l-1-0.4v-0.3l5-1.2l0.3,0.2v2.5c1.9-1.7,3.5-2.8,5.7-2.8c3.2,0,5,1.7,5,5.3
		v7.6c0,3.1,0.2,3.5,1.9,3.7l0.7,0.1V81.1z"/>
</g>
<g>
	<path class="st2" d="M148.7,103.3v1h-6.1v-1l2.9-2.8c1.1-1.1,1.6-1.8,1.6-2.8c0-1.3-0.9-1.8-2-1.8c-0.8,0-1.6,0.3-2.2,0.7l-0.2-1
		c0.8-0.5,1.7-0.7,2.6-0.7c1.6,0,3.1,0.8,3.1,2.8c0,1.3-0.9,2.4-2,3.5l-2.2,2.1H148.7z"/>
	<path class="st2" d="M150.1,99.7c0-2.7,1.2-4.8,3.8-4.8c2.5,0,3.8,2.1,3.8,4.8c0,2.7-1.2,4.8-3.8,4.8
		C151.4,104.5,150.1,102.4,150.1,99.7z M153.9,103.4c1.8,0,2.7-1.6,2.7-3.7c0-2.2-0.9-3.7-2.7-3.7c-1.8,0-2.6,1.6-2.6,3.7
		C151.3,101.9,152.1,103.4,153.9,103.4z"/>
	<path class="st2" d="M160.7,96.1h-1.9v-1h3v9.3h-1.1V96.1z"/>
	<path class="st2" d="M164.3,104.3l3.8-8.2h-4.5v-1.1h5.7v1l-3.8,8.3H164.3z"/>
</g>
<g>
	<g>
		<line class="st3" x1="207.5" y1="146.5" x2="208.2" y2="145.7"/>
		<line class="st4" x1="210.9" y1="142.9" x2="295.5" y2="55.5"/>
		<line class="st3" x1="296.9" y1="54.1" x2="297.6" y2="53.4"/>
	</g>
</g>
<g>
	<path class="st2" d="M263.2,127.3c-0.4,0-2.3,0-3.2,0c-0.9,0-3,0-3.5,0V127l0.9-0.1c1.4-0.2,1.7-0.6,1.7-2.9v-8.6
		c0-2.3-0.3-2.6-2-2.6h-0.6v-0.2c1.4-0.2,3-0.7,4.1-1.1l0.2,0.1V124c0,2.3,0.3,2.7,1.6,2.9l0.8,0.1V127.3z"/>
	<path class="st2" d="M269.4,127.5c-2.8,0-5.1-2.1-5.1-5.9c0-4.2,2.3-7.8,8.5-10.3l0.2,0.3c-5.8,2.6-6.7,5.8-6.7,9.6
		c0,4,1.3,5.9,3.4,5.9c1.9,0,2.8-1.7,2.8-4.3c0-2.3-0.7-4.3-3.1-4.3c-0.5,0-0.9,0.1-1.3,0.2l-0.1-0.3c0.5-0.2,1.3-0.4,2-0.4
		c2.7,0,4.3,1.7,4.3,4.4C274.3,125.3,272.1,127.5,269.4,127.5z"/>
	<path class="st2" d="M281.3,127.5c-3.6,0-5.3-3.5-5.3-8c0-4.5,2-8,5.3-8c3.6,0,5.3,3.5,5.3,8C286.6,124.1,284.6,127.5,281.3,127.5z
		 M281.1,111.9c-2.1,0-3.1,2.5-3.1,7.2c0,5.1,1,8.1,3.5,8.1c2.1,0,3.1-2.5,3.1-7.2C284.6,114.9,283.6,111.9,281.1,111.9z"/>
	<path class="st2" d="M290.3,123c-1.2,0-2.1-1-2.1-2.8c0-1.7,0.9-3,2.3-3c1.2,0,2.1,1,2.1,2.8C292.6,121.7,291.7,123,290.3,123z
		 M290.3,117.4c-0.8,0-1.2,1-1.2,2.6s0.4,2.8,1.3,2.8c0.8,0,1.2-1,1.2-2.6S291.2,117.4,290.3,117.4z M296.5,117.4l-6.3,10l-0.2-0.1
		l6.3-10L296.5,117.4z M295.9,127.4c-1.2,0-2.1-1-2.1-2.8c0-1.7,0.9-3,2.3-3c1.2,0,2.1,1,2.1,2.8
		C298.2,126.1,297.2,127.4,295.9,127.4z M295.9,121.8c-0.8,0-1.2,1-1.2,2.6c0,1.6,0.4,2.8,1.3,2.8c0.8,0,1.2-1,1.2-2.6
		S296.8,121.8,295.9,121.8z"/>
</g>
<circle class="st2" cx="293.9" cy="56.5" r="4.1"/>
</svg>
