<?xml version="1.0" encoding="utf-8"?>
<!-- Generator: Adobe Illustrator 23.1.1, SVG Export Plug-In . SVG Version: 6.00 Build 0)  -->
<svg version="1.0" id="_x32_" xmlns="http://www.w3.org/2000/svg" xmlns:xlink="http://www.w3.org/1999/xlink" x="0px" y="0px"
	 viewBox="0 0 491.47 354.73" style="enable-background:new 0 0 491.47 354.73;" xml:space="preserve">
<style type="text/css">
	.st0{fill:#D43927;}
	.st1{enable-background:new    ;}
	.st2{fill:#D63B27;}
	.st3{fill:none;stroke:#D63B27;stroke-width:2;stroke-linecap:round;stroke-linejoin:round;stroke-dasharray:0,6.062;}
	.st4{fill:none;stroke:#D63B27;stroke-width:2;stroke-linecap:round;stroke-linejoin:round;}
	.st5{fill:none;stroke:#D63B27;stroke-width:2;stroke-linecap:round;stroke-linejoin:round;stroke-dasharray:0,5.61;}
	.st6{fill:#FFFFFF;}
</style>
<g>
	<path class="st0" d="M163.53,180.53l145.66,62.83c-24.95,55.88-80.69,94.98-145.66,95.75V180.53z"/>
	<path class="st0" d="M310.74,239.78l-146.97-63.4L190.8,18.62c75.29,13.75,132.36,79.68,132.36,158.94
		C323.16,199.61,318.73,220.63,310.74,239.78z"/>
	<path class="st0" d="M159.65,177.23L159.65,177.23c-0.01,0.11-0.03,0.22-0.03,0.33v161.55C71.29,338.06,0,266.14,0,177.56
		C0,88.32,72.34,15.98,161.58,15.98c8.63,0,17.1,0.68,25.37,1.99L159.65,177.23z"/>
</g>
<g class="st1">
	<path class="st2" d="M377.92,128.85l-7.43,14.85c-5.02,10.04-7.95,16.37-9.52,20.09c-0.21,0.47-0.58,0.89-0.89,0.89
		c-0.79,0-1.57-0.42-1.57-0.99c0-0.31,0.16-0.68,0.42-1.1c2.3-3.61,5.6-9.52,10.51-19.46l5.75-11.56h-11.66
		c-4.18,0-5.28,0.47-6.8,3.09l-0.99,1.73h-0.52l2.98-9.05h0.31c1.05,0.99,1.36,1.05,9.05,1.05h10.04L377.92,128.85z"/>
	<path class="st2" d="M373.48,171.01l-0.26-0.47c2.62-1.83,3.92-4.08,3.92-6.12c-2.98-1.36-3.82-2.3-3.82-3.71
		c0-1.1,0.84-1.99,2.04-1.99c1.99,0,3.77,1.73,3.77,4.39C379.13,166.2,376.88,169.02,373.48,171.01z"/>
	<path class="st2" d="M394.77,164.84c-8.37,0-12.24-8.16-12.24-18.57c0-10.51,4.6-18.57,12.24-18.57c8.37,0,12.24,8.16,12.24,18.57
		C407.01,156.78,402.4,164.84,394.77,164.84z M394.3,128.54c-4.92,0-7.17,5.86-7.17,16.69c0,11.82,2.41,18.78,8.11,18.78
		c4.92,0,7.17-5.86,7.17-16.69C402.4,135.49,400,128.54,394.3,128.54z"/>
	<path class="st2" d="M424.06,164.84c-8.37,0-12.24-8.16-12.24-18.57c0-10.51,4.6-18.57,12.24-18.57c8.37,0,12.24,8.16,12.24,18.57
		C436.3,156.78,431.7,164.84,424.06,164.84z M423.59,128.54c-4.92,0-7.17,5.86-7.17,16.69c0,11.82,2.41,18.78,8.11,18.78
		c4.92,0,7.17-5.86,7.17-16.69C431.7,135.49,429.29,128.54,423.59,128.54z"/>
	<path class="st2" d="M453.35,164.84c-8.37,0-12.24-8.16-12.24-18.57c0-10.51,4.6-18.57,12.24-18.57c8.37,0,12.24,8.16,12.24,18.57
		C465.59,156.78,460.99,164.84,453.35,164.84z M452.88,128.54c-4.92,0-7.17,5.86-7.17,16.69c0,11.82,2.41,18.78,8.11,18.78
		c4.92,0,7.17-5.86,7.17-16.69C460.99,135.49,458.58,128.54,452.88,128.54z"/>
</g>
<g class="st1">
	<path d="M365.06,188.33h1.2l3.23,8.09l3.23-8.09h1.19l-3.73,9.28h-1.39L365.06,188.33z"/>
	<path d="M379.39,188.2c2.82,0,4.92,2.02,4.92,4.83c0,2.78-2.09,4.74-4.92,4.74c-2.78,0-4.87-1.96-4.87-4.74
		C374.53,190.22,376.62,188.2,379.39,188.2z M379.39,196.7c2.19,0,3.75-1.5,3.75-3.68c0-2.19-1.55-3.76-3.75-3.76
		c-2.15,0-3.7,1.57-3.7,3.76C375.69,195.2,377.24,196.7,379.39,196.7z"/>
	<path d="M386.36,197.62v-9.28h1.13v8.26h5.45v1.03H386.36z"/>
	<path d="M394.09,188.33h1.13v5.91c0,1.57,1.16,2.45,2.88,2.45c1.76,0,2.9-0.93,2.9-2.45v-5.91h1.13v5.97
		c0,2.24-1.74,3.45-4.03,3.45c-2.39,0-4.01-1.24-4.01-3.45V188.33z"/>
	<path d="M413.37,197.62h-1.18l-6.31-7.58v7.58h-1.13v-9.28h1.18l6.32,7.61v-7.61h1.13V197.62z"/>
	<path d="M419.18,189.39v8.23h-1.12v-8.23h-3.11v-1.05h7.33v1.05H419.18z"/>
	<path d="M423.86,197.62v-9.28h6.66v1.03h-5.53v2.97h4.81v1.03h-4.81v3.24h5.67v1.02H423.86z"/>
	<path d="M432.71,197.62v-9.28h6.66v1.03h-5.53v2.97h4.81v1.03h-4.81v3.24h5.67v1.02H432.71z"/>
	<path d="M442.68,194.7v2.91h-1.13v-9.28h4.1c1.74,0,3.24,1.01,3.24,3.21c0,1.52-0.88,2.56-2.06,2.97l2.56,3.1h-1.42l-2.34-2.91
		H442.68z M442.68,193.69h2.84c1.2,0,2.21-0.81,2.21-2.14c0-1.48-1.01-2.18-2.21-2.18h-2.84V193.69z"/>
	<path d="M452.82,193.17c-1.24-0.39-2.3-1-2.3-2.32c0-1.63,1.23-2.65,3.31-2.65c1.07,0,1.98,0.21,2.73,0.51l-0.12,1.05
		c-0.72-0.33-1.7-0.53-2.52-0.53c-1.36,0-2.21,0.53-2.21,1.52c0,0.97,0.81,1.19,1.63,1.46l1.46,0.46c1.52,0.5,2.23,1.16,2.23,2.43
		c0,1.59-1.31,2.66-3.34,2.66c-1.09,0-2.38-0.25-3.19-0.64l0.11-1.07c0.79,0.38,2.02,0.67,2.99,0.67c1.35,0,2.26-0.58,2.26-1.59
		c0-0.75-0.41-1.13-1.47-1.47L452.82,193.17z"/>
</g>
<g>
	<path class="st3" d="M172.61,348.73c90.72-3.16,159.88-77.05,161.38-168.33"/>
	<path class="st3" d="M333.92,171.31c-3-90.89-73.14-163.8-164.34-165.38"/>
	<path class="st4" d="M166.55,5.9L166.55,5.9 M334.02,177.37L334.02,177.37 M166.55,348.84L166.55,348.84"/>
	<path class="st2" d="M161.58,348.84L161.58,348.84c0,2.21,1.79,4,4,4l0,0c2.21,0,4-1.79,4-4l0,0c0-2.21-1.79-4-4-4l0,0
		C163.37,344.84,161.58,346.63,161.58,348.84z"/>
	<path class="st2" d="M161.58,5.9L161.58,5.9c0,2.21,1.79,4,4,4l0,0c2.21,0,4-1.79,4-4l0,0c0-2.21-1.79-4-4-4l0,0
		C163.37,1.9,161.58,3.69,161.58,5.9z"/>
	<line class="st5" x1="345.59" y1="177.37" x2="485.47" y2="177.37"/>
	<path class="st4" d="M379.25,177.37L379.25,177.37 M339.98,177.37L339.98,177.37"/>
</g>
<g class="st1">
	<path class="st6" d="M47.86,171.44c-3.13,0-5.27-1.95-5.27-4.79c0-2.83,2.11-4.77,5.2-4.77c1.2,0,2.23,0.29,2.82,0.58l-0.12,1.06
		c-0.57-0.27-1.57-0.56-2.71-0.56c-2.38,0-3.99,1.5-3.99,3.69c0,2.2,1.69,3.71,4.15,3.71c1.43,0,2.37-0.45,2.65-0.6l0.18,1.07
		C50.51,170.95,49.52,171.44,47.86,171.44z"/>
	<path class="st6" d="M57.63,161.89c2.82,0,4.92,2.02,4.92,4.83c0,2.78-2.09,4.74-4.92,4.74c-2.78,0-4.87-1.96-4.87-4.74
		C52.76,163.91,54.85,161.89,57.63,161.89z M57.63,170.39c2.19,0,3.75-1.5,3.75-3.68c0-2.19-1.55-3.76-3.75-3.76
		c-2.15,0-3.7,1.57-3.7,3.76C53.93,168.89,55.48,170.39,57.63,170.39z"/>
	<path class="st6" d="M70.43,168.11l-3.72-4.32v7.51h-1.12v-9.28h1.11l3.86,4.63l3.85-4.63h1.09v9.28h-1.12v-7.53l-3.68,4.33H70.43z
		"/>
	<path class="st6" d="M80.33,168.39v2.91H79.2v-9.28h4.1c1.74,0,3.24,1.01,3.24,3.21c0,1.98-1.5,3.17-3.24,3.17H80.33z
		 M80.33,167.38h2.84c1.2,0,2.21-0.81,2.21-2.14c0-1.48-1.01-2.18-2.21-2.18h-2.84V167.38z"/>
	<path class="st6" d="M96.47,171.31h-1.18l-0.86-2.15h-4.9l-0.86,2.15h-1.2l3.84-9.28h1.33L96.47,171.31z M89.88,168.19h4.18
		l-2.08-4.99L89.88,168.19z"/>
	<path class="st6" d="M107.54,171.31h-1.18l-6.31-7.58v7.58h-1.13v-9.28h1.18l6.32,7.61v-7.61h1.13V171.31z"/>
	<path class="st6" d="M111.34,162.02l2.87,4.5l2.88-4.5h1.34l-3.65,5.65v3.63h-1.13v-3.62l-3.65-5.66H111.34z"/>
	<path class="st6" d="M29.27,178.82h1.2l3.23,8.09l3.23-8.09h1.19l-3.73,9.28h-1.39L29.27,178.82z"/>
	<path class="st6" d="M44.6,178.69c2.82,0,4.92,2.02,4.92,4.83c0,2.78-2.09,4.74-4.92,4.74c-2.78,0-4.87-1.96-4.87-4.74
		C39.74,180.71,41.83,178.69,44.6,178.69z M44.6,187.19c2.19,0,3.75-1.5,3.75-3.68c0-2.19-1.55-3.76-3.75-3.76
		c-2.15,0-3.7,1.57-3.7,3.76C40.9,185.69,42.45,187.19,44.6,187.19z"/>
	<path class="st6" d="M52.56,188.11v-9.28h1.13v8.26h5.45v1.03H52.56z"/>
	<path class="st6" d="M61.29,178.82h1.13v5.91c0,1.57,1.16,2.45,2.88,2.45c1.76,0,2.9-0.93,2.9-2.45v-5.91h1.13v5.97
		c0,2.24-1.74,3.45-4.03,3.45c-2.39,0-4.01-1.24-4.01-3.45V178.82z"/>
	<path class="st6" d="M81.56,188.11h-1.18l-6.31-7.58v7.58h-1.13v-9.28h1.18l6.32,7.61v-7.61h1.13V188.11z"/>
	<path class="st6" d="M88.36,179.88v8.23h-1.12v-8.23h-3.11v-1.05h7.33v1.05H88.36z"/>
	<path class="st6" d="M94.04,188.11v-9.28h6.66v1.03h-5.53v2.97h4.81v1.03h-4.81v3.24h5.67v1.02H94.04z"/>
	<path class="st6" d="M103.88,188.11v-9.28h6.66v1.03h-5.53v2.97h4.81v1.03h-4.81v3.24h5.67v1.02H103.88z"/>
	<path class="st6" d="M114.85,185.19v2.91h-1.13v-9.28h4.1c1.74,0,3.24,1.01,3.24,3.21c0,1.52-0.88,2.56-2.06,2.97l2.56,3.1h-1.42
		l-2.34-2.91H114.85z M114.85,184.18h2.84c1.2,0,2.21-0.81,2.21-2.14c0-1.48-1.01-2.18-2.21-2.18h-2.84V184.18z"/>
	<path class="st6" d="M125.99,183.66c-1.24-0.39-2.3-1-2.3-2.32c0-1.63,1.23-2.65,3.31-2.65c1.07,0,1.98,0.21,2.73,0.51l-0.12,1.05
		c-0.72-0.33-1.7-0.53-2.52-0.53c-1.36,0-2.21,0.53-2.21,1.52c0,0.97,0.81,1.19,1.63,1.46l1.46,0.46c1.52,0.5,2.23,1.16,2.23,2.43
		c0,1.59-1.3,2.66-3.34,2.66c-1.09,0-2.38-0.25-3.19-0.64l0.11-1.07c0.79,0.38,2.02,0.67,2.99,0.67c1.35,0,2.26-0.58,2.26-1.59
		c0-0.75-0.41-1.13-1.47-1.47L125.99,183.66z"/>
</g>
<circle class="st0" cx="487.97" cy="177.59" r="3.5"/>
<g class="st1">
	<path class="st6" d="M216.23,141.2c-1.16-0.36-2.13-0.93-2.13-2.15c0-1.51,1.14-2.46,3.07-2.46c0.99,0,1.84,0.2,2.54,0.47
		l-0.11,0.97c-0.67-0.31-1.58-0.49-2.34-0.49c-1.26,0-2.05,0.5-2.05,1.42c0,0.9,0.76,1.1,1.51,1.35l1.35,0.43
		c1.41,0.46,2.07,1.08,2.07,2.25c0,1.48-1.21,2.47-3.1,2.47c-1.02,0-2.21-0.23-2.96-0.59l0.1-0.99c0.74,0.35,1.87,0.62,2.77,0.62
		c1.26,0,2.09-0.54,2.09-1.48c0-0.69-0.38-1.05-1.36-1.37L216.23,141.2z"/>
	<path class="st6" d="M222.95,145.34v-8.62h6.18v0.95h-5.14v2.76h4.47v0.95h-4.47v3.01h5.27v0.95H222.95z"/>
	<path class="st6" d="M240.16,145.34h-1.1l-5.86-7.04v7.04h-1.05v-8.62h1.1l5.87,7.07v-7.07h1.05V145.34z"/>
	<path class="st6" d="M243.66,136.72h1.05v8.62h-1.05V136.72z"/>
	<path class="st6" d="M252.12,136.59c2.62,0,4.56,1.88,4.56,4.48c0,2.58-1.94,4.4-4.56,4.4c-2.58,0-4.52-1.81-4.52-4.4
		C247.6,138.47,249.54,136.59,252.12,136.59z M252.12,144.49c2.04,0,3.49-1.4,3.49-3.42c0-2.03-1.44-3.49-3.49-3.49
		c-2,0-3.43,1.46-3.43,3.49C248.69,143.09,250.12,144.49,252.12,144.49z"/>
	<path class="st6" d="M260.62,142.63v2.7h-1.05v-8.62h3.81c1.62,0,3.01,0.94,3.01,2.98c0,1.41-0.81,2.38-1.92,2.76l2.37,2.88h-1.31
		l-2.17-2.7H260.62z M260.62,141.69h2.64c1.12,0,2.06-0.75,2.06-1.99c0-1.37-0.94-2.02-2.06-2.02h-2.64V141.69z"/>
	<path class="st6" d="M271.03,141.2c-1.16-0.36-2.13-0.93-2.13-2.15c0-1.51,1.14-2.46,3.07-2.46c0.99,0,1.84,0.2,2.54,0.47
		l-0.11,0.97c-0.67-0.31-1.58-0.49-2.34-0.49c-1.26,0-2.05,0.5-2.05,1.42c0,0.9,0.75,1.1,1.51,1.35l1.35,0.43
		c1.41,0.46,2.07,1.08,2.07,2.25c0,1.48-1.21,2.47-3.1,2.47c-1.02,0-2.21-0.23-2.96-0.59l0.1-0.99c0.74,0.35,1.87,0.62,2.77,0.62
		c1.26,0,2.09-0.54,2.09-1.48c0-0.69-0.38-1.05-1.37-1.37L271.03,141.2z"/>
</g>
<g class="st1">
	<path class="st6" d="M185.56,245.86h0.97v5.06c0,1.35,1,2.1,2.47,2.1c1.51,0,2.48-0.8,2.48-2.1v-5.06h0.97v5.12
		c0,1.92-1.49,2.96-3.45,2.96c-2.05,0-3.44-1.07-3.44-2.96V245.86z"/>
	<path class="st6" d="M203.08,253.82h-1.01l-5.41-6.5v6.5h-0.97v-7.96h1.01l5.41,6.52v-6.52h0.97V253.82z"/>
	<path class="st6" d="M206.4,245.86h0.97v7.96h-0.97V245.86z"/>
	<path class="st6" d="M209.65,245.86h1.03l2.77,6.94l2.77-6.94h1.02l-3.19,7.96h-1.19L209.65,245.86z"/>
	<path class="st6" d="M219.52,253.82v-7.96h5.71v0.88h-4.74v2.55h4.12v0.88h-4.12v2.78h4.86v0.87H219.52z"/>
	<path class="st6" d="M229.06,251.32v2.5h-0.97v-7.96h3.52c1.49,0,2.78,0.87,2.78,2.75c0,1.3-0.75,2.2-1.77,2.55l2.19,2.66h-1.21
		l-2-2.5H229.06z M229.06,250.45h2.44c1.03,0,1.9-0.69,1.9-1.83c0-1.27-0.87-1.87-1.9-1.87h-2.44V250.45z"/>
	<path class="st6" d="M238.75,250c-1.07-0.33-1.97-0.86-1.97-1.99c0-1.39,1.05-2.27,2.84-2.27c0.91,0,1.7,0.18,2.34,0.43l-0.1,0.9
		c-0.62-0.29-1.46-0.45-2.16-0.45c-1.17,0-1.89,0.46-1.89,1.31c0,0.83,0.7,1.02,1.39,1.25l1.25,0.4c1.3,0.43,1.91,1,1.91,2.08
		c0,1.37-1.12,2.28-2.87,2.28c-0.94,0-2.04-0.22-2.73-0.54l0.09-0.91c0.68,0.32,1.73,0.57,2.56,0.57c1.16,0,1.93-0.5,1.93-1.37
		c0-0.64-0.35-0.97-1.26-1.26L238.75,250z"/>
	<path class="st6" d="M245.03,245.86H246v7.96h-0.97V245.86z"/>
	<path class="st6" d="M251.98,246.76v7.05h-0.96v-7.05h-2.67v-0.9h6.29v0.9H251.98z"/>
	<path class="st6" d="M257.07,245.86l2.46,3.86l2.47-3.86h1.15l-3.13,4.85v3.11h-0.97v-3.11l-3.13-4.85H257.07z"/>
</g>
<g class="st1">
	<path class="st6" d="M192.04,264.4c-1.07-0.33-1.97-0.86-1.97-1.99c0-1.39,1.05-2.27,2.84-2.27c0.91,0,1.7,0.18,2.34,0.43l-0.1,0.9
		c-0.62-0.29-1.46-0.45-2.16-0.45c-1.17,0-1.89,0.46-1.89,1.31c0,0.83,0.7,1.02,1.39,1.25l1.25,0.4c1.3,0.43,1.91,1,1.91,2.08
		c0,1.37-1.12,2.28-2.87,2.28c-0.94,0-2.04-0.22-2.73-0.54l0.09-0.91c0.68,0.32,1.73,0.57,2.56,0.57c1.16,0,1.93-0.5,1.93-1.37
		c0-0.64-0.35-0.97-1.26-1.26L192.04,264.4z"/>
	<path class="st6" d="M200.91,261.16v7.05h-0.96v-7.05h-2.67v-0.9h6.29v0.9H200.91z"/>
	<path class="st6" d="M205.84,260.26h0.97v5.06c0,1.35,1,2.1,2.47,2.1c1.51,0,2.48-0.8,2.48-2.1v-5.06h0.97v5.12
		c0,1.92-1.49,2.96-3.45,2.96c-2.05,0-3.44-1.07-3.44-2.96V260.26z"/>
	<path class="st6" d="M219.22,260.26c2.65,0,4.01,1.63,4.01,3.98c0,2.44-1.37,3.97-4.03,3.97h-3.25v-7.96H219.22z M216.93,261.14
		v6.19h2.23c2.06,0,3.09-1.11,3.09-3.09c0-1.92-1.03-3.1-3.09-3.1H216.93z"/>
	<path class="st6" d="M226.02,268.22v-7.96h5.71v0.88h-4.74v2.55h4.12v0.88h-4.12v2.78h4.86v0.87H226.02z"/>
	<path class="st6" d="M242,268.22h-1.01l-5.41-6.5v6.5h-0.97v-7.96h1.01l5.41,6.52v-6.52H242V268.22z"/>
	<path class="st6" d="M247.97,261.16v7.05h-0.96v-7.05h-2.67v-0.9h6.29v0.9H247.97z"/>
	<path class="st6" d="M254.34,264.4c-1.07-0.33-1.97-0.86-1.97-1.99c0-1.39,1.05-2.27,2.84-2.27c0.91,0,1.7,0.18,2.34,0.43l-0.1,0.9
		c-0.62-0.29-1.46-0.45-2.16-0.45c-1.17,0-1.89,0.46-1.89,1.31c0,0.83,0.7,1.02,1.39,1.25l1.25,0.4c1.3,0.43,1.91,1,1.91,2.08
		c0,1.37-1.12,2.28-2.87,2.28c-0.94,0-2.04-0.22-2.73-0.54l0.09-0.91c0.68,0.32,1.73,0.57,2.56,0.57c1.16,0,1.93-0.5,1.93-1.37
		c0-0.64-0.35-0.97-1.26-1.26L254.34,264.4z"/>
</g>
</svg>
