<svg xmlns="http://www.w3.org/2000/svg" viewBox="0 0 440.42 92.84"><defs><style>.cls-1{fill:#fafafa;}.cls-2{fill:#cc2128;}</style></defs><title>Ресурс 2</title><g id="Слой_2" data-name="Слой 2"><g id="OL"><path class="cls-1" d="M136.79,39.74V53.17c0,5-3.07,7.11-6.75,7.11-5,0-6.41-2.84-6.74-6.86h4.32c0,1.45.3,3.74,2.42,3.74,2.32,0,2.32-2.62,2.43-4.07V39.74Z"/><path class="cls-1" d="M139.77,49.83a3.78,3.78,0,0,1,1.9-3.49,8.23,8.23,0,0,1,4.12-.89c2.82,0,6,1,6,5.24v7.64a12,12,0,0,0,.2,1.54h-3.77a15.72,15.72,0,0,1-.14-1.87H148a4.58,4.58,0,0,1-4.3,2.28c-2.62,0-4.57-1.5-4.57-4.24a4.88,4.88,0,0,1,3-4.43,13.46,13.46,0,0,1,5.47-.75V49.55a1.79,1.79,0,0,0-1.92-1.73,1.89,1.89,0,0,0-1.87,2Zm3.38,5.66a2,2,0,0,0,2,2c2.32,0,2.4-2.57,2.4-4.22C146.13,53.26,143.15,53.23,143.15,55.49Z"/><path class="cls-1" d="M159.07,47.49h.05a4.71,4.71,0,0,1,3.74-2c4.35,0,6.55,3.65,6.55,7.42,0,3.59-1.93,7.41-6,7.41a4.59,4.59,0,0,1-4.27-2.39h-.05v7.33h-4.19V48.66c0-.92-.08-1.87-.14-2.79H159Zm3,10c2.67,0,3-2.49,3-4.63s-.34-4.63-3-4.63c-2.26,0-3,2.7-3,4.63S159.82,57.5,162.08,57.5Z"/><path class="cls-1" d="M171.75,49.83a3.78,3.78,0,0,1,1.9-3.49,8.2,8.2,0,0,1,4.12-.89c2.82,0,6,1,6,5.24v7.64a10.67,10.67,0,0,0,.19,1.54h-3.76A13.87,13.87,0,0,1,180,58H180a4.56,4.56,0,0,1-4.29,2.28c-2.62,0-4.57-1.5-4.57-4.24a4.86,4.86,0,0,1,3-4.43,13.44,13.44,0,0,1,5.47-.75V49.55a1.79,1.79,0,0,0-1.93-1.73,1.9,1.9,0,0,0-1.87,2Zm3.37,5.66a2,2,0,0,0,2,2c2.31,0,2.4-2.57,2.4-4.22C178.11,53.26,175.12,53.23,175.12,55.49Z"/><path class="cls-1" d="M190.9,47.49l.06.08a4.76,4.76,0,0,1,4.29-2.12c1.4,0,4.1,1,4.6,3.07a9.7,9.7,0,0,1,.28,2.23v9.12H196V51.44c0-1.5-.45-3.2-2.51-3.2-1.31,0-2.45,1.17-2.51,3.2v8.43h-4.18v-14h4.15Z"/><path class="cls-1" d="M203.5,59.87V56.15H207v3.72Z"/><path class="cls-2" d="M89.19,55c.33-3.45,3.17-7.51,8.1-9.71a13.21,13.21,0,0,1,3.32-1A46.41,46.41,0,0,0,7.83,46.42c0,.8,0,1.59.06,2.38A6.08,6.08,0,0,1,8.82,48a8.75,8.75,0,0,1,.84,4.44,8.64,8.64,0,0,1,3.28-3.11,13.7,13.7,0,0,1,0,7,11.11,11.11,0,0,1-2.79,4.53,46.42,46.42,0,0,0,70,24.08l-.4-.51A10.85,10.85,0,0,1,78.11,75c2.61-.29,6.06,1.18,8.47,4.5a1.21,1.21,0,0,1,.1.14A46.31,46.31,0,0,0,99.62,56.22,14.12,14.12,0,0,1,89.19,55ZM77.06,38.85a12.69,12.69,0,0,1,3.64-5.38,8.19,8.19,0,0,1,.89,4.07,8.14,8.14,0,0,1,2.94-2.95,12.6,12.6,0,0,1,.18,6.49,10.25,10.25,0,0,1-6.11,6.71C76.87,46,76,42.57,77.06,38.85ZM54.64,48a19.26,19.26,0,0,1,10,0,12.49,12.49,0,0,1-4.42,4.66,12.77,12.77,0,0,1,6.32,1.17,19.26,19.26,0,0,1-8.12,5.87,15.76,15.76,0,0,1-13.84-2C45.36,54,49,49.85,54.64,48ZM17.33,53.81a12.81,12.81,0,0,1,6.32-1.17A12.57,12.57,0,0,1,19.23,48a19.26,19.26,0,0,1,10,0,15.81,15.81,0,0,1,10.05,9.72c-2.83,2.58-8.16,3.8-13.85,2A19.28,19.28,0,0,1,17.33,53.81Zm20.55,20.8a19.36,19.36,0,0,1-8.08,5.91,12.55,12.55,0,0,1,.83-6.37,12.73,12.73,0,0,1-5.8,2.76A19.38,19.38,0,0,1,28,67.39,15.79,15.79,0,0,1,40.3,60.84C41.88,64.33,41.4,69.78,37.88,74.61ZM35.8,43.24a19.26,19.26,0,0,1,3.07-9.53,12.53,12.53,0,0,1,3.07,5.64A12.53,12.53,0,0,1,45,33.71a19.37,19.37,0,0,1,3.07,9.53A15.8,15.8,0,0,1,41.94,55.8C38.61,53.91,35.8,49.21,35.8,43.24ZM59.05,76.91a12.73,12.73,0,0,1-5.8-2.76,12.69,12.69,0,0,1,.83,6.37A19.42,19.42,0,0,1,46,74.61a15.73,15.73,0,0,1-2.42-13.77c3.8-.42,8.84,1.72,12.35,6.55A19.38,19.38,0,0,1,59.05,76.91Zm1.06-6.76a8.71,8.71,0,0,1,4.33-.8,8.72,8.72,0,0,1-3-3.2,13.36,13.36,0,0,1,6.86,0,10.84,10.84,0,0,1,6.9,6.67c-1.94,1.77-5.6,2.61-9.5,1.35A13.16,13.16,0,0,1,60.11,70.15Zm14.1,14.27a13.42,13.42,0,0,1-5.55,4,8.7,8.7,0,0,1,.57-4.37,8.49,8.49,0,0,1-4,1.89,13.38,13.38,0,0,1,2.14-6.52A10.81,10.81,0,0,1,75.86,75C77,77.37,76.61,81.1,74.21,84.42ZM77,71.51c-2.29-1.3-4.22-4.52-4.22-8.61a13.32,13.32,0,0,1,2.11-6.54A8.62,8.62,0,0,1,77,60.24a8.78,8.78,0,0,1,2.1-3.88A13.32,13.32,0,0,1,81.2,62.9,10.82,10.82,0,0,1,77,71.51ZM88.3,74.18a10.81,10.81,0,0,1-9.49-1.35c.52-2.57,3-5.4,6.89-6.67a13.41,13.41,0,0,1,6.87,0,8.62,8.62,0,0,1-3,3.2,8.77,8.77,0,0,1,4.34.8A13.3,13.3,0,0,1,88.3,74.18Zm-3,14.29a8.7,8.7,0,0,0-.57-4.37,8.57,8.57,0,0,0,4,1.89,13.35,13.35,0,0,0-2-6.38,46.22,46.22,0,0,1-6.51,5.32A13.65,13.65,0,0,0,85.31,88.47ZM4.72,53.67c-1.29,4-.43,7.74,1.39,9.72a10.43,10.43,0,0,0,4-2.54A46.21,46.21,0,0,1,7.89,48.8,13.26,13.26,0,0,0,4.72,53.67Zm5.57,23.52a8.69,8.69,0,0,0,2.53-3.73,13.73,13.73,0,0,0-6.93,1.13C2.16,76.5.12,79.76,0,82.45a11.08,11.08,0,0,0,9.81-.18,13.66,13.66,0,0,0,5-5A8.7,8.7,0,0,0,10.29,77.19ZM102.76,49a11.36,11.36,0,0,0,3.52-4.63,17.35,17.35,0,0,0-5.67,0c0,.68,0,1.36,0,2.05a46.55,46.55,0,0,1-1,9.8,13.73,13.73,0,0,0,2.2-.77,17.42,17.42,0,0,0,6.73-6.06A11.4,11.4,0,0,0,102.76,49Zm10-25.7a11.45,11.45,0,0,0,4.36-3.84,17.68,17.68,0,0,0-9-.8c-5.26,1.19-8.85,4.61-9.85,7.93a14.24,14.24,0,0,0,12.3,2.89,17.31,17.31,0,0,0,7.79-4.6A11.27,11.27,0,0,0,112.72,23.25Z"/><path class="cls-1" d="M225.64,60.37a5.85,5.85,0,0,1-6-5.68h2c.06,3.11,2.36,4,5.07,4,2.27,0,4.87-1.31,4.87-3.89,0-2-1.45-3-3.16-3.53-3.28-1.09-8.26-2.12-8.26-6.49,0-3.53,3.25-5.46,6.44-5.46,2.66,0,6.13.92,6.58,4.81h-2c-.06-2.49-2.32-3.13-4.4-3.13s-4.7,1.06-4.7,3.53c0,5.74,11.42,3.13,11.42,10.1C233.48,59,229.7,60.37,225.64,60.37Z"/><path class="cls-1" d="M238.74,48h.06a4.82,4.82,0,0,1,4.39-2.55c4.6,0,5,4.06,5,5.68V60h-1.68V50.88c0-2.43-1.4-3.86-3.7-3.86-2.77,0-4,2.32-4,4.84V60h-1.68V39.74h1.68Z"/><path class="cls-1" d="M260.27,50c-.17-2.29-1.35-3-3.33-3-1.77,0-3.23.53-3.45,2.43H251.7c.42-2.88,2.57-4,5.26-4,3.11,0,5,1.43,5,4.65v6.66c0,1.09.08,2.21.14,3.16h-1.74l-.06-2.07h-.05l-.09.2a5.27,5.27,0,0,1-4.39,2.29c-2.61,0-4.68-1.59-4.68-4.34A4.34,4.34,0,0,1,253.91,52c1.88-.81,4.31-.53,6.36-.64Zm-4.2,8.79c3.66,0,4.37-3,4.2-6-2.38.08-7.37-.36-7.37,3.16C252.9,57.94,254.36,58.83,256.07,58.83Z"/><path class="cls-1" d="M267.53,60h-1.68V49.06c0-1.09-.08-2.21-.14-3.16h1.74l.08,2.07h.06a3.59,3.59,0,0,1,3.16-2.49,15.93,15.93,0,0,1,1.69,0v1.62c-.34,0-.71-.11-1-.11-2.49,0-3.81,1.79-3.87,4.48Z"/><path class="cls-1" d="M276.71,41.84h-2v-2.1h2Zm-.14,4.06V60h-1.68V45.9Z"/><path class="cls-1" d="M282.23,60h-1.68V49.06c0-1.09-.08-2.21-.14-3.16h1.74l.08,2.07.06.06a4.82,4.82,0,0,1,4.39-2.55c4.6,0,5,4.06,5,5.68V60H290V50.88c0-2.43-1.4-3.86-3.7-3.86-2.77,0-4,2.32-4,4.84Z"/><path class="cls-1" d="M305.55,45.9h1.73c0,1-.14,2.07-.14,3.16v8.43c0,2.8.14,5.74-3,7.2a6.41,6.41,0,0,1-3.19.64c-2.55,0-5.57-.87-5.57-3.78h1.82c.2,1.68,2.18,2.24,4,2.24a4.08,4.08,0,0,0,4.25-3.89V57.27h0a5.17,5.17,0,0,1-4.57,2.63c-4.23,0-6-3.22-6-7.09s1.71-7.33,6-7.33a5.38,5.38,0,0,1,4.62,2.6l0-.11ZM301,47c-3.05,0-4.34,3.08-4.34,5.65s1.32,5.69,4.4,5.69,4.45-3,4.45-5.74S304,47,301,47Z"/><path class="cls-1" d="M320.33,47.44h-2.8V45.9h2.8v-3l1.68-.73V45.9h3.19v1.54H322v9.41a1.73,1.73,0,0,0,1.93,2,5,5,0,0,0,1.46-.16v1.45a7,7,0,0,1-1.71.25c-3.56,0-3.36-2.26-3.36-4.17Z"/><path class="cls-1" d="M340.55,52.93c0,3.69-2.08,7.44-6.56,7.44s-6.55-3.75-6.55-7.44,2.07-7.45,6.55-7.45S340.55,49.23,340.55,52.93ZM334,47c-3.38,0-4.73,3.3-4.73,5.91s1.35,5.9,4.73,5.9,4.74-3.3,4.74-5.9S337.38,47,334,47Z"/><path class="cls-1" d="M345.32,48l.06.06a4.83,4.83,0,0,1,4.39-2.55,4.62,4.62,0,0,1,4.57,3.08,5.85,5.85,0,0,1,4.84-3.08c4.59,0,5,4.06,5,5.68V60h-1.68V50.88c0-2.43-1.4-3.86-3.7-3.86-2.77,0-4,2.32-4,4.84V60h-1.68V50.88c0-2.43-1.4-3.86-3.7-3.86-2.77,0-4,2.32-4,4.84V60h-1.68V49.06c0-1.09-.08-2.21-.14-3.16h1.74Z"/><path class="cls-1" d="M380.33,52.93c0,3.69-2.07,7.44-6.55,7.44s-6.55-3.75-6.55-7.44,2.07-7.45,6.55-7.45S380.33,49.23,380.33,52.93ZM373.78,47c-3.39,0-4.73,3.3-4.73,5.91s1.34,5.9,4.73,5.9,4.73-3.3,4.73-5.9S377.17,47,373.78,47Z"/><path class="cls-1" d="M385.13,60h-1.68V49.06c0-1.09-.09-2.21-.14-3.16H385l.09,2.07h.05a3.62,3.62,0,0,1,3.17-2.49,15.7,15.7,0,0,1,1.68,0v1.62c-.34,0-.7-.11-1-.11-2.49,0-3.81,1.79-3.86,4.48Z"/><path class="cls-1" d="M394.22,60h-1.68V49.06c0-1.09-.08-2.21-.14-3.16h1.74l.08,2.07h.06a3.59,3.59,0,0,1,3.16-2.49,15.7,15.7,0,0,1,1.68,0v1.62c-.34,0-.7-.11-1-.11-2.49,0-3.8,1.79-3.86,4.48Z"/><path class="cls-1" d="M413.2,52.93c0,3.69-2.07,7.44-6.55,7.44s-6.55-3.75-6.55-7.44,2.07-7.45,6.55-7.45S413.2,49.23,413.2,52.93ZM406.65,47c-3.39,0-4.74,3.3-4.74,5.91s1.35,5.9,4.74,5.9,4.73-3.3,4.73-5.9S410,47,406.65,47Z"/><path class="cls-1" d="M420.28,57.74h.06l4.25-11.84h2l4.14,11.73h.06l4.06-11.73h1.85L431.45,60h-1.59l-4.32-12.12h-.05L421.09,60h-1.71L414.23,45.9h1.85Z"/><path class="cls-1" d="M438.18,60v-2.4h2.24V60Z"/></g></g></svg>