<svg xmlns="http://www.w3.org/2000/svg" viewBox="0 0 415.22 415.84"><defs><style>.cls-1{fill:none;stroke:#9b9796;stroke-miterlimit:10;}</style></defs><title>map</title><g id="Слой_2" data-name="Слой 2"><g id="Layer_1" data-name="Layer 1"><g id="map"><path class="cls-1" d="M7.63,323.74c-1.53-.17-3.37,1.7-4.45-.79-1.46,1.23-.4,3.8-2.68,4.38v.81c.73.69,1.85.24,2.58.84.43.34.6,1.19,1.38.61s.63-1.17.14-2a3.12,3.12,0,0,0,2.76.54c.6-1.35.25-2.84.59-4.22C8,323.82,7.77,323.75,7.63,323.74Z"/><path class="cls-1" d="M311.77,6.47a.65.65,0,0,0,.48-.25A4.77,4.77,0,0,0,311.47.5h-.81c-.37,1.69.18,3.36.19,5A1,1,0,0,0,311.77,6.47Z"/><path class="cls-1" d="M412.26,58.6c-.66.9.36,1.67.79,2.25.75,1,1-.61,1.67-.59V58.63C413.9,58.21,413,57.63,412.26,58.6Z"/><path class="cls-1" d="M399.25,65.61a6.16,6.16,0,0,1-4.42-1.85c.14-.66,1.79-.09,1.18-1.08-1.46-2.4-.84-5.47-2.82-7.71-1.53-1.74-2.13-3.85-.78-6.09.45-.33.07-.89.34-1.27,1.33-2.71,2.56-5.49,4-8.12a3.58,3.58,0,0,0-.14-4.07C394.34,39.3,391,42,388.09,45.1c-3.1,3.29-9.81,2.72-12.39-1a6.73,6.73,0,0,0-5.63-3l-.2-.06-2.51-.78c.46.85.8,1,1.32.92a2.15,2.15,0,0,1-3.25.56c-.65-.47-2.35-1-1.5-2.59.4-1.48-.94-1.52-1.66-1.71a9.83,9.83,0,0,1-4.67-3.06c-1.11-1.19-2.24-2.36-3.45-3.44-1-.88-1.89-2-3.3-2.2-2.2-2.51-4.42-5-6.58-7.52a8.5,8.5,0,0,1-1.93-3.27c-.7-2.77-2.5-4.84-4.29-6.92-1.05-1.79-2.61-3.24-3.42-5.19-.18-.21-.07-.62-.47-.68L333.81,5l0-.36a5.48,5.48,0,0,0-2.29-2.56l-.9-1.24c-.43-.08-.77.22-1.12.28-1.81.28-3.09,2.47-5.24,1.45a6.37,6.37,0,0,1-1.34,4.64c-.85,1-.35,2.17,0,3.26.42,1.39,1.21,2.68,1.23,4.19a8,8,0,0,0,.76,3.29,17.86,17.86,0,0,1-1.51,14.68,8.09,8.09,0,0,0-1.12,4.82,21,21,0,0,1-.09,5.87c-.35,1.67-.94,2.93-2.93,3.38-1.65.38-3.45,1.09-3.86,3.15s1.17,4.34.26,6.58c0,.08.12.23.17.36a6.2,6.2,0,0,1-2.55,8.33c-1.9,1.18-2.88,1-4.3-.78-.59-.73-1.38-1.47-2.2-1-3.08,1.81-4.79-.91-7-2-.57-.28-3.56-1.53-4.07-1.38a1.87,1.87,0,0,0-1.29,1.1c-.75,1.63-.08,2.84.81,4.07.38.6.37,1.48,1.26,1.69h.17a3.33,3.33,0,0,0,.76,1.06.33.33,0,0,0,0,.06,2.05,2.05,0,0,1-1.3,2,5.53,5.53,0,0,0-3.22,4.47c-.06,1.4-.81,1.69-1.54.59s-1.28-.92-1.83,0a4.27,4.27,0,0,1-3.85,2.17c-2.53.15-3.25.94-3,3.46A8.65,8.65,0,0,1,281,86.9c-.85,1.18-1,2.8.28,3.64,1.54,1,2,3.41,4.35,3.21.17,0,.38.35.55.56a6.92,6.92,0,0,1,0,8.35,25,25,0,0,0-1.66,3c-1.47,2.25-.8,4.49,0,6.72.22,1,1.14,1.06,1.8,1.47,1,.65,2,1.18,2.57-.62a2.62,2.62,0,0,1,2.33-1.41c1.43-.14,2.09-.68,1.91-2.3a2.69,2.69,0,0,1,2.24-3.28,2.4,2.4,0,0,0,2.13-2.36.87.87,0,0,1,.95-.86c.51,0,.7.33.71.78.05,1.3,1,1.35,1.87,1.2,1.79-.31,3.29-.17,3.77,2.26a7.94,7.94,0,0,1,3.48-2.79c2.32-1.1.6-1.94-.05-2.2a9.61,9.61,0,0,1-5.26-4.67c-.33-.62-.82-1.2-1.17-1.85-.67-1.24-1.39-2.12-3.2-1.51a3.66,3.66,0,0,1-4-1.29A6.7,6.7,0,0,0,292.65,91a2,2,0,0,1-1.18-2.34,11.9,11.9,0,0,1,3.78-6.84c1-.81,2.29.2,3.16-.13,1.91-.7,2.56.48,3.4,1.61.34.47.36,1.17,1.08,1.38,1.25.36,1.58,1.32,1.64,2.49.06,1,.17,2.24,1.28,2.52.95.23,1.89-.65,2.29-1.4,1-1.94,2.84-2.55,4.68-3.21.59-.83,1.88-.73,2.3-1.78,1.63-.93,3.37-2.49,5.1-2.06,2.52.63,5.31,1.28,6.92,3.82a3.91,3.91,0,0,0,2.73,1.61,4.46,4.46,0,0,1,3.58,2.87l.83,1.19c.82.39,1.47,1.12,2.43,1.21a5.38,5.38,0,0,0,1.12.73c0,.11.11.21.17.32a5.82,5.82,0,0,0,3.24,1.79c3.69,2.18,8.51,2.64,10.7,7.1.16.32,1,.67,1.08-.07.31-2.4,2.26-4.4,1.73-7a6,6,0,0,1,.52-3.53c2.64-6.79,7.89-11.33,13.46-15.58a17.94,17.94,0,0,1,5.4-2.72c1.28-.41,2.74-1.23,2.72,1.24a.79.79,0,0,0,.43.62c2,.32,4.05.56,5.77,1.85.33.25.61-.17.75-.46a4.06,4.06,0,0,0,.4-2,3.83,3.83,0,0,1,3.06-3.44,1,1,0,0,1,1.12.89c0,.32,0,.77-.51.61-.71-.22-1.13-.12-.81.7.23.6-.17,1.55.62,1.79s1-.46,1-1.13c0-.49.5-.34.67-.52.85-.91,3-1,2.83-2.11-.32-2.57,1.3-2.15,2.68-2.33l3.22-.41a4.31,4.31,0,0,0,2.44.1C401.33,66.89,400.92,65.77,399.25,65.61Z"/><path class="cls-1" d="M323.92,163.85c1.75-2.79-1.11-5.37,0-8,.07-.15-.42-.48-.56-.78-.6-1.35-3.05-2-1.59-4.14.18-.26-.09-.57-.32-.64-.76-.26-.73-.78-.66-1.44.36-3.85-2-6.41-4.67-8.41a6.48,6.48,0,0,1-2.59-4.27c-1.23-5.91-.84-11.82,0-17.73L314,118l.69-2h0c0-.57.69-1.56-.76-1.23v0s-.07,0-.11.11a.14.14,0,0,0,0,.15c-.76,0-1.16.69-1.75,1-.59.59-1.37.15-2,.34a2.4,2.4,0,0,0-1.38-1.6h-.41c-.53-1.37-1.8-1.82-3-2.41-2-1.32-2-1.32-2.87,1.07a8.39,8.39,0,0,1-.45.9,55,55,0,0,0-2.36,6.82,1.16,1.16,0,0,0,.47,1.4c.52.43.88.27,1.39-.13a11.88,11.88,0,0,1,3.88-1.53c.43.53,1,.36,1.54.29.72-.3,1.37-.66,1.48-1.55a.89.89,0,0,1-.09-.16c.54-.9,1.08-.23,1.61.15a2.12,2.12,0,0,0,.42,1.34c0,.06,0,.12,0,.18a3.26,3.26,0,0,0,.36,1.33c-.42,1.47-1,2.87-1.3,4.39a4,4,0,0,1-2.25,3c-1.06.47-1.11-1.19-2-1.35a2,2,0,0,1-.53-.29h0c-.1-.24-.21-.49-.3-.74a1.63,1.63,0,0,0-2.36-1.16c-1.25.56-.82,1.43-.21,2.28.12.16,0,.51,0,.77-1.19,1.05-2.88.52-4.16,1.33a.45.45,0,0,1-.64-.31c-.19-2.71-1-5.47.05-8.14a1.73,1.73,0,0,0-.52-2.28,1.49,1.49,0,0,0-2.17.17c-.93.81-1.79,1.75-1.84-.54a1.21,1.21,0,0,0-1.41-1.14c-.79.13-.67.85-.48,1.49.45,1.5-.6,1.79-2.14,1.93,1.92,1.1,2,2.71,1.84,4.18-.09,1.09-.82,2.11-1.13,3.2-.59,2-2.5,3.7-4.36,3.07-1.63-.55-2,.15-2.51,1.25a4.39,4.39,0,0,1-1.15,1.64,1.79,1.79,0,0,0-.43,2.78c.68.66.3,1.37.1,2.07a2.39,2.39,0,0,0,1.51,2.88h.07v.69l0,1.22a11.56,11.56,0,0,1-3.27,7.64,2.29,2.29,0,0,1-2.5.91c-.52-.16-1.05-.87-1.6-.16s-.21,1.27.05,1.93c.93,2.34,2.32,2.69,4.06.88.62-.64.92-.87,1.51,0,3.11,4.42,2.32,13.12-1.56,16.94a3.23,3.23,0,0,0-1.11,1.88,27.61,27.61,0,0,1-2.77,9.77c-.87,1.72-1.47,3.41-3.36,4.31a2.83,2.83,0,0,0-1.71,1.88c-.52.42-.43,1.11-.7,1.64-1.1,2-1.79,4.21-3.41,5.89a1.2,1.2,0,0,0-.06,1.49c1.13,2.26.23,4-1.43,5.52-.88.82-1.74,1.66-2.61,2.49h0a9,9,0,0,1-4.41.84c-.2.26-.67.07-.77.48a7.86,7.86,0,0,1-2.44,1.75c-2.12,1.18-3.66,2.7-3.67,5.35a2.68,2.68,0,0,1-1.09,2.1A15.54,15.54,0,0,0,246,222c-1.55,2.11-3.68,3.45-5.77,4.88a2.07,2.07,0,0,0-1.18,1.14,4.32,4.32,0,0,1-3.67,1.32,2.6,2.6,0,0,0-2.26.55,6.73,6.73,0,0,1-5.59,2.28,2.58,2.58,0,0,0-1.54.41,8.9,8.9,0,0,1-4.65,1.18,3.21,3.21,0,0,0-3.47,3,1.87,1.87,0,0,1-2.27,1.73c-1.54-.11-3.07-.44-4.59-.6-2.15-.21-2.45-1.35-2.36-3.07.06-1,1.05-1.16,1.41-1.86.56-1.11,2-2.3-.25-3.19a1.3,1.3,0,0,0-.69-.39c-1.12-.16-1.74-.62-1.41-1.9s1-1.2,2-.82a.7.7,0,0,0,.9-.2,6.67,6.67,0,0,1,.67-.73c1.11-1,1.8-2.55,3.87-1.85.75.25,1.31-.71.84-1.72-.57-1.22.08-2,1.22-2s1.24-.54,1.19-1.39-.44-1.52-1.49-1.5a8.8,8.8,0,0,0-5.16,1.53,4.86,4.86,0,0,1-2.47,1.32c-2.87.14-5.48.54-5.28,4.38,0,.11-.13.24-.22.33-1.06,1.06-.91,2.27-.6,3.58a12.55,12.55,0,0,1-.4,7.93c-1.43,3.52-4.18,5.91-6.61,8.6-.63.17-.77.71-.94,1.23a2.86,2.86,0,0,1-1.7,1.62c-4.48,1.57-7,5.3-9.51,8.9a5.11,5.11,0,0,0,.58,6.16,1.29,1.29,0,0,0,.58.53,7.91,7.91,0,0,1-.19,3.52h0a1.26,1.26,0,0,1-.83-1.41c0-.6.05-1.22-.73-1.42a1.62,1.62,0,0,0-1.08,1.56c-.16,2.31-1.36,2.41-3.13,1.57-.23,1.47-.56,2.68-2.4,1.74-.45-.23-.86.11-.68.59.65,1.74-.53,1.65-1.62,1.7-.69,0-1-.79-1.65-.81-.69.92-1.33.1-2,0,.31-.52-.06-.83-.36-1.16a2.29,2.29,0,0,0-.37-1.78L168,269.19c-1.33.39-2-.5-2.54-1.42s.18-1.61.73-2.24a2.54,2.54,0,0,0,.55-2.78c-.46-1.15-1.55-.83-2.44-.84-1.41,0-2.48.88-3.62,1.54-1.92.48-3.77,1.15-5.86.49a15.08,15.08,0,0,0-8.7.07l-.57.2c-.14-.08-.26-.11-.3.11l-1.45.47a11.32,11.32,0,0,1-1.13.23,4.21,4.21,0,0,0-1.23,0,2.41,2.41,0,0,0-3,.11s0,0,0,0h0a1.62,1.62,0,0,0-1.14.16.76.76,0,0,0-.13.2l-2.27,0-.54-.29a1.37,1.37,0,0,0-.85.05l-.13.11c-.52-.21-1.15-.2-1.53-.71a.29.29,0,0,1-.33-.06,3.3,3.3,0,0,0-2.17-.09,1.23,1.23,0,0,0-.4-.23c-1.88-.77-3.51-.14-5.11.86a1.57,1.57,0,0,1-2.43-.5c-.3-.58-1.9-1.3-.12-2.12a.4.4,0,0,0-.21-.78c-2.06.29-4.12-.7-6.16.07-.25.2-.72,0-.84.46-2.29.4-4.59.77-6.87,1.22-1.18.24-2.33.57-.83,2,1,.93.71,1.71-.61,1.93a14.31,14.31,0,0,0-6.16,3.09c-1.88,1.42-3.79,2.77-5.8,4a63.82,63.82,0,0,0-7.84,6,4.37,4.37,0,0,1-3,1.34c-2.32.06-4.58.44-6,2.68a1.82,1.82,0,0,1,0,.33.42.42,0,0,1,0-.33l-1.66,1.21c-1.22,1.39-2.15,3.23-4.47,2.94-1.35-.9-3-1.19-4.32-2.25a2,2,0,0,0-2.92.65,1.08,1.08,0,0,0,.92.23.91.91,0,0,1,1.16.8.74.74,0,0,1-.33.86,1.23,1.23,0,0,1-1.3-.19c-.52-.31-.94-1-1.7-.57a.27.27,0,0,1-.08.07l.08-.07c-.55.42-1.23-.84-1.65.07-.29.64.43.61.8.76a2.94,2.94,0,0,0,.08,3c.67,1.38.09,2.77-.88,2.55-.46-.1-.83-.55-1.11.13a1,1,0,0,0,.43,1.24,1.67,1.67,0,0,1,.7,2.32,1.2,1.2,0,0,0,2-.41c.08-.61.48-.4.83-.31.63.27,1.05.85,1.67,1.14.23.23.56.41.67.68a2.59,2.59,0,0,0,3.73,1.41c2-1.07,4-2.52,6.2-.52a.45.45,0,0,0,.7,0c.76-1,2.5-1.51,2.71-.8.53,1.8,1.45.22,2,.57s.26.92,0,1.37c-.39.65-.2,1.24.5,1,2.12-.69,3,1,4.19,2,.42.66.52,1.68,1.68,1.52l.14-.05c.3.57-.19,1.37.37,1.9.24-.34.44-.64.64-.94,0-1.07-.07-2.15-.11-3.23.49-1,2.35-.65,2.14-2.32-.32-2.62,1.61-4.42,2.48-6.61.47-.42,1.17-.05,1.66-.53,1.18-1.15,2.55-1,3.95-.48l.38.26c-.14,1.08-.3,2.17.79,3.08.39.32-.51.5-.43.93a3,3,0,0,1,2.09.41c.35.23.69.48.91-.13.41-1.13,1.63-1.28,2.38-2l.7-.24v0l.18-.08c.7.08,1.31.83,2.09.28a5.76,5.76,0,0,1,5.64-.43,2.49,2.49,0,0,0,.14-.59c-.06-1.55,1.27-1,2-1.28.4-.13,1.28-.27,1.06.66-.55,2.23.9,1,1.62,1a1,1,0,0,0,1-.38,4.43,4.43,0,0,1,1.66-1.67c1-.53.36.67.8.64a3.32,3.32,0,0,0,3.21-.63,2,2,0,0,1,2.56.12c1.2.87,2.48,1.81,4.16,1.46a1.77,1.77,0,0,0,.46-1.53c.35-.1.69-.43,1.07,0,.16.18,0,.83.5.46.16-.11,0-.6.06-.92,1.12-1.13.09-1.17-.66-1.19-.46,0-1.15.63-1.22-.31-.06-.79.62-1.12,1.39-1.1a2.63,2.63,0,0,1,1.68.61c1.6,1.39,2.47.52,3.69-.75.69-.71.48-2.75,2.38-2.12a.53.53,0,0,0,.59,0l0-.07.46,0,.09.14c1.48.47,3-.2,4.48.22a6.53,6.53,0,0,1,6.72,2.13,6.16,6.16,0,0,0,5.73,2.16,5.62,5.62,0,0,0,3.91-.52,2.22,2.22,0,0,1,2.81.4,2.05,2.05,0,0,1,.1,2.63,10.72,10.72,0,0,1-4,4.5c-1.4.84-3,1.17-4.33,2.16-.79.41-1.3.73-.15,1.47,2,1.26,2.06,2.26.51,4.06-.4.46-.94.86-.11,1.41,1.29.85.52,1.6-.33,1.8-1.34.32-1.15,1-.76,1.85-.29.42-.92.84,0,1.22-.1,0-.14-.1-.14-.15a.48.48,0,0,0,.14.15c.3.16.79.24.87.47.8,2.26,2.62,3.42,4.61,4.42.34.17.66.42.47.95-.95,2.69.57,4.26,2.58,5.59.33.38.63.85,1.26.68,1.38.8,3.46-.06,4.38,1.94.16.36.85,0,1.07-.49.15-.34,0-.83.55-1,2.93-.75,3.87-3.25,5-5.6h0l.81-.89c.74-.88,2-1.44,1.93-2.85h.06c.36.27.58-.1.83-.3l.84-.82c.62-.24.81-.87,1.19-1.32.76-1.26.26-3.34,2.44-3.68.21,0,.23-.46.22-.73-.05-1.27.82-1.56,1.82-1.75s2.07.08,2.79-.88c1.14-.9,2.78-.31,3.78-1,1.29-.85,1.56-.47,2.21.57.85,1.35,2.69,1.52,2.88.41.35-2,1.69-4.15.05-6.22-.5-.71-1.38-.59-2-1-1.7-.29-2.28-2.72-4.39-2.3-.1,0-.47-.66-.49-1-.13-1.91-.32-3.84,1.28-5.37,1.39-1.31,1.64-3.15,2.09-4.89.23-.9-.51-2.24.8-2.65s.35,1.63,1.46,1.63c.74.85,1.37.34,1.8-.28a1.17,1.17,0,0,1,1.54-.5h0c-1.19,2-2.15,4-1.19,6.38a.52.52,0,0,1-.08.39c-.81,1.29-.07,2.28.6,3.31.33.5.62,1.22,1.33.73s.19-1.07-.2-1.55c0-.68,0-1.35-.07-2,.51-.71.44-1.71,1.18-2.32a1.86,1.86,0,0,1,.56,1.86c-.09.74.27,1.69.76,1.71,1.21.05,2.39,1.27,3.76-.05.68-.65,2.07,0,2.89.4s-.15,1.33-.13,2c0,.37-.42.75-.66.53-1.19-1.12-1.51.38-2.22.66a5.75,5.75,0,0,1-2.37.2A1.47,1.47,0,0,0,203.9,299c.08,1.13,1.29.63,2,.56a9.47,9.47,0,0,0,4.08-1.49,44.66,44.66,0,0,1,22.25,3.5c-.62-1.09-1.92-2.09-.79-3.4,2-2.29,3.47-5,6.08-6.65,1.26-.22,1.54-1.42,2.19-2.23a5,5,0,0,1,7.65-.74c.37.32.77.69.62,1.18a1,1,0,0,1-1,.6c-1.93-.14-1.87,1.08-1.91,2.49a21.57,21.57,0,0,1-.71,5.12,2.9,2.9,0,0,0,.79,3.36c.82,1.14,1.63,1.56,2.62.13a4.83,4.83,0,0,1,1.27-.9c.64-2.48,2.61-4,4.18-5.82,1-.58.83-1.48.58-2.38-.94-1.41-1.57-2.85-.41-4.45a1.29,1.29,0,0,0,.72-.89c1.9-3.33,4.67-4.63,8.43-3.64.64.17,1.47.25,1.4,1.12-.17,2.25,1.21,2.33,2.83,2.17,1.24-.9,1.24-1.25,0-2-1.32-1.57-1.08-3.57.72-5.88.49-.62,1.14-1.11,1-2.06-.16-1.65.74-2.28,2.29-2.2a3.34,3.34,0,0,0,2.33,0c1-.23,2-.35,2.62.78a2,2,0,0,1-.48,2.84c-1.28,1.2-1.93,3.08-3.86,3.62a7.76,7.76,0,0,0-1.85.79c-.93.55-1.45,1.2,0,1.72,1.31.45,1.58,1.37.76,2.32a2.51,2.51,0,0,0-.46,2.36c.41,3-.08,3.84-2.31,4.44.16,1.06,1.17,1,1.84,1.32,1.53.79,2.49.72,3.45-1.19.81-1.63,2.61-2.78,4-4.07a1.72,1.72,0,0,1,1.56-.13c2.43.59,3.8-.1,4.54-2.47a11.7,11.7,0,0,0,.72-3.75c-.16-4.52,2.35-7,6.17-8.67.79-.19,1.71.47,2.4-.36l0,0h0a2.85,2.85,0,0,1,1-.1c.44.11.91.47,1.25-.06s-.32-.76-.58-1.09c-.65-.85-1.32-1.67-2-2.51-.22-.49-.46-1-.64-1.47-1.42-4-4.15-7.83-2.83-12.35s2.29-9.52,5.06-13.68a.37.37,0,0,0,.1-.41h.06l.18,0v-.83h0a3,3,0,0,1,1.25-1.6c1.19.06,2.41,0,2.91-1.27a19.43,19.43,0,0,0,1.23-4.2,107.52,107.52,0,0,0,1.1-14.68c-.39-1,.07-2-.31-3l-.08-.75c-.23-.84.07-1.86-.8-2.5-1.79-2.7-.82-8,1.93-9.69,1.13-.71,1.55-1.39.83-2.57-.25-.41-.47-.8-.18-1.3.44-.78,1,0,1.58-.14.84-.17.14,1.23,1,1.39.11-.4.11-.92.37-1.21.74-.84,4.53-.84,5.4-.1.5.43,0,1.64,1.2,1.52.1,1.14.12,2.39,1.76,1.15-.46-.51-.23-1.5-1.14-1.7a1.65,1.65,0,0,0,.05-.38s0-.09,0-.13c.24-.23.55-.47.5-.57a.74.74,0,0,0-.59-.45v-.05c1.32-.63-.3-1.64.29-2.37,1.06-.36,1.49-.74.17-1.44-.66-.35-1.59-.12-2.1-.91.83-.77,2.19-.37,2.74-1.39-.33-.77-2-.4-1.43-1.26s.42-2.14,1.67-2.45a2.1,2.1,0,0,1,1.67-2.39,1.89,1.89,0,0,0,1.34-.81h0c.36-.75-.41-1.39-.24-2.08.55-.56,1.47,1.16,1.82-.35-.4-1.13.32-1.44,1.19-1.51s1.5,0,1.7-.94h0l1.18-1c-.66-.09-1,.4-1.6.25h0a2.6,2.6,0,0,1,1.88-2.25,1.17,1.17,0,0,0,.57-2c-.35-.48-1.24-.95-.12-1.56.62-.47.35-1,.14-1.57v-1.19l.75-.46c1.82,0,1.44-1.24,1.29-2.35.13-.29.27-.58.41-.86.55-.4.36-.59-.06-1.05C324.36,166.37,323.43,164.62,323.92,163.85Z"/><path class="cls-1" d="M238.72,211.89c1.21-.28,2.5.17,3.67-.63a11,11,0,0,0,4.22-6.21c.28-.89-.09-1.08-.87-1-.46,0-.86,1-1.32.16a1.55,1.55,0,0,1,.37-1.68,11,11,0,0,0,.82-1.6c.62-.43-.06-1.18.4-1.66.05-1.69-.46-2.43-2.09-1.19a1.09,1.09,0,0,0-.68,1c-1.76.75-2.31,2.68-3.66,3.78a3.87,3.87,0,0,0-1.32,3.58c0,.41.06.87.46,1.06s.64-.28.87-.57.38-.65.78-.42c.18.1.39.54.32.63-.82,1.11-.48,2.93-2.13,3.5-.33.12-.67.18-.66.6A.71.71,0,0,0,238.72,211.89Z"/><path class="cls-1" d="M21.31,289.06a1.46,1.46,0,0,0,1.81-.54c.93-1.37,2-2.68,2.09-4.46,0-.42,0-1,.38-1,1.54-.13,1.31-1.26,1.39-2.23a1.54,1.54,0,0,1,1.21-1.44c.34-.34,1.07-.19,1.15-.88.76-.93.09-2.21.84-3.19,1-1.36.3-1.9-1.1-2a2.27,2.27,0,0,0-1.54,1.16h0c-1-.16-1.38.49-1.62,1.27a3.89,3.89,0,0,0-.39.43c0,.75.71,1.71-.6,2.08-.48,1.32-1.09,2.6-.53,4.07.18.46,0,1.13-.57,1.09-3-.25-2.38,2.5-3.23,4A1.22,1.22,0,0,0,21.31,289.06Z"/><path class="cls-1" d="M31.85,342.08c-1.3,1.93.38,2.17,1.54,2.71a4.41,4.41,0,0,1,1.25-1.49c2-1.23,4.62-2.18,3.14-5.45,0-.05,0-.13,0-.19.24-2.15,0-2.43-2.32-2.51-.36.68-1.68-.2-1.66.93s-.7,1.54-1.3,2.1a2.5,2.5,0,0,0-.72,3.35,1.31,1.31,0,0,0,.56.26A.68.68,0,0,0,31.85,342.08Zm1.5.05a3.85,3.85,0,0,1-.69-.28A1.26,1.26,0,0,1,33.35,342.13Z"/><path class="cls-1" d="M123,246a3.05,3.05,0,0,0,3.33-2.54c.07-.9-2-3.08-2.87-2.86-1.15.28-2.48.8-2.36,2.29S120.67,246.26,123,246Z"/><path class="cls-1" d="M315.75,11.89a2.18,2.18,0,0,0,2.19-2.36c0-.26,0-.53,0-.8-.19-.27.05-.79-.5-.86-.76-.54-1.24-1.72-2.5-1.16a2.44,2.44,0,0,0-1.52,2.93C313.67,10.82,314.15,12,315.75,11.89Z"/><path class="cls-1" d="M24.4,308.78c-.57.81-1.61.28-2,1.15-.25.63-.32,1.14.4,1.51s.12.59-.1.88c-.4.53-.75,1.1-1.17,1.62-.3.36-.42.72-.07,1.06s1,.62,1.25.22c.88-1.51,2.76-2.23,3.07-4.24C26,309.55,24.74,309.67,24.4,308.78Z"/><path class="cls-1" d="M62.21,299.32h0l0,0Z"/><path class="cls-1" d="M273.86,94.71a2,2,0,0,0,1.51-2.32,1.57,1.57,0,0,1,.75-1.7c.34-.22.66-.54.37-1s-.65-.4-1.07-.3c-2.34,0-3,.9-2.61,3.39C272.93,93.59,272.61,94.88,273.86,94.71Z"/><path class="cls-1" d="M116.59,248.54c.36.18.73.34,1.08.54.78.45,2.64-.44,2.72-1.3-.16-1.73-1.71-1.5-2.76-1.89a2,2,0,0,0-2.43,1.26C114.83,248,115.94,248.23,116.59,248.54Z"/><path class="cls-1" d="M15.17,318.81a2.48,2.48,0,0,1-1.74,0c-1.77.16-2.18,1.19-1.73,2.74a.76.76,0,0,1-.27.88c0,1.36.77,1.26,1.68.83.54-1,.41-2.48,2.17-2.66A1,1,0,0,0,15.17,318.81Z"/><path class="cls-1" d="M31.65,301.71c.73,0,1.75-.32,1.8-1.39-.48-.95.18-2.51-1.45-2.58-1.34-.05-1.6,1.18-1.7,2.11S30.6,301.75,31.65,301.71Z"/><path class="cls-1" d="M20.81,358.22c.28,1.28,1.36,1.78,1.88.69s2-1.72,2.23-3.14C22.72,355.21,22.13,357.31,20.81,358.22Z"/><path class="cls-1" d="M28.61,354.56c.09-1.81-1.44-1.59-2.48-2-.82.95-.29,1.7.37,2.43.3.5.67.76,1.23.36Z"/><path class="cls-1" d="M270.63,110.6c.71,0,1-.59,1-1.28-.15-.63-.48-1.14-1.18-1.17s-.94.59-.93,1.25A1.09,1.09,0,0,0,270.63,110.6Z"/><path class="cls-1" d="M15.7,313.55c-.75-.45-.63.36-.8.71-.56,1.11-1.21,2.2-.91,3.54,0,.31.09.36.33.16l.49-.38a1,1,0,0,0,.26-.84,2.15,2.15,0,0,1,.7-2A.78.78,0,0,0,15.7,313.55Z"/><path class="cls-1" d="M210.1,227.67c-.11,0-.19-.17-.29-.25-.75-.08-1.5.15-1.45.94s.93.55,1.49.66c.5-.24,1.37.54,1.52-.36C211.48,228,210.74,227.74,210.1,227.67Z"/><path class="cls-1" d="M15.5,310.67a.75.75,0,0,0-.87.83c0,.73.33,1.14,1.07,1.09.44,0,1,0,1.1-.67C16.44,311.44,16.35,310.69,15.5,310.67Z"/><path class="cls-1" d="M262.57,196a1.7,1.7,0,0,0-.59-2.53c-.14,1-.91,1.82-.19,2.73C262.09,196.54,262.41,196.22,262.57,196Z"/><path class="cls-1" d="M27.17,307.28c-.16-.38-.24-1-.88-.71-.45.19-1.24,0-1.3.66s.79.49,1.2.71S27.05,307.89,27.17,307.28Z"/><path class="cls-1" d="M11.41,325.27c-.81-2.57-1.57-.06-2.35,0C9.85,326.3,10.62,325.15,11.41,325.27Z"/><path class="cls-1" d="M69.23,278.4c.57-.41.51-.88.23-1.41-1.1-.48-1.69-.26-1.45,1.08C68.39,278.28,68.66,278.8,69.23,278.4Z"/><path class="cls-1" d="M21.57,308.48c0-.28-.47-.23-.63,0-.67.79,0,1.56-.08,2.68C22.06,310.15,21.68,309.27,21.57,308.48Z"/><path class="cls-1" d="M17.82,318.87c-1.4-.19-1,.78-1,1.52C17.77,320.29,17.85,319.61,17.82,318.87Z"/><path class="cls-1" d="M24.08,316.37a1,1,0,0,0,.4,1.23c.48-.09,1-.24.77-.86S24.53,316.34,24.08,316.37Z"/><path class="cls-1" d="M9.87,322.08A.94.94,0,0,0,11,322a1.71,1.71,0,0,0-1.4-1.86c-.49.74.42,1.25.2,1.89-.45-.14-.92-.23-1.17.31a.81.81,0,0,0,.36,1C10.16,323.46,9.86,322.67,9.87,322.08Z"/><path class="cls-1" d="M25.29,319.51c-.7.43-1.27.89-.39,1.69C25.57,320.76,26.35,320.35,25.29,319.51Z"/><path class="cls-1" d="M14,313.87c.25,0,.55-.05.57-.41a.78.78,0,0,0-.62-.67c-.29-.07-.5.09-.51.42S13.63,313.86,14,313.87Z"/><path class="cls-1" d="M20.07,320.45a.46.46,0,0,0,.48-.51c-.05-.38-.35-.53-.72-.53s-.65.25-.56.67S19.75,320.46,20.07,320.45Z"/><path class="cls-1" d="M147.2,313.24c-.2-.09-.48-.5-.43-.61.93-1.89-.31-3.26-1-4.8-.27-.61.4-1.22.68-1.82.53-1.13,1.3-2.32,0-3.46-1.73-.51-3.57-.32-5.3-.82a4.37,4.37,0,0,1-1.83-2.12c-.42-1.21-2.21-1.85-3.16-1.93a19.12,19.12,0,0,0-3.53-.42,3.48,3.48,0,0,0-3.45.12,17.11,17.11,0,0,0-2.71,1.74c-1,.76-1.84.76-2.3-.64-.2-.6-.29-1.4-1.28-1.19-1.36,1.25-.54,2.41.33,3.33,1,1.11.86,2.1.31,3.31-.91,2-2.49,2.53-4.47,2.43-2.16-.11-4.31-.29-6.33.86-1,.59-1.8-.08-2-1-.34-2-1.28-3.4-3.39-3.62-1.85-.2-3.59,1.09-4.46,3.16-.12.27-.23.57-.5.53-2.21-.32-1.65.74-1.07,2a1.65,1.65,0,0,1-.29,1.72c-1,1.23-2,2.54-3.54,2.92-2.17.54-3.65,1.94-5.19,3.35h0c-1.9.6-3.78,1.32-5.72,1.76a5.19,5.19,0,0,0-3.37,2.73c2-1.06,4.38-.7,6.23-2.16a5.16,5.16,0,0,1,2.33-.45c.83-.11,1,.39,1,1.11-.87.59.09,1.34-.16,2-.36.29-.79.64-.37,1.08a1.32,1.32,0,0,0,1.75.17c.81.29-.2,1.55,1,1.71.39.05.2.5,0,.57-2.58.88-2.5,3.59-3.75,5.39,1.09.51,1.66,1.27,1.21,2.51.47.5.12,2.05,1.82.94.79-.52,2.38,1,3.79.47a.86.86,0,0,1-.34,1.05c-2.3,2.26-2.28,2.47.43,3.47.25.1.48.25.72.37h0c1.07.94,1.93-.27,2.91-.29l1.1.14c.18,1,.22,2.17,1.73,2.11a.38.38,0,0,0,.41-.13c.91-1.19.24-1.91-.54-2.91-1-1.29,1.85-1.28,1.23-2.68-.55-1.24-.18-2.43,1-2.5,1.57-.09.44-1.91,2-2.18,2.36-.41,4.5-3.24,4.15-4.94A2.08,2.08,0,0,1,114.3,323c2.12-.81,4.25-1.52,6.3-2.53,2.68-1.33,5.09,1.36,7.8.88,0,0,.11.53.28.69,1.55,1.46,1.81,3.69,3.16,5.27a1.22,1.22,0,0,0,.7,1.29c.24.62.65,1.4,1.25,1.31.83-.13.31-1.1.53-1.67a7.51,7.51,0,0,0,.25-.93c.2-.39.39-.79.59-1.18.35-.37.24-.83.25-1.26a16.52,16.52,0,0,1,3.12-4.19c2.42-2.31,5.37-3.72,8.29-5.2C148,314.91,150,314.5,147.2,313.24ZM98.36,338.36a.85.85,0,0,1,.45.55A5.7,5.7,0,0,0,98.36,338.36Z"/><path class="cls-1" d="M157.44,295.21c-.43-.91-1.12-1.82-2.09-1a24.47,24.47,0,0,1-2.77,1.54c-.88,1.86-2.65,3.07-3.56,4.89a3,3,0,0,0,.2,3.53c.8.89,1.83.58,2.71-.17a1.35,1.35,0,0,1,.74-.26c1.78-.2,1.9-1.34,1.35-2.63a1.84,1.84,0,0,1,.25-2.22,2.24,2.24,0,0,1,1.22-1.7A3.92,3.92,0,0,0,157.44,295.21Z"/><path class="cls-1" d="M36,394.2c-.65,0-3.39,2.29-3.38,2.81,0,2.53,1.52,4.26,3.61,4.25a4,4,0,0,0,3.66-3.41C39.89,396.94,37,394.18,36,394.2Z"/><path class="cls-1" d="M51.29,386c-.64-.27-.84.36-1,.71-1,1.76-3.13,2.87-2.76,5.42.14,1-.74,1.82-1.72,2.3a2.82,2.82,0,0,0-1.56,2.74c.27.52-.24,1.86,1.1,1.53,1-.24,3,.36,2.38-2a2.12,2.12,0,0,1,1-2.63c2.92-1.44,2.29-4.43,3.14-6.77A1,1,0,0,0,51.29,386Z"/><path class="cls-1" d="M91.71,303.87c-.28-.41-.86-.78-1.37-.23s-1.1,1-.8,1.72a14,14,0,0,1,.5,1.9c.2.8.61.92,1.16.07s2.68,0,2.7-1.91l.73.2c.6,0,1.67-.06,1.6-.87s-1.16-.12-1.57-.31C93.69,304,92.52,305,91.71,303.87Z"/><path class="cls-1" d="M82.48,330.87c-.87-.44-2.2-.42-2.39-1.55a6.89,6.89,0,0,0,0-.79c.6-.54,1.89.19,2.06-1.12-2.77-1.59-2.76-1.59-1.86-4.85a.76.76,0,0,0-.2-.9c-.68-.15-1.32.59-2,.06a3.9,3.9,0,0,0-3.5-1c-1.84.49-2.4.07-2.67-2a1.09,1.09,0,0,1,.23-.33l1.91-.1h0l.41-.05h0c.49,0,.6-.39.74-.75l1.3-.37a3.42,3.42,0,0,0,1.1-1.89.88.88,0,0,0,.47-.6,10.58,10.58,0,0,0-.29-3.63c-2.09-2.66-3.41-2.84-6-.85a7.93,7.93,0,0,1-.86.48c-.91.1-2,.84-2.71.23-2-1.58-5-1.88-5.7-5-.15-.69-.81-1-1.38-1.4-.39-.31-.28-.78-.35-1.19a1,1,0,0,1-.42-.08l.42.08,1.48-1.67a2.38,2.38,0,0,0,0-2.38.81.81,0,0,0-1.16-.12c-1.64,1.86-3,.47-4.44-.36a.59.59,0,0,0-.82-.36c-1.79,1.17-3.93,1.25-5.8,1.92s-1.83,3.88-3.85,5.23c-.3.2.15,1.56-1.16,1.37-1-.14-2-.23-1.53-1.67.13-.41-.07-1-.44-1a8.92,8.92,0,0,0-3.19.74c-.92.51-.34,1.41.12,2.09.3.45.62,1.37,0,1.18-1.67-.49-1.94,1.45-3.18,1.47a7.52,7.52,0,0,0-.41-2.57h0c-.75-.84-1.56-1.2-2.52-.3l-1.31,1.63c-.69.38-1.21.87-1,1.75.12.44.49,1.06-.21,1.1s-.31-.69-.34-1.08a1.4,1.4,0,0,0-.73-1.31c-.3-.13-.41.18-.59.38-.68.78-.7.76-1.45-.07a.61.61,0,0,0-1,.08,2.62,2.62,0,0,0-.79,2.36,2.43,2.43,0,0,1-.74,2.53c-.46.84.14,1.33.63,1.82a7.3,7.3,0,0,1,1.4,1.59,6.26,6.26,0,0,0-1.6,6.34,6.52,6.52,0,0,0,2.1,3.3c2.08,1.58,2,1.79.2,3.85-.43.5-.54,1.2-1.12,1.64a.77.77,0,0,0-.1,1.09,1.13,1.13,0,0,0,1.18.59,1.93,1.93,0,0,0,1.65-1c.6-1.45,2.08-2.17,2.8-3.57.51-1,4.78-1.22,5.6-.44.34.33.64.93,0,1.12-2.24.62-1.81,2.07-1.26,3.61,3.15,1.29,6.93-1.75,6.63-5.32-.2-2.28-1.65-3.39-3.87-2.95-.36.07-.69.33-1.12.22,2-1,2.68-2.1,1.87-3.36a9.15,9.15,0,0,1-1-2.7l.18-.11c2.68-1.4,4.62-.7,4.33,1.79-.34,2.81.14,5,2.36,6.84a1.77,1.77,0,0,1,.34.5c.83,1.5.58,2.38-1,3a9.11,9.11,0,0,0-2.5,1.67,1.39,1.39,0,0,0-.34,2.12,1.45,1.45,0,0,0,2.14.33,4.49,4.49,0,0,1,2.38-1.1c-.81.82-1.84,1.44-1.95,2.71a.94.94,0,0,0,.14.67L45.3,340h0l-.91,1.17-.74.55c-.67.47-1.37.92-1,1.93h0l-.25.35a.42.42,0,0,0-.14-.09,1.4,1.4,0,0,0-1.42,1.3c-1.07.24-1.31,1-1.14,2a.53.53,0,0,0-.63.41.28.28,0,0,0-.07-.11,5.16,5.16,0,0,0-2.75-.25l.09-.09a2.59,2.59,0,0,0,.67-2.4c-.25-1.08-.82-1.32-1.65-.44-.24.73-1.23.35-1.52,1,.2.37.34.74,0,1.09-.11.9.17,1.5,1.18,1.52.85.56.17,1.47.49,2.14a1.48,1.48,0,0,0,.19,2.11c-.07.32-.13.65-.2,1l-.11,0a3.17,3.17,0,0,0-1.16,1.4c-.26,1-1.35,2-.25,3.14.64.23,1.51.17,1.5,1.2,0,1.63,1.5,2.88,1.19,4.6a2.53,2.53,0,0,0-.81,1.08c-.56,1.8-1.18,3.55-3.55,1.7a.9.9,0,0,0-1.12.18c-.42.39-.12.74.18,1a3.16,3.16,0,0,1,1,2.35,2.28,2.28,0,0,0,2.47,2.51c1.37-.53,2.61,0,3.88.43.27.54,0,1.32.69,1.68a2.59,2.59,0,0,0,3.78.3c1.17-1.06.06-2.21-.69-3-1.66-1.67-1.59-3.71-1.27-5.68a14.66,14.66,0,0,1,1.7-3.62c1.08-2.23,1.48-2.4,3.79-1.56,1.93.71,2.17,1.93.63,3.31a1.47,1.47,0,0,1-1.3.4c-.58-.12-.35-.63-.43-1s.34-1.22-.64-1.1c-.53.07-1.21-.23-1.51.62s-.25,1.37.46,1.68A1.6,1.6,0,0,1,45,367.08a1.38,1.38,0,0,0,.62,1.42,2.66,2.66,0,0,1,1,2.89,8.77,8.77,0,0,1-3,5.95c-.82.66-1.64,1.64-1.21,2.44.62,1.18,1.21-.51,2-.46a4.46,4.46,0,0,0,.8-.09c1.71-.27,3.48-.38,4.87-1.61a4.46,4.46,0,0,1,3.11-1.92,2.28,2.28,0,0,0,1.69-2.2,1.55,1.55,0,0,0-1.2-1.83c-1.37-.35-.76-.95-.32-1.72.87-1.52,2.2-.4,3.27-.72.66.32.5,1,.67,1.52.38,1.23,1.62,1.49,2.6,1.92.6.27.67-.56.8-1,.85-1.25,2.07-2.33,1.57-4.13-.15-.56.38-1.12.79-1.32,1.39-.67,1.54-1.95,1.67-3.17.34-3.16-.11-6.44,2-9.26,1.8-2.43,2.15-5.64,4.11-8a20,20,0,0,0,3-5c1-2.44,3.55-3.69,5.56-5.32.68-.17,1.43-.58,1.5-1.16a2.72,2.72,0,0,1,1.84-2.15c.32-.16.84-.25.75-.79S82.79,331,82.48,330.87Zm-51.67-7.71c.08-.61.24-1.31-.34-1.68-.86-.55-.61-1.15-.39-1.76a1.5,1.5,0,0,0,1,.51l.07,0c2.16,1.29,1.12,3.72,1.86,5.57C30.72,325.48,30.56,325.29,30.81,323.16Z"/><path class="cls-1" d="M142,294c-.06-.78-.77-1.56-1.38-1.16-1.08.73-3.11-.11-3.31,1.62-.11.93,1.18,1.83,2,2.22S142.05,295.1,142,294Z"/><path class="cls-1" d="M260.66,299.68c0-.56.12-1.17-.35-1.64l-1.68-.84c-.72-.29-1,.06-1,.71a5.27,5.27,0,0,0,.1,1.77c.42.59.23,1.66,1.34,1.72S260.17,300.29,260.66,299.68Z"/><path class="cls-1" d="M263.9,344c-.15.13-.29.34-.45.36-.42.07-1-.61-1.21.33-.08.41-.05.81.42,1,.73.29.81-.48,1.19-.75a2.26,2.26,0,0,0,1.42,1.82c.41.24.47,1.23,1.17.72a1.84,1.84,0,0,0,.65-1.63C267,345.06,264.8,343.79,263.9,344Z"/><path class="cls-1" d="M262.09,317.76c-.25-.67-.62-1.46-1.58-1.32a1.54,1.54,0,0,0-1.31,1.75c.06.91.72,1.13,1.56,1.1S262,318.71,262.09,317.76Z"/><path class="cls-1" d="M109.82,300a1.12,1.12,0,0,0,0,1.74c.32.36.61.62,1,.36.69-.49,2-.57,1.53-2C111.48,299.62,110.7,298.9,109.82,300Z"/><path class="cls-1" d="M255.58,307.85c-1.16.33-1.38,1.56-1.73,2.46-.23.61,1,.33,1.39.95,1-.66.45-1.83.95-2.61C256.37,308.35,256,307.72,255.58,307.85Z"/><path class="cls-1" d="M28.3,392.32c-.22-.2-1,0-.86.41a3.34,3.34,0,0,0,2.06,1.86c.38.13,1,0,1.06-.82C30.37,392.65,29,393,28.3,392.32Z"/><path class="cls-1" d="M108.65,299.22c2,.43,2.37.09,2-2C107.73,297.11,107.73,297.11,108.65,299.22Z"/><path class="cls-1" d="M114.28,298.08a.58.58,0,0,0-.17-.87c-.9-.57-1.45.23-2.11.57l-.53.28c-.4.58-.15.91.44,1.11C113.1,299.69,113.67,298.79,114.28,298.08Z"/><path class="cls-1" d="M99.27,298.47a1.34,1.34,0,0,0-.89.78,2.28,2.28,0,0,0-.73,1.25c0,1,.92.74,1.48.95.31.11.36.87.84.45a.74.74,0,0,0,0-1.09C99,300.2,99.55,299.23,99.27,298.47Z"/><path class="cls-1" d="M18.56,408.31c-.6,0-1.1.32-1,.95a1.61,1.61,0,0,0,1.43,1.2c.56.08,1-.38,1-1A1.32,1.32,0,0,0,18.56,408.31Z"/><path class="cls-1" d="M14.18,413.12a1.24,1.24,0,0,0-1.22,1.1.87.87,0,0,0,.84,1.12c.74,0,.94-.6,1.08-1.21C14.85,413.65,14.77,413.12,14.18,413.12Z"/><path class="cls-1" d="M263.42,323.56c-.07-.65-.61-.83-1.18-.81s-1.16.14-1.08.84.69.92,1.32,1A.91.91,0,0,0,263.42,323.56Z"/><path class="cls-1" d="M20.58,405c-.63-.24-.86.24-.93.69a1.12,1.12,0,0,0,.77,1.32c.89.13.9-.59,1-1C21.74,405.25,21,405.15,20.58,405Z"/><path class="cls-1" d="M252.28,312.6c-.38-.12-.92,0-.92.82,0,.53.23,1,.8.9s1.37-.39,1.45-1.12S253,312.65,252.28,312.6Z"/><path class="cls-1" d="M263.45,362.68c-.47-.1-.83.19-.75.66a1.58,1.58,0,0,0,1.5,1.37c.4,0,.56-.28.52-.76A1.61,1.61,0,0,0,263.45,362.68Z"/><path class="cls-1" d="M94,295.12c-.15.56-1.18,1-.51,1.62s.91-.44,1.41-.64a1.14,1.14,0,0,1,.33-.05c0,.83,1.2,1.56.17,2.48a.3.3,0,0,0,.24.53c1.47-.5,1,.25.64.94-.14.29-.41.68-.07.89s.69-.22,1-.43c.91-.22.65-1,.84-1.64-.35-2.65-.74-3.05-2.79-2.81C95.3,295.06,95.12,294.42,94,295.12Z"/><path class="cls-1" d="M98.84,304.5c-.06.6.48.73.93.83.72.15.89-.39,1-.91s-.24-.83-.7-.63S98.93,303.79,98.84,304.5Z"/><path class="cls-1" d="M255.9,304.14c-.54,0-.88.19-1,.88a1.18,1.18,0,0,0,.91.79c.67.1.75-.37.83-.84C256.79,304.35,256.44,304.15,255.9,304.14Z"/><path class="cls-1" d="M46.66,388c.05-.47,0-.93-.6-1a.81.81,0,0,0-.85.9c0,.49.15.94.75.94S46.61,388.35,46.66,388Z"/><path class="cls-1" d="M173.76,326.88a.88.88,0,0,0-.67,1,.65.65,0,0,0,.82.63c.47-.09.52-.53.55-.92S174.29,326.86,173.76,326.88Z"/><path class="cls-1" d="M10.71,405.41c-.57,0-.57.47-.7.83a.87.87,0,0,0,.74,1c.52.1.74-.25.76-.7S11.43,405.45,10.71,405.41Z"/><path class="cls-1" d="M94,338.16a.83.83,0,0,0-.72.81.63.63,0,0,0,.76.68.78.78,0,0,0,.71-.81C94.74,338.36,94.51,338.09,94,338.16Z"/><path class="cls-1" d="M23.09,382.17c.06.52.45.59.87.49s.8-.13.88-.71a1.45,1.45,0,0,0-1.13-.59C23.2,381.39,23.05,381.75,23.09,382.17Z"/><path class="cls-1" d="M33.1,384.7a.84.84,0,0,0-.77-.77c-.37-.06-.62.21-.61.6s.39.64.83.75S33.13,385.1,33.1,384.7Z"/><path class="cls-1" d="M36.8,384.59a.77.77,0,0,0-.79-.74c-.36,0-.69.07-.72.49a.7.7,0,0,0,.68.81C36.38,385.2,36.83,385.14,36.8,384.59Z"/><path class="cls-1" d="M406,62.79c-.46-.49-1.1-.41-1.64-.63s-1-1.3-1.37-.5c-.4,1-1.62,1.52-1.38,2.77.08.43.37.87.79.67,1.15-.56,2.48,0,3.6-.76.28-.18.61-.2.6-.61S406.29,63.07,406,62.79Z"/><path class="cls-1" d="M408.52,60.31a.62.62,0,0,0-.77.68c0,.68.46.9,1,.92s.89-.25.88-.69C409.63,60.56,409.07,60.38,408.52,60.31Z"/><path class="cls-1" d="M410.77,62.62a.77.77,0,0,0-.87.83c0,.48.36.69.77.71a.68.68,0,0,0,.76-.71C411.43,63,411.23,62.66,410.77,62.62Z"/><path class="cls-1" d="M41.46,339a1.57,1.57,0,0,0,2.18-1.45c.13-1.27-1.27-1.54-2.18-1.52s-2.34.21-2.36,1.68S40.26,339.08,41.46,339Z"/><path class="cls-1" d="M126.47,296.51c0-.33-.34-.93-.57-.95-.61-.05-.83.55-1,1s.13.6.56.63S126.46,297.06,126.47,296.51Z"/><path class="cls-1" d="M122.68,296.09c.14,0,.4-.21.39-.3-.08-.63-.59-.57-1-.6h0C122,295.7,122,296.17,122.68,296.09Z"/></g></g></g></svg>