<svg xmlns="http://www.w3.org/2000/svg" xmlns:xlink="http://www.w3.org/1999/xlink" width="231.58" height="224.36" viewBox="0 0 231.58 224.36">
  <defs>
    <style>
      .cls-1 {
        fill: none;
      }

      .cls-2 {
        isolation: isolate;
      }

      .cls-3 {
        fill: #08626b;
      }

      .cls-4 {
        clip-path: url(#clip-path);
      }

      .cls-5 {
        fill: #fff;
      }

      .cls-6 {
        fill: #279c89;
      }

      .cls-16, .cls-7 {
        fill: #292969;
      }

      .cls-8 {
        fill: #e6e5ce;
      }

      .cls-9 {
        clip-path: url(#clip-path-2);
      }

      .cls-10 {
        fill: #f2a901;
      }

      .cls-11 {
        fill: #cc8258;
      }

      .cls-12, .cls-13, .cls-15, .cls-16, .cls-17 {
        mix-blend-mode: multiply;
      }

      .cls-12 {
        fill: url(#New_Gradient_Swatch_2);
      }

      .cls-13, .cls-15 {
        fill: #cbc7ff;
      }

      .cls-13 {
        opacity: 0.58;
      }

      .cls-14 {
        fill: #aa603f;
      }

      .cls-15, .cls-21 {
        opacity: 0.7;
      }

      .cls-17 {
        fill: #ccc;
      }

      .cls-18 {
        fill: #f5cfbf;
      }

      .cls-19 {
        fill: #c15823;
      }

      .cls-20 {
        fill: #ba4505;
      }

      .cls-21 {
        fill: #d8b009;
      }
    </style>
    <clipPath id="clip-path" transform="translate(-0.02 -9.07)">
      <path class="cls-1" d="M159.16,51.18c4.37,5.45,9.89,10.09,13.61,15.91a80.54,80.54,0,0,1,9.8,20.74c4.94,17.16,6.63,34.85,2,52.32-4.34,16.38-11.83,31.6-24.59,43.07a117.44,117.44,0,0,1-26.16,17.7c-10.77,5.37-21.94,9.09-33.94,9.09-9.56,0-19.54.26-28.59-2.26-10-2.79-20.24-5.92-29.08-12.42C32,187.83,22.24,180,15.82,169c-4.54-7.71-7.42-16.39-11-24.67C1.08,135.59-.81,126.48.59,116.69c-2.27-12.74,2.4-24.55,7-36,3.23-7.94,9.93-14.41,13.77-22.18V0H159.53Z"/>
    </clipPath>
    <clipPath id="clip-path-2" transform="translate(-0.02 -9.07)">
      <rect class="cls-1" x="-1.55" y="64.17" width="186.84" height="105.09" transform="translate(208.58 24.85) rotate(90)"/>
    </clipPath>
    <linearGradient id="New_Gradient_Swatch_2" data-name="New Gradient Swatch 2" x1="97.58" y1="83.95" x2="95.05" y2="112.42" gradientUnits="userSpaceOnUse">
      <stop offset="0" stop-color="#f0c3a8"/>
      <stop offset="1" stop-color="#fff"/>
    </linearGradient>
  </defs>
  <title>icon2</title>
  <g class="cls-2">
    <g id="Слой_2" data-name="Слой 2">
      <g id="Layer_1" data-name="Layer 1">
        <path class="cls-3" d="M179.74,154.56c-.47.11-1.07,0-1.18.82a2,2,0,0,1-1.42-.36c0-1.93,1.75-1.65,2.78-.9a114.42,114.42,0,0,0,4.66-14,81.86,81.86,0,0,0,2.63-18c-.9.32-.58,1.86-1.54,2.11.3-.71.26-1.75.53-2.49.58-.13.74.15,1,.32a109.41,109.41,0,0,0-4.65-34.28,80.54,80.54,0,0,0-9.8-20.74c-3.72-5.82-9.24-10.46-13.61-15.91-4.57-5.71-9.69-10.21-16.68-13-5.63-2.25-10.27-7.26-16-8.94-8.9-2.63-18.31-3.56-27.53-5.07-1.61-.27-3.23-.46-4.85-.58a.23.23,0,0,1-.35.11v-.14a66.46,66.46,0,0,0-20.25,1.78c0,.72-.66.74-.55,1.55a.82.82,0,0,1-.88-1.2q-1.57.41-3.12.87A125.45,125.45,0,0,0,43.39,38.12c-8.76,5-17.14,10.6-22,20.43C17.56,66.32,10.86,72.79,7.63,80.73L6,84.76a1,1,0,0,1,.32.24c-.09.53-.52.72-.82,1C2.38,94.11-.23,102.41,0,111.13a.75.75,0,0,1,.08.35l-.07,0c0,.69.08,1.39.15,2.09.14,0,.29,0,.45,0a2.46,2.46,0,0,1-.37.87c.09.74.19,1.47.32,2.21-1.4,9.79.49,18.9,4.26,27.68,3.55,8.28,6.43,17,11,24.67C22.24,180,32,187.83,42.22,195.33a61.82,61.82,0,0,0,14.13,7.61c-.23-.63-.1-1.29.81-1.35a5.29,5.29,0,0,0,.21,1.74c4.58,1.75,9.28,3.12,13.93,4.42,9,2.52,19,2.27,28.59,2.26,12,0,23.17-3.72,33.94-9.09A117.44,117.44,0,0,0,160,183.22,78.59,78.59,0,0,0,179.74,154.56Zm-2.07-23.71Zm.36,13.51c.1-.57-.34-.55,0-.89C178.85,143.3,179,144.58,178,144.36Zm5.69-2.84a3.29,3.29,0,0,1-2.14.71C181.68,141.43,183,141.14,183.72,141.52Zm-.89-6.4c0,.5-.44.51-.89.53C181.86,135.1,182.32,135.08,182.83,135.12Zm-.71-32.35h.35v.36h-.35Zm.17,30.22a.77.77,0,0,0-.71.35C180.23,133.06,182.2,131.71,182.29,133Zm-1.6-50.12c-.84,1.13-1.07-1.15,0,0Zm-.53,54.74a1.34,1.34,0,0,0-.35,1.24C178.75,138.86,179.39,136.88,180.16,137.61Zm-.35,11.73c0,.44-.4.43-.54.71a.67.67,0,0,1-.71-.71C178.84,149,179.55,148.83,179.81,149.34Zm-.72-45.68c-.46,0-.76-.06-.71-.53C178.85,103.08,179.27,103.07,179.09,103.66Zm-1.6-5.51h.89C178.56,98.87,177.32,98.87,177.49,98.15ZM4.37,109.88q.59,0,.54.54Q4.22,110.57,4.37,109.88ZM.82,116.1c.49-.34.3-1.36,1.24-1.24.72.72.14,1,1.07.71C2.5,116.33,1.79,116.15.82,116.1Zm3,.54c-1-.55,0-.9.71-.89C4.87,115.91,3.71,116.07,3.84,116.64Zm.71-3.2c.57-.16.37.46.71.53C5.24,114.26,4.51,113.8,4.55,113.44Zm.71-6.58c-.48-.54.54.49,0,0ZM163.1,174.57c-.39,0-.38-.44-.36-.88a1.15,1.15,0,0,1,.89.17C163.58,174.23,163.15,174.21,163.1,174.57Zm1.78-6.39c-3.34,1.07-1.92-5.56.53-2.67-.11.84-.93,1-1.07,1.78C164.21,167.9,165.06,167.51,164.88,168.18Zm.53-20.09c-.49.13-.36-.35-.71-.35C164.81,147.31,165.6,147.64,165.41,148.09Zm1.42-1.06h-.35v-.36h.35Zm.18-13.87c-.39,0-.57-.14-.53-.53H167Zm4.44,13.69c-.21,0-.15-.32-.18-.53C171.86,146.19,171.56,146.68,171.45,146.85Zm2.67,6.93c-2.31-.08-1.23-4.39.53-2.49A1.51,1.51,0,0,0,174.12,153.78Zm2.31-12.09c.44-.69.26.59,0,0Zm0-49.76v.53h-.54C175.86,92.08,176,91.9,176.43,91.93Zm-.36,9.6c.07.66-.44.74-.89.89a1,1,0,0,1-.17-.71A1.48,1.48,0,0,1,176.07,101.53Zm-1.24,25.41c-.33.57-1.09.69-1.25,1.43C172.38,127.93,173.64,126.12,174.83,126.94Zm-2.31,17.24c.21-.54.94.2,0,0Zm-.18,20.8H172c0-.15-.06-.17-.17-.18C171.74,164.46,172.62,164.54,172.34,165Zm-.71-73.23v.36C170.76,92.29,171.3,91.16,171.63,91.75Zm0,21c-.24.68-1.49.77-.89,1.77C168.27,114.39,170.36,110.94,171.63,112.73Zm-2.31,18.48c.92-.71.69.93,0,0Zm-.53,41.23c-.64,0-.93-.25-.89-.89.55-.49,1.08.1,1.42.36C169,172.43,168.4,171.48,168.79,172.44Zm.17-25.23c-.76-.07-.68.44-.53.88C166.76,147.89,168.67,145.39,169,147.21Zm-1.24-37.15c.36-.06.55,0,.53.36h-.53Zm-.36,53.32c.6-.43-.43.59,0,0Zm-1.42-67a1.51,1.51,0,0,1,1.07.17c-.13.47-.58.61-.71,1.07C165.62,97.76,166.07,96.78,165.94,96.38Zm-.71,26.3c.08.55-.45.63-.71.35C164.56,122.72,164.83,122.63,165.23,122.68Zm2.13,3.38c-1.63,0-1.64,1.23-1.77,2.31-.64.1-.86-.21-1.25-.36C163.89,125.63,166.39,124,167.36,126.06Zm-2.13,26.3c-.18.24-.48.35-.53.71C163.78,152.76,164.44,151.73,165.23,152.36Zm-1.24-.53Zm-.18,11.9c.32,0,.37.22.71.18C164.49,164.43,163.68,164.34,163.81,163.73Zm-.36-27.54h-.35v-.54c.29-.05.3.17.53.18C163.6,136,163.45,136,163.45,136.19Zm-.53-48.88h.36v.36h-.36Zm0,63.09a.51.51,0,0,1,.36.54C162.78,151,162.67,150.66,162.92,150.4Zm-.18,9.42h.54v.54C162.81,160.46,162.64,160.29,162.74,159.82ZM161,155.74c.91-.91-.39,1.23,0,.17C161,155.88,160.94,155.76,161,155.74Zm-.17-73.58h-.71A.38.38,0,1,1,160.79,82.16Zm-.36,89.39c-.55,0-.63-.94-.35-1.24a.82.82,0,0,0,.53.18C160.4,170.7,160.41,171.12,160.43,171.55Zm-.35-21.86c-.07-.34.81-.26.53.18h-.36C160.29,149.72,160.18,149.7,160.08,149.69Zm.35,16.18c.3-.63.56.58,0,0Zm.18-30c-.21.63-.78.88-1.25,1.25a1.13,1.13,0,0,1,.18-1.43C160,135.65,160.07,136,160.61,135.83ZM159,112.9c.3-.63.55.58,0,0Zm-.18,63.1c.32,0,.38.21.71.17.09.56-.15.8-.71.71A.65.65,0,0,1,158.83,176ZM157.05,61.54c-1.19.16.1-1.14,0,0Zm-2.66,39.63c.14,0,.18.18.35.18,0,.15-.17.18-.17.36-.15,0-.18-.18-.36-.18C154.24,101.38,154.39,101.35,154.39,101.17ZM153,119c-.54.65-.6-.54,0,0Zm-.54,2.31c-.24-.06-.14-.45-.17-.71h.53C152.92,121,152.43,120.9,152.43,121.26Zm-.17-58.12c-.47,0-.77-.06-.72-.53C152,62.56,152.43,62.55,152.26,63.14Zm0,3.73c-.12.42-.24.83-.72.89a1,1,0,0,1-.17-.71A1.17,1.17,0,0,1,152.26,66.87Zm-.54,9.42c-1.54-.71.5-1.69,0,0Zm-1.24,58.83c.45.21,1.6,1.5.53,1.6C151.19,135.83,150.27,136,150.48,135.12Zm.53-28.44c0-.53.74.17,0,0Zm.36-22.92c-.47,0-.77-.07-.71-.54C151.12,83.17,151.42,83.29,151.37,83.76Zm-1.6,50.65c-1.06.46-.86-1.17-.36-1.78a1.36,1.36,0,0,1,1.25.36C150.14,133.13,149.19,133.76,149.77,134.41Zm.71-5.87c-.08-.07.11.12,0,0Zm-.71-56c.77-.12.48.82.53,1.42C149.3,74.17,149.22,72.94,149.77,72.56Zm0,49.76c-.05.42-.48.41-.71.18C149.11,122.26,149.5,122.35,149.77,122.32Zm-1.42-67a.82.82,0,0,0,.53.18c0,.78-.55,1.11-.36,2.13C147.74,57.38,147.53,55.68,148.35,55.32ZM148,60.65c.61-.14.75.2,1.07.36-.61.11-.34,1.09-1.07,1.06A1.39,1.39,0,0,1,148,60.65Zm.36,45c-.16.48-.5-.31-.36-.71.37-.08.47.12.71.17C148.73,105.32,147.8,105.44,148.35,105.62Zm.53,14.39v.54c-.39,0-.57-.15-.53-.54Zm-1.25-51.89a1.13,1.13,0,0,1,.89.17c-.28.25-.22.85-.89.72Zm-1.95,69.49c.29-.05.3.17.53.18,0,.3-.3.46,0,.53C146,138.84,145.5,138.11,145.68,137.61Zm-1.07-11.55c.17.19.66,0,.54.53C144.68,126.7,144.51,126.52,144.61,126.06ZM146,154.14c0,.52-1.85.14-1.06.88-.63.64-1.15-.85-.54-1.06C145.39,153.89,145.18,154.46,146,154.14Zm-1.06,8.7v-.35h.35v.35Zm.18,7.47c-.49-.54.54.48,0,0Zm0-13.86v-.36h.35v.36Zm-.72,9.77Zm-3.73-32.7c0,.48-.4.85-.71.53C139.94,133.58,140.24,133.47,140.7,133.52ZM140,154c-.39,0-.38-.45-.35-.89h.71C140.48,153.62,139.86,153.41,140,154Zm.18.18Zm-.36-31.28c0,.5-.6.34-.35,1.06C137.75,124,138.58,121.61,139.81,122.86Zm-1.06,17.24c.54-.66.6.54,0,0Zm-.89,7.46c.28,0,.68-.08.71.18C138.76,148.36,137.48,148.21,137.86,147.56Zm.89-50.83c-.08-.07.11.12,0,0ZM138,63.32c.31,0,.37.22.71.18a1,1,0,0,1-.89.88C137.73,63.84,138,63.74,138,63.32ZM137.86,72c.41,0,.41.47.18.71C137.62,72.69,137.63,72.26,137.86,72Zm-.53,48c.5-.14.46.25.88.18.07.66-.72.47-.53,1.24C136.92,121.61,137.08,120.31,137.33,120Zm-.89,27.55c.07.37-.13.47-.18.71C135.89,148.09,135.77,147.48,136.44,147.56Zm-1.07-50.65c.3-.63.56.58,0,0ZM132.53,163l-.3-.15Zm-.71-29c.28-.05.3.17.53.18C132.42,134.58,131.54,134.49,131.82,134.05Zm-.18,18.31c-1,0-1-1.2-.54-1.78.54,0,.7.38,1.07.54C131.35,151.27,131.94,151.91,131.64,152.36ZM132,48.57c-.14.44-.93.25-1.24.53.14.62-.27.68-.18,1.24-1.15-.16-.6-1.16-.89-2C130.21,48.08,131.69,48.09,132,48.57Zm-4.62,48.16c.6-.43-.43.6,0,0ZM127.19,80c.3-.62.56.58,0,0Zm-.35,41.59c.5,0,.48.58.89.71-.12.18-.41.19-.36.54C126.71,122.93,126.46,122.05,126.84,121.61Zm-.53-24.52c.9-.91-.4,1.24,0,.17C126.32,97.23,126.28,97.11,126.31,97.09Zm-.54-21.15c-.38.5-.62,1.15-1.42,1.24C124,76,125,75.45,125.77,75.94Zm-.18,15.81c-.28-.25-.56-1,.18-.88C125.92,91.37,125.52,91.33,125.59,91.75Zm-.53-28.25c.08.55-.15.79-.71.71C124,63.53,124.38,63.13,125.06,63.5Zm-1.24,100.41c0-.53.74.17,0,0Zm0-66.82c0,.69-.44,1-.71,1.42C122,98.37,122.85,96.19,123.82,97.09Zm.17,46.74c-.11.74-.61.43-1.24.35-.59.11-.25.67-.18,1.07C120.48,144.61,122.25,142.76,124,143.83Zm-.35,20.61c.12.12-.08-.07,0,0Zm-.53,3.91c-.08-.07.11.12,0,0Zm-.36,9.07c0,.31-.31.4-.71.35C122.08,177.46,122.35,177.37,122.75,177.42Zm-.89-10.31c.39,0,.57.15.53.53C122,167.68,121.83,167.5,121.86,167.11ZM121,34h-.35c0-.15-.07-.16-.18-.17C120.37,33.47,121.25,33.56,121,34Zm-.17,23.46c-.72.2-.88-.54-.54-.88C120.89,56.64,121,56.94,120.8,57.45Zm-.72-29.68c.29-.05.31.17.54.18C120.69,28.3,119.81,28.21,120.08,27.77Zm0,2.31c-.47.76-1.89,1.18-1.77,2-.32,0-.38-.22-.71-.18A1.57,1.57,0,0,1,120.08,30.08Zm-.71,83.18v.35H119v-.35Zm-1.24,26.48c-1.17-.2-.2-2.11.71-1.24C118.67,139,117.87,138.83,118.13,139.74Zm-2.67-45.68c-1.94-.32-.27-3.11,1.07-1.6C116.1,93,114.88,93.08,115.46,94.06Zm1.07,53.86c.34-.34.45,0,.89,0C117.59,148.63,116.36,148.63,116.53,147.92Zm.89-11.56c0-.41.47-.4.71-.17C118.08,136.6,117.65,136.59,117.42,136.36Zm.35-20.08Zm0,18.48a.48.48,0,0,1-.53.36C117.16,134.74,117.49,134.78,117.77,134.76Zm-.71-70.55a.48.48,0,0,1-.89,0C116.22,63.79,117,64.1,117.06,64.21Zm-1.6,13.33a1.17,1.17,0,0,1,.89.17c.15.42-.62.77-.18.89C115.55,79.36,114.9,78,115.46,77.54Zm-1.24,3.55c.34-.35.84-.09,1.24,0a.84.84,0,0,1-1.24.53Zm-1.42,69.49c.26-.59.44.7,0,0Zm0-13.5Zm-.18-34.31c-.47-.06-.64-.42-.53-1.06a1.49,1.49,0,0,1,1.06.17C113.18,102.39,112.62,102.3,112.62,102.77Zm.18,63.1c-.24-.07-.28-.32-.54-.36C112.34,165.07,113,165.5,112.8,165.87Zm1.6.17c-.21,1.24-1.23-.09-2,.89C112.56,166.1,113.55,166.15,114.4,166Zm-1.07-20.43c0-.54.74.17,0,0Zm-.53-85.67c.5-.15.46.25.89.18C113.82,60.92,112.5,60.79,112.8,59.94Zm-.71,33.77c.9-.91-.4,1.24,0,.18C112.1,93.85,112.06,93.73,112.09,93.71Zm-.71-51.9c0-.53.73.17,0,0Zm-3.2,66.83c-1.06,0-.54-.61-.72-1.6a3,3,0,0,1,1.25-.18C108.48,107.4,108,107.67,108.18,108.64Zm0,52.07c0-.53.73.17,0,0Zm-.89-3.73c.28,0,.3.17.53.18C107.89,157.5,107,157.42,107.29,157Zm-.36-2.13c.06-.22.47-.15.53,0C107.63,155.23,106.81,155.26,106.93,154.85Zm.71-67.72c-.46,0,.25-.3,0-.71h.71C108.34,86.88,107.66,86.68,107.64,87.13Zm.54-39.81a2.31,2.31,0,0,1-1.6.71C106.34,46.78,108,46.1,108.18,47.32Zm-1.25,58.83c-.23.7-1.12.95-1.07-.18A1.56,1.56,0,0,1,106.93,106.15ZM106,65.45c-.39,0-.56-.14-.53-.53C105.9,64.89,106.07,65.06,106,65.45Zm0,37.5c-.26-.15-.56-.26-.53-.71C106.24,101.75,106.6,102.47,106,103Zm-1.42,5.33c.26-.59.44.7,0,0ZM101.6,37c.37-.07.47.13.71.18C102.28,37.71,101.47,37.62,101.6,37Zm.53,80.51c-.35-.12-.47-.47-.53-.88h.71C102.38,117.06,102,117,102.13,117.52Zm-1.78,25.6c-2.73,0,0-3.17,1.07-1.43C101.2,142.3,100.11,142.05,100.35,143.12Zm.72-17.42v-.36h.35v.36Zm-.54-86.2c-.26-.15-.56-.26-.53-.71C100.47,38.74,100.58,39,100.53,39.5Zm.36,1.07c-.47.12-.69-.44-1.07-.89h.71A.87.87,0,0,0,100.89,40.57Zm-1.07-2.31A9.51,9.51,0,0,1,99.47,40c0,.5.31.75.88.71.05.52-.4.54-.35,1.06C98,42.33,97.73,36.66,99.82,38.26Zm1.25,52.25c-1.1-1.15-3.45-1.37-2.85.89C95.12,90.12,99.85,87.32,101.07,90.51Zm-2.85,6.4V96.2c.37-.08.47.12.71.18C98.78,96.63,98.79,97.06,98.22,96.91Zm.36,45.67c-.42.58-.72-.62,0,0Zm-1.25,2.14c0-.54.74.17,0,0Zm.36,22.57c-.47.05-.77-.07-.71-.54C97.44,166.7,97.74,166.82,97.69,167.29Zm-1.25-75c-.24.26-.84.09-.71-.54C96.2,91.7,96.5,91.82,96.44,92.29Zm-.53,9.06c.3-.63.56.58,0,0ZM95.73,24c.62-.12.64.62.36.89C95.47,25.05,95.45,24.31,95.73,24Zm-.35,4.44c-.24-.06-.28-.31-.54-.35C94.92,27.69,95.53,28.12,95.38,28.48Zm-.54,151.07c0-.53.74.17,0,0Zm-.17-49.76c-.42.57-.72-.63,0,0Zm-.36,36.61c.31,0,.41.3.36.71C94.11,167.19,94,166.66,94.31,166.4Zm0,5.15c-.36.36-.35-.08-.71-.17A.37.37,0,1,1,94.31,171.55ZM93.78,45v.54c-.39,0-.57-.15-.53-.54Zm-.18,6.05h-.35c0-.16-.07-.17-.18-.18C93,50.53,93.88,50.62,93.6,51.06ZM94,96.38a1.17,1.17,0,0,1-.89-.18C93,95.91,94.23,95.84,94,96.38ZM91.47,71c0,.46-.07.76-.53.71a.79.79,0,0,1-.18-.53A1,1,0,0,1,91.47,71Zm-.71,95.44c.28-.05.3.17.53.18C91.36,166.92,90.48,166.84,90.76,166.4Zm0,17.24c.56,0,.76,1,.53,1.24C90.66,184.92,90.41,184,90.76,183.64Zm.18,13.86h-.72c-.07-.37.13-.47.18-.71C90.66,197,91.09,196.93,90.94,197.5Zm-1.07-36.43c0-.45.6,0,.71,0C90.55,161.51,90,161.12,89.87,161.07ZM90.22,82c0-.53.74.17,0,0Zm-4.44,60.6c1-1,3.08-.47,3.2.89-.15.27-.57.26-.89.36-.09.8.36,1.06.53,1.6.67.13.85-.22,1.43-.18-.93.65-.1,1.14.17,2C88.09,147.11,86.47,144.12,85.78,142.58Zm2.84,19.73c-.54.66-.59-.54,0,0Zm-1.06-13.15a.62.62,0,0,1-.54-1.07c.32,0,.38.22.72.18C87.81,148.7,87.41,148.66,87.56,149.16ZM90.05,112a3.08,3.08,0,0,0-.54,2.84C86.87,114.82,87.79,110,90.05,112Zm-3.2-83.71c.21-.54.94.19,0,0Zm-.54,110.36c0-.53.74.17,0,0Zm0-72.69c-.38,0-.56-.14-.53-.53h.53Zm-.89-8.35h.36V58h-.36Zm0,59.54c-.5.66-1.31.76-.88,2C81.84,118.86,83.94,115,85.42,117.17Zm-1.06,34.12c.14,0,.18.18.35.18,0,.14-.17.18-.17.36-.15,0-.18-.18-.36-.18C84.21,151.5,84.36,151.47,84.36,151.29Zm-.54-25.23c0-.32,1-.32.72.17C84.16,126.31,84.07,126.11,83.82,126.06Zm0,24.88c-.25.39-.37.92-1.06.89C82.2,151.13,83.15,150.45,83.82,150.94Zm-.35,1.42c.26-.59.44.69,0,0ZM82.4,149a.62.62,0,0,1-.53-1.06C82.87,147.93,82.72,148.39,82.4,149Zm-.17,11.2c0-.53.73.17,0,0Zm-.54,3.38c-.16-.19-.65-.06-.53-.54C81.62,162.92,81.8,163.09,81.69,163.56Zm1.07-78.74c-.46.11-.64-.07-.53-.53C82.61,84.26,82.79,84.43,82.76,84.82ZM81.34,72.38a.87.87,0,0,1,1.06,0,2.69,2.69,0,0,1-.53.71C81.4,73.15,81.29,72.85,81.34,72.38Zm-.36.71c.64-.1.54.53.54,1.07H80.8C80.67,73.62,81.11,73.64,81,73.09Zm-.71,73.76c0-.53.74.17,0,0Zm-1.6-32.7c-.23.48-.32,1.1-.89,1.24C77.44,114.56,77.85,113.75,78.67,114.15Zm-1.24,44.61c0-.54.73.17,0,0ZM78.49,43.59a1.09,1.09,0,0,1-1.6.53C77.09,43.6,77.74,43.55,78.49,43.59ZM76,73.45c.36-.06.56,0,.54.35H76Zm.54,92.06a.5.5,0,0,1-.54.36C75.92,165.49,76.26,165.53,76.54,165.51Zm-2.31-56.16c-.37.63-.5-.43-.71-.53,0-.42.78-.11.88,0S73.71,109.25,74.23,109.35ZM72.09,80.56h.54c.46.55-.06,1.26,0,2C71.33,82.58,71.71,80.88,72.09,80.56Zm-.71-27.19c.29,0,.31.16.54.17C72,53.89,71.11,53.8,71.38,53.37ZM72.63,36c0,1-.92,1.88-1.78,1.06A1.09,1.09,0,0,1,72.63,36ZM71.21,77.89a.67.67,0,0,1-.72-.71C71.05,77.1,71.29,77.34,71.21,77.89Zm-.54-13.15c-.48-.54.54.49,0,0ZM71,41.46c-.36.29-.23,0-.71,0A.38.38,0,1,1,71,41.46Zm-.54-11.2c-.39.1-.25-.34-.53-.35C70,29.46,70.65,29.9,70.49,30.26ZM69.25,66.7c.36-.07.56,0,.53.35h-.53ZM66.94,54.61c.26.15.69.14.53.71h-.71C66.69,55,66.88,54.85,66.94,54.61Zm-.36,55.81c.3-.63.56.58,0,0Zm.36,12.08c-1.63.2-.84-3.1.53-2C67.53,121.44,66.8,121.53,66.94,122.5ZM65.7,65.81c-.66.62-.87-.68,0,0Zm.88,17.24a1.54,1.54,0,0,1-2,.53C64.7,82.66,66,82.44,66.58,83.05Zm-.88,25.23v.36h-.36v-.36Zm-3.91-78.2c-1.33.68-.5-1.48,0,0ZM56.1,51.77c-.47,0-.77-.07-.71-.54C55.85,51.18,56.15,51.3,56.1,51.77Zm-1.78-6.94c.47,0,.76.07.71.54C54.57,45.42,54.14,45.43,54.32,44.83Zm0,26c-.32,0-.38-.21-.71-.17C53.55,69.54,55,70,54.32,70.78Zm-4.27,7.47c-.56.15-.55-.28-.88-.36C49.31,77.48,50.27,77.72,50.05,78.25ZM47.57,56c.16,1.39-2.26.44-1.07-.35C47,55.38,47.49,55.4,47.57,56Zm0,85.31c-.42.57-.72-.63,0,0ZM47,158.76c0-.54.74.17,0,0ZM46.14,45.37c.41-.09.91-.35,1.25,0C47.55,46.18,45.89,46.46,46.14,45.37ZM44,91.4h.36v.35H44ZM42.77,55.85c0,.45-.6.06-.71,0C42.1,55.4,42.36,56.1,42.77,55.85ZM36,171.55v.36c-.15,0-.16.07-.18.18h-.35c0-.16-.07-.17-.18-.18v-.36c.15,0,.17-.07.18-.17h.35C35.8,171.53,35.9,171.54,36,171.55Zm-1.06-22c.91-.91-.4,1.23,0,.17C35,149.66,34.92,149.54,35,149.52ZM35.12,120c0-.53.74.17,0,0Zm-.35-59.18a1.15,1.15,0,0,1-.18-.89C35.68,59.37,35.9,60.76,34.77,60.83ZM32.64,95.49c.38,0,.56.14.53.53C32.71,96.13,32.53,96,32.64,95.49Zm-3.56-17.6c0-.53.74.17,0,0Zm-.18,44.43c.2.63-1.09.48-.71-.17C28.47,122.16,28.87,122.06,28.9,122.32ZM22.68,68.65c0,.42-.78.1-.89,0C21.84,68.23,22.57,68.55,22.68,68.65Zm-.89,47.45c.05.94-.57,1.21-.35,2.31C19.35,118.7,19.74,114.92,21.79,116.1ZM20.73,93c0,.44-.61,0-.71,0C20,92.56,20.62,93,20.73,93Zm-.36,6.4c-.46,0-.76-.07-.71-.54C20,98.54,20.36,98.92,20.37,99.4Zm-6.58-3.2c0,.44-.6,0-.71,0C13.11,95.76,13.69,96.15,13.79,96.2ZM14,107v.53c-.38,0-.56-.14-.53-.53Zm-7.64,8.53c0-.53.74.17,0,0Zm.89-4.27A1.21,1.21,0,0,1,9,110.24,1.07,1.07,0,0,1,7.22,111.3ZM10.6,91c.25-.58.44.7,0,0Zm1.06-14.92c1.05-.86,1.75.51,1.07,1.59a1.51,1.51,0,0,1-1.07-.17C11.62,76.79,12,76.7,11.66,76.12ZM12,152.18c0-.94,1-.89,1.77-1.06-.12.69.08.65.54,1.42C13.35,152.22,13.06,151.58,12,152.18Zm4.09-29.68c-.54,0-.91-.52-.54-.89C16.13,121.53,16.14,122,16.11,122.5Zm-.89-48.34c-.41-.52-1-1.24-.71-2a2.94,2.94,0,0,1,1.77.35C16.27,73.44,16,74.07,15.22,74.16Zm1.6,42.12h.53v.53C17,116.85,16.78,116.67,16.82,116.28Zm.35,46.21c.44-.69.26.59,0,0Zm.36-48.34c.46-.23.53-.39,1.06-.18.29.6-.75.76-.17,1.07C18.12,115.43,17.42,114.74,17.53,114.15Zm.53,30.21c-.06-.58.48-.94.89-.53A.64.64,0,0,1,18.06,144.36Zm1.6,11.2c-1.64.17-1.06-2.71.18-2C19.87,154.58,19.36,154.73,19.66,155.56Zm1.6,16.88c-.23-.06-.28-.31-.53-.35,0-.21.32-.15.53-.18Zm0-21.32c.82.11-.14,1.07,0,0Zm-.18-1.07c-.79-.63-.92.16-1.77.35,0-1.12.94-3.63,2.84-2.84A3.17,3.17,0,0,0,21.08,150.05Zm1.07,11.2c.38-.09.34.25.35.53A.5.5,0,0,1,22.15,161.25ZM22,109.88h.71C22.92,110.79,21.73,110.79,22,109.88Zm1.25,29.5c-.39,0-.57-.14-.54-.53h.54Zm.88,20.09c-.5,0-.75-.31-.71-.89.43.07.39-.33.89-.18C24.73,158.84,23.91,158.78,24.1,159.47Zm1.25-58.65c-1.32.67-.5-1.49,0,0ZM24.64,75.4c0-.32-.22-.37-.18-.71.33-.34.65,0,1.07,0C25.49,75.19,25.22,75.45,24.64,75.4Zm.89-11.55c.14-.62.62-.2.88,0C26.37,64.27,25.63,64,25.53,63.85Zm1.77,1.42c.64,0,1.23,0,1.07.71C27.73,66,27.14,66,27.3,65.27Zm1.07,82.47a1,1,0,0,1,.71-.18c.05.58-.21.86-.71.89C28.67,148.1,28.35,148.22,28.37,147.74Zm1.42,17.95c-.31,0-.4-.31-.35-.71C30,164.8,29.75,165.37,29.79,165.69Zm-.53-13.15c-.4.09-.25-.34-.53-.36A1.21,1.21,0,0,1,30,150.94,4.34,4.34,0,0,1,29.26,152.54Zm-1.78-15.11c.74-.26,1.83-.94,2.67-.53C30.56,138.92,27.44,139.68,27.48,137.43Zm3.2-72.33c-.57.15-.55-.28-.89-.36-.33-1.17,1.12-1.28,1.78-.89C31.45,64.45,30.89,64.59,30.68,65.1ZM33,183.64c-.39,0-.56-.15-.53-.53H33Zm-.18-17.42c0-.45.67-.42.89-.18a.94.94,0,0,0-.18.54C33,166.71,33.17,166.22,32.81,166.22Zm.89,17.06h-.35v-.53c.28-.05.3.17.53.18C33.85,183.07,33.7,183.11,33.7,183.28Zm0-88.86v-.36C34.35,94.11,34.23,94.81,33.7,94.42Zm.89,73.22c.75.19,0,.94,0,0ZM36,176.71c-2.66.23-.64-3.41.36-1.25C35.54,175.56,36.58,175.67,36,176.71Zm.71-6.58a.88.88,0,0,0-.53-.18c0-.14.18-.17.18-.35h.35ZM36,86.25c0-.39.45-.39.89-.36C37,86.73,36.3,86.61,36,86.25ZM37.26,170v-.71c.37-.07.47.12.71.18C37.81,169.68,37.83,170.11,37.26,170Zm.35-1.77c.26-.59.44.69,0,0ZM37.08,55.32H38A.49.49,0,1,1,37.08,55.32Zm2,95.26c-.46,0-.76-.06-.71-.53.15,0,.17-.07.18-.18C39,149.82,39.08,150.12,39,150.58Zm.36-26.83a.66.66,0,0,1-.36-1.07C39.71,122.53,39.66,123.47,39.39,123.75Zm.53-31.29c0-.53.74.18,0,0Zm0-45.32c.42.07.84.12.71.72C40.08,47.94,39.84,47.7,39.92,47.14Zm2,78.38c-.42.57-.72-.62,0,0Zm0-62.56a.66.66,0,0,1,.89,0C42.67,63.47,41.93,63.69,41.88,63Zm.18,96.86c.19-.4.72-1,1.24-.53C43.14,159.73,42.61,160.33,42.06,159.82Zm1.06,5v-.36c.36-.06.56,0,.54.36ZM44,182.4c0-.54.74.16,0,0Zm.36-61.68c.3-.62.55.58,0,0Zm.89,71.8c-.87.18-.33-.94,0-.35ZM45.08,149c.41.06.83.12.71.71C45.23,149.78,45,149.54,45.08,149Zm.35-69.31c-.15-1,1.26-1.38,1.78-.71A1.06,1.06,0,0,1,45.43,79.67Zm.89,97.75a1.15,1.15,0,0,1,.89.18C47.19,178.12,46.15,178.07,46.32,177.42ZM47,176c-.07-.38.12-.47.18-.71C47.73,175.32,47.64,176.13,47,176Zm.89,4.26c-.62-.08-.75-.37-.53-.89C48,179.45,48.14,179.75,47.92,180.26ZM48.45,130c.29-.05.31.16.54.17C49.06,130.49,48.18,130.4,48.45,130Zm.72,36.61c-1.43-.43.2-1-.18-2.31.4-.12,1.07-.36,1.42,0C49.52,164.57,49.87,166.09,49.17,166.58ZM49.88,147c-.51.14-.46-.25-.89-.18-.27-1,.81-1.32,1.42-.89C50.31,146.39,49.72,146.34,49.88,147Zm1.95-40.88c-.56.09-.69-.25-1.06-.36-.13-.54.18-.64.17-1.06h1.25C52.65,105.47,51.71,105.28,51.83,106.15Zm1.25-45.5h-.71A.38.38,0,1,1,53.08,60.65Zm-.54,71.27c.36-.3.23,0,.71,0A.38.38,0,1,1,52.54,131.92Zm.71,38c-.57-.07-.58-1.77.36-1.42C53.74,169.26,53,169.14,53.25,170Zm.36-62c-.49-.54.54.48,0,0Zm.18,26.66c.54-.66.6.54,0,0Zm.35-48.17c-1.39-.15-.91-1-.35-1.77.55.15,1.24.18,1.24.88C54.38,85.47,54.29,86,54.14,86.42ZM55,109.88a.79.79,0,0,0,.53.18c.08.82-.29,1.19-.88.89C54.53,110.33,54.87,110.2,55,109.88Zm.71,80.51c-.26-.09-.45-.26-.71-.35a6.52,6.52,0,0,1,.36-1.25C56.16,189,56.11,189.82,55.74,190.39Zm1.07-41.76c.13,1.11-1.1,1.29-.53,2.31A1.27,1.27,0,1,1,56.81,148.63Zm.71,11.9c-.29.38-1,1.58-.18,2C56.28,163.24,55.54,160,57.52,160.53Zm.35,30.22c-.7.1-.78-.4-.88-.89C57.6,189.83,58,190,57.87,190.75ZM58.23,98c.11-1.25,1.83-.47.89.36C58.55,98.48,58.57,98.05,58.23,98Zm.89,71.27c.43.08.39-.32.89-.17C60.13,170,59.13,170.16,59.12,169.24Zm1.42-45.49c.54-.13.65.18,1.07.17-.21.5-.29,1.14-1.07,1.07A1.12,1.12,0,0,1,60.54,123.75Zm.89,8.53c-.48-.24-1-.39-.89-1.25.41-.08.91-.35,1.25,0A3.84,3.84,0,0,0,61.43,132.28Zm-.71-91.35c-.6-4,4.77-.06,0,0Zm3.2-10.49C64,31,63.54,31,63,31,62.53,30.31,63.45,30.06,63.92,30.44Zm-.53,111.61c.29-.63.55.58,0,0Zm2-30.57c-.1.5-1.45.68-.71,1.42C62.89,113.65,63.57,110.17,65.34,111.48Zm-1.07,57.59c.29-.06.31.16.54.17C64.88,169.59,64,169.5,64.27,169.07Zm.54-17.24c-1.12.06-.58-1.53.17-.89C65.13,151.44,64.73,151.4,64.81,151.83Zm2.49,20.26c-.38.07-.48-.13-.72-.18C66.53,171.6,67.58,171.59,67.3,172.09Zm-.72-14.22c-3.56.34.17-4.15.89-.54C66.43,156.7,66.8,157.85,66.58,157.87Zm-.17-11c.27-.5,1.06-.48,1.06-1.24a.86.86,0,0,1,1.07,0A1.51,1.51,0,0,1,66.41,146.85Zm2.13-33.24c.39,0,.56.15.53.54C68.61,114.25,68.43,114.08,68.54,113.61ZM67.12,71.14c-.81-1.45,1-2.31,1.95-1.42C68.92,70.69,68.11,71,67.12,71.14ZM69.2,176.19l0,0,.07,0Zm.58,26.29c-.26-.31.11-1.07.18-1.6.67,0,.51.2,1.07,0C70.26,201.05,70.84,202.58,69.78,202.48Zm2-21.86c-1.68.11-.95-2.26.35-1.42A2,2,0,0,0,71.74,180.62Zm.71-6.76c0-.41.47-.4.71-.17C73.11,174.1,72.69,174.09,72.45,173.86Zm.71-6.93H72.8v-.35h.36ZM72.09,94.78c0-.69.53-.79,1.07-.54A.65.65,0,0,1,72.09,94.78ZM73.16,29c.39,0,.57.14.53.53C73.53,29.36,73,29.5,73.16,29Zm.18,129.2a1.13,1.13,0,0,1,.89-.17c-.1.37-.44.5-.36,1.06C73.56,159,73.25,158.78,73.34,158.22Zm1.24,2.31c-.25.23,0,.94-.71.72C73.79,160.69,74,160.45,74.58,160.53ZM74.05,165c0-.66.26-.45.71-.36C74.74,165.28,74.5,165.07,74.05,165Zm.89,19.37c.29,0,.3.17.53.18C75.54,184.87,74.66,184.79,74.94,184.35Zm.35-79.27H74.4c.16-.65-.31-.94,0-1.24.44,0,.86,0,1.07.18C75.48,104.44,75.17,104.54,75.29,105.08Zm-.71-37.14a1.13,1.13,0,0,1,.89.18C75.52,68.58,74.27,68.73,74.58,67.94Zm.54-2.49c.28,0,.3.17.53.18C75.72,66,74.84,65.89,75.12,65.45Zm0-36.08c.46-.05.76.07.71.54C75.36,30,75.06,29.84,75.12,29.37ZM76.36,202.3c.26-.59.44.69,0,0ZM76,171c.51,0,1,0,.89.53A.53.53,0,0,1,76,171Zm.89-20.26c.29,0,.31.17.54.18C77.5,151.28,76.62,151.2,76.89,150.76Zm.89,28.61h-.35V179h.35Zm0-12.62c-.26-.15-.69-.14-.53-.71H78C78,166.42,77.84,166.51,77.78,166.75Zm-.35-1.95c0-.44.6-.05.71,0C78.11,165.24,77.54,164.85,77.43,164.8Zm1.06,5.69h.71A.38.38,0,1,1,78.49,170.49Zm1.78-14.4c.39,0,.57.15.53.53C80.34,156.73,80.16,156.55,80.27,156.09Zm.53,12.44h-.35c0-.15-.07-.17-.18-.18C80.2,168,81.08,168.09,80.8,168.53Zm.18-2.66c-.56.2-.43-.28-.71-.36.06-.24.45-.15.71-.18Zm1.78,4.26c-.87-.21-1,.29-1.24.71C80.1,170.24,82.65,168.7,82.76,170.13Zm.18,37.5c-.47.06-.59-.24-.54-.71C82.66,207.08,83.09,207.06,82.94,207.63Zm-.18-23.81c-.8-.12-.79,0-1.42-.36-.32-1.52,1.07-2.75,2.13-1.78C83.32,182.61,82.3,182.76,82.76,183.82Zm.35-8c.17-.6.33-.09.89-.18C84,176.44,83.38,176.1,83.11,175.82Zm.71-15.64c.26-.59.45.69,0,0Zm0-4.62c0-.53.74.17,0,0Zm.36,1.6h.71v.89C84.25,158.16,84.19,157.68,84.18,157.16Zm.53,5.68c.45-.69.26.59,0,0Zm.36,11.56c.21-.54.94.19,0,0Zm0-4.62h.71C86,170.68,84.83,170.68,85.07,169.78Zm2.67-3.38c-2.46-.43-.23-3.05,1.42-2.31C88.8,165,87.09,165,87.74,166.4Zm1.42-6.58c.54-.65.6.54,0,0ZM92,198.21a2.41,2.41,0,0,0-1.78,1.07c-.87,0-.77-1.16-.35-1.6,1.26.41,1.14-.55,2.13-.18Zm.18-117.3c-.43-.11-.1-.9.36-.71C92.66,80.69,92.18,80.56,92.18,80.91Zm.53,91.18h-.35v-.36h.35Zm0-49.94c.47-.06.59.24.54.71C92.78,122.91,92.66,122.61,92.71,122.15Zm.18,34.65h.53v.53C93,157.44,92.78,157.26,92.89,156.8Zm.18,15.29c0-.16-.07-.17-.18-.18-.07-.35.81-.26.53.18Zm1.06,36.61c-.73.17-.84-.73-.53-1.07C94,207.81,94.46,208.35,94.13,208.7Zm0-13.69c.34-.33.45,0,.89,0C95.13,195.39,94,195.66,94.13,195Zm.89-.89c.47-.05.77.07.71.54C95.4,195,94.88,194.76,95,194.12Zm1.25-29.85q-.69.15-.54-.54h.54ZM97.69,178c-1.77-.16-2-4.34.53-3.2A3.05,3.05,0,0,0,97.69,178Zm.53-8.53c.29,0,.31.17.54.18C98.83,169.94,98,169.86,98.22,169.42Zm.18-17.24c-3-.58,1.19-3.78,2.13-1.6C99.79,151.69,98.82,150.53,98.4,152.18Zm.71,15.11c.29,0,.31.17.53.18C99.71,167.81,98.83,167.73,99.11,167.29Zm-.18,41.76c0-.53.74.17,0,0Zm.18-30.74c-.08-.38.25-.34.53-.36A.48.48,0,0,1,99.11,178.31Zm.71-8c-.77.38-1.39-.54,0,0Zm-.35-14.4c.46-.13,1.07-.65,1.6-.17-.17.45-1.31,1.12-.36,1.59C100.25,157.61,99.43,156.73,99.47,155.91Zm1.42,52.61a.49.49,0,0,1,.53-.36C101.51,208.54,101.17,208.5,100.89,208.52Zm.53-37.32c.21-.54.94.19,0,0Zm.53-2.49c-.41.57-.71-.63,0,0Zm.72-38.57c-1.59-.07,0-2.13.71-.89C103.34,129.75,102.81,129.76,102.67,130.14Zm.71,55.45c.26-.59.44.7,0,0Zm.35-25.94a1.19,1.19,0,0,1-.89-.18c0-.64.26-.93.89-.89A.86.86,0,0,1,103.73,159.65Zm-.18-67q.58,0,.54.54Q103.51,93.23,103.55,92.64Zm.89,66.47c0-.53.74.17,0,0Zm.18,33.77c0-.53.74.17,0,0Zm0-78.55c0-.54.74.17,0,0Zm.89,87.79c.37-.07.47.12.71.18C106,202.67,105.43,202.79,105.51,202.12Zm.71-51.72h1.07C107.46,151.52,106.26,151,106.22,150.4Zm1.6,9.42c-1.09.51.12,1,.18,1.78C106.86,161.38,105.91,158.72,107.82,159.82Zm-.18,8c.29,0,.31.17.54.18C108.25,168.34,107.37,168.26,107.64,167.82Zm.54,2.31c.37-.07.47.12.71.18C108.85,170.83,108,170.74,108.18,170.13Zm1.06-6.57c-.56,0-.61-.46-.71-.89a1,1,0,0,1,.71-.18C109.57,162.8,109.1,162.94,109.24,163.56Zm2.14-101.31c-.35.59-1.46,1.38-1.43,0C110.54,62,110.63,62.29,111.38,62.25Zm-.89,83.53a.48.48,0,0,1-.36-.53C110.51,145.17,110.47,145.5,110.49,145.78Zm-.18,2.14c-.41,0-.41-.48-.18-.71C110.54,147.25,110.54,147.68,110.31,147.92Zm.71,1.77c-.39,0-.57-.14-.53-.53H111Zm.18,18.66c.06-.21.47-.14.53,0C111.89,168.74,111.08,168.77,111.2,168.35Zm.53,8c.37-.07.47.12.71.18C112.26,176.9,111.66,177,111.73,176.35Zm1.07-9.24c.29.35,0,.22,0,.71A.38.38,0,1,1,112.8,167.11Zm1.42,6.4h-.36v-.36h.36Zm.35,23.28Zm-1.24-24.17c.23,1.14.25.67.18,1.6h-.71c-.6-1.13.36-2.08.89-2.67a3.78,3.78,0,0,0,1.06.36C114.59,172.46,113.64,172.22,113.33,172.62Zm1.24-10.31h.89C115.71,163,114.27,163.16,114.57,162.31Zm0-55.63c-.08-.56.26-.69.36-1.06.57-.16.55.28.89.35C115.71,106.79,115.19,107.28,114.57,106.68Zm2.14,46c-.17.31,0,1-.54.89.15-.5-.25-.46-.17-.89Zm.89,13.69c-.49-.54.54.48,0,0Zm-1.43-4.27c1,.19,1.12-.54,1.78-.17C117.88,162.77,116.3,162.93,116.17,162.13Zm2-8.53a1.69,1.69,0,0,1-.71-1.42,1.12,1.12,0,0,1,1.24,0A2.68,2.68,0,0,0,118.13,153.6Zm.18-14c.58.23.84-.71,1.42.18,0,.2-.18.1-.18,0-.56.12-.23.47-.18.89A1.33,1.33,0,0,1,118.31,139.56Zm.89-13.86c0-.53.73.17,0,0Zm.53,43c-.36-.13-.73-.54-.36-.89.29,0,.31.17.54.18C119.93,168.32,119.69,168.37,119.73,168.71Zm-1.25-44.25c-.12-.55.19-.65.18-1.07.87,0,2-.22,2,.71C119.63,124.11,119.45,125.4,118.48,124.46ZM120.8,128c.55-.08.56.38.53.89C120.78,128.93,120.53,128.27,120.8,128Zm0,40.52c0-.28.16-.3.17-.53a.94.94,0,0,0,.54.18C121.35,168.49,121.11,168.86,120.8,168.53Zm.17-12.62v-.35c.36-.06.56,0,.54.35Zm.54-9.24h.35V147h-.35Zm1.95,44.79a1.18,1.18,0,0,1-.89.18c-.14.61.33.75,0,1.06-1.76-.3.1-4.24,1.42-3A1.83,1.83,0,0,0,123.46,191.46Zm.89-15.64c-.37.07-.47-.12-.71-.18C123.58,175.33,124.63,175.32,124.35,175.82Zm0-.71c-.62.12-.64-.63-.36-.89C124.61,174.09,124.63,174.84,124.35,175.11Zm.53,6.22c0-.54.74.17,0,0Zm.18-5.33c.39,0,.57.14.53.53C125.21,176.56,125,176.38,125.06,176Zm1.07,22.92a.48.48,0,0,1,.53-.35C126.74,199,126.41,198.91,126.13,198.92Zm.71-40h.71c.15.42-.62.77-.18.89C127,160.39,126.68,159.47,126.84,158.93ZM127.9,182h-.35v-.36h.35Zm-2.84-24.35c.16.26.27.56.71.53-.41.89-.77-.56-1.42-.53.31-1.05,2.78-2.72,3.55-1.07C126.71,156.15,125.74,157.09,125.06,157.69Zm2.31-14.22v-.35h.36v.35Zm.71,41.77c.75.18,0,.93,0,0Zm-.18-50.83c-2.38-.12-.37-3,.89-1.42C128.64,133.6,128,133.73,127.9,134.41ZM129,110.06h.36v.36H129Zm.89,42.65c-.37.08-.47-.12-.71-.17C129.17,152,129.91,152.2,129.86,152.71Zm-.53,21.86s0-.15,0-.17C130.24,173.49,128.93,175.64,129.33,174.57Zm.35,21.87c.39,0,.57.14.54.53C129.75,197.07,129.58,196.9,129.68,196.44Zm.71-31.46c-.07-.08.12.11,0,0Zm-.71-2.14c.09-1.29,1.5-2.69,2.49-2-.6.47-1.92,1.15-1.6,2C130.42,163.37,130,162.74,129.68,162.84Zm1.6.54h-.35c0-.15-.07-.17-.18-.18C130.68,162.86,131.56,162.94,131.28,163.38Zm.18,16.17c.39,0,.57.15.53.53C131.61,180.12,131.43,179.94,131.46,179.55Zm.71-2.84c0-.32.22-.38.18-.71h.53a1.11,1.11,0,0,1,.18.88A1.15,1.15,0,0,1,132.17,176.71Zm.71-8.53c.3-.63.56.58,0,0Zm0-33.59c.82.12-.14,1.07,0,0Zm.36-.89c-.17-.19-.66-.06-.54-.54C133.17,133.06,133.34,133.24,133.24,133.7Zm.53,61.85c0,1.19-1.08.16,0,0Zm0-62.21c0-.53.74.17,0,0Zm.36-44.43c-.07-.34.81-.26.53.18h-.36C134.34,88.94,134.23,88.92,134.13,88.91Zm.71,63.45c-1.2.15.1-1.14,0,0ZM134.66,176c0-.42.78-.11.89,0,0,.32-.22.37-.18.71C134.45,176.93,134.86,176.08,134.66,176ZM135.9,194h-.35c0-.15-.07-.17-.18-.18C135.3,193.42,136.18,193.51,135.9,194Zm.18-29.15c-.47,0-.58-.25-.53-.71.43.07.38-.33.89-.18C136.57,164.46,135.82,164.13,136.08,164.8Zm2.31,2.67c-.39.37-.85.69-1.24,1.06.06.42.18.77.53.89C135.85,170,136.38,166.23,138.39,167.47Zm-.89,16c.39,0,.57.15.54.53C137.57,184.1,137.4,183.92,137.5,183.46Zm1.07,4.27c0-.54.74.17,0,0Zm.36-8.71c-1.08-.19-.42-1-.36-1.78h.89A2.8,2.8,0,0,0,138.93,179Zm.53-7.82c.28,0,.3.17.53.18C140.06,171.72,139.18,171.63,139.46,171.2Zm.89-13.69c-.47.06-.59-.24-.54-.71C140.49,156.47,140.6,156.91,140.35,157.51Zm.35-7.82Zm.18,23.64V173c.36-.06.56,0,.53.36Zm.53-101.66c.21-.54,1,.19,0,0Zm.54,33.24a1.08,1.08,0,0,1,1.24,0,3.58,3.58,0,0,1-.53,1.24C141.88,106.28,142,105.56,142,104.91Zm0,18.84c.44-.7.26.58,0,0Zm.35,34.65c.39,0,.57.15.53.53C142.37,159,142.2,158.86,142.3,158.4Zm.36,25.77c.11.12-.08-.07,0,0Zm.17-9.24h-.35v-.36h.35Zm0-.89c.38-.08.34.25.36.53A.49.49,0,0,1,142.83,174Zm.36-16.88c.3-.63.56.58,0,0Zm1.07-74.47c-.24-.06-.28-.31-.54-.36C143.8,81.89,144.41,82.33,144.26,82.69Zm0,67c-1.2.16.1-1.14,0,0Zm.35,35.73c-.55.08-.79-.16-.71-.71C144.46,184.62,144.7,184.86,144.61,185.42Zm-.53-8.36c-.53-.11.17-.38,0-.71h.53C144.87,177,143.82,176.39,144.08,177.06Zm.35-3.37a4.94,4.94,0,0,0,.72-3c.13.69.71.94.88,1.59C145.23,172.4,145.26,174.14,144.43,173.69Zm.89,1.6c-.07-.35.81-.26.54.17h-.36C145.53,175.31,145.43,175.3,145.32,175.29Zm.18,7.64c-.09-1.72,1.59,0,0,0Zm.36-16c0-.5.75-.34.71.18C146.2,167.18,146.1,167,145.86,166.93Zm.17-8c0-.44.61-.05.72,0C146.72,159.38,146.14,159,146,158.93Zm2,12.45h-.36V171H148Zm-.36-47.46c-.19-.83.54-1.33,1.07-.89A3.19,3.19,0,0,1,147.63,123.92Zm.72,44.79h.88C149.1,169.12,148.27,169.53,148.35,168.71Zm1.59-17.59c-.52.63-.89-.4-.71-1.07a1.46,1.46,0,0,1,1.07.18C150.25,150.49,149.54,151,149.94,151.12Zm-.17,15.28c-.19.47-.15,1.16-.89,1.07C148.91,166.85,149,166.31,149.77,166.4Zm-.36-11.55c0,.44-.28.55-.35.89C148.45,155.66,148.64,154.58,149.41,154.85Zm.53,17.77h-.35c0-.15-.07-.17-.18-.18C149.34,172.1,150.22,172.18,149.94,172.62Zm.18-17.6c0-.2.33-.15.54-.17.05.28-.17.3-.18.53C150.29,155.34,150.36,155,150.12,155Zm.54,7.65c.1-.72-.15,1.05,0,0Zm0,8.71c-.2,0-.12-.36-.36-.36,0-.21.32-.15.53-.18C150.88,171.13,150.67,171.15,150.66,171.38Zm-2.14-24v-.89c1-.2,1.49-.87,2.67-.88a4.6,4.6,0,0,1,.53,1.42h-1.06C151.65,148.06,149.09,147.77,148.52,147.38Zm2.85,5c0-.53.73.17,0,0Zm-.18,12.8c-.25-.22-.41-.68-.18-.89.54-.13.65.18,1.07.17C151.94,164.84,151,164.41,151.19,165.16Zm.71-10.67c.3-.63.56.58,0,0Zm0-14.39c.3-.63.56.58,0,0Zm.36-1.07h.35v.35h-.35Zm.17,17.77v-.71h.71C152.88,156.3,152.93,156.83,152.43,156.8Zm1.25,6c-.08-.07.11.12,0,0Zm0-9.59c.44-.7.26.59,0,0Zm2.13-5.33c-.4.14-1.43.57-.89,1.06C152.85,149.52,154.73,146.11,155.81,147.92Zm-.89,20.61c-.29,1.1.11-.41,0,0Zm.89-15.46Zm.18,23.81c.11.12-.08-.07,0,0Zm.18-49.4h.71c.13.48-.36.35-.36.71C156.21,128.15,156.12,127.88,156.17,127.48Zm0,37.14v-.53h.53C156.51,164.25,156.64,164.75,156.17,164.62Zm.53,8.35v-.53c.37-.07.47.12.71.18C157.37,172.93,157.1,173,156.7,173Zm.71-17.77c.6-.43-.43.6,0,0Zm.89,22.4v-.36H159C159.19,177.78,158.61,177.55,158.3,177.6Zm1.78,3.19c-.09.75.4.9.53,1.43-4.11-.14-.36-5.37.89-1.6C161.09,181.1,160.49,180.31,160.08,180.79ZM162.39,165v.35C161.52,165.51,162.06,164.39,162.39,165Z" transform="translate(-0.02 -9.07)"/>
        <g class="cls-4">
          <g>
            <g>
              <rect class="cls-5" x="-17.64" y="63.75" width="219.01" height="109.66" rx="10.62" transform="translate(210.43 17.64) rotate(90)"/>
              <rect class="cls-6" x="-1.55" y="64.17" width="186.84" height="105.09" transform="translate(208.57 15.77) rotate(90)"/>
              <rect class="cls-7" x="90.62" y="216.46" width="1.57" height="8.03" rx="0.68" transform="translate(311.87 120) rotate(90)"/>
              <path d="M91.41,17.8a1.19,1.19,0,1,1,1.23-1.19A1.21,1.21,0,0,1,91.41,17.8Z" transform="translate(-0.02 -9.07)"/>
              <rect class="cls-7" x="39.31" y="13.74" width="105.09" height="5.71"/>
              <path class="cls-8" d="M49.53,25.71a.85.85,0,0,1-.88.84.84.84,0,1,1,.88-.84Zm5.32-.84a.84.84,0,1,0,0,1.68.84.84,0,1,0,0-1.68Zm-12.05,0a.84.84,0,1,0,.89.84A.87.87,0,0,0,42.8,24.87Z" transform="translate(-0.02 -9.07)"/>
              <path class="cls-8" d="M140.94,25.71a.89.89,0,1,1-.89-.84A.86.86,0,0,1,140.94,25.71Zm-5.41-.84a.84.84,0,1,0,.9.84A.87.87,0,0,0,135.53,24.87Z" transform="translate(-0.02 -9.07)"/>
              <rect class="cls-8" x="88.4" y="15.69" width="6.89" height="1.68"/>
            </g>
            <g class="cls-9">
              <g>
                <path class="cls-10" d="M100.23,111.72c-19.67-.59-44,8.19-54,18.5-4.35,12.51-17.85,34.28-16.11,44.62s8.93,12.84,11.65,12A18.77,18.77,0,0,0,54,175.35c5.58-13.64,9.79-20.54,9.79-20.54s.31,14.09,2.19,38.13,3.74,36.54,3.74,36.54,18.43,4.06,35.91.62,26.86-9.37,26.86-9.37-7.5-20-7.18-36.53,2.7-22.86,2.7-22.86,13.74,16.93,14.36,30-8.22,30.6-8.22,30.6,4.48,1,6.56,4.58a15,15,0,0,1,2.08,6.87s20.61-15.82,19.78-42.67-19.29-60.26-29.62-67.51C125.38,118,117.61,112.24,100.23,111.72Z" transform="translate(-0.02 -9.07)"/>
                <path class="cls-11" d="M109.38,114.77c-.53-1-3.1-1.56-3.44-4.22-.6-4.58.15-28.24.15-28.24H86.57s-.83,23.65-1.45,27.57c-.37,2.36-3.16,3.89-4,4.72C84.22,119.64,104.31,122.53,109.38,114.77Z" transform="translate(-0.02 -9.07)"/>
                <path class="cls-12" d="M106.28,111.63a6.92,6.92,0,0,1-.34-1.08c-1.09-4.49.15-28.24.15-28.24H86.57s-.83,23.65-1.45,27.57a4,4,0,0,1-.76,1.75Z" transform="translate(-0.02 -9.07)"/>
                <path class="cls-13" d="M103.26,98.13A14.5,14.5,0,0,0,105.6,98c.18-8.12.49-15.66.49-15.66h-14C92.64,91.1,96.66,98.13,103.26,98.13Z" transform="translate(-0.02 -9.07)"/>
                <circle class="cls-14" cx="89.43" cy="68.77" r="6.7"/>
                <path class="cls-11" d="M114.59,77.73c0,9.45-3.5,17.21-12.57,17.11-6.94,0-12.57-7.66-12.57-17.11s2.37-17.1,12.57-17.1C113.25,60.63,114.59,68.29,114.59,77.73Z" transform="translate(-0.02 -9.07)"/>
                <circle cx="98.71" cy="64.84" r="0.95"/>
                <path d="M112.64,73.92a.83.83,0,1,1-.83-.83A.83.83,0,0,1,112.64,73.92Z" transform="translate(-0.02 -9.07)"/>
                <path class="cls-5" d="M110.78,81.92c0,1.26-1.77,2.29-3.94,2.29s-4-1-4-2.29,1.8-.32,4-.32S110.78,80.66,110.78,81.92Z" transform="translate(-0.02 -9.07)"/>
                <path class="cls-7" d="M89.54,72.46l-.09,5.27,1.85.1a37,37,0,0,1,.37-5.52Z" transform="translate(-0.02 -9.07)"/>
                <path class="cls-7" d="M111.6,64.34c2.29-2,3.09-11.44-5.33-13.13-6.48-1.29-12.8.88-16.1,4s-6.07,5.14-10.51,3.09A9.23,9.23,0,0,0,67.91,61.8a6.32,6.32,0,0,0,3.64,9.56c3.76.8,5.69-2.94,9.35-.74,5.46,3.3,8.24,3.4,10.82,2.27,3.43-1.51,5.15-3.81,6.38-9C98.1,63.93,107.48,65.37,111.6,64.34Z" transform="translate(-0.02 -9.07)"/>
                <path class="cls-7" d="M90.58,61.45c-2.37,1.75-5.15,4.12-8.65,3.2s-7.32.41-9,2.47a12.9,12.9,0,0,0-1.85,4.13l.43.11c3.76.8,5.69-2.94,9.35-.74,5.46,3.3,8.24,3.4,10.82,2.27,3.43-1.51,5.15-3.81,6.38-9C97.69,60,93,59.7,90.58,61.45Z" transform="translate(-0.02 -9.07)"/>
                <path class="cls-7" d="M95.21,70.57a10.46,10.46,0,0,1,.94-.49,9.06,9.06,0,0,1,1-.34,7.69,7.69,0,0,1,2.14-.25,7.78,7.78,0,0,1,1.08.14l.27.06.53.15.25.11a4.52,4.52,0,0,1,1.8,1.24.29.29,0,0,1,0,.4.26.26,0,0,1-.3,0l0,0a9,9,0,0,0-1.76-.63,10.44,10.44,0,0,0-1.84-.25c-.31,0-.62,0-.94,0s-.62,0-.94.08a3.93,3.93,0,0,0-.48.06l-.48.07c-.32,0-.64.12-1,.16h0a.28.28,0,0,1-.31-.25A.27.27,0,0,1,95.21,70.57Z" transform="translate(-0.02 -9.07)"/>
                <path class="cls-7" d="M108,70.81a8.17,8.17,0,0,1,.69-.51c.25-.14.51-.27.77-.4a8,8,0,0,1,.82-.29,5.38,5.38,0,0,1,.89-.17,4,4,0,0,1,1.83.2,3.36,3.36,0,0,1,.43.2,2.75,2.75,0,0,1,.4.26,2.23,2.23,0,0,1,.62.76.27.27,0,0,1-.13.37.27.27,0,0,1-.26,0l-.07,0a3,3,0,0,0-.62-.31,3.67,3.67,0,0,0-.67-.18,5.53,5.53,0,0,0-1.41,0c-.24,0-.49.08-.73.1l-.75.16-.76.19c-.26.07-.52.14-.79.19h0a.29.29,0,0,1-.33-.23A.27.27,0,0,1,108,70.81Z" transform="translate(-0.02 -9.07)"/>
                <path class="cls-11" d="M44.05,135.33s6.69-16.69,6.94-18.2,1.11-11.62,2.52-16.54c1.32-4.6,2.18-5.79,3-5.52s-.57,7.36-.57,7.36,1.47-8.77,3.37-8.5-.81,9-.81,9,2.15-10.18,4.12-9.81-1,10.44-1,10.44,2.27-8.48,4.05-8c1.46.38-.73,8.87-1.67,12.28a.43.43,0,0,0,.71.39,19.94,19.94,0,0,0,2.61-2.93,2.24,2.24,0,0,1,2.29-1,1,1,0,0,1,.77,1.42c-.39.65-1,1.77-1.94,3.71-2.2,4.54-5,7.07-6.17,11.43s-3.79,17.89-3.79,17.89a43.46,43.46,0,0,1-7.11-.68A49.11,49.11,0,0,1,44.05,135.33Z" transform="translate(-0.02 -9.07)"/>
                <path class="cls-15" d="M46.89,184.37a19.32,19.32,0,0,0,7.07-9c2.82-6.89,5.29-12.06,7-15.49.18-7.09,4-20.35-1.09-28.92C58.11,141.06,53.67,176.22,46.89,184.37Z" transform="translate(-0.02 -9.07)"/>
                <path class="cls-15" d="M128,161.34c2-8.48,1.16-20.82,1.16-20.82s6.67,9.43,8.12,17.27a24.13,24.13,0,0,1-2,14.37s-2.47-3.92-4.06-6.24S128,161.34,128,161.34Z" transform="translate(-0.02 -9.07)"/>
              </g>
            </g>
          </g>
        </g>
        <g>
          <path class="cls-16" d="M198.15,214.11l-.65,5.74h-1.41v-4.31a26.63,26.63,0,0,0-3.23,2.66,5.92,5.92,0,0,1-5.87,1.43l.17-.58,8.39-5.07Z" transform="translate(-0.02 -9.07)"/>
          <path class="cls-16" d="M173,214.11l-.9,5.68h-1.4l-.07-4.23a26,26,0,0,0-3.22,2.66,5.9,5.9,0,0,1-5.87,1.42l.17-.57,8.38-5.08Z" transform="translate(-0.02 -9.07)"/>
          <path class="cls-11" d="M187.16,219.28a4.06,4.06,0,0,0,1.67.14c1-.14,2.58-.2,4.93-2.66,1.77-1.86,3.35-2.12,4.39-2.68-.91-7.11-.5-29.05-.71-39.83-.26-13.23.53-29.41-1.05-41.73l-11.81.79a141.93,141.93,0,0,1,1.2,14.86c.36,9.38.35,15.59,1.69,32.75,1.12,14.23,2.83,30.75,2.7,32.15C189.84,216.37,187.17,218.41,187.16,219.28Z" transform="translate(-0.02 -9.07)"/>
          <path class="cls-17" d="M184.36,133.54l11.82-.79c.35,2.78.59,5.76.75,8.86a17.49,17.49,0,0,0-8.56-.43,10.84,10.84,0,0,0-3.13,1C184.85,136.66,184.36,133.54,184.36,133.54Z" transform="translate(-0.02 -9.07)"/>
          <path class="cls-11" d="M161.71,219.07a2.92,2.92,0,0,0,1.32.35,6.38,6.38,0,0,0,4.79-2.16,10.72,10.72,0,0,1,5.18-3.15c.52-7.15,3-24.5,4.13-42.54.89-14,1.06-24.94,1.24-37.59L166,132.59s.5,10.26.76,20.52.22,12.78.12,27.49c-.11,14.27-.88,31.29-1.29,32.64C164.62,216.41,161.89,218.21,161.71,219.07Z" transform="translate(-0.02 -9.07)"/>
          <path class="cls-17" d="M178.2,141.13a16.17,16.17,0,0,0-5.57-1.63,13.7,13.7,0,0,0-6.23,1c-.22-5.65-.42-9.78-.42-9.78l12.37,1.4C178.3,135.22,178.26,138.19,178.2,141.13Z" transform="translate(-0.02 -9.07)"/>
          <path class="cls-11" d="M172.92,48c-.62,4.67.19,8.93,3.89,9.05,1.85,0,4.49-4.55,5.35-9.18s2.86-6.84-1.9-7.49C173.42,39.49,173.54,43.37,172.92,48Z" transform="translate(-0.02 -9.07)"/>
          <path class="cls-11" d="M196.37,102.91c-.72-2-2.16-14.47-5-19.79-.46-.87-1.38-2.43-1.85-3.27-.24-3.16-1.86-11.24,3.37-8.38,4.93,2.7,9.22,14.52,10.08,27.11.23,3.38,1,5.51-1.37,7.07S197,104.55,196.37,102.91Z" transform="translate(-0.02 -9.07)"/>
          <path class="cls-18" d="M177,78a52.21,52.21,0,0,0-8.25.53,21.58,21.58,0,0,1,0-5.08c.06-1,1.06-2.15,1.83-3.26a5.86,5.86,0,0,1,3.36-2.39,1.76,1.76,0,0,0,1.51-1.59C176,64,178,49.53,178,49.53l7.72,1.74s-.22,12.65.09,14.6c.28,1.78,3.19,2.73,6.73,4.34-2,2.68-2.65,6.6-2.32,10C186.29,77.23,181.23,78.07,177,78Z" transform="translate(-0.02 -9.07)"/>
          <path class="cls-11" d="M175.24,66.74a2.84,2.84,0,0,0,.18-.54C176,64,178,49.53,178,49.53l7.72,1.74s-.22,12.65.09,14.6a2,2,0,0,0,.38.87Z" transform="translate(-0.02 -9.07)"/>
          <path class="cls-7" d="M173.76,67.79c-1.25.91-3.9,8.86-3.9,8.86l-3.36.52s2.21-5.56,3.81-7.27A7.27,7.27,0,0,1,173.76,67.79Z" transform="translate(-0.02 -9.07)"/>
          <path class="cls-7" d="M163.31,116.92c2-13.71,5-20.2,5.59-24.46l.76-4.51a6.69,6.69,0,0,1-4.36-4.26c-1.23-3.55,1.69-7.14,1.69-7.14s2.06-.41,10.17-.21A78.44,78.44,0,0,1,191.44,78l1.85,5.64-.6,7.93c.57,3.29,3.48,7.76,6.72,17.16s4,29.19,4,29.19-7.08,1.59-22.28,1.18c-14.95-.4-20.54-1.85-20.54-1.85S161.3,130.63,163.31,116.92Z" transform="translate(-0.02 -9.07)"/>
          <path class="cls-11" d="M175.37,71.13c.31,6-8,16.42-18.89,24.21S135,82.69,131.88,77.6s-2.72-7.68-2.35-7c-.26-.73.82-1.36,1.25-.68-.33-.74,1-1.29,1.49-.4-.29-.71-1.18-2.16-.44-2.46s3.12,4.23,3.73,5.41c-.28-.55-.81-1.61-1-2.18a.77.77,0,0,1,.43-.92c.25-.09.42.17.95,1,1.08,1.76,5.31,11.34,14.37,19,2.24.23,10.69-8,15.44-16.67C167.79,69,175,64.81,175.37,71.13Z" transform="translate(-0.02 -9.07)"/>
          <path class="cls-11" d="M177.64,52.44a3.34,3.34,0,0,0,.89-6.62Z" transform="translate(-0.02 -9.07)"/>
          <path class="cls-19" d="M173.49,38.38c.54-1.39,2.67-2.49,5.08-2.21a5.78,5.78,0,0,1,4.63-1.09c4.39.64,3.71,3.19,7.83,4.89s5.25.74,9.24,1.16a12.5,12.5,0,0,1,8.91,4.62c2.53,2.82,3.1,4.76,6.73,5.45s5.16.18,8.74,2.83,3.63,3.9,5.62,6,2,6.19-1.73,8.26c-1.34.75-4.2.47-6.69-1.1s-4.58-2.17-7.37-1.4a9.28,9.28,0,0,1-8-1.38c-2-1.61-4.27-3-8.9-2.43s-6.22,0-9.05-2.87a49.37,49.37,0,0,0-3.95-3.74s-8.33-8.26-8.49-12.43a8.18,8.18,0,0,1,0-1,2,2,0,0,0-.81,0C173.41,42.53,172.87,40,173.49,38.38Z" transform="translate(-0.02 -9.07)"/>
          <path class="cls-20" d="M186.13,50.82c4,0,8.53-2.25,10.87,0s4.67,4.58,6.95,5,5.73-.95,8.6.83,3.64,4.69,6.62,5.71,4.39.27,6.69,2.83a7.36,7.36,0,0,1,1.6,3.51,8.81,8.81,0,0,1-5.61-1.45c-2.48-1.58-4.58-2.17-7.37-1.4a9.28,9.28,0,0,1-8-1.38c-2-1.61-4.27-3-8.9-2.43s-6.22,0-9.05-2.87a49.37,49.37,0,0,0-3.95-3.74,60.28,60.28,0,0,1-6.06-7.13A15.35,15.35,0,0,0,186.13,50.82Z" transform="translate(-0.02 -9.07)"/>
          <path class="cls-7" d="M187.55,66.83s-10.07-1.18-12.91-.51a13.22,13.22,0,0,0-7.83,4.58s.08,4.78,6,7.91S193.08,84,193.08,84s3.7-6.21,3-10.48A15.65,15.65,0,0,0,187.55,66.83Z" transform="translate(-0.02 -9.07)"/>
          <path class="cls-16" d="M169.93,215.7h0a.22.22,0,0,0,.21-.23,3.06,3.06,0,0,1,.91-2.31,2.76,2.76,0,0,1,2.07-.84.23.23,0,0,0,.24-.22.22.22,0,0,0-.22-.23,3.2,3.2,0,0,0-2.4,1,3.53,3.53,0,0,0-1.05,2.65A.23.23,0,0,0,169.93,215.7Z" transform="translate(-0.02 -9.07)"/>
          <path class="cls-16" d="M165.12,219.36a.27.27,0,0,0,.16-.06.23.23,0,0,0,0-.32c-.46-.44-1.57-1.75-1.24-2.46a.21.21,0,0,0-.11-.29.21.21,0,0,0-.29.1c-.53,1.12,1.14,2.79,1.33,3A.23.23,0,0,0,165.12,219.36Z" transform="translate(-0.02 -9.07)"/>
          <path class="cls-16" d="M195,215.92h0a.23.23,0,0,0,.19-.26,2.82,2.82,0,0,1,.53-2.3,3,3,0,0,1,2.19-1.07.23.23,0,0,0,.22-.24.22.22,0,0,0-.24-.21,3.41,3.41,0,0,0-2.51,1.24,3.21,3.21,0,0,0-.63,2.66A.21.21,0,0,0,195,215.92Z" transform="translate(-0.02 -9.07)"/>
          <path class="cls-16" d="M190.57,219.35a.23.23,0,0,0,.1-.43s-2.07-1-1.73-2.24a.22.22,0,0,0-.16-.27.21.21,0,0,0-.27.15c-.44,1.56,1.86,2.71,2,2.76A.17.17,0,0,0,190.57,219.35Z" transform="translate(-0.02 -9.07)"/>
        </g>
        <path class="cls-21" d="M217.83,223.45H143.45a2,2,0,0,1,0-3.92h74.38a2,2,0,1,1,0,3.92Z" transform="translate(-0.02 -9.07)"/>
      </g>
    </g>
  </g>
</svg>
