<svg xmlns="http://www.w3.org/2000/svg" xmlns:xlink="http://www.w3.org/1999/xlink" width="230.19" height="190.21" viewBox="0 0 230.19 190.21">
  <defs>
    <style>
      .cls-1 {
        fill: none;
      }

      .cls-2 {
        isolation: isolate;
      }

      .cls-3 {
        fill: #d8b009;
        opacity: 0.7;
      }

      .cls-4 {
        fill: #be7109;
      }

      .cls-5 {
        clip-path: url(#clip-path);
      }

      .cls-6 {
        fill: #f2a901;
      }

      .cls-7 {
        fill: #7d8589;
      }

      .cls-8 {
        fill: #a8b3b8;
      }

      .cls-9 {
        fill: #4d4d4f;
      }

      .cls-10 {
        fill: #fff;
      }

      .cls-11 {
        fill: #1f3345;
      }

      .cls-12 {
        fill: #b5b5b5;
      }

      .cls-13 {
        fill: #274258;
      }

      .cls-14 {
        fill: #31526e;
      }

      .cls-15 {
        fill: #279c89;
      }

      .cls-16 {
        fill: #7b7980;
      }

      .cls-17 {
        fill: #6b6970;
      }

      .cls-18 {
        fill: #8f8d95;
      }

      .cls-19 {
        fill: #d2d1d4;
      }

      .cls-20 {
        fill: #8fd0c7;
      }

      .cls-21 {
        fill: url(#linear-gradient);
      }

      .cls-22 {
        fill: url(#linear-gradient-2);
      }

      .cls-23 {
        fill: #8bb9b0;
        fill-rule: evenodd;
      }

      .cls-24 {
        fill: #1dae9d;
      }

      .cls-25 {
        fill: #3d6acc;
        opacity: 0.3;
      }

      .cls-25, .cls-35 {
        mix-blend-mode: multiply;
      }

      .cls-26 {
        fill: #e5a376;
      }

      .cls-27 {
        fill: #61aa35;
      }

      .cls-28 {
        fill: #f2f2f2;
      }

      .cls-29 {
        fill: #292969;
      }

      .cls-30 {
        fill: #8f50a4;
      }

      .cls-31 {
        fill: #753f8c;
      }

      .cls-32 {
        fill: #d68f5f;
      }

      .cls-33 {
        fill: #f29d9d;
      }

      .cls-34 {
        fill: #bd422a;
      }

      .cls-35 {
        fill: #c3b9dd;
      }
    </style>
    <clipPath id="clip-path" transform="translate(-4.71)">
      <path class="cls-1" d="M36.28,163.46a119.36,119.36,0,0,0,21.89,14.08c10.77,5.36,22,9.08,33.94,9.09h5.47l-.12-.18c.26-.46.06-.92.69-1.38.73,1,1.46-.14,1.74,1l-.51.51c7.25,0,14.55-.38,21.33-2.27,9.62-2.68,19.43-5.68,28-11.68-.69-.46-1.27-1.28-.39-2.07.44.52,1.17.77,1.59,1.23,10.14-7.47,19.87-15.33,26.26-26.19,4.53-7.7,7.41-16.39,11-24.67,3.77-8.78,5.66-17.89,4.26-27.68a41.22,41.22,0,0,0,0-13.66,1.43,1.43,0,0,1-.95.6c-.64-.64-1.41-1.27-.53-1.91a4.28,4.28,0,0,1,1.34.49c-.08-.48-.19-1-.28-1.44-.62-.26-1.11-.87-.65-1.47l.36,0a119.14,119.14,0,0,0-6.37-18.61c-3.23-7.94-9.93-14.41-13.76-22.19a36.16,36.16,0,0,0-4.87-7.36,10.33,10.33,0,0,0-2.1.86l-.87-.87A5.16,5.16,0,0,1,164,25.88c-.74-.77-1.52-1.5-2.32-2.2-.67,1.33-4,.07-1.85-1.19,0,.63.52.64,1.06.5a81,81,0,0,0-12.27-8.26,157,157,0,0,0-14.39-7.36.23.23,0,0,1-.27,0,.25.25,0,0,0,0-.11l-1.69-.73c-.07.29-.44.57-.62.31.1-.11.18-.23,0-.34l.15-.16c-2.9-1.2-5.84-2.28-8.82-3.18A66.34,66.34,0,0,0,93,.77C83.8,2.29,74.39,3.21,65.5,5.84c-5.7,1.69-10.35,6.7-16,9a35.74,35.74,0,0,0-4.13,2,3.66,3.66,0,0,1-.73,3.13c-.21-.42-1.23-.21-.87-.87.59-.25.68-1,.62-1.69a36.35,36.35,0,0,0-5,3.61,1.39,1.39,0,0,1,1,.41c-.15,1-1.22,2.18-2.26,1.22.12-.61.94-.76.87-1.32q-1.55,1.35-3,2.85c1.5,1.25-1,4.15-2,2.28-.4.47-.79.94-1.18,1.42l-28.56.46L0,94.38l6.75,20.5S13.56,145.54,36.28,163.46Z"/>
    </clipPath>
    <linearGradient id="linear-gradient" x1="-1120.09" y1="111.08" x2="-1119.84" y2="113.61" gradientTransform="matrix(1, 0, 0, -1, 1262.68, 224.26)" gradientUnits="userSpaceOnUse">
      <stop offset="0.01" stop-color="#fff"/>
      <stop offset="1" stop-color="#ebebeb"/>
    </linearGradient>
    <linearGradient id="linear-gradient-2" x1="-1112.14" y1="111.08" x2="-1111.89" y2="113.61" gradientTransform="matrix(1, 0, 0, -1, 1246.79, 224.26)" xlink:href="#linear-gradient"/>
  </defs>
  <title>icon3</title>
  <g class="cls-2">
    <g id="Слой_2" data-name="Слой 2">
      <g id="Layer_1" data-name="Layer 1">
        <path class="cls-3" d="M214.3,189.84H139.92a2,2,0,0,1,0-3.93H214.3a2,2,0,0,1,0,3.93Z" transform="translate(-4.71)"/>
        <path class="cls-4" d="M162.77,27.79A5.16,5.16,0,0,1,164,25.88c-.74-.77-1.52-1.5-2.32-2.2-.67,1.33-4,.07-1.85-1.19,0,.63.52.64,1.06.5a81,81,0,0,0-12.27-8.26,157,157,0,0,0-14.39-7.36.23.23,0,0,1-.27,0,.25.25,0,0,0,0-.11l-1.69-.73c-.07.29-.44.57-.62.31.1-.11.18-.23,0-.34l.15-.16c-2.9-1.2-5.84-2.28-8.82-3.18A66.34,66.34,0,0,0,93,.77C83.8,2.29,74.39,3.21,65.5,5.84c-5.7,1.69-10.35,6.7-16,9a35.74,35.74,0,0,0-4.13,2,3.66,3.66,0,0,1-.73,3.13c-.21-.42-1.23-.21-.87-.87.59-.25.68-1,.62-1.69a36.35,36.35,0,0,0-5,3.61,1.39,1.39,0,0,1,1,.41c-.15,1-1.22,2.18-2.26,1.22.12-.61.94-.76.87-1.32q-1.55,1.35-3,2.85c1.5,1.25-1,4.15-2,2.28-.4.47-.79.94-1.18,1.42C28.48,33.24,23,37.88,19.23,43.7a81,81,0,0,0-9.8,20.74c-4.94,17.16-6.63,34.85-2,52.32,3.76,14.23,9.91,27.57,19.82,38.35.55-.1,1-.15,1.06-1.05a4.38,4.38,0,0,0,3.48,1.4,2.35,2.35,0,0,1-2.89,1.38c1,1,2,2,3.11,3,.72.65,1.46,1.28,2.2,1.91a2.14,2.14,0,0,1,3.09.59,2.15,2.15,0,0,1-1,1.13,119.36,119.36,0,0,0,21.89,14.08c10.77,5.36,22,9.08,33.94,9.09h5.47l-.12-.18c.26-.46.06-.92.69-1.38.73,1,1.46-.14,1.74,1l-.51.51c7.25,0,14.55-.38,21.33-2.27,9.62-2.68,19.43-5.68,28-11.68-.69-.46-1.27-1.28-.39-2.07.44.52,1.17.77,1.59,1.23,10.14-7.47,19.87-15.33,26.26-26.19,4.53-7.7,7.41-16.39,11-24.67,3.77-8.78,5.66-17.89,4.26-27.68a41.22,41.22,0,0,0,0-13.66,1.43,1.43,0,0,1-.95.6c-.64-.64-1.41-1.27-.53-1.91a4.28,4.28,0,0,1,1.34.49c-.08-.48-.19-1-.28-1.44-.62-.26-1.11-.87-.65-1.47l.36,0a119.14,119.14,0,0,0-6.37-18.61c-3.23-7.94-9.93-14.41-13.76-22.19a36.16,36.16,0,0,0-4.87-7.36,10.33,10.33,0,0,0-2.1.86ZM27.44,152.85c-1.19-.92.68-.91,0,0Zm-6-33.72c-.11-.09-.23-.18-.34,0l-.35-.35c.09-.11.18-.23,0-.34l.34-.35c.12.1.24.18.35,0l.35.35c-.1.11-.18.23,0,.35Zm49.93,50.62c.55-.89.55.49,0,0ZM42.19,140.87c-1.42-.65,2,.18.18.18C42.32,141.05,42.24,140.9,42.19,140.87Zm-24,.32c.25.29.62.58.17.87A.69.69,0,0,1,18.22,141.19Zm23.13,21.75-.52.52a.59.59,0,0,1,0-1ZM23.26,142.76c-.35.64-.7.21-1,.7a1,1,0,0,1-.18-1.57C22.52,142.76,23.27,141.9,23.26,142.76Zm39.82,30.8c.23.29-.26.58-.52.87C61.55,174.16,62.66,172.76,63.08,173.56ZM37,148.51a1,1,0,0,1,1.56.18,1.36,1.36,0,0,1-.86.52C37.2,148.75,37.63,148.57,37,148.51ZM21.85,131.3c-.44-.35-.61-.7-.34-1.05C21.78,130.6,22.55,131,21.85,131.3Zm14.27,13.22a1.69,1.69,0,0,1-2.43,0c.25-.28-.31-.58.17-.86A5.62,5.62,0,0,1,36.12,144.52ZM7.58,110.08l-.52.52a.59.59,0,0,1,0-1Zm16.7,15.66a1.17,1.17,0,0,0,.7.35c0,.46-.58,1.12-1.05.69C24.28,126.43,23.68,126.09,24.28,125.74ZM8.62,109.39c-.21.23,0,.46-.34.69l-.52-.52.34-.35C8.28,109.39,8.45,109.28,8.62,109.39Zm15.66,14.26c-.92-.91.55-.91,0,0Zm-5.92-9.39c1.15,3.09-4.39,1.51-1.57-.86C18.37,113.86,17.46,115,18.36,114.26Zm6.09,5.4-.35.35c-.17-.18-.35-.07-.52-.18a1.2,1.2,0,0,0,.35-.69Zm2.26.52c-.25-1.11.83.32,0,0Zm-.87-1.56c-.18.29-.09.58-.52.87l-.7-.7C25,118.08,25.43,118.51,25.84,118.62Zm19.65,18.61c-.12-.1-.23-.18-.35,0-.51-.41-.33-.81.17-1.22C45.82,136.42,46,136.83,45.49,137.23Zm27.13,26.09a.9.9,0,0,1-.69-1.39C72.46,161.93,73.43,162.82,72.62,163.32Zm0-5.56c-.09,1.32-1-.15,0,0ZM41,123.33c-.05,1-1.16.89-1.74.69C39.27,123,40.37,123.05,41,123.33Zm-5.05-5.74c.34.29.24.58-.17.87l-.35-.35ZM19,100c.55-.89.55.48,0,0ZM12.5,83.16c-.35.55-.7.55-1,0A.59.59,0,0,1,12.5,83.16ZM34.42,61.94s-.16.12-.18.17C33.59,63.54,34.42,60.16,34.42,61.94ZM12.34,66c-.88-.56.49-.56,0,0Zm103.2,102.8c.26-.41-.18-.81.52-1.22C117.8,167.44,116.88,169.88,115.54,168.76ZM25,73.76c-.91.92-.91-.55,0,0ZM11.83,58.49Zm5.73,4.33c-.35.56-.7.56-1,0A.59.59,0,0,1,17.56,62.82Zm9.73,2.08a.6.6,0,0,1-1.05,0A.6.6,0,0,1,27.29,64.9Zm111,110.31c0,1.2-1.45,2.22-2.43,1.39C136.1,175.43,137.54,175.09,138.31,175.21ZM22.61,55.7c-.75.86-.85,2.25-2.09,1.39a4,4,0,0,0,1.22-2.26Zm5.73,5a1.59,1.59,0,0,1,1-.7l.52.52c-.37.29-.19.58-.52.87A1.61,1.61,0,0,1,28.34,60.73Zm-.7-2.43c-.28-.12-.7,1.11-1.39,0,.37-.29.19-.58.53-.87C27,57.43,28,57.84,27.64,58.3Zm-6.94-9,.35-.35.35.35-.35.35Zm.87-.87a.67.67,0,0,1-.87.17C21,48.32,21.29,48,21.57,48.4Zm3,.86-.35.35-.52-.52C24,48.76,24.24,48.86,24.53,49.26ZM133.77,157.84c-.27.77-.85,1.14-1.56.52A.88.88,0,0,1,133.77,157.84ZM27.65,48.91c-.15.7-1.1-.07-.69-.34C27.19,48.78,27.42,48.59,27.65,48.91Zm113.66,112c0,.41-.41.81-.87,1.22-.59,0-.42-.74-1.21-1.22l.87-.87C140.5,160.65,140.91,160.45,141.31,160.86ZM37,52.38c-1.11,0,.32-.91,0,0Zm5.56-.7Zm-4.16-5.91c-.41.51-.81.69-1.22.18.91-.41-.14-.81.53-1.22C38.37,45.08,37.94,45.43,38.43,45.77ZM152.36,157.68a.6.6,0,0,1,0,1Q151.54,158.2,152.36,157.68ZM44,49.59c-.11-.1-.23-.18-.34,0l-.35-.35C43.45,48.54,44.39,49.32,44,49.59Zm-1.12-1.76-.44-.15ZM37.4,33.61c-.35.56-.69.56-1,0A.59.59,0,0,1,37.4,33.61Zm.35-2.08c-1.11,0,.32-.91,0,0Zm3.65,2.95c-.41.5-.82.68-1.22.17C40.53,33.81,41.05,33.49,41.4,34.48Zm121,118.7c.55-.89.55.48,0,0Zm2.95-.87c.35.35.69-.25,1,.35C166.18,153.28,165.08,152.84,165.39,152.31ZM43.66,31.52ZM45.22,31c-.4.45-.81.87-1.21.52.66-.41-.15-.81.52-1.22ZM56,40.71c-.29-.18-.58-.08-.87-.52C55.58,39.64,56.46,40.2,56,40.71ZM50.6,35c1-1.22,1,1.32,0,0Zm100.7,101.5a1.57,1.57,0,0,1,.69-1.05C152.78,135.7,151.55,136.8,151.3,136.49ZM47.49,26.65ZM149,128.66c0-1.1.9.33,0,0Zm9.39,8.36c.51.4.33.81-.17,1.21C157.51,137.75,157.92,137,158.42,137ZM52.35,27.34c-.27,1-1.67-.1-.87-.52C51.77,26.6,52.06,27.08,52.35,27.34Zm1.39,1.39c.72.57,0,1.05-.52.87C53.4,29.31,53.3,29,53.74,28.73ZM156.85,130.59c-.18.29-.08.58-.52.86l-.7-.69C156,130.05,156.44,130.48,156.85,130.59Zm7.82,3.65c1.93,4.32-5.42,6.2-3.65,1.91C162.65,139,164.73,136.44,164.67,134.24Zm.34-5.56a.6.6,0,0,1,0,1A.6.6,0,0,1,165,128.68Zm-7.66-11.47c1-.07,1.37,1,.18,1.21C157.07,118,157.25,117.61,157.35,117.21Zm-2.26-4c0,.41-.42.81-.87,1.22C153.07,113.37,154.19,112.75,155.09,113.21Zm20.7,17.92-.7.69c-.15-.63-1.1-.2-.69-.69C174.86,131.56,175.32,130.7,175.79,131.13Zm-3.49-10.78c-.05,0-.13-.15-.17-.17C170.7,119.53,174.08,120.36,172.3,120.35Zm-7-9c0,.41-.42.81-.87,1.22-.73-.53-.92-1-.52-1.57C164.41,111.43,164.88,110.79,165.34,111.31Zm-1.4-6.6c-.25.4.19.81-.52,1.21-.46-.26-.93-.06-1.39-.69C162.05,104,163,104,163.94,104.71Zm13.92,12.52c.17,2.8-4.19,1.69-2.61-.52C175.65,118.24,177,117.16,177.86,117.23Zm10.59-7.46c-.64.81-1.07-.16-1-.69C187.75,109.57,188.1,109.14,188.45,109.77Zm-5.57-6.6s-.13-.16-.18-.18C181.28,102.34,184.65,103.17,182.88,103.17Zm1.39-.7c-1-.16,1-.16,0,0Zm-11.14-15-.35.35-.35-.35.35-.35ZM152.42,60.91c-.21.23,0,.46-.34.7C151.38,61.45,152.16,60.51,152.42,60.91Zm.18-.87c-1.2-.91.68-.91,0,0Zm1.22,1.57c-.59-.35,0-.7,0-1C154.37,60.91,154.37,61.26,153.82,61.61Zm.86-1.22c.56-.88.56.49,0,0Zm17.21,8.54c-.49.34-.06.69-.69,1-.53,0-2-1.16-1-1.74C170.73,69.17,171.31,68.21,171.89,68.93Zm-19-20c.06-1.11,1.17.12,0,0Zm17.92,15.83c0,2.43-3.08,1-1.4-.69C169.92,65,170.38,64.23,170.85,64.75Zm-9.57-11.3c-.41.5-.81.68-1.22.17C160,53,160.8,53,161.28,53.45Zm10.78,8.35c-.33-.83,1.11.25,0,0ZM162,43.37c-.23.37.26.19.52.53-.21.23,0,.46-.35.69C161.47,44.28,161.19,43.11,162,43.37ZM172.4,55.9c.59.34,0,.69,0,1C171.84,56.59,171.84,56.24,172.4,55.9Zm-28-27.66c0,1.49,1.38-.66,1.91-.17-1.14.52-.38.87-1.38,1.73C144.11,30.2,143.16,28.23,144.39,28.24Zm-7.3-8,.34.35-.34.34-.35-.35Zm-7.48-7.13c0-1,0,1,0,0Zm13.91,13.22.35.34-.35.35-.35-.35Zm-10.6-8.53c0,.15,0-.23,0,0Zm16,16.35c1.21,1-1.32,1,0,0ZM123.17,7.71l-.52.52c-.16-.49-1.1-.06-.69-.69C122.36,8.45,122.77,6.8,123.17,7.71Zm1.74.35c.1-.11.18-.23,0-.35l.35-.34C126,7.52,125.18,8.47,124.91,8.06Zm3.65,2.26c.47.82.15,1.63.7,2.44a6.89,6.89,0,0,0-3.65-2.27C126,9.24,127.64,11,128.56,10.32Zm5.57,4.53c.55.46,0,1.34-.52.87C133.79,15.43,133.69,15.14,134.13,14.85Zm8.17,7.83c-.05.15-.23,1.1-.69.69C141.66,23.21,141.84,22.27,142.3,22.68Zm10.95,1.92c.55-.89.56.49,0,0Zm16,17.74c-1.11-.7,0-1.39-1-2.09C169.34,39.31,169.49,41.69,169.26,42.34Zm6.43,6.44Zm4.53,7.3c0-.46.41-.88.86-.52C180.8,55.79,180.51,56.26,180.22,56.08Zm-11-12.35c.07,1.2,1.61.89,2.26.53a1.86,1.86,0,0,1-.87,1.56C169.56,45.71,167.77,44.31,169.26,43.73ZM147.69,23.55c.4.26.81.06,1.22.52C148.42,25.09,147.17,24.22,147.69,23.55ZM182,59.21a.59.59,0,0,1,0-1l.52.52ZM131.69,9.63l-.35.35L131,9.63l.35-.34ZM179.35,55.9c-.09,1-1.29,1.17-1.91.18A4.6,4.6,0,0,1,179.35,55.9ZM135.16,10.68l-.86.87C133.43,10.82,134.64,10.41,135.16,10.68ZM138,12.42c-.64.81-1.28.39-1.91-.18C136.67,11.43,137.31,12.14,138,12.42Zm15.13,14.79c-.26.53.91.31,1.22.52,0,.4-.42.81-.87,1.21C152.59,28.47,151.94,27.11,153.08,27.21Zm-3.65-4.7c.23.21.46,0,.69.35-.23.18-.46.52-.69.35C149.65,23,149.28,22.74,149.43,22.51Zm-7-7.3Zm-.35-3.13c-.42.4-.22.81-.87,1.21-.43,0-.73-.58-.7-1C141.08,13.19,141.59,11.83,142.12,12.08ZM151.68,22c0-1.11.91.33,0,0Zm14.09,14.09c0-1.11.91.33,0,0Zm1,.35.34-.35.35.35-.35.35ZM151.33,19.21l-.69.7-.7-.7C150.41,18.69,150.87,19.27,151.33,19.21Zm3.31,2.26c-.33-.83,1.11.25,0,0Z" transform="translate(-4.71)"/>
        <g class="cls-5">
          <g>
            <g>
              <polygon class="cls-6" points="204.9 124.21 210.83 124.21 219.96 172.06 217.62 172.06 204.9 124.21"/>
              <polygon class="cls-6" points="204.9 124.21 210.83 124.21 211.18 126.07 205.39 126.07 204.9 124.21"/>
              <polygon class="cls-6" points="215.12 124.21 221.05 124.21 230.19 172.06 227.84 172.06 215.12 124.21"/>
              <polygon class="cls-6" points="215.12 124.21 221.05 124.21 221.41 126.07 215.62 126.07 215.12 124.21"/>
              <polygon class="cls-6" points="27.12 124.21 21.2 124.21 12.06 172.06 14.41 172.06 27.12 124.21"/>
              <polygon class="cls-6" points="27.12 124.21 21.2 124.21 20.84 126.07 26.63 126.07 27.12 124.21"/>
              <polygon class="cls-6" points="16.9 124.21 10.97 124.21 1.84 172.06 4.18 172.06 16.9 124.21"/>
              <polygon class="cls-6" points="16.9 124.21 10.97 124.21 10.62 126.07 16.41 126.07 16.9 124.21"/>
              <rect class="cls-6" x="7.67" y="118.83" width="226.1" height="3.99" transform="translate(236.73 241.65) rotate(-180)"/>
              <polygon class="cls-6" points="4.54 124.21 227.88 124.21 229.06 122.82 2.96 122.82 4.54 124.21"/>
              <polygon class="cls-6" points="4.54 117.44 227.88 117.44 229.06 118.83 2.96 118.83 4.54 117.44"/>
            </g>
            <g>
              <rect class="cls-7" x="79.21" y="154.49" width="28.88" height="15.99" transform="translate(182.6 324.97) rotate(-180)"/>
              <rect class="cls-8" x="74.5" y="154.25" width="28.88" height="0.48"/>
              <rect class="cls-9" x="74.5" y="170.24" width="28.88" height="0.48"/>
              <path class="cls-9" d="M104.27,150.79h-2.83v3.46h2.83Zm-21.23,0v3.46h2.83v-3.46Z" transform="translate(-4.71)"/>
              <rect class="cls-10" x="101.34" y="157.32" width="3.35" height="0.84" transform="translate(201.32 315.48) rotate(-180)"/>
              <polygon class="cls-10" points="78.13 157.32 79.39 157.32 79.39 156.06 80.22 156.06 80.22 157.32 81.48 157.32 81.48 158.16 80.22 158.16 80.22 159.41 79.39 159.41 79.39 158.16 78.13 158.16 78.13 157.32"/>
            </g>
            <path class="cls-10" d="M127.34,166.2c3.09,0,6.21-2.33,6.21-6.79v-42H131v42c0,2.93-1.83,4.24-3.65,4.24s-3.64-1.31-3.64-4.24a3.63,3.63,0,0,0-3.67-3.75H108.09v2.56H120a1.06,1.06,0,0,1,1.11,1.19C121.14,163.87,124.26,166.2,127.34,166.2Z" transform="translate(-4.71)"/>
            <g>
              <rect class="cls-11" x="8.95" y="33.34" width="91.98" height="65.14" rx="5.51" transform="translate(105.17 131.83) rotate(-180)"/>
              <path class="cls-12" d="M100.93,87.22V93a5.51,5.51,0,0,1-5.51,5.51h-81A5.51,5.51,0,0,1,9,93V87.22Z" transform="translate(-4.71)"/>
              <rect class="cls-13" x="12.65" y="33.34" width="91.98" height="65.14" rx="5.51" transform="translate(112.58 131.83) rotate(-180)"/>
              <path class="cls-10" d="M104.64,87.22V93a5.51,5.51,0,0,1-5.51,5.51h-81A5.51,5.51,0,0,1,12.65,93V87.22Z" transform="translate(-4.71)"/>
              <rect class="cls-14" x="35.33" y="18.07" width="46.63" height="84.57" rx="1.8" transform="translate(114.29 1.71) rotate(90)"/>
              <rect class="cls-15" x="66.97" y="42.52" width="14.17" height="1.32"/>
              <rect class="cls-15" x="82.61" y="42.52" width="4.09" height="1.32"/>
              <rect class="cls-15" x="66.97" y="45.24" width="14.17" height="1.32"/>
              <rect class="cls-15" x="82.61" y="45.24" width="4.09" height="1.32"/>
              <rect class="cls-15" x="66.97" y="47.96" width="14.17" height="1.32"/>
              <rect class="cls-15" x="82.61" y="47.96" width="4.09" height="1.32"/>
              <rect class="cls-15" x="66.97" y="50.68" width="14.17" height="1.32"/>
              <rect class="cls-15" x="82.61" y="50.68" width="4.09" height="1.32"/>
              <rect class="cls-15" x="66.97" y="53.4" width="14.17" height="1.32"/>
              <rect class="cls-15" x="82.61" y="53.4" width="4.09" height="1.32"/>
              <rect class="cls-15" x="66.97" y="59.04" width="14.17" height="1.32"/>
              <rect class="cls-15" x="82.61" y="59.04" width="4.09" height="1.32"/>
              <rect class="cls-15" x="66.97" y="61.76" width="14.17" height="1.32"/>
              <rect class="cls-15" x="82.61" y="61.76" width="4.09" height="1.32"/>
              <rect class="cls-15" x="66.97" y="64.48" width="14.17" height="1.32"/>
              <rect class="cls-15" x="82.61" y="64.48" width="4.09" height="1.32"/>
              <rect class="cls-15" x="66.97" y="67.2" width="14.17" height="1.32"/>
              <rect class="cls-15" x="82.61" y="67.2" width="4.09" height="1.32"/>
              <rect class="cls-15" x="66.97" y="69.92" width="14.17" height="1.32"/>
              <rect class="cls-15" x="82.61" y="69.92" width="4.09" height="1.32"/>
              <rect class="cls-15" x="66.97" y="76.34" width="14.17" height="1.32"/>
              <rect class="cls-15" x="82.61" y="76.34" width="4.09" height="1.32"/>
              <rect class="cls-15" x="66.97" y="79.06" width="14.17" height="1.32"/>
              <rect class="cls-15" x="82.61" y="79.06" width="4.09" height="1.32"/>
              <rect class="cls-15" x="88.2" y="42.52" width="4.09" height="1.32"/>
              <rect class="cls-15" x="88.2" y="45.24" width="4.09" height="1.32"/>
              <rect class="cls-15" x="88.2" y="47.96" width="4.09" height="1.32"/>
              <rect class="cls-15" x="88.2" y="50.68" width="4.09" height="1.32"/>
              <rect class="cls-15" x="88.2" y="53.4" width="4.09" height="1.32"/>
              <rect class="cls-15" x="88.2" y="59.04" width="4.09" height="1.32"/>
              <rect class="cls-15" x="88.2" y="61.76" width="4.09" height="1.32"/>
              <rect class="cls-15" x="88.2" y="64.48" width="4.09" height="1.32"/>
              <rect class="cls-15" x="88.2" y="67.2" width="4.09" height="1.32"/>
              <rect class="cls-15" x="88.2" y="69.92" width="4.09" height="1.32"/>
              <rect class="cls-15" x="88.2" y="76.34" width="4.09" height="1.32"/>
              <rect class="cls-15" x="88.2" y="79.06" width="4.09" height="1.32"/>
              <rect class="cls-15" x="31.78" y="42.52" width="6.66" height="1.32"/>
              <rect class="cls-15" x="39.91" y="42.52" width="3.01" height="1.32"/>
              <rect class="cls-15" x="31.78" y="45.24" width="6.66" height="1.32"/>
              <rect class="cls-15" x="39.91" y="45.24" width="3.01" height="1.32"/>
              <rect class="cls-15" x="31.78" y="47.96" width="6.66" height="1.32"/>
              <rect class="cls-15" x="39.91" y="47.96" width="3.01" height="1.32"/>
              <rect class="cls-15" x="31.78" y="50.68" width="6.66" height="1.32"/>
              <rect class="cls-15" x="39.91" y="50.68" width="3.01" height="1.32"/>
              <rect class="cls-15" x="31.78" y="53.4" width="6.66" height="1.32"/>
              <rect class="cls-15" x="39.91" y="53.4" width="3.01" height="1.32"/>
              <rect class="cls-15" x="31.78" y="59.04" width="6.66" height="1.32"/>
              <rect class="cls-15" x="39.91" y="59.04" width="3.01" height="1.32"/>
              <rect class="cls-15" x="31.78" y="61.76" width="6.66" height="1.32"/>
              <rect class="cls-15" x="39.91" y="61.76" width="3.01" height="1.32"/>
              <rect class="cls-15" x="31.78" y="64.48" width="6.66" height="1.32"/>
              <rect class="cls-15" x="39.91" y="64.48" width="3.01" height="1.32"/>
              <rect class="cls-15" x="31.78" y="67.2" width="6.66" height="1.32"/>
              <rect class="cls-15" x="39.91" y="67.2" width="3.01" height="1.32"/>
              <rect class="cls-15" x="31.78" y="69.92" width="6.66" height="1.32"/>
              <rect class="cls-15" x="39.91" y="69.92" width="3.01" height="1.32"/>
              <rect class="cls-15" x="58.24" y="43.18" width="10.77" height="8.16" transform="translate(122.55 94.52) rotate(-180)"/>
              <rect class="cls-15" x="50.33" y="54.06" width="11.32" height="2.72" transform="translate(107.27 110.84) rotate(-180)"/>
              <rect class="cls-15" x="64.42" y="54.06" width="4.6" height="2.72" transform="translate(128.73 110.84) rotate(-180)"/>
              <rect class="cls-15" x="36.67" y="74.06" width="10.97" height="5.66" transform="translate(79.59 153.78) rotate(-180)"/>
              <rect class="cls-15" x="50.33" y="59.3" width="18.68" height="20.42" transform="translate(114.64 139.02) rotate(-180)"/>
              <rect class="cls-15" x="19.99" y="43.18" width="13.93" height="5.44" transform="translate(49.2 91.8) rotate(-180)"/>
              <rect class="cls-15" x="19.99" y="51.34" width="13.93" height="2.72" transform="translate(49.2 105.4) rotate(-180)"/>
              <rect class="cls-15" x="19.99" y="59.26" width="13.93" height="5.44" transform="translate(49.2 123.95) rotate(-180)"/>
              <rect class="cls-15" x="19.99" y="67.41" width="13.93" height="2.72" transform="translate(49.2 137.55) rotate(-180)"/>
              <path class="cls-16" d="M64.62,98.48h1.9v12.24a3,3,0,0,0,3,3h8.81v3.7H60.94l-9.62-.3-4.45-4.45V98.48Z" transform="translate(-4.71)"/>
              <rect class="cls-17" x="60.94" y="113.74" width="17.4" height="3.7" transform="translate(134.57 231.18) rotate(-180)"/>
              <path class="cls-18" d="M52.13,117.44h8.81v-3.7H52.13a3,3,0,0,1-3-3V98.49H45.41v12.24A6.72,6.72,0,0,0,52.13,117.44Z" transform="translate(-4.71)"/>
              <path class="cls-19" d="M18.16,37h81a1.81,1.81,0,0,1,1.8,1.81v.53H16.36v-.53A1.81,1.81,0,0,1,18.16,37Z" transform="translate(-4.71)"/>
            </g>
            <path class="cls-10" d="M50,134.34h81.51a9.55,9.55,0,0,0,9.53-9.53v-7.37h-2.56v7.37a7,7,0,0,1-7,7H50a7,7,0,0,1-7-7V98.49H40.42v26.32A9.55,9.55,0,0,0,50,134.34Z" transform="translate(-4.71)"/>
            <path class="cls-10" d="M43.29,142.46h75.22a8.39,8.39,0,0,0,8.39-8.38V111h-2.56v23.05a5.83,5.83,0,0,1-5.83,5.82H43.29a5.83,5.83,0,0,1-5.82-5.82V98.49H34.91v35.59A8.39,8.39,0,0,0,43.29,142.46Z" transform="translate(-4.71)"/>
            <path class="cls-10" d="M83.09,150.79h2.56a4.42,4.42,0,0,0-4.42-4.41H40.37a8.94,8.94,0,0,1-8.92-8.92v-39H28.9v39a11.49,11.49,0,0,0,11.47,11.47H81.23A1.86,1.86,0,0,1,83.09,150.79Z" transform="translate(-4.71)"/>
            <g>
              <rect class="cls-20" x="135.05" y="96.31" width="5.44" height="15.97"/>
              <path class="cls-21" d="M139.58,110.72H146a0,0,0,0,1,0,0V112a1.56,1.56,0,0,1-1.56,1.56h-3.26a1.56,1.56,0,0,1-1.56-1.56v-1.25a0,0,0,0,1,0,0Z" transform="translate(280.83 224.26) rotate(-180)"/>
              <rect class="cls-20" x="127.11" y="96.31" width="5.44" height="15.97"/>
              <path class="cls-22" d="M131.63,110.72H138a0,0,0,0,1,0,0V112a1.56,1.56,0,0,1-1.56,1.56H133.2a1.56,1.56,0,0,1-1.56-1.56v-1.25A0,0,0,0,1,131.63,110.72Z" transform="translate(264.94 224.26) rotate(-180)"/>
              <path class="cls-10" d="M135.5,117.44H152a5.16,5.16,0,0,0-5.16-5.16h-6.14a5.16,5.16,0,0,0-5.16,5.16Z" transform="translate(-4.71)"/>
              <path class="cls-20" d="M140.66,112.28h2a5.16,5.16,0,0,1,5.16,5.16H135.5A5.16,5.16,0,0,1,140.66,112.28Z" transform="translate(-4.71)"/>
              <path class="cls-10" d="M127.56,117.44H144a5.16,5.16,0,0,0-5.16-5.16h-6.14a5.16,5.16,0,0,0-5.16,5.16Z" transform="translate(-4.71)"/>
              <path class="cls-20" d="M132.72,112.28h2a5.15,5.15,0,0,1,5.15,5.16H127.56A5.16,5.16,0,0,1,132.72,112.28Z" transform="translate(-4.71)"/>
              <g>
                <rect class="cls-10" x="148.41" y="74.39" width="8.45" height="26.7" rx="4.23" transform="translate(300.57 175.48) rotate(180)"/>
                <path class="cls-20" d="M149.66,75.62a2.17,2.17,0,0,1,3,0,4.18,4.18,0,0,1,1.24,3V96.86a4.22,4.22,0,0,1-1.24,3,2.17,2.17,0,0,1-3,0,4.23,4.23,0,0,1-1.25-3V78.61A4.19,4.19,0,0,1,149.66,75.62Z" transform="translate(-4.71)"/>
                <path class="cls-10" d="M154.24,100.72c1.77,0,3.21,2.3,3.21,5.15S156,111,154.24,111H151V100.72Z" transform="translate(-4.71)"/>
                <ellipse class="cls-20" cx="146.33" cy="105.87" rx="3.21" ry="5.16"/>
              </g>
              <path class="cls-10" d="M146,72.42h0a6,6,0,0,1,6,6l0,11a7.51,7.51,0,0,1-7.49,7.53l-12.3,0a7.51,7.51,0,0,1-7.53-7.49l0-11a6,6,0,0,1,6-6h0Z" transform="translate(-4.71)"/>
              <path class="cls-20" d="M133.72,72.45h0c-3.31,0-3.06,2.69-3.05,6l0,11c0,4.15.45,7.51,4.6,7.5h-3.08a7.51,7.51,0,0,1-7.53-7.49l0-11a6,6,0,0,1,6-6Z" transform="translate(-4.71)"/>
              <rect class="cls-20" x="133.98" y="77.29" width="14.23" height="14.23" rx="2.38" transform="translate(277.48 168.8) rotate(-180)"/>
              <rect class="cls-10" x="136.15" y="78.61" width="11.58" height="11.58" rx="1.93" transform="translate(279.17 168.8) rotate(-180)"/>
              <g>
                <path class="cls-10" d="M124.66,101.09h0a4.23,4.23,0,0,0,4.23-4.23V78.61a4.22,4.22,0,0,0-4.23-4.22h0a4.22,4.22,0,0,0-4.22,4.22V96.86A4.22,4.22,0,0,0,124.66,101.09Z" transform="translate(-4.71)"/>
                <path class="cls-20" d="M121.68,75.62a2.17,2.17,0,0,1,3,0,4.19,4.19,0,0,1,1.25,3V96.86a4.23,4.23,0,0,1-1.25,3,2.17,2.17,0,0,1-3,0,4.22,4.22,0,0,1-1.24-3V78.61A4.18,4.18,0,0,1,121.68,75.62Z" transform="translate(-4.71)"/>
                <path class="cls-10" d="M121.26,79.06c0,1.53.87,2.77,1.94,2.77s1.93-1.24,1.93-2.77-.87-2.77-1.93-2.77S121.26,77.53,121.26,79.06Z" transform="translate(-4.71)"/>
                <path class="cls-10" d="M126.27,100.72c1.77,0,3.2,2.3,3.2,5.15S128,111,126.27,111h-3.21V100.72Z" transform="translate(-4.71)"/>
                <ellipse class="cls-20" cx="118.35" cy="105.87" rx="3.21" ry="5.16"/>
              </g>
              <rect class="cls-10" x="123.1" y="53.14" width="31.29" height="19.79" rx="5.38" transform="translate(272.79 126.08) rotate(-180)"/>
              <path class="cls-20" d="M128.48,53.14h4.18a5.37,5.37,0,0,0-5.37,5.38v9a5.36,5.36,0,0,0,5.37,5.37h-4.18a5.37,5.37,0,0,1-5.38-5.37v-9A5.38,5.38,0,0,1,128.48,53.14Z" transform="translate(-4.71)"/>
              <rect class="cls-20" x="121.72" y="57.95" width="34.06" height="10.19" transform="translate(272.79 126.08) rotate(-180)"/>
              <polygon class="cls-23" points="118.77 56.54 149.22 56.54 151.07 57.95 117.01 57.95 118.77 56.54"/>
              <polygon class="cls-23" points="118.77 69.54 149.22 69.54 151.07 68.13 117.01 68.13 118.77 69.54"/>
              <path class="cls-10" d="M131.78,50.63h15.63a0,0,0,0,1,0,0v.28a2.26,2.26,0,0,1-2.26,2.26H134a2.26,2.26,0,0,1-2.26-2.26v-.28A0,0,0,0,1,131.78,50.63Z" transform="translate(274.49 103.81) rotate(-180)"/>
              <path class="cls-10" d="M133.84,67.17h14.31a4.31,4.31,0,0,0,4.3-4.31h0a4.31,4.31,0,0,0-4.3-4.3H133.84a4.31,4.31,0,0,0-4.3,4.3h0A4.31,4.31,0,0,0,133.84,67.17Z" transform="translate(-4.71)"/>
              <circle class="cls-24" cx="143.42" cy="62.86" r="2.85"/>
              <path class="cls-24" d="M133.71,60a2.85,2.85,0,1,1-2.84,2.84A2.84,2.84,0,0,1,133.71,60Z" transform="translate(-4.71)"/>
            </g>
          </g>
        </g>
        <g>
          <path class="cls-15" d="M196.16,51.09c-5.68-1.39-9.74-3.9-12.42-1.84a22.22,22.22,0,0,1-7.18,3.62c-2.27.76-3.62,5.4-2.54,7.89.62,1.42,9.83,7.56,9.83,7.56A48.72,48.72,0,0,0,179,78.37c-2.27,6.26-1.51,5.94-.87,9.72s-3.56,8.86,2.81,10.69,26.47,7.46,32.19,4.11,8.75-8.1,5.62-12.53-3.89-6-3.13-10.91.21-8.86-3.89-11.78-5.62-3.13-7-7.45S200.59,52.17,196.16,51.09Z" transform="translate(-4.71)"/>
          <path class="cls-25" d="M178.12,88.09c-.64-3.78-1.4-3.46.87-9.72a48.72,48.72,0,0,1,4.86-10.05s-2-1.35-4.24-2.93l.35-1.64,15.12-4.32c3.46,1.22,8.57,4.17,8.79,8.93s-1,9.72,3,13.25,4.18,6.41,3.82,9.58c-.3,2.69,4.63,7.56,6.13,9a20.22,20.22,0,0,1-3.72,2.73c-5.72,3.35-25.81-2.27-32.19-4.11S178.77,91.87,178.12,88.09Z" transform="translate(-4.71)"/>
          <g>
            <path class="cls-26" d="M186.37,138.94a215.94,215.94,0,0,1,2.09,46.26c-.37,2.84,5.8,2.91,6.16.07a237.11,237.11,0,0,0,5.23-49Z" transform="translate(-4.71)"/>
            <path class="cls-27" d="M195.48,186.8c0,1.62-1.64,2.15-2.37,2.27-2,.34-2.59,1.14-4.63,1.14-2.77,0-3-.69-3-1.41a2.78,2.78,0,0,1,1.21-2.59c.43-.3,1.73-3,3.83-3a4.14,4.14,0,0,1,3,1.65c.64,1,1.31.39,1.45-1.26A13.76,13.76,0,0,1,195.48,186.8Z" transform="translate(-4.71)"/>
            <path class="cls-28" d="M185.46,188.8c0-.11,0-.22,0-.33.11.26.71.39,1.27.39a15,15,0,0,0,6-1.07c1.15-.3,2.59-.14,2.71-1,0,1.62-1.64,2.15-2.37,2.27-2,.34-2.59,1.14-4.63,1.14C185.71,190.21,185.46,189.52,185.46,188.8Z" transform="translate(-4.71)"/>
          </g>
          <g>
            <path class="cls-26" d="M171.41,140.15a213.05,213.05,0,0,1-6,43.22c-.31,2.21,4.22,2.89,5.38,1.08A232.73,232.73,0,0,0,183.64,140Z" transform="translate(-4.71)"/>
            <path class="cls-27" d="M172,186.74c-.6,1.62-2.71,1-3.76,1-2.84.18-6.08,1.3-8.67.06-1.63-.77-1.29-1.41-1.19-1.93.27-1.52,2-.78,3.57-1.49.59-.27,2.5-2.48,3.12-2.7,1.4-.51,1.69.82,2.63,1.39,1.36.81,3,.79,3.79-.6C172.17,184.43,172.45,185.58,172,186.74Z" transform="translate(-4.71)"/>
            <path class="cls-28" d="M158.32,186.21a9.74,9.74,0,0,0,6.05,1.3c1.72-.21,3.38-.88,5.11-.77a7.22,7.22,0,0,0,1.91.06,1.66,1.66,0,0,0,.7-.32,1.53,1.53,0,0,1-.08.26c-.6,1.62-2.71,1-3.76,1-2.84.18-6.08,1.3-8.67.06C158.25,187.21,158.24,186.67,158.32,186.21Z" transform="translate(-4.71)"/>
          </g>
          <path class="cls-29" d="M184.58,131.87l-1.35,13.95a33.17,33.17,0,0,1-13.76-1.44l1.29-13.68Z" transform="translate(-4.71)"/>
          <path class="cls-29" d="M200.6,130.7l.75,13.15c-4.43,2.89-9.9,3.56-16.1,2.68l-.19-1.42A6.67,6.67,0,0,0,181.3,140h0v-8.08Z" transform="translate(-4.71)"/>
          <g>
            <path class="cls-26" d="M157.27,85.49c7,1.78,14.31,1.88,23.17-.33,4.34-1.09,7.95,1.78,6.82,5.8s-6.3,4.36-9.64,4.71a45,45,0,0,1-20.34-2.83Z" transform="translate(-4.71)"/>
            <path class="cls-30" d="M171,86.66c4.47-.25,18.23-6.45,16.59,3.36-1.21,7.32-15.18,7-20.3,6.3a14.74,14.74,0,0,0,.68-9.76C168.5,86.55,170.51,86.67,171,86.66Z" transform="translate(-4.71)"/>
          </g>
          <g>
            <path class="cls-30" d="M196.38,89.46c3.88,6.73,5.76,30.63,4.65,43.87-9.24,5.25-26.83,2.14-30.54.27a220.9,220.9,0,0,0,1.16-25c-.21-5.47.2-13.61,2.57-19C177.57,82,191.93,81.71,196.38,89.46Z" transform="translate(-4.71)"/>
            <path class="cls-31" d="M171.44,125.32c.33-6.08-.07-5.56,4.95-8.29a21.92,21.92,0,0,0,8.22-7.72c2.38-3.9,2.5-14.3,9.39-12.86,7.42,1.56,3.12,11.66.93,15C190,119.07,180.48,124.27,171.44,125.32Z" transform="translate(-4.71)"/>
            <path class="cls-26" d="M190.36,86.85c-.71,3.21-10.66,5.48-11.56.88C178,83.46,191.23,83,190.36,86.85Z" transform="translate(-4.71)"/>
          </g>
          <g>
            <path class="cls-26" d="M188.55,96.78c-1.57,9.58-8.31,16.58-18,17-5,.22-8.82-.74-8.94,1.46-.18,3.25,5.83,4.47,11.83,4.44,11.16,0,19.19-7,23.2-15.72,1.41-3.08,2.61-8.5.2-11.63C194,88.66,188.66,91.7,188.55,96.78Z" transform="translate(-4.71)"/>
            <path class="cls-30" d="M188.29,96.58c.12-5.44,5.85-8.69,8.88-4.74,2.58,3.35,1.3,9.15-.21,12.44a33.12,33.12,0,0,1-2.72,4.82,11,11,0,0,0-8.48-4.9A24.43,24.43,0,0,0,188.29,96.58Z" transform="translate(-4.71)"/>
            <path class="cls-26" d="M164,116.13c1-3.16-1.36-10.86-3.32-11.12s-.95,5.25-.8,5.57c-.69-.63-8.36-3.81-7.79-1.6.24,1,4.72,2.55,5.25,2.8-.68-.29-8.42-2.74-8.27-.21.07,1.15,5.16,2,7.11,2.71-2.16-.4-6.6-.74-6.72.2-.24,2,6.31,1.9,7,2-1,1.7-5.58,1.15-5,2.5S162.73,120.16,164,116.13Z" transform="translate(-4.71)"/>
          </g>
          <g>
            <path class="cls-26" d="M179.75,88.57c.18-4.06.33-9,.33-9l9.26-.84s-.27,5.65-.27,9.67l-6.24,1.09Z" transform="translate(-4.71)"/>
            <path class="cls-32" d="M183.78,86.36a11.67,11.67,0,0,1-3.95.33c.06-3.66.25-7.14.25-7.14l7.53-.67C187.73,82.56,186.2,85.61,183.78,86.36Z" transform="translate(-4.71)"/>
          </g>
          <circle class="cls-33" cx="195.15" cy="69.32" r="5.22" transform="translate(31.6 202.21) rotate(-59.47)"/>
          <path class="cls-34" d="M192.4,69.23a2.75,2.75,0,1,0,2.84-2.66A2.76,2.76,0,0,0,192.4,69.23Z" transform="translate(-4.71)"/>
          <path class="cls-26" d="M175.58,68.61C175.35,76,178,82,184.36,82.24c5.4.17,10.31-5.6,10.92-12.93s-2-13.44-9.49-13.7C175,55.24,175.82,61.26,175.58,68.61Z" transform="translate(-4.71)"/>
          <path class="cls-35" d="M190.54,63.81a6.9,6.9,0,0,0-1.46-.6,9,9,0,0,0-1.56-.29,9.27,9.27,0,0,0-1.58,0,6.3,6.3,0,0,0-1.54.32.11.11,0,0,0,0,.21h0c.5-.06,1-.1,1.52-.11a12.63,12.63,0,0,1,1.51,0,9.35,9.35,0,0,1,1.5.22,12.74,12.74,0,0,1,1.47.39h0a.1.1,0,0,0,.13-.07A.1.1,0,0,0,190.54,63.81Z" transform="translate(-4.71)"/>
          <path class="cls-35" d="M180,63.23a5.71,5.71,0,0,0-1.91-.52,5.88,5.88,0,0,0-2,.13A.11.11,0,0,0,176,63a.12.12,0,0,0,.1.08c.64,0,1.27,0,1.9.13s1.24.16,1.88.25a.11.11,0,0,0,.07-.21Z" transform="translate(-4.71)"/>
          <path d="M186.46,66.38a.71.71,0,1,0,.73-.68A.7.7,0,0,0,186.46,66.38Z" transform="translate(-4.71)"/>
          <path d="M176.41,66a.71.71,0,1,0,.73-.68A.7.7,0,0,0,176.41,66Z" transform="translate(-4.71)"/>
          <path class="cls-10" d="M178.19,72.88c0,1,1.32,1.83,3,1.88s3.1-.7,3.13-1.68-1.39-.29-3.08-.35S178.22,71.9,178.19,72.88Z" transform="translate(-4.71)"/>
          <path class="cls-10" d="M195.39,73.1a.44.44,0,0,0,.88,0,.44.44,0,1,0-.88,0Z" transform="translate(-4.71)"/>
          <path class="cls-15" d="M182.61,55.25c1.13,2.16,2.1,2.81,5.13,4.59s3.51,3.3,3.72,5.94-1,5.4.65,7.94,5.08,7,5.08,7a8.69,8.69,0,0,0,1.13-4.7c-.32-2.16-2.86-7-2.53-10.15s3-9-1.14-11.29S182.61,55.25,182.61,55.25Z" transform="translate(-4.71)"/>
        </g>
      </g>
    </g>
  </g>
</svg>
