<svg xmlns="http://www.w3.org/2000/svg" xmlns:xlink="http://www.w3.org/1999/xlink" width="217.79" height="221.71" viewBox="0 0 217.79 221.71">
  <defs>
    <style>
      .cls-1 {
        fill: none;
      }

      .cls-2 {
        fill: #8f50a4;
      }

      .cls-3 {
        fill: #d8b009;
        opacity: 0.7;
      }

      .cls-4 {
        opacity: 0.57;
      }

      .cls-5 {
        clip-path: url(#clip-path);
      }

      .cls-6 {
        fill: #632184;
      }

      .cls-7, .cls-8 {
        fill: #420b79;
      }

      .cls-19, .cls-8 {
        opacity: 0.75;
      }

      .cls-9 {
        fill: #d68800;
      }

      .cls-10, .cls-19 {
        fill: #fff;
      }

      .cls-11 {
        fill: #065559;
      }

      .cls-12 {
        fill: url(#linear-gradient);
      }

      .cls-13 {
        fill: #31c3ad;
      }

      .cls-14 {
        fill: url(#linear-gradient-2);
      }

      .cls-15 {
        fill: url(#linear-gradient-3);
      }

      .cls-16 {
        fill: url(#linear-gradient-4);
      }

      .cls-17 {
        fill: url(#linear-gradient-5);
      }

      .cls-18 {
        fill: url(#linear-gradient-6);
      }
    </style>
    <clipPath id="clip-path">
      <path class="cls-1" d="M11.58,114c-2.27-12.74,2.4-24.55,7-36,3.23-7.94,9.93-14.41,13.77-22.18,4.85-9.83,13.23-15.42,22-20.43A125.69,125.69,0,0,1,80,23.81a66.38,66.38,0,0,1,30-2.39c9.21,1.51,18.62,2.44,27.52,5.07,5.7,1.68,10.34,6.69,16,8.94,7,2.8,12.11,7.3,16.68,13,4.37,5.45,9.89,10.09,13.61,15.91a80.54,80.54,0,0,1,9.8,20.74c4.94,17.16,6.63,34.85,2,52.32C191.23,153.8,183.74,169,171,180.48a117.27,117.27,0,0,1-26.17,17.7c-10.76,5.37-21.94,9.09-33.94,9.09-9.56,0-19.54.26-28.59-2.26-10-2.79-20.24-5.92-29.07-12.42-10.2-7.5-20-15.38-26.41-26.29-4.54-7.71-7.42-16.39-11-24.67C12.08,132.85,10.18,123.74,11.58,114Z"/>
    </clipPath>
    <linearGradient id="linear-gradient" x1="149.03" y1="147.26" x2="165.39" y2="147.26" gradientTransform="translate(150.18 -68.03) rotate(45)" gradientUnits="userSpaceOnUse">
      <stop offset="0" stop-color="#19585d"/>
      <stop offset="1" stop-color="#277369"/>
    </linearGradient>
    <linearGradient id="linear-gradient-2" x1="110.68" y1="147.26" x2="124.19" y2="147.26" gradientTransform="translate(138.53 -39.91) rotate(45)" xlink:href="#linear-gradient"/>
    <linearGradient id="linear-gradient-3" x1="219.09" y1="160.29" x2="53.8" y2="257.35" gradientUnits="userSpaceOnUse">
      <stop offset="0" stop-color="#1d3240"/>
      <stop offset="1"/>
    </linearGradient>
    <linearGradient id="linear-gradient-4" x1="162.03" y1="199.6" x2="122.62" y2="222.75" gradientTransform="matrix(1, 0, 0, 1, 0, 0)" xlink:href="#linear-gradient"/>
    <linearGradient id="linear-gradient-5" x1="181.67" y1="199.6" x2="142.26" y2="222.75" gradientTransform="matrix(1, 0, 0, 1, 0, 0)" xlink:href="#linear-gradient"/>
    <linearGradient id="linear-gradient-6" x1="201.3" y1="199.6" x2="161.89" y2="222.75" gradientTransform="matrix(1, 0, 0, 1, 0, 0)" xlink:href="#linear-gradient"/>
  </defs>
  <title>icon1</title>
  <g id="Слой_2" data-name="Слой 2">
    <g id="Layer_1" data-name="Layer 1">
      <g>
        <path class="cls-1" d="M79.4,186.28v-.74c-.46.06-.54-.27-1-.24a1.55,1.55,0,0,0-.25,1.22A1.62,1.62,0,0,0,79.4,186.28Z"/>
        <path class="cls-1" d="M75.22,194.62a3.92,3.92,0,0,1,2.46.74v-1.23C76.54,194.05,75.49,193.14,75.22,194.62Z"/>
        <path class="cls-1" d="M79.4,188.73c-.12.29-1.29-.29-1,1,.46-.05.54.28,1,.25C79.54,189.81,80,188.8,79.4,188.73Z"/>
        <path class="cls-1" d="M72.28,28.54c1,.68,2.25-.11,2.7-.74C74.12,27,72.38,27.26,72.28,28.54Z"/>
        <path class="cls-1" d="M83.09,197.32v.74c.44,0,.58-.25.49-.74Z"/>
        <path class="cls-1" d="M82.59,44a.88.88,0,0,0,1.47-.74C83.32,43,82.64,43.1,82.59,44Z"/>
        <path class="cls-1" d="M81.37,199.53h-.49V200h.49Z"/>
        <path class="cls-1" d="M81.37,200.51c.39,0,.85,0,.74-.49A.68.68,0,0,0,81.37,200.51Z"/>
        <path class="cls-1" d="M63.45,48.47c.46.1.44.7,1.22.49C66,47.8,63.6,46.72,63.45,48.47Z"/>
        <path class="cls-1" d="M63.16,194.13c-.23,1,.74.05,0,0Z"/>
        <path class="cls-1" d="M81.62,181.37s-.2,0-.25,0C79.9,180.82,82.87,182.63,81.62,181.37Z"/>
        <path class="cls-1" d="M68.08,199.78Z"/>
        <path class="cls-1" d="M68.33,193.39c.54.05.78-.19.74-.73C68.43,192.51,68.18,192.76,68.33,193.39Z"/>
        <path class="cls-1" d="M66.61,179.65c-1.29,0-.26,1,0,0Z"/>
        <path class="cls-1" d="M73.74,185.05c.54,0,.78-.2.74-.74C73.94,184.27,73.7,184.52,73.74,185.05Z"/>
        <path class="cls-1" d="M97.31,30.26c0-.53-.2-.78-.73-.73C96.43,30.16,96.68,30.41,97.31,30.26Z"/>
        <path class="cls-1" d="M107.62,26.33c1,.23,0-.74,0,0Z"/>
        <path class="cls-1" d="M105,196.59c.85.35,1.44.2,1-.74C105.33,195.78,104.91,195.94,105,196.59Z"/>
        <path class="cls-1" d="M105.48,200.51c-.81.77.87.42,0,0Z"/>
        <path class="cls-1" d="M110.32,24.85c0-.49.67-.31.49-1C110.19,23.61,109.72,24.7,110.32,24.85Z"/>
        <path class="cls-1" d="M109.66,196.34Z"/>
        <path class="cls-1" d="M111.87,181.12c-.08.34-.35.47-.24,1C112.34,182.17,112.57,181.15,111.87,181.12Z"/>
        <path class="cls-1" d="M109.9,196.1c.76-.19.48.67,1.23.49v-1C110.52,195.57,109.94,195.56,109.9,196.1Z"/>
        <path class="cls-1" d="M85.8,196.1c0-.32.31-.35.24-.74C85.44,195,85.32,196.19,85.8,196.1Z"/>
        <path class="cls-1" d="M103,200c.53,0,.78-.2.73-.73C103.12,199.14,102.87,199.38,103,200Z"/>
        <path class="cls-1" d="M90.23,186.28c-.81.77.86.41,0,0Z"/>
        <path class="cls-1" d="M112.12,189c1.58.13-.22-1.66,0,0Z"/>
        <path class="cls-1" d="M97.57,185.37l-.21.42Z"/>
        <path class="cls-1" d="M94.65,182.84c-.16.16.11-.1,0,0Z"/>
        <path class="cls-1" d="M97.11,183.33c0,.15,0,.29-.24.25v.49C97.47,184.45,97.59,183.24,97.11,183.33Z"/>
        <path class="cls-1" d="M50.37,182.6c.54,0,.79-.2.74-.74C50.47,181.71,50.23,182,50.37,182.6Z"/>
        <path class="cls-1" d="M95.88,190c-.64-.07-1,.09-1,.74.93-.36.47.67,1.23.49C96.33,190.49,95.78,190.55,95.88,190Z"/>
        <path class="cls-1" d="M85.78,35.58c-.44.42.22.83,0,1.73H87c-.18-.75.25-.9.24-1.48A2.1,2.1,0,0,0,85.78,35.58Z"/>
        <path class="cls-1" d="M31.79,150.31v.49c.15,0,.29,0,.24.25h.49c0-.15,0-.3.25-.25v-.49c-.15,0-.29,0-.25-.25H32C32,150.21,32,150.35,31.79,150.31Z"/>
        <path class="cls-1" d="M31.54,79c1,.23.05-.74,0,0Z"/>
        <path class="cls-1" d="M12.4,122c-.2,1.49,1.12.16,0,0Z"/>
        <path class="cls-1" d="M198.18,120.59c-.47-.43-.08-.82.4-1.11,0-.34,0-.69.07-1C197.24,118,195.76,121.22,198.18,120.59Z"/>
        <path class="cls-1" d="M31.3,119.81s0,.19,0,.24C30.75,121.52,32.55,118.55,31.3,119.81Z"/>
        <path class="cls-1" d="M43.81,165.32c1,.23,0-.74,0,0Z"/>
        <path class="cls-1" d="M15.1,105.78v-.73h-.74C14.32,105.58,14.56,105.83,15.1,105.78Z"/>
        <path class="cls-1" d="M13.63,136a.68.68,0,0,0,.49.74C14.09,136.39,14.15,135.93,13.63,136Z"/>
        <path class="cls-1" d="M12.67,108.34a2.2,2.2,0,0,0-1.52-.08c-.1.9-.18,1.79-.25,2.68A2.13,2.13,0,0,0,12.67,108.34Z"/>
        <path class="cls-1" d="M85.32,24c0-.68.29-1.37.26-2l-.18,0c-.42.06-.84.14-1.26.22C84,23,84.15,24,85.32,24Z"/>
        <path class="cls-1" d="M118.6,203.86c.15.44-.72,1,0,1.23.6-.24,1.15.19,1.64.76l1.09-.3A3.63,3.63,0,0,0,118.6,203.86Z"/>
        <path class="cls-1" d="M39.61,49.23c-.17-1.21,1.13-.94.49-2h-.72l-1.27,1.27a.88.88,0,0,0,0,.21C38.65,48.88,38.84,49.35,39.61,49.23Z"/>
        <path class="cls-1" d="M182,61.21l.21-.3c-.25-.41-.53-.8-.8-1.2C181.18,60.33,181.27,61.11,182,61.21Z"/>
        <path class="cls-1" d="M23,82.17c0-.37-.59-.23-1-.25C21.45,82.83,23.22,83,23,82.17Z"/>
        <path class="cls-1" d="M112.12,206.56c.51.35,1.2-.13,1.54.32l.48,0a1.42,1.42,0,0,0,.44-1C113.77,205.23,112.17,205.14,112.12,206.56Z"/>
        <path class="cls-1" d="M106.48,206.8h.08a1.39,1.39,0,0,1,1.17-.64c.23.24.44.49.65.75l1.17,0C109.73,205,105.93,204.7,106.48,206.8Z"/>
        <path class="cls-1" d="M16.57,132.1c-.69-.2-.63.35-1.23.25-.06.8.3,1.18,1,1.23C16.05,132.63,17.19,132.71,16.57,132.1Z"/>
        <path class="cls-1" d="M36.94,82.66a.91.91,0,0,0,.49,1.48C37.81,83.76,37.87,82.45,36.94,82.66Z"/>
        <path class="cls-1" d="M33,148.09a1.16,1.16,0,0,1,.73.25v-.74h-.49C33.26,147.85,33.06,147.9,33,148.09Z"/>
        <path class="cls-1" d="M35,145.63c.61,1,.36-.81,0,0Z"/>
        <path class="cls-1" d="M36.21,120.3c0,.15,0,.29-.25.24-.07.65.34.81,1,.74C37,120.64,36.85,120.22,36.21,120.3Z"/>
        <path class="cls-1" d="M42.59,140.47V141h.73C43.35,140.52,43.08,140.38,42.59,140.47Z"/>
        <path class="cls-1" d="M41.11,134.07c.77.7,1.5-.13,1.72-.74C42.12,132.69,41.38,133.52,41.11,134.07Z"/>
        <path class="cls-1" d="M40.87,86.6c-1-.87-.58.79,0,0Z"/>
        <path class="cls-1" d="M28.6,167v-.73h-.74C27.82,166.84,28.06,167.08,28.6,167Z"/>
        <path class="cls-1" d="M22.71,123.49c.38,0,.19.63.73.5a5.79,5.79,0,0,0,1-2.22A1.69,1.69,0,0,0,22.71,123.49Z"/>
        <path class="cls-1" d="M23.69,141.21c-.07.56.06.92.49,1C24.12,141.75,24.43,141,23.69,141.21Z"/>
        <path class="cls-1" d="M33.26,155.72c-1.37-3-4.16,2-.49,1.72C33.55,156,32.12,155.85,33.26,155.72Z"/>
        <path class="cls-1" d="M23.2,117.1a1.32,1.32,0,0,0-1,.25c0,.67.41.49,0,1C22.91,118.28,23.26,117.9,23.2,117.1Z"/>
        <path class="cls-1" d="M29.33,143.42a1.17,1.17,0,0,1,.25-.74c-.31-.33-1.2-.38-1.23.25C28.84,142.93,28.66,143.6,29.33,143.42Z"/>
        <path class="cls-1" d="M30.81,144.9c0,1.29,1,.25,0,0Z"/>
        <path class="cls-1" d="M29.09,166.54h.49c0-.24.2-.29.24-.49-.31,0-.33-.31-.73-.24Z"/>
        <path class="cls-1" d="M34.49,147.11v1c.78.22.77-.37,1-.73C35.14,147.28,35,147,34.49,147.11Z"/>
        <path class="cls-1" d="M188.61,79.71V79h-.74C187.83,79.51,188.07,79.75,188.61,79.71Z"/>
        <path class="cls-1" d="M191.55,102.09c1.47-.13-.11-1.91-.73-2.21C190.53,101.15,191.8,100.86,191.55,102.09Z"/>
        <path class="cls-1" d="M190.82,90.78c.16.16-.11-.1,0,0Z"/>
        <path class="cls-1" d="M184.68,132.84c.15.07.95.61,1,0C185.51,132.77,184.72,132.23,184.68,132.84Z"/>
        <path class="cls-1" d="M188.85,128.41c.11-.46.53-.61.49-1.22C188.28,126.81,188,128.31,188.85,128.41Z"/>
        <path class="cls-1" d="M184.44,143.91c.33.08.47.35,1,.25C185.48,143.44,184.47,143.21,184.44,143.91Z"/>
        <path class="cls-1" d="M189.84,98.89c-.8-.89.51-1.76,1.22-2a1.87,1.87,0,0,0-1.72-.5C188.65,97.28,188.37,99.53,189.84,98.89Z"/>
        <path class="cls-1" d="M189.84,82.17c-.37,0-.91-.09-1,.24C189.18,82.73,189.77,82.74,189.84,82.17Z"/>
        <path class="cls-1" d="M192,123.74c1,.24.05-.74,0,0Z"/>
        <path class="cls-1" d="M184,128.91h-.5v.49h.5Z"/>
        <path class="cls-1" d="M182.47,142.93c-.1-.11.16.16,0,0Z"/>
        <path class="cls-1" d="M182.47,153.26c1.14.63,1.1-1.78,2.21-2-.24-.9-1-1.25-1.23-2.21A6.83,6.83,0,0,1,182.47,153.26Z"/>
        <path class="cls-1" d="M183.45,148.59c.75.67-.67-.75,0,0Z"/>
        <path class="cls-1" d="M111.55,46a1.62,1.62,0,0,0,1.23.24C113.15,45.51,111.5,45.6,111.55,46Z"/>
        <path class="cls-1" d="M183.7,155.47c.15,0,.29,0,.25.25h.49C184.82,155.12,183.6,155,183.7,155.47Z"/>
        <path class="cls-1" d="M182,157c.24.46-.73.82,0,1-.36-.94,1.1-.05.74-1Z"/>
        <path class="cls-1" d="M186.89,84.38a4.5,4.5,0,0,0,1.47-1.23C187.62,82.53,186.63,83.23,186.89,84.38Z"/>
        <path class="cls-1" d="M193.76,105.29h-.49v.49h.49Z"/>
        <path class="cls-1" d="M192.78,106.77c.77.8.41-.87,0,0Z"/>
        <path class="cls-1" d="M193.52,129.89c.69,0,.61-.69,1-1h-1Z"/>
        <path class="cls-1" d="M192.78,126.69c.77.81.41-.87,0,0Z"/>
        <path class="cls-1" d="M195.23,125c.36.82.62-1,0,0Z"/>
        <path class="cls-1" d="M196.52,113.52v1.23a5,5,0,0,0,2.22.49c0-.86-.06-1.72-.13-2.59A10.08,10.08,0,0,1,196.52,113.52Z"/>
        <path class="cls-1" d="M191.06,138c-.2,1.45.14-1,0,0Z"/>
        <path class="cls-1" d="M189.1,146.37h-1.23C187.78,147.51,188.92,146.94,189.1,146.37Z"/>
        <path class="cls-1" d="M191.55,140.22c-.31.29-.1.93.25,1.23-.29-1,1-.44,1.23-1C192.45,140.47,192.3,140,191.55,140.22Z"/>
        <path class="cls-1" d="M188.61,144.65c1,.13,1-.83,1.23-1.48C188.81,143.05,188.66,143.8,188.61,144.65Z"/>
        <path class="cls-1" d="M183.7,137.76h-.49v.49h.49Z"/>
        <path class="cls-1" d="M190.57,120.79a2.11,2.11,0,0,0-1.47-.25c-.26.93.25,2.35,1,1.48C189.52,121.82,190.5,121.16,190.57,120.79Z"/>
        <path class="cls-1" d="M186.89,150.06h.49v-.49h-.49Z"/>
        <path class="cls-1" d="M190.33,127.43c.32,0,.22.43.49.49,0-.31.31-.34.24-.73C190.77,127.22,190.37,127.14,190.33,127.43Z"/>
        <path class="cls-1" d="M182.23,120.05c.13-1.58-1.66.22,0,0Z"/>
        <path class="cls-1" d="M131.67,33.46c0-.63,1-.35,1-1h-1C132,33,131,33.4,131.67,33.46Z"/>
        <path class="cls-1" d="M129.22,59.54c-.07,1.56,1.15,1.21,1.47.24A2.06,2.06,0,0,0,129.22,59.54Z"/>
        <path class="cls-1" d="M126,41.09c0,.53.2.78.73.74C126.81,41.29,126.56,41,126,41.09Z"/>
        <path class="cls-1" d="M128.73,54.37c0,.62.37.77.73,1C130.24,54.68,129.73,53.69,128.73,54.37Z"/>
        <path class="cls-1" d="M141.73,59c-.14.52-.6.71-.49,1.48.85.82,1.57.14,1.72-1C142.49,59.43,142.52,58.83,141.73,59Z"/>
        <path class="cls-1" d="M137.81,42.56s0,.2,0,.25C137.26,44.28,139.06,41.31,137.81,42.56Z"/>
        <path class="cls-1" d="M137.81,53.63c-.15.89.09,1.39.73,1.48,0-.66.78-.54.74-1.23A2.06,2.06,0,0,0,137.81,53.63Z"/>
        <path class="cls-1" d="M118.66,46v1c.79.22.77-.38,1-.74C119.31,46.18,119.18,45.9,118.66,46Z"/>
        <path class="cls-1" d="M115.48,53.14c.76.8.41-.87,0,0Z"/>
        <path class="cls-1" d="M115.23,39.86c-.19.86.64,1.1,1,.73C116.28,40,115.87,39.79,115.23,39.86Z"/>
        <path class="cls-1" d="M115.81,197.08c-.16.16.1-.11,0,0Z"/>
        <path class="cls-1" d="M118.76,191.19c.1-.92-.74-.76-1-.25C118.11,191,118.25,191.29,118.76,191.19Z"/>
        <path class="cls-1" d="M142.47,43.05c-.8-1.36.88-1.52,1.47-2.21C142.09,38.74,139.78,42.61,142.47,43.05Z"/>
        <path class="cls-1" d="M118.66,39.37c-.83-3.13,2.42-2.83,3.93-1.24C120.91,33.72,114.38,37.59,118.66,39.37Z"/>
        <path class="cls-1" d="M118.51,194.13c.37,0,.23-.59.25-1C117.86,192.63,117.65,194.4,118.51,194.13Z"/>
        <path class="cls-1" d="M166.52,99.14c-.2,1.49,1.13.17,0,0Z"/>
        <path class="cls-1" d="M175.6,84.38c-.34-1,.53-.78.49-1.47C174.4,81.18,173.25,84.42,175.6,84.38Z"/>
        <path class="cls-1" d="M176.34,98.4c.42.45,1-.07,1-.73C176.68,97.6,176.26,97.76,176.34,98.4Z"/>
        <path class="cls-1" d="M156.7,38.63c-1-.12-.63.87-.24,1.23C156.36,39.27,156.91,39.32,156.7,38.63Z"/>
        <path class="cls-1" d="M179,84.14c.35.81.61-1,0,0Z"/>
        <path class="cls-1" d="M172.66,79c-.34.41-.57,2.2.49,2-.26-1.08.83-.81.73-1.72C173.29,79.32,173.35,78.77,172.66,79Z"/>
        <path class="cls-1" d="M183.45,88.07c.17-.66-.5-.47-.73-.74C182.57,88,182.82,88.22,183.45,88.07Z"/>
        <path class="cls-1" d="M184.93,104.31c-.42-.1,0-.32,0-.74-.32,0-.34-.32-.74-.25C183.94,104,184.57,105,184.93,104.31Z"/>
        <path class="cls-1" d="M174.62,106.77c.83.74.74-.91,0,0Z"/>
        <path class="cls-1" d="M158.91,46.75c-.59.82.83-.6,0,0Z"/>
        <path class="cls-1" d="M167.75,97.42c1,.24.05-.74,0,0Z"/>
        <path class="cls-1" d="M157.44,47.24s0,.2,0,.24C156.89,49,158.7,46,157.44,47.24Z"/>
        <path class="cls-1" d="M161.12,65.69h.49v-.5h-.49Z"/>
        <path class="cls-1" d="M165.78,98.65c-.31,0-.33-.32-.73-.25C164.67,99,165.88,99.13,165.78,98.65Z"/>
        <path class="cls-1" d="M183.21,127.43c-1.09-1,1.44-.51,1.47-1.23-1.18.44-.88-.34-2.21-.25C181.63,126.24,182.34,128.31,183.21,127.43Z"/>
        <path class="cls-1" d="M166.28,97.17c-.17.67.5.48.73.74C167.16,97.27,166.91,97,166.28,97.17Z"/>
        <path class="cls-2" d="M106.5,206.91s0-.07.06-.1h-.08S106.49,206.87,106.5,206.91Z"/>
        <path class="cls-2" d="M196.52,113.52a10.08,10.08,0,0,0,2.09-.87,35.67,35.67,0,0,0-1.76-8.65c-2.78-8.21-2.62-17.52-6-25.42a119,119,0,0,0-8.66-17.67l-.21.3c-.75-.1-.84-.88-.59-1.5-.27-.41-.53-.82-.81-1.22a4.26,4.26,0,0,1-.6,1.29c-1.08.18-1-.82-1-1.72a1.39,1.39,0,0,1,1.09-.25,41,41,0,0,0-9.68-9.63c-5.94-7.91-13.71-13-22.59-16.57-8.36-3.34-16.54-7.44-25.2-9.69C110.47,18.77,98,20.09,85.58,22c0,.62-.31,1.31-.26,2C84.15,24,84,23,84.14,22.23c-10.31,1.83-19.38,6.65-28.08,11.56-6.12,3.45-11.52,8.38-16.68,13.47h.72c.64,1-.66.76-.49,2-.77.12-1-.35-1.47-.49a.88.88,0,0,1,0-.21L34.24,52.4c-8.48,8.49-13.75,19-17.57,30.43a118.55,118.55,0,0,0-5.52,25.43,2.2,2.2,0,0,1,1.52.08,2.13,2.13,0,0,1-1.77,2.6c-.08,1-.16,1.94-.21,2.91-.07,1.45-.09,2.88-.08,4.31a2.35,2.35,0,0,1,3-1.06,4.4,4.4,0,0,0-1.48,3.44c-.7-.56-1-.31-1.49,0,.62,14.62,5.7,28.4,13.1,41.12,9.09,15.63,22.79,26.94,38.42,35.58A80.81,80.81,0,0,0,83.77,205c6.75,1.48,13.93.86,20.88,1.63l1.83.17c-.55-2.1,3.25-1.79,3.07.16,1.38,0,2.75,0,4.11-.08-.34-.45-1,0-1.54-.32,0-1.42,1.65-1.33,2.46-.73a1.42,1.42,0,0,1-.44,1,36.74,36.74,0,0,0,6.1-1c-.49-.57-1-1-1.64-.76-.72-.21.15-.79,0-1.23a3.63,3.63,0,0,1,2.73,1.69,35.87,35.87,0,0,0,4.31-1.53c5.57-2.38,12.4-2.12,17.62-5,8.15-4.43,15.46-10.43,23-15.88a66.36,66.36,0,0,0,19.53-22.91,92.62,92.62,0,0,0,4-8.49h-.22c0-.2-.09-.23-.25-.24-.06-.31.41-.37.66-.22.23-.56.46-1.14.68-1.71a.18.18,0,0,0-.11,0,.25.25,0,0,1,.2-.19,153.85,153.85,0,0,0,5-15.38,80.68,80.68,0,0,0,2.84-14.52c-.48.29-.87.68-.4,1.11-2.42.63-.94-2.62.47-2.15.07-1.06.1-2.13.09-3.2a5,5,0,0,1-2.22-.49ZM12.4,122c1.12.16-.2,1.49,0,0Zm20.12,28c0,.21.1.23.25.25v.49c-.21-.05-.23.1-.25.25H32c0-.21-.09-.24-.24-.25v-.49c.21,0,.23-.1.24-.25ZM31.54,79c.05-.74,1,.23,0,0Zm-.24,40.84c1.25-1.26-.55,1.71,0,.24C31.32,120,31.26,119.84,31.3,119.81ZM13.63,136c.52-.11.46.35.49.74A.68.68,0,0,1,13.63,136Zm1.47-30.26c-.54,0-.78-.2-.74-.73h.74Zm1.23,27.8c-.69-.05-1-.43-1-1.23.6.1.54-.45,1.23-.25C17.19,132.71,16.05,132.63,16.33,133.58ZM22,81.92c.39,0,.94-.12,1,.25C23.22,83,21.45,82.83,22,81.92Zm.25,35.43a1.32,1.32,0,0,1,1-.25c.06.8-.29,1.18-1,1.23C22.63,117.84,22.19,118,22.22,117.35Zm2,24.84c-.43-.06-.56-.42-.49-1C24.43,141,24.12,141.75,24.18,142.19ZM23.44,124c-.54.13-.35-.47-.73-.5a1.69,1.69,0,0,1,1.72-1.72A5.79,5.79,0,0,1,23.44,124Zm5.16,43c-.54.05-.78-.19-.74-.73h.74Zm-.25-24.1c0-.63.92-.58,1.23-.25a1.17,1.17,0,0,0-.25.74C28.66,143.6,28.84,142.93,28.35,142.93Zm1.23,23.61h-.49v-.73c.4-.07.42.23.73.24C29.78,166.25,29.58,166.3,29.58,166.54Zm1.23-21.64c1,.25,0,1.29,0,0Zm2,12.54c-3.67.32-.88-4.71.49-1.72C32.12,155.85,33.55,156,32.77,157.44Zm1-9.1a1.16,1.16,0,0,0-.73-.25c0-.19.24-.24.24-.49h.49ZM35,145.63c.36-.81.61,1,0,0Zm-.49,2.46v-1c.51-.1.65.17,1,.25C35.26,147.72,35.27,148.31,34.49,148.09Zm2.45-26.81c-.64.07-1-.09-1-.74.21,0,.23-.09.25-.24C36.85,120.22,37,120.64,36.94,121.28Zm.49-37.14a.91.91,0,0,1-.49-1.48C37.87,82.45,37.81,83.76,37.43,84.14Zm3.44,2.46c-.58.79-1-.87,0,0Zm.24,47.47c.27-.55,1-1.38,1.72-.74C42.61,133.94,41.88,134.77,41.11,134.07ZM42.59,141v-.49c.49-.09.76.05.73.49Zm1.22,24.36c0-.74,1,.23,0,0Zm6.56,17.28c-.14-.64.1-.89.74-.74C51.16,182.4,50.91,182.64,50.37,182.6Zm31-1.23s.21,0,.25,0C82.87,182.63,79.9,180.82,81.37,181.37ZM63.16,194.13c.74.05-.23,1,0,0ZM64.67,49c-.78.21-.76-.39-1.22-.49C63.6,46.72,66,47.8,64.67,49Zm1.94,130.69c-.26,1-1.29,0,0,0Zm1.47,20.13Zm.25-6.39c-.15-.63.1-.88.74-.73C69.11,193.2,68.87,193.44,68.33,193.39Zm5.41-8.34c0-.53.2-.78.74-.74C74.52,184.85,74.28,185.1,73.74,185.05ZM72.28,28.54c.1-1.28,1.84-1.57,2.7-.74C74.53,28.43,73.26,29.22,72.28,28.54Zm5.4,166.82a3.92,3.92,0,0,0-2.46-.74c.27-1.48,1.32-.57,2.46-.49Zm.74-10.06c.44,0,.52.3,1,.24v.74a1.62,1.62,0,0,1-1.23.24A1.55,1.55,0,0,1,78.42,185.3Zm1,4.66c-.44,0-.52-.3-1-.25-.31-1.27.86-.69,1-1C80,188.8,79.54,189.81,79.4,190Zm1.48,9.57h.49V200h-.49Zm.49,1a.68.68,0,0,1,.74-.49C82.22,200.55,81.76,200.49,81.37,200.51Zm1.72-2.45v-.74h.49C83.67,197.81,83.53,198.09,83.09,198.06Zm-.5-154c0-.94.73-1.09,1.47-.74A.88.88,0,0,1,82.59,44ZM85.8,196.1c-.48.09-.36-1.12.24-.74C86.11,195.75,85.81,195.78,85.8,196.1ZM87,37.31H85.78c.22-.9-.44-1.31,0-1.73a2.1,2.1,0,0,1,1.47.25C87.26,36.41,86.83,36.56,87,37.31Zm3.22,149c.86.41-.81.77,0,0Zm4.42-3.44Zm1.48,8.35c-.76.18-.3-.85-1.23-.49-.07-.65.34-.81,1-.74C95.78,190.55,96.33,190.49,96.13,191.19Zm.45-161.66c.53-.05.78.2.73.73C96.68,30.41,96.43,30.16,96.58,29.53Zm.29,154.54v-.49c.21,0,.23-.1.24-.25C97.59,183.24,97.47,184.45,96.87,184.07Zm.49,1.72.21-.42ZM103,200c-.15-.64.1-.88.73-.73C103.8,199.82,103.55,200.07,103,200Zm2.46.49c.87.42-.81.77,0,0Zm-.5-3.92c-.07-.65.35-.81,1-.74C106.42,196.79,105.83,196.94,105,196.59Zm2.64-170.26c0-.74,1,.23,0,0Zm3.19-2.46c.18.67-.49.49-.49,1C109.72,24.7,110.19,23.61,110.81,23.87Zm-1.15,172.47Zm1.47.25c-.75.18-.47-.68-1.23-.49,0-.54.62-.53,1.23-.5Zm.5-14.48c-.11-.52.16-.65.24-1C112.57,181.15,112.34,182.17,111.63,182.11Zm.49,6.87c-.22-1.66,1.58.13,0,0Zm.66-142.73a1.62,1.62,0,0,1-1.23-.24C111.5,45.6,113.15,45.51,112.78,46.25Zm3,150.83c.1-.11-.16.16,0,0Zm-.33-143.94c.41-.87.76.8,0,0Zm-.25-13.28c.64-.07,1,.09,1,.73C115.87,41,115,40.72,115.23,39.86Zm3.28,154.27c-.86.27-.65-1.5.25-1C118.74,193.54,118.88,194.09,118.51,194.13Zm-.73-3.19c.24-.51,1.08-.67,1,.25C118.25,191.29,118.11,191,117.78,190.94ZM118.66,47V46c.52-.11.65.17,1,.24C119.43,46.61,119.45,47.21,118.66,47Zm0-7.62c-4.28-1.78,2.25-5.65,3.93-1.24C121.08,36.54,117.83,36.24,118.66,39.37ZM126,41.09c.53-.05.78.2.73.74C126.23,41.87,126,41.62,126,41.09Zm2.7,13.28c1-.68,1.51.31.73,1C129.1,55.14,128.69,55,128.73,54.37Zm.49,5.17a2.06,2.06,0,0,1,1.47.24C130.37,60.75,129.15,61.1,129.22,59.54Zm2.45-26.08c-.63-.06.34-.42,0-1h1C132.63,33.11,131.7,32.83,131.67,33.46Zm6.14,9.35c0-.05,0-.21,0-.25C139.06,41.31,137.26,44.28,137.81,42.81Zm.73,12.3c-.64-.09-.88-.59-.73-1.48a2.06,2.06,0,0,1,1.47.25C139.32,54.57,138.54,54.45,138.54,55.11Zm2.7,5.41c-.11-.77.35-1,.49-1.48.79-.21.76.39,1.23.5C142.81,60.66,142.09,61.34,141.24,60.52Zm1.23-17.47c-2.69-.44-.38-4.31,1.47-2.21C143.35,41.53,141.67,41.69,142.47,43.05Zm14-3.19c-.39-.36-.78-1.35.24-1.23C156.91,39.32,156.36,39.27,156.46,39.86Zm1,7.62s0-.21,0-.24C158.7,46,156.89,49,157.44,47.48Zm1.47-.73c.83-.6-.59.82,0,0Zm2.7,18.94h-.49v-.5h.49Zm3.44,32.71c.4-.07.42.24.73.25C165.88,99.13,164.67,99,165.05,98.4Zm1.47.74c1.13.17-.2,1.49,0,0Zm.49-1.23c-.23-.26-.9-.07-.73-.74C166.91,97,167.16,97.27,167,97.91Zm.74-.49c.05-.74,1,.24,0,0Zm5.4-16.48c-1.06.23-.83-1.56-.49-2,.69-.2.63.35,1.22.25C174,80.13,172.89,79.86,173.15,80.94Zm1.47,25.83c.74-.91.83.74,0,0Zm1-22.39c-2.35,0-1.2-3.2.49-1.47C176.13,83.6,175.26,83.39,175.6,84.38Zm.74,14c-.08-.64.34-.8,1-.73C177.3,98.33,176.76,98.85,176.34,98.4ZM179,84.14c.61-1,.35.81,0,0Zm5.15,19.18c.4-.07.42.24.74.25,0,.42-.42.64,0,.74C184.57,105,183.94,104,184.19,103.32Zm-1.47-16c.23.27.9.08.73.74C182.82,88.22,182.57,88,182.72,87.33ZM182.47,126c1.33-.09,1,.69,2.21.25,0,.72-2.56.2-1.47,1.23C182.34,128.31,181.63,126.24,182.47,126Zm.74,12.3v-.49h.49v.49Zm.24,10.34c-.67-.75.75.67,0,0Zm0-19.19v-.49h.5v.49Zm-1,13.53c.16.16-.1-.11,0,0Zm-.24-22.88c-1.66.22.13-1.58,0,0ZM182,157.94c-.73-.17.24-.53,0-1h.74C183.08,157.89,181.62,157,182,157.94Zm2.46-2.22H184c0-.21-.1-.23-.25-.25C183.6,155,184.82,155.12,184.44,155.72Zm-2-2.46a6.83,6.83,0,0,0,1-4.18c.19,1,1,1.31,1.23,2.21C183.57,151.48,183.61,153.89,182.47,153.26Zm2-9.35c0-.7,1-.47,1,.25C184.91,144.26,184.77,144,184.44,143.91Zm.24-11.07c0-.61.83-.07,1,0C185.63,133.45,184.83,132.91,184.68,132.84Zm7.36-9.1c.05-.74,1,.24,0,0Zm-.49-21.65c.25-1.23-1-.94-.73-2.21C191.44,100.18,193,102,191.55,102.09Zm-.73-11.31Zm-1-8.61c-.07.57-.66.56-1,.24C188.93,82.08,189.47,82.21,189.84,82.17Zm-.5,14.26a1.87,1.87,0,0,1,1.72.5c-.71.2-2,1.07-1.22,2C188.37,99.53,188.65,97.28,189.34,96.43Zm0,30.76c0,.61-.38.76-.49,1.22C188,128.31,188.28,126.81,189.34,127.19ZM188.61,79v.74c-.54,0-.78-.2-.74-.74Zm-1.23,71.09h-.49v-.49h.49Zm-.49-65.68c-.26-1.15.73-1.85,1.47-1.23A4.5,4.5,0,0,1,186.89,84.38Zm1,62h1.23C188.92,146.94,187.78,147.51,187.87,146.37Zm.74-1.72c0-.85.2-1.6,1.23-1.48C189.58,143.82,189.64,144.78,188.61,144.65Zm.49-24.11a2.11,2.11,0,0,1,1.47.25c-.07.37-1,1-.49,1.23C189.35,122.89,188.84,121.47,189.1,120.54Zm1.23,6.89c0-.29.44-.21.73-.24.07.39-.23.42-.24.73C190.55,127.86,190.65,127.43,190.33,127.43Zm.73,10.58c.14-1-.2,1.45,0,0Zm.74,3.44c-.35-.3-.56-.94-.25-1.23.75-.18.9.25,1.48.25C192.83,141,191.51,140.42,191.8,141.45Zm1-14.76c.41-.87.77.81,0,0Zm0-19.92c.41-.87.77.8,0,0Zm.49-1.48h.49v.49h-.49Zm.25,24.6v-1h1C194.13,129.2,194.21,129.93,193.52,129.89Zm1.71-4.92c.62-1,.36.82,0,0Z"/>
        <path class="cls-2" d="M106.56,206.81l1.82.11c-.21-.26-.42-.51-.65-.75A1.39,1.39,0,0,0,106.56,206.81Z"/>
      </g>
      <path class="cls-3" d="M215.82,221.71H124.44a2,2,0,0,1,0-3.92h91.38a2,2,0,1,1,0,3.92Z"/>
      <g class="cls-4">
        <g class="cls-5">
          <g>
            <g>
              <g>
                <g>
                  <path class="cls-6" d="M132.42,62.83h-.71a.84.84,0,0,0-.74.86v9.36a.89.89,0,0,0,.74.91h.71c.35,0,.52-.42.52-.91V63.69C132.94,63.2,132.77,62.83,132.42,62.83Z"/>
                  <path class="cls-6" d="M142.9,62.83h-.71a.84.84,0,0,0-.74.86v9.36a.89.89,0,0,0,.74.91h.71c.35,0,.52-.42.52-.91V63.69C143.42,63.2,143.25,62.83,142.9,62.83Z"/>
                </g>
                <path class="cls-6" d="M145.82,67.19a.87.87,0,0,1-.87.88H129.66a.87.87,0,0,1-.87-.88h0a.87.87,0,0,1,.87-.87H145a.87.87,0,0,1,.87.87Z"/>
              </g>
              <path class="cls-6" d="M144.74,71.78H131.4a2.57,2.57,0,0,0-2.61,2.47v83.54h17.57a.81.81,0,0,0,.77-.9V74.25A2.38,2.38,0,0,0,144.74,71.78Z"/>
              <rect class="cls-6" x="41.04" y="87.49" width="96.27" height="6.33"/>
              <rect class="cls-6" x="41.04" y="151.45" width="96.27" height="6.33"/>
              <rect class="cls-6" x="41.04" y="120.89" width="96.27" height="6.33"/>
              <rect class="cls-6" x="42.35" y="140.32" width="93.87" height="1.96"/>
              <g>
                <path class="cls-6" d="M48.47,71.78H35.13a2.57,2.57,0,0,0-2.61,2.47v82.64a1,1,0,0,0,1,.9H50.86V74.25A2.38,2.38,0,0,0,48.47,71.78Z"/>
                <g>
                  <g>
                    <path class="cls-6" d="M36.15,62.83h-.71a.84.84,0,0,0-.73.86v9.36a.89.89,0,0,0,.73.91h.71c.35,0,.52-.42.52-.91V63.69C36.67,63.2,36.5,62.83,36.15,62.83Z"/>
                    <path class="cls-6" d="M46.63,62.83h-.71a.84.84,0,0,0-.73.86v9.36a.89.89,0,0,0,.73.91h.71c.35,0,.52-.42.52-.91V63.69C47.15,63.2,47,62.83,46.63,62.83Z"/>
                  </g>
                  <path class="cls-6" d="M49.55,67.19a.87.87,0,0,1-.87.88H33.4a.88.88,0,0,1-.88-.88h0a.88.88,0,0,1,.88-.87H48.68a.87.87,0,0,1,.87.87Z"/>
                </g>
              </g>
              <g>
                <path class="cls-6" d="M96.06,80.73H82.72a2.43,2.43,0,0,0-2.61,2.12v71a1,1,0,0,0,1,.88H98.45V82.85A2.22,2.22,0,0,0,96.06,80.73Z"/>
                <g>
                  <g>
                    <path class="cls-6" d="M83.74,71.78H83a.84.84,0,0,0-.73.86V82a.89.89,0,0,0,.73.91h.71c.35,0,.52-.42.52-.91V72.64C84.26,72.15,84.09,71.78,83.74,71.78Z"/>
                    <path class="cls-6" d="M94.22,71.78h-.71a.84.84,0,0,0-.74.86V82a.89.89,0,0,0,.74.91h.71c.35,0,.52-.42.52-.91V72.64C94.74,72.15,94.57,71.78,94.22,71.78Z"/>
                  </g>
                  <path class="cls-6" d="M97.14,76.14a.87.87,0,0,1-.87.88H81a.87.87,0,0,1-.88-.88h0a.87.87,0,0,1,.88-.87H96.27a.87.87,0,0,1,.87.87Z"/>
                </g>
              </g>
            </g>
            <g>
              <rect class="cls-6" x="161.97" y="97.1" width="43.66" height="5.46"/>
              <path class="cls-6" d="M162,152.33v5.46H208.9a2.64,2.64,0,0,0,2.62-2.65v-2.81Z"/>
              <rect class="cls-6" x="161.97" y="125.91" width="43.66" height="5.46"/>
              <rect class="cls-6" x="162.41" y="142.72" width="43" height="1.75"/>
              <rect class="cls-6" x="162.41" y="113.25" width="43" height="1.75"/>
              <g>
                <path class="cls-6" d="M168.34,83.35H156.8a2.3,2.3,0,0,0-2.25,2.23V157a.87.87,0,0,0,.85.78h15.09V85.58A2.21,2.21,0,0,0,168.34,83.35Z"/>
                <g>
                  <g>
                    <path class="cls-6" d="M157.69,75.71h-.62a.67.67,0,0,0-.56.74v8.09c0,.42.26.77.56.77h.62c.3,0,.35-.35.35-.77V76.45C158,76,158,75.71,157.69,75.71Z"/>
                    <path class="cls-6" d="M166.74,75.71h-.61a.75.75,0,0,0-.67.74v8.09a.78.78,0,0,0,.67.77h.61c.3,0,.47-.35.47-.77V76.45C167.21,76,167,75.71,166.74,75.71Z"/>
                  </g>
                  <rect class="cls-6" x="154.55" y="78.76" width="14.63" height="1.53" rx="0.75"/>
                </g>
              </g>
              <g>
                <path class="cls-6" d="M209.47,91.21H197.94c-1.2,0-2.35.77-2.35,1.8v61.37c0,.35.53.79.94.79h15V93A1.88,1.88,0,0,0,209.47,91.21Z"/>
                <g>
                  <g>
                    <path class="cls-6" d="M198.82,83.35h-.61a.85.85,0,0,0-.66.84v8.08c0,.43.36.9.66.9h.61c.3,0,.48-.47.48-.9V84.19C199.3,83.76,199.12,83.35,198.82,83.35Z"/>
                    <path class="cls-6" d="M207.88,83.35h-.62c-.3,0-.54.41-.54.84v8.08c0,.43.24.9.54.9h.62c.3,0,.37-.47.37-.9V84.19C208.25,83.76,208.18,83.35,207.88,83.35Z"/>
                  </g>
                  <rect class="cls-6" x="195.59" y="86.4" width="14.63" height="1.53" rx="0.75"/>
                </g>
              </g>
            </g>
          </g>
        </g>
      </g>
      <g>
        <path class="cls-7" d="M62.34,197.76V10.84c0-3.69-1.55-6.83-3.66-7.39L45.85.09c-2.62-.69-5,2.86-5,7.47l.49,176.2A129.66,129.66,0,0,0,62.34,197.76Z"/>
        <g>
          <path class="cls-7" d="M121.42,18.73c-.76-2.93-2.88-7.7-8.6-8.41-7.6-.94-66.63-1.51-77.23-1.6a1.9,1.9,0,0,0-1.9,1.62,51.43,51.43,0,0,0-.55,12.07,1.92,1.92,0,0,0,2,1.71l84.54-3A1.91,1.91,0,0,0,121.42,18.73Zm-4.28-.25L37.62,21.29a1.84,1.84,0,0,1-1.91-1.8,51.11,51.11,0,0,1,.34-6.15,2.1,2.1,0,0,1,2.11-1.86c31.38.29,68.73.86,74.32,1.56a6.83,6.83,0,0,1,5.46,4.1A.93.93,0,0,1,117.14,18.48Z"/>
          <path class="cls-6" d="M37.63,8.53c0,3.85.07,13.17.5,18a1.74,1.74,0,0,0,1.74,1.59c4.45,0,17.24-.18,23.23-1a1.73,1.73,0,0,0,1.47-1.51c.41-3.28,1.33-12,.23-16.7a1.73,1.73,0,0,0-1.61-1.36c-4.07-.19-17.33-.78-23.82-.79A1.74,1.74,0,0,0,37.63,8.53Z"/>
          <path class="cls-7" d="M43.06,9.92l.43,13.48a1.86,1.86,0,0,0,1.89,1.79l11.56-.3A1.86,1.86,0,0,0,58.74,23V10.47A1.84,1.84,0,0,0,57,8.63L45,8A1.84,1.84,0,0,0,43.06,9.92Z"/>
          <rect class="cls-7" x="110.89" y="17.47" width="1.1" height="33.41"/>
          <rect class="cls-7" x="101.01" y="33.46" width="33.74" height="1.1" transform="translate(83.47 151.77) rotate(-89.8)"/>
          <g>
            <circle class="cls-7" cx="114.71" cy="51.62" r="3.92"/>
            <path class="cls-8" d="M117,51.62a2.33,2.33,0,1,1-2.32-2.33A2.32,2.32,0,0,1,117,51.62Z"/>
            <path class="cls-7" d="M112,65.87l-1.35-7.32a2.49,2.49,0,0,1,2.45-2.94h3.34a2.9,2.9,0,0,1,2.89,3.12l-.59,7.53a3.49,3.49,0,0,1-1.38,2.51,8.88,8.88,0,0,0-3.3,6.42c-.59,5.68,4.75,7.59,8,7,2.56-.48,4-3.57,3.4-5.89a1.36,1.36,0,0,1,1.31-1.69h0a1.35,1.35,0,0,1,1.31,1c.64,2.56,1.48,9.18-6.55,10.49-9.51,1.54-18.74-8.6-10.61-16.79A3.93,3.93,0,0,0,112,65.87Z"/>
          </g>
          <circle class="cls-7" cx="114.71" cy="16.9" r="3.92"/>
          <path class="cls-8" d="M117,16.9a2.33,2.33,0,1,1-2.32-2.33A2.32,2.32,0,0,1,117,16.9Z"/>
        </g>
      </g>
      <g>
        <path class="cls-9" d="M3.15,172.27a.87.87,0,0,1-.44-1.61l32.95-19.39,33-22.73a.88.88,0,0,1,.24-.11l32.77-10L134.7,86.94a.83.83,0,0,1,.5-.23l33-3.48,32.31-19.58a.87.87,0,0,1,.9,1.48L169,84.81a.77.77,0,0,1-.36.12L135.68,88.4l-33,31.46a.94.94,0,0,1-.35.2l-32.84,10L36.62,152.71l-.06,0-33,19.41A.88.88,0,0,1,3.15,172.27Z"/>
        <g>
          <path class="cls-10" d="M.87,171.41a2.29,2.29,0,1,1,2.28,2.26A2.28,2.28,0,0,1,.87,171.41Z"/>
          <path class="cls-9" d="M3.15,174.53a3.13,3.13,0,1,1,3.15-3.12A3.14,3.14,0,0,1,3.15,174.53Zm0-4.52a1.4,1.4,0,1,0,1.42,1.4A1.41,1.41,0,0,0,3.15,170Z"/>
        </g>
        <g>
          <path class="cls-10" d="M66.81,129.26a2.29,2.29,0,1,1,2.29,2.26A2.27,2.27,0,0,1,66.81,129.26Z"/>
          <path class="cls-9" d="M69.1,132.38a3.13,3.13,0,1,1,3.15-3.12A3.14,3.14,0,0,1,69.1,132.38Zm0-4.52a1.4,1.4,0,1,0,1.42,1.4A1.41,1.41,0,0,0,69.1,127.86Z"/>
        </g>
        <g>
          <path class="cls-10" d="M132.79,87.57a2.29,2.29,0,1,1,2.29,2.26A2.27,2.27,0,0,1,132.79,87.57Z"/>
          <path class="cls-9" d="M135.08,90.7a3.13,3.13,0,1,1,3.15-3.13A3.15,3.15,0,0,1,135.08,90.7Zm0-4.53a1.4,1.4,0,1,0,1.42,1.4A1.41,1.41,0,0,0,135.08,86.17Z"/>
        </g>
        <g>
          <path class="cls-10" d="M199.09,64.39a2.29,2.29,0,1,1,2.28,2.26A2.27,2.27,0,0,1,199.09,64.39Z"/>
          <path class="cls-9" d="M201.37,67.52a3.13,3.13,0,1,1,3.15-3.13A3.15,3.15,0,0,1,201.37,67.52Zm0-4.53a1.4,1.4,0,1,0,1.42,1.4A1.41,1.41,0,0,0,201.37,63Z"/>
        </g>
        <g>
          <path class="cls-10" d="M33.84,152a2.29,2.29,0,1,1,2.28,2.26A2.27,2.27,0,0,1,33.84,152Z"/>
          <path class="cls-9" d="M36.12,155.13A3.13,3.13,0,1,1,39.27,152,3.15,3.15,0,0,1,36.12,155.13Zm0-4.53a1.4,1.4,0,1,0,0,2.79,1.4,1.4,0,1,0,0-2.79Z"/>
        </g>
        <g>
          <path class="cls-10" d="M99.79,119.24a2.29,2.29,0,1,1,2.28,2.26A2.28,2.28,0,0,1,99.79,119.24Z"/>
          <path class="cls-9" d="M102.07,122.36a3.13,3.13,0,1,1,3.15-3.12A3.14,3.14,0,0,1,102.07,122.36Zm0-4.52a1.4,1.4,0,1,0,1.42,1.4A1.41,1.41,0,0,0,102.07,117.84Z"/>
        </g>
        <g>
          <path class="cls-10" d="M165.73,84.07A2.29,2.29,0,1,1,168,86.34,2.28,2.28,0,0,1,165.73,84.07Z"/>
          <path class="cls-9" d="M168,87.2a3.13,3.13,0,1,1,3.15-3.13A3.14,3.14,0,0,1,168,87.2Zm0-4.52a1.4,1.4,0,1,0,0,2.79,1.4,1.4,0,1,0,0-2.79Z"/>
        </g>
      </g>
      <g>
        <rect class="cls-11" x="159.73" y="141.87" width="8.96" height="34.7" transform="translate(-54.67 92.83) rotate(-27.24)"/>
        <rect class="cls-11" x="114.41" y="143.51" width="39.27" height="7.58"/>
        <g>
          <circle class="cls-12" cx="157.21" cy="147.26" r="8.18" transform="translate(-58.09 154.3) rotate(-45)"/>
          <path class="cls-13" d="M162.07,147.26a4.86,4.86,0,1,1-4.86-4.85A4.86,4.86,0,0,1,162.07,147.26Z"/>
        </g>
        <g>
          <g>
            <path class="cls-13" d="M114.77,137.13l-7.61-4.37a2.87,2.87,0,0,0-1.81-.35l-7.79,1a1.69,1.69,0,0,0-1.15.67,1.76,1.76,0,0,0-.31,1.3l.31,1.8a1.71,1.71,0,0,0,1.91,1.4l4.79-.67a8,8,0,0,1,6.22,1.81l6.63,5.63.82-3.72A4.17,4.17,0,0,0,114.77,137.13Z"/>
            <path class="cls-13" d="M114.77,156.47l-7.61,4.36a2.87,2.87,0,0,1-1.81.36l-7.79-1a1.7,1.7,0,0,1-1.15-.68,1.75,1.75,0,0,1-.31-1.29l.31-1.81A1.7,1.7,0,0,1,98.32,155l4.79.66a8,8,0,0,0,6.22-1.81l6.63-5.62.82,3.72A4.18,4.18,0,0,1,114.77,156.47Z"/>
          </g>
          <g>
            <circle class="cls-14" cx="117.44" cy="147.26" r="6.76" transform="translate(-69.73 126.17) rotate(-45)"/>
            <circle class="cls-13" cx="117.44" cy="147.26" r="4.01" transform="translate(-69.73 126.17) rotate(-45)"/>
          </g>
        </g>
        <rect class="cls-15" x="144.72" y="178.65" width="49.26" height="21.7"/>
        <g>
          <path class="cls-11" d="M208.45,206.55a11.72,11.72,0,0,1-11.72,11.71H144a11.71,11.71,0,0,1-11.71-11.71h0A11.71,11.71,0,0,1,144,194.84h52.7a11.72,11.72,0,0,1,11.72,11.71Z"/>
          <path class="cls-13" d="M204.66,206.58c0,5.13-4.64,9.29-10.48,9.29H146.67c-5.83,0-10.56-4.16-10.56-9.29v-.14c0-5.13,4.73-9.29,10.56-9.29h47.51c5.84,0,10.48,4.16,10.48,9.29Z"/>
          <g>
            <g>
              <circle class="cls-16" cx="150.17" cy="206.57" r="6.37"/>
              <path class="cls-13" d="M154.05,206.79A3.75,3.75,0,1,1,150.4,203,3.74,3.74,0,0,1,154.05,206.79Z"/>
            </g>
            <g>
              <circle class="cls-17" cx="169.81" cy="206.57" r="6.37"/>
              <path class="cls-13" d="M173.68,206.79A3.75,3.75,0,1,1,170,203,3.74,3.74,0,0,1,173.68,206.79Z"/>
            </g>
            <g>
              <circle class="cls-18" cx="189.44" cy="206.57" r="6.37"/>
              <path class="cls-13" d="M193.32,206.79a3.75,3.75,0,1,1-3.65-3.84A3.76,3.76,0,0,1,193.32,206.79Z"/>
            </g>
          </g>
        </g>
        <rect class="cls-13" x="139.21" y="182.44" width="60.63" height="9.99" rx="3.93"/>
        <path class="cls-13" d="M186.06,171.76H153.33a9.53,9.53,0,0,0-9.64,9.64h52A9.53,9.53,0,0,0,186.06,171.76Z"/>
        <path class="cls-10" d="M199.83,188H139.21a.52.52,0,0,1-.52-.52.52.52,0,0,1,.52-.52h60.62a.52.52,0,0,1,.52.52A.52.52,0,0,1,199.83,188Z"/>
        <g>
          <path class="cls-19" d="M182.5,176.83a2.59,2.59,0,1,1-2.59-2.58A2.58,2.58,0,0,1,182.5,176.83Z"/>
          <path class="cls-19" d="M189.73,176.83a2.59,2.59,0,1,1-2.58-2.58A2.58,2.58,0,0,1,189.73,176.83Z"/>
        </g>
      </g>
    </g>
  </g>
</svg>
