<svg xmlns="http://www.w3.org/2000/svg" width="117.71" height="31.03" viewBox="0 0 117.71 31.03">
  <defs>
    <style>
      .cls-1 {
        fill: #fff;
      }
    </style>
  </defs>
  <title>accenture-logo-white</title>
  <g id="Слой_2" data-name="Слой 2">
    <g id="Isolation_Mode" data-name="Isolation Mode">
      <g>
        <polygon class="cls-1" points="68.61 8.67 75.39 6.15 68.61 3.51 68.61 0 80.21 4.67 80.21 7.58 68.61 12.28 68.61 8.67"/>
        <path class="cls-1" d="M4.47,31C2,31,0,29.78,0,27v-.16c0-3.35,2.91-4.44,6.41-4.44H8.1v-.64c0-1.35-.6-2.19-2-2.19a1.86,1.86,0,0,0-2,1.77H.42c.25-3,2.64-4.49,5.86-4.49s5.61,1.4,5.61,4.78v9.08H8.18V29.18A4.3,4.3,0,0,1,4.47,31ZM8.1,26.22V24.93H6.59c-1.86,0-2.82.52-2.82,1.74v.13c0,.93.57,1.58,1.84,1.58A2.24,2.24,0,0,0,8.1,26.22ZM20.49,31C16.72,31,14,28.69,14,24.1v-.19c0-4.59,2.91-7,6.51-7,3.09,0,5.64,1.56,5.95,5.11H22.83c-.24-1.32-.91-2.18-2.24-2.18-1.61,0-2.72,1.27-2.72,4v.41c0,2.76,1,4,2.75,4a2.53,2.53,0,0,0,2.46-2.44h3.46C26.28,28.82,24.17,31,20.49,31Zm14.12,0c-3.76,0-6.49-2.34-6.49-6.93v-.19c0-4.59,2.91-7,6.52-7,3.09,0,5.64,1.56,6,5.11H37c-.23-1.32-.91-2.18-2.23-2.18-1.61,0-2.73,1.27-2.73,4v.41c0,2.76,1,4,2.75,4a2.54,2.54,0,0,0,2.47-2.44h3.46C40.41,28.82,38.3,31,34.61,31Zm14.24,0c-3.93,0-6.6-2.34-6.6-6.86v-.26c0-4.54,2.83-7,6.47-7,3.37,0,6.2,1.89,6.2,6.38V24.9H46.09c.16,2.44,1.2,3.38,2.83,3.38a2.35,2.35,0,0,0,2.5-1.77h3.5C54.51,29.08,52.4,31,48.85,31Zm-2.71-8.65h5.09c-.07-2-1-2.85-2.49-2.85C47.55,19.53,46.46,20.18,46.14,22.38Zm11.12-5.22h3.79v2a4.43,4.43,0,0,1,4.1-2.31c2.47,0,4.11,1.48,4.11,4.78v9.08h-3.8V22.23c0-1.59-.64-2.29-2-2.29a2.28,2.28,0,0,0-2.39,2.52v8.28H57.26Zm19.09-4.1v4.1h2.59V20H76.35v6.44c0,1,.46,1.48,1.35,1.48A3.19,3.19,0,0,0,79,27.68v3a7.74,7.74,0,0,1-2.13.28c-3,0-4.36-1.35-4.36-4.1V20H70.94V17.16h1.59V14.62ZM93.22,30.74H89.43v-2A4.14,4.14,0,0,1,85.49,31c-2.44,0-4.24-1.48-4.24-4.67v-9.2h3.82v8.62c0,1.56.62,2.29,2,2.29a2.28,2.28,0,0,0,2.39-2.52V17.16h3.79ZM96,17.16h3.79v2.5A4.05,4.05,0,0,1,103.85,17v3.74c-2.58,0-4.08.78-4.08,3v7H96ZM111.64,31c-3.92,0-6.6-2.34-6.6-6.86v-.26c0-4.54,2.83-7,6.47-7,3.37,0,6.2,1.89,6.2,6.38V24.9h-8.83c.16,2.44,1.2,3.38,2.83,3.38a2.35,2.35,0,0,0,2.5-1.77h3.5C117.3,29.08,115.19,31,111.64,31Zm-2.7-8.65H114c-.08-2-1-2.85-2.5-2.85C110.34,19.53,109.25,20.18,108.94,22.38Z"/>
      </g>
    </g>
  </g>
</svg>
