<svg xmlns="http://www.w3.org/2000/svg" width="1445.66" height="585.34" viewBox="0 0 1445.66 585.34">
  <defs>
    <style>
      .cls-1, .cls-2, .cls-3, .cls-4, .cls-5, .cls-6, .cls-7, .cls-9 {
        fill: none;
        stroke-miterlimit: 10;
      }

      .cls-1 {
        stroke: #fa866c;
      }

      .cls-2 {
        stroke: #008aee;
      }

      .cls-3 {
        stroke: #61aa35;
      }

      .cls-4 {
        stroke: #31c3ad;
      }

      .cls-5 {
        stroke: #fde800;
      }

      .cls-6 {
        stroke: #1a8035;
      }

      .cls-7 {
        stroke: #db7109;
      }

      .cls-8 {
        opacity: 0.5;
      }

      .cls-9 {
        stroke: #fff;
        stroke-width: 0.5px;
      }

      .cls-10 {
        font-size: 9px;
      }

      .cls-10, .cls-12, .cls-14 {
        fill: #fff;
        font-family: Montserrat-Regular, Montserrat;
      }

      .cls-11 {
        letter-spacing: 0em;
      }

      .cls-12 {
        font-size: 9.07px;
      }

      .cls-13 {
        fill: #008aee;
      }

      .cls-14 {
        font-size: 11px;
      }

      .cls-15 {
        letter-spacing: -0.02em;
      }

      .cls-16 {
        letter-spacing: 0em;
      }

      .cls-17 {
        letter-spacing: -0.01em;
      }

      .cls-18 {
        letter-spacing: 0em;
      }

      .cls-19 {
        fill: #31c3ad;
      }

      .cls-20 {
        letter-spacing: 0em;
      }

      .cls-21 {
        fill: #f67109;
      }

      .cls-22 {
        letter-spacing: -0.02em;
      }

      .cls-23 {
        fill: #fde800;
      }

      .cls-24 {
        letter-spacing: -0.05em;
      }

      .cls-25 {
        letter-spacing: -0.02em;
      }

      .cls-26 {
        fill: #fa866c;
      }

      .cls-27 {
        letter-spacing: -0.02em;
      }

      .cls-28 {
        letter-spacing: 0.01em;
      }

      .cls-29 {
        fill: #1a8035;
      }

      .cls-30 {
        letter-spacing: -0.03em;
      }

      .cls-31 {
        letter-spacing: 0em;
      }

      .cls-32 {
        letter-spacing: -0.01em;
      }

      .cls-33 {
        letter-spacing: 0em;
      }

      .cls-34 {
        letter-spacing: -0.01em;
      }

      .cls-35 {
        fill: #61aa35;
      }

      .cls-36 {
        letter-spacing: -0.01em;
      }

      .cls-37 {
        letter-spacing: 0em;
      }

      .cls-38 {
        letter-spacing: -0.03em;
      }

      .cls-39 {
        letter-spacing: 0em;
      }

      .cls-40 {
        fill: #ff3027;
      }

      .cls-41 {
        letter-spacing: 0em;
      }

      .cls-42 {
        letter-spacing: 0.01em;
      }

      .cls-43 {
        letter-spacing: -0.02em;
      }
    </style>
  </defs>
  <title>graph-img</title>
  <g id="Слой_2" data-name="Слой 2">
    <g id="Layer_1" data-name="Layer 1">
      <polyline class="cls-1" points="0.45 157.26 19.94 117.97 35.06 166.33 47.9 179.94 64.15 147.06 78.51 183.34 92.11 137.24 107.98 175.03 122.34 121.37 138.22 170.49 151.06 199.21 164.67 142.53 179.03 167.47 192.63 175.03 209.25 164.44 222.86 186.36 237.22 165.2 253.84 164.44 297.68 112.3 312.04 179.56 322.62 181.83 336.98 136.48 353.6 201.48 367.96 176.54 381.57 198.45 396.68 168.22 409.53 162.18 424.64 130.44 439.76 178.05 453.36 153.86 469.23 148.57 484.35 162.93 512.31 178.05 528.18 173.51 541.78 190.9 555.39 117.59 570.5 173.51 584.11 189.38 601.49 232.46 616.6 156.13 630.21 150.09 642.3 159.91 658.92 131.19 669.5 181.83 686.89 187.87 701.25 156.89 713.34 195.43 729.97 190.14 745.08 144.04 773.04 145.55 790.42 184.85 803.27 199.97 817.63 134.22 832.75 162.93 845.59 181.07 859.95 167.47 873.56 115.32 888.67 170.49 901.52 181.83 918.15 159.91 947.62 170.49 961.98 146.31 975.58 214.32 990.7 128.17 1019.42 172 1034.53 232.46 1049.65 146.31 1060.98 190.9 1077.61 119.1 1093.48 150.09 1105.57 140.26 1119.17 176.54 1136.56 190.14 1151.67 190.14 1164.52 151.6 1178.12 133.46 1193.24 195.43 1206.09 173.51 1222.71 187.12 1238.58 150.09 1252.94 177.29 1267.3 145.55 1280.15 186.36 1294.51 170.49 1310.38 181.07 1323.98 119.1 1339.1 165.96 1351.94 130.44 1370.08 136.48 1384.44 189.38 1395.78 167.47 1429.03 165.96 1443.39 190.14"/>
      <polyline class="cls-2" points="0.45 208.28 32.41 221.13 49.04 207.52 64.15 230.19 75.49 208.28 95.14 215.08 107.98 245.31 119.32 243.8 137.46 193.92 150.31 217.35 163.16 217.35 179.03 189.38 194.14 239.26 209.25 189.38 223.62 215.84 240.24 189.38 253.09 229.44 266.69 215.84 281.05 246.82 293.9 202.99 309.77 237 324.88 251.35 340 187.12 352.85 221.88 371.74 226.42 381.57 198.45 396.68 246.06 408.77 221.13 423.89 232.46 439.76 201.48 454.87 232.46 468.48 226.42 482.84 204.5 501.73 265.71 516.84 246.82 526.67 218.1 559.17 243.8 571.26 212.81 584.11 215.84 598.47 242.29 613.58 236.24 627.18 261.94 642.3 248.33 658.17 173.51 672.53 221.88 686.89 252.11 700.49 255.13 713.34 224.9 729.97 209.79 745.08 252.87 759.44 243.04 775.31 233.22 787.4 237 816.88 204.5 832.75 212.06 847.11 240.78 862.22 218.1 903.79 246.06 919.66 227.93 934.02 202.23 946.11 221.13 975.58 221.88 992.97 229.44 1005.06 215.84 1017.9 220.37 1034.53 239.26 1047.38 217.35 1062.49 202.23 1075.34 227.93 1092.72 242.29 1105.57 227.93 1118.42 227.17 1133.53 260.42 1151.67 193.92 1166.79 268.74 1180.39 255.13 1191.73 208.28 1209.11 245.31 1225.73 221.13 1239.34 249.09 1251.43 221.13 1267.3 236.24 1280.15 224.15 1298.29 243.04 1310.38 190.9 1323.98 248.33 1339.1 229.44 1354.97 245.31 1379.91 249.84 1398.05 173.51 1410.89 252.11 1428.28 206.01 1443.39 215.08"/>
      <path class="cls-3" d="M.45,335.24l22.14-7.55,11.33-24.94,14.36,18.89,15.87,13.6L74,311.06l20.4,2.27L105,330l12.09-30.23,21.92,6,11.34,45.34,13.6-1.51L179,304.26l13.6-8.32,13.6,20.41,18.9,15.87,24.94-12.09,16.62,18.14,14.36-43.08,15.12,21.16,17.38-22.67,10.58,38.54,13.6-18.89,14.36-4.54,35.52,37,12.85-24.94L411.8,330l15.87,14.36,15.11-32.49,18.14,24.93,7.56-12.09s8.31,6.8,12.84,6,12.85-3.78,12.85-3.78l14.36,6.8,18.14-12.09,15.87,22.67,12.85-31L572.77,333l14.36-25.7,14.36,26.45,13.6-10.58,14.36,10.58,15.12-45.34,14.35,43.83,13.61-9.07,13.6-3,14.36-3.78,12.85,34.76,18.89,4.54,7.56-23.43,20.41-12.09,12.84,3L787.4,310.3l14.36,15.87,15.87-3L832,302.75l18.89,9.07,12.85,23.42,9.83-20.4,13.6,9.82,16.63-7.55L919.66,330l28-13.6,30.23,10.58,12.09-15.87,16.63,10.58,14.36,2.27,9.82-7.56,34,13.6,12.09-6.8,18.9,13.6,9.07-4.53,13.6-36.28,21.16,17.39,10.58-5.29,14.36,15.87,15.87-24.19,12.85,16.63,15.87,3.78,13.6-8.31,14.36,17.38,12.09-14.36,17.39,1.51,16.62,21.92,12.09-11.34,12.1,3,15.11-25.69,12.09,22.67,16.63,3.78,16.63-7.56,14.35,3.78L1398.05,302l15.11,28,13.6-21.91,16.63-31"/>
      <polyline class="cls-4" points="0.45 374.54 16.54 369.25 30.9 374.54 46.01 370.76 60.37 380.59 92.87 345.82 120.08 377.56 134.44 376.05 148.8 369.25 164.67 376.81 179.03 352.63 191.12 363.96 209.25 352.63 222.86 379.83 237.22 367.74 262.16 363.96 278.78 386.63 294.65 361.69 312.04 358.67 324.88 371.52 340.75 370.76 352.09 363.96 366.45 346.58 380.81 371.52 398.95 361.69 414.82 374.54 427.67 379.83 441.27 376.81 454.87 367.74 466.21 342.8 482.84 360.94 496.44 346.58 511.55 361.69 527.42 355.65 570.5 394.95 599.98 352.63 613.58 366.99 630.21 358.67 658.17 364.72 686.13 351.11 702 389.66 714.85 357.16 751.88 373.03 772.29 383.61 787.4 357.92 819.14 379.83 828.97 360.18 847.11 385.88 863.73 335.24 869.78 354.14 885.65 354.89 900.01 371.52 918.15 345.82 930.99 367.74 944.6 335.24 972.56 363.21 991.45 366.99 1003.55 348.85 1018.66 354.89 1038.31 360.94 1045.87 345.82 1079.88 383.61 1089.7 363.21 1108.59 358.67 1118.42 371.52 1132.78 361.69 1149.4 385.88 1165.28 361.69 1182.66 376.81 1213.64 383.61 1219.69 373.79 1232.54 371.52 1251.43 380.59 1267.3 366.99 1280.9 320.88 1295.26 351.11 1326.25 363.21 1338.34 354.14 1367.06 382.1 1379.91 370.76 1397.29 376.05 1404.85 354.89 1423.74 349.6 1443.39 376.81"/>
      <polyline class="cls-5" points="1443.39 400.99 1409.38 382.1 1400.31 394.95 1378.4 388.15 1370.84 413.84 1356.48 379.08 1335.32 391.17 1325.49 391.92 1311.13 385.12 1299.04 402.5 1283.17 404.77 1265.03 394.95 1252.19 374.54 1237.07 410.82 1225.73 388.9 1208.35 371.52 1193.24 394.95 1181.15 397.97 1168.3 394.95 1151.67 358.67 1130.51 376.05 1109.35 373.03 1097.26 392.68 1064.76 404.77 1049.65 371.52 1019.42 395.7 1005.81 382.86 996.74 391.17 980.12 383.61 965 388.9 935.53 366.99 921.92 394.95 901.52 394.19 893.21 400.99 875.82 382.1 862.22 388.9 851.64 402.5 831.99 408.55 815.37 386.63 785.89 394.95 775.31 371.52 760.2 404.77 729.97 373.79 711.83 386.63 703.51 371.52 689.15 410.82 660.44 369.25 643.05 389.66 617.36 370.76 601.49 410.82 582.59 394.95 572.77 360.94 555.39 391.92 532.72 397.97 517.6 379.08 500.22 400.99 484.35 376.05 469.23 383.61 455.63 379.08 432.96 389.66 408.02 382.86 382.32 405.53 365.69 379.08 355.12 391.17 337.73 397.21 324.88 376.05 315.82 382.1 296.92 383.61 284.83 370.76 271.23 383.61 253.84 385.12 238.73 374.54 223.62 394.19 212.28 376.05 197.16 380.59 185.83 370.01 163.91 379.83 148.8 401.75 135.95 369.25 120.83 405.53 95.89 377.56 76.24 379.83 64.15 394.19 50.55 388.9 30.9 399.48 19.56 379.08 0.45 380.59"/>
      <polyline class="cls-6" points="0.45 486.39 18.05 487.15 36.95 491.68 46.01 484.88 66.42 481.86 93.63 491.68 119.32 493.19 149.55 479.59 165.42 492.44 179.03 475.81 197.16 490.17 212.28 493.19 236.46 481.86 265.94 484.13 281.05 491.68 309.77 482.61 323.37 487.9 340 484.13 398.19 485.64 409.53 483.37 426.91 486.39 438.25 478.08 454.87 486.39 471.5 487.9 479.81 482.61 510.8 484.13 526.67 493.19 556.14 478.83 578.82 490.17 598.47 484.88 643.05 490.17 667.99 481.1 705.03 489.42 715.61 482.61 730.72 490.93 756.42 486.39 774.55 487.9 787.4 478.08 801.76 487.9 817.63 490.17 831.24 484.88 846.35 491.68 859.2 485.64 875.07 488.66 887.92 481.86 902.28 489.42 915.88 481.86 932.5 487.9 947.62 482.61 962.74 488.66 992.21 484.88 1007.32 488.66 1021.68 480.35 1039.82 484.88 1050.4 491.68 1062.49 482.61 1076.85 489.42 1106.33 489.42 1117.66 480.35 1150.16 490.17 1160.74 483.37 1181.9 493.19 1193.99 484.13 1206.84 482.61 1224.98 488.66 1235.56 483.37 1253.7 489.42 1263.52 486.39 1280.15 491.68 1297.53 490.93 1305.84 478.83 1324.74 485.64 1352.7 484.13 1376.88 490.17 1396.53 488.66 1412.4 474.3 1428.28 489.42 1443.39 486.39"/>
      <polyline class="cls-7" points="1443.39 486.39 1428.28 487.15 1409.38 491.68 1400.31 484.88 1379.91 481.86 1352.7 491.68 1327.01 493.19 1296.78 479.59 1280.9 492.44 1267.3 475.81 1249.16 490.17 1234.05 493.19 1209.87 481.86 1180.39 484.13 1165.28 491.68 1136.56 482.61 1122.95 487.9 1106.33 484.13 1048.13 485.64 1036.8 483.37 1019.42 486.39 1008.08 478.08 991.45 486.39 974.83 487.9 966.51 482.61 935.53 484.13 919.66 493.19 890.18 478.83 867.51 490.17 847.86 484.88 803.27 490.17 778.33 481.1 741.3 489.42 730.72 482.61 715.61 490.93 689.91 486.39 671.77 487.9 658.92 478.08 644.57 487.9 628.7 490.17 615.09 484.88 599.98 491.68 587.13 485.64 571.26 488.66 558.41 481.86 544.05 489.42 530.45 481.86 513.82 487.9 498.71 482.61 483.59 488.66 454.12 484.88 439 488.66 424.64 480.35 406.5 484.88 395.93 491.68 383.83 482.61 369.47 489.42 340 489.42 328.66 480.35 296.17 490.17 285.59 483.37 264.43 493.19 252.33 484.13 239.49 482.61 221.35 488.66 210.77 483.37 192.63 489.42 182.8 486.39 166.18 491.68 148.8 490.93 140.48 478.83 121.59 485.64 93.63 484.13 69.44 490.17 49.79 488.66 33.92 474.3 18.05 489.42 0.45 486.39"/>
      <g class="cls-8">
        <line class="cls-9" x1="1443.39" y1="11.78" x2="0.45" y2="11.78"/>
        <line class="cls-9" x1="1443.77" y1="92.08" x2="0.45" y2="92.08"/>
        <line class="cls-9" x1="1444.15" y1="172.38" x2="0.45" y2="172.38"/>
        <line class="cls-9" x1="1444.52" y1="252.68" x2="0.45" y2="252.68"/>
        <line class="cls-9" x1="1444.9" y1="332.98" x2="0.45" y2="332.98"/>
        <line class="cls-9" x1="1445.28" y1="413.27" x2="0.45" y2="413.27"/>
        <line class="cls-9" x1="1445.66" y1="493.57" x2="0.45" y2="493.57"/>
        <text class="cls-10" transform="translate(1416.54 7.65)">300</text>
        <text class="cls-10" transform="translate(1417.37 87.76)">250</text>
        <text class="cls-10" transform="translate(1416.54 167.11)"><tspan class="cls-11">2</tspan><tspan x="5.08" y="0">00</tspan></text>
        <text class="cls-10" transform="translate(1419.23 247.98)">150</text>
        <text class="cls-10" transform="translate(1418.37 328.09)">100</text>
        <text class="cls-10" transform="translate(1422.48 408.2)">50</text>
        <text class="cls-12" transform="translate(1427.53 488.31)">0</text>
      </g>
      <g>
        <rect class="cls-13" x="333.53" y="524.84" width="20" height="20"/>
        <text class="cls-14" transform="translate(360.03 538.34)">On<tspan class="cls-15" x="16.68" y="0">-</tspan><tspan class="cls-16" x="20.71" y="0">A</tspan><tspan class="cls-17" x="28.54" y="0">cc</tspan><tspan class="cls-18" x="40.73" y="0">ess Scan</tspan></text>
        <rect class="cls-19" x="538.03" y="525.34" width="20" height="20"/>
        <text class="cls-14" transform="translate(564.53 538.84)">On-Dema<tspan class="cls-20" x="54.77" y="0">n</tspan><tspan x="62.24" y="0">d Scan</tspan></text>
        <rect class="cls-21" x="742.03" y="525.84" width="20" height="20"/>
        <text class="cls-14" transform="translate(768.53 539.34)">Mail Anti <tspan class="cls-22" x="51.44" y="0">V</tspan><tspan x="58.92" y="0">irus</tspan></text>
        <rect class="cls-23" x="945.03" y="526.34" width="20" height="20"/>
        <text class="cls-14" transform="translate(971.53 539.84)"><tspan class="cls-24">W</tspan><tspan class="cls-18" x="11.62" y="0">eb Anti </tspan><tspan class="cls-25" x="54.24" y="0">V</tspan><tspan x="61.72" y="0">irus</tspan></text>
        <rect class="cls-26" x="333.53" y="564.84" width="20" height="20"/>
        <text class="cls-14" transform="translate(360.03 578.34)">Instrusion De<tspan class="cls-27" x="73.72" y="0">t</tspan><tspan x="77.98" y="0">e</tspan><tspan class="cls-28" x="84.62" y="0">c</tspan><tspan x="90.88" y="0">tion Scan</tspan></text>
        <rect class="cls-29" x="538.03" y="565.34" width="20" height="20"/>
        <text class="cls-14" transform="translate(564.53 578.84)"><tspan class="cls-30">V</tspan><tspan x="7.34" y="0">ul</tspan><tspan class="cls-31" x="17.7" y="0">n</tspan><tspan class="cls-18" x="25.17" y="0">e</tspan><tspan class="cls-32" x="31.81" y="0">r</tspan><tspan class="cls-33" x="36.12" y="0">abili</tspan><tspan class="cls-34" x="58.95" y="0">t</tspan><tspan x="63.3" y="0">y Scan</tspan></text>
        <rect class="cls-35" x="742.03" y="565.34" width="20" height="20"/>
        <text class="cls-14" transform="translate(768.53 578.84)"><tspan class="cls-36">K</tspan><tspan class="cls-33" x="7.67" y="0">aspe</tspan><tspan class="cls-37" x="33.64" y="0">r</tspan><tspan x="38" y="0">s</tspan><tspan class="cls-38" x="43.38" y="0">k</tspan><tspan x="49.7" y="0">y Anti</tspan><tspan class="cls-25" x="81.3" y="0">-</tspan><tspan x="85.3" y="0">S</tspan><tspan class="cls-39" x="92.07" y="0">p</tspan><tspan x="99.49" y="0">am</tspan></text>
        <rect class="cls-40" x="945.03" y="565.34" width="20" height="20"/>
        <text class="cls-14" transform="translate(971.53 578.84)">Bot<tspan class="cls-20" x="19.66" y="0">n</tspan><tspan x="27.13" y="0">et </tspan><tspan class="cls-41" x="41.12" y="0">A</tspan><tspan class="cls-42" x="48.95" y="0">c</tspan><tspan x="55.21" y="0">tivi</tspan><tspan class="cls-34" x="71.55" y="0">t</tspan><tspan x="75.91" y="0">y De</tspan><tspan class="cls-43" x="100.48" y="0">t</tspan><tspan class="cls-18" x="104.74" y="0">e</tspan><tspan class="cls-28" x="111.38" y="0">c</tspan><tspan class="cls-33" x="117.64" y="0">tion</tspan></text>
      </g>
    </g>
  </g>
</svg>
