<svg xmlns="http://www.w3.org/2000/svg" width="138.85" height="766.72" viewBox="0 0 138.85 766.72">
  <defs>
    <style>
      .cls-1 {
        fill: #f3811e;
      }

      .cls-2 {
        fill: #f8ce02;
      }
    </style>
  </defs>
  <title>smart-ways-icon</title>
  <g id="Слой_2" data-name="Слой 2">
    <g id="Layer_1" data-name="Layer 1">
      <g>
        <path class="cls-1" d="M137.86,59.81a65.65,65.65,0,0,0-4.16-16.25c-.36-.92-.79-1.79-1.19-2.68l-.07-.09h0c-.57-1.27-1.17-2.52-1.8-3.73a.73.73,0,0,0,.12,1c-1.18.49-1-.93-.56-1.78A66.94,66.94,0,0,0,110,13.49c0,.55-1,.58-1.59.81a1,1,0,0,1,.68-1.44,71.59,71.59,0,0,0-11.38-6.4A2.76,2.76,0,0,0,98,8.16c.24-.77.81-.42,1.19,0-1,.92-3.57,1.63-4.77,1.76a1.49,1.49,0,0,1-.24-1.08c-.73,0-1.26-.55-2.14-.13-.18-.81-.67-.75-.94-1.32,1.52,0,2.64,1.19,4.4.51.17-.67-.17-.29-.47-1a2.61,2.61,0,0,0,1.53-1,76.37,76.37,0,0,0-9.3-3.24.52.52,0,0,0-.06.35A.43.43,0,0,1,87,2.66,75.76,75.76,0,0,0,73.07.22c.11.24.16.47,0,.61s-.76-.26-1-.67C44.1-1.68,15.5,12,4.2,42.58A65.45,65.45,0,0,0,.26,71.31l.11.24c.83-.87,1.34.58.71.84a2.38,2.38,0,0,1-.77-.49c1.62,16.28,9.51,30.87,21.08,41.84h0v0c.49.47,1,.92,1.5,1.37l0-.06a.43.43,0,0,0,0,.11l.49.45c.32-.07.68-.27.79.28a.87.87,0,0,0-.33.13q2.2,1.92,4.57,3.66c.26-.12.56-.15.62,0-.12.06-.2.12-.3.18a77,77,0,0,0,8.12,5.18.21.21,0,0,1,.14.07,76.33,76.33,0,0,0,11.24,5c-.13-.2-.14-.41.15-.64.25.8.88.51,1.54.13a3.18,3.18,0,0,1,.4,1.25c.35.11.71.19,1.06.3.16-.27.42-.42.68-.23-.21.06-.05.25.19.47a72.83,72.83,0,0,0,10.62,2.23h0a68.88,68.88,0,0,0,32.47-3.42,2.4,2.4,0,0,1-1.23-1.84,4.69,4.69,0,0,1,4.62.48l.74-.31c0-.11.08-.16.23-.09.38-.17.78-.3,1.16-.48a3.4,3.4,0,0,0,.34-.2,2.65,2.65,0,0,0,.3-.11A68.51,68.51,0,0,0,136.52,83c-.24.15-.46.22-.56,0,1.63-.72-1.09-1-.84.12-.8-1.31.71-1.46,1.61-1,.4-1.79.72-3.6,1-5.42-.28.27-.59.54-.88.81-.58-.31-2.22-1.46-1.41-2.27.76,1.17,1.81.68,2.53-.19a67.16,67.16,0,0,0,.37-9.42l.53-4.86M93,7.05l1.19-.59C94.9,7.35,93.37,7.78,93,7.05Zm28.29,25c1.39-1,.88.47,0,0ZM128.78,37c-.39.16-.82.43-1-.13A.73.73,0,0,1,128.78,37Zm2.92,7.17c-.07.23.06-.16,0,0Zm-.94-1.92c.17.3.47.18.6.6l-.48.24C130.44,42.83,130.33,42.59,130.76,42.21Zm3.52,8.36c.05-.14-.08.24,0,0Zm-6.35-12.31c1,.52-1.08-.18,0,0ZM124.75,33c-.13,1.22-.73-.62,0,0Zm-6.13-8.26c-.53-.66-.39-.38-.59-1.2l1-.47C119.49,23.84,119.58,24.47,118.62,24.74Zm15,29.4c1,.41-1-.29,0,0Zm-3.87-7.88c-.89.71-.41-.7,0,0Zm-7.08-10.77c1.17-.67-.89-2.38,1-2.26-.48.52.78.75.82,1.67C123.94,35,123.08,36,122.71,35.49Zm1.3,69.68a1.31,1.31,0,0,1-.11-1.43A.76.76,0,0,1,124,105.17Zm-5.54,8.66Zm-5.73,1.63c.16-.53.8-1.33,1.56-1.06C115,115.72,113.53,116.54,112.74,115.46Zm-2.25-1.57c.26-.17.08-.5-.11-.83l1-.47.59,1.19A1.29,1.29,0,0,1,110.49,113.89Zm-13.16,8.85c.16.31.52,0,.71.24C97.86,123.86,96.45,123.38,97.33,122.74Zm-12.79,6a.64.64,0,0,1,1.07.36l-.72.36ZM64.4,130.6a.74.74,0,0,1,.95.13A.73.73,0,0,1,64.4,130.6Zm-1.07-1Zm-4.53,1a1.91,1.91,0,0,1-.25,1.91C57.92,131.71,58,131.06,58.8,130.68Zm-3.7.93c-.88.71-.4-.69,0,0Zm-14.7-9.4c.05-.14-.08.24,0,0Zm-4.28-2a1.49,1.49,0,0,0,.71.84C36.21,121.94,35.16,120.31,36.12,120.16Zm-5.59-.52c-.88.72-.4-.69,0,0ZM23,110.9c-.08.23.05-.15,0,0Zm1.28,3.82ZM8.19,95.31c-.88.71-.4-.69,0,0Zm1-1.07ZM11.27,98Zm.83-.11Zm2.24,2.75c-.49-.32-1.81-1-2.14.46.41.16.89.1,1.06,1l-.95.47c0-1.17-2.05-1.93-.58-3-.26.11-.34-.21.12-.35C12.59,99.92,13.78,99.35,14.34,100.59ZM1,73.94c1,.52-1.08-.19,0,0Zm9.64,18.41c-.88.72-.4-.69,0,0Zm1.05,3.94c.29-.17.17-.47.6-.59C12.9,96.1,11.77,96.8,11.64,96.29Zm-2.55-10,.23.47L8.84,87l-.23-.48Zm-6.58-14c-.13,1.22-.73-.62,0,0Zm4.24,7.41c-.36,1.15-.82-.64,0,0ZM4.4,75.51l-.47-1A.57.57,0,1,1,4.4,75.51Zm2.37.61c.48.7.32,1.17-.48,1.43-.08-.86-2-.71-1-1.32C5.61,76.5,5.77,76.81,6.77,76.12ZM3.84,69.55c-.13.81-1.73.11-.83-.48C3.24,69.38,3.6,69.28,3.84,69.55Zm-.2-5.24c-.11.14-.63,1-1,.47C2.8,64.64,3.31,63.73,3.64,64.31ZM7.53,71A4.28,4.28,0,0,1,6,74.45c-.09-1.09.81-1.85.26-3.1C6.74,71,7,71.54,7.53,71Zm-1-5.73c-.08.23,0-.15,0,0Zm.2-11.67c-.36-.72-.91-1.5,0-1.78C7.4,52.38,7.58,53.11,6.69,53.61Zm.56-11a3.75,3.75,0,0,0,.22,1.67c-1.06.14-1,.77-2,.7-.28-.56.07-.91-.46-1.56C5.93,42.65,6.79,43.81,7.25,42.66ZM7,45.75c-.58-1.22.69-.91,1.19-.59ZM7.7,46c0,1-1-.64,0,0Zm1.89,2.64c-.08.23.05-.15,0,0Zm-1.44,1.3c0-1-.37-1.3-.35-1.91C8.2,48.18,9.5,49.77,8.15,49.93ZM6.51,46c-.08.23,0-.15,0,0Zm-.24-.48Zm5.36,0c0,1-1.05-.63,0,0ZM9.52,40.65c-.45.23-1.82-1.32-.82-1.68C9.23,39.06,10.31,40.06,9.52,40.65Zm.65-7.14-.48.23-.24-.48L9.93,33Zm6,3.25Zm-.57-3.57c-.88.71-.4-.7,0,0Zm-2-7.64Zm2.7,4.9c-.84.14-1.42-.48-2.13-.73,1-.18.38-.93,1.19-1.18C15.73,29.61,15.81,29.38,16.38,30.45Zm1.92-1.53ZM19.66,22Zm-.34-3.1c-.08.23.05-.15,0,0Zm.6,0Zm4,5.75c-.88.71-.4-.69,0,0Zm-2.47-5c.79-.29-.94-.39-.11-.84C21.89,18.75,22.28,20.29,21.46,19.65Zm1.44-1.3c-.73-2.93,2.87-.13,0,0ZM28.28,16l-1,.47a1,1,0,0,1,.13-1.54A1.7,1.7,0,0,1,28.28,16Zm4.3-1.51c-.89.71-.4-.7,0,0Zm1,.12c-.08.23,0-.15,0,0ZM35,12.72Zm2.4-2.37c-.88.72-.4-.69,0,0Zm3.08,2.05a.73.73,0,0,1-1-.13A.72.72,0,0,1,40.45,12.4Zm9.09-5.66c-.67.33-2,.16-1.18-.6C48.68,6.55,49.38,5.87,49.54,6.74ZM53,6.53l-.48.23-.23-.47.47-.24Zm8.83-2c1-1.37.92.28,0,0Zm9.53.07c-.08.23,0-.16,0,0Zm5.72-.44a.73.73,0,0,1,.12-1C77.71,3.43,77.76,3.91,77.08,4.2Zm4.76,0Zm2.61,1.68-1,.47c-.17-.86-.65-.8-1.07-1,.48-.17.4-.53.85-.71C83.41,5.85,84.15,5.22,84.45,5.91Zm5.35.64c-1.21.87-1.43-.54-.47-1Zm12,6.28a1,1,0,0,1-.16,1,59.35,59.35,0,0,1,15.22,13.36,3.42,3.42,0,0,1,2.46,1.4,1.17,1.17,0,0,1-.76.81,60.13,60.13,0,0,1,8.93,17.89,62.84,62.84,0,0,1,1.85,8.12c3.41,2.88,2.7,6.06.68,5.91a62.58,62.58,0,0,1-7.78,34.57,2.82,2.82,0,0,0,.78-.57c.62,1.53,2.5,1,2.36,3-2,.52-.18,2.33-2.16,2.85-.14-.77-.64-.46-.83-1.08.36-.3.79,0,.72-.35-.54-.69-1.17.37-1.43.11a3.34,3.34,0,0,0-.32-2.5,68,68,0,0,1-26.76,25.56,68.6,68.6,0,0,1-7.39,2.81.3.3,0,0,1-.18,0,63.18,63.18,0,0,1-30.25,2,2.36,2.36,0,0,0,2.16.86c-.77.6-1.36,1.26-.61,2.38-2.54.73-2-1.71-3-2.41.39-.26.43-.65.63-1l-.44-.09c0,.17-.12.33-.54.37a1.46,1.46,0,0,1-.21-.52A58.59,58.59,0,0,1,30.8,116l.23.46-.48.24-.23-.48.47-.23a57.59,57.59,0,0,1-14.3-16.74c-.86.49-1.77,1.12-2.26.54.87-.44.29-1.36.85-1.9-.84.3-1.19-1.24-.11-1.43h0l-.57-1.15a.53.53,0,0,1-.17-.29v0c-.37-.81-.73-1.64-1.07-2.47-1.41.37-3.88-1.27-3.54-3.27,0,.48,1,.81.71.25-.23-.29-.56-.29-.7-.84.29-.16.17-.47.59-.59C11.52,89.54,12,90.73,13,92c-.49-1.22-1-2.46-1.39-3.73a60.75,60.75,0,0,1-2.22-9.06.3.3,0,0,1-.24-.11,1.37,1.37,0,0,1,.17-.25c-.14-.86-.3-1.73-.41-2.6a1.91,1.91,0,0,1-1.64-.38c1.24-.25,1.06-1,1.47-1.49A64.57,64.57,0,0,1,25,25.62h0a62.11,62.11,0,0,1,19-14.45,59.62,59.62,0,0,1,57.4,2.44C101.31,13.29,101.2,12.94,101.79,12.83ZM14.35,99.4Zm-.45-2.74c1.23,1.17-1.94-.86-.12-.24C13.83,96.44,13.86,96.62,13.9,96.66Zm.36-1.07c.1.3.38.66.12.83C14.12,96.27,13.38,95.82,14.26,95.59Zm95-78.42Z"/>
        <path class="cls-1" d="M48.19,291.68a66,66,0,0,0,16.54,2.82c1,0,2,0,2.94,0l.1,0v0c1.39,0,2.77,0,4.13-.12a.74.74,0,0,0-1-.29c0-1.28,1.26-.52,1.86.21a66.88,66.88,0,0,0,29-9.17c-.48-.26-.14-1.1-.1-1.78.85,0,1.12.55,1,1.21a71.75,71.75,0,0,0,10.48-7.79,2.65,2.65,0,0,0-1.65-.46c.6.54.05.91-.49,1.09-.45-1.24,0-3.92.34-5.08a1.46,1.46,0,0,1,1.07.23c.29-.68,1-.93,1-1.91.82.17,1-.3,1.59-.32-.63,1.39-2.17,1.93-2.26,3.82.55.42.34,0,1.06,0a2.64,2.64,0,0,0,.27,1.78,72.47,72.47,0,0,0,6.74-7.17.58.58,0,0,0-.28-.2.41.41,0,0,1,.47,0A75.61,75.61,0,0,0,129,256.76c-.26,0-.5,0-.55-.27s.55-.59,1-.62c13.07-24.8,12.25-56.48-11.12-79.26a65.57,65.57,0,0,0-24.63-15.29h-.27c.46,1.11-1.07,1-1.06.3a2.32,2.32,0,0,1,.77-.5c-15.53-5.15-32.07-3.88-46.8,2.21h0c-.63.26-1.25.54-1.87.81,0,0,0,0,.06.05l-.11,0-.61.26c-.07.32,0,.74-.58.61a.74.74,0,0,0,0-.36c-1.76.83-3.5,1.72-5.2,2.68,0,.3-.1.58-.3.55a3.18,3.18,0,0,0,0-.34,77.46,77.46,0,0,0-8,5.3.22.22,0,0,1-.12.11,75,75,0,0,0-9.14,8.23c.24,0,.43,0,.53.39-.84-.09-.83.6-.76,1.36a3.29,3.29,0,0,1-1.3-.14c-.24.27-.46.57-.7.84.17.26.21.56-.07.71,0-.21-.21-.15-.51,0a72.93,72.93,0,0,0-6.36,8.8h0a68.77,68.77,0,0,0-10.1,31.05,2.39,2.39,0,0,1,2.18-.37,4.64,4.64,0,0,1-2.31,4l0,.81c.1.06.12.14,0,.24,0,.43,0,.84,0,1.26a2.18,2.18,0,0,0,0,.39,1.77,1.77,0,0,0,0,.32A68.52,68.52,0,0,0,27.53,281c0-.28,0-.51.27-.49,0,1.78,1.34-.6.24-.81,1.52-.21,1,1.24.24,1.86,1.48,1.09,3,2.13,4.55,3.1-.14-.37-.25-.76-.38-1.13.52-.41,2.23-1.44,2.65-.37-1.38.22-1.36,1.38-.86,2.39a65.63,65.63,0,0,0,8.45,4.17l4.23,2.47m67.72-20,0,1.33C113.6,273.8,113.83,272.23,114.64,272.2ZM80.32,287.88c.37,1.69-.79.61,0,0Zm-7.55,4.81c0-.42-.07-.92.5-.82A.74.74,0,0,1,72.77,292.69ZM65,292.45Zm2.13-.08c-.34,0-.36.35-.79.29l0-.53C66.72,291.82,67,291.82,67.16,292.37Zm-9.07-.2c.11.11-.18-.16,0,0Zm13.83-.78c-.87.68.61-.92,0,0Zm6.1-.76c-1.06-.62.87-.42,0,0Zm10-2.24a1.62,1.62,0,0,1,1.33-.05l0,1.06C88.53,289.55,87.92,289.38,88.07,288.39Zm-33,1.77c-.78.75.7-.84,0,0Zm8.78-.33c-.29-1.1.8-.09,0,0Zm12.72-2.08c.13,1.34,2.53.16,1.67,1.8-.28-.65-1,.41-1.87.07C76.52,289.07,76,287.89,76.58,287.75ZM12.4,260.57a1.3,1.3,0,0,1,1.35.48A.76.76,0,0,1,12.4,260.57ZM6.75,252Zm.84-5.9c.42.36.89,1.26.34,1.86C6.45,248,6.28,246.37,7.59,246.09Zm2.35-1.42c.05.31.43.27.81.24l0,1.06L9.46,246A1.28,1.28,0,0,1,9.94,244.67ZM7.22,229.05c-.35,0-.22.47-.51.55C6,229.08,7,228,7.22,229.05ZM7,214.93c.07.58-.19.86-.77.83l0-.8Zm6.48-19.16a.74.74,0,0,1-.5.82A.74.74,0,0,1,13.44,195.77Zm1.31-.58c-.18-.17.12.1,0,0Zm.89-4.57a1.85,1.85,0,0,1-1.63-1C15.06,189.4,15.64,189.7,15.64,190.62Zm.66-3.75c-.29-1.1.8-.09,0,0Zm14.57-9.61Zm3.62-3.07a1.49,1.49,0,0,0-1.06.31C32.83,173.54,34.74,173.25,34.49,174.19Zm2.75-4.9c-.3-1.09.79-.08,0,0ZM48.3,166c-.18-.17.12.1,0,0Zm-4-.39c-.18-.16.11.11,0,0Zm24.27-6.77c-.3-1.09.79-.08,0,0Zm.58,1.32c-.18-.17.12.1,0,0Zm-4.25.42Zm-.23.81c.11.11-.19-.17,0,0Zm-3.44.92c.5-.32,1.67-1.23.46-2.14-.31.31-.46.77-1.32.58l0-1.07c1.07.45,2.59-1.08,3,.69,0-.28.34-.22.28.26C62.56,160.94,62.59,162.25,61.22,162.26ZM91,160.88c-.87.68.61-.91,0,0Zm-20.74,1.31c-.29-1.09.8-.08,0,0Zm-4-.65c0,.34.36.36.3.79C65.92,162.77,65.74,161.46,66.26,161.54Zm10.19,1.75-.53,0,0-.53.53,0ZM91.9,163c-1.06-.62.87-.42,0,0Zm-8.5.85c-.9-.8.93-.48,0,0Zm4.79-.44,1.06,0A.57.57,0,1,1,88.19,163.39Zm-1.53,1.92q-1.25.24-1.11-1c.82.27,1.48-1.57,1.59-.33C86.79,164.1,86.44,164.11,86.66,165.31Zm7.19,0c-.68-.45.61-1.62.78-.56C94.25,164.83,94.2,165.2,93.85,165.31Zm4.87,1.95c-.08-.16-.7-1,0-1.07C98.77,166.35,99.38,167.19,98.72,167.26Zm-7.69.82a4.27,4.27,0,0,1-2.51-2.84c1,.36,1.36,1.49,2.72,1.5C91.37,167.38,90.78,167.34,91,168.08Zm5.64,1.39Zm10.58,4.93c.81,0,1.75-.22,1.63.74C108.09,175.55,107.35,175.42,107.25,174.4Zm9.78,5a3.66,3.66,0,0,0-1.62-.48c.3-1-.28-1.27.19-2.14.63,0,.8.43,1.61.21C117.58,178.17,116.16,178.48,117,179.37Zm-2.72-1.5c1.35,0,.55,1,0,1.33Zm-.51.55c-.9-.36,1-.7,0,0Zm-3.17.65c-.18-.17.11.11,0,0Zm-.61-1.84c.9.38,1.34.19,1.89.46C111.6,178,109.62,178.53,110,177.23Zm4.27.11c-.18-.17.12.1,0,0Zm.53,0c-.18-.17.12.1,0,0Zm-2.21,4.88c-.9-.36,1-.7,0,0Zm5.33.06c0-.5,2-1.13,1.87-.07C119.51,182.64,118.15,183.22,117.94,182.26Zm6.26,3.5,0-.53.54,0,0,.53Zm-5.44,4.2Zm3.5.94c-.3-1.1.8-.09,0,0Zm7.78,1.31Zm-5.58.47c.21-.83,1-1.1,1.54-1.66-.25,1,.69.74.59,1.58A5.75,5.75,0,0,0,124.46,192.68Zm.62,2.38c.12.1-.18-.17,0,0Zm5.75,4Zm3,1Zm-.25.54Zm-6.88,1.32c-.29-1.09.8-.08,0,0Zm5.59-.2c0,.83.75-.71.81.23C132.91,202.48,131.34,202.2,132.26,201.72Zm.6,1.84c3,.52-1.05,2.67,0,0Zm0,5.87,0-1.07c.91-.24,1.17.2,1.36.75A1.76,1.76,0,0,1,132.82,209.43Zm-.37,4.54c-.29-1.1.8-.08,0,0Zm-.5.82c-.18-.17.12.1,0,0Zm1.15,2.09Zm1.18,3.15c-.3-1.1.79-.08,0,0Zm-3.12,2a.7.7,0,0,1,.5-.81A.73.73,0,0,1,131.16,222Zm1.46,10.61c0-.74.68-1.93,1-.84C133.14,231.91,133.48,232.82,132.62,232.62Zm-1.21,3.24,0-.53.53,0,0,.53Zm-1.8,8.86c.82,1.52-.63.73,0,0Zm-4,8.68Zm-1.92,5.4a.73.73,0,0,1,.81.5C124.18,259.7,123.72,259.54,123.74,258.8Zm-2,4.34c.11.11-.19-.17,0,0Zm-2.6,1.7,0-1.07c.85.2,1-.27,1.31-.58,0,.51.32.58.3,1.05C119.65,263.92,119.92,264.85,119.17,264.84Zm-2.76,4.63c-.3-1.46,1.07-1.09,1.06,0Zm-10.62,8.39c-.29.05-.63-.24-.82-.53a59.38,59.38,0,0,1-18.39,8.46,3.37,3.37,0,0,1-2.28,1.67,1.14,1.14,0,0,1-.43-1,60.42,60.42,0,0,1-20,.87,62.15,62.15,0,0,1-8.17-1.62c-4,1.94-6.63,0-5.67-1.78a62.59,62.59,0,0,1-28.41-21.18,2.89,2.89,0,0,0,.2.94c-1.64-.05-1.91,1.89-3.69.94.34-2-2.06-1.11-1.72-3.14.76.2.68-.39,1.32-.31.13.45-.37.7,0,.8.85-.21.13-1.22.48-1.35a3.4,3.4,0,0,0,2.42.73A68,68,0,0,1,8.22,226.49a68.23,68.23,0,0,1,.44-7.88.44.44,0,0,1,0-.19A63.14,63.14,0,0,1,19.21,190a2.37,2.37,0,0,0-1.66,1.63c-.23-1-.6-1.76-1.93-1.53C16,187.47,18,189,19,188.36c.09.47.43.67.65,1l.27-.37c-.15-.09-.25-.23-.12-.64a1.43,1.43,0,0,1,.56,0A58.52,58.52,0,0,1,40.48,171l-.52,0,0-.53.54,0,0,.52a57.7,57.7,0,0,1,21.1-6.25c-.09-1-.3-2.07.43-2.28,0,1,1.13.82,1.39,1.55.06-.89,1.62-.58,1.36.48l0,0L66,164.5a.52.52,0,0,1,.34,0s0,0,0,0c.89,0,1.79,0,2.7,0,.23-1.43,2.74-3,4.42-1.9-.45-.18-1.14.57-.52.55.36-.1.5-.4,1.06-.31,0,.34.35.36.3.79-1.87.54-3.16.53-4.73.87,1.32.05,2.64.12,4,.25a61.86,61.86,0,0,1,9.18,1.65.3.3,0,0,1,.2-.16,1.08,1.08,0,0,1,.16.25c.85.22,1.7.43,2.54.68a1.88,1.88,0,0,1,1-1.34c-.28,1.23.45,1.37.76,2a64.55,64.55,0,0,1,38,34.68h0a62.58,62.58,0,0,1,5.48,23.21,59.64,59.64,0,0,1-25.6,51.43C105.56,277.24,105.93,277.28,105.79,277.86ZM62.31,162.76Zm2.69.7c-1.57.65,1.58-1.42.27,0C65.23,163.49,65.05,163.43,65,163.46Zm.83.77c-.32,0-.76.07-.81-.24C65.26,163.82,66,163.33,65.83,164.23Zm33,118.69Z"/>
        <path class="cls-1" d="M129.68,417a65.87,65.87,0,0,0,5.82-15.73c.22-1,.36-1.93.54-2.89v-.11h0c.26-1.37.48-2.73.64-4.09a.74.74,0,0,0-.45.88c-1.25-.28-.29-1.33.55-1.78a67.09,67.09,0,0,0-3.66-30.22c-.35.43-1.11-.06-1.77-.23a1,1,0,0,1,1.38-.8A72,72,0,0,0,127,350.33a2.8,2.8,0,0,0-.75,1.54c.64-.48.9.12,1,.69-1.3.21-3.86-.69-4.93-1.27a1.51,1.51,0,0,1,.42-1c-.61-.41-.72-1.18-1.68-1.33.31-.77-.13-1,0-1.62,1.25.88,1.5,2.48,3.33,2.92.52-.46,0-.34.16-1.05a2.62,2.62,0,0,0,1.8.07,71.83,71.83,0,0,0-5.8-7.95.58.58,0,0,0-.25.24.41.41,0,0,1,.06-.47,76,76,0,0,0-10.06-9.91c0,.26-.14.48-.37.49s-.48-.65-.42-1.11c-22-17.42-53.25-22.46-79.95-3.7A65.53,65.53,0,0,0,10,348.24l0,.27c1.18-.25.78,1.23.1,1.09a2.42,2.42,0,0,1-.35-.84c-7.92,14.31-9.73,30.8-6.46,46.41h0v0c.14.67.3,1.33.46,2l.06,0a.47.47,0,0,0,0,.1l.15.65c.3.13.72.17.49.68a.73.73,0,0,0-.35-.08c.49,1.89,1,3.76,1.68,5.61.29,0,.55.2.48.4a2.14,2.14,0,0,0-.34,0,74,74,0,0,0,3.73,8.87.27.27,0,0,1,.08.15A74.74,74.74,0,0,0,16,424c0-.24.11-.42.48-.45-.24.81.44.93,1.2,1a3.23,3.23,0,0,1-.38,1.25c.22.3.47.57.7.86.28-.13.59-.11.69.19-.21-.07-.19.18-.12.5A74,74,0,0,0,26,435.2h0a68.86,68.86,0,0,0,28.66,15.65,2.41,2.41,0,0,1,0-2.22,4.69,4.69,0,0,1,3.53,3l.79.18c.07-.09.15-.1.23.05.42.08.82.19,1.23.26a1.85,1.85,0,0,0,.4,0,1.58,1.58,0,0,0,.31.09,68.53,68.53,0,0,0,54.15-16.89c-.28,0-.5-.09-.44-.36,1.76.33-.33-1.43-.75-.39.08-1.52,1.41-.79,1.88.11,1.34-1.25,2.64-2.54,3.88-3.9-.38.07-.79.11-1.18.17-.3-.59-1-2.46.13-2.67,0,1.4,1.11,1.59,2.19,1.28a65.63,65.63,0,0,0,5.66-7.54l3.2-3.69m-7.16-70.26,1.32.2C124.18,349.45,122.67,348.93,122.79,348.12Zm9.08,36.63c1.73-.05.46.89,0,0Zm3.33,8.31c-.4-.09-.91-.1-.71-.64A.72.72,0,0,1,135.2,393.06Zm-1.66,7.56c-.2.15.13-.09,0,0Zm.31-2.11c0,.34.29.42.15.84l-.53-.08C133.23,398.84,133.28,398.58,133.85,398.51ZM132,407.39Zm1.78-13.74c.5,1-.79-.76,0,0Zm.38-6.13c-.81.93-.26-.93,0,0Zm-.35-10.29c-.07-.84-.11-.53.19-1.31l1.06.15C135,377,134.74,377.56,133.8,377.23ZM129.45,410c.6.91-.69-.83,0,0Zm1.3-8.69c-1.13.09.06-.8,0,0Zm.3-12.88c1.34.12.62-2.45,2.08-1.3-.69.15.22,1.06-.27,1.84C132.34,388.7,131.08,389,131.05,388.4ZM92.5,446.47a1.32,1.32,0,0,1,.72-1.24C93.71,445.85,93.17,446.5,92.5,446.47Zm-9.48,4Zm-5.64-1.92c.43-.34,1.41-.64,1.88,0C79.05,450,77.41,449.86,77.38,448.52Zm-1-2.57c.31,0,.35-.37.38-.75l1,.16-.19,1.32C77,446.62,76.58,446.38,76.42,446Zm-15.86-.21c-.05.35.43.31.45.61C60.36,447,59.47,445.77,60.56,445.74Zm-13.92-2.35c.58,0,.81.34.67.91l-.79-.12ZM29,433.49a.73.73,0,0,1,.71.64A.73.73,0,0,1,29,433.49Zm-.33-1.4c-.2.15.13-.09,0,0Zm-4.32-1.72a1.89,1.89,0,0,1-1.29,1.43C23.05,430.72,23.44,430.21,24.35,430.37ZM20.78,429c-1.13.09.06-.79,0,0ZM14,412.94Zm-2.35-4.12a1.45,1.45,0,0,0,.11,1.1C10.73,410.34,10.8,408.4,11.68,408.82Zm-4.31-3.6c-1.13.09.06-.8,0,0Zm-1.25-11.5c-.2.15.13-.09,0,0ZM5,397.6c-.2.14.12-.1,0,0ZM2.83,372.5c-1.13.08.06-.8,0,0Zm1.4-.33c-.2.14.12-.1,0,0Zm-.37,4.25Zm.75.38Zm.28,3.54c-.23-.54-.91-1.87-2-.84.25.36.68.59.33,1.4l-1-.16c.64-1-.59-2.75,1.22-2.78-.28-.06-.16-.37.3-.22C3.83,378.79,5.13,379,4.89,380.34ZM9,350.8c.5,1-.79-.77,0,0ZM6.49,371.43c-1.13.09.06-.8,0,0Zm-1.38,3.83c.34,0,.41-.28.83-.14C6.25,375.82,4.93,375.76,5.11,375.26Zm3.6-9.69-.08.52L8.1,366l.08-.52Zm2.54-15.24c-.81.92-.25-.93,0,0Zm-.73,8.5c-.95.74-.3-1,0,0Zm.45-4.78.15-1.05A.57.57,0,1,1,11,354.05Zm1.6,1.86c0,.84-.4,1.14-1.21.9.43-.76-1.26-1.75,0-1.62C11.41,355.55,11.36,355.9,12.57,355.91Zm1.33-7.07c-.57.59-1.48-.9-.41-.87C13.5,348.35,13.86,348.48,13.9,348.84Zm2.81-4.43c-.17,0-1.11.5-1.05-.16C15.83,344.2,16.77,343.75,16.71,344.41Zm-.61,7.72a4.3,4.3,0,0,1-3.25,1.94c.55-1,1.71-1.07,2-2.4C15.47,351.65,15.32,352.23,16.1,352.13Zm2.41-5.3Zm6.8-9.49c.11-.8.1-1.75,1-1.46C26.59,336.73,26.33,337.43,25.31,337.34ZM32,328.65a3.61,3.61,0,0,0-.76,1.5c-1-.48-1.3,0-2.07-.58.09-.62.57-.71.5-1.54C30.91,327.89,31,329.34,32,328.65Zm-2,2.4c.22-1.34,1.09-.36,1.32.19Zm.45.6c-.52.82-.51-1.12,0,0Zm.05,3.24c-.2.15.13-.09,0,0Zm-1.92.25c.54-.8.43-1.28.8-1.76C29.64,333.73,29.8,335.78,28.6,335.14Zm.89-4.17c-.2.14.13-.1,0,0Zm.08-.53c-.2.15.13-.09,0,0ZM34,333.52c-.52.81-.5-1.12,0,0Zm1-5.23c-.51-.06-.76-2.12.27-1.84C35.66,326.82,36,328.26,35,328.29Zm4.59-5.51-.53-.08.08-.53.53.08Zm3.13,6.12Zm1.56-3.27c-1.13.1.06-.79,0,0Zm2.72-7.4Zm-.56,5.58c-.78-.37-.9-1.22-1.35-1.82.95.43.85-.55,1.66-.29C46.38,322.74,46.59,322.6,46.45,323.81Zm2.45-.18Zm5-4.9ZM55.42,316c-.2.14.13-.1,0,0Zm.49.34c-.2.15.13-.09,0,0Zm0,7c-1.13.08.07-.8,0,0Zm.83-5.54c.81.21-.56-.86.38-.75C57.64,317.31,57.07,318.8,56.77,317.8Zm1.92-.25c1.06-2.82,2.43,1.53,0,0Zm5.76,1.13-1.06-.16c-.07-.94.42-1.12,1-1.19A1.71,1.71,0,0,1,64.45,318.68Zm4.4,1.2c-1.14.08.06-.8,0,0Zm.71.64Zm2.26-.74c-.2.15.13-.09,0,0Zm3.32-.58c-1.13.09.07-.8,0,0Zm1.37,3.44a.75.75,0,0,1-.71-.65A.73.73,0,0,1,76.51,322.64Zm10.7.52c-.74-.12-1.77-1-.64-1.18C86.6,322.51,87.56,322.34,87.21,323.16Zm3,1.78-.53-.07.08-.53.53.08Zm8.38,3.41c1.64-.54.59.75,0,0Zm7.8,5.47c-.2.15.13-.09,0,0Zm5,2.89A.74.74,0,0,1,112,336C112.27,336.44,112,336.87,111.3,336.71Zm3.9,2.74Zm1.19,2.87-1-.16c.35-.8-.08-1-.34-1.39.49.13.63-.21,1.1-.11C115.58,341.67,116.54,341.58,116.39,342.32Zm4,3.57c-1.48,0-.87-1.26.16-1.06Zm6.29,12c0,.3-.35.57-.67.7A59.43,59.43,0,0,1,131,378.21a3.38,3.38,0,0,1,1.22,2.55,1.13,1.13,0,0,1-1.07.24,60.23,60.23,0,0,1-2.83,19.8,63.11,63.11,0,0,1-3.1,7.72c1.16,4.31-1.22,6.52-2.8,5.25a62.59,62.59,0,0,1-26,24,2.87,2.87,0,0,0,1,0c-.36,1.61,1.5,2.23.24,3.81-1.93-.71-1.47,1.81-3.4,1.1.33-.71-.27-.74-.07-1.35.47,0,.62.49.79.12,0-.87-1.17-.36-1.23-.73a3.37,3.37,0,0,0,1.16-2.23,68,68,0,0,1-36.55,5.81,67.64,67.64,0,0,1-7.67-1.89.31.31,0,0,1-.18-.06,63.21,63.21,0,0,1-26-15.59,2.4,2.4,0,0,0,1.3,1.94c-1,.05-1.84.26-1.86,1.6-2.51-.84-.64-2.51-1.07-3.66.48,0,.73-.29,1.09-.45l-.32-.33c-.12.12-.28.2-.65,0a1.38,1.38,0,0,1,.13-.54A58.7,58.7,0,0,1,9.68,402.35l-.07.51-.53-.08.08-.53.52.08a57.58,57.58,0,0,1-2.25-21.9c-1-.08-2.09-.08-2.16-.84,1,.14,1-.95,1.78-1.08-.86-.22-.28-1.7.72-1.24l0,0c.06-.42.11-.84.18-1.27a.54.54,0,0,1,0-.34H8c.15-.88.33-1.76.52-2.64-1.36-.49-2.47-3.25-1-4.69-.26.4.35,1.22.45.6,0-.37-.31-.56-.11-1.09.34,0,.42-.29.83-.15.19,1.93-.07,3.2,0,4.8.28-1.28.6-2.57,1-3.85a60.09,60.09,0,0,1,3.32-8.72.3.3,0,0,1-.13-.23,1.06,1.06,0,0,1,.28-.1c.37-.8.73-1.6,1.14-2.37A1.91,1.91,0,0,1,13.1,356c1.15.5,1.42-.19,2.06-.39a64.61,64.61,0,0,1,41.09-30.9h0a62.39,62.39,0,0,1,23.82-1.1,59.61,59.61,0,0,1,45.83,34.65C126.07,358,126.18,357.62,126.72,357.87ZM5.57,379.37Zm1.19-2.52c.35,1.67-1.11-1.81,0-.26C6.83,376.63,6.74,376.8,6.76,376.85Zm.9-.67c-.08.3-.06.76-.38.75C7.16,376.66,6.82,375.87,7.66,376.18Zm122.75-10.5Z"/>
        <path class="cls-1" d="M0,534.77l.53,4.86a65.68,65.68,0,0,0,.37,9.42c.72.87,1.77,1.36,2.53.19.81.81-.83,2-1.41,2.27-.29-.27-.6-.54-.88-.81q.38,2.73,1,5.42c.9-.48,2.41-.33,1.6,1,.26-1.1-2.46-.84-.83-.12-.11.27-.32.2-.57,0a68.53,68.53,0,0,0,35,44.69,2.65,2.65,0,0,0,.3.11,3.4,3.4,0,0,0,.34.2c.38.18.77.31,1.16.48.15-.07.21,0,.22.09l.75.31a4.68,4.68,0,0,1,4.62-.48,2.39,2.39,0,0,1-1.24,1.84,68.9,68.9,0,0,0,32.48,3.42h0a73.1,73.1,0,0,0,10.62-2.23c.24-.22.4-.41.19-.47.25-.19.52,0,.67.23.36-.11.72-.19,1.07-.3a3.15,3.15,0,0,1,.39-1.25c.67.38,1.29.67,1.55-.13.29.23.28.44.15.64a75.75,75.75,0,0,0,11.23-5,.21.21,0,0,1,.15-.07,75.86,75.86,0,0,0,8.11-5.18,2.45,2.45,0,0,0-.29-.18c.06-.2.36-.17.62,0,1.57-1.16,3.1-2.38,4.57-3.66a.94.94,0,0,0-.33-.13c.1-.55.47-.35.79-.28l.49-.45s0-.07,0-.11a.14.14,0,0,1,0,.06c.51-.45,1-.9,1.51-1.37v0h0c11.57-11,19.46-25.56,21.08-41.84a2.3,2.3,0,0,1-.78.49c-.63-.26-.11-1.71.71-.84l.12-.24a65.45,65.45,0,0,0-3.94-28.73c-11.3-30.62-39.9-44.26-67.87-42.42-.22.41-.75.79-1,.67s-.14-.37,0-.61a75.76,75.76,0,0,0-13.91,2.44.43.43,0,0,1-.23.42.52.52,0,0,0-.07-.35A76.81,76.81,0,0,0,42.28,480a2.61,2.61,0,0,0,1.53,1c-.3.67-.64.29-.47,1,1.75.68,2.88-.5,4.4-.51-.27.57-.76.51-.94,1.32-.88-.42-1.41.15-2.15.13a1.48,1.48,0,0,1-.23,1.08c-1.2-.13-3.82-.84-4.77-1.76.38-.42.94-.77,1.19,0a2.76,2.76,0,0,0,.26-1.7,71.16,71.16,0,0,0-11.38,6.4,1,1,0,0,1,.68,1.44c-.65-.23-1.55-.26-1.59-.81a67,67,0,0,0-20.2,22.77c.44.85.63,2.27-.56,1.78a.74.74,0,0,0,.13-1c-.63,1.21-1.23,2.46-1.8,3.73h0l-.06.09c-.4.89-.83,1.76-1.19,2.68A65.65,65.65,0,0,0,1,533.81m43.65-53.35,1.19.59C45.47,481.78,43.94,481.35,44.64,480.46ZM17.54,506c-.88.47-1.4-1,0,0ZM11,510.83c-.14.56-.56.29-.95.13A.73.73,0,0,1,11,510.83Zm-3.88,7.3c0-.16.08.23,0,0ZM8,517.05l-.48-.24c.12-.42.43-.3.59-.6C8.51,516.59,8.4,516.83,8,517.05Zm-3.4,7.52c.08.24-.05-.14,0,0Zm6.34-12.31c1.09-.18-1,.52,0,0ZM14.09,507c.74-.62.14,1.22,0,0Zm5.77-9.93,1,.47c-.2.82-.06.54-.59,1.2C19.26,498.47,19.36,497.84,19.86,497.07ZM5.19,528.14c1-.29-1,.41,0,0Zm3.87-7.88c.41-.7.88.71,0,0Zm5.28-11.36c.05-.92,1.31-1.15.83-1.67,1.85-.12-.2,1.59,1,2.26C15.77,510,14.91,509,14.34,508.9Zm.6,68.84a1.3,1.3,0,0,1-.1,1.43A.76.76,0,0,1,14.94,577.74Zm5.43,10.09c0-.15.09.23,0,0Zm4.18.57c.76-.27,1.4.53,1.56,1.06C25.32,590.54,23.9,589.72,24.55,588.4Zm2.38-.62.58-1.19,1,.47c-.19.33-.37.66-.11.83A1.29,1.29,0,0,1,26.93,587.78ZM40.81,597c.18-.23.55.07.71-.24C42.4,597.38,41,597.86,40.81,597ZM54,603.44l-.71-.36a.64.64,0,0,1,1.07-.36Zm19.55,1.29a.74.74,0,0,1,1-.13A.74.74,0,0,1,73.5,604.73Zm2-1.09c-.05-.15.09.23,0,0Zm4.79,3a1.89,1.89,0,0,1-.25-1.91C80.89,605.06,80.92,605.71,80.3,606.59Zm3.45-1c.4-.69.88.71,0,0Zm14.7-9.4c.08.24,0-.14,0,0ZM102,595a1.46,1.46,0,0,0,.71-.84C103.69,594.31,102.64,595.94,102,595Zm6.31-1.36c.4-.69.88.72,0,0Zm7.56-8.74Zm-1.28,3.82Zm16.06-19.41c.4-.69.88.71,0,0Zm-1-1.07ZM127.58,572Zm-.83-.11c.08.23-.06-.15,0,0Zm.24,1.31c.46.14.38.46.12.35,1.48,1.06-.54,1.82-.57,3l-1-.47c.17-.87.66-.81,1.07-1-.34-1.48-1.65-.78-2.15-.46C125.07,573.35,126.26,573.92,127,573.15Zm10.91-25.21c1.08-.19-1,.52,0,0Zm-9.64,18.41c.4-.69.88.72,0,0Zm-1.65,3.35c.42.12.3.42.6.59C127.08,570.8,126,570.1,126.61,569.7Zm3.63-9.2L130,561l-.48-.24.23-.47Zm6.09-14.22c.74-.62.14,1.22,0,0Zm-4.23,7.41c.82-.64.36,1.15,0,0Zm2.82-5.14-.47,1A.57.57,0,1,1,134.92,548.55Zm-1.42,1.68c1.09.61-.86.46-.94,1.32-.8-.26-1-.73-.49-1.43C133.08,550.81,133.24,550.5,133.5,550.23Zm2.33-7.16c.9.59-.69,1.29-.82.48C135.24,543.28,135.61,543.38,135.83,543.07Zm.33-4.29c-.33.58-.84-.33-.95-.47C135.54,537.73,136.05,538.64,136.16,538.78Zm-3.52,6.57c-.55,1.25.35,2,.26,3.1a4.28,4.28,0,0,1-1.58-3.44C131.9,545.54,132.11,545,132.64,545.35Zm-.29-6.07Zm-.21-13.45c.93.28.38,1.06,0,1.78C131.27,527.11,131.45,526.38,132.14,525.83Zm1.73-8.36c-.53.65-.18,1-.47,1.56-1,.07-1-.56-2-.7a3.6,3.6,0,0,0,.23-1.67C132.05,517.81,132.92,516.65,133.87,517.47Zm-3.2,1.69c.49-.32,1.77-.63,1.19.59Zm.48.83c1-.64,0,1,0,0Zm-1.89,2.64ZM131,522c0,.61-.33.94-.34,1.91C129.35,523.77,130.65,522.18,131,522Zm1.3-2Zm.23-.48Zm-5.36,0c1.06-.63,0,1,0,0Zm2.94-6.57c1,.36-.37,1.91-.83,1.68C128.53,514.06,129.62,513.06,130.15,513ZM128.91,507l.48.23-.23.48-.48-.23Zm-6.28,3.73Zm.57-3.57c.4-.7.88.71,0,0Zm2-7.64c.08.23,0-.15,0,0Zm-1.77,3c.81.25.18,1,1.2,1.18-.71.25-1.29.87-2.14.73C123,503.38,123.12,503.61,123.4,502.54Zm-2.85.38c.08.23,0-.15,0,0Zm-1.36-6.9Zm.33-3.1Zm-.59,0Zm-4,5.75c.4-.69.88.71,0,0Zm2.58-5.86c.83.45-.9.55-.11.84C116.57,494.29,117,492.75,117.5,492.81Zm-1.55-.46c-2.87-.13.73-2.93,0,0Zm-4.55-3.42a1,1,0,0,1,.13,1.54l-1-.47A1.7,1.7,0,0,1,111.4,488.93Zm-5.13-.44c.4-.7.88.71,0,0Zm-1,.12Zm-1.44-1.89Zm-2.4-2.37c.4-.69.88.72,0,0Zm-2.13,1.92a.73.73,0,0,1-.95.13A.72.72,0,0,1,99.35,486.27Zm-8.86-6.13c.85.76-.52.93-1.19.6C89.47,479.87,90.17,480.55,90.49,480.14Zm-4.41-.09.48.24-.23.47-.48-.23ZM77,478.57c-.92.28-1-1.37,0,0Zm-9.53.07c0-.16.08.23,0,0Zm-5.84-1.39a.73.73,0,0,1,.12.95C61.09,477.91,61.13,477.43,61.65,477.25Zm-4.64,1Zm-1.43.49c.45.18.36.54.84.71-.41.15-.89.09-1.06.95l-1-.47C54.69,479.22,55.44,479.85,55.58,478.72Zm-6.07.87c1,.42.75,1.83-.46,1Zm-12,8a59.62,59.62,0,0,1,57.4-2.44,62.23,62.23,0,0,1,19,14.45h0a64.56,64.56,0,0,1,16.23,48.78c.41.52.24,1.24,1.48,1.49a1.92,1.92,0,0,1-1.64.38c-.11.87-.27,1.74-.41,2.6a1.21,1.21,0,0,1,.16.25.27.27,0,0,1-.23.11,62,62,0,0,1-2.22,9.06c-.43,1.27-.9,2.51-1.4,3.73,1-1.29,1.47-2.48,2.72-4,.42.12.3.43.6.59-.14.55-.47.55-.71.84-.27.56.7.23.72-.25.34,2-2.14,3.64-3.54,3.27-.35.83-.7,1.66-1.08,2.47,0,0,0,0,0,0a.47.47,0,0,1-.16.29l-.57,1.15h0c1.08.19.72,1.73-.11,1.43.56.54,0,1.46.85,1.9-.49.58-1.4,0-2.26-.54A57.74,57.74,0,0,1,108.06,590l.47.23-.23.48-.48-.24.23-.46a58.71,58.71,0,0,1-24,11.31,1.46,1.46,0,0,1-.21.52c-.43,0-.51-.2-.54-.37l-.44.09c.19.34.24.73.63,1-1,.7-.42,3.14-3,2.41.76-1.12.17-1.78-.61-2.38a2.37,2.37,0,0,0,2.17-.86,63.18,63.18,0,0,1-30.25-2,.28.28,0,0,1-.18-.05,67.81,67.81,0,0,1-7.39-2.81A67.94,67.94,0,0,1,17.5,571.3a3.34,3.34,0,0,0-.32,2.5c-.26.26-.89-.8-1.43-.11-.07.4.35,0,.72.35-.19.62-.69.31-.83,1.08-2-.52-.17-2.33-2.16-2.85-.15-2,1.74-1.46,2.36-3a2.82,2.82,0,0,0,.78.57,62.67,62.67,0,0,1-7.79-34.57c-2,.15-2.72-3,.69-5.91a62.79,62.79,0,0,1,1.84-8.12,60.37,60.37,0,0,1,8.93-17.89,1.18,1.18,0,0,1-.75-.81,3.42,3.42,0,0,1,2.46-1.4,59.31,59.31,0,0,1,15.21-13.36c-.18-.29-.32-.71-.15-1C37.65,486.94,37.53,487.29,37.52,487.61Zm87,85.79c.07.24-.06-.15,0,0Zm.57-3c1.82-.62-1.36,1.41-.12.24C125,570.62,125,570.44,125.07,570.42Zm-.6,0c-.26-.17,0-.53.12-.83C125.46,569.82,124.73,570.27,124.47,570.42ZM29.59,491.17c.08.23-.06-.15,0,0Z"/>
        <path class="cls-1" d="M1.06,692.47a65.88,65.88,0,0,0,.82,16.75c.18,1,.42,1.91.64,2.87a.36.36,0,0,0,0,.09h0c.3,1.36.64,2.7,1,4a.76.76,0,0,0,.07-1c1.26-.24.78,1.12.19,1.85a66.87,66.87,0,0,0,15.24,26.36c.15-.53,1-.38,1.72-.48a1,1,0,0,1-1,1.27,71.56,71.56,0,0,0,9.87,8.55,2.7,2.7,0,0,0,.09-1.71c-.39.69-.88.24-1.17-.25,1.12-.7,3.82-.88,5-.76a1.46,1.46,0,0,1,0,1.09c.73.14,1.13.81,2.08.57,0,.83.5.87.66,1.47-1.49-.31-2.36-1.69-4.22-1.37-.29.62.11.32.27,1a2.62,2.62,0,0,0-1.68.64,74.44,74.44,0,0,0,8.45,5,.62.62,0,0,0,.14-.33.44.44,0,0,1,.13.46,76.9,76.9,0,0,0,13.15,5.17c-.07-.26-.07-.5.14-.6s.7.41.83.85c27,7.4,57.79-.25,75-28a65.32,65.32,0,0,0,9.61-27.36l-.07-.26c-1,.69-1.2-.83-.52-1a2.25,2.25,0,0,1,.65.64C139.91,691.84,135.1,676,126,662.9h0v0c-.39-.56-.8-1.1-1.2-1.65,0,0,0,0,0,.07a.48.48,0,0,0,0-.12l-.39-.53c-.32,0-.72.12-.72-.44a.9.9,0,0,0,.36-.06q-1.78-2.32-3.75-4.5c-.28.07-.58,0-.6-.18a1.6,1.6,0,0,0,.33-.11,76.84,76.84,0,0,0-6.92-6.7.2.2,0,0,1-.13-.1,75.39,75.39,0,0,0-10-7.14c.09.22.06.43-.27.6-.09-.84-.77-.68-1.49-.44a3.23,3.23,0,0,1-.14-1.3c-.32-.18-.66-.33-1-.51-.21.23-.5.33-.71.09.22,0,.1-.24-.09-.5a72.14,72.14,0,0,0-10-4.31h0a68.76,68.76,0,0,0-32.51-3.14,2.38,2.38,0,0,1,.85,2.05,4.67,4.67,0,0,1-4.43-1.39c-.26,0-.53.09-.79.15,0,.11-.11.15-.24,0-.41.08-.82.14-1.24.23a3.18,3.18,0,0,0-.37.14,1.75,1.75,0,0,0-.32,0A68.53,68.53,0,0,0,7,670c.26-.09.49-.11.54.16-1.75.39.87,1.18.84.06.53,1.44-1,1.28-1.77.64-.75,1.67-1.43,3.38-2,5.11l1-.62c.51.43,1.89,1.88.93,2.51-.51-1.3-1.64-1-2.52-.32a65.81,65.81,0,0,0-2.24,9.16L.28,691.33m34.17,61.8-1.29.34C32.66,752.46,34.24,752.34,34.45,753.13ZM11.72,723c-1.57.72-.77-.64,0,0Zm-6.33-6.33c.41-.08.88-.27.9.31A.72.72,0,0,1,5.39,716.68ZM4,709.07Zm.54,2.06c-.1-.32-.42-.27-.46-.71l.51-.13C4.93,710.59,5,710.85,4.49,711.13Zm-1.77-8.89c-.08.13.12-.22,0,0Zm3.75,13.33c-.84-.7,1,.39,0,0Zm2.07,5.79c.37-1.17.59.76,0,0Zm4.36,9.32c.39.75.31.45.33,1.29l-1,.27C11.87,731.39,11.9,730.75,12.9,730.68ZM4,698.86c-.91-.6,1,.5,0,0Zm2.22,8.5c1-.52.25.77,0,0Zm4.77,12c-1.27.42.4,2.5-1.4,2,.58-.42-.61-.9-.47-1.81C9.74,719.56,10.77,718.78,11,719.33Zm12.66-68.54a1.3,1.3,0,0,1-.18,1.43A.77.77,0,0,1,23.69,650.79Zm7.16-7.38Zm5.94-.44c-.27.48-1,1.14-1.74.72C34.67,642.26,36.23,641.74,36.79,643Zm1.89,2c-.29.12-.17.48-.06.84l-1,.27-.33-1.29A1.28,1.28,0,0,1,38.68,645Zm14.66-6c-.09-.35-.51-.12-.65-.38C53,637.7,54.33,638.46,53.34,638.92Zm13.73-3.31c-.55.19-.88,0-1-.57l.77-.21Zm20.11,2.18a.75.75,0,0,1-.91-.31A.73.73,0,0,1,87.18,637.79Zm.85,1.15c.13-.21-.08.14,0,0Zm4.65-.11a1.91,1.91,0,0,1,.63-1.82C93.75,638,93.58,638.63,92.68,638.83Zm3.81-.17c1-.52.26.76,0,0ZM109,650.8c-.08.14.13-.21,0,0Zm3.78,2.87a1.46,1.46,0,0,0-.53-1C113.08,651.91,113.78,653.71,112.8,653.67Zm5.38,1.62c1-.52.25.76,0,0Zm5.66,10.09c.12-.22-.08.13,0,0Zm-.5-4ZM135.2,683.6c1-.52.26.76,0,0Zm-1.15.85c.13-.21-.08.14,0,0Zm-1.33-4.05c.12-.22-.08.13,0,0Zm-.84-.06Zm-1.65-3.15c.42.42,1.57,1.37,2.19,0-.37-.23-.85-.27-.85-1.15l1-.27c-.2,1.14,1.63,2.3,0,3,.28-.06.29.27-.19.32C131.82,678.21,130.54,678.53,130.23,677.19ZM138,706c-.85-.7,1,.4,0,0Zm-5.76-20c1-.52.25.76,0,0ZM132,682c-.32.1-.27.42-.7.46C130.75,681.89,132,681.43,132,682Zm.5,10.33-.14-.52.52-.13.13.51Zm3.64,15c.38-1.17.6.76,0,0Zm-2.66-8.11c.58-1.05.67.8,0,0Zm1.46,4.57.27,1A.57.57,0,1,1,135,703.76Zm-2.2-1.08c-.33-.77-.08-1.2.76-1.3-.1.86,1.85,1.11.66,1.48C134,702.55,133.88,702.21,132.76,702.68Zm1.56,7c.28-.77,1.71.24.71.64C134.87,710,134.49,710,134.32,709.71Zm-.86,5.18c.14-.12.83-.9,1-.27C134.36,714.73,133.67,715.52,133.46,714.89ZM131,707.55a4.25,4.25,0,0,1,2.23-3.06c-.13,1.09-1.16,1.65-.88,3C131.76,707.74,131.67,707.14,131,707.55Zm-.14,5.81c.13-.21-.08.14,0,0Zm-2.52,11.4c.21.78.59,1.66-.37,1.75C127.4,725.83,127.37,725.08,128.34,724.76Zm-2.74,10.62a3.54,3.54,0,0,0,.11-1.68c1.07.07,1.19-.55,2.13-.28.17.61-.24.87.15,1.61C126.89,735.66,126.28,734.34,125.6,735.38Zm.88-3c.32,1.32-.87.76-1.29.34Zm-.65-.38c.15-.95.9.84,0,0Zm-1.33-3c.13-.21-.07.14,0,0Zm1.67-1c-.17.95.11,1.34,0,1.93C125.77,729.78,124.82,728,126.17,728.08Zm.82,4.19c.13-.22-.07.13,0,0Zm.14.51Zm-5.25-1.11c.16-.95.91.84,0,0Zm1.09,5.22c.49-.13,1.53,1.66.47,1.81C122.94,738.51,122.08,737.31,123,736.89Zm-2.06,6.87.52-.13.13.52-.51.13Zm-5.28-4.4c-.08.14.13-.21,0,0Zm-.15,3.62c1-.53.25.76,0,0Zm.4,7.88Zm-1.67-5.35c.86,0,1.3.77,2,1.15-1,0-.56.83-1.41.92C114.69,746.47,114.56,746.68,114.21,745.51ZM112,746.64c-.08.13.12-.22,0,0Zm-2.71,6.48Zm-.29,3.11c.12-.22-.08.13,0,0Zm-.59-.13c.13-.21-.07.14,0,0Zm-2.78-6.43c1-.52.26.76,0,0Zm1.42,5.41c-.83.13.85.58-.06.85C106.47,755.88,106.41,754.29,107.08,755.08Zm-1.67,1c.13,3-2.84-.45,0,0Zm-5.74,1.22,1-.27a1,1,0,0,1-.43,1.49A1.73,1.73,0,0,1,99.67,757.29Zm-4.51.63c1-.52.25.76,0,0Zm-.91-.31Zm-1.79,1.57ZM89.63,761c1-.52.26.76,0,0ZM87,758.39a.74.74,0,0,1,.91.32A.74.74,0,0,1,87,758.39Zm-10,3.73c.72-.19,2,.25,1,.83C77.79,762.48,77,763,77,762.12Zm-3.43-.48.52-.14.14.52-.52.13Zm-9,.15c-1.3,1.14-.84-.45,0,0Zm-9.32-2c.13-.21-.08.14,0,0Zm-5.69-.71a.75.75,0,0,1-.31.91C48.72,759.74,48.78,759.25,49.5,759.11Zm-4.66-1ZM42.62,756l1-.27c0,.88.48.92.85,1.16-.5.07-.49.43-1,.52C43.62,756.23,42.77,756.69,42.62,756Zm-5.12-1.69c1.36-.61,1.3.82.27,1ZM27,745.71c-.11-.27.1-.66.34-.91a59.13,59.13,0,0,1-12.23-16.13A3.37,3.37,0,0,1,13,726.8a1.12,1.12,0,0,1,.9-.63,60.15,60.15,0,0,1-5.18-19.32,61.22,61.22,0,0,1-.18-8.33c-2.77-3.5-1.44-6.47.51-5.92a62.54,62.54,0,0,1,14.53-32.32,3.22,3.22,0,0,0-.88.4c-.3-1.62-2.25-1.46-1.71-3.4,2.05-.11.64-2.25,2.69-2.36,0,.79.53.58.59,1.22-.41.22-.76-.2-.77.21.39.78,1.21-.14,1.42.18a3.35,3.35,0,0,0-.19,2.51,68,68,0,0,1,31.33-19.7,66.65,66.65,0,0,1,7.8-1.27.34.34,0,0,1,.19,0,63.11,63.11,0,0,1,30,4.12,2.38,2.38,0,0,0-1.95-1.27c.88-.43,1.59-1,1.08-2.21,2.64-.2,1.57,2.06,2.42,2.95-.43.19-.56.56-.82.84l.42.18c.06-.16.18-.29.6-.25a1.53,1.53,0,0,1,.1.55,58.69,58.69,0,0,1,21.26,15.88l-.13-.5.51-.13.14.51-.51.13a57.9,57.9,0,0,1,10.67,19.26c.93-.31,2-.75,2.31-.07-.93.25-.55,1.27-1.21,1.69.88-.14.92,1.45-.17,1.42l0,0c.11.41.22.82.32,1.24a.48.48,0,0,1,.11.33h0c.21.87.39,1.75.57,2.64,1.45-.09,3.54,2,2.81,3.9.08-.47-.8-1-.65-.38.17.33.5.39.53,1-.33.1-.27.43-.71.46-.93-1.7-1.2-3-1.87-4.42.24,1.29.45,2.6.62,3.93a62.1,62.1,0,0,1,.37,9.32c.08,0,.16,0,.2.16a2,2,0,0,1-.21.21c0,.87-.05,1.75-.12,2.63a1.87,1.87,0,0,1,1.53.7c-1.26,0-1.23.74-1.74,1.17a64.6,64.6,0,0,1-25.65,44.55h0a62.55,62.55,0,0,1-21.48,10.37A59.63,59.63,0,0,1,27.62,745C27.57,745.35,27.61,745.72,27,745.71Zm103-67.35Zm-.1,2.78c-1-1.39,1.73,1.23.07.26C129.9,681.37,129.91,681.18,129.88,681.14Zm-.57,1c0-.31-.23-.72.06-.84C129.59,681.47,130.21,682.07,129.31,682.11ZM20.55,740Z"/>
        <path class="cls-1" d="M66.81,128.74c.15-.09.28-.12.35,0a3.33,3.33,0,0,1-.36.59c0,1.49,0,0,0,1.47.22-.15.45-.31.7-.5-.23.38-.46.77-.71,1.17,0,2.4,0,4.81-.05,7.22a1.89,1.89,0,0,1,.4-.22c.61,0-.69.86-.08.87.25.18.8-.4,1.38-1,.21-.5-.49-.61.46-1.44,1.48-.94,1.19.93,1,1.92a15.23,15.23,0,0,0-3.18,3.3q0,4.78-.07,9.57a2.43,2.43,0,0,1,1.89-.95,11.4,11.4,0,0,1-1.8,2,.81.81,0,0,1-.09-.1c0,1.88,0,3.76,0,5.64.63-.49,1.1-.66,1,0-.36.31-.69.63-1,.94,0,.85,0,1.7,0,2.54a1.8,1.8,0,0,0,1.67,1.75h0a1.89,1.89,0,0,0,1.45-.3,6.73,6.73,0,0,0,1.81-1.84,1.53,1.53,0,0,0,.21-.81l.36-28.07c-.3.49-1,1.13-.7,1.6-1.73,1.18-2.08-.26-1.89-1.39a14.68,14.68,0,0,0,2.83-2.55c-3.13-3-2,1.14-5.09-1.8Z"/>
        <path class="cls-1" d="M66.81,287.74c.15-.09.28-.12.35,0a3.33,3.33,0,0,1-.36.59c0,1.49,0,0,0,1.47.22-.15.45-.31.7-.5-.23.38-.46.77-.71,1.17,0,2.4,0,4.81-.05,7.22a1.89,1.89,0,0,1,.4-.22c.61,0-.69.86-.08.87.25.18.8-.4,1.38-1,.21-.5-.49-.61.46-1.44,1.48-.94,1.19.93,1,1.92a15.23,15.23,0,0,0-3.18,3.3q0,4.79-.07,9.57a2.43,2.43,0,0,1,1.89-1,11.4,11.4,0,0,1-1.8,2,.81.81,0,0,1-.09-.1c0,1.88,0,3.76,0,5.64.63-.49,1.1-.66,1,0-.36.31-.69.63-1,.94,0,.85,0,1.7,0,2.54a1.8,1.8,0,0,0,1.67,1.75h0a1.89,1.89,0,0,0,1.45-.3,6.73,6.73,0,0,0,1.81-1.84,1.53,1.53,0,0,0,.21-.81l.36-28.07c-.3.49-1,1.13-.7,1.6-1.73,1.18-2.08-.26-1.89-1.39a14.68,14.68,0,0,0,2.83-2.55c-3.13-2.95-2,1.14-5.09-1.8Z"/>
        <path class="cls-1" d="M66.81,444.74c.15-.09.28-.12.35,0a3.33,3.33,0,0,1-.36.59c0,1.49,0,0,0,1.47.22-.15.45-.31.7-.5-.23.38-.46.77-.71,1.17,0,2.4,0,4.81-.05,7.22a1.89,1.89,0,0,1,.4-.22c.61,0-.69.86-.08.87.25.18.8-.4,1.38-1,.21-.5-.49-.61.46-1.44,1.48-.94,1.19.93,1,1.92a15.23,15.23,0,0,0-3.18,3.3q0,4.79-.07,9.57a2.43,2.43,0,0,1,1.89-1,11.4,11.4,0,0,1-1.8,2,.81.81,0,0,1-.09-.1c0,1.88,0,3.76,0,5.64.63-.49,1.1-.66,1,0-.36.31-.69.63-1,.94,0,.85,0,1.7,0,2.54a1.8,1.8,0,0,0,1.67,1.75h0a1.89,1.89,0,0,0,1.45-.3,6.73,6.73,0,0,0,1.81-1.84,1.53,1.53,0,0,0,.21-.81l.36-28.07c-.3.49-1,1.13-.7,1.6-1.73,1.18-2.08-.26-1.89-1.39a14.68,14.68,0,0,0,2.83-2.55c-3.13-2.95-2,1.14-5.09-1.8Z"/>
        <path class="cls-1" d="M66.81,602.74c.15-.09.28-.12.35,0a3.33,3.33,0,0,1-.36.59c0,1.49,0,0,0,1.47.22-.15.45-.31.7-.5-.23.38-.46.77-.71,1.17,0,2.4,0,4.81-.05,7.22a1.89,1.89,0,0,1,.4-.22c.61,0-.69.86-.08.87.25.18.8-.4,1.38-1,.21-.5-.49-.61.46-1.44,1.48-.94,1.19.93,1,1.92a15.23,15.23,0,0,0-3.18,3.3q0,4.78-.07,9.57a2.43,2.43,0,0,1,1.89-.95,11.4,11.4,0,0,1-1.8,2,.81.81,0,0,1-.09-.1c0,1.88,0,3.76,0,5.64.63-.49,1.1-.66,1,0-.36.31-.69.63-1,.94,0,.85,0,1.7,0,2.54a1.8,1.8,0,0,0,1.67,1.75h0a1.89,1.89,0,0,0,1.45-.3,6.73,6.73,0,0,0,1.81-1.84,1.53,1.53,0,0,0,.21-.81l.36-28.07c-.3.49-1,1.13-.7,1.6-1.73,1.18-2.08-.26-1.89-1.39a14.68,14.68,0,0,0,2.83-2.55c-3.13-2.95-2,1.14-5.09-1.8Z"/>
      </g>
      <g>
        <circle class="cls-2" cx="76.83" cy="356.91" r="1.32"/>
        <circle class="cls-2" cx="76.83" cy="360.21" r="1.32"/>
        <circle class="cls-2" cx="76.83" cy="363.52" r="1.32"/>
        <path class="cls-2" d="M88.63,355.7H81.28a1.22,1.22,0,0,0,0,2.43h7.35a1.22,1.22,0,1,0,0-2.43Z"/>
        <path class="cls-2" d="M88.63,359H81.28a1.22,1.22,0,0,0,0,2.43h7.35a1.22,1.22,0,1,0,0-2.43Z"/>
        <path class="cls-2" d="M88.63,362.32H81.28a1.22,1.22,0,0,0,0,2.43h7.35a1.22,1.22,0,1,0,0-2.43Z"/>
        <circle class="cls-2" cx="51.05" cy="356.91" r="1.32"/>
        <circle class="cls-2" cx="51.05" cy="360.21" r="1.32"/>
        <circle class="cls-2" cx="51.05" cy="363.52" r="1.32"/>
        <path class="cls-2" d="M62.86,355.7H55.5a1.22,1.22,0,0,0,0,2.43h7.36a1.22,1.22,0,0,0,0-2.43Z"/>
        <path class="cls-2" d="M62.86,359H55.5a1.22,1.22,0,0,0,0,2.43h7.36a1.22,1.22,0,0,0,0-2.43Z"/>
        <path class="cls-2" d="M62.86,362.32H55.5a1.22,1.22,0,0,0,0,2.43h7.36a1.22,1.22,0,0,0,0-2.43Z"/>
        <path class="cls-2" d="M106.47,405.55a4.47,4.47,0,0,0-4.29,3.25H90.69v-8.31h3.53a6.4,6.4,0,1,0,0-12.79V345.37A1.22,1.22,0,0,0,93,344.16H71.94a1.21,1.21,0,0,0-1.22,1.21V375a9.51,9.51,0,0,0-2.27-.9v-28.7a1.21,1.21,0,0,0-1.21-1.21H46.16A1.21,1.21,0,0,0,45,345.37V370a1.22,1.22,0,1,0,2.43,0v-.64H66v4.37h-.08A10,10,0,0,0,56.1,382a7.36,7.36,0,0,0-8.72,2.16v-8.83a1.22,1.22,0,0,0-2.43,0v12.43h-.33a6.4,6.4,0,1,0,0,12.79h3.54v8.31H36.67a4.46,4.46,0,1,0,0,2.43h12.7A1.22,1.22,0,0,0,50.59,410v-9.52h5.22v.7a1.22,1.22,0,1,0,2.43,0v-.7h10V412a4.46,4.46,0,1,0,2.43,0V400.49h10v17.92a4.46,4.46,0,1,0,2.43,0V400.49h5.22V410a1.22,1.22,0,0,0,1.22,1.22h12.7a4.46,4.46,0,1,0,4.29-5.68ZM32.38,412a2,2,0,1,1,2-2A2,2,0,0,1,32.38,412Zm40.77-65.45H91.79v4.47H73.15Zm0,22.78H85a1.22,1.22,0,0,0,0-2.43H73.15V353.49H91.79v13.45H90.2a1.22,1.22,0,0,0,0,2.43h1.59V387.7A5.65,5.65,0,0,0,86.5,384h-.35c0-.11,0-.22,0-.33a7.08,7.08,0,0,0-11.76-5.29,9.22,9.22,0,0,0-1.25-1.59ZM47.38,346.59H66v4.47H47.38Zm0,20.35V353.49H66v13.45Zm24.07,49.35a2,2,0,1,1-2-2A2,2,0,0,1,71.45,416.29Zm12.4,6.41a2,2,0,1,1-2-2A2,2,0,0,1,83.85,422.7ZM44.62,398.06a4,4,0,1,1,0-7.93,4,4,0,0,1,1.87.47,1.22,1.22,0,0,0,1.78-1.25,5.36,5.36,0,0,1-.05-.7A4.91,4.91,0,0,1,56.37,385h0a4.87,4.87,0,0,1,.44,6.91,1.21,1.21,0,0,0,.1,1.71,1.19,1.19,0,0,0,.81.31,1.23,1.23,0,0,0,.91-.41,7.3,7.3,0,0,0-.25-10,7.56,7.56,0,0,1,14.41-3,6.89,6.89,0,0,0-.77,3.19,7,7,0,0,0,3.25,5.94,1.22,1.22,0,0,0,1.31-2,4.62,4.62,0,0,1-2.13-3.89,4.67,4.67,0,0,1,.71-2.47h0a4.65,4.65,0,0,1,8.57,2.47,4.56,4.56,0,0,1-.27,1.55,1.22,1.22,0,0,0,1.66,1.51,3.13,3.13,0,0,1,1.38-.31,3.22,3.22,0,0,1,3.22,3.21c0,.11,0,.22,0,.32a1.22,1.22,0,0,0,2,1.05,4,4,0,0,1,2.53-.91,4,4,0,1,1,0,7.93Zm61.85,14a2,2,0,1,1,2-2A2,2,0,0,1,106.47,412Z"/>
        <path class="cls-2" d="M58.24,418.41v-12a1.22,1.22,0,1,0-2.43,0v12a4.46,4.46,0,1,0,2.43,0ZM57,424.72a2,2,0,1,1,2-2A2,2,0,0,1,57,424.72Z"/>
      </g>
      <g id="surface1">
        <path class="cls-2" d="M37.68,571.16H98.13a5,5,0,0,0,5-5v-3.78a1.26,1.26,0,0,0-1.25-1.26H99.39V542.19H96.87v18.89H94.35V543.45H91.83v17.63H75.61a3.52,3.52,0,0,0-3.16,2,1,1,0,0,1-.92.56H64.28a1,1,0,0,1-.92-.56,3.52,3.52,0,0,0-3.16-2H44V524.56H67.91v-2.51H42.72a1.25,1.25,0,0,0-1.26,1.25v37.78H38.94V523.3a3.77,3.77,0,0,1,3.78-3.77H67.91V517H42.72a6.3,6.3,0,0,0-6.3,6.29v37.78H33.91a1.26,1.26,0,0,0-1.26,1.26v3.78A5,5,0,0,0,37.68,571.16Zm-2.52-7.56h25a1,1,0,0,1,.91.56,3.55,3.55,0,0,0,3.17,2h7.25a3.54,3.54,0,0,0,3.17-2,1,1,0,0,1,.91-.56h25v2.52a2.52,2.52,0,0,1-2.52,2.52H37.68a2.52,2.52,0,0,1-2.52-2.52Z"/>
        <path class="cls-2" d="M46.5,527.08H49v2.52H46.5Z"/>
        <path class="cls-2" d="M51.53,527.08h2.52v2.52H51.53Z"/>
        <path class="cls-2" d="M56.57,527.08h2.52v2.52H56.57Z"/>
        <path class="cls-2" d="M70.42,534.64v-2.52H47.76a1.25,1.25,0,0,0-1.26,1.26v7.55a1.25,1.25,0,0,0,1.26,1.26H78v-2.52H49v-5Z"/>
        <path class="cls-2" d="M46.5,556.05h8.81v2.51H46.5Z"/>
        <path class="cls-2" d="M57.83,556.05h8.82v2.51H57.83Z"/>
        <path class="cls-2" d="M69.16,556.05H78v2.51H69.16Z"/>
        <path class="cls-2" d="M80.5,556.05h8.81v2.51H80.5Z"/>
        <path class="cls-2" d="M66.65,546a1.27,1.27,0,0,0-1.26-1.26h-6.3A1.26,1.26,0,0,0,57.83,546v6.3a1.26,1.26,0,0,0,1.26,1.26h6.3a1.27,1.27,0,0,0,1.26-1.26Zm-2.52,5H60.35v-3.78h3.78Z"/>
        <path class="cls-2" d="M55.31,546a1.26,1.26,0,0,0-1.26-1.26H47.76A1.26,1.26,0,0,0,46.5,546v6.3a1.26,1.26,0,0,0,1.26,1.26h6.29a1.26,1.26,0,0,0,1.26-1.26Zm-2.52,5H49v-3.78h3.77Z"/>
        <path class="cls-2" d="M88.05,553.53a1.26,1.26,0,0,0,1.26-1.26V546a1.26,1.26,0,0,0-1.26-1.26H81.76A1.26,1.26,0,0,0,80.5,546v6.3a1.26,1.26,0,0,0,1.26,1.26Zm-5-6.3h3.77V551H83Z"/>
        <path class="cls-2" d="M78,546a1.26,1.26,0,0,0-1.26-1.26h-6.3A1.27,1.27,0,0,0,69.16,546v6.3a1.27,1.27,0,0,0,1.26,1.26h6.3A1.26,1.26,0,0,0,78,552.27Zm-2.52,5H71.68v-3.78h3.78Z"/>
        <path class="cls-2" d="M89.31,503.16a18.89,18.89,0,1,0,18.89,18.89A18.89,18.89,0,0,0,89.31,503.16Zm0,35.26a16.38,16.38,0,1,1,16.37-16.37A16.37,16.37,0,0,1,89.31,538.42Z"/>
        <path class="cls-2" d="M89.31,513.23a9.17,9.17,0,0,1,1.66.18l-1.86,1.17,1.35,2.13L94.71,514a1.25,1.25,0,0,0,.34-1.8L92,508l-2,1.48,1,1.37A11.33,11.33,0,0,0,80,528.55l2.06-1.45a8.82,8.82,0,0,1,7.22-13.87Z"/>
        <path class="cls-2" d="M96.48,516.84a8.81,8.81,0,0,1-7.22,13.87,8.42,8.42,0,0,1-1.66-.17l1.86-1.18-1.34-2.13-4.25,2.68a1.28,1.28,0,0,0-.57.83,1.27,1.27,0,0,0,.22,1l3.1,4.25,2-1.49-1-1.37a11.34,11.34,0,0,0,10.9-17.72Z"/>
      </g>
      <g>
        <path class="cls-2" d="M82.73,227.43H81.36V224.7a10.93,10.93,0,0,0-21.86,0v2.73H58.14a1.37,1.37,0,0,0-1.37,1.37h0V252a1.36,1.36,0,0,0,1.37,1.36H82.73A1.36,1.36,0,0,0,84.1,252h0V228.8A1.37,1.37,0,0,0,82.73,227.43ZM62.24,224.7a8.2,8.2,0,1,1,16.39,0v2.73H75.9V224.7a5.47,5.47,0,0,0-10.93,0v2.73H62.24V224.7Zm10.93,0v2.73H67.7V224.7a2.74,2.74,0,0,1,5.47,0Zm8.19,26H59.5V230.17H81.36Z"/>
        <path class="cls-2" d="M74.06,234.27A5.46,5.46,0,0,0,66.34,242v4.6a1.36,1.36,0,0,0,1.36,1.37h5.47a1.36,1.36,0,0,0,1.36-1.37h0V242A5.44,5.44,0,0,0,74.06,234.27Zm-1.81,6.11h0a1.36,1.36,0,0,0-.45,1v3.8H69.07v-3.8a1.4,1.4,0,0,0-.45-1,2.69,2.69,0,0,1-.92-2,2.74,2.74,0,0,1,5.47,0A2.69,2.69,0,0,1,72.25,240.38Z"/>
        <path class="cls-2" d="M111.25,204.19a5.45,5.45,0,0,0-10.56,0H95a1.36,1.36,0,0,0-1.37,1.36h0v10c-1.4-.54-2.77-1.15-4.1-1.81V199.91a5.47,5.47,0,1,0-2.73,0v12.36A42.53,42.53,0,0,1,71.6,198a1.42,1.42,0,0,0-2-.36,1.37,1.37,0,0,0-.36.36,39.68,39.68,0,0,1-9.77,10.61v-8.73a5.46,5.46,0,1,0-2.73,0v10.68a51.21,51.21,0,0,1-6.83,3.8V194.64a1.36,1.36,0,0,0-1.37-1.36H40.18a5.46,5.46,0,1,0,0,2.73h7v19.55a50.64,50.64,0,0,1-6.9,2.17,1.32,1.32,0,0,0-.45.21l-.26.17a1.37,1.37,0,0,0-.59,1.13v3.87A52.74,52.74,0,0,0,69.87,271,1.32,1.32,0,0,0,71,271a52.76,52.76,0,0,0,30.86-47.92v-3.87a1.35,1.35,0,0,0-.6-1.13l-.25-.17a1.28,1.28,0,0,0-.46-.21c-1.4-.33-2.79-.73-4.16-1.18v-9.61h4.3a5.46,5.46,0,0,0,10.56-2.75Zm-76.34-6.81a2.74,2.74,0,1,1,2.73-2.74A2.74,2.74,0,0,1,34.91,197.38Zm50.55-2.74a2.74,2.74,0,1,1,2.74,2.74A2.74,2.74,0,0,1,85.46,194.64Zm-30.06,0a2.74,2.74,0,1,1,2.74,2.74A2.74,2.74,0,0,1,55.4,194.64ZM99.13,220.2v2.91a50,50,0,0,1-28.7,45.17,50,50,0,0,1-28.69-45.17V220.2c11.81-3,22.56-10.12,28.69-19C76.57,210.08,87.32,217.2,99.13,220.2ZM106,208.31a2.74,2.74,0,1,1,2.73-2.74A2.74,2.74,0,0,1,106,208.31Z"/>
      </g>
      <g>
        <path class="cls-2" d="M81.72,691.56a2.58,2.58,0,0,0-.08-.26,2,2,0,0,0-.13-.25.91.91,0,0,0-.18-.21,1.24,1.24,0,0,0-.22-.18,1.12,1.12,0,0,0-.24-.13.92.92,0,0,0-.27-.08,1.32,1.32,0,0,0-.56,0,.79.79,0,0,0-.26.08,1.19,1.19,0,0,0-.25.13,1.24,1.24,0,0,0-.22.18,1.2,1.2,0,0,0-.17.21,1.23,1.23,0,0,0-.14.25,2.58,2.58,0,0,0-.08.26c0,.1,0,.19,0,.28a2.46,2.46,0,0,0,0,.28,2.76,2.76,0,0,0,.08.27,1.57,1.57,0,0,0,.14.25,1.73,1.73,0,0,0,.17.21,1.24,1.24,0,0,0,.22.18l.25.13a1.12,1.12,0,0,0,.26.08l.28,0a1.27,1.27,0,0,0,.28,0,1.38,1.38,0,0,0,.27-.08,1.83,1.83,0,0,0,.24-.13,1.24,1.24,0,0,0,.22-.18,1.18,1.18,0,0,0,.18-.21c0-.08.09-.17.13-.25a2.76,2.76,0,0,0,.08-.27,1.27,1.27,0,0,0,0-.28A1.41,1.41,0,0,0,81.72,691.56Z"/>
        <path class="cls-2" d="M105.5,730.75l-5.65-5.65,4.51-4.51a1.42,1.42,0,0,0,0-2l-5-5a1.42,1.42,0,0,0-2,0l-2.79,2.79-4.13-4.14a35.08,35.08,0,0,0,3.38-15.12v-9.44L104,677.55a1.49,1.49,0,0,0,.4-.79l1.54-10a1.43,1.43,0,0,0-1.63-1.63l-10,1.54a1.48,1.48,0,0,0-.79.41l-12.1,12.1a37.08,37.08,0,0,1-11.08-7,1.42,1.42,0,0,0-1.88,0A43.15,43.15,0,0,1,63.39,676a40.46,40.46,0,0,1-6.1,3.14l-12-12a1.41,1.41,0,0,0-.79-.41l-10-1.54A1.43,1.43,0,0,0,33,666.8l1.54,10a1.49,1.49,0,0,0,.4.79L45,687.68v9.44a35.09,35.09,0,0,0,3.39,15.12l-4.14,4.14-2.79-2.79a1.41,1.41,0,0,0-2,0l-5,5a1.42,1.42,0,0,0,0,2L39,725.1l-5.65,5.65a1.41,1.41,0,0,0,0,2l5,5a1.4,1.4,0,0,0,1,.42,1.42,1.42,0,0,0,1-.42L46,732.09l4.51,4.51a1.42,1.42,0,0,0,2,0l5-5a1.42,1.42,0,0,0,0-2l-2.79-2.79,2.66-2.65A34,34,0,0,0,69,731.35a1.5,1.5,0,0,0,.47.08,1.61,1.61,0,0,0,.48-.08,34,34,0,0,0,11.59-7.19l2.65,2.65-2.79,2.79a1.44,1.44,0,0,0,0,2l5,5a1.42,1.42,0,0,0,2,0l4.51-4.51,5.65,5.65a1.4,1.4,0,0,0,1,.42,1.42,1.42,0,0,0,1-.42l5-5A1.43,1.43,0,0,0,105.5,730.75ZM95.21,669.46l7.57-1.17-1.17,7.57-7.79,7.79v-.39a1.42,1.42,0,0,0-1.29-1.42,39.14,39.14,0,0,1-8.13-1.57ZM45,683.24v.41l-7.78-7.79-1.17-7.57,7.57,1.17,10.7,10.71a38.43,38.43,0,0,1-8,1.65A1.44,1.44,0,0,0,45,683.24Zm-5.69,51.47-2.95-3L41,727.11l2.95,3Zm12.18-1.13-14-14,3-3,14,14Zm1.18-8.78-6.4-6.4,3.52-3.52A35.2,35.2,0,0,0,52,718.2a45.84,45.84,0,0,0,3.33,4Zm16.73,3.69a34.73,34.73,0,0,1-15.13-12,32.2,32.2,0,0,1-6.42-19.37v-12.6a42.18,42.18,0,0,0,17-6.15,45,45,0,0,0,4.45-3.19A40,40,0,0,0,91,684.55v12.57a32.26,32.26,0,0,1-6.41,19.37A34.75,34.75,0,0,1,69.42,728.49Zm14.1-6.33a45.84,45.84,0,0,0,3.33-4A37.28,37.28,0,0,0,89,714.88l3.52,3.52-5.92,5.92-.48.48Zm3.82,11.42-3-3,14-14,3,3Zm12.17,1.13-4.64-4.64,3-3,4.64,4.64Z"/>
        <path class="cls-2" d="M88.16,688.17a1.42,1.42,0,0,0-1.15-1.4,42.49,42.49,0,0,1-8-2.42h0a42.36,42.36,0,0,1-8.85-5,1.43,1.43,0,0,0-1.66,0c-.69.48-1.39,1-2.08,1.38a45.29,45.29,0,0,1-14.58,6,1.42,1.42,0,0,0-1.13,1.39v9a29.31,29.31,0,0,0,2.88,12.76h0a30.3,30.3,0,0,0,3,4.93,38.68,38.68,0,0,0,3.92,4.49,30.1,30.1,0,0,0,8.37,5.88,1.43,1.43,0,0,0,1.19,0A32.6,32.6,0,0,0,82.3,714.81a29.38,29.38,0,0,0,5.86-17.69v-3.66a1.64,1.64,0,0,0,0-.23,1.79,1.79,0,0,0,0-.23ZM55.33,706.78a26.5,26.5,0,0,1-1.79-9.66v-7.89a48.15,48.15,0,0,0,14.37-6.06c.45-.29.91-.58,1.37-.89A45.93,45.93,0,0,0,76,686.14Zm30-9.66a26.54,26.54,0,0,1-5.3,16,30.26,30.26,0,0,1-10.59,9.21,27.05,27.05,0,0,1-5.91-4.07l21.8-21.81Zm0-4.71L61.47,716.26c-.57-.6-1.12-1.23-1.66-1.89l17.52-17.51a1.44,1.44,0,0,0,0-2,1.42,1.42,0,0,0-2,0L58.09,712.06a25.58,25.58,0,0,1-1.5-2.51l22.2-22.21a45.06,45.06,0,0,0,6.52,2v3.09Z"/>
      </g>
      <g>
        <path class="cls-2" d="M61.11,33.22A26.58,26.58,0,1,0,87.69,59.8,26.58,26.58,0,0,0,61.11,33.22Zm0,2.53A24,24,0,0,1,80.75,46l-3.17,3.16A5,5,0,0,0,70,53.48,4.89,4.89,0,0,0,70.69,56L62.4,64.32a4.89,4.89,0,0,0-5.11,0l-5.76-5.76A5,5,0,0,0,52.25,56a5.06,5.06,0,0,0-10-1.27H37.61A24.08,24.08,0,0,1,61.11,35.75ZM77.56,53.48A2.53,2.53,0,1,1,75,50.94,2.53,2.53,0,0,1,77.56,53.48ZM62.38,68.66a2.54,2.54,0,1,1-2.54-2.53A2.54,2.54,0,0,1,62.38,68.66ZM49.72,56a2.54,2.54,0,1,1-2.53-2.53A2.54,2.54,0,0,1,49.72,56ZM72.79,80.83a24.06,24.06,0,0,1-35.73-21,24.44,24.44,0,0,1,.14-2.57h5.1a5.07,5.07,0,0,0,4.89,3.8,5,5,0,0,0,2.55-.72l5.76,5.76a5,5,0,0,0-.72,2.55,5.07,5.07,0,1,0,9.41-2.55l8.29-8.29a5,5,0,0,0,2.55.72,5,5,0,0,0,4.35-7.62l2.76-2.76A24,24,0,0,1,72.79,80.83Z"/>
        <path class="cls-2" d="M92.75,40.82A5.08,5.08,0,0,0,97.64,37h7.77V34.49H97.64a5.05,5.05,0,0,0-10,1.26,4.9,4.9,0,0,0,.72,2.56l-2.23,2.22a31.64,31.64,0,1,0-7.9,45.83l3.82,3.82L83.89,92l10.19,10.19a6.64,6.64,0,1,0,9.39-9.38L93.28,82.59,91.49,80.8,87.67,77a31.55,31.55,0,0,0,0-34.35L90.2,40.1A5.08,5.08,0,0,0,92.75,40.82Zm0-7.6a2.54,2.54,0,1,1-2.53,2.53A2.53,2.53,0,0,1,92.75,33.22Zm8.93,61.35a4.11,4.11,0,0,1-5.74,5.87l-.07-.07L85.68,90.18l5.81-5.8Zm-12-12-5.81,5.8-3.5-3.5.52-.43.57-.47c.28-.23.55-.46.82-.71s.27-.25.4-.38c.52-.48,1-1,1.51-1.5l.38-.41c.24-.27.48-.54.71-.82l.47-.57c.14-.17.29-.34.42-.52Zm-4.91-5.88c-.4.55-.81,1.1-1.25,1.63-.12.15-.26.3-.39.45-.38.45-.78.89-1.2,1.31l-.55.55c-.42.41-.85.81-1.31,1.2-.15.12-.3.26-.45.39-.52.43-1.07.84-1.63,1.24a29.13,29.13,0,1,1,6.78-6.77Z"/>
      </g>
    </g>
  </g>
</svg>
