<?xml version="1.0" encoding="UTF-8"?>
<svg width="237px" height="57px" viewBox="0 0 237 57" version="1.1" xmlns="http://www.w3.org/2000/svg" xmlns:xlink="http://www.w3.org/1999/xlink">
    <!-- Generator: Sketch 47.1 (45422) - http://www.bohemiancoding.com/sketch -->
    <title>creditclub_logo</title>
    <desc>Created with Sketch.</desc>
    <defs></defs>
    <g id="Design" stroke="none" stroke-width="1" fill="none" fill-rule="evenodd">
        <g id="Desktop-HD-Copy-7" transform="translate(-228.000000, -26.000000)">
            <g id="creditclub_logo" transform="translate(228.000000, 26.000000)">
                <path d="M0,16.2957359 C0,25.5557084 6.93412132,33 16.5776013,33 C21.0319706,33 28.8845186,31.3204952 28.8845186,26.6905089 L28.8845186,23.2861073 L25.8077893,23.2861073 L25.8077893,25.7826685 C25.8077893,29.1416781 19.28696,30.1403026 16.669444,30.1403026 C9.00058131,30.1403026 3.35225733,24.1485557 3.35225733,16.2049519 C3.35225733,8.48830812 9.00058131,2.85969739 16.4857586,2.85969739 C19.7920946,2.85969739 25.3026546,4.08528198 25.3026546,7.2173315 L25.3026546,9.75928473 L28.3793839,9.75928473 L28.3793839,6.35488308 C28.3793839,1.4525447 20.251308,0 16.3479946,0 C7.11780665,0 0,6.99037139 0,16.2957359 Z M40.2004176,14.071293 L39.6301105,13.1242895 L39.6301105,13.7537827 C39.6301105,14.7070151 39.5382678,15.4786795 39.5382678,15.4786795 L39.6301105,15.4786795 C39.7922171,14.9915559 39.9827073,14.5207231 40.2004176,14.071293 Z M39.6301105,13.1242895 L40.2004176,14.071293 C41.5245244,11.3378741 43.8555109,9.39614856 46.9316025,9.39614856 C47.5745011,9.39614856 48.2173998,9.53232462 48.2173998,9.53232462 L48.2173998,12.5735901 C48.2173998,12.5735901 47.6204225,12.4828061 47.0234451,12.4828061 C41.8343345,12.4828061 39.7219532,18.2475928 39.7219532,22.786795 L39.7219532,29.9133425 L43.3038172,29.9133425 L43.3038172,32.4552957 L33.0174385,32.4552957 L33.0174385,29.9133425 L36.5993025,29.9133425 L36.5993025,13.1636864 C36.5993025,12.4828061 36.2319318,12.1650619 35.5890332,12.1650619 L32.4663825,12.1650619 L32.4663825,9.62310867 L36.8289092,9.62310867 C38.7576052,9.62310867 39.6301105,10.394773 39.6301105,12.2104539 L39.6301105,13.1242895 Z M49.9624104,21.0618982 C49.9624104,13.5722146 55.1055997,9.0784044 61.350901,9.0784044 C67.7339664,9.0784044 71.0403023,13.9353508 71.0403023,19.6093535 C71.0403023,20.1540578 70.9025383,21.0618982 70.9025383,21.0618982 L53.1769037,21.0618982 C53.3146677,26.9174691 57.355745,30.2310867 62.1315637,30.2310867 C66.3563264,30.2310867 69.1575277,27.5075653 69.1575277,27.5075653 L70.581089,29.8225585 C70.581089,29.8225585 67.274753,33 62.039721,33 C55.151521,33 49.9624104,28.0976616 49.9624104,21.0618982 Z M53.3146677,18.7922971 L67.7798877,18.7922971 C67.5962024,13.9807428 64.657237,11.6657497 61.2590584,11.6657497 C57.4016664,11.6657497 54.0494091,14.1623109 53.3146677,18.7922971 Z M74.4384809,21.0618982 C74.4384809,13.7991747 78.7091649,9.0784044 84.8626236,9.0784044 C90.3731836,9.0784044 92.3937222,13.5268226 92.3937222,13.5268226 L92.4855649,13.5268226 C92.4855649,13.5268226 92.3478009,12.7551582 92.3478009,11.7565337 L92.3478009,3.0866575 L88.2148809,3.0866575 L88.2148809,0.544704264 L95.4704515,0.544704264 L95.4704515,28.914718 C95.4704515,29.5955983 95.8378222,29.9133425 96.4807209,29.9133425 L99.0523155,29.9133425 L99.0523155,32.4552957 L95.2408449,32.4552957 C93.2662275,32.4552957 92.4855649,31.5928473 92.4855649,29.9587345 L92.4855649,29.5502063 C92.4855649,28.6423659 92.6692502,28.1430536 92.6692502,28.1430536 L92.5774075,28.1430536 C92.5774075,28.1430536 90.6027902,33 84.4493316,33 C78.2499516,33 74.4384809,28.0976616 74.4384809,21.0618982 Z M77.6529743,21.0618982 C77.6529743,26.6451169 80.6378609,30.2310867 84.9544662,30.2310867 C88.8118582,30.2310867 92.4396435,27.5075653 92.4396435,21.0618982 C92.4396435,16.3865199 90.0517342,11.8927098 85.1381516,11.8927098 C81.0052316,11.8927098 77.6529743,15.2517194 77.6529743,21.0618982 Z M105.527223,4.40302613 L109.063166,4.40302613 L109.063166,0.544704264 L105.527223,0.544704264 L105.527223,4.40302613 Z M101.807595,32.4552957 L112.736873,32.4552957 L112.736873,29.9133425 L108.833559,29.9133425 L108.833559,9.62310867 L101.577989,9.62310867 L101.577989,12.1650619 L105.710909,12.1650619 L105.710909,29.9133425 L101.807595,29.9133425 L101.807595,32.4552957 Z M117.925983,24.1485557 C117.925983,31.7744154 123.344701,32.6368638 126.008138,32.6368638 C126.788801,32.6368638 127.339857,32.5460798 127.339857,32.5460798 L127.339857,29.8679505 C127.339857,29.8679505 126.926565,29.9587345 126.283666,29.9587345 C124.492734,29.9587345 121.048634,29.2324622 121.048634,23.8762036 L121.048634,12.1650619 L126.880643,12.1650619 L126.880643,9.62310867 L121.048634,9.62310867 L121.048634,3.31361761 L117.971905,3.31361761 L117.971905,9.62310867 L113.793063,9.62310867 L113.793063,12.1650619 L117.925983,12.1650619 L117.925983,24.1485557 Z M140.657043,16.2957359 C140.657043,25.5557084 147.591164,33 157.234644,33 C161.689014,33 169.541562,31.3204952 169.541562,26.6905089 L169.541562,23.2861073 L166.464832,23.2861073 L166.464832,25.7826685 C166.464832,29.1416781 159.944003,30.1403026 157.326487,30.1403026 C149.657624,30.1403026 144.0093,24.1485557 144.0093,16.2049519 C144.0093,8.48830812 149.657624,2.85969739 157.142802,2.85969739 C160.449138,2.85969739 165.959698,4.08528198 165.959698,7.2173315 L165.959698,9.75928473 L169.036427,9.75928473 L169.036427,6.35488308 C169.036427,1.4525447 160.908351,0 157.005038,0 C147.77485,0 140.657043,6.99037139 140.657043,16.2957359 Z M175.419492,26.735901 C175.419492,31.0935351 177.623716,32.5914718 180.654524,32.5914718 C181.572951,32.5914718 182.445456,32.4552957 182.445456,32.4552957 L182.445456,29.8225585 C182.445456,29.8225585 181.986243,29.9133425 181.159659,29.9133425 C179.047278,29.9133425 178.542143,28.3700138 178.542143,26.5089409 L178.542143,0.544704264 L171.332494,0.544704264 L171.332494,3.0866575 L175.419492,3.0866575 L175.419492,26.735901 Z M187.772331,24.1485557 C187.772331,30.0949106 190.022476,33 195.349351,33 C201.043596,33 203.890719,28.869326 204.487696,27.1444292 L204.579539,27.1444292 C204.579539,27.1444292 204.533617,27.8707015 204.533617,28.778542 L204.533617,29.9133425 C204.533617,31.6382393 205.360201,32.4552957 207.288897,32.4552957 L211.192211,32.4552957 L211.192211,29.9587345 L208.574695,29.9587345 C207.931796,29.9587345 207.564425,29.6409904 207.564425,28.96011 L207.564425,9.62310867 L200.308855,9.62310867 L200.308855,12.1650619 L204.441775,12.1650619 L204.441775,20.4718019 C204.441775,25.4195323 201.135439,30.1403026 195.946328,30.1403026 C191.446038,30.1403026 190.894982,26.9628611 190.894982,23.3768913 L190.894982,9.62310867 L183.639411,9.62310867 L183.639411,12.1650619 L187.772331,12.1650619 L187.772331,24.1485557 Z M215.968029,32.4552957 L215.968029,3.0866575 L211.835109,3.0866575 L211.835109,0.544704264 L219.09068,0.544704264 L219.09068,11.8019257 C219.09068,12.8913343 218.952916,13.7083906 218.952916,13.7083906 L219.044759,13.7083906 C219.044759,13.7083906 221.065297,9.0784044 226.943228,9.0784044 C233.142608,9.0784044 237,13.9807428 237,21.0618982 C237,28.2792297 232.637473,33 226.575857,33 C221.019376,33 218.952916,28.3246217 218.952916,28.3246217 L218.861073,28.3246217 C218.861073,28.3246217 218.998837,29.1416781 218.998837,30.2310867 L218.998837,32.4552957 L215.968029,32.4552957 Z M218.998837,21.1072902 C218.998837,25.6918845 221.432668,30.2310867 226.346251,30.2310867 C230.433249,30.2310867 233.831428,26.872077 233.831428,21.0618982 C233.831428,15.4786795 230.80062,11.8927098 226.484015,11.8927098 C222.626623,11.8927098 218.998837,14.6162311 218.998837,21.1072902 Z" id="Credit-Club-Copy" fill="#24D5A6"></path>
                <path d="M-1.42108547e-14,53.3793103 L4.62451165,53.3793103 L4.62451165,52.0344828 L3.17935176,52.0344828 L3.72341195,44.7586207 C3.74041383,44.3793103 3.67240631,43.7586207 3.67240631,43.7586207 L3.72341195,43.7586207 C3.72341195,43.7586207 3.859427,44.3448276 3.99544205,44.6896552 L6.74974678,51.0862069 L8.24591231,51.0862069 L11.000217,44.6896552 C11.1362321,44.3448276 11.2722471,43.7586207 11.2722471,43.7586207 L11.3232528,43.7586207 C11.3232528,43.7586207 11.2552453,44.3793103 11.2722471,44.7586207 L11.8163073,52.0344828 L10.3711474,52.0344828 L10.3711474,53.3793103 L14.9956591,53.3793103 L14.9956591,52.0344828 L13.4994936,52.0344828 L12.7344089,42.5344828 L14.2645782,42.5344828 L14.2645782,41.2068966 L10.864202,41.2068966 L7.78686153,48.6206897 C7.59984083,49.1206897 7.51483143,49.5 7.51483143,49.5 L7.48082767,49.5 C7.48082767,49.5 7.39581826,49.1206897 7.20879757,48.6206897 L4.1314571,41.2068966 L0.731080886,41.2068966 L0.731080886,42.5344828 L2.26125018,42.5344828 L1.49616553,52.0344828 L-1.42108547e-14,52.0344828 L-1.42108547e-14,53.3793103 Z M16.3218058,49 C16.3218058,46.362069 18.3960353,44.4482759 20.9633193,44.4482759 C23.5306034,44.4482759 25.6048329,46.362069 25.6048329,49 C25.6048329,51.6551724 23.5306034,53.5862069 20.9633193,53.5862069 C18.3960353,53.5862069 16.3218058,51.6551724 16.3218058,49 Z M18.004992,49 C18.004992,50.8275862 19.3311388,52.137931 20.9633193,52.137931 C22.578498,52.137931 23.9216467,50.8275862 23.9216467,49 C23.9216467,47.1896552 22.578498,45.8965517 20.9633193,45.8965517 C19.3311388,45.8965517 18.004992,47.1896552 18.004992,49 Z M27.1009984,53.3793103 L31.45348,53.3793103 L31.45348,52.0862069 L30.0933295,52.0862069 L30.0933295,49.3275862 C30.0933295,47.5862069 31.2324555,45.9827586 32.9666474,45.9827586 C34.3437997,45.9827586 34.5818261,46.9482759 34.5818261,48.1724138 L34.5818261,53.3793103 L37.591159,53.3793103 L37.591159,52.0862069 L36.2310085,52.0862069 L36.2310085,47.7931034 C36.2310085,45.5689655 35.3469107,44.4482759 33.3746925,44.4482759 C31.1984517,44.4482759 30.1953408,46.1034483 30.025322,46.5689655 L29.9913182,46.5689655 C29.9913182,46.5689655 30.0423238,46.3448276 30.0423238,46.0689655 L30.0423238,45.6206897 C30.0423238,44.9827586 29.7022862,44.6551724 28.9542034,44.6551724 L27.015989,44.6551724 L27.015989,45.9482759 L28.0701056,45.9482759 C28.308132,45.9482759 28.444147,46.0689655 28.444147,46.3275862 L28.444147,52.0862069 L27.1009984,52.0862069 L27.1009984,53.3793103 Z M45.9220807,51.1551724 C45.9220807,51.1551724 45.92208,51.1551731 45.9220785,51.1551745 L45.9220807,51.1551724 Z M45.9220807,51.1551724 L46.602156,52.3793103 C46.602156,52.3793103 45.310013,53.5862069 43.2527854,53.5862069 C40.5494863,53.5862069 38.6962813,51.6034483 38.6962813,49.0172414 C38.6962813,46.2413793 40.5494863,44.4482759 42.9977572,44.4482759 C45.4460281,44.4482759 46.7211692,46.2758621 46.7211692,48.5344828 C46.7211692,48.7586207 46.6701635,49.1724138 46.6701635,49.1724138 L40.3794675,49.1724138 C40.4814788,51.1034483 41.8246274,52.137931 43.3547967,52.137931 C44.8497174,52.137931 45.9202981,51.156807 45.9220785,51.1551745 L45.9220807,51.1551724 Z M40.447475,48.1034483 L45.020981,48.1034483 C44.9699754,46.5689655 44.0518738,45.7758621 42.9637534,45.7758621 C41.7056142,45.7758621 40.6855014,46.637931 40.447475,48.1034483 Z M48.5233685,55.1896552 L47.9623065,56.4482759 C47.9623065,56.4482759 48.7103892,57 49.8155115,57 C51.1416582,57 52.2637824,56.2413793 52.8418463,54.7586207 L56.2422225,45.9482759 L57.3133411,45.9482759 L57.3133411,44.6551724 L53.5049197,44.6551724 L53.5049197,45.9482759 L54.610042,45.9482759 L52.7058313,51.137931 C52.5698162,51.5172414 52.5018087,51.8965517 52.5018087,51.8965517 L52.4508031,51.8965517 C52.4508031,51.8965517 52.4167993,51.5172414 52.2977861,51.137931 L50.3765736,45.9482759 L51.5156996,45.9482759 L51.5156996,44.6551724 L47.5882651,44.6551724 L47.5882651,45.9482759 L48.6763855,45.9482759 L51.6857184,53.5344828 L51.3286789,54.3965517 C51.0396469,55.0862069 50.4785849,55.6034483 49.747504,55.6034483 C49.0164231,55.6034483 48.5233685,55.1896552 48.5233685,55.1896552 Z M58.3674577,49.7241379 L58.3674577,51 C58.3674577,52.7413793 60.458689,53.5862069 62.328896,53.5862069 C64.5561424,53.5862069 66.4263493,52.3793103 66.4263493,50.0517241 C66.4263493,47.7931034 64.6751555,47.1034483 62.9069599,46.4310345 C61.5638113,45.9137931 60.3566778,45.4827586 60.3566778,44.1896552 C60.3566778,43.0689655 61.2917812,42.5172414 62.464911,42.5172414 C63.4510201,42.5172414 64.5221386,42.8965517 64.5221386,43.6034483 L64.5221386,44.4482759 L66.1033136,44.4482759 L66.1033136,43.0172414 C66.1033136,41.6896552 64.2671104,41 62.464911,41 C60.4416872,41 58.6224859,41.9827586 58.6224859,44.2758621 C58.6224859,46.4310345 60.2376646,47.1206897 61.8188395,47.7241379 C63.2980032,48.3103448 64.7091593,48.7758621 64.7091593,50.1896552 C64.7091593,51.3965517 63.7060483,52.0517241 62.328896,52.0517241 C61.0707568,52.0517241 59.9316307,51.5172414 59.9316307,50.6206897 L59.9316307,49.7241379 L58.3674577,49.7241379 Z M67.8545073,50.9482759 C67.8545073,48.2068966 71.4419042,48.0172414 72.8700622,48.0172414 L73.4141224,48.0172414 L73.4141224,47.6896552 C73.4141224,46.3103448 72.6320359,45.8275862 71.5779193,45.8275862 C70.2177688,45.8275862 69.1126465,46.6724138 69.1126465,46.6724138 L68.4495731,45.4827586 C68.4495731,45.4827586 69.7077123,44.4482759 71.7139343,44.4482759 C73.907177,44.4482759 75.0633049,45.6034483 75.0633049,47.8103448 L75.0633049,51.7068966 C75.0633049,51.9655172 75.1993199,52.0862069 75.4373463,52.0862069 L76.3044422,52.0862069 L76.3044422,53.3793103 L74.5872522,53.3793103 C73.8221676,53.3793103 73.5161337,53 73.5161337,52.4310345 L73.5161337,52.3103448 C73.5161337,51.9655172 73.5841412,51.7413793 73.5841412,51.7413793 L73.5501375,51.7413793 C73.5501375,51.7413793 72.8020547,53.5862069 70.7108233,53.5862069 C69.2826653,53.5862069 67.8545073,52.7413793 67.8545073,50.9482759 Z M69.5206917,50.8103448 C69.5206917,51.5862069 70.0817537,52.2931034 71.0678628,52.2931034 C72.5300246,52.2931034 73.4311243,50.7758621 73.4311243,49.4655172 L73.4311243,49.1034483 L73.0060773,49.1034483 C72.2239907,49.1034483 69.5206917,49.137931 69.5206917,50.8103448 Z M76.8825061,45.9482759 L77.9706265,45.9482759 L80.7419332,53.3793103 L82.5951382,53.3793103 L85.3834467,45.9482759 L86.4545652,45.9482759 L86.4545652,44.6551724 L82.6121401,44.6551724 L82.6121401,45.9482759 L83.7172623,45.9482759 L81.8810592,51.0344828 C81.7450441,51.4137931 81.6940385,51.8448276 81.6940385,51.8448276 L81.6430328,51.8448276 C81.6430328,51.8448276 81.5920272,51.4137931 81.4560122,51.0344828 L79.6368109,45.9482759 L80.7419332,45.9482759 L80.7419332,44.6551724 L76.8825061,44.6551724 L76.8825061,45.9482759 Z M88.7328172,42.9137931 L90.4670091,42.9137931 L90.4670091,41.2068966 L88.7328172,41.2068966 L88.7328172,42.9137931 Z M87.4236724,53.3793103 L91.776154,53.3793103 L91.776154,52.0862069 L90.4160035,52.0862069 L90.4160035,44.6551724 L87.338663,44.6551724 L87.338663,45.9482759 L88.766821,45.9482759 L88.766821,52.0862069 L87.4236724,52.0862069 L87.4236724,53.3793103 Z M93.1363044,53.3793103 L97.488786,53.3793103 L97.488786,52.0862069 L96.1286355,52.0862069 L96.1286355,49.3275862 C96.1286355,47.5862069 97.2677615,45.9827586 99.0019534,45.9827586 C100.379106,45.9827586 100.617132,46.9482759 100.617132,48.1724138 L100.617132,53.3793103 L103.626465,53.3793103 L103.626465,52.0862069 L102.266315,52.0862069 L102.266315,47.7931034 C102.266315,45.5689655 101.382217,44.4482759 99.4099986,44.4482759 C97.2337578,44.4482759 96.2306468,46.1034483 96.060628,46.5689655 L96.0266242,46.5689655 C96.0266242,46.5689655 96.0776299,46.3448276 96.0776299,46.0689655 L96.0776299,45.6206897 C96.0776299,44.9827586 95.7375922,44.6551724 94.9895095,44.6551724 L93.051295,44.6551724 L93.051295,45.9482759 L94.1054117,45.9482759 C94.343438,45.9482759 94.479453,46.0689655 94.479453,46.3275862 L94.479453,52.0862069 L93.1363044,52.0862069 L93.1363044,53.3793103 Z M106.091738,55 C106.091738,55 107.162856,55.5862069 108.454999,55.5862069 C109.951165,55.5862069 111.1753,54.8965517 111.1753,53.1034483 L111.1753,52.4137931 C111.1753,52.137931 111.226306,51.862069 111.226306,51.862069 L111.192302,51.862069 C110.682246,52.7241379 109.866155,53.2758621 108.608016,53.2758621 C106.227753,53.2758621 104.765591,51.3275862 104.765591,48.8103448 C104.765591,46.3103448 106.142743,44.4482759 108.540009,44.4482759 C109.662133,44.4482759 110.852265,44.8793103 111.328317,45.8793103 L111.362321,45.8793103 C111.362321,45.8793103 111.328317,45.7586207 111.328317,45.5344828 C111.328317,44.9827586 111.600347,44.6551724 112.314426,44.6551724 L114.150629,44.6551724 L114.150629,45.9482759 L113.198524,45.9482759 C112.9775,45.9482759 112.824483,46.0689655 112.824483,46.2931034 L112.824483,53.0172414 C112.824483,55.8965517 110.665244,57 108.489003,57 C107.451888,57 106.397772,56.7068966 105.547678,56.2758621 L106.091738,55 Z M108.931052,51.8275862 C110.121184,51.8275862 111.209304,51.1034483 111.209304,48.8275862 C111.209304,46.5517241 110.121184,45.8965517 108.778035,45.8965517 C107.298871,45.8965517 106.448777,47 106.448777,48.7758621 C106.448777,50.5862069 107.383881,51.8275862 108.931052,51.8275862 Z M115.578787,53.3793103 L124.555781,53.3793103 L124.555781,50.5 L123.076617,50.5 L123.076617,51.9655172 L118.775141,51.9655172 L118.775141,47.9482759 L123.025611,47.9482759 L123.025611,46.5344828 L118.775141,46.5344828 L118.775141,42.6206897 L122.787585,42.6206897 L122.787585,44.0344828 L124.266749,44.0344828 L124.266749,41.2068966 L115.578787,41.2068966 L115.578787,42.5344828 L117.074953,42.5344828 L117.074953,52.0344828 L115.578787,52.0344828 L115.578787,53.3793103 Z M126.051946,53.3793103 L128.296194,53.3793103 L129.996383,50.5689655 C130.183403,50.2758621 130.302416,50 130.302416,50 L130.33642,50 C130.33642,50 130.472435,50.2931034 130.642454,50.5517241 L132.376646,53.3793103 L134.569889,53.3793103 L134.569889,52.0862069 L133.413761,52.0862069 L131.288526,48.862069 L133.209738,45.9482759 L134.518883,45.9482759 L134.518883,44.6551724 L132.240631,44.6551724 L130.676458,47.1896552 C130.506439,47.4655172 130.370424,47.7586207 130.370424,47.7586207 L130.33642,47.7586207 C130.33642,47.7586207 130.200405,47.4482759 130.047388,47.1896552 L128.517219,44.6551724 L126.102952,44.6551724 L126.102952,45.9482759 L127.497106,45.9482759 L129.401317,48.8793103 L127.344089,52.0862069 L126.051946,52.0862069 L126.051946,53.3793103 Z M135.726016,55.5344828 L137.069165,55.5344828 L137.069165,46.3275862 C137.069165,46.0689655 136.93315,45.9482759 136.695124,45.9482759 L135.641007,45.9482759 L135.641007,44.6551724 L137.545218,44.6551724 C138.310302,44.6551724 138.599334,45 138.599334,45.5172414 L138.599334,45.5862069 C138.599334,45.862069 138.565331,46.0862069 138.565331,46.0862069 L138.599334,46.0862069 C138.599334,46.0862069 139.313413,44.4482759 141.489654,44.4482759 C143.80191,44.4482759 145.264072,46.3103448 145.264072,49.0172414 C145.264072,51.7931034 143.614889,53.5862069 141.370641,53.5862069 C139.483432,53.5862069 138.701346,52.1034483 138.701346,52.1034483 L138.667342,52.1034483 C138.667342,52.1034483 138.718348,52.4137931 138.718348,52.862069 L138.718348,55.5344828 L140.078498,55.5344828 L140.078498,56.8275862 L135.726016,56.8275862 L135.726016,55.5344828 Z M138.684344,49.0517241 C138.684344,50.6034483 139.517436,52.137931 141.115613,52.137931 C142.475763,52.137931 143.597887,51.0172414 143.597887,49.0344828 C143.597887,47.137931 142.594776,45.9137931 141.149617,45.9137931 C139.874475,45.9137931 138.684344,46.8275862 138.684344,49.0517241 Z M146.675228,49.0172414 C146.675228,46.2413793 148.528433,44.4482759 150.976704,44.4482759 C153.424975,44.4482759 154.700116,46.2758621 154.700116,48.5344828 C154.700116,48.7586207 154.64911,49.1724138 154.64911,49.1724138 L148.358414,49.1724138 C148.460425,51.1034483 149.803574,52.137931 151.333743,52.137931 C152.829909,52.137931 153.901027,51.1551724 153.901027,51.1551724 L154.581103,52.3793103 C154.581103,52.3793103 153.28896,53.5862069 151.231732,53.5862069 C148.528433,53.5862069 146.675228,51.6034483 146.675228,49.0172414 Z M148.426422,48.1034483 L152.999928,48.1034483 C152.948922,46.5689655 152.03082,45.7758621 150.9427,45.7758621 C149.684561,45.7758621 148.664448,46.637931 148.426422,48.1034483 Z M159.34534,46.3285782 L159.154609,45.9711207 L159.154609,46.2241379 C159.154609,46.5689655 159.120605,46.8275862 159.120605,46.8275862 L159.154609,46.8275862 C159.207306,46.6556497 159.271119,46.4887229 159.34534,46.3285782 Z M159.154609,45.9711207 L159.34534,46.3285782 C159.821879,45.3003625 160.727476,44.5517241 161.87491,44.5517241 C162.095934,44.5517241 162.299957,44.5862069 162.299957,44.5862069 L162.299957,46.2413793 C162.299957,46.2413793 162.095934,46.1896552 161.823904,46.1896552 C159.987701,46.1896552 159.205614,48.0689655 159.205614,49.7758621 L159.205614,52.0862069 L160.480755,52.0862069 L160.480755,53.3793103 L156.264289,53.3793103 L156.264289,52.0862069 L157.556432,52.0862069 L157.556432,46.3275862 C157.556432,46.0689655 157.420417,45.9482759 157.18239,45.9482759 L156.111272,45.9482759 L156.111272,44.6551724 L158.049486,44.6551724 C158.797569,44.6551724 159.154609,44.9655172 159.154609,45.6724138 L159.154609,45.9711207 Z M164.357184,50.1896552 C164.357184,53.1034483 166.550427,53.4482759 167.638547,53.4482759 C167.995587,53.4482759 168.233613,53.4137931 168.233613,53.4137931 L168.233613,52.0172414 C168.233613,52.0172414 168.080596,52.0344828 167.84257,52.0344828 C167.196498,52.0344828 166.006367,51.8103448 166.006367,50.0344828 L166.006367,45.9482759 L168.063594,45.9482759 L168.063594,44.6551724 L166.006367,44.6551724 L166.006367,42.2586207 L164.391188,42.2586207 L164.391188,44.6551724 L162.912024,44.6551724 L162.912024,45.9482759 L164.357184,45.9482759 L164.357184,50.1896552 Z M170.018811,53.3793103 L171.787006,53.3793103 L171.787006,51.5689655 L170.018811,51.5689655 L170.018811,53.3793103 Z M173.759224,49.0344828 C173.759224,51.8448276 175.918463,53.5862069 178.400738,53.5862069 C180.219939,53.5862069 181.461077,52.6034483 181.85212,52.2413793 L181.22305,51.0172414 C180.917016,51.2586207 179.930907,52.137931 178.468745,52.137931 C176.819563,52.137931 175.442411,50.9827586 175.442411,49 C175.442411,47.137931 176.632542,45.8965517 178.366734,45.8965517 C179.131819,45.8965517 180.219939,46.2241379 180.219939,46.8965517 L180.219939,47.5 L181.682101,47.5 L181.682101,46.4310345 C181.682101,44.9310345 179.59087,44.4482759 178.315729,44.4482759 C175.748445,44.4482759 173.759224,46.362069 173.759224,49.0344828 Z M183.161265,49 C183.161265,46.362069 185.235494,44.4482759 187.802778,44.4482759 C190.370062,44.4482759 192.444292,46.362069 192.444292,49 C192.444292,51.6551724 190.370062,53.5862069 187.802778,53.5862069 C185.235494,53.5862069 183.161265,51.6551724 183.161265,49 Z M184.844451,49 C184.844451,50.8275862 186.170598,52.137931 187.802778,52.137931 C189.417957,52.137931 190.761105,50.8275862 190.761105,49 C190.761105,47.1896552 189.417957,45.8965517 187.802778,45.8965517 C186.170598,45.8965517 184.844451,47.1896552 184.844451,49 Z M193.940457,53.3793103 L198.292939,53.3793103 L198.292939,52.0862069 L196.932788,52.0862069 L196.932788,49.4310345 C196.932788,47.7241379 197.884894,45.9655172 199.517074,45.9655172 C200.843221,45.9655172 201.01324,47.0172414 201.01324,48.1551724 L201.01324,53.3793103 L204.005571,53.3793103 L204.005571,52.0862069 L202.662422,52.0862069 L202.662422,49.362069 C202.662422,47.637931 203.580524,45.9655172 205.195703,45.9655172 C206.487845,45.9655172 206.70887,46.9310345 206.70887,48.1551724 L206.70887,53.3793103 L209.718203,53.3793103 L209.718203,52.0862069 L208.358052,52.0862069 L208.358052,47.7931034 C208.358052,45.5689655 207.456953,44.4482759 205.552742,44.4482759 C204.141586,44.4482759 202.951454,45.4137931 202.475402,46.5 L202.441398,46.5 C202.152366,45.0862069 201.302272,44.4482759 199.925119,44.4482759 C198.530965,44.4482759 197.289828,45.5344828 196.864781,46.5689655 L196.830777,46.5689655 C196.830777,46.5689655 196.881783,46.3448276 196.881783,46.0689655 L196.881783,45.6206897 C196.881783,44.9827586 196.524743,44.6551724 195.793662,44.6551724 L193.855448,44.6551724 L193.855448,45.9482759 L194.909564,45.9482759 C195.147591,45.9482759 195.283606,46.0689655 195.283606,46.3103448 L195.283606,52.0862069 L193.940457,52.0862069 L193.940457,53.3793103 Z" id="by-MoneySavingExpert" fill="#EEEEEE"></path>
            </g>
        </g>
    </g>
</svg>