<svg width="375" height="137" viewBox="0 0 375 137" version="1.1" xmlns="http://www.w3.org/2000/svg" xmlns:xlink="http://www.w3.org/1999/xlink">
<title>Page 1</title>
<desc>Created using Figma</desc>
<g id="Canvas" transform="translate(2678 4955)">
<g id="Page 1">
<g id="Fill 1">
<use xlink:href="#path0_fill" transform="translate(-2617 -4892)" fill="#FCCEA4"/>
</g>
<g id="Fill 3">
<use xlink:href="#path1_fill" transform="translate(-2574 -4877)" fill="#FCCEA4"/>
</g>
<g id="Fill 5">
<use xlink:href="#path2_fill" transform="translate(-2552 -4892)" fill="#FCCEA4"/>
</g>
<g id="Fill 7">
<use xlink:href="#path3_fill" transform="translate(-2623 -4927)" fill="#FCCEA4"/>
</g>
<g id="Fill 9">
<use xlink:href="#path4_fill" transform="translate(-2682 -4895)" fill="#FBC499"/>
</g>
<g id="Fill 11">
<use xlink:href="#path5_fill" transform="translate(-2591 -4920)" fill="#FBC499"/>
</g>
<g id="Fill 13">
<use xlink:href="#path6_fill" transform="translate(-2552 -4886)" fill="#FBC499"/>
</g>
<g id="Fill 15">
<use xlink:href="#path7_fill" transform="translate(-2574 -4874)" fill="#FBC499"/>
</g>
<g id="Fill 17">
<use xlink:href="#path8_fill" transform="translate(-2561 -4882)" fill="#FBC499"/>
</g>
<g id="Fill 19">
<use xlink:href="#path9_fill" transform="translate(-2537 -4891)" fill="#FBC499"/>
</g>
<g id="Fill 21">
<use xlink:href="#path10_fill" transform="translate(-2613 -4880)" fill="#FBBE93"/>
</g>
<g id="Fill 23">
<use xlink:href="#path11_fill" transform="translate(-2550 -4890)" fill="#FBBE93"/>
</g>
<g id="Fill 25">
<use xlink:href="#path12_fill" transform="translate(-2563 -4874)" fill="#FBBE93"/>
</g>
<g id="Fill 27">
<use xlink:href="#path13_fill" transform="translate(-2558 -4883)" fill="#FBBE93"/>
</g>
<g id="Fill 29">
<use xlink:href="#path14_fill" transform="translate(-2590 -4920)" fill="#FBBE93"/>
</g>
<g id="Fill 31">
<use xlink:href="#path15_fill" transform="translate(-2546 -4902)" fill="#FBBE93"/>
</g>
<g id="Fill 33">
<use xlink:href="#path16_fill" transform="translate(-2528 -4893)" fill="#F8BDA6"/>
</g>
<g id="Fill 35">
<use xlink:href="#path17_fill" transform="translate(-2547 -4877)" fill="#F8BDA6"/>
</g>
<g id="Fill 37">
<use xlink:href="#path18_fill" transform="translate(-2541 -4877)" fill="#FBCEC2"/>
</g>
<g id="Fill 39">
<use xlink:href="#path19_fill" transform="translate(-2546 -4876)" fill="#F8AA92"/>
</g>
<g id="Fill 41">
<use xlink:href="#path20_fill" transform="translate(-2526 -4893)" fill="#F8AA92"/>
</g>
<g id="Fill 45">
<use xlink:href="#path21_fill" transform="translate(-2459 -4924)" fill="#A5672B"/>
</g>
<g id="Fill 47">
<use xlink:href="#path22_fill" transform="translate(-2444 -4884)" fill="#955B24"/>
</g>
<g id="Fill 49">
<use xlink:href="#path23_fill" transform="translate(-2462 -4905)" fill="#F3C28A"/>
</g>
<g id="Fill 51">
<use xlink:href="#path24_fill" transform="translate(-2455 -4914)" fill="#8E5925"/>
</g>
<g id="Fill 53">
<use xlink:href="#path25_fill" transform="translate(-2433 -4906)" fill="#724A22"/>
</g>
<g id="Fill 55">
<use xlink:href="#path26_fill" transform="translate(-2456 -4893)" fill="#D39D66"/>
</g>
<g id="Fill 57">
<use xlink:href="#path27_fill" transform="translate(-2427 -4876)" fill="#D39D66"/>
</g>
<g id="Fill 59">
<use xlink:href="#path28_fill" transform="translate(-2419 -4906)" fill="#724A22"/>
</g>
<g id="Fill 63">
<use xlink:href="#path29_fill" transform="translate(-2460 -4882)" fill="#FCD9AD"/>
</g>
<g id="Fill 65">
<use xlink:href="#path30_fill" transform="translate(-2431 -4859)" fill="#C48F52"/>
</g>
<g id="Fill 67">
<use xlink:href="#path31_fill" transform="translate(-2417 -4860)" fill="#C48F52"/>
</g>
<g id="Fill 69">
<use xlink:href="#path32_fill" transform="translate(-2564 -4955)" fill="#3E8EED"/>
</g>
<g id="Fill 71">
<use xlink:href="#path33_fill" transform="translate(-2564 -4921)" fill="#2464B0"/>
</g>
<g id="Fill 73">
<use xlink:href="#path34_fill" transform="translate(-2492 -4946)" fill="#FFFFFF"/>
</g>
<g id="Fill 75">
<use xlink:href="#path35_fill" transform="translate(-2485 -4946)" fill="#FFFFFF"/>
</g>
<g id="Fill 77">
<use xlink:href="#path36_fill" transform="translate(-2478 -4946)" fill="#FFFFFF"/>
</g>
<g id="Fill 79">
<use xlink:href="#path37_fill" transform="translate(-2472 -4946)" fill="#FFFFFF"/>
</g>
<mask id="mask0_outline" mask-type="alpha">
<g id="Clip 82">
<use xlink:href="#path38_fill" transform="translate(-2731 -4995)" fill="#FFFFFF"/>
</g>
</mask>
<g id="Rectangle" mask="url(#mask0_outline)">
<use xlink:href="#path39_fill" transform="translate(-2320 -4880)" fill="#EFA525"/>
</g>
<g id="Fill 81" mask="url(#mask0_outline)">
<use xlink:href="#path40_fill" transform="translate(-2464 -4946)" fill="#FFFFFF"/>
</g>
<g id="Fill 83" mask="url(#mask0_outline)">
<use xlink:href="#path41_fill" transform="translate(-2462 -4946)" fill="#FFFFFF"/>
</g>
<g id="Fill 84" mask="url(#mask0_outline)">
<use xlink:href="#path42_fill" transform="translate(-2453 -4946)" fill="#FFFFFF"/>
</g>
<g id="Fill 85" mask="url(#mask0_outline)">
<use xlink:href="#path43_fill" transform="translate(-2446 -4946)" fill="#FFFFFF"/>
</g>
<g id="Fill 86" mask="url(#mask0_outline)">
<use xlink:href="#path44_fill" transform="translate(-2438 -4946)" fill="#FFFFFF"/>
</g>
<g id="Fill 87" mask="url(#mask0_outline)">
<use xlink:href="#path37_fill" transform="translate(-2431 -4946)" fill="#FFFFFF"/>
</g>
<g id="Fill 88" mask="url(#mask0_outline)">
<use xlink:href="#path45_fill" transform="translate(-2550 -4930)" fill="#B5B09A"/>
</g>
<g id="Fill 89" mask="url(#mask0_outline)">
<use xlink:href="#path46_fill" transform="translate(-2542 -4927)" fill="#B5B09A"/>
</g>
<g id="Fill 90" mask="url(#mask0_outline)">
<use xlink:href="#path47_fill" transform="translate(-2542 -4928)" fill="#585856"/>
</g>
<g id="Fill 91" mask="url(#mask0_outline)">
<use xlink:href="#path48_fill" transform="translate(-2530 -4928)" fill="#585856"/>
</g>
<g id="Fill 92" mask="url(#mask0_outline)">
<use xlink:href="#path48_fill" transform="translate(-2547 -4928)" fill="#585856"/>
</g>
<g id="Fill 93" mask="url(#mask0_outline)">
<use xlink:href="#path49_fill" transform="translate(-2547 -4925)" fill="#585856"/>
</g>
<g id="Fill 94" mask="url(#mask0_outline)">
<use xlink:href="#path49_fill" transform="translate(-2534 -4925)" fill="#585856"/>
</g>
<g id="Fill 95" mask="url(#mask0_outline)">
<use xlink:href="#path49_fill" transform="translate(-2547 -4917)" fill="#585856"/>
</g>
<g id="Fill 96" mask="url(#mask0_outline)">
<use xlink:href="#path49_fill" transform="translate(-2535 -4917)" fill="#585856"/>
</g>
<g id="Fill 97" mask="url(#mask0_outline)">
<use xlink:href="#path50_fill" transform="translate(-2551 -4904)" fill="#D7D7D7"/>
</g>
<g id="Fill 98" mask="url(#mask0_outline)">
<use xlink:href="#path51_fill" transform="translate(-2544 -4904)" fill="#D7D7D7"/>
</g>
<g id="Fill 99" mask="url(#mask0_outline)">
<use xlink:href="#path52_fill" transform="translate(-2538 -4904)" fill="#D7D7D7"/>
</g>
<g id="Fill 100" mask="url(#mask0_outline)">
<use xlink:href="#path53_fill" transform="translate(-2531 -4904)" fill="#D7D7D7"/>
</g>
<g id="Fill 101" mask="url(#mask0_outline)">
<use xlink:href="#path54_fill" transform="translate(-2518 -4904)" fill="#D7D7D7"/>
</g>
<g id="Fill 102" mask="url(#mask0_outline)">
<use xlink:href="#path55_fill" transform="translate(-2511 -4904)" fill="#D7D7D7"/>
</g>
<g id="Fill 103" mask="url(#mask0_outline)">
<use xlink:href="#path56_fill" transform="translate(-2504 -4904)" fill="#D7D7D7"/>
</g>
<g id="Fill 104" mask="url(#mask0_outline)">
<use xlink:href="#path57_fill" transform="translate(-2498 -4904)" fill="#D7D7D7"/>
</g>
<g id="Fill 105" mask="url(#mask0_outline)">
<use xlink:href="#path58_fill" transform="translate(-2484 -4904)" fill="#D7D7D7"/>
</g>
<g id="Fill 106" mask="url(#mask0_outline)">
<use xlink:href="#path59_fill" transform="translate(-2478 -4904)" fill="#D7D7D7"/>
</g>
<g id="Fill 107" mask="url(#mask0_outline)">
<use xlink:href="#path60_fill" transform="translate(-2471 -4904)" fill="#D7D7D7"/>
</g>
<g id="Fill 108" mask="url(#mask0_outline)">
<use xlink:href="#path55_fill" transform="translate(-2464 -4904)" fill="#D7D7D7"/>
</g>
<g id="Fill 109" mask="url(#mask0_outline)">
<use xlink:href="#path61_fill" transform="translate(-2451 -4904)" fill="#D7D7D7"/>
</g>
<g id="Fill 110" mask="url(#mask0_outline)">
<use xlink:href="#path55_fill" transform="translate(-2444 -4904)" fill="#D7D7D7"/>
</g>
<g id="Fill 111" mask="url(#mask0_outline)">
<use xlink:href="#path57_fill" transform="translate(-2438 -4904)" fill="#D7D7D7"/>
</g>
<g id="Fill 112" mask="url(#mask0_outline)">
<use xlink:href="#path55_fill" transform="translate(-2431 -4904)" fill="#D7D7D7"/>
</g>
<g id="Fill 113" mask="url(#mask0_outline)">
<use xlink:href="#path62_fill" transform="translate(-2556 -4875)" fill="#D7D7D7"/>
</g>
<g id="Fill 114" mask="url(#mask0_outline)">
<use xlink:href="#path63_fill" transform="translate(-2552 -4875)" fill="#D7D7D7"/>
</g>
<g id="Fill 115" mask="url(#mask0_outline)">
<use xlink:href="#path64_fill" transform="translate(-2548 -4875)" fill="#D7D7D7"/>
</g>
<g id="Fill 116" mask="url(#mask0_outline)">
<use xlink:href="#path65_fill" transform="translate(-2544 -4875)" fill="#D7D7D7"/>
</g>
<g id="Fill 117" mask="url(#mask0_outline)">
<use xlink:href="#path66_fill" transform="translate(-2536 -4875)" fill="#D7D7D7"/>
</g>
<g id="Fill 118" mask="url(#mask0_outline)">
<use xlink:href="#path67_fill" transform="translate(-2531 -4875)" fill="#D7D7D7"/>
</g>
<g id="Fill 119" mask="url(#mask0_outline)">
<use xlink:href="#path68_fill" transform="translate(-2527 -4875)" fill="#D7D7D7"/>
</g>
<g id="Fill 120" mask="url(#mask0_outline)">
<use xlink:href="#path69_fill" transform="translate(-2523 -4875)" fill="#D7D7D7"/>
</g>
<g id="Fill 121" mask="url(#mask0_outline)">
<use xlink:href="#path70_fill" transform="translate(-2519 -4875)" fill="#D7D7D7"/>
</g>
<g id="Fill 122" mask="url(#mask0_outline)">
<use xlink:href="#path71_fill" transform="translate(-2515 -4875)" fill="#D7D7D7"/>
</g>
<g id="Fill 123" mask="url(#mask0_outline)">
<use xlink:href="#path72_fill" transform="translate(-2517 -4884)" fill="#D7D7D7"/>
</g>
<g id="Fill 124" mask="url(#mask0_outline)">
<use xlink:href="#path73_fill" transform="translate(-2513 -4884)" fill="#D7D7D7"/>
</g>
<g id="Fill 125" mask="url(#mask0_outline)">
<use xlink:href="#path74_fill" transform="translate(-2509 -4884)" fill="#D7D7D7"/>
</g>
<g id="Fill 126" mask="url(#mask0_outline)">
<use xlink:href="#path75_fill" transform="translate(-2504 -4884)" fill="#D7D7D7"/>
</g>
<g id="Fill 127" mask="url(#mask0_outline)">
<use xlink:href="#path76_fill" transform="translate(-2500 -4884)" fill="#D7D7D7"/>
</g>
<g id="Fill 128" mask="url(#mask0_outline)">
<use xlink:href="#path77_fill" transform="translate(-2483 -4884)" fill="#D7D7D7"/>
</g>
<g id="Fill 129" mask="url(#mask0_outline)">
<use xlink:href="#path78_fill" transform="translate(-2479 -4884)" fill="#D7D7D7"/>
</g>
<g id="Fill 130" mask="url(#mask0_outline)">
<use xlink:href="#path79_fill" transform="translate(-2474 -4884)" fill="#D7D7D7"/>
</g>
<g id="Fill 131" mask="url(#mask0_outline)">
<use xlink:href="#path80_fill" transform="translate(-2470 -4884)" fill="#D7D7D7"/>
</g>
<g id="Fill 132" mask="url(#mask0_outline)">
<use xlink:href="#path81_fill" transform="translate(-2466 -4884)" fill="#D7D7D7"/>
</g>
<g id="Fill 133" mask="url(#mask0_outline)">
<use xlink:href="#path82_fill" transform="translate(-2518 -4889)" fill="#D7D7D7"/>
</g>
<g id="Fill 134" mask="url(#mask0_outline)">
<use xlink:href="#path83_fill" transform="translate(-2515 -4889)" fill="#D7D7D7"/>
</g>
<g id="Fill 135" mask="url(#mask0_outline)">
<use xlink:href="#path84_fill" transform="translate(-2512 -4889)" fill="#D7D7D7"/>
</g>
<g id="Fill 136" mask="url(#mask0_outline)">
<use xlink:href="#path85_fill" transform="translate(-2510 -4889)" fill="#D7D7D7"/>
</g>
<g id="Fill 137" mask="url(#mask0_outline)">
<use xlink:href="#path86_fill" transform="translate(-2509 -4889)" fill="#D7D7D7"/>
</g>
<g id="Fill 138" mask="url(#mask0_outline)">
<use xlink:href="#path87_fill" transform="translate(-2505 -4889)" fill="#D7D7D7"/>
</g>
<g id="Fill 139" mask="url(#mask0_outline)">
<use xlink:href="#path88_fill" transform="translate(-2502 -4889)" fill="#D7D7D7"/>
</g>
<g id="Fill 140" mask="url(#mask0_outline)">
<use xlink:href="#path89_fill" transform="translate(-2500 -4889)" fill="#D7D7D7"/>
</g>
<g id="Fill 141" mask="url(#mask0_outline)">
<use xlink:href="#path90_fill" transform="translate(-2496 -4889)" fill="#D7D7D7"/>
</g>
<g id="Fill 142" mask="url(#mask0_outline)">
<use xlink:href="#path91_fill" transform="translate(-2483 -4889)" fill="#D7D7D7"/>
</g>
<g id="Fill 143" mask="url(#mask0_outline)">
<use xlink:href="#path92_fill" transform="translate(-2480 -4889)" fill="#D7D7D7"/>
</g>
<g id="Fill 144" mask="url(#mask0_outline)">
<use xlink:href="#path93_fill" transform="translate(-2477 -4889)" fill="#D7D7D7"/>
</g>
<g id="Fill 145" mask="url(#mask0_outline)">
<use xlink:href="#path85_fill" transform="translate(-2474 -4889)" fill="#D7D7D7"/>
</g>
<g id="Fill 146" mask="url(#mask0_outline)">
<use xlink:href="#path84_fill" transform="translate(-2473 -4889)" fill="#D7D7D7"/>
</g>
<g id="Fill 147" mask="url(#mask0_outline)">
<use xlink:href="#path94_fill" transform="translate(-2470 -4889)" fill="#D7D7D7"/>
</g>
<g id="Fill 148" mask="url(#mask0_outline)">
<use xlink:href="#path92_fill" transform="translate(-2468 -4889)" fill="#D7D7D7"/>
</g>
<g id="Fill 149" mask="url(#mask0_outline)">
<use xlink:href="#path95_fill" transform="translate(-2465 -4889)" fill="#D7D7D7"/>
</g>
<g id="Fill 150" mask="url(#mask0_outline)">
<use xlink:href="#path96_fill" transform="translate(-2520 -4931)" fill="#FFFFFF"/>
</g>
<g id="Fill 151" mask="url(#mask0_outline)">
<use xlink:href="#path97_fill" transform="translate(-2440 -4879)" fill="#FFFFFF"/>
</g>
<g id="Fill 152" mask="url(#mask0_outline)">
<use xlink:href="#path98_fill" transform="translate(-2436 -4879)" fill="#FFFFFF"/>
</g>
<g id="Fill 153" mask="url(#mask0_outline)">
<use xlink:href="#path99_fill" transform="translate(-2429 -4879)" fill="#FFFFFF"/>
</g>
<g id="Fill 154" mask="url(#mask0_outline)">
<use xlink:href="#path100_fill" transform="translate(-2448 -4879)" fill="#FFFFFF"/>
</g>
<g id="Fill 155" mask="url(#mask0_outline)">
<use xlink:href="#path101_fill" transform="translate(-2451 -4879)" fill="#FFFFFF"/>
</g>
<g id="Fill 156" mask="url(#mask0_outline)">
<use xlink:href="#path102_fill" transform="translate(-2459 -4910)" fill="#A5672B"/>
</g>
<g id="Fill 157" mask="url(#mask0_outline)">
<use xlink:href="#path103_fill" transform="translate(-2455 -4907)" fill="#C48F52"/>
</g>
<g id="Fill 164" mask="url(#mask0_outline)">
<use xlink:href="#path104_fill" transform="translate(-2434 -4896)" fill="#C48F52"/>
</g>
<g id="Fill 165" mask="url(#mask0_outline)">
<use xlink:href="#path105_fill" transform="translate(-2428 -4894)" fill="#C48F52"/>
</g>
<g id="Fill 166" mask="url(#mask0_outline)">
<use xlink:href="#path106_fill" transform="translate(-2431 -4894)" fill="#C48F52"/>
</g>
<g id="Fill 167" mask="url(#mask0_outline)">
<use xlink:href="#path107_fill" transform="translate(-2684 -4909)" fill="#FCCEA4"/>
</g>
<g id="Fill 168" mask="url(#mask0_outline)">
<use xlink:href="#path108_fill" transform="translate(-2545 -4909)" fill="#F8BDA6"/>
</g>
<g id="Fill 169" mask="url(#mask0_outline)">
<use xlink:href="#path109_fill" transform="translate(-2545 -4905)" fill="#FBCEC2"/>
</g>
<g id="Fill 170" mask="url(#mask0_outline)">
<use xlink:href="#path110_fill" transform="translate(-2542 -4908)" fill="#F8AA92"/>
</g>
<g id="Fill 171" mask="url(#mask0_outline)">
<use xlink:href="#path111_fill" transform="translate(-2669 -4893)" fill="#FFFFFF"/>
</g>
<g id="Fill 172" mask="url(#mask0_outline)">
<use xlink:href="#path112_fill" transform="translate(-2731 -4906)" fill="#6F4199"/>
</g>
</g>
</g>
<defs>
<path id="path0_fill" fill-rule="evenodd" d="M 0 47.4085C 8.63929 46.6963 41.151 19.0917 47.0144 12.3755C 52.8777 5.65932 74.6426 0 74.6426 0C 74.6426 0 76.6754 5.35002 71.0447 13.9515C 65.4139 22.553 58.3993 21.465 45.4198 32.449C 32.4404 43.4331 20.3005 47.1902 14.0879 48.585C 7.87435 49.9807 0 47.4085 0 47.4085Z"/>
<path id="path1_fill" fill-rule="evenodd" d="M 26.9183 15.0085C 26.9183 15.0085 23.4103 18.6994 13.7598 21.9631C 4.10936 25.2276 -2.43949 24.9654 0.866998 18.2423C 4.17432 11.5191 17.2121 9.03113 25.9247 0C 25.9247 0 32.1246 9.6832 26.9183 15.0085"/>
<path id="path2_fill" fill-rule="evenodd" d="M 14.9227 16.0819C 14.9227 16.0819 8.10186 29.8834 3.83422 27.7823C -0.433431 25.6821 -0.831305 20.3715 1.1366 16.3066C 3.10451 12.2417 5.88054 4.04887 5.88054 4.04887L 13.8826 0L 18 8.29051C 18 8.29051 16.1485 13.7914 14.9227 16.0819"/>
<path id="path3_fill" fill-rule="evenodd" d="M 0 45.583C 0 45.583 14.9988 33.5179 19.7871 27.031C 24.5762 20.5449 37.2071 6.81112 42.4239 4.64545C 47.6408 2.47978 52.6582 3.69377 56.4683 3.72487C 60.2793 3.75514 67.0035 0.929515 76.1421 0.470488C 85.2799 0.0114607 88.5675 -1.46651 91.5399 5.07253C 94.5123 11.6107 101.015 18.1977 99.8653 28.514C 98.7155 38.8295 99.8822 50.0379 95.0119 48.9231C 90.1425 47.8083 88.6648 44.6784 86.5259 37.9451C 86.5259 37.9451 83.6415 26.3509 74.6694 29.3245C 65.6982 32.2972 32.4712 43.8746 21.0763 44.3412C 9.68134 44.8078 12.2817 47.8638 0 45.583"/>
<path id="path4_fill" fill-rule="evenodd" d="M 1.22353 44.3019C 1.22353 44.3019 52.7352 45.594 56.9825 43.7746C 61.229 41.9552 57.4714 40.5312 68.8463 35.7177C 80.2211 30.9034 91.4989 31.005 100.688 22.9775C 109.878 14.95 119.259 8.68238 131.235 5.56492C 143.21 2.44661 146.535 4.70096 152 0C 152 0 145.062 6.58084 131.654 11.192C 129.2 12.0358 127.061 12.8426 125.188 13.6159C 116.833 17.0684 113.776 19.871 111.584 22.4822C 108.901 25.6785 105.539 29.6734 97.5608 35.3072C 89.5838 40.9401 84.2743 45.6284 80.7362 47.6309C 77.1974 49.6325 75.9941 52.2697 62.5006 52.6963C 49.008 53.1236 1.10954 60 1.10954 60L 0 42.841L 1.22353 44.3019Z"/>
<path id="path5_fill" fill-rule="evenodd" d="M 6.39849 28C 6.39849 28 -2.80623 26.5884 0.864737 20.4894C 4.53486 14.3904 15.4444 9.66111 23.4778 5.98152C 31.5113 2.30108 34.6361 5.08922 40.5462 3.26525C 46.4564 1.44129 51.4121 -6.47311 54 11.847C 54 11.847 49.446 12.2319 47.5504 12.6434C 45.6548 13.0549 39.033 14.8567 36.1275 15.6472C 33.222 16.4385 27.2967 19.0333 23.8879 20.782C 20.4799 22.5298 10.598 27.8913 6.39849 28"/>
<path id="path6_fill" fill-rule="evenodd" d="M 7 0C 7 0 6.94391 3.60568 5.24021 6.50699C 3.53739 9.40915 -0.320462 17.2394 2.59528 21C 2.59528 21 -0.583378 18.7032 0.0949457 14.1603C 0.773269 9.61742 2.72849 7.32651 3.92476 4.24741C 5.1219 1.16831 5.31734 0.650191 5.31734 0.650191L 7 0Z"/>
<path id="path7_fill" fill-rule="evenodd" d="M 21.8974 4.89071C 21.8974 4.89071 12.4838 10.215 7.96598 11.3919C 3.44903 12.5697 0.435235 15.6954 0.000528458 18C 0.000528458 18 -0.167691 14.3556 5.49848 11.0001C 11.1655 7.64555 21.6751 1.86607 23 0C 23 0 22.1356 3.69873 22.5511 4.67771L 21.8974 4.89071Z"/>
<path id="path8_fill" fill-rule="evenodd" d="M 4.40054 0.512517C 4.40054 0.512517 6.69764 6.3939 9.23862 3.04478C 11.7804 -0.304342 12 0.00769857 12 0.00769857C 12 0.00769857 11.7804 0.513334 9.94193 2.99822C 8.10263 5.4831 8.36597 5.37446 7.71938 6.50744C 7.07279 7.64124 6.81999 9.29375 6.81999 9.29375L 6.62147 10.3973L 4.05942 12C 4.05942 12 4.63552 7.59141 2.55881 6.15456C 0.482107 4.71771 0 2.46236 0 2.46236C 0 2.46236 3.66077 0.814755 4.40054 0.512517"/>
<path id="path9_fill" fill-rule="evenodd" d="M 10 12.8923C 10 12.8923 3.56386 9.89316 1.89498 0L 0 1.40718C 0 1.40718 2.07139 7.30811 3.39407 9.66221C 4.71757 12.0155 8.16465 13.4103 10 12.8923"/>
<path id="path10_fill" fill-rule="evenodd" d="M 53.9998 3.81327C 54.0475 3.77952 45.0118 6.7979 39.4312 14.5713C 33.9343 22.2265 11.7113 39.2575 0 36.7505C 0 36.7505 8.80128 35.856 21.976 24.5285C 35.1507 13.2009 35.3123 15.3619 38.1662 11.4584C 41.021 7.55397 46.4468 1.21933 51.356 0C 51.356 0 52.7474 3.17702 53.9998 3.81327"/>
<path id="path11_fill" fill-rule="evenodd" d="M 13 2.23023C 13 2.23023 3.01994 5.73983 0 13L 3.1677 4.89212C 3.1677 4.89212 4.47331 3.78697 7.16231 2.61595C 9.85045 1.44666 12.4124 0 12.4124 0C 12.4124 0 12.1964 0.492332 13 2.23023"/>
<path id="path12_fill" fill-rule="evenodd" d="M 11.5256 0C 11.5256 0 2.84953 6.6543 0 8C 0 8 9.97917 5.39691 12 7.67506C 12 7.67506 10.1456 5.41545 11.5256 0"/>
<path id="path13_fill" fill-rule="evenodd" d="M 10 0C 10 0 5.1517 6.02488 3.12977 4.44423C 1.10784 2.86277 1.69659 1.60103 1.69659 1.60103L 0.00338049 2.13362C 0.00338049 2.13362 -0.140112 2.99572 1.44265 4.8659C 3.02454 6.73608 3.33327 6.98974 2.88192 8.83219C 2.43144 10.6746 2.46362 12 2.46362 12L 5.03604 10.3264C 5.03604 10.3264 4.08117 10.1796 5.8596 6.86332C 7.63716 3.54788 9.83738 1.47135 10 0"/>
<path id="path14_fill" fill-rule="evenodd" d="M 47.9079 10.3126C 47.9079 10.3126 46.5931 10.2122 46.6326 6.55007C 46.6729 2.88874 47.7911 0 47.7911 0C 47.7911 0 45.2993 6.16968 43.2327 7.4323C 41.1668 8.69491 34.3241 9.80486 30.6781 8.3567C 27.0311 6.90937 24.9006 4.1134 24.9006 4.1134C 24.9006 4.1134 26.4834 9.94825 25.0182 11.8283C 23.5531 13.7074 -5.99356 17.7272 1.09697 24.6703C 1.09697 24.6703 3.74919 28.0592 10.9598 24.0166C 16.0837 21.1439 20.8404 20.9373 27.8351 17.0896C 34.8299 13.2427 44.7642 12.3124 49 11.3239L 47.9079 10.3126Z"/>
<path id="path15_fill" fill-rule="evenodd" d="M 13.3303 8.77083C 13.3303 8.77083 19.2435 5.54966 18.9603 0C 19.2494 0.415979 18.4298 7.431 0 16C 0 16 9.0827 12.8896 13.3303 8.77083"/>
<path id="path16_fill" fill-rule="evenodd" d="M 3.0892 0.167233C 3.0892 0.167233 1.40375 -0.141199 0.901851 3.0577C 0.399951 6.25747 -0.490241 12.5088 0.339256 14.3861C 1.16875 16.2643 2.60909 17.3085 3.04018 12.8689C 3.47205 8.42855 4.93729 -1.39819 3.0892 0.167233"/>
<path id="path17_fill" fill-rule="evenodd" d="M 10.86 2.04916C 10.86 2.04916 8.27465 -2.06017 4.56914 1.35971C 0.864518 4.77872 -0.675767 7.53226 0.274002 9.94921C 1.22377 12.3653 2.14353 15.4297 6.11296 9.87641C 10.0824 4.32308 11.477 2.81655 10.86 2.04916"/>
<path id="path18_fill" fill-rule="evenodd" d="M 2.26199 5C 2.26199 5 1.61786 4.53792 1.14188 3.61686C 0.665911 2.69659 0 0.458637 0 0.458637C 0 0.458637 1.06981 -1.24009 3.99096 1.90099C 4.05402 1.94541 3.81904 2.77451 2.26199 5"/>
<path id="path19_fill" fill-rule="evenodd" d="M 9.08105 0C 9.08105 0 8.37401 2.23759 6.2218 5.23303C 4.0696 8.22935 1.98041 11.9949 0 10.852C 0 10.852 0.804596 12.0888 1.98041 11.9949C 3.15536 11.9011 5.36109 9.07667 6.33921 7.03205C 7.31647 4.98743 10.4615 1.65429 9.94263 0.323665L 9.08105 0Z"/>
<path id="path20_fill" fill-rule="evenodd" d="M 0.111999 0.702858C 0.111999 0.702858 2.80378 -0.0579171 2.12704 4.89448C 1.4503 9.84607 1.42657 14.8426 0 14.9285C 0 14.9285 1.29084 15.6018 1.69328 12.8155C 2.09572 10.0301 3.16826 2.35366 2.97748 1.29675C 2.7867 0.240667 3.27361 -0.688624 0.111999 0.702858"/>
<path id="path21_fill" fill-rule="evenodd" d="M 156 57.953L 110.857 43.1837C 104.475 40.1509 98.858 35.0297 98.858 35.0297C 87.8081 23.2765 78.6661 15.0293 78.6661 15.0293C 75.9975 13.3225 66.858 3.65256 66.858 3.65256C 63.7108 -1.27613 57.2365 0.210462 57.2365 0.210462C 52.6625 0.96258 46.439 0.96258 46.439 0.96258C 38.3117 -0.298793 17.6124 1.46847 17.6124 1.46847C 9.74005 2.23236 8.46951 6.65599 8.46951 6.65599L 5.80432 11.9645L 17.7398 14.1116L 45.1684 25.4917C 62.5686 27.1287 66.5043 28.522 66.5043 28.522C 65.617 41.4164 36.2822 24.9833 36.2822 24.9833C 30.7577 21.0017 17.0425 15.3125 17.0425 15.3125C 6.37416 10.0964 1.03872 18.2504 1.03872 18.2504C -3.15281 27.3573 6.69497 35.0297 6.69497 35.0297L 17.5499 41.6022C 21.2974 43.8837 31.2321 47.2645 31.2321 47.2645C 43.0444 52.0058 53.4865 62.0236 53.4865 62.0236C 56.7257 65.6246 60.4715 69.3583 60.4715 69.3583C 70.5692 77.6971 87.1557 79.7202 87.1557 79.7202C 88.1713 80.2261 100.54 81.3644 100.54 81.3644C 117.256 83.7544 150.222 95.2895 156 98.9963L 156 57.953Z"/>
<path id="path22_fill" fill-rule="evenodd" d="M 0.0957583 0C 0.0957583 0 -0.284737 6.29179 0.471203 8.54439L 3.03702 17.4632C 3.03702 17.4632 7.43713 25.5674 12.44 26.6317C 12.44 26.6317 19.7224 33.3263 22.5694 31.7635C 22.5694 31.7635 26.0528 32.7654 27.3205 27.2592C 27.3205 27.2592 38.8423 32.2978 42.0698 25.723C 42.0698 25.723 61.5415 4.78812 0.0957583 0"/>
<path id="path23_fill" fill-rule="evenodd" d="M 4.21168 0C 4.21168 0 -0.443618 8.55777 0.0344527 15.7189C 0.0344527 15.7189 0.350922 20.2989 1.93327 22.9688C 1.93327 22.9688 3.35654 35.5195 8.48317 36C 8.48317 36 18.361 35.665 16.841 19.7279L 4.21168 0Z"/>
<path id="path24_fill" fill-rule="evenodd" d="M 0 6.47663C 0 6.47663 5.72455 1.96995 13.0075 5.63188L 19.3087 8.44741C 19.3087 8.44741 29.1157 12.5496 32.7102 15.6156C 32.7102 15.6156 49.6064 24.6298 57.3009 23.8775C 57.3009 23.8775 67.1983 24.7547 68.7106 21.8151C 68.7106 21.8151 71.2313 16.8707 61.395 9.91884C 61.395 9.91884 53.2939 -3.28825 44.4971 1.59377C 44.4971 1.59377 22.2754 12.2051 13.6697 0C 13.6697 0 15.4653 5.4413 7.70958 1.59377C 7.70958 1.59377 7.14291 3.1426 2.74534 2.16054L 0 6.47663Z"/>
<path id="path25_fill" fill-rule="evenodd" d="M 0 1.05139C 0 1.05139 7.9553 4.85416 10.5244 6.86159C 10.5244 6.86159 33.3298 19.0451 39 13.5982C 39 13.5982 29.1097 15.2694 30.3695 10.943C 30.3695 10.943 35.8487 -0.682296 28.7327 9.7708C 28.7327 9.7708 26.2725 12.5509 23.6917 9.95247C 23.6917 9.95247 21.4853 10.6635 21.9276 7.57512C 21.9276 7.57512 14.6977 11.0022 14.3651 5.44192C 14.3651 5.44192 14.051 3.89319 16.1904 0C 16.1904 0 11.249 6.4892 0 1.05139"/>
<path id="path26_fill" fill-rule="evenodd" d="M 3.63318 24C 12.7559 21.0036 10.8303 8.31786 10.8303 8.31786C 3.95353 4.87646 0 0 0 0C 0 0 4.40458 5.96143 6.13788 8.95613C 6.13788 8.95613 9.73603 15.7762 4.24142 22.8515L 3.63318 24Z"/>
<path id="path27_fill" fill-rule="evenodd" d="M 10.2226 20C 10.2226 20 11.6767 12.9526 3.13292 7.98498C 3.13292 7.98498 1.99268 1.94509 0 0C 0 0 3.57555 1.10334 6.23723 3.17966C 6.23723 3.17966 5.75 5.83787 6.93063 6.81689C 9.27253 8.76543 12.5014 15.7118 10.2226 20"/>
<path id="path28_fill" fill-rule="evenodd" d="M 2.63222 0C 2.63222 0 6.07573 11.6462 19 5.43404C 19 5.43404 15.9121 16.5459 5.98083 9.85875L 1.34902 8.63236L 0 5.80806C 0 5.80806 1.70124 0.783925 2.63222 0"/>
<path id="path29_fill" fill-rule="evenodd" d="M 0 0.369807C 0 0.369807 0.793336 10.0929 5.21436 13C 5.21436 13 7.54858 12.3037 4.17008 1.14504C 4.17008 1.14504 3.97373 -0.788761 0 0.369807"/>
<path id="path30_fill" fill-rule="evenodd" d="M 0 1.76843C 0 1.76843 7.34025 8.4266 9.99607 6.7203C 9.99607 6.7203 10.3566 4.1998 4.17188 0.39536C 4.17188 0.39536 2.62591 -1.11501 0 1.76843"/>
<path id="path31_fill" fill-rule="evenodd" d="M 0 3.20065C 0 3.20065 5.57547 5.46616 8.83262 4.913C 8.83262 4.913 10.527 2.16104 3.13386 0.0769387C 3.13386 0.0769387 0.939658 -0.776388 0 3.20065"/>
<path id="path32_fill" fill-rule="evenodd" d="M 144.522 93L 7.47924 93C 3.36596 93 0 89.6487 0 85.5523L 0 7.44774C 0 3.35131 3.36596 0 7.47924 0L 144.522 0C 148.635 0 152 3.35131 152 7.44774L 152 85.5523C 152 89.6487 148.635 93 144.522 93"/>
<path id="path33_fill" fill-rule="evenodd" d="M 0 13.2182L 0 52.5064C 0 56.6276 3.44787 60 7.66249 60L 144.338 60C 148.552 60 152 56.6276 152 52.5064L 152 13.2182C 135.65 7.3499 110.044 0.301288 78.0604 0.00939427C 43.9778 -0.30196 16.8028 7.1883 0 13.2182"/>
<path id="path34_fill" fill-rule="evenodd" d="M 5.9103 7.66564C 5.59551 7.82729 4.88787 8 3.96678 8C 1.34884 8 0 6.33075 0 4.12039C 0 1.47357 1.84302 0 4.13538 0C 5.02243 0 5.69684 0.184622 6 0.345422L 5.65199 1.73817C 5.30316 1.58843 4.8206 1.4506 4.21346 1.4506C 2.85382 1.4506 1.79817 2.29033 1.79817 4.01744C 1.79817 5.57099 2.69684 6.5494 4.22508 6.5494C 4.74169 6.5494 5.31478 6.43454 5.65199 6.29586L 5.9103 7.66564Z"/>
<path id="path35_fill" fill-rule="evenodd" d="M 1.78003 3.58192L 2.48755 3.58192C 3.38328 3.58192 3.91392 3.13429 3.91392 2.43932C 3.91392 1.70864 3.41901 1.34374 2.59385 1.33154C 2.15732 1.33154 1.90986 1.36725 1.78003 1.39076L 1.78003 3.58192ZM 0 0.165469C 0.577694 0.0705421 1.43857 0 2.39355 0C 3.57247 0 4.39762 0.176791 4.96311 0.624428C 5.43451 1.00152 5.69416 1.55541 5.69416 2.28609C 5.69416 3.29893 4.97444 3.9939 4.29132 4.24211L 4.29132 4.27694C 4.84548 4.50076 5.15219 5.03113 5.35173 5.76181C 5.59919 6.65709 5.84752 7.69345 6 8L 4.16149 8C 4.03166 7.77618 3.84258 7.12824 3.60732 6.15023C 3.39559 5.1609 3.05315 4.89005 2.32297 4.87786L 1.78013 4.87786L 1.78013 8L 0 8L 0 0.165469Z"/>
<path id="path36_fill" fill-rule="evenodd" d="M 4.66306 4.61768L 1.77927 4.61768L 1.77927 6.51722L 5 6.51722L 5 8L 0 8L 0 0L 4.83754 0L 4.83754 1.48454L 1.77927 1.48454L 1.77927 3.14543L 4.66306 3.14543L 4.66306 4.61768Z"/>
<path id="path37_fill" fill-rule="evenodd" d="M 1.79712 6.57712C 1.94992 6.61246 2.19647 6.61246 2.41959 6.61246C 4.04045 6.62366 5.09788 5.73755 5.09788 3.86017C 5.10916 2.22758 4.14637 1.36475 2.60798 1.36475C 2.20863 1.36475 1.94992 1.40009 1.79712 1.43457L 1.79712 6.57712ZM 0 0.162913C 0.658068 0.0586144 1.51581 0 2.41957 0C 3.92323 0 4.89818 0.268075 5.66129 0.839565C 6.48344 1.4464 7 2.4144 7 3.80131C 7 5.30632 6.44872 6.34414 5.68473 6.98545C 4.8513 7.67331 3.58291 8 2.03237 8C 1.1043 8 0.447104 7.94139 0 7.88277L 0 0.162913Z"/>
<path id="path38_fill" fill-rule="evenodd" d="M 0 177L 481 177L 481 0L 0 0L 0 177Z"/>
<path id="path39_fill" fill-rule="evenodd" d="M 0 0L 72.9212 8.88341L 72.9212 67.8834L 0 59L 0 0Z"/>
<path id="path40_fill" fill-rule="evenodd" d="M 0 8L 2 8L 2 0L 0 0L 0 8Z"/>
<path id="path41_fill" fill-rule="evenodd" d="M 2.09675 1.51946L 0 1.51946L 0 0L 6 0L 6 1.51946L 3.86901 1.51946L 3.86901 8L 2.09675 8L 2.09675 1.51946Z"/>
<path id="path42_fill" fill-rule="evenodd" d="M 5.9103 7.66564C 5.59551 7.82729 4.88787 8 3.96678 8C 1.34801 8 0 6.33075 0 4.12039C 0 1.47357 1.84302 0 4.13538 0C 5.02243 0 5.69684 0.184622 6 0.345422L 5.65199 1.73817C 5.30316 1.58843 4.8206 1.4506 4.21346 1.4506C 2.85382 1.4506 1.79817 2.29033 1.79817 4.01744C 1.79817 5.57099 2.69684 6.5494 4.22508 6.5494C 4.74169 6.5494 5.31478 6.43454 5.65199 6.29586L 5.9103 7.66564Z"/>
<path id="path43_fill" fill-rule="evenodd" d="M 4.29077 4.59334L 3.81289 2.89579C 3.67659 2.42118 3.53945 1.82813 3.42587 1.35352L 3.40315 1.35352C 3.28957 1.82813 3.17515 2.43346 3.04979 2.89579L 2.59546 4.59334L 4.29077 4.59334ZM 2.34483 5.94627L 1.79796 8L 0 8L 2.34483 0L 4.62151 0L 7 8L 5.13305 8L 4.54159 5.94627L 2.34483 5.94627Z"/>
<path id="path44_fill" fill-rule="evenodd" d="M 1.78003 3.58192L 2.48755 3.58192C 3.38328 3.58192 3.91392 3.13429 3.91392 2.43932C 3.91392 1.70864 3.41901 1.34374 2.59385 1.33154C 2.15732 1.33154 1.90986 1.36725 1.78003 1.39076L 1.78003 3.58192ZM 0 0.165469C 0.577694 0.0705421 1.43857 0 2.39355 0C 3.57247 0 4.39762 0.176791 4.96311 0.624428C 5.43451 1.00152 5.69416 1.55541 5.69416 2.28609C 5.69416 3.29893 4.97531 3.9939 4.29132 4.24211L 4.29132 4.27694C 4.84548 4.50076 5.15219 5.03113 5.3526 5.76181C 5.59919 6.65709 5.84752 7.69345 6 8L 4.16149 8C 4.03166 7.77618 3.84345 7.12824 3.60732 6.15023C 3.39559 5.1609 3.05315 4.89005 2.32297 4.87786L 1.78013 4.87786L 1.78013 8L 0 8L 0 0.165469Z"/>
<path id="path45_fill" fill-rule="evenodd" d="M 18.7629 19L 4.23706 19C 1.90655 19 0 17.0899 0 14.755L 0 4.24502C 0 1.91013 1.90655 0 4.23706 0L 18.7629 0C 21.0934 0 23 1.91013 23 4.24502L 23 14.755C 23 17.0899 21.0934 19 18.7629 19"/>
<path id="path46_fill" fill-rule="evenodd" d="M 1.54793 6.13106C 0.60774 6.83348 0 7.92765 0 9.16028C 0 11.2802 1.79068 13 4 13C 6.20932 13 8 11.2802 8 9.16028C 8 7.92765 7.39226 6.83348 6.45207 6.13106C 7.19613 5.48688 7.66667 4.55735 7.66667 3.51974C 7.66667 1.57624 6.02463 0 4 0C 1.97537 0 0.333333 1.57624 0.333333 3.51974C 0.333333 4.55735 0.80387 5.48688 1.54793 6.13106"/>
<path id="path47_fill" fill-rule="evenodd" d="M 3.99992 0.819336C 2.38067 0.819336 1.06378 2.23603 1.06378 3.978C 1.06378 4.86739 1.41787 5.72169 2.03692 6.32175L 2.3743 6.6496L 2.01544 6.9492C 1.21894 7.61603 0.762207 8.61756 0.762207 9.69699C 0.762207 11.6179 2.21437 13.1801 3.99992 13.1801C 5.78548 13.1801 7.23764 11.6179 7.23764 9.69699C 7.23764 8.61756 6.78091 7.61689 5.98441 6.9492L 5.62555 6.6496L 5.96292 6.32175C 6.58118 5.72169 6.93607 4.86739 6.93607 3.978C 6.93607 2.23603 5.61918 0.819336 3.99992 0.819336L 3.99992 0.819336ZM 4 14C 1.79431 14 0 12.0697 0 9.69685C 0 8.51642 0.442411 7.41131 1.22538 6.60238C 0.634175 5.87906 0.301572 4.94515 0.301572 3.97787C 0.301572 1.78478 1.96061 0 4 0C 6.03939 0 7.69763 1.78478 7.69763 3.97787C 7.69763 4.94515 7.36582 5.87906 6.77462 6.60238C 7.55759 7.41131 8 8.51642 8 9.69685C 8 12.0697 6.20569 14 4 14L 4 14Z"/>
<path id="path48_fill" fill-rule="evenodd" d="M 0 14L 0.957 14L 0.957 0L 0 0L 0 14Z"/>
<path id="path49_fill" fill-rule="evenodd" d="M 0 0.957L 5 0.957L 5 0L 0 0L 0 0.957Z"/>
<path id="path50_fill" fill-rule="evenodd" d="M 2.01361 3.05009L 3.87551 3.05009C 4.20007 3.05009 4.44281 3.09504 4.68555 3.30181C 4.96966 3.53637 5 3.75213 5 4.06678L 5 5.99229C 5 6.27099 4.96966 6.46877 4.75634 6.69434C 4.50349 6.96404 4.24053 7 3.87551 7L 1.62928 7C 1.36539 7 1.21368 6.93625 0.960831 6.83736L 0.576499 6.68453C 0.30342 6.57747 0 6.49574 0 6.18109C 0 5.94734 0.222508 5.73076 0.485473 5.73076C 0.606841 5.73076 0.697867 5.75855 0.809121 5.8035L 1.11254 5.92037C 1.25414 5.97431 1.48768 6.10017 1.6495 6.10017L 3.98768 6.10017L 3.98768 3.94991L 1.00129 3.94991L 1.00129 0L 4.49338 0C 4.75634 0 5 0.125861 5 0.450321C 5 0.773964 4.75634 0.899825 4.49338 0.899825L 2.01361 0.899825L 2.01361 3.05009Z"/>
<path id="path51_fill" fill-rule="evenodd" d="M 1.01232 6.10089L 4.4943 6.10089C 4.75726 6.10089 5 6.22676 5 6.55044C 5 6.87494 4.75726 7 4.4943 7L 0 7L 0 4.06726C 0 3.39211 0.384332 3.05044 1.1438 3.05044L 3.9886 3.05044L 3.9886 0.89993L 0.50662 0.89993C 0.242736 0.89993 0 0.774054 0 0.450374C 0 0.125876 0.242736 0 0.50662 0L 3.86631 0C 4.20099 0 4.43362 0.0449556 4.68647 0.251752C 4.96966 0.485521 5 0.729099 5 1.05278L 5 2.89759C 5 3.22128 4.96966 3.46404 4.68647 3.69862C 4.43362 3.90542 4.20099 3.95037 3.86631 3.95037L 1.01232 3.95037L 1.01232 6.10089Z"/>
<path id="path52_fill" fill-rule="evenodd" d="M 2.02368 3.05042L 2.97532 3.05042L 2.97532 0.899902L 2.02368 0.899902L 2.02368 3.05042ZM 1.01147 6.10071L 3.98775 6.10071L 3.98775 3.9502L 1.01147 3.9502L 1.01147 6.10071ZM 3.48106 0C 3.82586 0 3.98768 0.215787 3.98768 0.450374L 3.98768 3.05044C 4.30121 3.05044 4.54395 3.14935 4.726 3.3022C 4.90805 3.45504 5 3.67982 5 3.95936L 5 6.10089C 5 6.64935 4.61475 7 3.98768 7L 1.0114 7C 0.384333 7 0 6.64935 0 6.10089L 0 3.95936C 0 3.67982 0.0901067 3.45504 0.273078 3.3022C 0.455131 3.14935 0.697867 3.05044 1.0114 3.05044L 1.0114 0.450374C 1.0114 0.215787 1.17323 0 1.51802 0L 3.48106 0Z"/>
<path id="path53_fill" fill-rule="evenodd" d="M 1.01221 6.10111L 3.98849 6.10111L 3.98849 4.71484L 1.01221 4.71484L 1.01221 6.10111ZM 1.01232 3.81551L 4.39224 3.81551C 4.89886 3.81551 5 4.00432 5 4.41791L 5 6.43356C 5 6.85696 4.79772 7 4.34167 7L 0.657411 7C 0.182052 7 0 6.84715 0 6.43356L 0 0.450374C 0 0.243578 0.0809121 0 0.434903 0L 1.04266 0C 1.30563 0 1.51802 0.215787 1.51802 0.450374C 1.51802 0.720107 1.30563 0.89993 1.01232 0.89993L 1.01232 3.81551Z"/>
<path id="path54_fill" fill-rule="evenodd" d="M 1.01139 0.899825C 1.01139 1.09842 0.829342 1.35015 0.505696 1.35015C 0.182051 1.35015 0 1.09842 0 0.899825L 0 0.450321C 0 0.252539 0.182051 0 0.505696 0L 4.99996 0L 4.99996 2.60957C 4.99996 2.92423 5.01007 2.96019 4.72596 3.17595L 3.30909 4.26456C 3.04613 4.47215 3.0259 4.49013 3.0259 4.80479L 3.0259 6.54968C 3.0259 6.83736 2.88431 7 2.51929 7C 2.15518 7 2.01359 6.83736 2.01359 6.54968L 2.01359 4.38144C 2.01359 4.08476 2.0237 4.05779 2.27655 3.86001L 3.67319 2.78938C 4.00695 2.52785 3.98764 2.53765 3.98764 2.14127L 3.98764 0.899825L 1.01139 0.899825Z"/>
<path id="path55_fill" fill-rule="evenodd" d="M 0.505701 0.899825C 0.242736 0.899825 0 0.773964 0 0.450321C 0 0.125861 0.242736 0 0.505701 0L 3.98768 0C 4.56418 0 5 0.387391 5 0.899825L 5 2.62755C 5 2.98716 4.91909 3.24787 4.60555 3.50041C 4.91909 3.75213 5 4.01284 5 4.37326L 5 6.10017C 5 6.61343 4.56418 7 3.98768 7L 0.505701 7C 0.242736 7 0 6.87414 0 6.54968C 0 6.22604 0.242736 6.10017 0.505701 6.10017L 3.98768 6.10017L 3.98768 4.60701C 3.98768 4.10274 3.76517 3.94991 3.48198 3.94991L 1.49779 3.94991C 1.23483 3.94991 0.991173 3.82405 0.991173 3.50041C 0.991173 3.17595 1.23483 3.05009 1.49779 3.05009L 3.48198 3.05009C 3.76517 3.05009 3.98768 2.89726 3.98768 2.39299L 3.98768 0.899825L 0.505701 0.899825Z"/>
<path id="path56_fill" fill-rule="evenodd" d="M 2.02368 3.05042L 2.97532 3.05042L 2.97532 0.899902L 2.02368 0.899902L 2.02368 3.05042ZM 1.01147 6.10071L 3.98775 6.10071L 3.98775 3.9502L 1.01147 3.9502L 1.01147 6.10071ZM 3.48198 0C 3.82586 0 3.98768 0.215787 3.98768 0.450374L 3.98768 3.05044C 4.30121 3.05044 4.54395 3.14935 4.726 3.3022C 4.90897 3.45504 5 3.67982 5 3.95936L 5 6.10089C 5 6.64935 4.61475 7 3.98768 7L 1.0114 7C 0.384333 7 0 6.64935 0 6.10089L 0 3.95936C 0 3.67982 0.0910261 3.45504 0.273078 3.3022C 0.455131 3.14935 0.698786 3.05044 1.0114 3.05044L 1.0114 0.450374C 1.0114 0.215787 1.17414 0 1.51802 0L 3.48198 0Z"/>
<path id="path57_fill" fill-rule="evenodd" d="M 1.01147 6.10086L 3.98775 6.10086L 3.98775 0.899902L 1.01147 0.899902L 1.01147 6.10086ZM 3.98768 0C 4.54487 0 5 0.404601 5 0.89993L 5 6.10089C 5 6.60439 4.5651 7 3.98768 7L 1.01232 7C 0.434903 7 0 6.60439 0 6.10089L 0 0.89993C 0 0.404601 0.455131 0 1.01232 0L 3.98768 0Z"/>
<path id="path58_fill" fill-rule="evenodd" d="M 1.01232 6.10089L 4.4943 6.10089C 4.75726 6.10089 5 6.22676 5 6.55044C 5 6.87494 4.75726 7 4.4943 7L 0 7L 0 4.06726C 0 3.39211 0.385252 3.05044 1.14472 3.05044L 3.9886 3.05044L 3.9886 0.89993L 0.50662 0.89993C 0.243656 0.89993 0 0.774054 0 0.450374C 0 0.125876 0.243656 0 0.50662 0L 3.86723 0C 4.20099 0 4.43362 0.0449556 4.68647 0.251752C 4.96966 0.485521 5 0.729099 5 1.05278L 5 2.89759C 5 3.22128 4.96966 3.46404 4.68647 3.69862C 4.43362 3.90542 4.20099 3.95037 3.86723 3.95037L 1.01232 3.95037L 1.01232 6.10089Z"/>
<path id="path59_fill" fill-rule="evenodd" d="M 1.01139 0.899825C 1.01139 1.09842 0.829342 1.35015 0.505696 1.35015C 0.182051 1.35015 0 1.09842 0 0.899825L 0 0.450321C 0 0.252539 0.182051 0 0.505696 0L 4.99996 0L 4.99996 2.60957C 4.99996 2.92423 5.01007 2.96019 4.72596 3.17595L 3.30909 4.26456C 3.04613 4.47215 3.0259 4.49013 3.0259 4.80479L 3.0259 6.54968C 3.0259 6.83736 2.88431 7 2.51929 7C 2.15518 7 2.01359 6.83736 2.01359 6.54968L 2.01359 4.38144C 2.01359 4.08476 2.0237 4.05779 2.27655 3.86001L 3.67319 2.78938C 4.00787 2.52785 3.98764 2.53765 3.98764 2.14127L 3.98764 0.899825L 1.01139 0.899825Z"/>
<path id="path60_fill" fill-rule="evenodd" d="M 1.01147 6.10086L 3.98775 6.10086L 3.98775 0.899902L 1.01147 0.899902L 1.01147 6.10086ZM 3.98768 0C 4.54487 0 5 0.404601 5 0.89993L 5 6.10089C 5 6.60439 4.56418 7 3.98768 7L 1.01232 7C 0.434903 7 0 6.60439 0 6.10089L 0 0.89993C 0 0.404601 0.455131 0 1.01232 0L 3.98768 0Z"/>
<path id="path61_fill" fill-rule="evenodd" d="M 1.01147 2.30415L 3.98775 2.30415L 3.98775 0.899902L 1.01147 0.899902L 1.01147 2.30415ZM 3.98768 3.20329L 0.50662 3.20329C 0.223428 3.20329 0 2.98751 0 2.75374L 0 0.450374C 0 0.215787 0.223428 0 0.50662 0L 4.4943 0C 4.77749 0 5 0.215787 5 0.450374L 5 6.55044C 5 6.79402 4.79772 7 4.4943 7L 3.98768 7C 3.68426 7 3.48198 6.79402 3.48198 6.55044C 3.48198 6.28071 3.69437 6.10089 3.98768 6.10089L 3.98768 3.20329Z"/>
<path id="path62_fill" fill-rule="evenodd" d="M 1.63356 4C 1.17809 4 0.917296 3.84589 0.722608 3.5116L 0.1639 2.55472C 0.0606701 2.37991 0 2.21583 0 2.01495C 0 1.78877 0.0488983 1.65076 0.170238 1.44451L 0.728947 0.493004C 0.935406 0.138777 1.1962 0 1.66345 0L 2.69574 0C 2.82976 0 3 0.0613379 3 0.256853C 3 0.4424 2.8361 0.514472 2.69574 0.514472L 1.68246 0.514472C 1.42077 0.514472 1.37821 0.534407 1.26321 0.729921L 0.73438 1.62469C 0.655599 1.76347 0.607606 1.85547 0.607606 2.01495C 0.607606 2.1591 0.661938 2.2465 0.73438 2.36994L 1.25053 3.25934C 1.37277 3.47019 1.43344 3.48553 1.70601 3.48553L 2.69574 3.48553C 2.82976 3.48553 3 3.54763 3 3.74315C 3 3.92793 2.8361 4 2.69574 4L 1.63356 4Z"/>
<path id="path63_fill" fill-rule="evenodd" d="M 1.51231 1.21875L 1.50054 1.21875L 1.0271 2.61162L 1.97941 2.61162L 1.51231 1.21875ZM 1.19629 0.262936C 1.24518 0.124186 1.31216 0 1.50588 0C 1.70685 0 1.77926 0.128785 1.82181 0.262936L 2.99318 3.7432C 3.03573 3.86585 2.87188 4 2.7017 4C 2.51432 4 2.41655 3.86585 2.374 3.7432L 2.14951 3.1261L 0.856831 3.1261L 0.625996 3.7432C 0.58345 3.86585 0.48659 4 0.298301 4C 0.128117 4 -0.0357309 3.86585 0.00681517 3.7432L 1.19629 0.262936Z"/>
<path id="path64_fill" fill-rule="evenodd" d="M 0.606934 1.316L 1.95567 1.316C 2.12505 1.316 2.39317 1.30603 2.39317 1.10059L 2.39317 0.745666C 2.39317 0.539457 2.14407 0.51416 1.96201 0.51416L 0.606934 0.51416L 0.606934 1.316ZM 0.606884 3.74243C 0.606884 3.90724 0.521739 4 0.303442 4C 0.0842391 4 0 3.90724 0 3.74243L 0 0L 2.04076 0C 2.51993 0 3 0.288233 3 0.74588L 3 1.1008C 3 1.58375 2.52627 1.83059 2.04076 1.83059L 1.48188 1.83059L 2.84783 3.48563C 2.91485 3.56305 3 3.66041 3 3.75853C 3 3.90188 2.86051 4 2.69022 4C 2.56884 4 2.49004 3.93791 2.42301 3.85588L 0.746377 1.83059L 0.606884 1.83059L 0.606884 3.74243Z"/>
<path id="path65_fill" fill-rule="evenodd" d="M 1.20264 3.48551L 1.31764 3.48551C 1.573 3.48551 1.63367 3.4602 1.74323 3.27006L 2.27749 2.35459C 2.3445 2.23651 2.39249 2.14911 2.39249 2.0203C 2.39249 1.84548 2.32639 1.74811 2.24127 1.5986L 1.7369 0.7299C 1.60922 0.508316 1.55489 0.513683 1.27508 0.513683L 1.20264 0.513683L 1.20264 3.48551ZM 0.594929 0.513705L 0.370359 0.513705C 0.170238 0.513705 0 0.452367 0 0.256853C 0 0.0713053 0.1639 0 0.352249 0L 1.36644 0C 1.84002 0 2.07727 0.164079 2.28373 0.513705L 2.81799 1.41844C 2.93933 1.62929 3 1.7788 3 2.01495C 3 2.2212 2.93299 2.39601 2.82342 2.58079L 2.27105 3.5162C 2.05916 3.88192 1.78569 4 1.3121 4L 0.30335 4C 0.145789 4 0 3.92793 0 3.74315C 0 3.5576 0.145789 3.48553 0.30335 3.48553L 0.594929 3.48553L 0.594929 0.513705Z"/>
<path id="path66_fill" fill-rule="evenodd" d="M 0.606884 2.25724L 0.606884 3.74315C 0.606884 3.90799 0.521739 4 0.303442 4C 0.0842391 4 0 3.90799 0 3.74315L 0 0.257619C 0 0.0927736 0.0842391 0 0.303442 0C 0.521739 0 0.606884 0.0927736 0.606884 0.257619L 0.606884 1.74353L 2.39312 1.74353L 2.39312 0.257619C 2.39312 0.0927736 2.47736 0 2.69656 0C 2.91486 0 3 0.0927736 3 0.257619L 3 3.74315C 3 3.90799 2.91486 4 2.69656 4C 2.47736 4 2.39312 3.90799 2.39312 3.74315L 2.39312 2.25724L 0.606884 2.25724Z"/>
<path id="path67_fill" fill-rule="evenodd" d="M 1.70657 0.66876C 1.65766 0.586721 1.62777 0.514648 1.50005 0.514648C 1.37233 0.514648 1.34244 0.586721 1.29353 0.66876L 0.746426 1.59956C 0.655847 1.74831 0.606934 1.84645 0.606934 2.01589C 0.606934 2.1493 0.644071 2.24208 0.710194 2.35555L 1.29353 3.33236C 1.3361 3.40443 1.37867 3.48647 1.50005 3.48647C 1.62143 3.48647 1.664 3.40443 1.70657 3.33236L 2.2899 2.35555C 2.35603 2.24208 2.39317 2.1493 2.39317 2.01589C 2.39317 1.84645 2.34425 1.74831 2.25367 1.59956L 1.70657 0.66876ZM 2.84239 1.44528C 2.95743 1.64539 3 1.79413 3 2.01572C 3 2.2626 2.9212 2.41671 2.79982 2.62756L 2.24094 3.5737C 2.09511 3.82059 1.85236 4 1.5 4C 1.14764 4 0.904891 3.82059 0.759058 3.5737L 0.200181 2.62756C 0.0788043 2.41671 0 2.2626 0 2.01572C 0 1.79413 0.0416667 1.64539 0.157609 1.44528L 0.765399 0.421698C 0.911232 0.18018 1.15942 0 1.5 0C 1.83967 0 2.08877 0.18018 2.2346 0.421698L 2.84239 1.44528Z"/>
<path id="path68_fill" fill-rule="evenodd" d="M 2.69656 3.48553C 2.85417 3.48553 3 3.5576 3 3.74315C 3 3.92793 2.85417 4 2.69656 4L 0 4L 0 0.256853C 0 0.0927736 0.0842391 0 0.303442 0C 0.521739 0 0.606884 0.0927736 0.606884 0.256853L 0.606884 3.48553L 2.69656 3.48553Z"/>
<path id="path69_fill" fill-rule="evenodd" d="M 1.20264 3.48551L 1.31764 3.48551C 1.573 3.48551 1.63367 3.4602 1.74323 3.27006L 2.27749 2.35459C 2.3445 2.23651 2.39249 2.14911 2.39249 2.0203C 2.39249 1.84548 2.32549 1.74811 2.24127 1.5986L 1.7369 0.7299C 1.60922 0.508316 1.55489 0.513683 1.27508 0.513683L 1.20264 0.513683L 1.20264 3.48551ZM 0.594929 0.513705L 0.370359 0.513705C 0.170238 0.513705 0 0.452367 0 0.256853C 0 0.0713053 0.1639 0 0.352249 0L 1.36644 0C 1.84002 0 2.07637 0.164079 2.28373 0.513705L 2.81799 1.41844C 2.93933 1.62929 3 1.7788 3 2.01495C 3 2.2212 2.93299 2.39601 2.82433 2.58079L 2.27105 3.5162C 2.05826 3.88192 1.78569 4 1.3121 4L 0.30335 4C 0.145789 4 0 3.92793 0 3.74315C 0 3.5576 0.145789 3.48553 0.30335 3.48553L 0.594929 3.48553L 0.594929 0.513705Z"/>
<path id="path70_fill" fill-rule="evenodd" d="M 2.69574 3.48553C 2.85331 3.48553 3 3.5576 3 3.74315C 3 3.92793 2.85331 4 2.69574 4L 0 4L 0 0L 2.69574 0C 2.85331 0 3 0.0713053 3 0.256853C 3 0.441633 2.85331 0.513705 2.69574 0.513705L 0.606701 0.513705L 0.606701 1.74276L 1.49955 1.74276C 1.65801 1.74276 1.8029 1.81484 1.8029 1.99962C 1.8029 2.1844 1.65801 2.25647 1.49955 2.25647L 0.606701 2.25647L 0.606701 3.48553L 2.69574 3.48553Z"/>
<path id="path71_fill" fill-rule="evenodd" d="M 0.606934 1.316L 1.95567 1.316C 2.12505 1.316 2.39226 1.30603 2.39226 1.10059L 2.39226 0.745666C 2.39226 0.539457 2.14407 0.51416 1.96201 0.51416L 0.606934 0.51416L 0.606934 1.316ZM 0.606884 3.74243C 0.606884 3.90724 0.521739 4 0.303442 4C 0.0851449 4 0 3.90724 0 3.74243L 0 0L 2.04076 0C 2.52083 0 3 0.288233 3 0.74588L 3 1.1008C 3 1.58375 2.52627 1.83059 2.04076 1.83059L 1.48188 1.83059L 2.84873 3.48563C 2.91486 3.56305 3 3.66041 3 3.75853C 3 3.90188 2.86051 4 2.69022 4C 2.56884 4 2.49004 3.93791 2.42301 3.85588L 0.746377 1.83059L 0.606884 1.83059L 0.606884 3.74243Z"/>
<path id="path72_fill" fill-rule="evenodd" d="M 0.606689 3.48647L 2.39238 3.48647L 2.39238 0.514648L 0.606689 0.514648L 0.606689 3.48647ZM 2.39239 0C 2.72653 0 3 0.231551 3 0.514472L 3 3.48629C 3 3.77382 2.7383 4 2.39239 4L 0.607606 4C 0.260791 4 0 3.77382 0 3.48629L 0 0.514472C 0 0.231551 0.273468 0 0.607606 0L 2.39239 0Z"/>
<path id="path73_fill" fill-rule="evenodd" d="M 0.607666 3.48636L 2.39336 3.48636L 2.39336 2.69434L 0.607666 2.69434L 0.607666 3.48636ZM 0.607606 2.18056L 2.63507 2.18056C 2.93933 2.18056 3 2.2879 3 2.52482L 3 3.67644C 3 3.91796 2.87866 4 2.60519 4L 0.394808 4C 0.109568 4 0 3.91259 0 3.67644L 0 0.256853C 0 0.138777 0.0488983 0 0.260791 0L 0.625717 0C 0.783278 0 0.910957 0.123443 0.910957 0.256853C 0.910957 0.411731 0.783278 0.514472 0.607606 0.514472L 0.607606 2.18056Z"/>
<path id="path74_fill" fill-rule="evenodd" d="M 0.601268 3.81982C 0.52792 3.92793 0.455478 4 0.30335 4C 0.152128 4 0 3.89189 0 3.75848C 0 3.66034 0.0733474 3.57293 0.134018 3.4909L 2.40507 0.195515C 2.47751 0.0920069 2.54995 0 2.70208 0C 2.85964 0 3 0.108108 3 0.241518C 3 0.323558 2.96921 0.385662 2.93299 0.441633L 0.601268 3.81982Z"/>
<path id="path75_fill" fill-rule="evenodd" d="M 2.39312 3.4862L 2.39312 2.44709C 2.39312 2.29831 2.47192 2.19018 2.69656 2.19018C 2.9212 2.19018 3 2.29831 3 2.44709L 3 3.7431C 3 3.92791 2.85507 4 2.69656 4L 0.303442 4C 0.145833 4 0 3.92791 0 3.7431C 0 3.55828 0.145833 3.4862 0.303442 3.4862L 1.19656 3.4862L 1.19656 0.513804L 0.303442 0.513804C 0.145833 0.513804 0 0.441718 0 0.256902C 0 0.0720859 0.145833 0 0.303442 0L 1.80344 0L 1.80344 3.4862L 2.39312 3.4862Z"/>
<path id="path76_fill" fill-rule="evenodd" d="M 0.606878 0.513804C 0.606878 0.627301 0.497278 0.770706 0.303439 0.770706C 0.108695 0.770706 0 0.627301 0 0.513804L 0 0.256902C 0 0.143405 0.108695 0 0.303439 0L 2.99997 0L 2.99997 1.4908C 2.99997 1.67101 3.00631 1.69172 2.83602 1.81518L 1.98549 2.43712C 1.82788 2.55521 1.8152 2.56595 1.8152 2.7454L 1.8152 3.7431C 1.8152 3.90798 1.73096 4 1.51176 4C 1.29347 4 1.20832 3.90798 1.20832 3.7431L 1.20832 2.50383C 1.20832 2.33436 1.21466 2.31902 1.36593 2.20552L 2.20469 1.59356C 2.40487 1.44479 2.39309 1.45015 2.39309 1.22393L 2.39309 0.513804L 0.606878 0.513804Z"/>
<path id="path77_fill" fill-rule="evenodd" d="M 0.607666 3.48647L 2.39245 3.48647L 2.39245 0.514648L 0.607666 0.514648L 0.607666 3.48647ZM 2.39239 0C 2.72653 0 3 0.231551 3 0.514472L 3 3.48629C 3 3.77382 2.7383 4 2.39239 4L 0.607606 4C 0.261696 4 0 3.77382 0 3.48629L 0 0.514472C 0 0.231551 0.273468 0 0.607606 0L 2.39239 0Z"/>
<path id="path78_fill" fill-rule="evenodd" d="M 0.607666 3.48636L 2.39245 3.48636L 2.39245 2.69434L 0.607666 2.69434L 0.607666 3.48636ZM 0.607606 2.18056L 2.63598 2.18056C 2.93933 2.18056 3 2.2879 3 2.52482L 3 3.67644C 3 3.91796 2.87866 4 2.60519 4L 0.394808 4C 0.109568 4 0 3.91259 0 3.67644L 0 0.256853C 0 0.138777 0.0488983 0 0.261696 0L 0.625717 0C 0.783278 0 0.910957 0.123443 0.910957 0.256853C 0.910957 0.411731 0.783278 0.514472 0.607606 0.514472L 0.607606 2.18056Z"/>
<path id="path79_fill" fill-rule="evenodd" d="M 0.601268 3.81982C 0.528826 3.92793 0.455478 4 0.30335 4C 0.152128 4 0 3.89189 0 3.75848C 0 3.66034 0.0733474 3.57293 0.133112 3.4909L 2.40507 0.195515C 2.47751 0.0920069 2.54995 0 2.70208 0C 2.86055 0 3 0.108108 3 0.241518C 3 0.323558 2.96921 0.385662 2.93299 0.441633L 0.601268 3.81982Z"/>
<path id="path80_fill" fill-rule="evenodd" d="M 0.606884 3.4862L 2.69656 3.4862C 2.85417 3.4862 3 3.55828 3 3.7431C 3 3.92791 2.85417 4 2.69656 4L 0 4L 0 2.32362C 0 1.93788 0.230072 1.7431 0.685688 1.7431L 2.39221 1.7431L 2.39221 0.513804L 0.303442 0.513804C 0.144928 0.513804 0 0.441718 0 0.256902C 0 0.0720859 0.144928 0 0.303442 0L 2.31975 0C 2.51993 0 2.65942 0.0253067 2.81159 0.143405C 2.98188 0.27684 3 0.416411 3 0.601227L 3 1.65567C 3 1.84049 2.98188 1.97929 2.81159 2.11273C 2.65942 2.2316 2.51993 2.2569 2.31975 2.2569L 0.606884 2.2569L 0.606884 3.4862Z"/>
<path id="path81_fill" fill-rule="evenodd" d="M 0.60791 3.48647L 2.39324 3.48647L 2.39324 0.514648L 0.60791 0.514648L 0.60791 3.48647ZM 2.39312 0C 2.72645 0 3 0.231551 3 0.514472L 3 3.48629C 3 3.77382 2.73913 4 2.39312 4L 0.606884 4C 0.26087 4 0 3.77382 0 3.48629L 0 0.514472C 0 0.231551 0.272645 0 0.606884 0L 2.39312 0Z"/>
<path id="path82_fill" fill-rule="evenodd" d="M 1.27081 3L 0 0L 0.469856 0L 1.32249 2.17975C 1.39139 2.35395 1.44785 2.51765 1.49474 2.67085C 1.54545 2.50715 1.60383 2.34345 1.67081 2.17975L 2.55694 0L 3 0L 1.71579 3L 1.27081 3Z"/>
<path id="path83_fill" fill-rule="evenodd" d="M 0.925049 1.76811L 2.01205 1.76811L 1.67715 0.937352C 1.57519 0.685236 1.49942 0.476891 1.44984 0.314941C 1.40868 0.50753 1.35162 0.698367 1.27678 0.888329L 0.925049 1.76811ZM 0 3L 1.23106 0L 1.68849 0L 3 3L 2.51731 3L 2.14312 2.09133L 0.802619 2.09133L 0.450889 3L 0 3Z"/>
<path id="path84_fill" fill-rule="evenodd" d="M 0 3L 0 0L 0.423167 0L 0.423167 2.64634L 2 2.64634L 2 3L 0 3Z"/>
<path id="path85_fill" fill-rule="evenodd" d="M 0 3L 0.453 3L 0.453 0L 0 0L 0 3Z"/>
<path id="path86_fill" fill-rule="evenodd" d="M 0.319824 2.64647L 0.836591 2.64647C 0.996139 2.64647 1.12109 2.62808 1.21146 2.59131C 1.30253 2.55453 1.37454 2.50199 1.4289 2.43544C 1.50443 2.34174 1.56374 2.21477 1.60609 2.0554C 1.64845 1.89691 1.66963 1.70427 1.66963 1.47747C 1.66963 1.16399 1.62798 0.922305 1.54538 0.754179C 1.46208 0.586053 1.36112 0.473093 1.24252 0.4153C 1.15639 0.374144 1.01802 0.354004 0.828119 0.354004L 0.319824 0.354004L 0.319824 2.64647ZM 0 3L 0 0L 0.833039 0C 1.02083 0 1.16484 0.0140105 1.26368 0.0429072C 1.40205 0.0823117 1.52065 0.15324 1.61878 0.257443C 1.74585 0.391419 1.84186 0.562172 1.90469 0.769702C 1.96823 0.978109 2 1.21629 2 1.48336C 2 1.71103 1.97812 1.91331 1.93505 2.08932C 1.89269 2.26532 1.83763 2.41156 1.77056 2.52627C 1.70349 2.64186 1.63007 2.73292 1.5503 2.7986C 1.47053 2.86515 1.37381 2.91506 1.26156 2.94921C 1.14861 2.98336 1.01871 3 0.872573 3L 0 3Z"/>
<path id="path87_fill" fill-rule="evenodd" d="M 0 3L 0 0L 2 0L 2 0.354537L 0.391869 0.354537L 0.391869 1.28334L 1.78374 1.28334L 1.78374 1.637L 0.391869 1.637L 0.391869 3L 0 3Z"/>
<path id="path88_fill" fill-rule="evenodd" d="M 0.449951 1.32405L 1.41849 1.32405C 1.62412 1.32405 1.78505 1.30566 1.90128 1.26713C 2.0175 1.23035 2.10591 1.16993 2.16551 1.08762C 2.22611 1.00531 2.2569 0.915118 2.2569 0.818796C 2.2569 0.676063 2.1983 0.559601 2.08108 0.468533C 1.96485 0.376589 1.78008 0.331055 1.52777 0.331055L 0.449951 0.331055L 0.449951 1.32405ZM 0 3L 0 0L 1.50894 0C 1.81192 0 2.04338 0.0262697 2.20132 0.0805604C 2.35828 0.133975 2.48444 0.229422 2.5798 0.366025C 2.67417 0.502627 2.72086 0.65324 2.72086 0.818739C 2.72086 1.03152 2.64238 1.21016 2.48642 1.35639C 2.33046 1.50263 2.08907 1.59545 1.76225 1.63485C 1.88146 1.68564 1.97185 1.73555 2.03344 1.78459C 2.16556 1.89054 2.28974 2.02364 2.40795 2.18389L 3 3L 2.43278 3L 1.98278 2.37566C 1.85066 2.19615 1.74238 2.05779 1.65795 1.96235C 1.57252 1.8669 1.49603 1.80035 1.42848 1.76182C 1.36093 1.72329 1.29338 1.69702 1.22285 1.68214C 1.17219 1.6725 1.08874 1.66813 0.972517 1.66813L 0.45 1.66813L 0.45 3L 0 3Z"/>
<path id="path89_fill" fill-rule="evenodd" d="M 0.42749 1.54461C 0.42749 1.89402 0.529108 2.16898 0.732342 2.37033C 0.935577 2.57168 1.19099 2.67151 1.49768 2.67151C 1.80985 2.67151 2.0671 2.56999 2.2685 2.36695C 2.47082 2.1639 2.57152 1.87625 2.57152 1.50316C 2.57152 1.26711 2.5285 1.06068 2.44244 0.884712C 2.35639 0.708739 2.23005 0.572529 2.06344 0.475236C 1.89682 0.37879 1.71098 0.330566 1.50408 0.330566C 1.21022 0.330566 0.957548 0.423629 0.745159 0.609754C 0.533685 0.796725 0.42749 1.10806 0.42749 1.54461L 0.42749 1.54461ZM 0 1.53892C 0 1.05753 0.139152 0.681049 0.419286 0.408629C 0.698505 0.13621 1.0592 0 1.50137 0C 1.79158 0 2.05249 0.0642978 2.28502 0.192047C 2.51755 0.319797 2.69515 0.498308 2.81691 0.726734C 2.93866 0.956007 3 1.21489 3 1.50508C 3 1.79949 2.93592 2.06176 2.80684 2.29442C 2.67867 2.52623 2.49649 2.7022 2.26121 2.82149C 2.02594 2.94078 1.77235 3 1.49954 3C 1.20476 3 0.940189 2.93401 0.707659 2.80288C 0.47513 2.6709 0.299359 2.49069 0.179432 2.26311C 0.0595056 2.03469 0 1.79357 0 1.53892L 0 1.53892Z"/>
<path id="path90_fill" fill-rule="evenodd" d="M 0 3L 0 0L 0.626606 0L 1.37064 2.1246C 1.43853 2.32156 1.48899 2.47038 1.52018 2.56843C 1.55596 2.459 1.61193 2.2988 1.68807 2.08696L 2.44037 0L 3 0L 3 3L 2.59908 3L 2.59908 0.489349L 1.68532 3L 1.31009 3L 0.400917 0.446455L 0.400917 3L 0 3Z"/>
<path id="path91_fill" fill-rule="evenodd" d="M 1.66382 0L 2 0L 2 1.70445C 2 2.00057 1.97106 2.23558 1.91391 2.41033C 1.85603 2.58508 1.75139 2.72712 1.6 2.83558C 1.44935 2.94577 1.25121 3 1.00631 3C 0.768089 3 0.572913 2.95265 0.421521 2.8571C 0.27013 2.76155 0.161781 2.62468 0.0972171 2.4439C 0.0326531 2.26313 0 2.01693 0 1.70445L 0 0L 0.33692 0L 0.33692 1.70273C 0.33692 1.95839 0.356957 2.14778 0.398516 2.26829C 0.439332 2.39053 0.509833 2.4835 0.610019 2.54978C 0.710204 2.61521 0.831911 2.64792 0.976623 2.64792C 1.22449 2.64792 1.40037 2.5825 1.50575 2.45251C 1.61113 2.32253 1.66382 2.07288 1.66382 1.70273L 1.66382 0Z"/>
<path id="path92_fill" fill-rule="evenodd" d="M 0 3L 0 0L 0.344444 0L 1.67778 2.3557L 1.67778 0L 2 0L 2 3L 1.65556 3L 0.322222 0.642545L 0.322222 3L 0 3Z"/>
<path id="path93_fill" fill-rule="evenodd" d="M 0.83137 3L 0.83137 0.354537L 0 0.354537L 0 0L 2 0L 2 0.354537L 1.16495 0.354537L 1.16495 3L 0.83137 3Z"/>
<path id="path94_fill" fill-rule="evenodd" d="M 0 3L 0 0L 1.93821 0L 1.93821 0.354537L 0.354321 0.354537L 0.354321 1.27283L 1.83731 1.27283L 1.83731 1.62474L 0.354321 1.62474L 0.354321 2.64634L 2 2.64634L 2 3L 0 3Z"/>
<path id="path95_fill" fill-rule="evenodd" d="M 0.319824 2.64647L 0.836591 2.64647C 0.995433 2.64647 1.12109 2.62808 1.21146 2.59131C 1.30253 2.55453 1.37454 2.50199 1.4289 2.43544C 1.50443 2.34174 1.56374 2.21477 1.60609 2.0554C 1.64845 1.89691 1.66963 1.70427 1.66963 1.47747C 1.66963 1.16399 1.62798 0.922305 1.54467 0.754179C 1.46208 0.586053 1.36112 0.473093 1.24252 0.4153C 1.15639 0.374144 1.01802 0.354004 0.828119 0.354004L 0.319824 0.354004L 0.319824 2.64647ZM 0 3L 0 0L 0.833039 0C 1.02083 0 1.16484 0.0140105 1.26368 0.0429072C 1.40205 0.0823117 1.52065 0.15324 1.61878 0.257443C 1.74585 0.391419 1.84186 0.562172 1.90469 0.769702C 1.96823 0.978109 2 1.21629 2 1.48336C 2 1.71103 1.97812 1.91331 1.93505 2.08932C 1.89269 2.26532 1.83763 2.41156 1.77056 2.52627C 1.70279 2.64186 1.63007 2.73292 1.54959 2.7986C 1.47053 2.86515 1.37381 2.91506 1.26085 2.94921C 1.14861 2.98336 1.01871 3 0.872573 3L 0 3Z"/>
<path id="path96_fill" fill-rule="evenodd" d="M 1.20756 10.0087C 1.20756 11.7051 0 11.7402 0 12.3609C 0 12.7064 0.306215 12.9858 0.684227 12.9858C 0.86588 12.9858 1.18421 12.8427 1.18421 12.8427C 2.04144 12.1451 2.59591 11.1354 2.59591 10.0087C 2.59591 8.89443 2.05355 7.86552 1.1868 7.1545C 1.1868 7.1545 0.59513 6.69274 0.160028 7.24484C -0.167813 7.66058 0.196358 8.05374 0.398772 8.24948C 0.878855 8.7129 1.20756 9.32774 1.20756 10.0087L 1.20756 10.0087ZM 4.70836 10.0087C 4.70836 11.6382 3.96877 13.0929 2.79062 14.1318L 2.80014 14.1385C 2.71363 14.2431 2.6626 14.3736 2.6626 14.5141C 2.6626 14.8587 2.96968 15.139 3.34769 15.139C 3.53367 15.139 3.70235 15.0712 3.82604 14.9616L 3.83296 14.9675C 5.22823 13.6985 6.09671 11.9427 6.09671 9.99113C 6.09671 8.0496 5.22823 6.29796 3.83383 5.03065L 3.82518 5.03818C 3.70148 4.9286 3.53367 4.86084 3.34769 4.86084C 2.96968 4.86084 2.6626 5.14107 2.6626 5.48655C 2.6626 5.62708 2.71363 5.75674 2.79927 5.86046L 2.79321 5.86632C 3.97915 6.91781 4.70836 8.39005 4.70836 10.0087L 4.70836 10.0087ZM 5.81197 3.61388C 8.78676 6.49062 8.58867 9.96462 8.58867 9.96462C 8.58867 13.002 7.14842 15.0723 5.80073 16.3948C 5.65022 16.5094 5.5542 16.6826 5.5542 16.875C 5.5542 17.2205 5.86128 17.4999 6.23929 17.4999C 6.43738 17.4999 6.61557 17.4237 6.741 17.3008C 6.741 17.3008 9.97702 14.5813 9.97702 10.0173C 9.97702 5.34879 6.74013 2.69958 6.74013 2.69958C 6.61557 2.57661 6.43738 2.50049 6.23929 2.50049C 5.86128 2.50049 5.5542 2.77988 5.5542 3.12536C 5.5542 3.32277 5.65454 3.49928 5.81197 3.61388L 5.81197 3.61388ZM 8.74453 1.0908C 12.6362 4.77812 12.6025 9.40985 12.6025 10.0004C 12.6025 10.0004 12.9857 14.715 8.74799 18.9117C 8.62083 19.0372 8.52222 19.1911 8.52222 19.3751C 8.52222 19.7206 8.82843 20 9.20731 20C 9.44 20 9.77908 19.739 9.77908 19.739C 14.3853 15.2219 13.9917 10.0004 13.9917 10.0004C 13.9917 4.01522 9.81282 0.268518 9.81282 0.268518C 9.68912 0.106236 9.44 0 9.20731 0C 8.82843 0 8.52222 0.280229 8.52222 0.624869C 8.52222 0.8089 8.60872 0.974528 8.74712 1.08829L 8.74453 1.0908Z"/>
<path id="path97_fill" fill-rule="evenodd" d="M 2.46085 10L 0 10L 1.53915 0L 4 0L 2.46085 10Z"/>
<path id="path98_fill" fill-rule="evenodd" d="M 8 0.412081C 7.47366 0.21597 6.63963 0 5.60811 0C 2.97465 0 1.11968 1.31816 1.10822 3.20232C 1.08706 4.59247 2.43597 5.36533 3.44545 5.82871C 4.47785 6.30203 4.82786 6.6115 4.82786 7.03351C 4.81816 7.68225 3.99471 7.98097 3.2268 7.98097C 2.16178 7.98097 1.59136 7.82706 0.724708 7.46628L 0.373815 7.31154L 0 9.48448C 0.625964 9.75176 1.77827 9.98924 2.97465 10C 5.77298 10 7.59445 8.7017 7.6156 6.69425C 7.62707 5.59206 6.91382 4.74803 5.37712 4.05792C 4.44435 3.6144 3.87393 3.31568 3.87393 2.86305C 3.88451 2.45097 4.35706 2.02896 5.40974 2.02896C 6.27639 2.00827 6.91382 2.20356 7.39608 2.39967L 7.63765 2.50228L 8 0.412081Z"/>
<path id="path99_fill" fill-rule="evenodd" d="M 6.97678 0L 5.03648 0C 4.43864 0 3.98425 0.180373 3.72554 0.830056L 0 10L 2.63184 10C 2.63184 10 3.06551 8.7656 3.15837 8.49974L 6.37894 8.49974C 6.45108 8.85109 6.67828 10 6.67828 10L 9 10L 6.97678 0ZM 3.88062 6.45749C 4.08708 5.88303 4.88227 3.65958 4.88227 3.65958C 4.87149 3.68095 5.08791 3.07401 5.21229 2.70215L 5.38725 3.56383C 5.38725 3.56383 5.86237 5.95741 5.96519 6.45749L 3.88062 6.45749Z"/>
<path id="path100_fill" fill-rule="evenodd" d="M 6.30093 0L 3.80182 6.82612L 3.52845 5.44155C 3.06609 3.84477 1.61742 2.10851 0 1.24594L 2.28902 10L 4.98809 10L 9 0L 6.30093 0Z"/>
<path id="path101_fill" fill-rule="evenodd" d="M 4.01689 0L 0.0400381 0L 0 0.185535C 3.10173 0.948899 5.15593 2.78852 6 5L 5.1355 0.772799C 4.99333 0.185535 4.55618 0.0196541 4.01689 0"/>
<path id="path102_fill" fill-rule="evenodd" d="M 36.1252 11.5256C 30.6246 7.5055 16.9688 1.76013 16.9688 1.76013C 6.34664 -3.50746 1.03429 4.72702 1.03429 4.72702C -3.1391 13.9239 6.66522 21.6712 6.66522 21.6712L 17.4732 28.3094C 21.2053 30.6135 31.0961 34.0267 31.0961 34.0267C 42.8573 38.8157 53.255 48.9325 53.255 48.9325C 56.4803 52.5689 60.2098 56.3387 60.2098 56.3387C 67.1352 62.1383 77.3287 64.2489 83 65C 79.7176 49.3245 66.4132 26.4924 62.3852 19.8161C 54.2662 21.8274 36.1252 11.5256 36.1252 11.5256Z"/>
<path id="path103_fill" fill-rule="evenodd" d="M 12.9485 3.27587C 12.8582 3.20602 12.7729 3.131 12.6677 3.07494L 7.97341 0.386095C 6.5257 -0.442636 4.71026 0.106689 3.91269 1.61324L 0.370439 8.31984C -0.425471 9.82639 0.103755 11.721 1.54981 12.5515L 6.24493 15.2351C 6.49836 15.3826 6.76339 15.4706 7.03173 15.5344C 7.51789 15.7224 12.2163 17.4066 14.7871 12.9361C 14.7871 12.9361 18.4933 7.08752 12.9485 3.27587"/>
<path id="path104_fill" fill-rule="evenodd" d="M 3.25207 6.3323C 1.93697 9.63939 0.53259 12.1738 0.118806 11.9907C -0.301187 11.8099 0.427785 8.97585 1.74677 5.6712C 3.05876 2.35841 4.46625 -0.176048 4.88236 0.0095794C 5.30002 0.19195 4.57028 3.02032 3.25207 6.3323"/>
<path id="path105_fill" fill-rule="evenodd" d="M 3.25409 6.33049C 1.94081 9.63654 0.5336 12.1716 0.11757 11.9909C -0.300012 11.8077 0.430369 8.98119 1.74443 5.66863C 3.06083 2.36258 4.46726 -0.170896 4.88251 0.00901921C 5.30009 0.190563 4.56893 3.0163 3.25409 6.33049"/>
<path id="path106_fill" fill-rule="evenodd" d="M 2.60628 5.27634C 1.55231 8.03323 0.427237 10.1474 0.0932295 9.99195C -0.23918 9.84262 0.345733 7.48133 1.3957 4.72706C 2.45046 1.96756 3.57074 -0.146604 3.90475 0.00796329C 4.24115 0.160784 3.65784 2.52033 2.60628 5.27634"/>
<path id="path107_fill" fill-rule="evenodd" d="M 3.06624 73C 3.06624 73 57.6627 65.5108 63.3453 66.2621C 69.0279 67.0134 79.1432 64.5184 83.8013 60.4129C 88.4593 56.3074 102.374 47.3713 107.426 42.8181C 112.476 38.2641 113.488 34.3989 120.268 30.4351C 127.048 26.4712 133.134 24.8043 136.864 23.714C 140.595 22.6246 149.684 17.3825 153.931 13.4448C 158.178 9.50715 157.518 3.78276 154.968 1.41762C 152.417 -0.946681 142.621 -0.0200179 136.825 1.76923C 131.028 3.55763 127.531 3.92863 123.829 5.43878C 120.126 6.94892 102.478 17.1161 98.5265 15.8285C 94.5749 14.541 77.5371 11.8613 69.2111 20.714C 52.981 37.9706 8.60286 26.5631 0 26.5395L 3.06624 73Z"/>
<path id="path108_fill" fill-rule="evenodd" d="M 0.0263401 4.93925C 0.0263401 4.93925 1.29729 13.3643 3.2406 13.8301C 5.18305 14.2967 15.7597 14.1869 18.1524 8.3362C 20.5451 2.48466 17.6765 -0.405175 12.0052 0.045769C 6.33394 0.496713 -0.477067 2.25506 0.0263401 4.93925"/>
<path id="path109_fill" fill-rule="evenodd" d="M 3.53643 11C 3.53643 11 6.30514 9.3634 5.97221 5.88573C 5.6384 2.40806 3.21244 -0.744557 0.607071 0.155443C 0.607071 0.155443 -0.51844 0.161559 0.295569 3.14204C 1.11047 6.12165 1.12207 9.91388 3.53643 11"/>
<path id="path110_fill" fill-rule="evenodd" d="M 15.8538 5.35851C 15.8538 5.35851 15.4284 9.60017 12.9888 11.0968C 10.55 12.5926 7.70956 14.7225 0 13.7579C 0 13.7579 13.8716 13.8003 14.7265 6.26775C 14.7265 6.26775 15.7946 1.34958 13.1106 0C 13.1106 0 16.7662 1.11254 15.8538 5.35851"/>
<path id="path111_fill" fill-rule="evenodd" d="M 24 72L 0 68.3356L 0 0L 24 3.66355L 24 72Z"/>
<path id="path112_fill" fill-rule="evenodd" d="M 77 88L 0 79.0238L 0 0L 77 8.97705L 77 88Z"/>
</defs>
</svg>
