<?xml version="1.0" encoding="UTF-8"?>
<svg width="527px" height="598px" viewBox="0 0 527 598" version="1.1" xmlns="http://www.w3.org/2000/svg" xmlns:xlink="http://www.w3.org/1999/xlink">
    <!-- Generator: Sketch 47.1 (45422) - http://www.bohemiancoding.com/sketch -->
    <title>hand_base@2x</title>
    <desc>Created with Sketch.</desc>
    <defs>
        <polygon id="path-1" points="0.0280794433 155.1 327.194633 155.1 327.194633 0.00255960707 0.0280794433 0.00255960707 0.0280794433 155.1"></polygon>
        <polygon id="path-3" points="0.205072505 95.7 101.405237 95.7 101.405237 0.250049234 0.205072505 0.250049234"></polygon>
        <path d="M0.230189722,0.307762279 C0.245000857,0.212081729 0.25857773,0.162108448 0.271537473,0.162108448 C0.278943041,0.162108448 0.286348608,0.181000786 0.292519914,0.218785462 C0.270303212,0.247428684 0.251789293,0.278509627 0.230189722,0.307762279 Z" id="path-5"></path>
        <path d="M0.280177302,0.0816636542 C0.286348608,0.0895862475 0.290051392,0.0749599214 0.291902784,0.0426601179 C0.286965739,0.054848723 0.285114347,0.0688656189 0.280177302,0.0816636542 Z" id="path-7"></path>
    </defs>
    <g id="Design" stroke="none" stroke-width="1" fill="none" fill-rule="evenodd">
        <g id="Desktop-HD-Copy-7" transform="translate(-770.000000, -1699.000000)">
            <g id="hand_base" transform="translate(770.000000, 1699.100000)">
                <g id="Group-37" transform="translate(0.000000, 0.018283)">
                    <g id="Group-3" transform="translate(248.703640, 442.446365)">
                        <mask id="mask-2" fill="white">
                            <use xlink:href="#path-1"></use>
                        </mask>
                        <g id="Clip-2"></g>
                        <path d="M188.608386,0.139681415 C188.608386,0.139681415 446.311642,450.700611 446.499867,451.23569 L227.064881,541.783619 L0.0280794433,0.00255960707 L188.608386,0.139681415 Z" id="Fill-1" fill="#F2AB72" mask="url(#mask-2)"></path>
                    </g>
                    <g id="Group-6" transform="translate(272.771734, 498.513949)">
                        <mask id="mask-4" fill="white">
                            <use xlink:href="#path-3"></use>
                        </mask>
                        <g id="Clip-5"></g>
                        <polygon id="Fill-4" fill="#FFC392" mask="url(#mask-4)" points="9.05349135 4.0723958 0.205072505 0.250049234 96.9816451 232.891517 101.405237 232.345468"></polygon>
                    </g>
                    <path d="M204.168039,403.427167 C255.280648,518.423609 297.999664,509.798342 320.535423,502.586345 C320.535423,502.586345 339.891108,496.033141 338.127348,481.727985 C356.310485,463.802203 387.405846,442.280174 425.797541,452.137099 C459.014597,384.30934 364.478209,156.909581 364.478209,156.909581 C364.478209,156.909581 171.424939,222.494637 153.124548,232.287572 C100.993056,247.031518 204.168039,403.427167 204.168039,403.427167" id="Fill-17" fill="#F2AB72"></path>
                    <path d="M304.93325,49.5489956 C304.93325,49.5489956 428.855547,181.374245 405.699572,237.246201 C382.544214,293.118157 315.558388,276.498385 315.558388,276.498385 L304.93325,49.5489956 Z" id="Fill-19" fill="#FFB479"></path>
                    <path d="M243.54955,0.399420589 C243.54955,0.399420589 388.069816,159.461936 364.914458,215.333892 C341.758483,271.206458 312.65522,290.28711 312.65522,290.28711 L243.54955,0.399420589 Z" id="Fill-21" fill="#F2AB72"></path>
                    <path d="M315.297897,546.409987 L300.438626,552.701745 C290.322004,528.388525 282.834975,503.489033 282.834975,503.489033 C282.834975,503.489033 309.61289,514.126638 329.375881,497.617782 C318.137932,510.438975 315.060302,529.565335 315.297897,546.409987" id="Fill-23" fill="#D09364"></path>
                    <path d="M43.1701383,119.235944 C59.5327396,127.965423 101.758051,123.863957 111.089066,130.670683 L123.149033,139.791417 C132.47943,146.600581 136.126672,166.993946 126.232834,179.854752 C116.338379,192.717387 100.752128,197.622691 91.4217302,190.813527 L42.1475529,154.854095 C32.8183893,148.043102 33.275066,132.097969 43.1701383,119.235944" id="Fill-25" fill="#A87B45"></path>
                    <path d="M8.51288493,123.229967 C15.4864609,108.770624 32.6482464,101.393471 46.8471877,106.75402 L121.822387,135.069368 C136.018243,140.430526 141.876046,156.498155 134.90247,170.957497 C127.930129,185.418058 110.766492,192.794602 96.5706361,187.433444 L21.5942027,159.119924 C7.39649563,153.756938 1.53930891,137.689309 8.51288493,123.229967" id="Fill-27" fill="#F2AB72"></path>
                    <path d="M95.4556851,184.132734 C91.141942,184.523989 90.6303407,187.758844 79.4232487,183.846912 L25.9340692,159.741507 L95.4556851,184.132734 Z" id="Fill-29" fill="#D09364"></path>
                    <path d="M1.50629242,282.636749 C6.5766376,297.755495 23.7908791,304.286759 39.9547644,297.227119 L127.264553,259.090193 C143.429673,252.027505 152.4225,234.050532 147.354006,218.931176 C142.283044,203.815478 125.068185,197.281776 108.904917,204.343244 L21.5938941,242.478343 C5.42877465,249.54103 -3.56343563,267.518004 1.50629242,282.636749" id="Fill-33" fill="#F2AB72"></path>
                    <path d="M51.2639299,271.241308 C58.6522176,285.120472 90.8349624,276.419027 106.955031,269.600112 L132.275284,248.828901 C147.415966,239.342509 153.698973,220.404464 146.314388,206.523471 C138.926717,192.645525 120.666439,189.079749 105.528225,198.564312 L23.7571838,249.787534 C8.61896968,259.272098 40.9578485,249.19334 48.3430506,263.074942 L51.2639299,271.241308 Z" id="Fill-31" fill="#E99962" opacity="0.5" transform="translate(84.590321, 235.941257) rotate(7.000000) translate(-84.590321, -235.941257) "></path>
                </g>
                <path d="M50.492041,292.731592 C59.6379395,258.076758 48.8366746,230.724251 47.7943409,231.127085 C51.0034202,227.840427 128.705102,195.561954 128.705102,195.561954 C144.867753,188.500486 162.083229,195.033578 167.154191,210.149277 C170.404618,219.846531 167.864509,230.71511 161.363655,239.130123 C161.361803,237.476739 161.219863,235.819088 160.911298,234.172408 C157.970671,218.516145 81.3484375,281.425439 50.492041,292.731592 Z" id="Fill-35" fill-opacity="0.5" fill="#D09364"></path>
                <path d="M132.226407,381.212642 L123.866755,416.282915 C123.216917,418.056357 126.190252,423.007978 129.240112,427.410502 L129.240112,427.410502 C134.24319,434.632251 144.302419,436.658606 151.576537,431.663716 L151.576537,431.663716 C157.849053,427.356263 164.098735,421.096805 165.968024,416.001968 L165.968024,416.001968 L174.485043,384.902132 C177.963191,375.426101 169.111687,376.805851 158.229823,372.269253 L158.229823,372.269253 C155.186134,371.001028 152.083819,370.400739 149.117272,370.400739 L149.117272,370.400739 C141.473492,370.400739 134.730723,374.387023 132.226407,381.212642" id="Fill-38" fill="#F2AB72"></path>
                <g id="Group-48" transform="translate(123.426124, 309.608853)">
                    <path d="M14.9647387,90.5210526 L12.2166561,99.7417324 C11.7038205,101.462763 10.1190291,102.246491 8.40340595,102.486606 C6.49462094,102.752927 2.45673529,103.902313 0.0314119486,106.223633 C0.412181542,105.826284 3.09916827,90.3881968 5.37699739,83.6338813 C5.57941623,83.0354208 6.2237006,82.7416754 6.78220381,82.9958078 L12.8813057,85.7748098 C14.635191,86.5737728 15.5318818,88.6171925 14.9647387,90.5210526" id="Fill-40" fill="#D09364"></path>
                    <path d="M15.7783637,89.3021921 L12.8809355,98.5228719 C12.3397119,100.243903 10.6685222,101.02763 8.85971233,101.267746 C6.84724938,101.534067 2.58904809,102.683452 0.0310416702,105.004772 C0.433410835,104.607424 3.26665752,89.1693363 5.66852989,82.4150208 C5.88143996,81.8165603 6.5615179,81.5228149 7.15026051,81.7769473 L13.5813787,84.5559493 C15.4309192,85.3549123 16.3763633,87.398332 15.7783637,89.3021921" id="Fill-42" fill="#FFE5C7"></path>
                    <path d="M4.24814206,85.9592234 L11.551883,67.7756528 C13.1101378,60.9006701 23.1181451,57.7694175 33.9062054,60.7818312 C44.6924144,63.7954639 52.589835,62.610122 51.030963,69.4857141 L48.5772517,91.9889263 C47.7404226,95.6857303 47.3522474,92.7184143 42.375089,105.415284 C34.0796191,98.8620807 16.6907296,97.0179448 2.17458317,98.6560933 C0.0714020128,96.2013083 3.95747353,87.2457306 4.24814206,85.9592234" id="Fill-44" fill-opacity="0.5" fill="#D09364"></path>
                    <polygon id="Fill-46" fill="#D09364" points="218.118523 0.0194408251 180.438996 148.689952 139.043725 89.6453013 162.543442 0.0194408251"></polygon>
                </g>
                <g id="Group-51" transform="translate(351.764454, 65.227320)">
                    <mask id="mask-6" fill="white">
                        <use xlink:href="#path-5"></use>
                    </mask>
                    <g id="Clip-50"></g>
                    <path d="M0.230189722,0.307762279 C0.251789293,0.278509627 0.270303212,0.247428684 0.292519914,0.218785462 L0.292519914,0.218785462 C0.286348608,0.181000786 0.278943041,0.162108448 0.271537473,0.162108448 L0.271537473,0.162108448 C0.25857773,0.162108448 0.245000857,0.212081729 0.230189722,0.307762279" id="Fill-49" mask="url(#mask-6)"></path>
                </g>
                <g id="Group-54" transform="translate(343.124625, 236.477222)">
                    <mask id="mask-8" fill="white">
                        <use xlink:href="#path-7"></use>
                    </mask>
                    <g id="Clip-53"></g>
                    <path d="M0.280177302,0.0816636542 C0.286348608,0.0895862475 0.290051392,0.0749599214 0.291902784,0.0426601179 L0.291902784,0.0426601179 C0.286965739,0.054848723 0.285114347,0.0688656189 0.280177302,0.0816636542" id="Fill-52" mask="url(#mask-8)"></path>
                </g>
            </g>
        </g>
    </g>
</svg>