<?xml version="1.0" encoding="UTF-8"?>
<svg width="364px" height="295px" viewBox="0 0 364 295" version="1.1" xmlns="http://www.w3.org/2000/svg" xmlns:xlink="http://www.w3.org/1999/xlink">
    <!-- Generator: Sketch 47 (45396) - http://www.bohemiancoding.com/sketch -->
    <title>Thumbs up arm</title>
    <desc>Created with Sketch.</desc>
    <defs>
        <rect id="path-1" x="0" y="0" width="439" height="319"></rect>
        <polygon id="path-3" points="2.9558688e-05 0.554866667 2.9558688e-05 165 509 165 509 0.554866667 256.908929 0.554866667 256.908929 148.932307 -9.33111943e-05 148.932307 -9.33111943e-05 0.554253583 256.908929 0.554253583"></polygon>
        <polygon id="path-5" points="0 150 0 1 195 1 195 150"></polygon>
        <polygon id="path-7" points="0 166 387 166 387 1 0 1"></polygon>
    </defs>
    <g id="Design" stroke="none" stroke-width="1" fill="none" fill-rule="evenodd">
        <g id="Desktop-HD-Copy-7" transform="translate(-1076.000000, -1169.000000)">
            <g id="Thumbs-up-arm" transform="translate(1050.000000, 1145.000000)">
                <mask id="mask-2" fill="white">
                    <use xlink:href="#path-1"></use>
                </mask>
                <g id="Mask"></g>
                <g id="Page-1" mask="url(#mask-2)">
                    <g transform="translate(252.647221, 206.669814) rotate(36.000000) translate(-252.647221, -206.669814) translate(-1.852779, 124.169814)">
                        <g id="Group-3" stroke="none" stroke-width="1" fill="none" fill-rule="evenodd">
                            <mask id="mask-4" fill="white">
                                <use xlink:href="#path-3"></use>
                            </mask>
                            <g id="Clip-2"></g>
                            <path d="M139.066976,82.3367956 C139.066976,82.3367956 122.621319,82.3367956 116.550947,83.6020844 C116.550947,83.6020844 107.358776,83.9396178 101.118861,77.0192622 C101.118861,77.0192622 88.92099,62.9645956 83.59329,57.0937289 C79.9131043,51.64524 65.28819,28.7353956 66.5468614,10.6616844 C66.5468614,10.6616844 67.9769186,-0.853182222 56.4295757,0.697995556 C56.4295757,0.697995556 40.4133043,7.28819556 47.8510757,34.5029733 C47.8510757,34.5029733 52.2352329,51.1029733 49.1042186,62.3946622 C47.2374043,62.36884 45.3687471,62.3005956 43.4982471,62.1585733 C39.2062329,62.4297067 25.23369,63.3574622 22.5597043,64.1044622 C22.5597043,64.1044622 11.43069,65.5597289 9.72420429,67.1441067 C9.72420429,67.1441067 7.82790429,68.41124 5.73994714,69.1693067 C5.73994714,69.1693067 -0.839052857,72.3767956 0.0897471429,80.5642844 C0.0897471429,80.5642844 -0.335952857,86.3023511 7.93294714,89.5135289 C7.93294714,89.5135289 3.65014714,94.9325067 4.47390429,100.818129 C4.47390429,100.818129 4.98069,108.352684 14.65569,110.506996 C14.65569,110.506996 9.95456143,115.000062 11.7255471,123.102707 C11.7255471,123.102707 13.3288329,129.519529 18.9827186,130.699973 C18.9827186,130.699973 15.6066043,137.114951 19.8212186,143.275396 C19.8212186,143.275396 24.7987757,148.594773 31.2082329,147.412484 L44.8693329,144.964907 C44.8693329,144.964907 51.7855757,146.739262 54.6512186,146.062351 L71.3493471,147.665173 C71.3493471,147.665173 84.4225757,149.057729 90.6219471,148.297818 C90.6219471,148.297818 98.9682471,147.539751 101.878119,148.425084 C101.878119,148.425084 109.719476,149.692218 114.275019,146.399884 C114.275019,146.399884 120.852176,144.245573 130.718833,145.769084 L194.724947,148.932307 L195.104576,82.3367956 L139.066976,82.3367956 Z" id="Fill-1" fill="#FDD4A6" mask="url(#mask-4)"></path>
                        </g>
                        <mask id="mask-6" fill="white">
                            <use xlink:href="#path-5"></use>
                        </mask>
                        <g id="Clip-2" stroke="none" fill="none"></g>
                        <path d="M138.992463,83.1241857 C138.992463,83.1241857 122.555628,83.1241857 116.488514,84.3947651 C116.488514,84.3947651 107.301274,84.7337097 101.064707,77.7844186 C101.064707,77.7844186 88.8733793,63.6709862 83.5485374,57.7755721 C79.8703261,52.3043018 65.2532577,29.2986661 66.5112539,11.1493847 C66.5112539,11.1493847 67.9405438,-0.411776113 56.3993958,1.14403534 C56.3993958,1.14403534 40.3917168,7.76179046 47.825498,35.0903594 C47.825498,35.0903594 52.2073032,51.7597678 49.0779686,63.100522 C47.2121558,63.0727396 45.3445011,63.0042098 43.4750046,62.8615938 C39.1852929,63.1338608 25.220246,64.0654955 22.5476948,64.8156189 C22.5476948,64.8156189 11.424651,66.2769703 9.71908074,67.8679728 C9.71908074,67.8679728 7.82379806,69.1404043 5.73696106,69.9016406 C5.73696106,69.9016406 -0.838509464,73.1225407 0.0897922568,81.3442634 C0.0897922568,81.3442634 -0.335679365,87.1063222 7.92878457,90.3309266 C7.92878457,90.3309266 3.64828219,95.7725624 4.4715974,101.684646 C4.4715974,101.684646 4.97811124,109.248853 14.6479208,111.412172 C14.6479208,111.412172 9.9493143,115.924025 11.7193499,124.060548 C11.7193499,124.060548 13.3217755,130.504201 18.9726281,131.689581 C18.9726281,131.689581 15.598325,138.131381 19.8106782,144.317584 C19.8106782,144.317584 24.785565,149.659203 31.1915836,148.471971 L44.8453548,146.014159 C44.8453548,146.014159 51.7578872,147.795934 54.6219928,147.116192 L71.3111632,148.725716 C71.3111632,148.725716 84.3773783,150.124094 90.5734239,149.361006 C90.5734239,149.361006 98.9152463,148.59977 101.823557,149.488805 C101.823557,149.488805 109.660707,150.761236 114.213806,147.455137 C114.213806,147.455137 120.787435,145.29367 130.648799,146.821699 L194.620575,150 L195,83.1241857 L138.992463,83.1241857 Z" id="Fill-1" stroke="none" fill="#FDD4A6" fill-rule="evenodd"></path>
                        <path d="M62.9951081,63.2241499 C62.9951081,63.2241499 57.7014749,63.6536117 54.5455489,62 C53.1277758,63.6389293 51.2570519,64.9291502 49.0714718,65.4797424 C48.1324273,67.7683704 46.5673531,72.5585221 47.1123672,78.2149387 L47.3241125,83.4455641 C47.3241125,83.4455641 49.4084231,87.7897361 47.8304601,90.3738486 C47.8304601,90.3738486 57.1398895,89.0505921 58.9075026,97.1112612 C58.9075026,97.1112612 60.3418471,102.567629 57.6443957,105.091177 C57.6443957,105.091177 67.6700767,104.166182 67.5448708,115 C67.5448708,115 71.965745,106.939331 65.396116,98.7501905 C65.396116,98.7501905 49.7251204,75.8235335 62.9951081,63.2241499 Z" id="Fill-4" stroke="none" fill="#F0BC87" fill-rule="evenodd"></path>
                        <path d="M25.5150767,75.2454815 C25.5150767,75.2454815 46.127863,75.9145308 48.2312461,85 L50,80.2063719 L49.0733347,74.7400184 L47.9793549,71.1190646 C47.9793549,71.1190646 46.8026371,75.3263556 46.3797542,78.1863576 C46.3797542,78.1863576 45.9605484,80.3736342 43.6071128,77.429082 C43.6071128,77.429082 34.7706976,75.4936179 35.6109477,67 C35.6109477,67 33.2556735,75.9145308 27.3665686,71.5418156 C27.3665686,71.5418156 22.8214961,66.496375 15,68.0109262 C15,68.0109262 23.6654234,72.2990912 25.5150767,75.2454815 Z" id="Fill-6" stroke="none" fill="#F0BC87" fill-rule="evenodd"></path>
                        <path d="M0.279670563,81.9551722 C0.279670563,81.9551722 0.850983302,86.8298444 7.83061304,89.3955572 L18.5524337,94.517878 C18.5524337,94.517878 23.43725,96.9543037 29.6588273,95.5794895 C29.6588273,95.5794895 47.1088261,95.9746348 48,90.3315234 C48,90.3315234 46.6003762,96.10028 29.1707154,92.4347159 C29.1707154,92.4347159 15.3778577,95.4338138 15.634856,81.8513783 C15.634856,81.8513783 18.0033078,77.5994695 10.3044527,75.933304 C10.3044527,75.933304 3.11034954,72.433446 0.784422595,74.8516622 C0.784422595,74.8516622 -0.568978457,77.6431722 0.279670563,81.9551722" id="Fill-8" stroke="none" fill="#F0BC87" fill-rule="evenodd"></path>
                        <path d="M14.8833938,110.636359 L29.7703134,112.585138 C29.7703134,112.585138 36.8649476,114.150011 42.1840776,111.201249 C42.1840776,111.201249 56.7941514,105.577944 58.041803,105.3476 C58.041803,105.3476 61.1683145,103.128259 59.5201594,97.5250632 C57.8738499,91.9182108 59.307911,97.3989228 59.307911,97.3989228 C59.307911,97.3989228 61.8013685,105.261679 47.7800533,104.844867 C47.7800533,104.844867 38.8711566,111.956264 36.2521956,107.51941 C36.2521956,107.51941 33.1256841,111.702155 30.0877633,108.276253 C30.0877633,108.276253 10.6587274,110.740562 5,101.982026 C5,101.982026 6.01694678,108.50294 14.8833938,110.636359 Z" id="Fill-10" stroke="none" fill="#F0BC87" fill-rule="evenodd"></path>
                        <path d="M12,124.026006 C12,124.026006 13.6857914,130.281379 19.5934392,131.717825 C19.5934392,131.717825 25.3369343,133.06934 37.4879125,129.856723 C37.4879125,129.856723 43.5025361,128.294726 47.4274422,128.484898 C47.4274422,128.484898 66.9228641,126.453932 68,116 C68,116 64.2447797,127.323555 45.9297806,122.506474 C45.9297806,122.506474 44.9171991,125.887108 31.7499506,127.744519 C31.7499506,127.744519 16.8083789,130.362618 12,124.026006" id="Fill-12" stroke="none" fill="#F0BC87" fill-rule="evenodd"></path>
                        <path d="M59.5271195,124.569453 C59.5271195,124.569453 62.1404066,133.105183 52.4478553,139.106608 C52.4478553,139.106608 29.9466977,149.083122 20,143.083544 C20,143.083544 23.7311627,147.729153 30.1161286,147.793804 L45.2231015,145.194849 C45.2231015,145.194849 52.996664,146.90532 54.9580106,146.20894 C54.9580106,146.20894 83.21061,150.267152 92.9436774,148.109669 C92.9436774,148.109669 101.350764,147.919411 102.23291,148.490184 C102.23291,148.490184 109.884924,149.127454 114.560848,146.463848 C114.560848,146.463848 120.96423,144.348849 131.330822,145.954032 L195,149 L194.915285,134.29106 C194.915285,134.29106 124.168684,149.164397 114.052555,114 C114.052555,114 123.157623,141.729576 98.7153772,142.573728 C98.7153772,142.573728 60.1182859,140.037577 66.6929407,119.412181 L59.5271195,124.569453 Z" id="Fill-14" stroke="none" fill="#F0BC87" fill-rule="evenodd"></path>
                        <path d="M65.0837646,99 C65.0837646,99 84,125.932203 103,119.898305 C103,119.898305 90.5008626,126.792844 73.6659958,115.589454 C73.6659958,115.589454 68.084723,111.798493 65.4170021,123 L65.4170021,120.587571 L65.4170021,119.205273 C65.4170021,119.205273 69.3339084,114.295669 65,107.403013 L65.0837646,99 Z" id="Fill-16" stroke="none" fill="#F0BC87" fill-rule="evenodd"></path>
                        <path d="M45.9207007,81.2605646 C45.9207007,81.2605646 49.7711364,85.2328378 48.0282097,90.4673459 C48.0282097,90.4673459 56.9195539,89.0581259 59.2167946,97.2139636 C59.2167946,97.2139636 60.4109877,101.753967 57.9426166,105.202606 C57.9426166,105.202606 65.773696,104.528311 67.5631255,111.421914 C67.5631255,111.421914 70.1152017,117.982963 59.4734903,124.371304 C59.4734903,124.371304 62.6245232,132.778854 51.8154015,139 C51.8154015,139 64.4102325,134.041089 62.2841223,125.128278 C62.2841223,125.128278 77.0106438,116.509437 65.773696,103.773175 L63.307185,100.743444 C63.307185,100.743444 59.2167946,88.8909303 53.6011108,85.3577752 C53.6011108,85.3577752 50.876044,82.4989143 53.4299803,73 C53.4299803,73 51.0471745,82.4162352 45.0910899,79.1384667 C45.0910899,79.1384667 39.6409562,74.0068482 25,74.9346918 C25,74.9346918 41.1309075,75.5869384 45.9207007,81.2605646 Z" id="Fill-18" stroke="none" fill="#CD986A" fill-rule="evenodd"></path>
                        <path d="M30,147.974276 L45.1087004,145.44804 C45.1087004,145.44804 53.3878188,147.089106 54.8447226,146.433757 C54.8447226,146.433757 82.9311023,150.128848 89,148.65117 C89,148.65117 49.2178691,148.035322 60.720226,133 L57.8156276,134.847546 C57.8156276,134.847546 55.8522149,139.284168 44.7882184,142.119226 L30,147.974276 Z" id="Fill-20" stroke="none" fill="#CD986A" fill-rule="evenodd"></path>
                        <path d="M50.655465,103.974076 C50.7463995,103.972186 50.8354396,103.972186 50.9263742,103.953287 L55.0487407,103.269151 C56.31993,103.057484 57.1800193,101.859301 56.9678387,100.591192 L56.0243927,94.9423422 C55.8122121,93.676123 54.6092237,92.8218975 53.3361399,93.0316741 L49.2118789,93.7158105 C48.990226,93.753608 48.7875177,93.8310931 48.5923873,93.9236972 C48.2059154,94.0465393 44.5420106,95.3240978 45.0478341,99.1889012 C45.0478341,99.1889012 45.4930345,104.410638 50.655465,103.974076" id="Fill-22" stroke="none" fill="#FFEAC9" fill-rule="evenodd"></path>
                        <path d="M39.2276506,92.6298872 L43.1179178,92.9905427 C44.3196882,93.1013783 45.3798656,92.2252494 45.4896002,91.0324474 L45.9904853,85.7264136 C46.1019898,84.5353709 45.2205735,83.4797939 44.0223429,83.3689583 L40.128536,83.0065435 C39.9214562,82.9889505 39.7179163,83.0083028 39.5196862,83.0470073 C39.1444648,83.0663595 35.5285341,83.3460874 35.0577374,86.9420865 C35.0577374,86.9420865 34.2134893,91.7467211 38.9816328,92.580627 C39.0630488,92.5982199 39.1444648,92.6210908 39.2276506,92.6298872 Z" id="Fill-24" stroke="none" fill="#FFEAC9" fill-rule="evenodd"></path>
                        <path d="M57.6569311,119.97386 C57.7478643,119.968191 57.836903,119.97197 57.9278362,119.956852 L62.0501398,119.270898 C63.3213098,119.059253 64.181386,117.857416 63.9673142,116.589439 L63.025777,110.948737 C62.8117051,109.676981 61.6087351,108.819066 60.3356707,109.0326 L56.2114726,109.718554 C55.989823,109.758238 55.7871178,109.833825 55.5938848,109.926419 C55.2074188,110.047359 51.5435699,111.326674 52.0474912,115.191074 C52.0474912,115.191074 52.4945793,120.412266 57.6569311,119.97386" id="Fill-26" stroke="none" fill="#FFEAC9" fill-rule="evenodd"></path>
                        <path d="M50.2255094,134.79096 C50.2255094,134.79096 52.0401555,135.852238 55.4243714,133.192251 C55.4243714,133.192251 59.3816334,131.236548 57.4858959,126 C57.4858959,126 54.0205886,127.864514 48,128.483432 C48,128.483432 48.8271326,133.370747 50.2255094,134.79096 Z" id="Fill-28" stroke="none" fill="#FFEAC9" fill-rule="evenodd"></path>
                        <path d="M63.6807025,3.01392822 C63.6807025,3.01392822 62.4261835,2.72354299 62.482476,4.79459232 L62.0019791,15.0895703 C62.0019791,15.0895703 61.7486628,17.808964 66.973815,16.7588288 C66.973815,16.7588288 67.5146253,5.45937358 63.6807025,3.01392822 Z" id="Fill-30" stroke="none" fill="#FFEAC9" fill-rule="evenodd"></path>
                        <path d="M47.7095482,33.5085848 C47.7095482,33.5085848 52.2184138,53.1193532 48.9707693,62.6231039 C48.9707693,62.6231039 43.028192,62.0675113 38,62.7624604 C38,62.7624604 48.8298093,64.2147025 45.8102975,78 L49.5772683,74.2080347 L54.9578604,65.1901984 L63,63.4427405 C63,63.4427405 52.1516433,52.0063344 55.8945026,34.2017003 C55.8945026,34.2017003 46.5373544,30.5014169 47.4721419,12 C47.4721419,12 43.4974405,19.4005668 47.7095482,33.5085848 Z" id="Fill-32" stroke="none" fill="#F0BC87" fill-rule="evenodd"></path>
                        <mask id="mask-8" fill="white">
                            <use xlink:href="#path-7"></use>
                        </mask>
                        <g id="Clip-35" stroke="none" fill="none"></g>
                        <polygon id="Fill-34" stroke="none" fill="#C8D9ED" fill-rule="evenodd" points="154 166 510 166 510 66 154 66"></polygon>
                        <polygon id="Fill-36" stroke="none" fill="#FFFFFF" fill-rule="evenodd" points="138 157 154 157 154 74 138 74"></polygon>
                        <polygon id="Fill-37" stroke="none" fill="#E1ECF9" fill-rule="evenodd" points="154 116 452 116 452 66 154 66"></polygon>
                        <path d="M184,149.5 C184,153.64 180.641875,157 176.5,157 C172.358125,157 169,153.64 169,149.5 C169,145.358125 172.358125,142 176.5,142 C180.641875,142 184,145.358125 184,149.5" id="Fill-38" stroke="none" fill="#E1ECF9" fill-rule="evenodd"></path>
                        <path d="M212,149.5 C212,153.641875 208.641875,157 204.5,157 C200.358125,157 197,153.641875 197,149.5 C197,145.35625 200.358125,142 204.5,142 C208.641875,142 212,145.35625 212,149.5" id="Fill-39" stroke="none" fill="#E1ECF9" fill-rule="evenodd"></path>
                        <path d="M231.5,157 C227.358125,157 224,153.641875 224,149.5 C224,145.35625 227.358125,142 231.5,142 C235.641875,142 239,145.35625 239,149.5 C239,153.641875 235.641875,157 231.5,157 Z" id="Fill-40" stroke="none" fill="#E1ECF9" fill-rule="evenodd"></path>
                    </g>
                </g>
            </g>
        </g>
    </g>
</svg>