<?xml version="1.0" encoding="utf-8"?>
<!-- Generator: Adobe Illustrator 22.1.0, SVG Export Plug-In . SVG Version: 6.00 Build 0)  -->
<svg version="1.1" id="Layer_1" xmlns="http://www.w3.org/2000/svg" xmlns:xlink="http://www.w3.org/1999/xlink" x="0px" y="0px"
	 viewBox="0 0 866 700" style="enable-background:new 0 0 866 700;" xml:space="preserve">
<style type="text/css">
	.st0{filter:url(#filter-2);}
	.st1{fill:#FFFFFF;}
	.st2{fill:#658DCE;}
	.st3{fill:#C5D4DF;}
	.st4{filter:url(#filter-4);}
	.st5{fill:#F5C154;}
	.st6{enable-background:new    ;}
	.st7{filter:url(#filter-6);}
	.st8{filter:url(#filter-8);}
	.st9{fill:#3DDDCD;}
	.st10{fill:none;stroke:#C5D4DF;stroke-width:2;stroke-dasharray:6;}
	.st11{filter:url(#filter-10);}
	.st12{fill:#CC75E2;}
	.st13{filter:url(#filter-12);}
	.st14{fill:#FD8A97;}
	.st15{filter:url(#filter-14);}
	.st16{filter:url(#filter-16);}
	.st17{filter:url(#filter-18);}
</style>
<filter  filterUnits="objectBoundingBox" height="191.9%" id="filter-8" width="191.9%" x="-45.9%" y="-32.4%">
	<feMorphology  in="SourceAlpha" operator="dilate" radius="0.1" result="shadowSpreadOuter1"></feMorphology>
	<feOffset  dx="0" dy="10" in="shadowSpreadOuter1" result="shadowOffsetOuter1"></feOffset>
	<feGaussianBlur  in="shadowOffsetOuter1" result="shadowBlurOuter1" stdDeviation="9.9"></feGaussianBlur>
	
		<feColorMatrix  in="shadowBlurOuter1" type="matrix" values="0 0 0 0 0.87058824   0 0 0 0 0.8980392   0 0 0 0 0.92156863  0 0 0 0.7 0">
		</feColorMatrix>
</filter>
<filter  filterUnits="objectBoundingBox" height="191.9%" id="filter-6" width="191.9%" x="-45.9%" y="-32.4%">
	<feMorphology  in="SourceAlpha" operator="dilate" radius="0.1" result="shadowSpreadOuter1"></feMorphology>
	<feOffset  dx="0" dy="10" in="shadowSpreadOuter1" result="shadowOffsetOuter1"></feOffset>
	<feGaussianBlur  in="shadowOffsetOuter1" result="shadowBlurOuter1" stdDeviation="9.9"></feGaussianBlur>
	
		<feColorMatrix  in="shadowBlurOuter1" type="matrix" values="0 0 0 0 0.87058824   0 0 0 0 0.8980392   0 0 0 0 0.92156863  0 0 0 0.7 0">
		</feColorMatrix>
</filter>
<filter  filterUnits="objectBoundingBox" height="191.9%" id="filter-4" width="191.9%" x="-45.9%" y="-32.4%">
	<feMorphology  in="SourceAlpha" operator="dilate" radius="0.1" result="shadowSpreadOuter1"></feMorphology>
	<feOffset  dx="0" dy="10" in="shadowSpreadOuter1" result="shadowOffsetOuter1"></feOffset>
	<feGaussianBlur  in="shadowOffsetOuter1" result="shadowBlurOuter1" stdDeviation="9.9"></feGaussianBlur>
	
		<feColorMatrix  in="shadowBlurOuter1" type="matrix" values="0 0 0 0 0.87058824   0 0 0 0 0.8980392   0 0 0 0 0.92156863  0 0 0 0.7 0">
		</feColorMatrix>
</filter>
<filter  filterUnits="objectBoundingBox" height="155.7%" id="filter-2" width="155.7%" x="-27.9%" y="-19.7%">
	<feMorphology  in="SourceAlpha" operator="dilate" radius="0.1" result="shadowSpreadOuter1"></feMorphology>
	<feOffset  dx="0" dy="10" in="shadowSpreadOuter1" result="shadowOffsetOuter1"></feOffset>
	<feGaussianBlur  in="shadowOffsetOuter1" result="shadowBlurOuter1" stdDeviation="9.9"></feGaussianBlur>
	
		<feColorMatrix  in="shadowBlurOuter1" type="matrix" values="0 0 0 0 0.8509804   0 0 0 0 0.8980392   0 0 0 0 0.93333334  0 0 0 1 0">
		</feColorMatrix>
</filter>
<filter  filterUnits="objectBoundingBox" height="191.9%" id="filter-18" width="191.9%" x="-45.9%" y="-32.4%">
	<feMorphology  in="SourceAlpha" operator="dilate" radius="0.1" result="shadowSpreadOuter1"></feMorphology>
	<feOffset  dx="0" dy="10" in="shadowSpreadOuter1" result="shadowOffsetOuter1"></feOffset>
	<feGaussianBlur  in="shadowOffsetOuter1" result="shadowBlurOuter1" stdDeviation="9.9"></feGaussianBlur>
	
		<feColorMatrix  in="shadowBlurOuter1" type="matrix" values="0 0 0 0 0.87058824   0 0 0 0 0.8980392   0 0 0 0 0.92156863  0 0 0 0.7 0">
		</feColorMatrix>
</filter>
<filter  filterUnits="objectBoundingBox" height="191.9%" id="filter-16" width="191.9%" x="-45.9%" y="-32.4%">
	<feMorphology  in="SourceAlpha" operator="dilate" radius="0.1" result="shadowSpreadOuter1"></feMorphology>
	<feOffset  dx="0" dy="10" in="shadowSpreadOuter1" result="shadowOffsetOuter1"></feOffset>
	<feGaussianBlur  in="shadowOffsetOuter1" result="shadowBlurOuter1" stdDeviation="9.9"></feGaussianBlur>
	
		<feColorMatrix  in="shadowBlurOuter1" type="matrix" values="0 0 0 0 0.87058824   0 0 0 0 0.8980392   0 0 0 0 0.92156863  0 0 0 0.7 0">
		</feColorMatrix>
</filter>
<filter  filterUnits="objectBoundingBox" height="191.9%" id="filter-14" width="191.9%" x="-45.9%" y="-32.4%">
	<feMorphology  in="SourceAlpha" operator="dilate" radius="0.1" result="shadowSpreadOuter1"></feMorphology>
	<feOffset  dx="0" dy="10" in="shadowSpreadOuter1" result="shadowOffsetOuter1"></feOffset>
	<feGaussianBlur  in="shadowOffsetOuter1" result="shadowBlurOuter1" stdDeviation="9.9"></feGaussianBlur>
	
		<feColorMatrix  in="shadowBlurOuter1" type="matrix" values="0 0 0 0 0.87058824   0 0 0 0 0.8980392   0 0 0 0 0.92156863  0 0 0 0.7 0">
		</feColorMatrix>
</filter>
<filter  filterUnits="objectBoundingBox" height="191.9%" id="filter-12" width="191.9%" x="-45.9%" y="-32.4%">
	<feMorphology  in="SourceAlpha" operator="dilate" radius="0.1" result="shadowSpreadOuter1"></feMorphology>
	<feOffset  dx="0" dy="10" in="shadowSpreadOuter1" result="shadowOffsetOuter1"></feOffset>
	<feGaussianBlur  in="shadowOffsetOuter1" result="shadowBlurOuter1" stdDeviation="9.9"></feGaussianBlur>
	
		<feColorMatrix  in="shadowBlurOuter1" type="matrix" values="0 0 0 0 0.87058824   0 0 0 0 0.8980392   0 0 0 0 0.92156863  0 0 0 0.7 0">
		</feColorMatrix>
</filter>
<filter  filterUnits="objectBoundingBox" height="191.9%" id="filter-10" width="191.9%" x="-45.9%" y="-32.4%">
	<feMorphology  in="SourceAlpha" operator="dilate" radius="0.1" result="shadowSpreadOuter1"></feMorphology>
	<feOffset  dx="0" dy="10" in="shadowSpreadOuter1" result="shadowOffsetOuter1"></feOffset>
	<feGaussianBlur  in="shadowOffsetOuter1" result="shadowBlurOuter1" stdDeviation="9.9"></feGaussianBlur>
	
		<feColorMatrix  in="shadowBlurOuter1" type="matrix" values="0 0 0 0 0.87058824   0 0 0 0 0.8980392   0 0 0 0 0.92156863  0 0 0 0.7 0">
		</feColorMatrix>
</filter>
<title>Group 2</title>
<desc>Created with Sketch.</desc>
<g id="Page-1">
	<g id="Artboard" transform="translate(-832.000000, -3437.000000)">
		<g id="Blockchain" transform="translate(239.000000, 3402.000000)">
			<g id="Graph" transform="translate(612.000000, 44.000000)">
				<g id="Logo">
					<g id="Group-2">
						<g id="Bg">
							<g class="st0">
								<path id="path-1_2_" d="M385,271c33.1,0,60,26.9,60,60c0,33.1-26.9,60-60,60s-60-26.9-60-60C325,297.9,351.9,271,385,271z"
									/>
							</g>
							<g>
								<path id="path-1_1_" class="st1" d="M385,271c33.1,0,60,26.9,60,60c0,33.1-26.9,60-60,60s-60-26.9-60-60
									C325,297.9,351.9,271,385,271z"/>
							</g>
						</g>
						<path id="Fill-1" class="st2" d="M385,301c-16.5,0-30,13.5-30,30c0,16.5,13.5,30,30,30s30-13.5,30-30
							C415,314.5,401.5,301,385,301L385,301z M366.5,332.5l-2.8,0c0.4,7.7,6.4,14.8,17.6,15.3l-2.4-6
							C373,341.6,367.8,339.9,366.5,332.5L366.5,332.5z M379,332.7l-0.9-0.2c0,0.1,0,0.3,0,0.5c0,1.4-1.1,2.5-2.5,2.5
							c-1.4,0-2.5-1.1-2.5-2.5c0-0.5,0.1-0.9,0.4-1.3l-5-0.9c0.4,5.5,3.5,9.1,12,8.5L379,332.7z M378.2,348.5
							c-0.9-0.1-1.8-0.3-2.6-0.5l-5.8,4.5c4.2,3,9.3,4.7,14.9,4.8v-0.9C381.3,355.4,379.3,352.5,378.2,348.5L378.2,348.5z
							 M368.2,345.1l-3.4,2.9l0,0c0.5,0.6,1,1.1,1.5,1.7c0.8,0.8,1.6,1.5,2.4,2.2l5.4-4.1C372,347.1,370,346.2,368.2,345.1
							L368.2,345.1z M361.4,336.4l-2.2,0.3c0.8,3.8,2.5,7.3,4.8,10.3l3.3-2.5C364.8,342.5,362.8,339.8,361.4,336.4L361.4,336.4z
							 M358.9,327.3c-0.2,1.2-0.3,2.5-0.3,3.7l0,0l7.4,0.6L358.9,327.3z M360.5,332.4l-1.8,0.1c0.1,1.2,0.2,2.3,0.4,3.4l2.1-0.1
							C360.9,334.7,360.5,333.4,360.5,332.4L360.5,332.4z M361.2,319.7c-1,2-1.7,4.2-2.1,6.4l6,2.2
							C362.3,325.7,361.4,322.8,361.2,319.7L361.2,319.7z M377.4,319.9l-2.1-13.4c-3.4,1.3-6.4,3.3-8.9,5.9
							c-0.3,0.3-0.6,0.6-0.9,0.9l2.5,7.7C371,320,374.2,319.3,377.4,319.9L377.4,319.9z M388.8,337.7l-3.8,2.3l-3.8-2.3l-0.9,4.4
							l4.7,9.2l4.7-9.2L388.8,337.7z M406.3,332.5l-2.8,0c-1.3,7.4-6.5,9.1-12.5,9.3l-2.4,6C399.9,347.3,405.9,340.3,406.3,332.5
							L406.3,332.5z M391,332.7l-1.6,6.6c8.6,0.6,11.6-3,12-8.5l-5,0.9c0.2,0.4,0.4,0.8,0.4,1.3c0,1.4-1.1,2.5-2.5,2.5
							c-1.4,0-2.5-1.1-2.5-2.5c0-0.2,0-0.3,0-0.5L391,332.7z M391.8,348.5c-1.1,3.9-3.1,6.8-6.4,7.9v0.9c5.5-0.1,10.6-1.8,14.9-4.8
							l-5.8-4.5C393.6,348.3,392.7,348.4,391.8,348.5L391.8,348.5z M395.8,347.7l5.4,4.1c0.9-0.7,1.7-1.4,2.4-2.2
							c0.5-0.5,1-1.1,1.5-1.7l0,0l-3.4-2.9C400,346.2,398,347.1,395.8,347.7L395.8,347.7z M402.6,344.4l3.3,2.5
							c2.3-3,4-6.5,4.8-10.3l-2.2-0.3C407.2,339.8,405.2,342.5,402.6,344.4L402.6,344.4z M411.1,327.3l-7.2,4.3l7.4-0.6v0
							C411.3,329.7,411.3,328.5,411.1,327.3L411.1,327.3z M408.8,335.9l2.1,0.1c0.2-1.1,0.4-2.2,0.4-3.4l-1.8-0.1
							C409.5,333.4,409.1,334.7,408.8,335.9L408.8,335.9z M404.9,328.3l6-2.2c-0.4-2.3-1.1-4.4-2.1-6.4
							C408.6,322.8,407.7,325.7,404.9,328.3L404.9,328.3z M402,321l2.5-7.7c-0.3-0.3-0.6-0.6-0.9-0.9c-2.5-2.5-5.5-4.5-8.9-5.9
							l-2.1,13.4C395.8,319.3,399,320,402,321L402,321z M391.3,320.4l2.3-14.3c-5.5-1.9-11.6-1.9-17.2,0l2.3,14.3
							c2.2,0.5,4.3,3.6,6.3,8.3C387,324,389,320.9,391.3,320.4L391.3,320.4z M385.8,337.1c1.3-7.1,2-7.8,3.6-9.8
							c0.3,1,0.5,1.4,1.7,1c1.6-0.6,3.8-2.9,4-3.4c0.1,0.8,0.1,1.8-0.3,2.6c1.1-0.6,3.1-2.1,3.9-3.6c0.2,0.8,0.3,1.7,0.2,2.5
							c0.8-0.7,3.1-2.3,3.7-3.8c0.2,0.9,0.3,1.5,0,2.3c2.9-2.3,3.6-5.3,3.9-8.2c1.8,14.1-7.9,11.1-15,14.6
							C389.7,332.2,387.8,333.9,385.8,337.1L385.8,337.1z M384.2,337.1c-1.3-7.1-2-7.8-3.6-9.8c-0.3,1-0.5,1.4-1.7,1
							c-1.6-0.6-3.8-2.9-4-3.4c-0.1,0.8-0.1,1.8,0.3,2.6c-1.1-0.6-3.1-2.1-3.9-3.6c-0.2,0.8-0.3,1.7-0.2,2.5
							c-0.8-0.7-3.1-2.3-3.7-3.8c-0.2,0.9-0.3,1.5,0,2.3c-2.9-2.3-3.6-5.3-3.9-8.2c-1.8,14.1,7.9,11.1,15,14.6
							C380.3,332.2,382.2,333.9,384.2,337.1L384.2,337.1z M385,358.9c-15.4,0-27.9-12.5-27.9-27.9c0-15.4,12.5-27.9,27.9-27.9
							s27.9,12.5,27.9,27.9C412.9,346.4,400.4,358.9,385,358.9L385,358.9z"/>
						<path id="o" class="st3" d="M359,216c3.3,0,6,2.7,6,6c0,3.3-2.7,6-6,6c-3.3,0-6-2.7-6-6C353,218.7,355.7,216,359,216z"/>
						<g id="Bg_1_">
							<g class="st4">
								<path id="path-3_2_" d="M385,1c19.9,0,36,16.1,36,36s-16.1,36-36,36c-19.9,0-36-16.1-36-36S365.1,1,385,1z"/>
							</g>
							<g>
								<path id="path-3_1_" class="st1" d="M385,1c19.9,0,36,16.1,36,36s-16.1,36-36,36c-19.9,0-36-16.1-36-36S365.1,1,385,1z"/>
							</g>
						</g>
						<path id="Combined-Shape" class="st5" d="M385,38c7.7,0,14,6.3,14,14c0,0.6-0.4,1-1,1s-1-0.4-1-1c0-4.4-2.4-8.3-6-10.4l0,3.4
							h1c0.5,0,0.9,0.4,1,0.9l0,0.1v6c0,0.6-0.4,1-1,1c-0.5,0-0.9-0.4-1-0.9l0-0.1l0-5h-12l0,5c0,0.5-0.4,0.9-0.9,1l-0.1,0
							c-0.5,0-0.9-0.4-1-0.9l0-0.1v-6c0-0.5,0.4-0.9,0.9-1l0.1,0h1l0-3.4c-3.6,2.1-6,6-6,10.4c0,0.6-0.4,1-1,1s-1-0.4-1-1
							C371,44.3,377.3,38,385,38z M385,40c-1.4,0-2.7,0.2-4,0.7l0,4.3h8l0-4.3C387.7,40.2,386.4,40,385,40z M385,21c3.3,0,6,1.1,6,3
							c0,2.8,2.2,5,5,5l0,0l0.2,0c1.1,0.1,1.1,1.8,0,2l0,0l-0.2,0l-3.2,0c-0.9,3.5-4.1,6-7.8,6c-3.7,0-6.9-2.5-7.8-6l-3.2,0l-0.2,0
							c-1.2-0.2-1.1-2,0.2-2l0,0l0.3,0c2.6-0.1,4.7-2.3,4.7-5l0,0l0-0.2C379.2,22,381.8,21,385,21z M390.7,31h-11.4l0.1,0.2
							c0.8,2.1,2.8,3.6,5.1,3.8l0.2,0l0.3,0c2.5,0,4.7-1.5,5.6-3.8l0,0L390.7,31z M385,23c-1.2,0-2.4,0.2-3.2,0.5
							c-0.6,0.2-0.8,0.5-0.8,0.5c0,1.9-0.8,3.7-2.1,4.9l0,0l-0.1,0.1h12.2l-0.1-0.1c-1.2-1.2-2-2.8-2-4.7l0,0l0-0.3
							c0,0-0.2-0.2-0.8-0.5C387.4,23.2,386.2,23,385,23z"/>
						<path id="Bg_2_" class="st5" d="M346,85h78c1.7,0,3,1.3,3,3v18c0,1.7-1.3,3-3,3h-78c-1.7,0-3-1.3-3-3V88
							C343,86.3,344.3,85,346,85z"/>
						<g class="st6">
							<path class="st1" d="M354.9,96.8c0-2.5,1.7-4.4,4.2-4.4c1.2,0,2.3,0.4,3.2,1.3l-0.7,0.6c-0.7-0.7-1.5-1-2.5-1
								c-1.8,0-3.1,1.3-3.1,3.4c0,1.9,1.3,3.3,3.2,3.3c0.9,0,1.6-0.2,2.3-0.7v-1.8h-2.5v-0.9h3.5v3.4c-0.8,0.7-2,1.1-3.3,1.1
								C356.7,101.1,354.9,99.4,354.9,96.8z"/>
							<path class="st1" d="M364.3,92.5h3c2,0,2.8,1.1,2.8,2.6c0,1.4-0.8,2.3-2.1,2.5l2.4,3.3h-1.2l-2.3-3.2h-1.5v3.2h-1V92.5z
								 M367.1,96.8c1.4,0,2-0.7,2-1.7c0-1.1-0.7-1.7-1.9-1.7h-1.8v3.4H367.1z"/>
							<path class="st1" d="M371.4,96.7c0-2.5,1.8-4.3,4.3-4.3c2.4,0,4.2,1.7,4.2,4.3c0,2.6-1.9,4.3-4.2,4.3
								C373.2,101.1,371.4,99.3,371.4,96.7z M378.8,96.7c0-2-1.4-3.4-3.2-3.4c-1.8,0-3.2,1.4-3.2,3.4c0,1.9,1.3,3.3,3.2,3.3
								C377.4,100.1,378.8,98.7,378.8,96.7z"/>
							<path class="st1" d="M380.5,92.5h1.1l2.1,6.8h0l1.9-6.8h1.1l1.9,6.8h0l2.1-6.8h1.1l-2.7,8.5h-1l-2-7h0l-2,7h-1L380.5,92.5z"
								/>
							<path class="st1" d="M393.4,92.5h5.2v0.9h-4.2v2.9h3.4v0.9h-3.4v2.8h4.4v0.9h-5.5V92.5z"/>
							<path class="st1" d="M400.5,92.5h3c2,0,2.8,1.1,2.8,2.6c0,1.4-0.8,2.3-2.1,2.5l2.4,3.3h-1.2l-2.3-3.2h-1.5v3.2h-1V92.5z
								 M403.3,96.8c1.4,0,2-0.7,2-1.7c0-1.1-0.7-1.7-1.9-1.7h-1.8v3.4H403.3z"/>
							<path class="st1" d="M407.7,99.8l0.7-0.8c0.6,0.8,1.5,1.2,2.4,1.2c1,0,1.8-0.5,1.8-1.3c0-0.9-0.8-1.2-1.9-1.6
								c-1.3-0.5-2.5-1-2.5-2.5c0-1.3,1.1-2.3,2.6-2.3c0.9,0,1.9,0.3,2.7,1l-0.6,0.8c-0.7-0.6-1.4-0.9-2.1-0.9
								c-0.8,0-1.5,0.4-1.5,1.2c0,0.8,0.8,1.1,1.8,1.5c1.4,0.6,2.6,0.9,2.6,2.5c0,1.6-1.4,2.4-2.9,2.4
								C409.6,101.1,408.5,100.7,407.7,99.8z"/>
						</g>
						<path id="o_1_" class="st3" d="M411,180c3.3,0,6,2.7,6,6s-2.7,6-6,6c-3.3,0-6-2.7-6-6S407.7,180,411,180z"/>
						<g id="Bg_3_">
							<g class="st7">
								<path id="path-5_2_" d="M659,150c19.9,0,36,16.1,36,36c0,19.9-16.1,36-36,36c-19.9,0-36-16.1-36-36
									C623,166.1,639.1,150,659,150z"/>
							</g>
							<g>
								<path id="path-5_1_" class="st1" d="M659,150c19.9,0,36,16.1,36,36c0,19.9-16.1,36-36,36c-19.9,0-36-16.1-36-36
									C623,166.1,639.1,150,659,150z"/>
							</g>
						</g>
						<path id="Combined-Shape_1_" class="st5" d="M657,170c0.5,0,0.9,0.4,1,0.9l0,0.1v17h2v-17c0-0.5,0.4-0.9,0.9-1l0.1,0h8
							c0.5,0,0.9,0.4,1,0.9l0,0.1v17h2v-4c0-0.6,0.4-1,1-1c0.5,0,0.9,0.4,1,0.9l0,0.1v13c0,2.7-2.1,4.9-4.7,5l-0.3,0h-20
							c-2.7,0-4.9-2.1-5-4.7l0-0.3v-13c0-0.6,0.4-1,1-1c0.5,0,0.9,0.4,1,0.9l0,0.1v4h2v-17c0-0.5,0.4-0.9,0.9-1l0.1,0H657z M660,190
							h-2v1c0,2.8-2.2,5-5,5c-2.7,0-4.9-2.1-5-4.8l0-0.2v-1h-2v7c0,1.6,1.2,2.9,2.8,3l0.2,0h20c1.6,0,2.9-1.2,3-2.8l0-0.2v-7h-2v1
							c0,2.7-2.1,4.9-4.8,5l-0.2,0c-2.7,0-4.9-2.1-5-4.8l0-0.2V190z M656,180h-6v11c0,1.5,1.1,2.8,2.6,3l0.2,0l0.2,0
							c1.6,0,2.9-1.2,3-2.8l0-0.2V180z M668,180h-6v11c0,1.5,1.1,2.8,2.6,3l0.2,0l0.2,0c1.6,0,2.9-1.2,3-2.8l0-0.2V180z
							 M653.5,187.4c0.6,0.6,0.6,1.5,0.1,2.1l-0.1,0.1c-0.6,0.5-1.5,0.5-2.1-0.1c-0.5-0.6-0.5-1.4,0-2l0.1-0.1l0.1-0.1
							C652.1,186.9,653,186.9,653.5,187.4z M666.8,187.2l0.1,0.1l0.1,0.1l0.1,0.1c0.5,0.6,0.5,1.4,0,2c-0.5,0.6-1.4,0.7-2,0.2
							l-0.1-0.1l-0.1-0.1c-0.6-0.6-0.5-1.5,0.1-2.1C665.5,186.9,666.2,186.9,666.8,187.2z M654.5,182.9c0.6,0.6,0.6,1.5,0.1,2.1
							l-0.1,0.1c-0.6,0.5-1.5,0.5-2.1-0.1c-0.5-0.6-0.5-1.4,0-2l0.1-0.1l0.1-0.1C653.1,182.4,654,182.4,654.5,182.9z M665.3,182.7
							l0.1,0.1l0.1,0.1l0.1,0.1c0.5,0.6,0.5,1.4,0,2c-0.5,0.6-1.4,0.7-2,0.2l-0.1-0.1l-0.1-0.1c-0.6-0.6-0.5-1.5,0.1-2.1
							C664,182.4,664.7,182.4,665.3,182.7z M668,172h-6v6h6V172z M656,172h-6v6h6V172z"/>
						<path id="Bg_4_" class="st5" d="M480,174h113c1.7,0,3,1.3,3,3v18c0,1.7-1.3,3-3,3H480c-1.7,0-3-1.3-3-3v-18
							C477,175.3,478.3,174,480,174z"/>
						<g class="st6">
							<path class="st1" d="M490.2,182.5h3c2,0,2.8,1.1,2.8,2.6c0,1.4-0.8,2.3-2.1,2.5l2.4,3.3H495l-2.3-3.2h-1.5v3.2h-1V182.5z
								 M492.9,186.8c1.4,0,2-0.7,2-1.7c0-1.1-0.7-1.7-1.9-1.7h-1.8v3.4H492.9z"/>
							<path class="st1" d="M497.9,182.5h5.2v0.9H499v2.9h3.4v0.9H499v2.8h4.4v0.9h-5.5V182.5z"/>
							<path class="st1" d="M504.5,189.8l0.7-0.8c0.6,0.8,1.5,1.2,2.4,1.2c1,0,1.8-0.5,1.8-1.3c0-0.9-0.8-1.2-1.9-1.6
								c-1.3-0.5-2.5-1-2.5-2.5c0-1.3,1.1-2.3,2.6-2.3c0.9,0,1.9,0.3,2.7,1l-0.6,0.8c-0.7-0.6-1.4-0.9-2.1-0.9
								c-0.8,0-1.5,0.4-1.5,1.2s0.8,1.1,1.8,1.5c1.4,0.6,2.6,0.9,2.6,2.5c0,1.6-1.4,2.4-2.9,2.4
								C506.4,191.1,505.3,190.7,504.5,189.8z"/>
							<path class="st1" d="M512,182.5h5.2v0.9H513v2.9h3.4v0.9H513v2.8h4.4v0.9H512V182.5z"/>
							<path class="st1" d="M521.6,182.5h1l3.2,8.5h-1.1l-0.8-2.1h-3.8l-0.8,2.1h-1.1L521.6,182.5z M523.7,188l-1.6-4.3h0l-1.5,4.3
								H523.7z"/>
							<path class="st1" d="M527.2,182.5h3c2,0,2.8,1.1,2.8,2.6c0,1.4-0.8,2.3-2.1,2.5l2.4,3.3H532l-2.3-3.2h-1.5v3.2h-1V182.5z
								 M529.9,186.8c1.4,0,2-0.7,2-1.7c0-1.1-0.7-1.7-1.9-1.7h-1.8v3.4H529.9z"/>
							<path class="st1" d="M534.3,186.8c0-2.4,1.5-4.4,4.2-4.4c1.2,0,2.4,0.5,3.3,1.6l-0.8,0.6c-0.7-0.9-1.6-1.3-2.5-1.3
								c-1.9,0-3.1,1.4-3.1,3.4c0,2,1.4,3.3,3.2,3.3c1.1,0,1.9-0.5,2.5-1.3l0.8,0.7c-0.7,0.9-1.8,1.6-3.3,1.6
								C536.2,191.1,534.3,189.5,534.3,186.8z"/>
							<path class="st1" d="M543.3,182.5h1v4h4.4v-4h1v8.5h-1v-3.6h-4.4v3.6h-1V182.5z"/>
							<path class="st1" d="M555.2,182.5h1v7.6h4.2v0.9h-5.3V182.5z"/>
							<path class="st1" d="M564.5,182.5h1l3.2,8.5h-1.1l-0.8-2.1h-3.8l-0.8,2.1h-1.1L564.5,182.5z M566.6,188l-1.6-4.3h0l-1.5,4.3
								H566.6z"/>
							<path class="st1" d="M570.1,182.5h2.8c1.7,0,2.7,0.6,2.7,2.1c0,0.8-0.4,1.6-1.4,1.9v0c1,0.2,1.8,0.9,1.8,2.2
								c0,1.4-0.9,2.3-2.8,2.3h-3.1V182.5z M572.9,186.2c0.9,0,1.7-0.4,1.7-1.4c0-0.8-0.5-1.3-1.8-1.3l-1.6,0v2.7H572.9z
								 M573.1,190.1c1.1,0,1.8-0.5,1.8-1.5c0-1-0.7-1.5-2-1.5h-1.8v3H573.1z"/>
							<path class="st1" d="M577.2,189.8l0.7-0.8c0.6,0.8,1.5,1.2,2.4,1.2c1,0,1.8-0.5,1.8-1.3c0-0.9-0.8-1.2-1.9-1.6
								c-1.3-0.5-2.5-1-2.5-2.5c0-1.3,1.1-2.3,2.6-2.3c0.9,0,1.9,0.3,2.7,1l-0.6,0.8c-0.7-0.6-1.4-0.9-2.1-0.9
								c-0.8,0-1.5,0.4-1.5,1.2s0.8,1.1,1.8,1.5c1.4,0.6,2.6,0.9,2.6,2.5c0,1.6-1.4,2.4-2.9,2.4C579.1,191.1,578,190.7,577.2,189.8z
								"/>
						</g>
						<path id="o_2_" class="st3" d="M566,299c3.3,0,6,2.7,6,6s-2.7,6-6,6c-3.3,0-6-2.7-6-6S562.7,299,566,299z"/>
						<g id="Bg_5_">
							<g class="st8">
								<path id="path-7_2_" d="M791,295c19.9,0,36,16.1,36,36c0,19.9-16.1,36-36,36c-19.9,0-36-16.1-36-36
									C755,311.1,771.1,295,791,295z"/>
							</g>
							<g>
								<path id="path-7_1_" class="st1" d="M791,295c19.9,0,36,16.1,36,36c0,19.9-16.1,36-36,36c-19.9,0-36-16.1-36-36
									C755,311.1,771.1,295,791,295z"/>
							</g>
						</g>
						<path id="Combined-Shape_2_" class="st9" d="M797.6,337.2c0.4,0.3,0.5,0.8,0.3,1.3l-0.1,0.1L796,341h4.7c1.2,0,2.2,1,2.3,2.2
							l0,0.2v2c0,0.9-0.7,1.7-1.7,1.7l0,0h-20.7c-0.9,0-1.7-0.7-1.7-1.7l0,0v-2c0-1.3,1-2.3,2.3-2.3l0,0h4.7l-1.8-2.4
							c-0.3-0.4-0.2-1.1,0.2-1.4c0.4-0.3,1-0.3,1.3,0.1l0.1,0.1l2.7,3.6h5l2.7-3.6C796.5,337,797.2,336.9,797.6,337.2z M800.7,343
							h-19.3c-0.2,0-0.3,0.1-0.3,0.3l0,0l0,1.7h20l0-1.7C801,343.2,800.9,343,800.7,343L800.7,343L800.7,343z M793,335
							c0.6,0,1,0.4,1,1c0,0.5-0.4,0.9-0.9,1l-0.1,0h-4c-0.6,0-1-0.4-1-1c0-0.5,0.4-0.9,0.9-1l0.1,0H793z M782.3,320.3
							c0.6-0.6,1.7-0.2,1.7,0.7l0,0l0,5l1.6,0c0.5,0,1,0.3,1.2,0.8l0,0l0.1,0.2c0.2,0.5,0.1,1.2-0.3,1.6l0,0l-6.9,7.1
							c-0.6,0.6-1.7,0.2-1.7-0.7l0,0l0-5l-1.6,0c-0.5,0-1-0.3-1.2-0.8l0,0l-0.1-0.2c-0.2-0.5-0.1-1.2,0.3-1.6l0,0L782.3,320.3z
							 M802.3,320.3c0.6-0.6,1.7-0.2,1.7,0.7l0,0l0,5l1.6,0c0.5,0,1,0.3,1.2,0.8l0,0l0.1,0.2c0.2,0.5,0.1,1.2-0.3,1.6l0,0l-6.9,7.1
							c-0.6,0.6-1.7,0.2-1.7-0.7l0,0l0-5l-1.6,0c-0.5,0-1-0.3-1.2-0.8l0,0l-0.1-0.2c-0.2-0.5-0.1-1.2,0.3-1.6l0,0L802.3,320.3z
							 M793,331c0.6,0,1,0.4,1,1c0,0.5-0.4,0.9-0.9,1l-0.1,0h-4c-0.6,0-1-0.4-1-1c0-0.5,0.4-0.9,0.9-1l0.1,0H793z M782,323.5
							l-4.3,4.5h1.3c0.5,0,0.9,0.4,1,0.9l0,0l0,0.1l0,3.5l4.3-4.5H783c-0.5,0-0.9-0.4-1-0.9l0,0l0-0.1L782,323.5z M802,323.5
							l-4.3,4.5h1.3c0.5,0,0.9,0.4,1,0.9l0,0l0,0.1l0,3.5l4.3-4.5H803c-0.5,0-0.9-0.4-1-0.9l0,0l0-0.1L802,323.5z M793,327
							c0.6,0,1,0.4,1,1c0,0.5-0.4,0.9-0.9,1l-0.1,0h-4c-0.6,0-1-0.4-1-1c0-0.5,0.4-0.9,0.9-1l0.1,0H793z M793,323c0.6,0,1,0.4,1,1
							c0,0.5-0.4,0.9-0.9,1l-0.1,0h-4c-0.6,0-1-0.4-1-1c0-0.5,0.4-0.9,0.9-1l0.1,0H793z M799,315c0.6,0,1,0.4,1,1
							c0,1.6-1.2,2.9-2.8,3l-0.2,0h-12c-1.7,0-3-1.3-3-3c0-0.6,0.4-1,1-1c0.5,0,0.9,0.4,1,0.9l0,0.1c0,0.5,0.4,0.9,0.9,1l0.1,0h12
							c0.5,0,0.9-0.4,1-0.9l0-0.1C798,315.4,798.4,315,799,315z"/>
						<path id="Bg_6_" class="st9" d="M610,319h115c1.7,0,3,1.3,3,3v18c0,1.7-1.3,3-3,3H610c-1.7,0-3-1.3-3-3v-18
							C607,320.3,608.3,319,610,319z"/>
						<g class="st6">
							<path class="st1" d="M619.1,327.5h1.1l3.1,5.5h0l3.1-5.5h1v8.5h-1v-6.5h0l-2.8,4.8h-0.7l-2.8-4.8h0v6.5h-1.1V327.5z"/>
							<path class="st1" d="M632,327.5h1l3.2,8.5h-1.1l-0.8-2.1h-3.8l-0.8,2.1h-1.1L632,327.5z M634.1,333l-1.6-4.3h0L631,333H634.1
								z"/>
							<path class="st1" d="M637.7,327.5h1l4.8,6.8h0v-6.8h1v8.5h-1.1l-4.8-6.7h0v6.7h-1V327.5z"/>
							<path class="st1" d="M646.6,332.5v-5h1v5c0,1.6,0.9,2.6,2.3,2.6c1.3,0,2.3-1,2.3-2.6v-5h1v5c0,2.2-1.3,3.5-3.3,3.5
								C647.9,336.1,646.6,334.8,646.6,332.5z"/>
							<path class="st1" d="M655.2,327.5h5.4v0.9h-4.4v3h3.7v0.9h-3.7v3.6h-1V327.5z"/>
							<path class="st1" d="M663.8,327.5h1l3.2,8.5H667l-0.8-2.1h-3.8l-0.8,2.1h-1.1L663.8,327.5z M665.9,333l-1.6-4.3h0l-1.5,4.3
								H665.9z"/>
							<path class="st1" d="M668.6,331.8c0-2.4,1.5-4.4,4.2-4.4c1.2,0,2.4,0.5,3.3,1.6l-0.8,0.6c-0.7-0.9-1.6-1.3-2.5-1.3
								c-1.9,0-3.1,1.4-3.1,3.4c0,2,1.4,3.3,3.2,3.3c1.1,0,1.9-0.5,2.5-1.3l0.8,0.7c-0.7,0.9-1.8,1.6-3.3,1.6
								C670.6,336.1,668.6,334.5,668.6,331.8z"/>
							<path class="st1" d="M679.5,328.4H677v-0.9h6.2v0.9h-2.6v7.6h-1V328.4z"/>
							<path class="st1" d="M684.4,332.5v-5h1v5c0,1.6,0.9,2.6,2.3,2.6c1.3,0,2.3-1,2.3-2.6v-5h1v5c0,2.2-1.3,3.5-3.3,3.5
								C685.8,336.1,684.4,334.8,684.4,332.5z"/>
							<path class="st1" d="M693,327.5h3c2,0,2.8,1.1,2.8,2.6c0,1.4-0.8,2.3-2.1,2.5l2.4,3.3h-1.2l-2.3-3.2h-1.5v3.2h-1V327.5z
								 M695.8,331.8c1.4,0,2-0.7,2-1.7c0-1.1-0.7-1.7-1.9-1.7h-1.8v3.4H695.8z"/>
							<path class="st1" d="M700.7,327.5h5.2v0.9h-4.2v2.9h3.4v0.9h-3.4v2.8h4.4v0.9h-5.5V327.5z"/>
							<path class="st1" d="M707.3,334.8l0.7-0.8c0.6,0.8,1.5,1.2,2.4,1.2c1,0,1.8-0.5,1.8-1.3c0-0.9-0.8-1.2-1.9-1.6
								c-1.3-0.5-2.5-1-2.5-2.5c0-1.3,1.1-2.3,2.6-2.3c0.9,0,1.9,0.3,2.7,1l-0.6,0.8c-0.7-0.6-1.4-0.9-2.1-0.9
								c-0.8,0-1.5,0.4-1.5,1.2s0.8,1.1,1.8,1.5c1.4,0.6,2.6,0.9,2.6,2.5c0,1.6-1.4,2.4-2.9,2.4
								C709.2,336.1,708.1,335.7,707.3,334.8z"/>
						</g>
						<line id="Path-5" class="st10" x1="457" y1="330.5" x2="596" y2="330.5"/>
						<path id="o_3_" class="st3" d="M494,351c3.3,0,6,2.7,6,6s-2.7,6-6,6c-3.3,0-6-2.7-6-6S490.7,351,494,351z"/>
						<g id="Bg_7_">
							<g class="st11">
								<path id="path-9_2_" d="M495,447c19.9,0,36,16.1,36,36c0,19.9-16.1,36-36,36c-19.9,0-36-16.1-36-36
									C459,463.1,475.1,447,495,447z"/>
							</g>
							<g>
								<path id="path-9_1_" class="st1" d="M495,447c19.9,0,36,16.1,36,36c0,19.9-16.1,36-36,36c-19.9,0-36-16.1-36-36
									C459,463.1,475.1,447,495,447z"/>
							</g>
						</g>
						<g id="Group-21" transform="translate(480.000000, 467.000000)">
							<path id="Shape" class="st9" d="M7,25c0.5,0,0.9,0.4,1,0.9L8,26v5c0,0.6-0.4,1-1,1c-0.5,0-0.9-0.4-1-0.9L6,31v-5
								C6,25.4,6.4,25,7,25z M15,0c7.2,0,10.4,3.4,14,12.4l1.9,4.9c0.2,0.6,0.2,1.3-0.2,1.8c-0.3,0.5-0.9,0.8-1.5,0.9L29,20h-1.5
								l0,3c0,2.7-2.1,4.9-4.7,5l-0.3,0h-1l0,3c0,0.5-0.4,0.9-0.9,1l-0.1,0c-0.5,0-1-0.4-1-0.9l0-0.1v-4c0-0.5,0.4-0.9,0.9-1l0.1,0
								h2c1.5,0,2.8-1.2,2.9-2.8l0-0.2v-4c0-0.5,0.4-0.9,0.9-1l0.1,0h2.5l0,0l-1.5-3.9l-0.4-1l-0.3-0.8C23.7,4.7,20.9,2,15,2
								c-0.6,0-1-0.4-1-1S14.5,0,15,0z M10,0c1.7,0,2.9,1.6,3.8,4.1c2.3-0.2,4.1,0.2,4.9,1.5c0.9,1.5,0.2,3.4-1.6,5.3
								c1.7,2,2.4,4,1.6,5.5c-0.8,1.5-2.8,1.9-5.2,1.4c-0.8,2-2,3.2-3.4,3.2c-1.7,0-3-1.6-3.8-4.2c-2.7,0.5-4.9,0.1-5.8-1.4
								c-0.8-1.3-0.3-3.1,1.2-4.8c-1.4-1.8-2-3.6-1.2-5C1.2,4,3.4,3.7,6.2,4.3C7,1.7,8.3,0,10,0z M8.7,16.1L8.7,16.1
								c-0.2,0.1-0.4,0.1-0.6,0.2C8.7,18,9.4,19,10,19c0.4,0,1-0.6,1.5-1.7C10.6,17,9.6,16.6,8.7,16.1z M15.6,12.3L15.6,12.3
								c-1,0.8-2.2,1.6-3.5,2.3c-0.2,0.1-0.5,0.3-0.7,0.4c0.3,0.1,0.7,0.2,1,0.3c0.2-0.3,0.6-0.4,1-0.3c0.4,0.1,0.6,0.4,0.7,0.8
								c1.5,0.3,2.6,0.1,2.9-0.4C17.2,14.8,16.7,13.6,15.6,12.3z M2.9,12.1L2.9,12.1c-0.8,1-1,1.8-0.7,2.3c0.4,0.7,2,0.8,4.1,0.3
								C5,13.9,3.9,13,2.9,12.1z M9,7.5L8.8,7.6C8.6,7.7,8.3,7.9,8,8c-1.5,0.8-2.7,1.7-3.7,2.6c1,1,2.3,2,3.8,2.9
								c0.3,0.2,0.5,0.3,0.8,0.5c0.7-0.3,1.4-0.6,2.1-1c1.2-0.6,2.3-1.4,3.1-2.1c-0.9-0.8-2-1.6-3.3-2.4C10.2,8.1,9.6,7.8,9,7.5z
								 M9.8,9C10.5,9,11,9.4,11,9.8c0,0.1,0,0.1,0,0.2c0,0.1,0,0.1,0,0.2c0,0.1,0,0.2-0.1,0.3c0.1,0.1,0.1,0.2,0.1,0.3
								c0,0.1,0,0.2,0,0.2c0,0,0,0,0,0.1l0,0.1c0,0.4-0.5,0.8-1.2,0.8c-0.1,0-0.2,0-0.3,0c-0.1,0-0.2,0-0.3,0C8.5,12,8,11.6,8,11.2
								c0-0.1,0-0.1,0-0.2c0-0.1,0-0.1,0-0.2c0-0.1,0-0.2,0.1-0.3C8,10.4,8,10.3,8,10.2C8,10.1,8,10,8,10c0,0,0,0,0-0.1l0-0.1
								C8,9.4,8.5,9,9.2,9c0.1,0,0.2,0,0.3,0C9.6,9,9.7,9,9.8,9z M16.8,6.6c-0.5-0.8-2.6-0.8-5.3,0l0.3,0.2l0,0
								c1.4,0.8,2.7,1.8,3.8,2.7C16.7,8.2,17.2,7.2,16.8,6.6z M6.6,6.6c-2.2-0.7-3.9-0.7-4.4,0L2.1,6.6l0,0.1C1.9,7.2,2.2,8.1,3,9.1
								c1-0.9,2.1-1.7,3.4-2.4L6.6,6.6z M10,2C9.4,2,8.6,3,8,4.9C8.4,5,8.8,5.2,9.1,5.3c0.9-0.4,1.8-0.7,2.7-0.9
								C11.2,2.9,10.5,2,10,2z"/>
						</g>
						<path id="Bg_8_" class="st9" d="M432,411h126c1.7,0,3,1.3,3,3v18c0,1.7-1.3,3-3,3H432c-1.7,0-3-1.3-3-3v-18
							C429,412.3,430.3,411,432,411z"/>
						<g class="st6">
							<path class="st1" d="M444,419.4h-2.5v-0.9h6.2v0.9H445v7.6h-1V419.4z"/>
							<path class="st1" d="M449,418.5h1v4h4.5v-4h1v8.5h-1v-3.6h-4.5v3.6h-1V418.5z"/>
							<path class="st1" d="M457.3,422.8c0-2.4,1.5-4.4,4.2-4.4c1.2,0,2.4,0.5,3.3,1.6l-0.8,0.6c-0.7-0.9-1.6-1.3-2.5-1.3
								c-1.9,0-3.1,1.4-3.1,3.4c0,2,1.4,3.3,3.2,3.3c1.1,0,1.9-0.5,2.5-1.3l0.8,0.7c-0.7,0.9-1.8,1.6-3.3,1.6
								C459.3,427.1,457.3,425.5,457.3,422.8z"/>
							<path class="st1" d="M465,428l4.6-10.2l0.8,0.4l-4.6,10.2L465,428z"/>
							<path class="st1" d="M470.2,422.8c0-2.4,1.5-4.4,4.2-4.4c1.2,0,2.4,0.5,3.3,1.6l-0.8,0.6c-0.7-0.9-1.6-1.3-2.5-1.3
								c-1.9,0-3.1,1.4-3.1,3.4c0,2,1.4,3.3,3.2,3.3c1.1,0,1.9-0.5,2.5-1.3l0.8,0.7c-0.7,0.9-1.8,1.6-3.3,1.6
								C472.2,427.1,470.2,425.5,470.2,422.8z"/>
							<path class="st1" d="M479.3,418.5h2.8c1.7,0,2.7,0.6,2.7,2.1c0,0.8-0.4,1.6-1.4,1.9v0c1,0.2,1.8,0.9,1.8,2.2
								c0,1.4-0.9,2.3-2.8,2.3h-3.1V418.5z M482.1,422.2c0.9,0,1.7-0.4,1.7-1.4c0-0.8-0.5-1.3-1.8-1.3l-1.6,0v2.7H482.1z
								 M482.3,426.1c1.1,0,1.8-0.5,1.8-1.5c0-1-0.7-1.5-2-1.5h-1.8v3H482.3z"/>
							<path class="st1" d="M486.9,418.5h2.5c2.7,0,4.4,1.8,4.4,4.3c0,2.5-1.7,4.2-4.4,4.2h-2.6V418.5z M489.4,426.1
								c2.1,0,3.4-1.4,3.4-3.3c0-1.9-1.3-3.3-3.3-3.3H488v6.6H489.4z"/>
							<path class="st1" d="M500.7,419.4h-2.5v-0.9h6.2v0.9h-2.6v7.6h-1V419.4z"/>
							<path class="st1" d="M505.8,418.5h5.2v0.9h-4.2v2.9h3.4v0.9h-3.4v2.8h4.4v0.9h-5.5V418.5z"/>
							<path class="st1" d="M512.3,425.8l0.7-0.8c0.6,0.8,1.5,1.2,2.4,1.2c1,0,1.8-0.5,1.8-1.3c0-0.9-0.8-1.2-1.9-1.6
								c-1.3-0.5-2.5-1-2.5-2.5c0-1.3,1.1-2.3,2.6-2.3c0.9,0,1.9,0.3,2.7,1l-0.6,0.8c-0.7-0.6-1.4-0.9-2.1-0.9
								c-0.8,0-1.5,0.4-1.5,1.2s0.8,1.1,1.8,1.5c1.4,0.6,2.6,0.9,2.6,2.5c0,1.6-1.4,2.4-2.9,2.4
								C514.3,427.1,513.2,426.7,512.3,425.8z"/>
							<path class="st1" d="M521.5,419.4H519v-0.9h6.2v0.9h-2.6v7.6h-1V419.4z"/>
							<path class="st1" d="M526.6,418.5h1v8.5h-1V418.5z"/>
							<path class="st1" d="M529.8,418.5h1l4.8,6.8h0v-6.8h1v8.5h-1.1l-4.8-6.7h0v6.7h-1V418.5z"/>
							<path class="st1" d="M538.5,422.8c0-2.5,1.7-4.4,4.2-4.4c1.2,0,2.3,0.4,3.2,1.3l-0.7,0.6c-0.7-0.7-1.5-1-2.5-1
								c-1.8,0-3.1,1.3-3.1,3.4c0,1.9,1.3,3.3,3.2,3.3c0.9,0,1.6-0.2,2.3-0.7v-1.8h-2.5v-0.9h3.5v3.4c-0.8,0.7-2,1.1-3.3,1.1
								C540.3,427.1,538.5,425.4,538.5,422.8z"/>
						</g>
						<g class="st6">
							<path class="st1" d="M96.5,327.5h3c2,0,2.8,1.1,2.8,2.6c0,1.8-1.2,2.6-3,2.6h-1.8v3.2h-1V327.5z M99.2,331.8
								c1.4,0,2-0.7,2-1.7c0-1.1-0.7-1.7-1.8-1.7h-1.8v3.4H99.2z"/>
							<path class="st1" d="M105.5,327.5h1l3.2,8.5h-1.1l-0.8-2.1h-3.8l-0.8,2.1h-1.1L105.5,327.5z M107.6,333l-1.6-4.3h0l-1.5,4.3
								H107.6z"/>
							<path class="st1" d="M112.2,328.4h-2.5v-0.9h6.2v0.9h-2.6v7.6h-1V328.4z"/>
							<path class="st1" d="M117.3,327.5h1v8.5h-1V327.5z"/>
							<path class="st1" d="M120.5,327.5h5.2v0.9h-4.2v2.9h3.4v0.9h-3.4v2.8h4.4v0.9h-5.5V327.5z"/>
							<path class="st1" d="M127.6,327.5h1l4.8,6.8h0v-6.8h1v8.5h-1.1l-4.8-6.7h0v6.7h-1V327.5z"/>
							<path class="st1" d="M138.5,328.4h-2.5v-0.9h6.2v0.9h-2.6v7.6h-1V328.4z"/>
							<path class="st1" d="M143,334.8l0.7-0.8c0.6,0.8,1.5,1.2,2.4,1.2c1,0,1.8-0.5,1.8-1.3c0-0.9-0.8-1.2-1.9-1.6
								c-1.3-0.5-2.5-1-2.5-2.5c0-1.3,1.1-2.3,2.6-2.3c0.9,0,1.9,0.3,2.7,1l-0.6,0.8c-0.7-0.6-1.4-0.9-2.1-0.9
								c-0.8,0-1.5,0.4-1.5,1.2c0,0.8,0.8,1.1,1.8,1.5c1.4,0.6,2.6,0.9,2.6,2.5c0,1.6-1.4,2.4-2.9,2.4
								C144.9,336.1,143.8,335.7,143,334.8z"/>
						</g>
						<path id="Bg_9_" class="st12" d="M334,553h103c1.7,0,3,1.3,3,3v18c0,1.7-1.3,3-3,3H334c-1.7,0-3-1.3-3-3v-18
							C331,554.3,332.3,553,334,553z"/>
						<g class="st6">
							<path class="st1" d="M342.9,568.8l0.7-0.8c0.6,0.8,1.5,1.2,2.4,1.2c1,0,1.8-0.5,1.8-1.3c0-0.9-0.8-1.2-1.9-1.6
								c-1.3-0.5-2.5-1-2.5-2.5c0-1.3,1.1-2.3,2.6-2.3c0.9,0,1.9,0.3,2.7,1l-0.6,0.8c-0.7-0.6-1.4-0.9-2.1-0.9
								c-0.8,0-1.5,0.4-1.5,1.2c0,0.8,0.8,1.1,1.8,1.5c1.4,0.6,2.6,0.9,2.6,2.5c0,1.6-1.4,2.4-2.9,2.4
								C344.9,570.1,343.8,569.7,342.9,568.8z"/>
							<path class="st1" d="M350.3,566.5v-5h1v5c0,1.6,0.9,2.6,2.3,2.6c1.3,0,2.3-1,2.3-2.6v-5h1v5c0,2.2-1.3,3.5-3.3,3.5
								C351.7,570.1,350.3,568.8,350.3,566.5z"/>
							<path class="st1" d="M358.9,561.5h3c2,0,2.8,1.1,2.8,2.6c0,1.8-1.2,2.6-3,2.6H360v3.2h-1V561.5z M361.6,565.8
								c1.4,0,2-0.7,2-1.7c0-1.1-0.7-1.7-1.8-1.7H360v3.4H361.6z"/>
							<path class="st1" d="M366.3,561.5h3c2,0,2.8,1.1,2.8,2.6c0,1.8-1.2,2.6-3,2.6h-1.8v3.2h-1V561.5z M369,565.8
								c1.4,0,2-0.7,2-1.7c0-1.1-0.7-1.7-1.8-1.7h-1.8v3.4H369z"/>
							<path class="st1" d="M373.6,561.5h1v7.6h4.2v0.9h-5.3V561.5z"/>
							<path class="st1" d="M381.3,566.2l-2.9-4.7h1.2l2.2,3.7h0l2.2-3.7h1.2l-2.9,4.7v3.8h-1V566.2z"/>
							<path class="st1" d="M389.4,565.8c0-2.4,1.5-4.4,4.2-4.4c1.2,0,2.4,0.5,3.3,1.6l-0.8,0.6c-0.7-0.9-1.6-1.3-2.5-1.3
								c-1.9,0-3.1,1.4-3.1,3.4c0,2,1.4,3.3,3.2,3.3c1.1,0,1.9-0.5,2.5-1.3l0.8,0.7c-0.7,0.9-1.8,1.6-3.3,1.6
								C391.3,570.1,389.4,568.5,389.4,565.8z"/>
							<path class="st1" d="M398.4,561.5h1v4h4.4v-4h1v8.5h-1v-3.6h-4.4v3.6h-1V561.5z"/>
							<path class="st1" d="M409.6,561.5h1l3.2,8.5h-1.1l-0.8-2.1h-3.8l-0.8,2.1h-1.1L409.6,561.5z M411.7,567l-1.6-4.3h0l-1.5,4.3
								H411.7z"/>
							<path class="st1" d="M415.3,561.5h1v8.5h-1V561.5z"/>
							<path class="st1" d="M418.5,561.5h1l4.8,6.8h0v-6.8h1v8.5h-1.1l-4.8-6.7h0v6.7h-1V561.5z"/>
						</g>
						<g id="Bg_10_">
							<g class="st13">
								<path id="path-11_2_" d="M385,589c19.9,0,36,16.1,36,36s-16.1,36-36,36c-19.9,0-36-16.1-36-36S365.1,589,385,589z"/>
							</g>
							<g>
								<path id="path-11_1_" class="st1" d="M385,589c19.9,0,36,16.1,36,36s-16.1,36-36,36c-19.9,0-36-16.1-36-36
									S365.1,589,385,589z"/>
							</g>
						</g>
						<g id="Group-21_1_" transform="translate(366.000000, 611.000000)">
							<path id="Combined-Shape_3_" class="st12" d="M23.1,0c1.8,0,3.3,1.4,3.5,3.3l0,0.2l0,3.5h4.6c3.1,0,5.6,2.4,5.8,5.5l0,0.3
								v9.3c0,1.9-1.4,3.4-3.2,3.5l-0.2,0l-1.4,0C31.7,27,30.4,28,28.9,28s-2.8-1-3.3-2.3H11.4C10.9,27,9.6,28,8.1,28
								s-2.8-1-3.3-2.3l-1.4,0c-1.8,0-3.3-1.4-3.5-3.3l0-0.2V3.5C0,1.6,1.4,0.1,3.2,0l0.2,0H23.1z M28.9,23.3
								c-0.6,0-1.2,0.5-1.2,1.2s0.5,1.2,1.2,1.2s1.2-0.5,1.2-1.2S29.5,23.3,28.9,23.3z M8.1,23.3c-0.6,0-1.2,0.5-1.2,1.2
								s0.5,1.2,1.2,1.2s1.2-0.5,1.2-1.2S8.7,23.3,8.1,23.3z M23.1,2.3H3.5c-0.6,0-1.1,0.4-1.1,1l0,0.2l0,8.2h4.6l0-5.8
								c0-0.6,0.5-1.1,1-1.2l0.1,0h9.2c0.6,0,1.2,0.5,1.2,1.2l0,0v5.8l1.2,0c0.6,0,1.1,0.4,1.1,1l0,0.2v5.8c0,0.6-0.5,1.2-1.2,1.2
								c-0.6,0-1.1-0.4-1.1-1l0-0.2V14h-2.3l0,2.3c0,0.6-0.5,1.2-1.2,1.2c-0.6,0-1.1-0.4-1.1-1l0-0.2V14h-2.3l0,4.7
								c0,0.6-0.5,1.2-1.2,1.2c-0.6,0-1.1-0.4-1.1-1l0-0.2V14H6.9l0,2.3c0,0.6-0.5,1.2-1.2,1.2c-0.6,0-1.1-0.4-1.1-1l0-0.2V14H2.3
								l0,8.2c0,0.6,0.4,1.1,1,1.2l0.2,0l1.4,0C5.3,22,6.6,21,8.1,21s2.8,1,3.3,2.3l12.9,0l0-19.8c0-0.6-0.4-1.1-1-1.2L23.1,2.3z
								 M28.9,9.3h-2.3l0,12.6c0.6-0.5,1.3-0.8,2.1-0.9l0.2,0c1.5,0,2.8,1,3.3,2.3l1.4,0c0.6,0,1.1-0.4,1.1-1l0-0.2l0-5.8l-2.3,0
								c-1.8,0-3.3-1.4-3.5-3.3l0-0.2L28.9,9.3z M31.2,9.3v3.5c0,0.6,0.4,1.1,1,1.2l0.2,0h2.3l0-1.2c0-1.9-1.4-3.4-3.2-3.5L31.2,9.3
								z M11.6,7L9.2,7v4.7h6.9V7l-2.3,0v2.3c0,0.6-0.5,1.2-1.2,1.2c-0.6,0-1.1-0.4-1.1-1l0-0.2L11.6,7z"/>
						</g>
						<path id="o_4_" class="st3" d="M276,351c3.3,0,6,2.7,6,6s-2.7,6-6,6c-3.3,0-6-2.7-6-6S272.7,351,276,351z"/>
						<path id="Bg_11_" class="st14" d="M88,319h72c1.7,0,3,1.3,3,3v18c0,1.7-1.3,3-3,3H88c-1.7,0-3-1.3-3-3v-18
							C85,320.3,86.3,319,88,319z"/>
						<g class="st6">
							<path class="st1" d="M96.5,327.5h3c2,0,2.8,1.1,2.8,2.6c0,1.8-1.2,2.6-3,2.6h-1.8v3.2h-1V327.5z M99.2,331.8
								c1.4,0,2-0.7,2-1.7c0-1.1-0.7-1.7-1.8-1.7h-1.8v3.4H99.2z"/>
							<path class="st1" d="M105.5,327.5h1l3.2,8.5h-1.1l-0.8-2.1h-3.8l-0.8,2.1h-1.1L105.5,327.5z M107.6,333l-1.6-4.3h0l-1.5,4.3
								H107.6z"/>
							<path class="st1" d="M112.2,328.4h-2.5v-0.9h6.2v0.9h-2.6v7.6h-1V328.4z"/>
							<path class="st1" d="M117.3,327.5h1v8.5h-1V327.5z"/>
							<path class="st1" d="M120.5,327.5h5.2v0.9h-4.2v2.9h3.4v0.9h-3.4v2.8h4.4v0.9h-5.5V327.5z"/>
							<path class="st1" d="M127.6,327.5h1l4.8,6.8h0v-6.8h1v8.5h-1.1l-4.8-6.7h0v6.7h-1V327.5z"/>
							<path class="st1" d="M138.5,328.4h-2.5v-0.9h6.2v0.9h-2.6v7.6h-1V328.4z"/>
							<path class="st1" d="M143,334.8l0.7-0.8c0.6,0.8,1.5,1.2,2.4,1.2c1,0,1.8-0.5,1.8-1.3c0-0.9-0.8-1.2-1.9-1.6
								c-1.3-0.5-2.5-1-2.5-2.5c0-1.3,1.1-2.3,2.6-2.3c0.9,0,1.9,0.3,2.7,1l-0.6,0.8c-0.7-0.6-1.4-0.9-2.1-0.9
								c-0.8,0-1.5,0.4-1.5,1.2c0,0.8,0.8,1.1,1.8,1.5c1.4,0.6,2.6,0.9,2.6,2.5c0,1.6-1.4,2.4-2.9,2.4
								C144.9,336.1,143.8,335.7,143,334.8z"/>
						</g>
						<g id="Bg_12_">
							<g class="st15">
								<path id="path-13_2_" d="M37,295c19.9,0,36,16.1,36,36c0,19.9-16.1,36-36,36c-19.9,0-36-16.1-36-36C1,311.1,17.1,295,37,295
									z"/>
							</g>
							<g>
								<path id="path-13_1_" class="st1" d="M37,295c19.9,0,36,16.1,36,36c0,19.9-16.1,36-36,36c-19.9,0-36-16.1-36-36
									C1,311.1,17.1,295,37,295z"/>
							</g>
						</g>
						<g id="Group-15" transform="translate(19.000000, 313.000000)">
							<path id="Combined-Shape_4_" class="st14" d="M23.6,15.7c2,0,4,0.8,5.4,2.2l3.3-1c0.7-0.2,1.4,0.3,1.4,0.9l0,0.1l0,6.9
								c1.3,0.5,2.2,1.7,2.2,3.2c0,1.5-0.9,2.7-2.2,3.2l0,0.2c0,0.4-0.3,0.8-0.6,1l-0.2,0.1L21.7,36c0,0-0.1,0-0.1,0l0.1,0
								c0,0-0.1,0-0.1,0c0,0-0.1,0-0.1,0c0,0,0,0,0,0c0,0,0,0-0.1,0c0,0,0,0-0.1,0c0,0,0,0-0.1,0c0,0,0,0-0.1,0c0,0,0,0,0,0l0,0
								c0,0-0.1,0-0.1,0l0,0L9.8,32.6c-0.4-0.1-0.7-0.5-0.8-0.9l0-0.2l0-0.2c-1.3-0.5-2.3-1.7-2.3-3.2c0-1.5,0.9-2.7,2.3-3.2L9,18
								c0-0.7,0.6-1.2,1.3-1.1l0.1,0l3.3,1c1.4-1.3,3.1-2,5-2.1l0.4,0H23.6z M11.2,19.5v5.2c1.2,0,2.2,1,2.2,2.2l0,0v2.2
								c0,0.7-0.4,1.4-0.9,1.8l7.7,2.3V22.2l-6.5-1.9c0,0,0,0,0,0L11.2,19.5z M31.5,19.5L29,20.3c0,0,0,0,0,0l-6.5,1.9v11.1l7.7-2.3
								c-0.6-0.4-0.9-1.1-0.9-1.8l0,0V27c0-1.2,1-2.2,2.2-2.2l0,0V19.5z M11.2,27h-1.1C9.5,27,9,27.5,9,28.1c0,0.6,0.5,1.1,1.1,1.1
								l0,0h1.1V27z M32.6,27h-1.1v2.2h1.1c0.6,0,1.1-0.5,1.1-1.1C33.8,27.5,33.2,27,32.6,27L32.6,27z M23.6,18l-4.5,0
								c-1,0-1.9,0.2-2.7,0.7l5,1.5l5-1.5c-0.7-0.4-1.6-0.6-2.4-0.7L23.6,18z M9,0c1.2,0,2.2,1,2.2,2.2l0,0v2.2h2.2
								c1.2,0,2.1,0.9,2.2,2l0,0l0,0.2V9c0,1.2-1,2.2-2.2,2.2l0,0h-2.2v2.2c0,1.2-0.9,2.1-2,2.2l0,0l-0.2,0H6.8
								c-1.2,0-2.2-1-2.2-2.2l0,0v-2.2H2.2c-1.2,0-2.1-0.9-2.2-2l0,0L0,9V6.7c0-1.2,1-2.2,2.2-2.2l0,0h2.2V2.2c0-1.2,0.9-2.1,2-2.2
								l0,0l0.2,0H9z M21.4,5.6c2.8,0,5.1,2.3,5.1,5.1s-2.3,5.1-5.1,5.1s-5.1-2.3-5.1-5.1S18.6,5.6,21.4,5.6z M9,2.2H6.8v3.4
								c0,0.6-0.5,1.1-1.1,1.1l0,0H2.2V9h3.4c0.6,0,1.1,0.5,1.1,1.1l0,0v3.4H9v-3.4C9,9.5,9.5,9,10.1,9l0,0h3.4V6.7h-3.4
								C9.5,6.7,9,6.2,9,5.6l0,0V2.2z M21.4,7.9c-1.6,0-2.8,1.3-2.8,2.8s1.3,2.8,2.8,2.8s2.8-1.3,2.8-2.8S22.9,7.9,21.4,7.9z"/>
						</g>
						<g id="Bg_13_">
							<g class="st16">
								<path id="path-15_2_" d="M177,144c19.9,0,36,16.1,36,36c0,19.9-16.1,36-36,36c-19.9,0-36-16.1-36-36
									C141,160.1,157.1,144,177,144z"/>
							</g>
							<g>
								<path id="path-15_1_" class="st1" d="M177,144c19.9,0,36,16.1,36,36c0,19.9-16.1,36-36,36c-19.9,0-36-16.1-36-36
									C141,160.1,157.1,144,177,144z"/>
							</g>
						</g>
						<g id="Group-7" transform="translate(161.000000, 164.000000)">
							<path id="Stroke-1" class="st14" d="M27,16c0.5,0,0.9,0.4,1,0.9l0,0.1v12c0,1.6-1.2,2.9-2.8,3L25,32H7c-1.6,0-2.9-1.2-3-2.8
								L4,29V17c0-0.6,0.4-1,1-1c0.5,0,0.9,0.4,1,0.9L6,17v12c0,0.5,0.4,0.9,0.9,1L7,30h18c0.5,0,0.9-0.4,1-0.9l0-0.1V17
								C26,16.4,26.4,16,27,16z"/>
							<path id="Stroke-3" class="st14" d="M15.3,0.3c0.3-0.3,0.9-0.4,1.2-0.1l0.1,0.1l15,14c0.4,0.4,0.4,1,0,1.4
								c-0.3,0.4-0.9,0.4-1.3,0.1l-0.1-0.1L16,2.4L1.7,15.7c-0.4,0.3-0.9,0.4-1.3,0.1l-0.1-0.1c-0.3-0.4-0.4-0.9-0.1-1.3l0.1-0.1
								L15.3,0.3z"/>
							<path id="Stroke-5" class="st14" d="M15,12l-0.2,0c-1,0.1-1.8,1-1.8,2v2h-2c-1.1,0-2,0.9-2,2v2l0,0.2c0.1,1,1,1.8,2,1.8h2v2
								c0,1.1,0.9,2,2,2h2l0.2,0c1-0.1,1.8-1,1.8-2v-2h2c1.1,0,2-0.9,2-2v-2l0-0.2c-0.1-1-1-1.8-2-1.8h-2v-2c0-1.1-0.9-2-2-2H15z
								 M15,14h2v3c0,0.6,0.4,1,1,1h3v2h-3c-0.6,0-1,0.4-1,1v3h-2v-3c0-0.6-0.4-1-1-1h-3v-2h3c0.6,0,1-0.4,1-1V14z"/>
						</g>
						<path id="Bg_14_" class="st14" d="M124,228h103c1.7,0,3,1.3,3,3v18c0,1.7-1.3,3-3,3H124c-1.7,0-3-1.3-3-3v-18
							C121,229.3,122.3,228,124,228z"/>
						<g class="st6">
							<path class="st1" d="M134.1,235.5h2.5c2.7,0,4.4,1.8,4.4,4.3c0,2.5-1.7,4.2-4.4,4.2h-2.6V235.5z M136.6,243.1
								c2.1,0,3.4-1.4,3.4-3.3c0-1.9-1.3-3.3-3.3-3.3h-1.5v6.6H136.6z"/>
							<path class="st1" d="M142.9,235.5h1v8.5h-1V235.5z"/>
							<path class="st1" d="M145.5,242.8l0.7-0.8c0.6,0.8,1.5,1.2,2.4,1.2c1,0,1.8-0.5,1.8-1.3c0-0.9-0.8-1.2-1.9-1.6
								c-1.3-0.5-2.5-1-2.5-2.5c0-1.3,1.1-2.3,2.6-2.3c0.9,0,1.9,0.3,2.7,1l-0.6,0.8c-0.7-0.6-1.4-0.9-2.1-0.9
								c-0.8,0-1.5,0.4-1.5,1.2c0,0.8,0.8,1.1,1.8,1.5c1.4,0.6,2.6,0.9,2.6,2.5c0,1.6-1.4,2.4-2.9,2.4
								C147.5,244.1,146.4,243.7,145.5,242.8z"/>
							<path class="st1" d="M153,235.5h3c2,0,2.8,1.1,2.8,2.6c0,1.8-1.2,2.6-3,2.6h-1.8v3.2h-1V235.5z M155.7,239.8
								c1.4,0,2-0.7,2-1.7c0-1.1-0.7-1.7-1.8-1.7h-1.8v3.4H155.7z"/>
							<path class="st1" d="M160.4,235.5h5.2v0.9h-4.2v2.9h3.4v0.9h-3.4v2.8h4.4v0.9h-5.5V235.5z"/>
							<path class="st1" d="M167.5,235.5h1l4.8,6.8h0v-6.8h1v8.5h-1.1l-4.8-6.7h0v6.7h-1V235.5z"/>
							<path class="st1" d="M176,242.8l0.7-0.8c0.6,0.8,1.5,1.2,2.4,1.2c1,0,1.8-0.5,1.8-1.3c0-0.9-0.8-1.2-1.9-1.6
								c-1.3-0.5-2.5-1-2.5-2.5c0-1.3,1.1-2.3,2.6-2.3c0.9,0,1.9,0.3,2.7,1l-0.6,0.8c-0.7-0.6-1.4-0.9-2.1-0.9
								c-0.8,0-1.5,0.4-1.5,1.2c0,0.8,0.8,1.1,1.8,1.5c1.4,0.6,2.6,0.9,2.6,2.5c0,1.6-1.4,2.4-2.9,2.4
								C177.9,244.1,176.8,243.7,176,242.8z"/>
							<path class="st1" d="M183.5,235.5h1v8.5h-1V235.5z"/>
							<path class="st1" d="M189.2,235.5h1l3.2,8.5h-1.1l-0.8-2.1h-3.8l-0.8,2.1H186L189.2,235.5z M191.3,241l-1.6-4.3h0l-1.5,4.3
								H191.3z"/>
							<path class="st1" d="M194.9,235.5h3c2,0,2.8,1.1,2.8,2.6c0,1.4-0.8,2.3-2.1,2.5l2.4,3.3h-1.2l-2.3-3.2h-1.5v3.2h-1V235.5z
								 M197.6,239.8c1.4,0,2-0.7,2-1.7c0-1.1-0.7-1.7-1.9-1.7h-1.8v3.4H197.6z"/>
							<path class="st1" d="M202.6,235.5h5.2v0.9h-4.2v2.9h3.4v0.9h-3.4v2.8h4.4v0.9h-5.5V235.5z"/>
							<path class="st1" d="M209.1,242.8l0.7-0.8c0.6,0.8,1.5,1.2,2.4,1.2c1,0,1.8-0.5,1.8-1.3c0-0.9-0.8-1.2-1.9-1.6
								c-1.3-0.5-2.5-1-2.5-2.5c0-1.3,1.1-2.3,2.6-2.3c0.9,0,1.9,0.3,2.7,1l-0.6,0.8c-0.7-0.6-1.4-0.9-2.1-0.9
								c-0.8,0-1.5,0.4-1.5,1.2c0,0.8,0.8,1.1,1.8,1.5c1.4,0.6,2.6,0.9,2.6,2.5c0,1.6-1.4,2.4-2.9,2.4
								C211.1,244.1,210,243.7,209.1,242.8z"/>
						</g>
						<g id="Bg_15_">
							<g class="st17">
								<path id="path-17_2_" d="M121,504c19.9,0,36,16.1,36,36c0,19.9-16.1,36-36,36c-19.9,0-36-16.1-36-36
									C85,520.1,101.1,504,121,504z"/>
							</g>
							<g>
								<path id="path-17_1_" class="st1" d="M121,504c19.9,0,36,16.1,36,36c0,19.9-16.1,36-36,36c-19.9,0-36-16.1-36-36
									C85,520.1,101.1,504,121,504z"/>
							</g>
						</g>
						<path id="Combined-Shape_5_" class="st12" d="M127.1,524c1.5,0,2.8,1.3,2.9,2.8l0,0.2l0,7.4c0.7,0.5,2,1.4,2.6,1.8l0.1,0.1
							c2.1,1.5,3.4,2.9,4,4.3c0.1,0.4,0.2,0.7,0.3,1.1l0,0.3v7c0,0.6-0.4,1-1,1c-0.5,0-0.9-0.4-1-0.9l0-0.1v-7c0-0.2,0-0.4-0.1-0.6
							c-0.4-0.9-1.4-1.9-3-3.2l-0.3-0.2c-0.3-0.2-0.9-0.6-1.5-1.1l0,3.7l2.6,2.1c0.4,0.4,0.5,1,0.2,1.4c-0.3,0.4-0.9,0.5-1.3,0.2
							l-0.1-0.1l-1.8-1.5c-0.1,0.1-0.3,0.1-0.5,0.1c-0.5,0-0.9-0.4-1-0.9l0-0.1l0-0.3l-1.7-1.4c-0.3-0.3-0.8-0.3-1.1,0
							c-0.3,0.3-0.3,0.7-0.1,1l0.1,0.1l4.8,5.4c0.1,0.1,0.2,0.3,0.2,0.5l0,0.1v3.4c0,0.2,0.1,0.6,0.3,1c0.2,0.3,0.4,0.7,0.7,1.1
							c0.2,0.2,0.3,0.4,0.5,0.7l0.4,0.5l0.1,0.1c0,0,0,0,0,0c0.4,0.4,0.3,1.1-0.1,1.4s-1.1,0.3-1.4-0.1l-0.3-0.3
							c0,0-0.1-0.1-0.1-0.1c-0.3-0.3-0.6-0.7-0.8-1.1c-0.3-0.5-0.6-0.9-0.8-1.4c-0.3-0.6-0.5-1.1-0.5-1.6l0-0.3l0-3l-4.5-5.1
							c-1-1-1.1-2.7-0.2-3.8l0.2-0.2c1-1,2.7-1.1,3.7-0.2l0.2,0.2l0.4,0.3l0-3.7c-0.1-0.2-0.1-0.4,0-0.6l0-7.6c0-0.5-0.4-0.9-0.8-1
							l-0.1,0H117c-0.5,0-1-0.5-1-1c0-0.5,0.4-0.9,0.8-1l0.1,0H127.1z M113,540c0.5,0,0.9,0.4,1,0.9l0,0.1v6h7c0.6,0,1,0.4,1,1
							c0,0.5-0.4,0.9-0.9,1l-0.1,0h-7v2c0,0.5,0.4,0.9,0.9,1l0.1,0h10c0.6,0,1,0.4,1,1c0,0.5-0.4,0.9-0.9,1l-0.1,0h-10
							c-1.6,0-2.9-1.2-3-2.8l0-0.2v-10C112,540.4,112.4,540,113,540z M121,527c0.5,0,0.9,0.3,1,0.8l0,0.1l0,0.2
							c1,0.2,1.9,0.7,2.5,1.4c0.4,0.4,0.3,1-0.2,1.4c-0.4,0.3-1,0.3-1.4-0.1l-0.1-0.1c-0.4-0.4-0.9-0.7-1.5-0.7c-0.1,0-0.2,0-0.3,0
							c-0.1,0-0.2,0-0.3,0c-0.9,0.1-1.6,0.6-1.6,1c0,0.5,0.7,1,1.7,1l0.2,0c2.2,0,4,1.3,4,3c0,1.5-1.3,2.6-3,2.9l0,1.2
							c0,0.5-0.4,0.9-1,0.9c-0.5,0-0.9-0.3-1-0.8l0-0.1l0-1.2c-1-0.2-1.9-0.7-2.5-1.4c-0.4-0.4-0.3-1,0.2-1.4c0.4-0.3,1-0.3,1.4,0.1
							l0.1,0.1c0.4,0.5,1.1,0.8,1.8,0.8c1.1,0,1.9-0.5,1.9-1c0-0.5-0.7-1-1.7-1l-0.2,0c-2.2,0-4-1.3-4-3c0-1.5,1.3-2.6,3-2.9l0-0.2
							C120,527.4,120.4,527,121,527z M106,528c0.5,0,0.9,0.4,1,0.9l0,0.1l0,4c0,1.7,1.3,3,2.9,3c0.6,0,1.1-0.2,1.6-0.5
							c0.5-0.3,1.1-0.2,1.4,0.3c0.3,0.5,0.2,1.1-0.3,1.4c-0.8,0.5-1.7,0.8-2.7,0.8c-2.6,0-4.7-2.1-4.9-4.7l0-0.3v-4
							C105,528.4,105.4,528,106,528z M110,528c0.5,0,0.9,0.4,1,0.9l0,0.1v4c0,0.6-0.4,1-1,1c-0.5,0-0.9-0.4-1-0.9l0-0.1v-4
							C109,528.4,109.4,528,110,528z M110,524c2.6,0,4.8,2,4.9,4.6l0,0.3v3.9c0,0.2,0,0.3,0,0.4c-0.1,0.5-0.5,0.9-1.1,0.9
							c-0.5-0.1-0.9-0.5-0.9-0.9l0-0.2l0-4c0-1.6-1.3-2.9-3-2.9c-0.5,0-0.9,0.1-1.3,0.3l-0.2,0.1c-0.5,0.3-1.1,0.1-1.4-0.3
							s-0.1-1.1,0.3-1.3C108.3,524.2,109.1,524,110,524z"/>
						<path id="Bg_16_" class="st12" d="M172,528h83c1.7,0,3,1.3,3,3v18c0,1.7-1.3,3-3,3h-83c-1.7,0-3-1.3-3-3v-18
							C169,529.3,170.3,528,172,528z"/>
						<g class="st6">
							<path class="st1" d="M184.2,536.5h1l3.2,8.5h-1.1l-0.8-2.1h-3.8l-0.8,2.1H181L184.2,536.5z M186.3,542l-1.6-4.3h0l-1.5,4.3
								H186.3z"/>
							<path class="st1" d="M189.8,536.5h3c2,0,2.8,1.1,2.8,2.6c0,1.8-1.2,2.6-3,2.6h-1.8v3.2h-1V536.5z M192.5,540.8
								c1.4,0,2-0.7,2-1.7c0-1.1-0.7-1.7-1.8-1.7h-1.8v3.4H192.5z"/>
							<path class="st1" d="M197.2,536.5h3c2,0,2.8,1.1,2.8,2.6c0,1.8-1.2,2.6-3,2.6h-1.8v3.2h-1V536.5z M199.9,540.8
								c1.4,0,2-0.7,2-1.7c0-1.1-0.7-1.7-1.8-1.7h-1.8v3.4H199.9z"/>
							<path class="st1" d="M207.7,541.5v-5h1v5c0,1.6,0.9,2.6,2.3,2.6c1.3,0,2.3-1,2.3-2.6v-5h1v5c0,2.2-1.3,3.5-3.3,3.5
								C209,545.1,207.7,543.8,207.7,541.5z"/>
							<path class="st1" d="M215.7,543.8l0.7-0.8c0.6,0.8,1.5,1.2,2.4,1.2c1,0,1.8-0.5,1.8-1.3c0-0.9-0.8-1.2-1.9-1.6
								c-1.3-0.5-2.5-1-2.5-2.5c0-1.3,1.1-2.3,2.6-2.3c0.9,0,1.9,0.3,2.7,1l-0.6,0.8c-0.7-0.6-1.4-0.9-2.1-0.9
								c-0.8,0-1.5,0.4-1.5,1.2c0,0.8,0.8,1.1,1.8,1.5c1.4,0.6,2.6,0.9,2.6,2.5c0,1.6-1.4,2.4-2.9,2.4
								C217.7,545.1,216.6,544.7,215.7,543.8z"/>
							<path class="st1" d="M223.2,536.5h5.2v0.9h-4.2v2.9h3.4v0.9h-3.4v2.8h4.4v0.9h-5.5V536.5z"/>
							<path class="st1" d="M230.4,536.5h3c2,0,2.8,1.1,2.8,2.6c0,1.4-0.8,2.3-2.1,2.5l2.4,3.3h-1.2l-2.3-3.2h-1.5v3.2h-1V536.5z
								 M233.1,540.8c1.4,0,2-0.7,2-1.7c0-1.1-0.7-1.7-1.9-1.7h-1.8v3.4H233.1z"/>
							<path class="st1" d="M237.5,543.8l0.7-0.8c0.6,0.8,1.5,1.2,2.4,1.2c1,0,1.8-0.5,1.8-1.3c0-0.9-0.8-1.2-1.9-1.6
								c-1.3-0.5-2.5-1-2.5-2.5c0-1.3,1.1-2.3,2.6-2.3c0.9,0,1.9,0.3,2.7,1l-0.6,0.8c-0.7-0.6-1.4-0.9-2.1-0.9
								c-0.8,0-1.5,0.4-1.5,1.2c0,0.8,0.8,1.1,1.8,1.5c1.4,0.6,2.6,0.9,2.6,2.5c0,1.6-1.4,2.4-2.9,2.4
								C239.5,545.1,238.4,544.7,237.5,543.8z"/>
						</g>
						<line id="Path-5-Copy" class="st10" x1="452" y1="305" x2="553" y2="305"/>
						<line id="Path-5-Copy-2" class="st10" x1="423" y1="186" x2="466" y2="186"/>
						<path id="Path-5-Copy-4" class="st10" d="M176,263v67.5h138"/>
						<path id="Path-5-Copy-5" class="st10" d="M269,539.5h116V402"/>
						<line id="Path-5-Copy-3" class="st10" x1="452" y1="357" x2="483" y2="357"/>
						<line id="Path-5-Copy-7" class="st10" x1="288" y1="357" x2="319" y2="357"/>
						<line id="Path-5-Copy-6" class="st10" x1="494" y1="399" x2="494" y2="369"/>
						<line id="Path-5-Copy-8" class="st10" x1="385" y1="259" x2="385" y2="120"/>
						<line id="Path-5-Copy-8_1_" class="st10" x1="359" y1="264" x2="359" y2="234"/>
						<line id="Path-5-Copy-9" class="st10" x1="411" y1="264" x2="411" y2="198"/>
					</g>
				</g>
			</g>
		</g>
	</g>
</g>
</svg>
