<svg width="275" height="101" viewBox="0 0 275 101" version="1.1" xmlns="http://www.w3.org/2000/svg" xmlns:xlink="http://www.w3.org/1999/xlink">
<title>ww_categories</title>
<desc>Created using Figma</desc>
<g id="Canvas" transform="translate(1748 2089)">
<g id="ww_categories">
<mask id="mask0_outline" mask-type="alpha">
<g id="Mask">
<use xlink:href="#path0_fill" transform="translate(-1748 -2102)" fill="#FFFFFF"/>
</g>
</mask>
<g id="Group 6" mask="url(#mask0_outline)">
<g id="Group 3">
<g id="Rectangle 2 Copy 9">
<use xlink:href="#path1_fill" transform="translate(-1714 -2088.54)" fill="#444C6D"/>
</g>
<g id="Rectangle 2 Copy 11">
<mask id="mask1_outline_ins">
<use xlink:href="#path1_fill" fill="white" transform="translate(-1577 -2088.54)"/>
</mask>
<g mask="url(#mask1_outline_ins)">
<use xlink:href="#path2_stroke_2x" transform="translate(-1577 -2088.54)" fill="#444C6D"/>
</g>
</g>
<g id="Rectangle 2 Copy 12">
<mask id="mask2_outline_ins">
<use xlink:href="#path1_fill" fill="white" transform="translate(-1853.65 -2088.54)"/>
</mask>
<g mask="url(#mask2_outline_ins)">
<use xlink:href="#path2_stroke_2x" transform="translate(-1853.65 -2088.54)" fill="#444C6D"/>
</g>
</g>
<g id="Airline credit cards">
<use xlink:href="#path3_fill" transform="translate(-1571 -2062.32)" fill="#444C6D"/>
</g>
<g id="Airline credit cards Copy">
<use xlink:href="#path3_fill" transform="translate(-1847.65 -2062.32)" fill="#444C6D"/>
</g>
<g id="Cashback credit card">
<use xlink:href="#path4_fill" transform="translate(-1699.59 -2062.8)" fill="#FFFFFF"/>
</g>
</g>
</g>
</g>
</g>
<defs>
<path id="path0_fill" fill-rule="evenodd" d="M 0 3C 0 1.34315 1.34315 0 3 0L 272 0C 273.657 0 275 1.34315 275 3L 275 74.9341L 275 127C 275 128.657 273.657 130 272 130L 3 130C 1.34315 130 0 128.657 0 127L 0 3Z"/>
<path id="path1_fill" fill-rule="evenodd" d="M 0 3.6C 0 1.61177 1.61177 0 3.6 0L 126.048 0C 128.036 0 129.648 1.61177 129.648 3.6L 129.648 96.5143C 129.648 98.5025 128.036 100.114 126.048 100.114L 3.6 100.114C 1.61177 100.114 0 98.5025 0 96.5143L 0 3.6Z"/>
<path id="path2_stroke_2x" d="M 3.6 1.2L 126.048 1.2L 126.048 -1.2L 3.6 -1.2L 3.6 1.2ZM 128.448 3.6L 128.448 96.5143L 130.848 96.5143L 130.848 3.6L 128.448 3.6ZM 126.048 98.9143L 3.6 98.9143L 3.6 101.314L 126.048 101.314L 126.048 98.9143ZM 1.2 96.5143L 1.2 3.6L -1.2 3.6L -1.2 96.5143L 1.2 96.5143ZM 3.6 -1.2C 0.949033 -1.2 -1.2 0.949033 -1.2 3.6L 1.2 3.6C 1.2 2.27452 2.27452 1.2 3.6 1.2L 3.6 -1.2ZM 126.048 1.2C 127.374 1.2 128.448 2.27452 128.448 3.6L 130.848 3.6C 130.848 0.949033 128.699 -1.2 126.048 -1.2L 126.048 1.2ZM 128.448 96.5143C 128.448 97.8398 127.374 98.9143 126.048 98.9143L 126.048 101.314C 128.699 101.314 130.848 99.1653 130.848 96.5143L 128.448 96.5143ZM 3.6 98.9143C 2.27452 98.9143 1.2 97.8398 1.2 96.5143L -1.2 96.5143C -1.2 99.1653 0.949033 101.314 3.6 101.314L 3.6 98.9143Z"/>
<path id="path3_fill" d="M 16.8729 6.0712L 15.0585 11.2288L 18.7209 11.2288L 16.9233 6.0712L 16.8729 6.0712ZM 11.1945 16L 15.7977 4.0048L 18.0321 4.0048L 22.6521 16L 20.4009 16L 19.2753 12.8248L 14.4873 12.8248L 13.3617 16L 11.1945 16ZM 23.576 16L 23.576 7.3144L 25.4912 7.3144L 25.4912 16L 23.576 16ZM 23.576 5.8192L 23.576 4.0048L 25.4912 4.0048L 25.4912 5.8192L 23.576 5.8192ZM 27.5779 16L 27.5779 7.3144L 29.3755 7.3144L 29.3755 8.9944L 29.4091 8.9944C 29.5211 8.5128 29.8291 8.076 30.3331 7.684C 30.8371 7.2808 31.3747 7.0792 31.9459 7.0792C 32.0915 7.0792 32.3323 7.096 32.6683 7.1296L 32.6683 8.9776C 32.2203 8.9216 31.9459 8.8936 31.8451 8.8936C 31.1619 8.8936 30.6075 9.1512 30.1819 9.6664C 29.7227 10.204 29.4931 10.9376 29.4931 11.8672L 29.4931 16L 27.5779 16ZM 33.5346 16L 33.5346 4.0048L 35.4498 4.0048L 35.4498 16L 33.5346 16ZM 37.5869 16L 37.5869 7.3144L 39.5021 7.3144L 39.5021 16L 37.5869 16ZM 37.5869 5.8192L 37.5869 4.0048L 39.5021 4.0048L 39.5021 5.8192L 37.5869 5.8192ZM 41.5889 16L 41.5889 7.3144L 43.4033 7.3144L 43.4033 8.5912L 43.4369 8.6248C 44.0529 7.5944 44.9545 7.0792 46.1417 7.0792C 47.1049 7.0792 47.8553 7.3312 48.3929 7.8352C 48.9417 8.3392 49.2161 9.0728 49.2161 10.036L 49.2161 16L 47.3009 16L 47.3009 10.54C 47.3009 9.2408 46.7353 8.5912 45.6041 8.5912C 44.9769 8.5912 44.4673 8.8096 44.0753 9.2464C 43.6945 9.6832 43.5041 10.2264 43.5041 10.876L 43.5041 16L 41.5889 16ZM 59.1149 12.1528L 52.7309 12.1528C 52.7309 12.8808 52.9213 13.48 53.3021 13.9504C 53.7165 14.4656 54.3045 14.7232 55.0661 14.7232C 56.1413 14.7232 56.8469 14.2416 57.1829 13.2784L 58.9973 13.2784C 58.7957 14.208 58.3309 14.936 57.6029 15.4624C 56.8861 15.9776 56.0405 16.2352 55.0661 16.2352C 53.7333 16.2352 52.6917 15.8152 51.9413 14.9752C 51.1909 14.1352 50.8157 13.032 50.8157 11.6656C 50.8157 10.3888 51.1909 9.3136 51.9413 8.44C 52.7365 7.5328 53.7613 7.0792 55.0157 7.0792C 56.2365 7.0792 57.2389 7.5272 58.0229 8.4232C 58.7733 9.2632 59.1485 10.2936 59.1485 11.5144C 59.1485 11.7272 59.1373 11.94 59.1149 12.1528ZM 52.7309 10.8928L 57.1997 10.8928C 57.1661 10.2544 56.9477 9.7112 56.5445 9.2632C 56.1525 8.8152 55.6429 8.5912 55.0157 8.5912C 54.3661 8.5912 53.8285 8.8096 53.4029 9.2464C 52.9773 9.6832 52.7533 10.232 52.7309 10.8928ZM 73.0251 10.2208L 71.1099 10.2208C 70.9531 9.1344 70.2923 8.5912 69.1275 8.5912C 68.4891 8.5912 67.9683 8.7872 67.5651 9.1792C 67.0163 9.7168 66.7419 10.5736 66.7419 11.7496C 66.7419 12.5672 66.9155 13.2448 67.2627 13.7824C 67.6771 14.4096 68.2707 14.7232 69.0435 14.7232C 69.6035 14.7232 70.0627 14.5496 70.4211 14.2024C 70.7907 13.844 71.0203 13.3568 71.1099 12.7408L 73.0251 12.7408C 72.6555 15.0704 71.3283 16.2352 69.0435 16.2352C 67.7219 16.2352 66.6803 15.804 65.9187 14.9416C 65.1907 14.1352 64.8267 13.0712 64.8267 11.7496C 64.8267 10.372 65.1851 9.2632 65.9019 8.4232C 66.6635 7.5272 67.7331 7.0792 69.1107 7.0792C 70.1747 7.0792 71.0539 7.3368 71.7483 7.852C 72.5099 8.412 72.9355 9.2016 73.0251 10.2208ZM 74.5818 16L 74.5818 7.3144L 76.3794 7.3144L 76.3794 8.9944L 76.413 8.9944C 76.525 8.5128 76.833 8.076 77.337 7.684C 77.841 7.2808 78.3786 7.0792 78.9498 7.0792C 79.0954 7.0792 79.3362 7.096 79.6722 7.1296L 79.6722 8.9776C 79.2242 8.9216 78.9498 8.8936 78.849 8.8936C 78.1658 8.8936 77.6114 9.1512 77.1858 9.6664C 76.7266 10.204 76.497 10.9376 76.497 11.8672L 76.497 16L 74.5818 16ZM 88.3673 12.1528L 81.9833 12.1528C 81.9833 12.8808 82.1737 13.48 82.5545 13.9504C 82.9689 14.4656 83.5569 14.7232 84.3185 14.7232C 85.3937 14.7232 86.0993 14.2416 86.4353 13.2784L 88.2497 13.2784C 88.0481 14.208 87.5833 14.936 86.8553 15.4624C 86.1385 15.9776 85.2929 16.2352 84.3185 16.2352C 82.9857 16.2352 81.9441 15.8152 81.1937 14.9752C 80.4433 14.1352 80.0681 13.032 80.0681 11.6656C 80.0681 10.3888 80.4433 9.3136 81.1937 8.44C 81.9889 7.5328 83.0137 7.0792 84.2681 7.0792C 85.4889 7.0792 86.4913 7.5272 87.2753 8.4232C 88.0257 9.2632 88.4009 10.2936 88.4009 11.5144C 88.4009 11.7272 88.3897 11.94 88.3673 12.1528ZM 81.9833 10.8928L 86.4521 10.8928C 86.4185 10.2544 86.2001 9.7112 85.7969 9.2632C 85.4049 8.8152 84.8953 8.5912 84.2681 8.5912C 83.6185 8.5912 83.0809 8.8096 82.6553 9.2464C 82.2297 9.6832 82.0057 10.232 81.9833 10.8928ZM 91.3184 11.7496C 91.3184 12.5672 91.5088 13.2504 91.8896 13.7992C 92.3264 14.4152 92.9368 14.7232 93.7208 14.7232C 94.516 14.7232 95.1376 14.3984 95.5856 13.7488C 95.9664 13.1888 96.1568 12.4888 96.1568 11.6488C 96.1568 10.6968 95.9384 9.952 95.5016 9.4144C 95.076 8.8656 94.4936 8.5912 93.7544 8.5912C 92.9256 8.5912 92.2928 8.9216 91.856 9.5824C 91.4976 10.1424 91.3184 10.8648 91.3184 11.7496ZM 98.0048 4.0048L 98.0048 16L 96.1904 16L 96.1904 14.824L 96.1568 14.824C 95.6752 15.7648 94.7792 16.2352 93.4688 16.2352C 92.1472 16.2352 91.128 15.7872 90.4112 14.8912C 89.7392 14.0624 89.4032 12.9648 89.4032 11.5984C 89.4032 10.12 89.7952 8.972 90.5792 8.1544C 91.2624 7.4376 92.1248 7.0792 93.1664 7.0792C 94.5328 7.0792 95.496 7.5328 96.056 8.44L 96.0896 8.44L 96.0896 4.0048L 98.0048 4.0048ZM 100.144 16L 100.144 7.3144L 102.059 7.3144L 102.059 16L 100.144 16ZM 100.144 5.8192L 100.144 4.0048L 102.059 4.0048L 102.059 5.8192L 100.144 5.8192ZM 103.272 8.7424L 103.272 7.3144L 104.717 7.3144L 104.717 4.7104L 106.632 4.7104L 106.632 7.3144L 108.363 7.3144L 108.363 8.7424L 106.632 8.7424L 106.632 13.3792C 106.632 13.8272 106.677 14.124 106.767 14.2696C 106.89 14.4712 107.153 14.572 107.556 14.572C 107.915 14.572 108.183 14.5496 108.363 14.5048L 108.363 15.9832C 107.523 16.0504 107.108 16.084 107.119 16.084C 106.179 16.084 105.529 15.8936 105.171 15.5128C 104.868 15.1992 104.717 14.6504 104.717 13.8664L 104.717 8.7424L 103.272 8.7424ZM 47.0294 31.2208L 45.1142 31.2208C 44.9574 30.1344 44.2966 29.5912 43.1318 29.5912C 42.4934 29.5912 41.9726 29.7872 41.5694 30.1792C 41.0206 30.7168 40.7462 31.5736 40.7462 32.7496C 40.7462 33.5672 40.9198 34.2448 41.267 34.7824C 41.6814 35.4096 42.275 35.7232 43.0478 35.7232C 43.6078 35.7232 44.067 35.5496 44.4254 35.2024C 44.795 34.844 45.0246 34.3568 45.1142 33.7408L 47.0294 33.7408C 46.6598 36.0704 45.3326 37.2352 43.0478 37.2352C 41.7262 37.2352 40.6846 36.804 39.923 35.9416C 39.195 35.1352 38.831 34.0712 38.831 32.7496C 38.831 31.372 39.1894 30.2632 39.9062 29.4232C 40.6678 28.5272 41.7374 28.0792 43.115 28.0792C 44.179 28.0792 45.0582 28.3368 45.7526 28.852C 46.5142 29.412 46.9398 30.2016 47.0294 31.2208ZM 53.9453 34.0768L 53.9453 32.6488C 53.6989 32.8056 53.3405 32.9232 52.8701 33.0016C 52.4445 33.0576 52.0189 33.1136 51.5933 33.1696C 50.5517 33.3488 50.0309 33.8304 50.0309 34.6144C 50.0309 34.9952 50.2437 35.2864 50.6693 35.488C 50.9941 35.6448 51.3693 35.7232 51.7949 35.7232C 52.3101 35.7232 52.7749 35.6 53.1893 35.3536C 53.6933 35.0512 53.9453 34.6256 53.9453 34.0768ZM 55.8605 30.5992L 55.8605 35.068C 55.8605 35.5048 56.0117 35.7232 56.3141 35.7232C 56.4933 35.7232 56.6501 35.712 56.7845 35.6896L 56.7845 37.0168C 56.3701 37.1624 55.9669 37.2352 55.5749 37.2352C 54.7237 37.2352 54.2309 36.8824 54.0965 36.1768C 53.3797 36.8824 52.3773 37.2352 51.0893 37.2352C 50.2493 37.2352 49.5605 37.0224 49.0229 36.5968C 48.4181 36.1376 48.1157 35.5048 48.1157 34.6984C 48.1157 33.7352 48.4741 33.0408 49.1909 32.6152C 49.6277 32.3576 50.3837 32.1504 51.4589 31.9936C 52.6685 31.8144 53.2733 31.7248 53.2733 31.7248C 53.7997 31.568 54.0629 31.2488 54.0629 30.7672C 54.0629 29.9832 53.4637 29.5912 52.2653 29.5912C 51.0669 29.5912 50.4285 30.0504 50.3501 30.9688L 48.4349 30.9688C 48.5469 29.0424 49.8629 28.0792 52.3829 28.0792C 53.3349 28.0792 54.1245 28.2696 54.7517 28.6504C 55.4909 29.0984 55.8605 29.748 55.8605 30.5992ZM 57.9213 37L 57.9213 28.3144L 59.7189 28.3144L 59.7189 29.9944L 59.7525 29.9944C 59.8645 29.5128 60.1725 29.076 60.6765 28.684C 61.1805 28.2808 61.7181 28.0792 62.2893 28.0792C 62.4349 28.0792 62.6757 28.096 63.0117 28.1296L 63.0117 29.9776C 62.5637 29.9216 62.2893 29.8936 62.1885 29.8936C 61.5053 29.8936 60.9509 30.1512 60.5253 30.6664C 60.0661 31.204 59.8365 31.9376 59.8365 32.8672L 59.8365 37L 57.9213 37ZM 65.3227 32.7496C 65.3227 33.5672 65.5131 34.2504 65.8939 34.7992C 66.3307 35.4152 66.9411 35.7232 67.7251 35.7232C 68.5203 35.7232 69.1419 35.3984 69.5899 34.7488C 69.9707 34.1888 70.1611 33.4888 70.1611 32.6488C 70.1611 31.6968 69.9427 30.952 69.5059 30.4144C 69.0803 29.8656 68.4979 29.5912 67.7587 29.5912C 66.9299 29.5912 66.2971 29.9216 65.8603 30.5824C 65.5019 31.1424 65.3227 31.8648 65.3227 32.7496ZM 72.0091 25.0048L 72.0091 37L 70.1947 37L 70.1947 35.824L 70.1611 35.824C 69.6795 36.7648 68.7835 37.2352 67.4731 37.2352C 66.1515 37.2352 65.1323 36.7872 64.4155 35.8912C 63.7435 35.0624 63.4075 33.9648 63.4075 32.5984C 63.4075 31.12 63.7995 29.972 64.5835 29.1544C 65.2667 28.4376 66.1291 28.0792 67.1707 28.0792C 68.5371 28.0792 69.5003 28.5328 70.0603 29.44L 70.0939 29.44L 70.0939 25.0048L 72.0091 25.0048ZM 73.6275 34.2112L 75.5427 34.2112C 75.6323 35.2192 76.2875 35.7232 77.5083 35.7232C 78.8299 35.7232 79.4739 35.3424 79.4403 34.5808C 79.4179 34.0432 78.9139 33.6568 77.9283 33.4216C 76.2819 33.0184 75.3915 32.7832 75.2571 32.716C 74.2939 32.2904 73.8123 31.5736 73.8123 30.5656C 73.8123 29.7032 74.2211 29.0536 75.0387 28.6168C 75.6883 28.2584 76.4891 28.0792 77.4411 28.0792C 78.4155 28.0792 79.2163 28.2808 79.8435 28.684C 80.5491 29.1544 80.9579 29.8432 81.0699 30.7504L 79.0707 30.7504C 78.9251 29.9776 78.3371 29.5912 77.3067 29.5912C 76.2539 29.5912 75.7275 29.888 75.7275 30.4816C 75.7275 30.8848 76.0243 31.1928 76.6179 31.4056C 76.7299 31.4504 77.3739 31.6072 78.5499 31.876C 79.4235 32.0776 80.0675 32.324 80.4819 32.6152C 81.0643 33.0408 81.3555 33.64 81.3555 34.4128C 81.3555 35.3648 80.9355 36.0928 80.0955 36.5968C 79.3899 37.0224 78.5163 37.2352 77.4747 37.2352C 76.3323 37.2352 75.4251 36.9888 74.7531 36.496C 74.0139 35.9584 73.6387 35.1968 73.6275 34.2112Z"/>
<path id="path4_fill" d="M 22.5824 9.0368L 20.0288 9.0368C 19.9504 8.4432 19.6592 7.9448 19.1552 7.5416C 18.6512 7.1384 18.0688 6.9368 17.408 6.9368C 16.2992 6.9368 15.4592 7.3624 14.888 8.2136C 14.3952 8.9416 14.1488 9.888 14.1488 11.0528C 14.1488 12.1728 14.3952 13.0912 14.888 13.808C 15.4704 14.648 16.3104 15.068 17.408 15.068C 18.192 15.068 18.8248 14.816 19.3064 14.312C 19.7544 13.8416 20.0288 13.1976 20.1296 12.38L 22.6832 12.38C 22.5488 13.8696 22 15.0624 21.0368 15.9584C 20.0848 16.8432 18.8752 17.2856 17.408 17.2856C 15.6048 17.2856 14.16 16.6808 13.0736 15.4712C 12.032 14.3176 11.5112 12.8448 11.5112 11.0528C 11.5112 9.216 12.032 7.7152 13.0736 6.5504C 14.1488 5.3296 15.5936 4.7192 17.408 4.7192C 18.7744 4.7192 19.928 5.0944 20.8688 5.8448C 21.8544 6.6288 22.4256 7.6928 22.5824 9.0368ZM 29.642 13.64L 29.642 12.7496C 29.4516 12.9176 29.0372 13.0464 28.3988 13.136C 27.6708 13.248 27.1892 13.3544 26.954 13.4552C 26.4836 13.668 26.2484 14.0264 26.2484 14.5304C 26.2484 15.2696 26.7356 15.6392 27.71 15.6392C 28.998 15.6392 29.642 14.9728 29.642 13.64ZM 26.5172 10.9856L 24.1316 10.9856C 24.1988 9.9552 24.6524 9.1936 25.4924 8.7008C 26.1868 8.2864 27.094 8.0792 28.214 8.0792C 30.7564 8.0792 32.0276 8.9024 32.0276 10.5488L 32.0276 15.068C 32.0276 16.0312 32.1284 16.6752 32.33 17L 29.9108 17C 29.81 16.6864 29.754 16.4064 29.7428 16.16C 29.0596 16.8768 28.0852 17.2352 26.8196 17.2352C 25.946 17.2352 25.246 17.0224 24.7196 16.5968C 24.1484 16.1376 23.8628 15.4824 23.8628 14.6312C 23.8628 13.7464 24.1708 13.0856 24.7868 12.6488C 25.2348 12.3464 25.9124 12.128 26.8196 11.9936C 28.1076 11.8144 28.7628 11.7192 28.7852 11.708C 29.3564 11.5624 29.642 11.2768 29.642 10.8512C 29.642 10.3808 29.4852 10.056 29.1716 9.8768C 28.9476 9.7424 28.5892 9.6752 28.0964 9.6752C 27.122 9.6752 26.5956 10.112 26.5172 10.9856ZM 33.4593 14.1776L 35.7273 14.1776C 35.7385 14.6704 35.9289 15.0456 36.2985 15.3032C 36.6233 15.5272 37.0433 15.6392 37.5585 15.6392C 37.9729 15.6392 38.3201 15.5608 38.6001 15.404C 38.9473 15.2024 39.1209 14.9112 39.1209 14.5304C 39.1209 14.1944 38.8857 13.9256 38.4153 13.724C 38.0793 13.5784 37.4129 13.3992 36.4161 13.1864C 35.5649 13.0072 34.9321 12.772 34.5177 12.4808C 33.9465 12.1 33.6609 11.5624 33.6609 10.868C 33.6609 9.0088 34.9209 8.0792 37.4409 8.0792C 39.8377 8.0792 41.1145 9.0032 41.2713 10.8512L 39.0033 10.8512C 38.9473 10.0672 38.4041 9.6752 37.3737 9.6752C 36.4889 9.6752 36.0465 9.944 36.0465 10.4816C 36.0465 10.8512 36.3265 11.1368 36.8865 11.3384C 36.9537 11.3608 37.5753 11.5064 38.7513 11.7752C 39.6137 11.9768 40.2465 12.2232 40.6497 12.5144C 41.2209 12.9176 41.5065 13.4832 41.5065 14.2112C 41.5065 15.264 41.0921 16.0536 40.2633 16.58C 39.5801 17.0168 38.6729 17.2352 37.5417 17.2352C 36.4105 17.2352 35.4921 17.0112 34.7865 16.5632C 33.9465 16.0368 33.5041 15.2416 33.4593 14.1776ZM 42.9027 17L 42.9027 5.0048L 45.2883 5.0048L 45.2883 9.524L 45.3387 9.524C 45.6299 9.0536 46.0163 8.6896 46.4979 8.432C 46.9459 8.1968 47.4051 8.0792 47.8755 8.0792C 49.0739 8.0792 49.9195 8.404 50.4123 9.0536C 50.8379 9.6136 51.0507 10.4816 51.0507 11.6576L 51.0507 17L 48.6651 17L 48.6651 12.0944C 48.6651 10.672 48.1555 9.9608 47.1363 9.9608C 46.4867 9.9608 46.0163 10.1568 45.7251 10.5488C 45.4339 10.9408 45.2883 11.5736 45.2883 12.4472L 45.2883 17L 42.9027 17ZM 52.8613 17L 52.8613 5.0048L 55.2469 5.0048L 55.2469 9.3728L 55.2805 9.3728C 55.8517 8.5104 56.7645 8.0792 58.0189 8.0792C 58.9821 8.0792 59.7997 8.4432 60.4717 9.1712C 61.2333 10.0112 61.6141 11.1704 61.6141 12.6488C 61.6141 14.1384 61.2333 15.3032 60.4717 16.1432C 59.7997 16.8712 58.9821 17.2352 58.0189 17.2352C 56.6077 17.2352 55.6557 16.7872 55.1629 15.8912L 55.1293 15.8912L 55.1293 17L 52.8613 17ZM 59.2285 12.6656C 59.2285 11.8704 59.0661 11.2208 58.7413 10.7168C 58.3829 10.1568 57.8677 9.8768 57.1957 9.8768C 56.5237 9.8768 56.0085 10.1568 55.6501 10.7168C 55.3253 11.2208 55.1629 11.8704 55.1629 12.6656C 55.1629 13.4496 55.3253 14.0936 55.6501 14.5976C 56.0197 15.1576 56.5349 15.4376 57.1957 15.4376C 57.8565 15.4376 58.3717 15.1576 58.7413 14.5976C 59.0661 14.0936 59.2285 13.4496 59.2285 12.6656ZM 68.5412 13.64L 68.5412 12.7496C 68.3508 12.9176 67.9364 13.0464 67.298 13.136C 66.57 13.248 66.0884 13.3544 65.8532 13.4552C 65.3828 13.668 65.1476 14.0264 65.1476 14.5304C 65.1476 15.2696 65.6348 15.6392 66.6092 15.6392C 67.8972 15.6392 68.5412 14.9728 68.5412 13.64ZM 65.4164 10.9856L 63.0308 10.9856C 63.098 9.9552 63.5516 9.1936 64.3916 8.7008C 65.086 8.2864 65.9932 8.0792 67.1132 8.0792C 69.6556 8.0792 70.9268 8.9024 70.9268 10.5488L 70.9268 15.068C 70.9268 16.0312 71.0276 16.6752 71.2292 17L 68.81 17C 68.7092 16.6864 68.6532 16.4064 68.642 16.16C 67.9588 16.8768 66.9844 17.2352 65.7188 17.2352C 64.8452 17.2352 64.1452 17.0224 63.6188 16.5968C 63.0476 16.1376 62.762 15.4824 62.762 14.6312C 62.762 13.7464 63.07 13.0856 63.686 12.6488C 64.134 12.3464 64.8116 12.128 65.7188 11.9936C 67.0068 11.8144 67.662 11.7192 67.6844 11.708C 68.2556 11.5624 68.5412 11.2768 68.5412 10.8512C 68.5412 10.3808 68.3844 10.056 68.0708 9.8768C 67.8468 9.7424 67.4884 9.6752 66.9956 9.6752C 66.0212 9.6752 65.4948 10.112 65.4164 10.9856ZM 81.0273 11.372L 78.6921 11.372C 78.5353 10.3752 77.9473 9.8768 76.9281 9.8768C 76.2337 9.8768 75.7017 10.1848 75.3321 10.8008C 75.0409 11.316 74.8953 11.9488 74.8953 12.6992C 74.8953 13.4272 75.0409 14.0376 75.3321 14.5304C 75.6793 15.1352 76.1945 15.4376 76.8777 15.4376C 77.9753 15.4376 78.6081 14.8496 78.7761 13.6736L 81.0777 13.6736C 80.9321 14.816 80.4841 15.6952 79.7337 16.3112C 78.9945 16.9272 78.0481 17.2352 76.8945 17.2352C 75.5953 17.2352 74.5369 16.8208 73.7193 15.992C 72.9129 15.1632 72.5097 14.0936 72.5097 12.7832C 72.5097 11.3944 72.8961 10.2744 73.6689 9.4232C 74.4753 8.5272 75.5673 8.0792 76.9449 8.0792C 78.0425 8.0792 78.9609 8.348 79.7001 8.8856C 80.5177 9.4904 80.9601 10.3192 81.0273 11.372ZM 82.6438 17L 82.6438 5.0048L 85.0294 5.0048L 85.0294 11.4392L 88.0366 8.3144L 90.8589 8.3144L 87.583 11.5064L 91.2286 17L 88.3389 17L 85.9534 13.1192L 85.0294 14.0096L 85.0294 17L 82.6438 17ZM 12.1128 31.372L 9.77762 31.372C 9.62083 30.3752 9.03283 29.8768 8.01363 29.8768C 7.31923 29.8768 6.78723 30.1848 6.41763 30.8008C 6.12643 31.316 5.98083 31.9488 5.98083 32.6992C 5.98083 33.4272 6.12643 34.0376 6.41763 34.5304C 6.76483 35.1352 7.28003 35.4376 7.96323 35.4376C 9.06083 35.4376 9.69362 34.8496 9.86163 33.6736L 12.1632 33.6736C 12.0176 34.816 11.5696 35.6952 10.8192 36.3112C 10.08 36.9272 9.13362 37.2352 7.98002 37.2352C 6.68083 37.2352 5.62243 36.8208 4.80483 35.992C 3.99843 35.1632 3.59523 34.0936 3.59523 32.7832C 3.59523 31.3944 3.98163 30.2744 4.75443 29.4232C 5.56083 28.5272 6.65283 28.0792 8.03042 28.0792C 9.12802 28.0792 10.0464 28.348 10.7856 28.8856C 11.6032 29.4904 12.0456 30.3192 12.1128 31.372ZM 13.5109 37L 13.5109 28.3144L 15.7789 28.3144L 15.7789 29.9272L 15.8125 29.9272C 16.0253 29.3896 16.3949 28.9472 16.9213 28.6C 17.4477 28.2528 18.0021 28.0792 18.5845 28.0792C 18.7637 28.0792 18.9373 28.1072 19.1053 28.1632L 19.1053 30.3808C 18.8589 30.3248 18.5733 30.2968 18.2485 30.2968C 16.6805 30.2968 15.8965 31.2264 15.8965 33.0856L 15.8965 37L 13.5109 37ZM 28.2726 33.2368L 22.0062 33.2368C 22.0734 34.704 22.7846 35.4376 24.1398 35.4376C 24.599 35.4376 25.0134 35.3144 25.383 35.068C 25.7302 34.8552 25.943 34.6032 26.0214 34.312L 28.1214 34.312C 27.483 36.2608 26.1278 37.2352 24.0558 37.2352C 22.7006 37.2352 21.6198 36.8152 20.8134 35.9752C 20.0182 35.124 19.6206 34.0208 19.6206 32.6656C 19.6206 31.344 20.0294 30.252 20.847 29.3896C 21.6758 28.516 22.7454 28.0792 24.0558 28.0792C 25.467 28.0792 26.559 28.6056 27.3318 29.6584C 28.0486 30.6216 28.3622 31.8144 28.2726 33.2368ZM 22.0062 31.7248L 25.887 31.7248C 25.663 30.4928 25.0302 29.8768 23.9886 29.8768C 23.3166 29.8768 22.8014 30.1008 22.443 30.5488C 22.1742 30.8848 22.0286 31.2768 22.0062 31.7248ZM 35.8867 37L 35.8867 35.8912L 35.8531 35.8912C 35.3267 36.7872 34.4475 37.2352 33.2155 37.2352C 31.9723 37.2352 30.9979 36.7592 30.2923 35.8072C 29.6427 34.9448 29.3179 33.8696 29.3179 32.5816C 29.3179 31.3272 29.6427 30.2856 30.2923 29.4568C 30.9979 28.5384 31.9555 28.0792 33.1651 28.0792C 34.3299 28.0792 35.1923 28.5104 35.7523 29.3728L 35.7691 29.3728L 35.7691 25.0048L 38.1547 25.0048L 38.1547 37L 35.8867 37ZM 35.8531 32.632C 35.8531 31.8368 35.7075 31.1984 35.4163 30.7168C 35.0579 30.1568 34.5203 29.8768 33.8035 29.8768C 33.0755 29.8768 32.5323 30.1624 32.1739 30.7336C 31.8603 31.2152 31.7035 31.8536 31.7035 32.6488C 31.7035 33.4104 31.8715 34.0432 32.2075 34.5472C 32.5771 35.1408 33.1091 35.4376 33.8035 35.4376C 35.1699 35.4376 35.8531 34.5024 35.8531 32.632ZM 40.025 37L 40.025 28.3144L 42.4106 28.3144L 42.4106 37L 40.025 37ZM 42.4106 25.0048L 42.4106 26.9704L 40.025 26.9704L 40.025 25.0048L 42.4106 25.0048ZM 47.313 25.7104L 47.313 28.3144L 49.0602 28.3144L 49.0602 29.9104L 47.313 29.9104L 47.313 34.2112C 47.313 34.6144 47.3802 34.8832 47.5146 35.0176C 47.649 35.152 47.9178 35.2192 48.321 35.2192C 48.5898 35.2192 48.8362 35.1968 49.0602 35.152L 49.0602 37.0168C 48.7242 37.0728 48.2594 37.1008 47.6658 37.1008C 45.8402 37.1008 44.9274 36.412 44.9274 35.0344L 44.9274 29.9104L 43.4826 29.9104L 43.4826 28.3144L 44.9274 28.3144L 44.9274 25.7104L 47.313 25.7104ZM 63.1199 31.372L 60.7847 31.372C 60.6279 30.3752 60.0399 29.8768 59.0207 29.8768C 58.3263 29.8768 57.7943 30.1848 57.4247 30.8008C 57.1335 31.316 56.9879 31.9488 56.9879 32.6992C 56.9879 33.4272 57.1335 34.0376 57.4247 34.5304C 57.7719 35.1352 58.2871 35.4376 58.9703 35.4376C 60.0679 35.4376 60.7007 34.8496 60.8687 33.6736L 63.1703 33.6736C 63.0247 34.816 62.5767 35.6952 61.8263 36.3112C 61.0871 36.9272 60.1407 37.2352 58.9871 37.2352C 57.6879 37.2352 56.6295 36.8208 55.8119 35.992C 55.0055 35.1632 54.6023 34.0936 54.6023 32.7832C 54.6023 31.3944 54.9887 30.2744 55.7615 29.4232C 56.5679 28.5272 57.6599 28.0792 59.0375 28.0792C 60.1351 28.0792 61.0535 28.348 61.7927 28.8856C 62.6103 29.4904 63.0527 30.3192 63.1199 31.372ZM 69.9275 33.64L 69.9275 32.7496C 69.7371 32.9176 69.3227 33.0464 68.6843 33.136C 67.9563 33.248 67.4747 33.3544 67.2395 33.4552C 66.7691 33.668 66.5339 34.0264 66.5339 34.5304C 66.5339 35.2696 67.0211 35.6392 67.9955 35.6392C 69.2835 35.6392 69.9275 34.9728 69.9275 33.64ZM 66.8027 30.9856L 64.4171 30.9856C 64.4843 29.9552 64.9379 29.1936 65.7779 28.7008C 66.4723 28.2864 67.3795 28.0792 68.4995 28.0792C 71.0419 28.0792 72.3131 28.9024 72.3131 30.5488L 72.3131 35.068C 72.3131 36.0312 72.4139 36.6752 72.6155 37L 70.1963 37C 70.0955 36.6864 70.0395 36.4064 70.0283 36.16C 69.3451 36.8768 68.3707 37.2352 67.1051 37.2352C 66.2315 37.2352 65.5315 37.0224 65.0051 36.5968C 64.4339 36.1376 64.1483 35.4824 64.1483 34.6312C 64.1483 33.7464 64.4563 33.0856 65.0723 32.6488C 65.5203 32.3464 66.1979 32.128 67.1051 31.9936C 68.3931 31.8144 69.0483 31.7192 69.0707 31.708C 69.6419 31.5624 69.9275 31.2768 69.9275 30.8512C 69.9275 30.3808 69.7707 30.056 69.4571 29.8768C 69.2331 29.7424 68.8747 29.6752 68.3819 29.6752C 67.4075 29.6752 66.8811 30.112 66.8027 30.9856ZM 74.1648 37L 74.1648 28.3144L 76.4328 28.3144L 76.4328 29.9272L 76.4664 29.9272C 76.6792 29.3896 77.0488 28.9472 77.5752 28.6C 78.1016 28.2528 78.656 28.0792 79.2384 28.0792C 79.4176 28.0792 79.5912 28.1072 79.7592 28.1632L 79.7592 30.3808C 79.5128 30.3248 79.2272 30.2968 78.9024 30.2968C 77.3344 30.2968 76.5504 31.2264 76.5504 33.0856L 76.5504 37L 74.1648 37ZM 86.8937 37L 86.8937 35.8912L 86.8601 35.8912C 86.3337 36.7872 85.4545 37.2352 84.2225 37.2352C 82.9793 37.2352 82.0049 36.7592 81.2993 35.8072C 80.6497 34.9448 80.3249 33.8696 80.3249 32.5816C 80.3249 31.3272 80.6497 30.2856 81.2993 29.4568C 82.0049 28.5384 82.9625 28.0792 84.1721 28.0792C 85.3369 28.0792 86.1993 28.5104 86.7593 29.3728L 86.7761 29.3728L 86.7761 25.0048L 89.1617 25.0048L 89.1617 37L 86.8937 37ZM 86.8601 32.632C 86.8601 31.8368 86.7145 31.1984 86.4233 30.7168C 86.0649 30.1568 85.5273 29.8768 84.8105 29.8768C 84.0825 29.8768 83.5393 30.1624 83.1809 30.7336C 82.8673 31.2152 82.7105 31.8536 82.7105 32.6488C 82.7105 33.4104 82.8785 34.0432 83.2145 34.5472C 83.5841 35.1408 84.1161 35.4376 84.8105 35.4376C 86.1769 35.4376 86.8601 34.5024 86.8601 32.632ZM 90.5448 34.1776L 92.8128 34.1776C 92.824 34.6704 93.0144 35.0456 93.384 35.3032C 93.7088 35.5272 94.1288 35.6392 94.644 35.6392C 95.0584 35.6392 95.4056 35.5608 95.6856 35.404C 96.0328 35.2024 96.2064 34.9112 96.2064 34.5304C 96.2064 34.1944 95.9712 33.9256 95.5008 33.724C 95.1648 33.5784 94.4984 33.3992 93.5016 33.1864C 92.6504 33.0072 92.0176 32.772 91.6032 32.4808C 91.032 32.1 90.7464 31.5624 90.7464 30.868C 90.7464 29.0088 92.0064 28.0792 94.5264 28.0792C 96.9232 28.0792 98.2 29.0032 98.3568 30.8512L 96.0888 30.8512C 96.0328 30.0672 95.4896 29.6752 94.4592 29.6752C 93.5744 29.6752 93.132 29.944 93.132 30.4816C 93.132 30.8512 93.412 31.1368 93.972 31.3384C 94.0392 31.3608 94.6608 31.5064 95.8368 31.7752C 96.6992 31.9768 97.332 32.2232 97.7352 32.5144C 98.3064 32.9176 98.592 33.4832 98.592 34.2112C 98.592 35.264 98.1776 36.0536 97.3488 36.58C 96.6656 37.0168 95.7584 37.2352 94.6272 37.2352C 93.496 37.2352 92.5776 37.0112 91.872 36.5632C 91.032 36.0368 90.5896 35.2416 90.5448 34.1776Z"/>
</defs>
</svg>
