<?xml version="1.0" encoding="UTF-8"?>
<svg width="153px" height="153px" viewBox="0 0 153 153" version="1.1" xmlns="http://www.w3.org/2000/svg" xmlns:xlink="http://www.w3.org/1999/xlink">
    <!-- Generator: Sketch 47 (45396) - http://www.bohemiancoding.com/sketch -->
    <title>ww_card_shuffle</title>
    <desc>Created with Sketch.</desc>
    <defs>
        <polygon id="path-1" points="0.000145131056 0.226406393 109.138554 0.226406393 109.138554 67.7100599 0.000145131056 67.7100599 0.000145131056 0.226406393"></polygon>
        <polygon id="path-3" points="0 21.8904584 0 43.5284549 109.138554 43.5284549 109.138554 21.8904584 109.138554 0.252461862 0 0.252461862"></polygon>
        <polygon id="path-5" points="0 68.1337174 109.138554 68.1337174 109.138554 0.292137281 0 0.292137281"></polygon>
    </defs>
    <g id="Design" stroke="none" stroke-width="1" fill="none" fill-rule="evenodd">
        <g id="WW-carousel-Copy" transform="translate(-112.000000, -3124.000000)">
            <g id="ww_card_shuffle" transform="translate(97.000000, 3109.000000)">
                <g id="Credit-Card--Copy" transform="translate(36.379518, 57.325301)">
                    <g id="Group-3" transform="translate(0.000000, 0.065731)">
                        <mask id="mask-2" fill="white">
                            <use xlink:href="#path-1"></use>
                        </mask>
                        <g id="Clip-2"></g>
                        <path d="M103.76885,67.7100599 L5.36999421,67.7100599 C2.41657722,67.7100599 0.000145131056,65.278017 0.000145131056,62.3055202 L0.000145131056,5.63088767 C0.000145131056,2.65839083 2.41657722,0.226347965 5.36999421,0.226347965 L103.76885,0.226347965 C106.722267,0.226347965 109.138699,2.65839083 109.138699,5.63088767 L109.138699,62.3055202 C109.138699,65.278017 106.722267,67.7100599 103.76885,67.7100599" id="Fill-1" fill="#164AA5" mask="url(#mask-2)"></path>
                    </g>
                    <g id="Group-6" transform="translate(0.000000, 24.605262)">
                        <mask id="mask-4" fill="white">
                            <use xlink:href="#path-3"></use>
                        </mask>
                        <g id="Clip-5"></g>
                        <path d="M0,9.78671577 L0,38.124032 C0,41.0965289 2.47564556,43.5285717 5.50162808,43.5285717 L103.636926,43.5285717 C106.662909,43.5285717 109.138554,41.0965289 109.138554,38.124032 L109.138554,9.78671577 C97.3989031,5.55364657 79.0131204,0.469873603 56.0487431,0.259242623 C31.5767444,0.0345890541 12.0647447,5.43708379 0,9.78671577" id="Fill-4" fill="#103D72" mask="url(#mask-4)"></path>
                    </g>
                    <path d="M56.2262384,12.0406133 C55.9969313,12.1562997 55.4799745,12.2798738 54.8071469,12.2798738 C52.8960612,12.2798738 51.9120726,11.0829873 51.9120726,9.49785043 C51.9120726,7.59925024 53.2571472,6.54258969 54.9305083,6.54258969 C55.5786636,6.54258969 56.0706579,6.67463574 56.2921279,6.79002997 L56.037568,7.78884733 C55.7835887,7.68163295 55.4309202,7.58259841 54.9873997,7.58259841 C53.9952838,7.58259841 53.2240573,8.18527762 53.2240573,9.42364756 C53.2240573,10.5378591 53.8806302,11.239865 54.9961075,11.239865 C55.3734483,11.239865 55.791716,11.1574823 56.037568,11.0581556 L56.2262384,12.0406133 Z" id="Fill-7" fill="#FFFFFF"></path>
                    <path d="M58.284429,9.10153699 L58.7767135,9.10153699 C59.4004868,9.10153699 59.7694099,8.78807369 59.7694099,8.3007887 C59.7694099,7.78896419 59.4248688,7.53305193 58.8504401,7.52487209 C58.5468259,7.52487209 58.3749907,7.54970376 58.284429,7.56606344 L58.284429,9.10153699 Z M57.0458805,6.70747197 C57.4481838,6.64144895 58.0469946,6.59178561 58.7114045,6.59178561 C59.531395,6.59178561 60.1058237,6.71565182 60.4997094,7.02940726 C60.8277056,7.2937915 61.0082486,7.68174981 61.0082486,8.19357432 C61.0082486,8.90346792 60.5072562,9.39046076 60.0320971,9.56399031 L60.0320971,9.58882198 C60.4175652,9.74540756 60.6306176,10.1172983 60.7699434,10.6291228 C60.9423591,11.2563416 61.1144846,11.9825949 61.2210108,12.1976079 L59.9415354,12.1976079 C59.8515541,12.0407302 59.7200654,11.5864567 59.5563575,10.9013948 C59.4086141,10.2078609 59.1708895,10.0179716 58.66206,10.0094997 L58.284429,10.0094997 L58.284429,12.1976079 L57.0458805,12.1976079 L57.0458805,6.70747197 Z" id="Fill-9" fill="#FFFFFF"></path>
                    <polygon id="Fill-11" fill="#FFFFFF" points="65.1988498 9.84473424 63.1644027 9.84473424 63.1644027 11.1654869 65.4368647 11.1654869 65.4368647 12.1976079 61.9098898 12.1976079 61.9098898 6.6332691 65.3222112 6.6332691 65.3222112 7.66509798 63.1644027 7.66509798 63.1644027 8.82079307 65.1988498 8.82079307"></polygon>
                    <path d="M67.544487,11.2480741 C67.6513034,11.2729058 67.8231386,11.2729058 67.9792996,11.2729058 C69.1110316,11.2810856 69.8491681,10.6535747 69.8491681,9.32464223 C69.8575857,8.16865501 69.1847582,7.55779596 68.1104981,7.55779596 C67.8315562,7.55779596 67.6513034,7.58262763 67.544487,7.6074593 L67.544487,11.2480741 Z M66.2896839,6.70738433 C66.7488785,6.63318146 67.3476893,6.59199011 67.9792996,6.59199011 C69.0288874,6.59199011 69.7098423,6.78187934 70.2433441,7.18648947 C70.8171923,7.615347 71.1782784,8.30070106 71.1782784,9.28315874 C71.1782784,10.3482913 70.79252,11.0830165 70.2595988,11.5369979 C69.677333,12.0239907 68.791453,12.2550713 67.7081948,12.2550713 C67.0603298,12.2550713 66.6014254,12.2141721 66.2896839,12.1726886 L66.2896839,6.70738433 Z" id="Fill-13" fill="#FFFFFF"></path>
                    <mask id="mask-6" fill="white">
                        <use xlink:href="#path-5"></use>
                    </mask>
                    <g id="Clip-16"></g>
                    <polygon id="Fill-15" fill="#FFFFFF" mask="url(#mask-6)" points="71.9983559 12.1976079 73.253159 12.1976079 73.253159 6.6332691 71.9983559 6.6332691"></polygon>
                    <polygon id="Fill-17" fill="#FFFFFF" mask="url(#mask-6)" points="75.4016792 7.68992965 73.9172787 7.68992965 73.9172787 6.6332691 78.1661355 6.6332691 78.1661355 7.68992965 76.6567725 7.68992965 76.6567725 12.1976079 75.4016792 12.1976079"></polygon>
                    <path d="M84.5471998,12.0406133 C84.3173122,12.1562997 83.8009359,12.2798738 83.1281083,12.2798738 C81.216442,12.2798738 80.2327437,11.0829873 80.2327437,9.49785043 C80.2327437,7.59925024 81.5781086,6.54258969 83.2508892,6.54258969 C83.8990445,6.54258969 84.3910387,6.67463574 84.6125087,6.79002997 L84.3585294,7.78884733 C84.1042598,7.68163295 83.751301,7.58259841 83.3083611,7.58259841 C82.3159549,7.58259841 81.5450187,8.18527762 81.5450187,9.42364756 C81.5450187,10.5378591 82.2010111,11.239865 83.3167787,11.239865 C83.6941194,11.239865 84.1123871,11.1574823 84.3585294,11.0581556 L84.5471998,12.0406133 Z" id="Fill-18" fill="#FFFFFF" mask="url(#mask-6)"></path>
                    <path d="M88.1391934,9.82817005 L87.7946523,8.6476433 C87.6965437,8.31723603 87.5975643,7.90444606 87.5160006,7.57433093 L87.4994557,7.57433093 C87.4173115,7.90444606 87.3348771,8.32541588 87.2451861,8.6476433 L86.9171899,9.82817005 L88.1391934,9.82817005 Z M86.7363566,10.7694364 L86.3430514,12.1974034 L85.0467408,12.1974034 L86.7363566,6.63306461 L88.3772083,6.63306461 L90.0917866,12.1974034 L88.7464217,12.1974034 L88.3194462,10.7694364 L86.7363566,10.7694364 Z" id="Fill-19" fill="#FFFFFF" mask="url(#mask-6)"></path>
                    <path d="M92.0673686,9.10153699 L92.5596531,9.10153699 C93.1834264,9.10153699 93.5523496,8.78807369 93.5523496,8.3007887 C93.5523496,7.78896419 93.2078084,7.53305193 92.6333797,7.52487209 C92.3297656,7.52487209 92.1579304,7.54970376 92.0673686,7.56606344 L92.0673686,9.10153699 Z M90.8288202,6.70747197 C91.2311235,6.64144895 91.8299342,6.59178561 92.4943442,6.59178561 C93.3143346,6.59178561 93.8884731,6.71565182 94.282649,7.02940726 C94.6106452,7.2937915 94.790898,7.68174981 94.790898,8.19357432 C94.790898,8.90346792 94.2904861,9.39046076 93.8150368,9.56399031 L93.8150368,9.58882198 C94.2005049,9.74540756 94.4135573,10.1172983 94.5528831,10.6291228 C94.7252988,11.2563416 94.8974242,11.9825949 95.0039504,12.1976079 L93.724475,12.1976079 C93.6342035,12.0407302 93.503005,11.5864567 93.3392972,10.9013948 C93.1915538,10.2078609 92.9538291,10.0179716 92.4449996,10.0094997 L92.0673686,10.0094997 L92.0673686,12.1976079 L90.8288202,12.1976079 L90.8288202,6.70747197 Z" id="Fill-20" fill="#FFFFFF" mask="url(#mask-6)"></path>
                    <path d="M96.9474004,11.2480741 C97.0545071,11.2729058 97.2266325,11.2729058 97.3825033,11.2729058 C98.5142353,11.2810856 99.2523718,10.6535747 99.2523718,9.32464223 C99.2610797,8.16865501 98.5882521,7.55779596 97.5134115,7.55779596 C97.2347599,7.55779596 97.0545071,7.58262763 96.9474004,7.6074593 L96.9474004,11.2480741 Z M95.6928875,6.70738433 C96.1517919,6.63318146 96.7508929,6.59199011 97.3825033,6.59199011 C98.4323813,6.59199011 99.1133363,6.78187934 99.6465478,7.18648947 C100.220106,7.615347 100.581772,8.30070106 100.581772,9.28315874 C100.581772,10.3482913 100.195724,11.0830165 99.6625122,11.5369979 C99.0805366,12.0239907 98.1943664,12.2550713 97.1116887,12.2550713 C96.4635334,12.2550713 96.0043388,12.2141721 95.6928875,12.1726886 L95.6928875,6.70738433 Z" id="Fill-21" fill="#FFFFFF" mask="url(#mask-6)"></path>
                    <path d="M24.2208639,31.9036698 L13.7714279,31.9036698 C12.0951642,31.9036698 10.7236757,30.5233211 10.7236757,28.8362283 L10.7236757,21.240659 C10.7236757,19.5538583 12.0951642,18.1732176 13.7714279,18.1732176 L24.2208639,18.1732176 C25.8971276,18.1732176 27.2686161,19.5538583 27.2686161,21.240659 L27.2686161,28.8362283 C27.2686161,30.5233211 25.8971276,31.9036698 24.2208639,31.9036698" id="Fill-22" fill="#D3B82F" mask="url(#mask-6)"></path>
                    <path d="M17.3056013,24.7719852 C16.657446,25.2797198 16.2385978,26.0705355 16.2385978,26.961262 C16.2385978,28.4941063 17.4730825,29.7365662 18.9960878,29.7365662 C20.5190931,29.7365662 21.7535779,28.4941063 21.7535779,26.961262 C21.7535779,26.0705355 21.3347297,25.2797198 20.6865744,24.7719852 C21.1994675,24.3063184 21.5236903,23.6341105 21.5236903,22.8844863 C21.5236903,21.479306 20.3919583,20.3402627 18.9960878,20.3402627 C17.6002173,20.3402627 16.4684854,21.479306 16.4684854,22.8844863 C16.4684854,23.6341105 16.7927081,24.3063184 17.3056013,24.7719852" id="Fill-23" fill="#D3B82F" mask="url(#mask-6)"></path>
                    <path d="M18.9961459,20.6324 C17.7625319,20.6324 16.7588055,21.6426107 16.7588055,22.8844863 C16.7588055,23.5184242 17.0287493,24.1275304 17.500135,24.5552194 L17.7570169,24.7886371 L17.4838803,25.0024816 C16.8769422,25.4777889 16.5289179,26.1917724 16.5289179,26.961262 C16.5289179,28.3305095 17.6356874,29.4444289 18.9961459,29.4444289 C20.3566044,29.4444289 21.4633738,28.3305095 21.4633738,26.961262 C21.4633738,26.1917724 21.1153496,25.4780811 20.5081212,25.0024816 L20.2349846,24.7886371 L20.4921568,24.5552194 C20.9632522,24.1275304 21.2334862,23.5184242 21.2334862,22.8844863 C21.2334862,21.6426107 20.2297599,20.6324 18.9961459,20.6324 M18.9961459,30.0287035 C17.3155283,30.0287035 15.9483937,28.6527369 15.9483937,26.961262 C15.9483937,26.1196145 16.2850978,25.3320124 16.8818767,24.7550413 C16.4313899,24.2397111 16.1782813,23.5739303 16.1782813,22.8844863 C16.1782813,21.3203833 17.4420825,20.0481254 18.9961459,20.0481254 C20.549919,20.0481254 21.8140105,21.3203833 21.8140105,22.8844863 C21.8140105,23.5739303 21.5606116,24.2397111 21.1104151,24.7550413 C21.707194,25.3320124 22.0438981,26.1196145 22.0438981,26.961262 C22.0438981,28.6527369 20.6767635,30.0287035 18.9961459,30.0287035" id="Fill-24" fill="#575756" mask="url(#mask-6)"></path>
                    <polygon id="Fill-25" fill="#575756" mask="url(#mask-6)" points="25.0191428 30.0837129 25.599667 30.0837129 25.599667 19.9932912 25.0191428 19.9932912"></polygon>
                    <polygon id="Fill-26" fill="#575756" mask="url(#mask-6)" points="12.3927409 30.0837129 12.9732651 30.0837129 12.9732651 19.9932912 12.3927409 19.9932912"></polygon>
                    <polygon id="Fill-27" fill="#575756" mask="url(#mask-6)" points="12.683003 22.567605 16.5388449 22.567605 16.5388449 21.9833304 12.683003 21.9833304"></polygon>
                    <polygon id="Fill-28" fill="#575756" mask="url(#mask-6)" points="21.5670555 22.567605 25.4231876 22.567605 25.4231876 21.9833304 21.5670555 21.9833304"></polygon>
                    <polygon id="Fill-29" fill="#575756" mask="url(#mask-6)" points="12.6258214 28.045179 16.4819535 28.045179 16.4819535 27.4609044 12.6258214 27.4609044"></polygon>
                    <polygon id="Fill-30" fill="#575756" mask="url(#mask-6)" points="21.5104544 28.045179 25.3662963 28.045179 25.3662963 27.4609044 21.5104544 27.4609044"></polygon>
                    <path d="M10.9074987,39.8347295 L12.1355977,39.8347295 C12.3492306,39.8347295 12.5094553,39.8683253 12.66968,40.0228659 C12.8566088,40.197564 12.8766369,40.3588238 12.8766369,40.5939943 L12.8766369,42.0316019 C12.8766369,42.2396036 12.8566088,42.3874251 12.7164122,42.555404 C12.5495115,42.7569788 12.3759347,42.7838554 12.1355977,42.7838554 L10.6538096,42.7838554 C10.4802329,42.7838554 10.3803827,42.7368213 10.213482,42.6629105 L9.95979288,42.5486849 C9.77954011,42.4683471 9.57925926,42.4078747 9.57925926,42.1724121 C9.57925926,41.997714 9.72613188,41.8367463 9.89970863,41.8367463 C9.97982097,41.8367463 10.0399052,41.8569038 10.1133415,41.8904996 L10.3136224,41.9778486 C10.4067965,42.0181636 10.5603452,42.1122318 10.6671617,42.1122318 L12.209034,42.1122318 L12.209034,40.5066453 L10.2401861,40.5066453 L10.2401861,37.5575194 L12.5428354,37.5575194 C12.7164122,37.5575194 12.8766369,37.6512955 12.8766369,37.8931852 C12.8766369,38.135367 12.7164122,38.229143 12.5428354,38.229143 L10.9074987,38.229143 L10.9074987,39.8347295 Z" id="Fill-31" fill="#FFFFFF" mask="url(#mask-6)"></path>
                    <path d="M15.0533705,42.1122026 L17.3493438,42.1122026 C17.5229205,42.1122026 17.6831452,42.2059786 17.6831452,42.4478683 C17.6831452,42.6900501 17.5229205,42.7838262 17.3493438,42.7838262 L14.3860579,42.7838262 L14.3860579,40.5939651 C14.3860579,40.0900283 14.6394567,39.8347003 15.1401589,39.8347003 L17.0158326,39.8347003 L17.0158326,38.2291138 L14.7195691,38.2291138 C14.5459923,38.2291138 14.3860579,38.1353377 14.3860579,37.8934481 C14.3860579,37.6512663 14.5459923,37.5574902 14.7195691,37.5574902 L16.93543,37.5574902 C17.1560292,37.5574902 17.3092876,37.591086 17.4761883,37.7456266 C17.6631171,37.9200326 17.6831452,38.1014498 17.6831452,38.3436316 L17.6831452,39.7204746 C17.6831452,39.9626564 17.6631171,40.1437816 17.4761883,40.3184797 C17.3092876,40.4730203 17.1560292,40.5066161 16.93543,40.5066161 L15.0533705,40.5066161 L15.0533705,42.1122026 Z" id="Fill-32" fill="#FFFFFF" mask="url(#mask-6)"></path>
                    <path d="M20.5273366,39.8346711 L21.1548833,39.8346711 L21.1548833,38.2290846 L20.5273366,38.2290846 L20.5273366,39.8346711 Z M19.860024,42.1121733 L21.8224861,42.1121733 L21.8224861,40.5065868 L19.860024,40.5065868 L19.860024,42.1121733 Z M21.4886847,37.557461 C21.7153794,37.557461 21.8224861,37.7187208 21.8224861,37.8934189 L21.8224861,39.8346711 C22.0291527,39.8346711 22.1893774,39.9085818 22.3095459,40.0228075 C22.4297145,40.1370332 22.4897987,40.3050121 22.4897987,40.5130139 L22.4897987,42.1121733 C22.4897987,42.5217498 22.2361096,42.783797 21.8224861,42.783797 L19.860024,42.783797 C19.4461102,42.783797 19.1927114,42.5217498 19.1927114,42.1121733 L19.1927114,40.5130139 C19.1927114,40.3050121 19.2525054,40.1370332 19.3726739,40.0228075 C19.4928424,39.9085818 19.6530671,39.8346711 19.860024,39.8346711 L19.860024,37.8934189 C19.860024,37.7187208 19.9668404,37.557461 20.1938254,37.557461 L21.4886847,37.557461 Z" id="Fill-33" fill="#FFFFFF" mask="url(#mask-6)"></path>
                    <path d="M24.6664743,42.1121733 L26.6289364,42.1121733 L26.6289364,41.0774231 L24.6664743,41.0774231 L24.6664743,42.1121733 Z M24.6664743,40.4057995 L26.8959776,40.4057995 C27.229779,40.4057995 27.2965393,40.5469018 27.2965393,40.8556909 L27.2965393,42.3607822 C27.2965393,42.6765826 27.1630187,42.783797 26.8625974,42.783797 L24.4331036,42.783797 C24.1193302,42.783797 23.9991617,42.6695713 23.9991617,42.3607822 L23.9991617,37.8934189 C23.9991617,37.7388782 24.0525699,37.557461 24.2862309,37.557461 L24.6865024,37.557461 C24.8600791,37.557461 25.0002757,37.7187208 25.0002757,37.8934189 C25.0002757,38.0949936 24.8600791,38.2290846 24.6664743,38.2290846 L24.6664743,40.4057995 Z" id="Fill-34" fill="#FFFFFF" mask="url(#mask-6)"></path>
                    <path d="M34.2796942,38.2291138 C34.2796942,38.3772274 34.159816,38.5650717 33.9461831,38.5650717 C33.7325501,38.5650717 33.6123816,38.3772274 33.6123816,38.2291138 L33.6123816,37.8934481 C33.6123816,37.7456266 33.7325501,37.5574902 33.9461831,37.5574902 L36.9097592,37.5574902 L36.9097592,39.5054616 C36.9097592,39.7409242 36.9164353,39.7678009 36.7292162,39.9287685 L35.7951527,40.7417866 C35.6212857,40.8963272 35.6079337,40.9097655 35.6079337,41.1446439 L35.6079337,42.4478683 C35.6079337,42.6628813 35.5147595,42.7838262 35.2744225,42.7838262 C35.0340855,42.7838262 34.9406211,42.6628813 34.9406211,42.4478683 L34.9406211,40.8288435 C34.9406211,40.6074034 34.9472971,40.5869538 35.1141978,40.4391323 L36.0351995,39.6398447 C36.2555084,39.4449892 36.2421564,39.4520005 36.2421564,39.1563575 L36.2421564,38.2291138 L34.2796942,38.2291138 Z" id="Fill-35" fill="#FFFFFF" mask="url(#mask-6)"></path>
                    <path d="M38.7526914,38.2291138 C38.5791147,38.2291138 38.4191803,38.1353377 38.4191803,37.8934481 C38.4191803,37.6512663 38.5791147,37.5574902 38.7526914,37.5574902 L41.0486647,37.5574902 C41.4291984,37.5574902 41.7162676,37.8461218 41.7162676,38.2291138 L41.7162676,39.5188999 C41.7162676,39.7876662 41.6628594,39.9825218 41.4559025,40.1706582 C41.6628594,40.3587946 41.7162676,40.5536502 41.7162676,40.8224165 L41.7162676,42.1122026 C41.7162676,42.4951945 41.4291984,42.7838262 41.0486647,42.7838262 L38.7526914,42.7838262 C38.5791147,42.7838262 38.4191803,42.6900501 38.4191803,42.4478683 C38.4191803,42.2059786 38.5791147,42.1122026 38.7526914,42.1122026 L41.0486647,42.1122026 L41.0486647,40.9971146 C41.0486647,40.6208417 40.9017921,40.5066161 40.7151536,40.5066161 L39.4069422,40.5066161 C39.2333655,40.5066161 39.0731408,40.4125479 39.0731408,40.1706582 C39.0731408,39.9287685 39.2333655,39.8347003 39.4069422,39.8347003 L40.7151536,39.8347003 C40.9017921,39.8347003 41.0486647,39.7204746 41.0486647,39.3442018 L41.0486647,38.2291138 L38.7526914,38.2291138 Z" id="Fill-36" fill="#FFFFFF" mask="url(#mask-6)"></path>
                    <path d="M44.560459,39.8346711 L45.1880056,39.8346711 L45.1880056,38.2290846 L44.560459,38.2290846 L44.560459,39.8346711 Z M43.8928561,42.1121733 L45.8553182,42.1121733 L45.8553182,40.5065868 L43.8928561,40.5065868 L43.8928561,42.1121733 Z M45.5218071,37.557461 C45.748792,37.557461 45.8553182,37.7187208 45.8553182,37.8934189 L45.8553182,39.8346711 C46.0622751,39.8346711 46.2224998,39.9085818 46.3426683,40.0228075 C46.4628368,40.1370332 46.5229211,40.3050121 46.5229211,40.5130139 L46.5229211,42.1121733 C46.5229211,42.5217498 46.269232,42.783797 45.8553182,42.783797 L43.8928561,42.783797 C43.4792326,42.783797 43.2255435,42.5217498 43.2255435,42.1121733 L43.2255435,40.5130139 C43.2255435,40.3050121 43.2856278,40.1370332 43.4060865,40.0228075 C43.5259648,39.9085818 43.6861895,39.8346711 43.8928561,39.8346711 L43.8928561,37.8934189 C43.8928561,37.7187208 43.9996726,37.557461 44.2269478,37.557461 L45.5218071,37.557461 Z" id="Fill-37" fill="#FFFFFF" mask="url(#mask-6)"></path>
                    <path d="M48.6995967,42.1121733 L50.6620588,42.1121733 L50.6620588,38.2290846 L48.6995967,38.2290846 L48.6995967,42.1121733 Z M50.6620588,37.557461 C51.0289501,37.557461 51.3293714,37.8595309 51.3293714,38.2290846 L51.3293714,42.1121733 C51.3293714,42.488154 51.0423022,42.783797 50.6620588,42.783797 L48.6995967,42.783797 C48.319063,42.783797 48.0322841,42.488154 48.0322841,42.1121733 L48.0322841,38.2290846 C48.0322841,37.8595309 48.3324151,37.557461 48.6995967,37.557461 L50.6620588,37.557461 Z" id="Fill-38" fill="#FFFFFF" mask="url(#mask-6)"></path>
                    <path d="M58.3127876,42.1122026 L60.6090511,42.1122026 C60.7826279,42.1122026 60.9428526,42.2059786 60.9428526,42.4478683 C60.9428526,42.6900501 60.7826279,42.7838262 60.6090511,42.7838262 L57.645475,42.7838262 L57.645475,40.5939651 C57.645475,40.0900283 57.8991641,39.8347003 58.3998662,39.8347003 L60.2752497,39.8347003 L60.2752497,38.2291138 L57.9792764,38.2291138 C57.8056997,38.2291138 57.645475,38.1353377 57.645475,37.8934481 C57.645475,37.6512663 57.8056997,37.5574902 57.9792764,37.5574902 L60.1951374,37.5574902 C60.4154463,37.5574902 60.5687047,37.591086 60.7358957,37.7456266 C60.9225342,37.9200326 60.9428526,38.1014498 60.9428526,38.3436316 L60.9428526,39.7204746 C60.9428526,39.9626564 60.9225342,40.1437816 60.7358957,40.3184797 C60.5687047,40.4730203 60.4154463,40.5066161 60.1951374,40.5066161 L58.3127876,40.5066161 L58.3127876,42.1122026 Z" id="Fill-39" fill="#FFFFFF" mask="url(#mask-6)"></path>
                    <path d="M63.119383,38.2291138 C63.119383,38.3772274 62.9995048,38.5650717 62.7858719,38.5650717 C62.5722389,38.5650717 62.4520704,38.3772274 62.4520704,38.2291138 L62.4520704,37.8934481 C62.4520704,37.7456266 62.5722389,37.5574902 62.7858719,37.5574902 L65.749448,37.5574902 L65.749448,39.5054616 C65.749448,39.7409242 65.756124,39.7678009 65.568905,39.9287685 L64.6348415,40.7417866 C64.4609745,40.8963272 64.4476224,40.9097655 64.4476224,41.1446439 L64.4476224,42.4478683 C64.4476224,42.6628813 64.3544483,42.7838262 64.1141113,42.7838262 C63.8737742,42.7838262 63.7803098,42.6628813 63.7803098,42.4478683 L63.7803098,40.8288435 C63.7803098,40.6074034 63.7869859,40.5869538 63.9538866,40.4391323 L64.8748883,39.6398447 C65.0951972,39.4449892 65.0818452,39.4520005 65.0818452,39.1563575 L65.0818452,38.2291138 L63.119383,38.2291138 Z" id="Fill-40" fill="#FFFFFF" mask="url(#mask-6)"></path>
                    <path d="M67.9259785,42.1121733 L69.8884406,42.1121733 L69.8884406,38.2290846 L67.9259785,38.2290846 L67.9259785,42.1121733 Z M69.8884406,37.557461 C70.2556222,37.557461 70.5560435,37.8595309 70.5560435,38.2290846 L70.5560435,42.1121733 C70.5560435,42.488154 70.268684,42.783797 69.8884406,42.783797 L67.9259785,42.783797 C67.5457351,42.783797 67.2586659,42.488154 67.2586659,42.1121733 L67.2586659,38.2290846 C67.2586659,37.8595309 67.5587969,37.557461 67.9259785,37.557461 L69.8884406,37.557461 Z" id="Fill-41" fill="#FFFFFF" mask="url(#mask-6)"></path>
                    <path d="M72.3990047,38.2291138 C72.225428,38.2291138 72.0654935,38.1353377 72.0654935,37.8934481 C72.0654935,37.6512663 72.225428,37.5574902 72.3990047,37.5574902 L74.694978,37.5574902 C75.0755116,37.5574902 75.3625809,37.8461218 75.3625809,38.2291138 L75.3625809,39.5188999 C75.3625809,39.7876662 75.3091726,39.9825218 75.1022157,40.1706582 C75.3091726,40.3587946 75.3625809,40.5536502 75.3625809,40.8224165 L75.3625809,42.1122026 C75.3625809,42.4951945 75.0755116,42.7838262 74.694978,42.7838262 L72.3990047,42.7838262 C72.225428,42.7838262 72.0654935,42.6900501 72.0654935,42.4478683 C72.0654935,42.2059786 72.225428,42.1122026 72.3990047,42.1122026 L74.694978,42.1122026 L74.694978,40.9971146 C74.694978,40.6208417 74.5481054,40.5066161 74.3614668,40.5066161 L73.0532555,40.5066161 C72.8796788,40.5066161 72.7194541,40.4125479 72.7194541,40.1706582 C72.7194541,39.9287685 72.8796788,39.8347003 73.0532555,39.8347003 L74.3614668,39.8347003 C74.5481054,39.8347003 74.694978,39.7204746 74.694978,39.3442018 L74.694978,38.2291138 L72.3990047,38.2291138 Z" id="Fill-42" fill="#FFFFFF" mask="url(#mask-6)"></path>
                    <path d="M82.3459099,39.2772732 L84.3083721,39.2772732 L84.3083721,38.2290846 L82.3459099,38.2290846 L82.3459099,39.2772732 Z M84.3083721,39.9488968 L82.0121085,39.9488968 C81.82547,39.9488968 81.6785973,39.787637 81.6785973,39.6129389 L81.6785973,37.8934189 C81.6785973,37.7187208 81.82547,37.557461 82.0121085,37.557461 L84.6421735,37.557461 C84.8291023,37.557461 84.9756847,37.7187208 84.9756847,37.8934189 L84.9756847,42.4481312 C84.9756847,42.6295485 84.8421641,42.783797 84.6421735,42.783797 L84.3083721,42.783797 C84.1080912,42.783797 83.9745707,42.6295485 83.9745707,42.4481312 C83.9745707,42.2465565 84.1147673,42.1121733 84.3083721,42.1121733 L84.3083721,39.9488968 Z" id="Fill-43" fill="#FFFFFF" mask="url(#mask-6)"></path>
                    <path d="M86.8188491,38.2291138 C86.6452724,38.2291138 86.4853379,38.1353377 86.4853379,37.8934481 C86.4853379,37.6512663 86.6452724,37.5574902 86.8188491,37.5574902 L89.1148224,37.5574902 C89.495356,37.5574902 89.7824253,37.8461218 89.7824253,38.2291138 L89.7824253,39.5188999 C89.7824253,39.7876662 89.729017,39.9825218 89.5220601,40.1706582 C89.729017,40.3587946 89.7824253,40.5536502 89.7824253,40.8224165 L89.7824253,42.1122026 C89.7824253,42.4951945 89.495356,42.7838262 89.1148224,42.7838262 L86.8188491,42.7838262 C86.6452724,42.7838262 86.4853379,42.6900501 86.4853379,42.4478683 C86.4853379,42.2059786 86.6452724,42.1122026 86.8188491,42.1122026 L89.1148224,42.1122026 L89.1148224,40.9971146 C89.1148224,40.6208417 88.9679498,40.5066161 88.7813112,40.5066161 L87.4730999,40.5066161 C87.2995232,40.5066161 87.1392985,40.4125479 87.1392985,40.1706582 C87.1392985,39.9287685 87.2995232,39.8347003 87.4730999,39.8347003 L88.7813112,39.8347003 C88.9679498,39.8347003 89.1148224,39.7204746 89.1148224,39.3442018 L89.1148224,38.2291138 L86.8188491,38.2291138 Z" id="Fill-44" fill="#FFFFFF" mask="url(#mask-6)"></path>
                    <path d="M91.9591008,42.1121733 L93.921563,42.1121733 L93.921563,38.2290846 L91.9591008,38.2290846 L91.9591008,42.1121733 Z M93.921563,37.557461 C94.2884543,37.557461 94.5891658,37.8595309 94.5891658,38.2290846 L94.5891658,42.1121733 C94.5891658,42.488154 94.3018063,42.783797 93.921563,42.783797 L91.9591008,42.783797 C91.5785672,42.783797 91.2917882,42.488154 91.2917882,42.1121733 L91.2917882,38.2290846 C91.2917882,37.8595309 91.5919193,37.557461 91.9591008,37.557461 L93.921563,37.557461 Z" id="Fill-45" fill="#FFFFFF" mask="url(#mask-6)"></path>
                    <path d="M96.432069,38.2291138 C96.2584923,38.2291138 96.0985578,38.1353377 96.0985578,37.8934481 C96.0985578,37.6512663 96.2584923,37.5574902 96.432069,37.5574902 L98.7280423,37.5574902 C99.108576,37.5574902 99.3956452,37.8461218 99.3956452,38.2291138 L99.3956452,39.5188999 C99.3956452,39.7876662 99.342237,39.9825218 99.1352801,40.1706582 C99.342237,40.3587946 99.3956452,40.5536502 99.3956452,40.8224165 L99.3956452,42.1122026 C99.3956452,42.4951945 99.108576,42.7838262 98.7280423,42.7838262 L96.432069,42.7838262 C96.2584923,42.7838262 96.0985578,42.6900501 96.0985578,42.4478683 C96.0985578,42.2059786 96.2584923,42.1122026 96.432069,42.1122026 L98.7280423,42.1122026 L98.7280423,40.9971146 C98.7280423,40.6208417 98.5811697,40.5066161 98.3945312,40.5066161 L97.0863198,40.5066161 C96.9127431,40.5066161 96.7525184,40.4125479 96.7525184,40.1706582 C96.7525184,39.9287685 96.9127431,39.8347003 97.0863198,39.8347003 L98.3945312,39.8347003 C98.5811697,39.8347003 98.7280423,39.7204746 98.7280423,39.3442018 L98.7280423,38.2291138 L96.432069,38.2291138 Z" id="Fill-46" fill="#FFFFFF" mask="url(#mask-6)"></path>
                    <path d="M7.2640706,61.5287856 C6.95900512,61.5287856 6.78426732,61.4057958 6.6542299,61.1399509 L6.28008204,60.3786411 C6.21099965,60.2395838 6.17036296,60.1087063 6.17036296,59.9491993 C6.17036296,59.7692427 6.20287231,59.6588149 6.2841457,59.4949258 L6.65829357,58.737706 C6.79645833,58.4555014 6.97119612,58.3450735 7.28438894,58.3450735 L7.97550303,58.3450735 C8.06490376,58.3450735 8.17868651,58.3941526 8.17868651,58.5498617 C8.17868651,58.6970989 8.06896743,58.7543578 7.97550303,58.7543578 L7.29657995,58.7543578 C7.12184216,58.7543578 7.09339647,58.7707175 7.01618675,58.9261346 L6.66235724,59.6380731 C6.60952953,59.748501 6.57672991,59.8221196 6.57672991,59.9491993 C6.57672991,60.0637171 6.6135932,60.1335379 6.66235724,60.2316961 L7.00776915,60.9392526 C7.08904254,61.1072315 7.1299695,61.1195013 7.31283463,61.1195013 L7.97550303,61.1195013 C8.06490376,61.1195013 8.17868651,61.1688725 8.17868651,61.3242895 C8.17868651,61.4715267 8.06896743,61.5287856 7.97550303,61.5287856 L7.2640706,61.5287856 Z" id="Fill-47" fill="#FFFFFF" mask="url(#mask-6)"></path>
                    <path d="M10.1043144,59.3149401 L10.0961871,59.3149401 L9.77893056,60.4238932 L10.4175072,60.4238932 L10.1043144,59.3149401 Z M9.89271331,58.5539224 C9.92551293,58.4434946 9.97021329,58.3450443 10.1002507,58.3450443 C10.2343518,58.3450443 10.2831159,58.4472923 10.3115615,58.5539224 L11.0964303,61.3242603 C11.124876,61.4224184 11.0151569,61.5287564 10.9013742,61.5287564 C10.7754004,61.5287564 10.7100914,61.4224184 10.6816457,61.3242603 L10.53129,60.8328854 L9.66514781,60.8328854 L9.51072837,61.3242603 C9.48228268,61.4224184 9.41726397,61.5287564 9.29129021,61.5287564 C9.1772172,61.5287564 9.06749813,61.4224184 9.09594381,61.3242603 L9.89271331,58.5539224 Z" id="Fill-48" fill="#FFFFFF" mask="url(#mask-6)"></path>
                    <path d="M12.428269,59.3925317 L13.3309841,59.3925317 C13.4447669,59.3925317 13.6238586,59.384644 13.6238586,59.220755 L13.6238586,58.9382583 C13.6238586,58.7746614 13.4569579,58.7542118 13.3350478,58.7542118 L12.428269,58.7542118 L12.428269,59.3925317 Z M12.428269,61.3241434 C12.428269,61.4553131 12.3713776,61.5286395 12.2250855,61.5286395 C12.0785031,61.5286395 12.021902,61.4553131 12.021902,61.3241434 L12.021902,58.3449274 L13.3878755,58.3449274 C13.7091957,58.3449274 14.0302256,58.5742552 14.0302256,58.9382583 L14.0302256,59.220755 C14.0302256,59.6054998 13.7132593,59.8018161 13.3878755,59.8018161 L13.0137276,59.8018161 L13.9286338,61.1193552 C13.9733342,61.1809962 14.0302256,61.2587047 14.0302256,61.3364132 C14.0302256,61.450931 13.9367612,61.5286395 13.8229784,61.5286395 C13.7414148,61.5286395 13.6888773,61.4798526 13.6438867,61.4141217 L12.5217334,59.8018161 L12.428269,59.8018161 L12.428269,61.3241434 Z" id="Fill-49" fill="#FFFFFF" mask="url(#mask-6)"></path>
                    <path d="M15.7525248,61.1193844 L15.8297346,61.1193844 C16.0004087,61.1193844 16.0413356,61.0992269 16.1144817,60.9476077 L16.4720846,60.2193094 C16.516785,60.1252412 16.5495846,60.0554204 16.5495846,59.9531724 C16.5495846,59.814115 16.504594,59.7364065 16.4477026,59.6175066 L16.1101278,58.9260177 C16.0247907,58.7501511 15.9882177,58.754241 15.8012889,58.754241 L15.7525248,58.754241 L15.7525248,61.1193844 Z M15.3458676,58.754241 L15.1955118,58.754241 C15.0614107,58.754241 14.947628,58.7051619 14.947628,58.5497449 C14.947628,58.4022156 15.0570568,58.3449566 15.1833208,58.3449566 L15.8622439,58.3449566 C16.1795004,58.3449566 16.3379835,58.4758342 16.4761483,58.754241 L16.8340415,59.4743594 C16.9153149,59.6420462 16.9559516,59.7609461 16.9559516,59.9490825 C16.9559516,60.1129715 16.9112512,60.2520288 16.8381051,60.399266 L16.4680209,61.1439239 C16.3257925,61.4346005 16.1429274,61.5286687 15.8256709,61.5286687 L15.1508115,61.5286687 C15.0448658,61.5286687 14.947628,61.4714098 14.947628,61.3241726 C14.947628,61.1766433 15.0448658,61.1193844 15.1508115,61.1193844 L15.3458676,61.1193844 L15.3458676,58.754241 Z" id="Fill-50" fill="#FFFFFF" mask="url(#mask-6)"></path>
                    <path d="M21.2054469,60.1414256 L21.2054469,61.3242895 C21.2054469,61.455167 21.1485556,61.5287856 21.0022634,61.5287856 C20.8556811,61.5287856 20.79908,61.455167 20.79908,61.3242895 L20.79908,58.5498617 C20.79908,58.4189842 20.8556811,58.3450735 21.0022634,58.3450735 C21.1485556,58.3450735 21.2054469,58.4189842 21.2054469,58.5498617 L21.2054469,59.7324335 L22.4010366,59.7324335 L22.4010366,58.5498617 C22.4010366,58.4189842 22.4576377,58.3450735 22.60422,58.3450735 C22.7505122,58.3450735 22.8074035,58.4189842 22.8074035,58.5498617 L22.8074035,61.3242895 C22.8074035,61.455167 22.7505122,61.5287856 22.60422,61.5287856 C22.4576377,61.5287856 22.4010366,61.455167 22.4010366,61.3242895 L22.4010366,60.1414256 L21.2054469,60.1414256 Z" id="Fill-51" fill="#FFFFFF" mask="url(#mask-6)"></path>
                    <path d="M24.8671615,58.8769971 C24.8346522,58.8115583 24.8143338,58.7542994 24.7289968,58.7542994 C24.6433694,58.7542994 24.6233414,58.8115583 24.5905417,58.8769971 L24.2248115,59.6175651 C24.1638564,59.7361728 24.1310568,59.8141735 24.1310568,59.9491409 C24.1310568,60.0554789 24.1557291,60.1290975 24.2004295,60.2193679 L24.5905417,60.9967452 C24.6192777,61.0540041 24.6477234,61.1194428 24.7289968,61.1194428 C24.8102702,61.1194428 24.8387158,61.0540041 24.8671615,60.9967452 L25.2575641,60.2193679 C25.3022644,60.1290975 25.3266464,60.0554789 25.3266464,59.9491409 C25.3266464,59.8141735 25.2941371,59.7361728 25.233182,59.6175651 L24.8671615,58.8769971 Z M25.627358,59.4948674 C25.7045677,59.6543744 25.7330134,59.7729821 25.7330134,59.9491409 C25.7330134,60.1457493 25.6801857,60.2684469 25.5989123,60.4361337 L25.2247644,61.1889715 C25.1272364,61.3855799 24.9646896,61.5287272 24.7289968,61.5287272 C24.4930137,61.5287272 24.3304669,61.3855799 24.2329388,61.1889715 L23.8587909,60.4361337 C23.7775176,60.2684469 23.7246899,60.1457493 23.7246899,59.9491409 C23.7246899,59.7729821 23.7531355,59.6543744 23.8303453,59.4948674 L24.2370025,58.6806808 C24.3345305,58.4881623 24.501141,58.3450151 24.7289968,58.3450151 C24.9565623,58.3450151 25.1231727,58.4881623 25.220991,58.6806808 L25.627358,59.4948674 Z" id="Fill-52" fill="#FFFFFF" mask="url(#mask-6)"></path>
                    <path d="M28.455614,61.1193844 C28.5612694,61.1193844 28.6587974,61.1766433 28.6587974,61.3241726 C28.6587974,61.4714098 28.5612694,61.5286687 28.455614,61.5286687 L26.6504739,61.5286687 L26.6504739,58.5497449 C26.6504739,58.4188674 26.7073653,58.3449566 26.8536574,58.3449566 C26.9999495,58.3449566 27.0568408,58.4188674 27.0568408,58.5497449 L27.0568408,61.1193844 L28.455614,61.1193844 Z" id="Fill-53" fill="#FFFFFF" mask="url(#mask-6)"></path>
                    <path d="M30.3811548,61.1193844 L30.4583645,61.1193844 C30.6290386,61.1193844 30.6696753,61.0992269 30.7431116,60.9476077 L31.1007145,60.2193094 C31.1457052,60.1252412 31.1779243,60.0554204 31.1779243,59.9531724 C31.1779243,59.814115 31.1332239,59.7364065 31.0766228,59.6175066 L30.7387577,58.9260177 C30.6534206,58.7501511 30.6168476,58.754241 30.4299188,58.754241 L30.3811548,58.754241 L30.3811548,61.1193844 Z M29.9744975,58.754241 L29.8241418,58.754241 C29.6900407,58.754241 29.5762579,58.7051619 29.5762579,58.5497449 C29.5762579,58.4022156 29.6856867,58.3449566 29.8119508,58.3449566 L30.4908738,58.3449566 C30.8081303,58.3449566 30.9666134,58.4758342 31.1047782,58.754241 L31.4626714,59.4743594 C31.5439448,59.6420462 31.5845815,59.7609461 31.5845815,59.9490825 C31.5845815,60.1129715 31.5398811,60.2520288 31.4667351,60.399266 L31.0966509,61.1439239 C30.9544224,61.4346005 30.7715573,61.5286687 30.4543008,61.5286687 L29.7794414,61.5286687 C29.6734957,61.5286687 29.5762579,61.4714098 29.5762579,61.3241726 C29.5762579,61.1766433 29.6734957,61.1193844 29.7794414,61.1193844 L29.9744975,61.1193844 L29.9744975,58.754241 Z" id="Fill-54" fill="#FFFFFF" mask="url(#mask-6)"></path>
                    <path d="M34.3070659,61.1193844 C34.4127214,61.1193844 34.5105397,61.1766433 34.5105397,61.3241726 C34.5105397,61.4714098 34.4127214,61.5286687 34.3070659,61.5286687 L32.5019259,61.5286687 L32.5019259,58.3449566 L34.3070659,58.3449566 C34.4127214,58.3449566 34.5105397,58.4022156 34.5105397,58.5497449 C34.5105397,58.6969821 34.4127214,58.754241 34.3070659,58.754241 L32.9085831,58.754241 L32.9085831,59.7323166 L33.5062328,59.7323166 C33.6118882,59.7323166 33.7094163,59.7895755 33.7094163,59.9368127 C33.7094163,60.0840499 33.6118882,60.1413088 33.5062328,60.1413088 L32.9085831,60.1413088 L32.9085831,61.1193844 L34.3070659,61.1193844 Z" id="Fill-55" fill="#FFFFFF" mask="url(#mask-6)"></path>
                    <path d="M35.8343381,59.3925317 L36.7370533,59.3925317 C36.850836,59.3925317 37.0296375,59.384644 37.0296375,59.220755 L37.0296375,58.9382583 C37.0296375,58.7746614 36.863027,58.7542118 36.7411169,58.7542118 L35.8343381,58.7542118 L35.8343381,59.3925317 Z M35.8343381,61.3241434 C35.8343381,61.4553131 35.7774467,61.5286395 35.6311546,61.5286395 C35.4848625,61.5286395 35.4279711,61.4553131 35.4279711,61.3241434 L35.4279711,58.3449274 L36.7939446,58.3449274 C37.1152648,58.3449274 37.436585,58.5742552 37.436585,58.9382583 L37.436585,59.220755 C37.436585,59.6054998 37.1193285,59.8018161 36.7939446,59.8018161 L36.420087,59.8018161 L37.334703,61.1193552 C37.3794033,61.1809962 37.436585,61.2587047 37.436585,61.3364132 C37.436585,61.450931 37.3428303,61.5286395 37.2290475,61.5286395 C37.1474839,61.5286395 37.0949465,61.4798526 37.0499558,61.4141217 L35.9278025,59.8018161 L35.8343381,59.8018161 L35.8343381,61.3241434 Z" id="Fill-56" fill="#FFFFFF" mask="url(#mask-6)"></path>
                    <path d="M34.4985228,54.7514928 L35.6941125,54.7514928 L35.6941125,52.3860572 L34.4985228,52.3860572 L34.4985228,54.7514928 Z M35.6941125,51.9770651 C35.9176143,51.9770651 36.1007697,52.1611115 36.1007697,52.3860572 L36.1007697,54.7514928 C36.1007697,54.9805284 35.9260319,55.160485 35.6941125,55.160485 L34.4988131,55.160485 C34.2668937,55.160485 34.0921559,54.9805284 34.0921559,54.7514928 L34.0921559,52.3860572 C34.0921559,52.1611115 34.275021,51.9770651 34.4988131,51.9770651 L35.6941125,51.9770651 Z" id="Fill-57" fill="#FFFFFF" mask="url(#mask-6)"></path>
                    <path d="M37.5665934,54.7514928 L38.762183,54.7514928 L38.762183,54.1213527 L37.5665934,54.1213527 L37.5665934,54.7514928 Z M37.5665934,53.7120684 L38.9247298,53.7120684 C39.1279133,53.7120684 39.16855,53.7979567 39.16855,53.9863853 L39.16855,54.9028199 C39.16855,55.0953384 39.0875668,55.160485 38.9044114,55.160485 L37.4243649,55.160485 C37.2333725,55.160485 37.1602264,55.0909563 37.1602264,54.9028199 L37.1602264,52.1815611 C37.1602264,52.0874929 37.1927358,51.9770651 37.3349642,51.9770651 L37.5790746,51.9770651 C37.68473,51.9770651 37.7700671,52.0752232 37.7700671,52.1815611 C37.7700671,52.3042588 37.68473,52.3860572 37.5665934,52.3860572 L37.5665934,53.7120684 Z" id="Fill-58" fill="#FFFFFF" mask="url(#mask-6)"></path>
                    <path d="M40.6306002,55.0173085 C40.5818362,55.1031969 40.5330721,55.1604558 40.4311901,55.1604558 C40.3295984,55.1604558 40.2280067,55.0745674 40.2280067,54.9682295 C40.2280067,54.8905209 40.2767707,54.8209923 40.3174074,54.7555535 L41.8380906,52.1324529 C41.8868546,52.0506544 41.9356187,51.9770358 42.0375007,51.9770358 C42.1428658,51.9770358 42.2366205,52.0629242 42.2366205,52.1692622 C42.2366205,52.2347009 42.2163021,52.2840721 42.1919201,52.3287691 L40.6306002,55.0173085 Z" id="Fill-59" fill="#FFFFFF" mask="url(#mask-6)"></path>
                    <path d="M44.8980918,54.7514344 L44.8980918,53.9246859 C44.8980918,53.8060781 44.9509195,53.7201898 45.1012753,53.7201898 C45.2516311,53.7201898 45.3044588,53.8060781 45.3044588,53.9246859 L45.3044588,54.9559305 C45.3044588,55.1031677 45.2069307,55.1604266 45.1012753,55.1604266 L43.4993187,55.1604266 C43.3936633,55.1604266 43.2961352,55.1031677 43.2961352,54.9559305 C43.2961352,54.8086933 43.3936633,54.7514344 43.4993187,54.7514344 L44.0969684,54.7514344 L44.0969684,52.3859988 L43.4993187,52.3859988 C43.3936633,52.3859988 43.2961352,52.3287399 43.2961352,52.1815027 C43.2961352,52.0342655 43.3936633,51.9770066 43.4993187,51.9770066 L44.5036256,51.9770066 L44.5036256,54.7514344 L44.8980918,54.7514344 Z" id="Fill-60" fill="#FFFFFF" mask="url(#mask-6)"></path>
                    <path d="M46.7704566,52.3860865 C46.7704566,52.4763569 46.6973106,52.5905826 46.5672731,52.5905826 C46.4372357,52.5905826 46.3640897,52.4763569 46.3640897,52.3860865 L46.3640897,52.1815904 C46.3640897,52.0913199 46.4372357,51.9770943 46.5672731,51.9770943 L48.3724132,51.9770943 L48.3724132,53.1637559 C48.3724132,53.3069032 48.3764769,53.3232629 48.2626941,53.421421 L47.6934901,53.9165937 C47.5878347,54.010954 47.5797074,54.0188417 47.5797074,54.161989 L47.5797074,54.9560181 C47.5797074,55.0868956 47.522816,55.1605142 47.3762337,55.1605142 C47.2299415,55.1605142 47.1730502,55.0868956 47.1730502,54.9560181 L47.1730502,53.9697627 C47.1730502,53.8347952 47.1771138,53.8225255 47.2787056,53.732255 L47.8397822,53.2452622 C47.9738833,53.1266545 47.9660463,53.1310365 47.9660463,52.95108 L47.9660463,52.3860865 L46.7704566,52.3860865 Z" id="Fill-61" fill="#FFFFFF" mask="url(#mask-6)"></path>
                    <path d="M59.0422163,54.7514928 L60.2375156,54.7514928 L60.2375156,52.3860572 L59.0422163,52.3860572 L59.0422163,54.7514928 Z M60.2375156,51.9770651 C60.4610175,51.9770651 60.6441729,52.1611115 60.6441729,52.3860572 L60.6441729,54.7514928 C60.6441729,54.9805284 60.4694351,55.160485 60.2375156,55.160485 L59.0422163,55.160485 C58.8105871,55.160485 58.635559,54.9805284 58.635559,54.7514928 L58.635559,52.3860572 C58.635559,52.1611115 58.8184242,51.9770651 59.0422163,51.9770651 L60.2375156,51.9770651 Z" id="Fill-62" fill="#FFFFFF" mask="url(#mask-6)"></path>
                    <path d="M62.1102868,54.7514928 L63.3055862,54.7514928 L63.3055862,54.1213527 L62.1102868,54.1213527 L62.1102868,54.7514928 Z M62.1102868,53.7120684 L63.4684232,53.7120684 C63.6716067,53.7120684 63.7125336,53.7979567 63.7125336,53.9863853 L63.7125336,54.9028199 C63.7125336,55.0953384 63.63097,55.160485 63.4478146,55.160485 L61.9680584,55.160485 C61.7770659,55.160485 61.7039198,55.0909563 61.7039198,54.9028199 L61.7039198,52.1815611 C61.7039198,52.0874929 61.7364292,51.9770651 61.8786576,51.9770651 L62.1224778,51.9770651 C62.2281332,51.9770651 62.3134703,52.0752232 62.3134703,52.1815611 C62.3134703,52.3042588 62.2281332,52.3860572 62.1102868,52.3860572 L62.1102868,53.7120684 Z" id="Fill-63" fill="#FFFFFF" mask="url(#mask-6)"></path>
                    <path d="M65.1744678,55.0173085 C65.1257038,55.1031969 65.0769397,55.1604558 64.9750577,55.1604558 C64.873466,55.1604558 64.7718743,55.0745674 64.7718743,54.9682295 C64.7718743,54.8905209 64.8206383,54.8209923 64.861275,54.7555535 L66.3819582,52.1324529 C66.4307222,52.0506544 66.4794863,51.9770358 66.5813683,51.9770358 C66.6870237,51.9770358 66.7804881,52.0629242 66.7804881,52.1692622 C66.7804881,52.2347009 66.7601697,52.2840721 66.7357877,52.3287691 L65.1744678,55.0173085 Z" id="Fill-64" fill="#FFFFFF" mask="url(#mask-6)"></path>
                    <path d="M68.2463117,54.7514344 L69.6447946,54.7514344 C69.7507403,54.7514344 69.8485586,54.8086933 69.8485586,54.9559305 C69.8485586,55.1031677 69.7507403,55.1604266 69.6447946,55.1604266 L67.8399448,55.1604266 L67.8399448,53.8265278 C67.8399448,53.5194915 67.9943642,53.3640744 68.2994297,53.3640744 L69.4416111,53.3640744 L69.4416111,52.3859988 L68.0431283,52.3859988 C67.9374728,52.3859988 67.8399448,52.3287399 67.8399448,52.1815027 C67.8399448,52.0342655 67.9374728,51.9770066 68.0431283,51.9770066 L69.3928471,51.9770066 C69.5269482,51.9770066 69.6204126,51.9974562 69.7222946,52.0915244 C69.8363676,52.1978624 69.8485586,52.3085824 69.8485586,52.4558196 L69.8485586,53.2948379 C69.8485586,53.4420751 69.8363676,53.552503 69.7222946,53.658841 C69.6204126,53.7529092 69.5269482,53.7733588 69.3928471,53.7733588 L68.2463117,53.7733588 L68.2463117,54.7514344 Z" id="Fill-65" fill="#FFFFFF" mask="url(#mask-6)"></path>
                    <path d="M71.3144984,54.7514928 L72.5097977,54.7514928 L72.5097977,52.3860572 L71.3144984,52.3860572 L71.3144984,54.7514928 Z M72.5097977,51.9770651 C72.7335898,51.9770651 72.916455,52.1611115 72.916455,52.3860572 L72.916455,54.7514928 C72.916455,54.9805284 72.7417172,55.160485 72.5097977,55.160485 L71.3144984,55.160485 C71.0828692,55.160485 70.9081314,54.9805284 70.9081314,54.7514928 L70.9081314,52.3860572 C70.9081314,52.1611115 71.0907063,51.9770651 71.3144984,51.9770651 L72.5097977,51.9770651 Z" id="Fill-66" fill="#FFFFFF" mask="url(#mask-6)"></path>
                    <path d="M34.4503393,50.313168 L33.6454425,48.2220493 L33.9429611,48.2220493 L34.4828487,49.7411632 C34.526388,49.8626923 34.5626708,49.9769179 34.5919872,50.0835481 C34.6242063,49.9693224 34.6616501,49.8553888 34.7040284,49.7411632 L35.2653953,48.2220493 L35.5457885,48.2220493 L34.7324741,50.313168 L34.4503393,50.313168 Z" id="Fill-67" fill="#FAFEFF" mask="url(#mask-6)"></path>
                    <path d="M35.9484111,49.4544304 L36.6528773,49.4544304 L36.4360515,48.8754143 C36.3698717,48.6992555 36.3208174,48.5546476 36.2885983,48.4415905 C36.2621845,48.5756815 36.2247406,48.7086039 36.1765571,48.8409421 L35.9484111,49.4544304 Z M35.3490198,50.3130219 L36.1469504,48.2219032 L36.4430177,48.2219032 L37.2934857,50.3130219 L36.9802929,50.3130219 L36.7379241,49.6796683 L35.8691696,49.6796683 L35.6407333,50.3130219 L35.3490198,50.3130219 Z" id="Fill-68" fill="#FAFEFF" mask="url(#mask-6)"></path>
                    <polygon id="Fill-69" fill="#FAFEFF" mask="url(#mask-6)" points="37.5017778 50.313168 37.5017778 48.2220493 37.776656 48.2220493 37.776656 50.066312 38.8001203 50.066312 38.8001203 50.313168"></polygon>
                    <polygon id="Fill-70" fill="#FAFEFF" mask="url(#mask-6)" points="39.1740649 50.3130511 39.5715811 50.3130511 39.5715811 48.2219324 39.1740649 48.2219324"></polygon>
                    <path d="M40.2088203,50.0663704 L40.6523408,50.0663704 C40.7893446,50.0663704 40.8970318,50.0535163 40.9748221,50.0278083 C41.0529026,50.0021002 41.1150187,49.9658752 41.1611703,49.9194253 C41.2264793,49.8536944 41.2772752,49.7657611 41.3135579,49.6547489 C41.350131,49.5440289 41.3681272,49.4096458 41.3681272,49.2518916 C41.3681272,49.0330808 41.332425,48.8651019 41.2610205,48.7473706 C41.1899063,48.6302235 41.1031179,48.5513464 41.0009456,48.5116158 C40.9275093,48.4829863 40.8087921,48.4686716 40.6453746,48.4686716 L40.2088203,48.4686716 L40.2088203,50.0663704 Z M39.9339421,50.3132264 L39.9339421,48.2221077 L40.6497285,48.2221077 C40.8111142,48.2221077 40.9344756,48.2320404 41.0195224,48.2519057 C41.1385299,48.2793666 41.2401216,48.3293221 41.3242976,48.4017722 C41.4337265,48.4946718 41.5158706,48.6138638 41.5701496,48.7587639 C41.6244287,48.9039561 41.6517133,49.069598 41.6517133,49.2562737 C41.6517133,49.4149042 41.6331365,49.5557144 41.5962732,49.6784121 C41.5594099,49.8011097 41.5123875,49.9024814 41.4546253,49.9828191 C41.3968632,50.0631569 41.3338763,50.1265507 41.2653744,50.1724162 C41.1968726,50.2185739 41.1141479,50.2536304 41.0174906,50.2775856 C40.920543,50.3012488 40.8093726,50.3132264 40.6836892,50.3132264 L39.9339421,50.3132264 Z" id="Fill-71" fill="#FAFEFF" mask="url(#mask-6)"></path>
                    <polygon id="Fill-72" fill="#FAFEFF" mask="url(#mask-6)" points="42.850641 50.313168 42.850641 48.2220493 44.2523167 48.2220493 44.2523167 48.4689053 43.1255192 48.4689053 43.1255192 49.1162815 44.1007999 49.1162815 44.1007999 49.3631375 43.1255192 49.3631375 43.1255192 50.313168"></polygon>
                    <path d="M44.8887164,49.144911 L45.47969,49.144911 C45.6053735,49.144911 45.7037724,49.1317648 45.7745963,49.1054724 C45.8454203,49.0794722 45.8991188,49.0376966 45.9359821,48.9801455 C45.9728454,48.9225945 45.9914221,48.859785 45.9914221,48.7925934 C45.9914221,48.6935589 45.9557199,48.6123447 45.8843154,48.5486588 C45.8132012,48.4846807 45.7002892,48.4531299 45.5464503,48.4531299 L44.8887164,48.4531299 L44.8887164,49.144911 Z M44.6138382,50.313168 L44.6138382,48.2220493 L45.5351301,48.2220493 C45.7203173,48.2220493 45.8610945,48.2407461 45.9574615,48.2781397 C46.0538285,48.3158254 46.130748,48.3821405 46.1885101,48.4773773 C46.245982,48.5723219 46.274718,48.6771992 46.274718,48.7925934 C46.274718,48.9409991 46.227115,49.0657418 46.1316187,49.1676977 C46.0364128,49.2693614 45.8889596,49.3339238 45.6895495,49.3616768 C45.7621151,49.3967333 45.8175551,49.4314976 45.8552892,49.4659698 C45.9356918,49.5401727 46.0117405,49.6327802 46.0834352,49.7440845 L46.4448116,50.313168 L46.0991094,50.313168 L45.8242312,49.8781755 C45.7438286,49.7525565 45.6776488,49.6564433 45.6256919,49.589836 C45.573735,49.5232287 45.527293,49.4767789 45.4860758,49.4501944 C45.4451488,49.4233178 45.4030608,49.4049131 45.3606826,49.3943962 C45.3296245,49.387677 45.2785384,49.3844635 45.2077144,49.3844635 L44.8887164,49.3844635 L44.8887164,50.313168 L44.6138382,50.313168 Z" id="Fill-73" fill="#FAFEFF" mask="url(#mask-6)"></path>
                    <path d="M46.9055446,49.298955 C46.9055446,49.5507773 46.9728854,49.7494306 47.107567,49.8943307 C47.2422487,50.039523 47.4111812,50.111973 47.6140744,50.111973 C47.8210313,50.111973 47.9914152,50.0386465 48.125226,49.8922858 C48.2587466,49.7456329 48.3257971,49.5379233 48.3257971,49.2688648 C48.3257971,49.0985488 48.2970612,48.950143 48.2398795,48.8230633 C48.1826979,48.6962757 48.0991024,48.5978255 47.9890931,48.5277125 C47.8790837,48.4578917 47.7554321,48.4231274 47.6184284,48.4231274 C47.4239527,48.4231274 47.2561812,48.490319 47.1159846,48.6247021 C46.975788,48.7593774 46.9055446,48.984031 46.9055446,49.298955 M46.6219585,49.2945729 C46.6219585,48.9475138 46.7145521,48.6758261 46.8997394,48.4792177 C47.0852169,48.2829015 47.3241026,48.1850355 47.616977,48.1850355 C47.8088403,48.1850355 47.9818365,48.2309011 48.1356754,48.3232164 C48.2898046,48.4155318 48.4070705,48.5440722 48.4880536,48.7088376 C48.5687465,48.8741873 48.6090929,49.0611552 48.6090929,49.2703255 C48.6090929,49.4824172 48.5667147,49.6720143 48.4816679,49.8397011 C48.3966211,50.0068036 48.2761623,50.1335912 48.1202916,50.2194795 C47.9641305,50.30566 47.7960688,50.3488963 47.6155257,50.3488963 C47.4198891,50.3488963 47.2451513,50.301278 47.0913124,50.2060412 C46.9371832,50.1108045 46.8204978,49.9810955 46.7412563,49.8166222 C46.6617244,49.6521489 46.6219585,49.4780351 46.6219585,49.2945729" id="Fill-74" fill="#FAFEFF" mask="url(#mask-6)"></path>
                    <path d="M48.9549403,50.313168 L48.9549403,48.2220493 L49.368854,48.2220493 L49.860558,49.702601 C49.9058389,49.8404898 49.9389288,49.9436143 49.9598277,50.0122666 C49.9833389,49.9360187 50.0202022,49.8241301 50.0704176,49.676893 L50.5679268,48.2220493 L50.9377207,48.2220493 L50.9377207,50.313168 L50.6727114,50.313168 L50.6727114,48.5629735 L50.0689662,50.313168 L49.8207921,50.313168 L49.2199496,48.5328834 L49.2199496,50.313168 L48.9549403,50.313168 Z" id="Fill-75" fill="#FAFEFF" mask="url(#mask-6)"></path>
                    <path d="M60.0744754,48.2219909 L60.3493536,48.2219909 L60.3493536,49.4302707 C60.3493536,49.6400252 60.3255521,49.8071278 60.2785297,49.930994 C60.2312169,50.0542759 60.1458799,50.1550633 60.0225185,50.2324796 C59.8991571,50.309896 59.7374811,50.3487503 59.5372002,50.3487503 C59.3427246,50.3487503 59.1833707,50.3148623 59.0597191,50.2476708 C58.9357771,50.1798949 58.8472472,50.0823211 58.7947098,49.9543649 C58.7415918,49.8264088 58.7151779,49.6517107 58.7151779,49.4302707 L58.7151779,48.2219909 L58.9903464,48.2219909 L58.9903464,49.42881 C58.9903464,49.6102272 59.0068914,49.7443182 59.0402715,49.8302066 C59.0742322,49.9163871 59.1317041,49.9824101 59.2132677,50.0294442 C59.2951216,50.0758941 59.3949718,50.099265 59.5131085,50.099265 C59.7154212,50.099265 59.8593912,50.0531073 59.945599,49.960792 C60.0315166,49.8684766 60.0744754,49.6911493 60.0744754,49.42881 L60.0744754,48.2219909 Z" id="Fill-76" fill="#FAFEFF" mask="url(#mask-6)"></path>
                    <polygon id="Fill-77" fill="#FAFEFF" mask="url(#mask-6)" points="60.8043975 50.313168 60.8043975 48.2220493 61.0865323 48.2220493 62.1776276 49.8638608 62.1776276 48.2220493 62.4414759 48.2220493 62.4414759 50.313168 62.1593411 50.313168 61.0679555 48.6698957 61.0679555 50.313168"></polygon>
                    <polygon id="Fill-78" fill="#FAFEFF" mask="url(#mask-6)" points="63.4320534 50.313168 63.4320534 48.4689053 62.7476153 48.4689053 62.7476153 48.2220493 64.3942723 48.2220493 64.3942723 48.4689053 63.7069316 48.4689053 63.7069316 50.313168"></polygon>
                    <polygon id="Fill-79" fill="#FAFEFF" mask="url(#mask-6)" points="64.7232263 50.3130511 65.1207425 50.3130511 65.1207425 48.2219324 64.7232263 48.2219324"></polygon>
                    <polygon id="Fill-80" fill="#FAFEFF" mask="url(#mask-6)" points="65.4715511 50.313168 65.4715511 48.2220493 65.7464293 48.2220493 65.7464293 50.066312 66.7698935 50.066312 66.7698935 50.313168"></polygon>
                    <polygon id="Fill-81" fill="#FAFEFF" mask="url(#mask-6)" points="67.8015721 50.313168 67.8015721 48.2220493 69.3039688 48.2220493 69.3039688 48.4689053 68.0764503 48.4689053 68.0764503 49.1092702 69.2258883 49.1092702 69.2258883 49.3546655 68.0764503 49.3546655 68.0764503 50.066312 69.3521523 50.066312 69.3521523 50.313168"></polygon>
                    <polygon id="Fill-82" fill="#FAFEFF" mask="url(#mask-6)" points="69.7290867 50.313168 69.7290867 48.2220493 70.0112215 48.2220493 71.1023168 49.8638608 71.1023168 48.2220493 71.366165 48.2220493 71.366165 50.313168 71.0840302 50.313168 69.9926447 48.6698957 69.9926447 50.313168"></polygon>
                    <path d="M72.1030534,50.0663704 L72.546574,50.0663704 C72.6835777,50.0663704 72.7909747,50.0535163 72.8690552,50.0278083 C72.9468454,50.0021002 73.0089615,49.9658752 73.0554034,49.9194253 C73.1207124,49.8536944 73.1715083,49.7657611 73.207791,49.6547489 C73.2443641,49.5440289 73.2623603,49.4096458 73.2623603,49.2518916 C73.2623603,49.0330808 73.2266581,48.8651019 73.1552536,48.7473706 C73.0841394,48.6302235 72.997351,48.5513464 72.8951788,48.5116158 C72.8217424,48.4829863 72.702735,48.4686716 72.5396077,48.4686716 L72.1030534,48.4686716 L72.1030534,50.0663704 Z M71.8281752,50.3132264 L71.8281752,48.2221077 L72.5439616,48.2221077 C72.7053473,48.2221077 72.8287087,48.2320404 72.9137555,48.2519057 C73.032763,48.2793666 73.1343547,48.3293221 73.2185307,48.4017722 C73.3279596,48.4946718 73.4101037,48.6138638 73.4640925,48.7587639 C73.5186618,48.9039561 73.5459464,49.069598 73.5459464,49.2562737 C73.5459464,49.4149042 73.5273696,49.5557144 73.4905063,49.6784121 C73.4536431,49.8011097 73.4063303,49.9024814 73.3488584,49.9828191 C73.2910963,50.0631569 73.2281094,50.1265507 73.1596075,50.1724162 C73.0911057,50.2185739 73.008381,50.2536304 72.9114334,50.2775856 C72.8147761,50.3012488 72.7033155,50.3132264 72.5779223,50.3132264 L71.8281752,50.3132264 Z" id="Fill-83" fill="#FAFEFF" mask="url(#mask-6)"></path>
                    <path d="M90.6163483,56.3675962 C90.6163483,54.1251505 91.6816103,52.1339428 93.3297185,50.8757075 C92.1814416,49.9992957 90.7504494,49.478707 89.1981276,49.478707 C85.4183344,49.478707 82.353747,52.5630924 82.353747,56.3675962 C82.353747,60.1718079 85.4183344,63.2561933 89.1981276,63.2561933 C90.7504494,63.2561933 92.1814416,62.7356047 93.3297185,61.8591929 C91.6816103,60.6009576 90.6163483,58.6097499 90.6163483,56.3675962" id="Fill-84" fill="#EC0000" mask="url(#mask-6)"></path>
                    <path d="M97.4610192,49.4786778 C95.9086974,49.4786778 94.4779954,49.9992664 93.3297185,50.8756783 C94.9775365,52.1339136 96.0427985,54.1251213 96.0427985,56.367567 C96.0427985,58.6097207 94.9775365,60.6009284 93.3297185,61.8591636 C94.4779954,62.7355755 95.9086974,63.2561641 97.4610192,63.2561641 C101.241103,63.2561641 104.3054,60.1720708 104.3054,56.367567 C104.3054,52.5630632 101.241103,49.4786778 97.4610192,49.4786778" id="Fill-85" fill="#F89E00" mask="url(#mask-6)"></path>
                    <path d="M96.0428856,56.3675962 C96.0428856,54.1251505 94.9776236,52.1339428 93.3295154,50.8757075 C91.6816973,52.1339428 90.6164354,54.1251505 90.6164354,56.3675962 C90.6164354,58.6097499 91.6816973,60.6009576 93.3295154,61.8591929 C94.9776236,60.6009576 96.0428856,58.6097499 96.0428856,56.3675962" id="Fill-86" fill="#FF5B00" mask="url(#mask-6)"></path>
                </g>
                <path d="M165.361446,91.5 C165.361446,50.7074499 132.29255,17.6385542 91.5,17.6385542 C50.7074499,17.6385542 17.6385542,50.7074499 17.6385542,91.5 C17.6385542,132.29255 50.7074499,165.361446 91.5,165.361446 C98.9458582,165.361446 106.134386,164.259685 112.91145,162.210296 M129.630577,154.770817 C135.728944,151.087698 141.251734,146.547805 146.032183,141.317899 C147.934614,139.236602 149.719479,137.046026 151.376267,134.756681 C152.807629,132.778828 154.143397,130.727254 155.376791,128.608738 M161.069942,116.369854 C162.045514,113.641105 162.8651,110.838189 163.517959,107.971848" id="Oval-9-Copy-3" stroke="#394264" stroke-width="3.5728" stroke-linecap="round" stroke-linejoin="round" transform="translate(91.500000, 91.500000) rotate(-285.000000) translate(-91.500000, -91.500000) "></path>
            </g>
        </g>
    </g>
</svg>