<svg width="229" height="160" viewBox="0 0 229 160" version="1.1" xmlns="http://www.w3.org/2000/svg" xmlns:xlink="http://www.w3.org/1999/xlink">
<title>ww_question</title>
<desc>Created using Figma</desc>
<g id="Canvas" transform="translate(2605 2106)">
<g id="ww_question">
<g id="Buttons Copy">
<g id="Button 3">
<g id="Guide">
<use xlink:href="#path0_fill" transform="translate(-2605 -1991)" fill="#FFFFFF"/>
<mask id="mask0_outline_ins">
<use xlink:href="#path0_fill" fill="white" transform="translate(-2605 -1991)"/>
</mask>
<g mask="url(#mask0_outline_ins)">
<use xlink:href="#path1_stroke_2x" transform="translate(-2605 -1991)" fill="#E1ECF9"/>
</g>
</g>
<g id="Title">
<use xlink:href="#path2_fill" transform="translate(-2596.14 -1978)" fill="#444C6D"/>
</g>
</g>
<g id="Button 1">
<g id="Guide">
<use xlink:href="#path3_fill" transform="translate(-2605 -2035)" fill="#444C6D"/>
<mask id="mask1_outline_ins">
<use xlink:href="#path3_fill" fill="white" transform="translate(-2605 -2035)"/>
</mask>
<g mask="url(#mask1_outline_ins)">
<use xlink:href="#path4_stroke_2x" transform="translate(-2605 -2035)" fill="#444C6D"/>
</g>
</g>
<g id="Title">
<use xlink:href="#path5_fill" transform="translate(-2537.48 -2023)" fill="#FFFFFF"/>
</g>
</g>
</g>
<g id="Rectangle Copy">
<use xlink:href="#path6_fill" transform="translate(-2605 -2106)" fill="#E1ECF9" fill-opacity="0.5"/>
</g>
<g id="Do you pay interest">
<use xlink:href="#path7_fill" transform="translate(-2597 -2096)"/>
</g>
</g>
</g>
<defs>
<path id="path0_fill" fill-rule="evenodd" d="M 0 0L 229 0L 229 27.5C 229 37.165 221.165 45 211.5 45L 17.5 45C 7.83502 45 0 37.165 0 27.5L 0 0Z"/>
<path id="path1_stroke_2x" d="M 0 0L 0 -1L -1 -1L -1 0L 0 0ZM 229 0L 230 0L 230 -1L 229 -1L 229 0ZM 0 1L 229 1L 229 -1L 0 -1L 0 1ZM 228 0L 228 27.5L 230 27.5L 230 0L 228 0ZM 211.5 44L 17.5 44L 17.5 46L 211.5 46L 211.5 44ZM 1 27.5L 1 0L -1 0L -1 27.5L 1 27.5ZM 228 27.5C 228 36.6127 220.613 44 211.5 44L 211.5 46C 221.717 46 230 37.7173 230 27.5L 228 27.5ZM 17.5 44C 8.3873 44 1 36.6127 1 27.5L -1 27.5C -1 37.7173 7.28273 46 17.5 46L 17.5 44Z"/>
<path id="path2_fill" d="M 101.702 5.52C 101.702 5.68 101.654 5.84 101.558 6L 98.1185 10.848L 98.1185 15.232C 98.1185 15.4453 98.0438 15.6267 97.8945 15.776C 97.7558 15.9253 97.5851 16 97.3825 16C 97.1691 16 96.9878 15.9253 96.8385 15.776C 96.6891 15.6267 96.6145 15.4453 96.6145 15.232L 96.6145 10.72L 93.1905 6.096C 93.0411 5.904 92.9665 5.712 92.9665 5.52C 92.9665 5.30667 93.0518 5.12533 93.2225 4.976C 93.3931 4.82667 93.5798 4.752 93.7825 4.752C 94.0278 4.752 94.2358 4.86933 94.4065 5.104L 97.4145 9.264L 100.31 5.12C 100.481 4.87467 100.694 4.752 100.95 4.752C 101.153 4.752 101.329 4.82667 101.478 4.976C 101.628 5.12533 101.702 5.30667 101.702 5.52ZM 109.765 11.488C 109.754 11.68 109.674 11.8453 109.525 11.984C 109.376 12.112 109.2 12.176 108.997 12.176L 103.365 12.176C 103.44 12.9547 103.733 13.5787 104.245 14.048C 104.768 14.5173 105.402 14.752 106.149 14.752C 106.661 14.752 107.077 14.6773 107.397 14.528C 107.717 14.3787 108 14.1867 108.245 13.952C 108.405 13.856 108.56 13.808 108.709 13.808C 108.89 13.808 109.04 13.872 109.157 14C 109.285 14.128 109.349 14.2773 109.349 14.448C 109.349 14.672 109.242 14.8747 109.029 15.056C 108.72 15.3653 108.309 15.6267 107.797 15.84C 107.285 16.0533 106.762 16.16 106.229 16.16C 105.365 16.16 104.602 15.9787 103.941 15.616C 103.29 15.2533 102.784 14.7467 102.421 14.096C 102.069 13.4453 101.893 12.7093 101.893 11.888C 101.893 10.992 102.074 10.208 102.437 9.536C 102.81 8.85333 103.296 8.33067 103.893 7.968C 104.501 7.60533 105.152 7.424 105.845 7.424C 106.528 7.424 107.168 7.6 107.765 7.952C 108.362 8.304 108.842 8.78933 109.205 9.408C 109.568 10.0267 109.754 10.72 109.765 11.488ZM 105.845 8.832C 105.248 8.832 104.73 9.00267 104.293 9.344C 103.856 9.67467 103.568 10.192 103.429 10.896L 108.149 10.896L 108.149 10.768C 108.096 10.2027 107.84 9.73867 107.381 9.376C 106.933 9.01333 106.421 8.832 105.845 8.832ZM 111 14.688C 110.904 14.5387 110.856 14.3947 110.856 14.256C 110.856 14.0427 110.968 13.8613 111.192 13.712C 111.299 13.6373 111.421 13.6 111.56 13.6C 111.752 13.6 111.928 13.68 112.088 13.84C 112.408 14.2027 112.749 14.4747 113.112 14.656C 113.485 14.8373 113.928 14.928 114.44 14.928C 114.845 14.9173 115.203 14.8267 115.512 14.656C 115.821 14.4747 115.976 14.1867 115.976 13.792C 115.976 13.4293 115.816 13.152 115.496 12.96C 115.187 12.768 114.728 12.592 114.12 12.432C 113.523 12.272 113.027 12.1067 112.632 11.936C 112.237 11.7547 111.901 11.4987 111.624 11.168C 111.357 10.8267 111.224 10.384 111.224 9.84C 111.224 9.36 111.357 8.93867 111.624 8.576C 111.901 8.21333 112.264 7.93067 112.712 7.728C 113.171 7.52533 113.667 7.424 114.2 7.424C 114.712 7.424 115.219 7.52 115.72 7.712C 116.232 7.904 116.648 8.19733 116.968 8.592C 117.096 8.74133 117.16 8.896 117.16 9.056C 117.16 9.22667 117.075 9.392 116.904 9.552C 116.797 9.648 116.664 9.696 116.504 9.696C 116.312 9.696 116.157 9.632 116.04 9.504C 115.816 9.248 115.539 9.05067 115.208 8.912C 114.888 8.77333 114.531 8.704 114.136 8.704C 113.731 8.704 113.384 8.78933 113.096 8.96C 112.819 9.12 112.68 9.39733 112.68 9.792C 112.691 10.1653 112.851 10.4427 113.16 10.624C 113.48 10.8053 113.965 10.9813 114.616 11.152C 115.181 11.3013 115.651 11.4613 116.024 11.632C 116.397 11.8027 116.712 12.0587 116.968 12.4C 117.224 12.7307 117.352 13.168 117.352 13.712C 117.352 14.2133 117.208 14.6507 116.92 15.024C 116.632 15.3867 116.253 15.6693 115.784 15.872C 115.325 16.064 114.835 16.16 114.312 16.16C 113.64 16.16 113.016 16.0427 112.44 15.808C 111.875 15.5733 111.395 15.2 111 14.688Z"/>
<path id="path3_fill" fill-rule="evenodd" d="M 0 0L 229 0L 229 45L 0 45L 0 0Z"/>
<path id="path4_stroke_2x" d="M 0 0L 0 -1L -1 -1L -1 0L 0 0ZM 229 0L 230 0L 230 -1L 229 -1L 229 0ZM 229 45L 229 46L 230 46L 230 45L 229 45ZM 0 45L -1 45L -1 46L 0 46L 0 45ZM 0 1L 229 1L 229 -1L 0 -1L 0 1ZM 228 0L 228 45L 230 45L 230 0L 228 0ZM 229 44L 0 44L 0 46L 229 46L 229 44ZM 1 45L 1 0L -1 0L -1 45L 1 45Z"/>
<path id="path5_fill" d="M 45.9431 4.8C 46.1458 4.8 46.3111 4.86933 46.4391 5.008C 46.5671 5.136 46.6311 5.30133 46.6311 5.504L 46.6311 15.216C 46.6311 15.44 46.5565 15.6267 46.4071 15.776C 46.2685 15.9253 46.0871 16 45.8631 16C 45.7458 16 45.6285 15.984 45.5111 15.952C 45.4045 15.9093 45.3191 15.8507 45.2551 15.776L 38.9671 7.584L 38.9671 15.296C 38.9671 15.4987 38.8978 15.6693 38.7591 15.808C 38.6311 15.936 38.4658 16 38.2631 16C 38.0605 16 37.8951 15.936 37.7671 15.808C 37.6391 15.6693 37.5751 15.4987 37.5751 15.296L 37.5751 5.568C 37.5751 5.344 37.6445 5.16267 37.7831 5.024C 37.9325 4.87467 38.1138 4.8 38.3271 4.8C 38.4551 4.8 38.5778 4.82667 38.6951 4.88C 38.8125 4.92267 38.9031 4.98667 38.9671 5.072L 45.2391 13.28L 45.2391 5.504C 45.2391 5.30133 45.3031 5.136 45.4311 5.008C 45.5698 4.86933 45.7405 4.8 45.9431 4.8ZM 56.9879 11.808C 56.9879 12.64 56.8012 13.3867 56.4279 14.048C 56.0545 14.7093 55.5425 15.2267 54.8919 15.6C 54.2519 15.9733 53.5425 16.16 52.7639 16.16C 51.9852 16.16 51.2705 15.9733 50.6199 15.6C 49.9799 15.2267 49.4732 14.7093 49.0999 14.048C 48.7265 13.3867 48.5399 12.64 48.5399 11.808C 48.5399 10.976 48.7265 10.224 49.0999 9.552C 49.4732 8.88 49.9799 8.35733 50.6199 7.984C 51.2705 7.61067 51.9852 7.424 52.7639 7.424C 53.5425 7.424 54.2519 7.61067 54.8919 7.984C 55.5425 8.35733 56.0545 8.88 56.4279 9.552C 56.8012 10.224 56.9879 10.976 56.9879 11.808ZM 55.4679 11.808C 55.4679 11.232 55.3452 10.72 55.0999 10.272C 54.8652 9.81333 54.5399 9.46133 54.1239 9.216C 53.7185 8.96 53.2652 8.832 52.7639 8.832C 52.2625 8.832 51.8039 8.96 51.3879 9.216C 50.9825 9.46133 50.6572 9.81333 50.4119 10.272C 50.1772 10.72 50.0599 11.232 50.0599 11.808C 50.0599 12.3733 50.1772 12.88 50.4119 13.328C 50.6572 13.776 50.9825 14.128 51.3879 14.384C 51.8039 14.6293 52.2625 14.752 52.7639 14.752C 53.2652 14.752 53.7185 14.6293 54.1239 14.384C 54.5399 14.128 54.8652 13.776 55.0999 13.328C 55.3452 12.88 55.4679 12.3733 55.4679 11.808Z"/>
<path id="path6_fill" fill-rule="evenodd" d="M 0 17C 0 7.61116 7.61116 0 17 0L 212 0C 221.389 0 229 7.61116 229 17L 229 71L 0 71L 0 17Z"/>
<path id="path7_fill" d="M 5.306 4.2C 6.202 4.2 6.95333 4.424 7.56 4.872C 8.176 5.31067 8.63333 5.90333 8.932 6.65C 9.24 7.38733 9.394 8.204 9.394 9.1C 9.394 10.024 9.24 10.8547 8.932 11.592C 8.63333 12.3293 8.176 12.9173 7.56 13.356C 6.95333 13.7853 6.202 14 5.306 14L 1.736 14C 1.61467 14 1.512 13.9627 1.428 13.888C 1.35333 13.804 1.316 13.7013 1.316 13.58L 1.316 4.62C 1.316 4.49867 1.35333 4.40067 1.428 4.326C 1.512 4.242 1.61467 4.2 1.736 4.2L 5.306 4.2ZM 5.166 13.174C 6.286 13.174 7.12133 12.8007 7.672 12.054C 8.22267 11.298 8.498 10.3133 8.498 9.1C 8.498 8.344 8.38133 7.66267 8.148 7.056C 7.91467 6.44 7.546 5.95 7.042 5.586C 6.54733 5.21267 5.922 5.026 5.166 5.026L 2.198 5.026L 2.198 13.174L 5.166 13.174ZM 17.8859 10.416C 17.8859 11.116 17.7319 11.7507 17.4239 12.32C 17.1159 12.8893 16.6912 13.3373 16.1499 13.664C 15.6085 13.9813 15.0065 14.14 14.3439 14.14C 13.6812 14.14 13.0792 13.9813 12.5379 13.664C 11.9965 13.3373 11.5719 12.8893 11.2639 12.32C 10.9559 11.7507 10.8019 11.116 10.8019 10.416C 10.8019 9.716 10.9559 9.08133 11.2639 8.512C 11.5719 7.94267 11.9965 7.49467 12.5379 7.168C 13.0792 6.84133 13.6812 6.678 14.3439 6.678C 15.0065 6.678 15.6085 6.84133 16.1499 7.168C 16.6912 7.49467 17.1159 7.94267 17.4239 8.512C 17.7319 9.08133 17.8859 9.716 17.8859 10.416ZM 17.0459 10.416C 17.0459 9.856 16.9292 9.352 16.6959 8.904C 16.4625 8.456 16.1359 8.106 15.7159 7.854C 15.3052 7.59267 14.8479 7.462 14.3439 7.462C 13.8399 7.462 13.3825 7.59267 12.9719 7.854C 12.5612 8.106 12.2345 8.456 11.9919 8.904C 11.7585 9.352 11.6419 9.856 11.6419 10.416C 11.6419 10.9667 11.7585 11.466 11.9919 11.914C 12.2345 12.362 12.5612 12.7167 12.9719 12.978C 13.3825 13.23 13.8399 13.356 14.3439 13.356C 14.8479 13.356 15.3052 13.23 15.7159 12.978C 16.1359 12.726 16.4625 12.376 16.6959 11.928C 16.9292 11.48 17.0459 10.976 17.0459 10.416ZM 28.7662 6.72C 28.8875 6.72 28.9855 6.762 29.0602 6.846C 29.1442 6.92067 29.1862 7.01867 29.1862 7.14L 29.1862 13.314C 29.1862 14.0513 29.0415 14.6813 28.7522 15.204C 28.4628 15.7267 28.0615 16.1233 27.5482 16.394C 27.0348 16.6647 26.4562 16.8 25.8122 16.8C 25.4202 16.8 25.0515 16.758 24.7062 16.674C 24.3702 16.59 24.0902 16.478 23.8662 16.338C 23.6702 16.2167 23.5722 16.0813 23.5722 15.932C 23.5722 15.9133 23.5815 15.8667 23.6002 15.792C 23.6282 15.6987 23.6748 15.6287 23.7402 15.582C 23.8055 15.5353 23.8755 15.512 23.9502 15.512C 24.0062 15.512 24.0622 15.526 24.1182 15.554C 24.7155 15.8807 25.2848 16.044 25.8262 16.044C 26.6008 16.044 27.2122 15.8013 27.6602 15.316C 28.1175 14.8307 28.3462 14.168 28.3462 13.328L 28.3462 12.838C 28.1128 13.23 27.7768 13.5473 27.3382 13.79C 26.8995 14.0233 26.4235 14.14 25.9102 14.14C 25.0982 14.14 24.4822 13.8973 24.0622 13.412C 23.6422 12.9267 23.4322 12.2687 23.4322 11.438L 23.4322 7.14C 23.4322 7.01867 23.4695 6.92067 23.5442 6.846C 23.6282 6.762 23.7308 6.72 23.8522 6.72C 23.9735 6.72 24.0715 6.762 24.1462 6.846C 24.2302 6.92067 24.2722 7.01867 24.2722 7.14L 24.2722 11.312C 24.2722 11.984 24.4168 12.4927 24.7062 12.838C 25.0048 13.1833 25.4668 13.356 26.0922 13.356C 26.4748 13.356 26.8388 13.2627 27.1842 13.076C 27.5388 12.88 27.8188 12.628 28.0242 12.32C 28.2388 12.0027 28.3462 11.6667 28.3462 11.312L 28.3462 7.14C 28.3462 7.01867 28.3835 6.92067 28.4582 6.846C 28.5422 6.762 28.6448 6.72 28.7662 6.72ZM 37.9288 10.416C 37.9288 11.116 37.7748 11.7507 37.4668 12.32C 37.1588 12.8893 36.7342 13.3373 36.1928 13.664C 35.6515 13.9813 35.0495 14.14 34.3868 14.14C 33.7242 14.14 33.1222 13.9813 32.5808 13.664C 32.0395 13.3373 31.6148 12.8893 31.3068 12.32C 30.9988 11.7507 30.8448 11.116 30.8448 10.416C 30.8448 9.716 30.9988 9.08133 31.3068 8.512C 31.6148 7.94267 32.0395 7.49467 32.5808 7.168C 33.1222 6.84133 33.7242 6.678 34.3868 6.678C 35.0495 6.678 35.6515 6.84133 36.1928 7.168C 36.7342 7.49467 37.1588 7.94267 37.4668 8.512C 37.7748 9.08133 37.9288 9.716 37.9288 10.416ZM 37.0888 10.416C 37.0888 9.856 36.9722 9.352 36.7388 8.904C 36.5055 8.456 36.1788 8.106 35.7588 7.854C 35.3482 7.59267 34.8908 7.462 34.3868 7.462C 33.8828 7.462 33.4255 7.59267 33.0148 7.854C 32.6042 8.106 32.2775 8.456 32.0348 8.904C 31.8015 9.352 31.6848 9.856 31.6848 10.416C 31.6848 10.9667 31.8015 11.466 32.0348 11.914C 32.2775 12.362 32.6042 12.7167 33.0148 12.978C 33.4255 13.23 33.8828 13.356 34.3868 13.356C 34.8908 13.356 35.3482 13.23 35.7588 12.978C 36.1788 12.726 36.5055 12.376 36.7388 11.928C 36.9722 11.48 37.0888 10.976 37.0888 10.416ZM 44.995 6.888C 45.1163 6.888 45.2143 6.93 45.289 7.014C 45.373 7.08867 45.415 7.18667 45.415 7.308L 45.415 11.256C 45.415 12.1707 45.1583 12.8753 44.645 13.37C 44.1317 13.8553 43.4223 14.098 42.517 14.098C 41.621 14.098 40.9163 13.8553 40.403 13.37C 39.899 12.8753 39.647 12.1707 39.647 11.256L 39.647 7.308C 39.647 7.18667 39.6843 7.08867 39.759 7.014C 39.843 6.93 39.9457 6.888 40.067 6.888C 40.1883 6.888 40.2863 6.93 40.361 7.014C 40.445 7.08867 40.487 7.18667 40.487 7.308L 40.487 11.256C 40.487 11.928 40.6643 12.4413 41.019 12.796C 41.3737 13.1413 41.873 13.314 42.517 13.314C 43.1703 13.314 43.6743 13.1413 44.029 12.796C 44.393 12.4413 44.575 11.928 44.575 11.256L 44.575 7.308C 44.575 7.18667 44.6123 7.08867 44.687 7.014C 44.771 6.93 44.8737 6.888 44.995 6.888ZM 54.8478 6.79C 55.4638 6.79 56.0238 6.94867 56.5278 7.266C 57.0318 7.574 57.4238 8.008 57.7038 8.568C 57.9932 9.11867 58.1378 9.73933 58.1378 10.43C 58.1378 11.13 57.9932 11.76 57.7038 12.32C 57.4238 12.8707 57.0318 13.3047 56.5278 13.622C 56.0332 13.9393 55.4778 14.098 54.8618 14.098C 54.3205 14.098 53.8212 13.972 53.3638 13.72C 52.9158 13.4587 52.5565 13.1133 52.2858 12.684L 52.2858 16.38C 52.2858 16.5013 52.2438 16.5993 52.1598 16.674C 52.0852 16.758 51.9872 16.8 51.8658 16.8C 51.7445 16.8 51.6418 16.758 51.5578 16.674C 51.4832 16.5993 51.4458 16.5013 51.4458 16.38L 51.4458 7.252C 51.4458 7.13067 51.4832 7.028 51.5578 6.944C 51.6418 6.86 51.7445 6.818 51.8658 6.818C 51.9872 6.818 52.0852 6.86 52.1598 6.944C 52.2438 7.028 52.2858 7.13067 52.2858 7.252L 52.2858 8.204C 52.5285 7.76533 52.8785 7.42 53.3358 7.168C 53.7932 6.916 54.2972 6.79 54.8478 6.79ZM 54.7778 13.314C 55.2632 13.314 55.6972 13.1927 56.0798 12.95C 56.4718 12.698 56.7752 12.3527 56.9898 11.914C 57.2138 11.4753 57.3258 10.9807 57.3258 10.43C 57.3258 9.88867 57.2138 9.40333 56.9898 8.974C 56.7752 8.53533 56.4718 8.19467 56.0798 7.952C 55.6972 7.7 55.2632 7.574 54.7778 7.574C 54.2832 7.574 53.8398 7.69533 53.4478 7.938C 53.0558 8.18067 52.7525 8.52133 52.5378 8.96C 52.3232 9.38933 52.2158 9.87933 52.2158 10.43C 52.2158 10.9807 52.3232 11.4753 52.5378 11.914C 52.7525 12.3527 53.0558 12.698 53.4478 12.95C 53.8398 13.1927 54.2832 13.314 54.7778 13.314ZM 65.6777 6.846C 65.7991 6.846 65.8971 6.888 65.9717 6.972C 66.0557 7.056 66.0977 7.15867 66.0977 7.28L 66.0977 13.58C 66.0977 13.7013 66.0557 13.804 65.9717 13.888C 65.8971 13.9627 65.7991 14 65.6777 14C 65.5564 14 65.4537 13.9627 65.3697 13.888C 65.2951 13.804 65.2577 13.7013 65.2577 13.58L 65.2577 12.642C 65.0244 13.062 64.6744 13.4167 64.2077 13.706C 63.7411 13.9953 63.2324 14.14 62.6817 14.14C 62.0564 14.14 61.4917 13.9767 60.9877 13.65C 60.4931 13.3233 60.1011 12.8753 59.8117 12.306C 59.5317 11.7367 59.3917 11.0973 59.3917 10.388C 59.3917 9.67867 59.5364 9.044 59.8257 8.484C 60.1151 7.91467 60.5071 7.47133 61.0017 7.154C 61.5057 6.83667 62.0611 6.678 62.6677 6.678C 63.2277 6.678 63.7411 6.81333 64.2077 7.084C 64.6744 7.35467 65.0244 7.70933 65.2577 8.148L 65.2577 7.28C 65.2577 7.15867 65.2951 7.056 65.3697 6.972C 65.4537 6.888 65.5564 6.846 65.6777 6.846ZM 62.7657 13.356C 63.2511 13.356 63.6851 13.23 64.0677 12.978C 64.4597 12.7167 64.7631 12.362 64.9777 11.914C 65.2017 11.4567 65.3137 10.948 65.3137 10.388C 65.3137 9.84667 65.2017 9.352 64.9777 8.904C 64.7631 8.456 64.4597 8.106 64.0677 7.854C 63.6851 7.59267 63.2511 7.462 62.7657 7.462C 62.2804 7.462 61.8417 7.588 61.4497 7.84C 61.0671 8.092 60.7637 8.442 60.5397 8.89C 60.3251 9.32867 60.2177 9.828 60.2177 10.388C 60.2177 10.948 60.3251 11.4567 60.5397 11.914C 60.7544 12.362 61.0531 12.7167 61.4357 12.978C 61.8277 13.23 62.2711 13.356 62.7657 13.356ZM 73.4595 6.72C 73.5809 6.72 73.6789 6.762 73.7535 6.846C 73.8375 6.92067 73.8795 7.01867 73.8795 7.14L 73.8795 13.314C 73.8795 14.0513 73.7349 14.6813 73.4455 15.204C 73.1562 15.7267 72.7549 16.1233 72.2415 16.394C 71.7282 16.6647 71.1495 16.8 70.5055 16.8C 70.1135 16.8 69.7449 16.758 69.3995 16.674C 69.0635 16.59 68.7835 16.478 68.5595 16.338C 68.3635 16.2167 68.2655 16.0813 68.2655 15.932C 68.2655 15.9133 68.2749 15.8667 68.2935 15.792C 68.3215 15.6987 68.3682 15.6287 68.4335 15.582C 68.4989 15.5353 68.5689 15.512 68.6435 15.512C 68.6995 15.512 68.7555 15.526 68.8115 15.554C 69.4089 15.8807 69.9782 16.044 70.5195 16.044C 71.2942 16.044 71.9055 15.8013 72.3535 15.316C 72.8109 14.8307 73.0395 14.168 73.0395 13.328L 73.0395 12.838C 72.8062 13.23 72.4702 13.5473 72.0315 13.79C 71.5929 14.0233 71.1169 14.14 70.6035 14.14C 69.7915 14.14 69.1755 13.8973 68.7555 13.412C 68.3355 12.9267 68.1255 12.2687 68.1255 11.438L 68.1255 7.14C 68.1255 7.01867 68.1629 6.92067 68.2375 6.846C 68.3215 6.762 68.4242 6.72 68.5455 6.72C 68.6669 6.72 68.7649 6.762 68.8395 6.846C 68.9235 6.92067 68.9655 7.01867 68.9655 7.14L 68.9655 11.312C 68.9655 11.984 69.1102 12.4927 69.3995 12.838C 69.6982 13.1833 70.1602 13.356 70.7855 13.356C 71.1682 13.356 71.5322 13.2627 71.8775 13.076C 72.2322 12.88 72.5122 12.628 72.7175 12.32C 72.9322 12.0027 73.0395 11.6667 73.0395 11.312L 73.0395 7.14C 73.0395 7.01867 73.0769 6.92067 73.1515 6.846C 73.2355 6.762 73.3382 6.72 73.4595 6.72ZM 80.7227 13.58C 80.7227 13.7013 80.6807 13.804 80.5967 13.888C 80.522 13.9627 80.424 14 80.3027 14C 80.1814 14 80.0787 13.9627 79.9947 13.888C 79.92 13.804 79.8827 13.7013 79.8827 13.58L 79.8827 7.14C 79.8827 7.01867 79.92 6.92067 79.9947 6.846C 80.0787 6.762 80.1814 6.72 80.3027 6.72C 80.424 6.72 80.522 6.762 80.5967 6.846C 80.6807 6.92067 80.7227 7.01867 80.7227 7.14L 80.7227 13.58ZM 80.3027 5.782C 80.116 5.782 79.9714 5.74 79.8687 5.656C 79.766 5.56267 79.7147 5.432 79.7147 5.264L 79.7147 5.124C 79.7147 4.956 79.766 4.83 79.8687 4.746C 79.9807 4.65267 80.13 4.606 80.3167 4.606C 80.69 4.606 80.8767 4.77867 80.8767 5.124L 80.8767 5.264C 80.8767 5.432 80.8254 5.56267 80.7227 5.656C 80.6294 5.74 80.4894 5.782 80.3027 5.782ZM 86.2788 6.678C 87.1468 6.678 87.7815 6.93467 88.1828 7.448C 88.5935 7.952 88.7988 8.624 88.7988 9.464L 88.7988 13.58C 88.7988 13.7013 88.7568 13.804 88.6728 13.888C 88.5888 13.9627 88.4908 14 88.3788 14C 88.2575 14 88.1548 13.9627 88.0708 13.888C 87.9962 13.804 87.9588 13.7013 87.9588 13.58L 87.9588 9.506C 87.9588 8.89933 87.8048 8.40933 87.4968 8.036C 87.1982 7.65333 86.7315 7.462 86.0968 7.462C 85.6955 7.462 85.3128 7.55533 84.9488 7.742C 84.5942 7.92867 84.3048 8.18067 84.0808 8.498C 83.8568 8.806 83.7448 9.142 83.7448 9.506L 83.7448 13.58C 83.7448 13.7013 83.7028 13.804 83.6188 13.888C 83.5442 13.9627 83.4462 14 83.3248 14C 83.2035 14 83.1008 13.9627 83.0168 13.888C 82.9422 13.804 82.9048 13.7013 82.9048 13.58L 82.9048 7.308C 82.9048 7.18667 82.9422 7.08867 83.0168 7.014C 83.1008 6.93 83.2035 6.888 83.3248 6.888C 83.4462 6.888 83.5442 6.93 83.6188 7.014C 83.7028 7.08867 83.7448 7.18667 83.7448 7.308L 83.7448 8.078C 83.9968 7.67667 84.3562 7.34533 84.8228 7.084C 85.2988 6.81333 85.7842 6.678 86.2788 6.678ZM 92.3986 7.658L 92.3986 12.348C 92.3986 12.7027 92.4639 12.9453 92.5946 13.076C 92.7252 13.1973 92.8979 13.258 93.1126 13.258C 93.1686 13.258 93.2386 13.2487 93.3226 13.23C 93.4066 13.202 93.4719 13.188 93.5186 13.188C 93.6026 13.188 93.6726 13.2253 93.7286 13.3C 93.7939 13.3653 93.8266 13.4447 93.8266 13.538C 93.8266 13.6687 93.7519 13.7807 93.6026 13.874C 93.4532 13.958 93.2759 14 93.0706 14C 92.8186 14 92.5946 13.9767 92.3986 13.93C 92.2026 13.8833 92.0112 13.7433 91.8246 13.51C 91.6472 13.2767 91.5586 12.9033 91.5586 12.39L 91.5586 7.658L 90.5366 7.658C 90.4246 7.658 90.3266 7.62067 90.2426 7.546C 90.1679 7.47133 90.1306 7.378 90.1306 7.266C 90.1306 7.154 90.1679 7.06067 90.2426 6.986C 90.3266 6.91133 90.4246 6.874 90.5366 6.874L 91.5586 6.874L 91.5586 5.32C 91.5586 5.19867 91.5959 5.10067 91.6706 5.026C 91.7546 4.942 91.8572 4.9 91.9786 4.9C 92.0999 4.9 92.1979 4.942 92.2726 5.026C 92.3566 5.10067 92.3986 5.19867 92.3986 5.32L 92.3986 6.874L 93.7986 6.874C 93.9012 6.874 93.9899 6.916 94.0646 7C 94.1486 7.084 94.1906 7.17733 94.1906 7.28C 94.1906 7.392 94.1532 7.48533 94.0786 7.56C 94.0039 7.62533 93.9106 7.658 93.7986 7.658L 92.3986 7.658ZM 101.722 10.01C 101.722 10.122 101.68 10.22 101.596 10.304C 101.512 10.3787 101.414 10.416 101.302 10.416L 96.0104 10.416C 96.0104 10.976 96.1224 11.48 96.3464 11.928C 96.5797 12.3667 96.9064 12.7167 97.3264 12.978C 97.7557 13.23 98.2597 13.356 98.8384 13.356C 99.2864 13.356 99.6877 13.2627 100.042 13.076C 100.397 12.8893 100.682 12.6513 100.896 12.362C 100.999 12.278 101.097 12.236 101.19 12.236C 101.284 12.236 101.368 12.2733 101.442 12.348C 101.517 12.4227 101.554 12.5067 101.554 12.6C 101.554 12.7027 101.508 12.8007 101.414 12.894C 101.116 13.258 100.738 13.5567 100.28 13.79C 99.8324 14.0233 99.3564 14.14 98.8524 14.14C 98.1337 14.14 97.499 13.986 96.9484 13.678C 96.3977 13.37 95.9684 12.9407 95.6604 12.39C 95.3524 11.83 95.1984 11.186 95.1984 10.458C 95.1984 9.69267 95.3477 9.02533 95.6464 8.456C 95.9544 7.87733 96.3604 7.43867 96.8644 7.14C 97.3684 6.832 97.905 6.678 98.4744 6.678C 99.0344 6.678 99.557 6.80867 100.042 7.07C 100.537 7.33133 100.938 7.714 101.246 8.218C 101.554 8.722 101.713 9.31933 101.722 10.01ZM 98.4744 7.49C 97.933 7.49 97.429 7.67667 96.9624 8.05C 96.505 8.42333 96.211 8.96 96.0804 9.66L 100.854 9.66L 100.854 9.548C 100.808 9.128 100.668 8.764 100.434 8.456C 100.201 8.13867 99.907 7.90067 99.5524 7.742C 99.207 7.574 98.8477 7.49 98.4744 7.49ZM 106.8 6.678C 106.986 6.678 107.154 6.71533 107.304 6.79C 107.453 6.86467 107.528 6.97667 107.528 7.126C 107.528 7.25667 107.49 7.364 107.416 7.448C 107.341 7.52267 107.252 7.56 107.15 7.56C 107.103 7.56 107.01 7.53667 106.87 7.49C 106.739 7.44333 106.613 7.42 106.492 7.42C 106.146 7.42 105.801 7.55533 105.456 7.826C 105.12 8.08733 104.84 8.428 104.616 8.848C 104.401 9.268 104.294 9.69267 104.294 10.122L 104.294 13.58C 104.294 13.7013 104.252 13.804 104.168 13.888C 104.093 13.9627 103.995 14 103.874 14C 103.752 14 103.65 13.9627 103.566 13.888C 103.491 13.804 103.454 13.7013 103.454 13.58L 103.454 7.308C 103.454 7.18667 103.491 7.08867 103.566 7.014C 103.65 6.93 103.752 6.888 103.874 6.888C 103.995 6.888 104.093 6.93 104.168 7.014C 104.252 7.08867 104.294 7.18667 104.294 7.308L 104.294 8.54C 104.508 8.008 104.83 7.56933 105.26 7.224C 105.698 6.86933 106.212 6.68733 106.8 6.678ZM 114.574 10.01C 114.574 10.122 114.532 10.22 114.448 10.304C 114.364 10.3787 114.266 10.416 114.154 10.416L 108.862 10.416C 108.862 10.976 108.974 11.48 109.198 11.928C 109.431 12.3667 109.758 12.7167 110.178 12.978C 110.607 13.23 111.111 13.356 111.69 13.356C 112.138 13.356 112.539 13.2627 112.894 13.076C 113.249 12.8893 113.533 12.6513 113.748 12.362C 113.851 12.278 113.949 12.236 114.042 12.236C 114.135 12.236 114.219 12.2733 114.294 12.348C 114.369 12.4227 114.406 12.5067 114.406 12.6C 114.406 12.7027 114.359 12.8007 114.266 12.894C 113.967 13.258 113.589 13.5567 113.132 13.79C 112.684 14.0233 112.208 14.14 111.704 14.14C 110.985 14.14 110.351 13.986 109.8 13.678C 109.249 13.37 108.82 12.9407 108.512 12.39C 108.204 11.83 108.05 11.186 108.05 10.458C 108.05 9.69267 108.199 9.02533 108.498 8.456C 108.806 7.87733 109.212 7.43867 109.716 7.14C 110.22 6.832 110.757 6.678 111.326 6.678C 111.886 6.678 112.409 6.80867 112.894 7.07C 113.389 7.33133 113.79 7.714 114.098 8.218C 114.406 8.722 114.565 9.31933 114.574 10.01ZM 111.326 7.49C 110.785 7.49 110.281 7.67667 109.814 8.05C 109.357 8.42333 109.063 8.96 108.932 9.66L 113.706 9.66L 113.706 9.548C 113.659 9.128 113.519 8.764 113.286 8.456C 113.053 8.13867 112.759 7.90067 112.404 7.742C 112.059 7.574 111.699 7.49 111.326 7.49ZM 115.899 12.866C 115.825 12.7447 115.787 12.642 115.787 12.558C 115.787 12.4367 115.848 12.3433 115.969 12.278C 116.025 12.222 116.1 12.194 116.193 12.194C 116.305 12.194 116.408 12.2407 116.501 12.334C 117.052 13.062 117.785 13.426 118.699 13.426C 119.147 13.426 119.535 13.3233 119.861 13.118C 120.197 12.9033 120.365 12.5953 120.365 12.194C 120.365 11.802 120.211 11.508 119.903 11.312C 119.595 11.116 119.166 10.948 118.615 10.808C 117.841 10.612 117.234 10.36 116.795 10.052C 116.357 9.73467 116.137 9.27267 116.137 8.666C 116.137 8.28333 116.245 7.94267 116.459 7.644C 116.674 7.336 116.963 7.098 117.327 6.93C 117.701 6.762 118.121 6.678 118.587 6.678C 118.989 6.678 119.39 6.75733 119.791 6.916C 120.202 7.06533 120.552 7.308 120.841 7.644C 120.925 7.70933 120.967 7.80267 120.967 7.924C 120.967 8.036 120.921 8.134 120.827 8.218C 120.762 8.274 120.678 8.302 120.575 8.302C 120.482 8.302 120.398 8.26467 120.323 8.19C 120.099 7.938 119.833 7.74667 119.525 7.616C 119.217 7.48533 118.886 7.42 118.531 7.42C 118.093 7.42 117.715 7.52267 117.397 7.728C 117.089 7.93333 116.935 8.24133 116.935 8.652C 116.954 9.02533 117.122 9.31 117.439 9.506C 117.766 9.702 118.242 9.87933 118.867 10.038C 119.353 10.1593 119.754 10.2947 120.071 10.444C 120.389 10.5933 120.645 10.8033 120.841 11.074C 121.047 11.3447 121.149 11.704 121.149 12.152C 121.149 12.7587 120.907 13.244 120.421 13.608C 119.936 13.9627 119.334 14.14 118.615 14.14C 117.477 14.14 116.571 13.7153 115.899 12.866ZM 124.268 7.658L 124.268 12.348C 124.268 12.7027 124.333 12.9453 124.464 13.076C 124.594 13.1973 124.767 13.258 124.982 13.258C 125.038 13.258 125.108 13.2487 125.192 13.23C 125.276 13.202 125.341 13.188 125.388 13.188C 125.472 13.188 125.542 13.2253 125.598 13.3C 125.663 13.3653 125.696 13.4447 125.696 13.538C 125.696 13.6687 125.621 13.7807 125.472 13.874C 125.322 13.958 125.145 14 124.94 14C 124.688 14 124.464 13.9767 124.268 13.93C 124.072 13.8833 123.88 13.7433 123.694 13.51C 123.516 13.2767 123.428 12.9033 123.428 12.39L 123.428 7.658L 122.406 7.658C 122.294 7.658 122.196 7.62067 122.112 7.546C 122.037 7.47133 122 7.378 122 7.266C 122 7.154 122.037 7.06067 122.112 6.986C 122.196 6.91133 122.294 6.874 122.406 6.874L 123.428 6.874L 123.428 5.32C 123.428 5.19867 123.465 5.10067 123.54 5.026C 123.624 4.942 123.726 4.9 123.848 4.9C 123.969 4.9 124.067 4.942 124.142 5.026C 124.226 5.10067 124.268 5.19867 124.268 5.32L 124.268 6.874L 125.668 6.874C 125.77 6.874 125.859 6.916 125.934 7C 126.018 7.084 126.06 7.17733 126.06 7.28C 126.06 7.392 126.022 7.48533 125.948 7.56C 125.873 7.62533 125.78 7.658 125.668 7.658L 124.268 7.658ZM 137.488 10.01C 137.488 10.122 137.446 10.22 137.362 10.304C 137.278 10.3787 137.18 10.416 137.068 10.416L 131.776 10.416C 131.776 10.976 131.888 11.48 132.112 11.928C 132.345 12.3667 132.672 12.7167 133.092 12.978C 133.521 13.23 134.025 13.356 134.604 13.356C 135.052 13.356 135.453 13.2627 135.808 13.076C 136.163 12.8893 136.447 12.6513 136.662 12.362C 136.765 12.278 136.863 12.236 136.956 12.236C 137.049 12.236 137.133 12.2733 137.208 12.348C 137.283 12.4227 137.32 12.5067 137.32 12.6C 137.32 12.7027 137.273 12.8007 137.18 12.894C 136.881 13.258 136.503 13.5567 136.046 13.79C 135.598 14.0233 135.122 14.14 134.618 14.14C 133.899 14.14 133.265 13.986 132.714 13.678C 132.163 13.37 131.734 12.9407 131.426 12.39C 131.118 11.83 130.964 11.186 130.964 10.458C 130.964 9.69267 131.113 9.02533 131.412 8.456C 131.72 7.87733 132.126 7.43867 132.63 7.14C 133.134 6.832 133.671 6.678 134.24 6.678C 134.8 6.678 135.323 6.80867 135.808 7.07C 136.303 7.33133 136.704 7.714 137.012 8.218C 137.32 8.722 137.479 9.31933 137.488 10.01ZM 134.24 7.49C 133.699 7.49 133.195 7.67667 132.728 8.05C 132.271 8.42333 131.977 8.96 131.846 9.66L 136.62 9.66L 136.62 9.548C 136.573 9.128 136.433 8.764 136.2 8.456C 135.967 8.13867 135.673 7.90067 135.318 7.742C 134.973 7.574 134.613 7.49 134.24 7.49ZM 145.084 6.846C 145.205 6.846 145.303 6.888 145.378 6.972C 145.462 7.056 145.504 7.15867 145.504 7.28L 145.504 13.58C 145.504 13.7013 145.462 13.804 145.378 13.888C 145.303 13.9627 145.205 14 145.084 14C 144.963 14 144.86 13.9627 144.776 13.888C 144.701 13.804 144.664 13.7013 144.664 13.58L 144.664 12.642C 144.431 13.062 144.081 13.4167 143.614 13.706C 143.147 13.9953 142.639 14.14 142.088 14.14C 141.463 14.14 140.898 13.9767 140.394 13.65C 139.899 13.3233 139.507 12.8753 139.218 12.306C 138.938 11.7367 138.798 11.0973 138.798 10.388C 138.798 9.67867 138.943 9.044 139.232 8.484C 139.521 7.91467 139.913 7.47133 140.408 7.154C 140.912 6.83667 141.467 6.678 142.074 6.678C 142.634 6.678 143.147 6.81333 143.614 7.084C 144.081 7.35467 144.431 7.70933 144.664 8.148L 144.664 7.28C 144.664 7.15867 144.701 7.056 144.776 6.972C 144.86 6.888 144.963 6.846 145.084 6.846ZM 142.172 13.356C 142.657 13.356 143.091 13.23 143.474 12.978C 143.866 12.7167 144.169 12.362 144.384 11.914C 144.608 11.4567 144.72 10.948 144.72 10.388C 144.72 9.84667 144.608 9.352 144.384 8.904C 144.169 8.456 143.866 8.106 143.474 7.854C 143.091 7.59267 142.657 7.462 142.172 7.462C 141.687 7.462 141.248 7.588 140.856 7.84C 140.473 8.092 140.17 8.442 139.946 8.89C 139.731 9.32867 139.624 9.828 139.624 10.388C 139.624 10.948 139.731 11.4567 139.946 11.914C 140.161 12.362 140.459 12.7167 140.842 12.978C 141.234 13.23 141.677 13.356 142.172 13.356ZM 150.79 6.678C 151.229 6.678 151.635 6.72933 152.008 6.832C 152.391 6.92533 152.694 7.056 152.918 7.224C 153.151 7.392 153.268 7.574 153.268 7.77C 153.268 7.87267 153.231 7.966 153.156 8.05C 153.091 8.134 153.007 8.176 152.904 8.176C 152.811 8.176 152.731 8.15733 152.666 8.12C 152.61 8.08267 152.545 8.02667 152.47 7.952C 152.349 7.83067 152.232 7.742 152.12 7.686C 151.98 7.62067 151.793 7.56933 151.56 7.532C 151.336 7.48533 151.093 7.462 150.832 7.462C 150.319 7.462 149.847 7.59267 149.418 7.854C 148.998 8.11533 148.667 8.47 148.424 8.918C 148.181 9.366 148.06 9.86067 148.06 10.402C 148.06 10.962 148.177 11.466 148.41 11.914C 148.643 12.362 148.965 12.7167 149.376 12.978C 149.796 13.23 150.272 13.356 150.804 13.356C 151.14 13.356 151.406 13.328 151.602 13.272C 151.807 13.216 152.008 13.1367 152.204 13.034C 152.269 12.9967 152.381 12.9127 152.54 12.782C 152.615 12.7167 152.68 12.67 152.736 12.642C 152.792 12.6047 152.853 12.586 152.918 12.586C 153.03 12.586 153.119 12.6233 153.184 12.698C 153.249 12.7633 153.282 12.852 153.282 12.964C 153.282 13.1227 153.17 13.2953 152.946 13.482C 152.722 13.6593 152.414 13.8133 152.022 13.944C 151.63 14.0747 151.196 14.14 150.72 14.14C 150.039 14.14 149.432 13.9813 148.9 13.664C 148.368 13.3373 147.953 12.8893 147.654 12.32C 147.365 11.7507 147.22 11.1113 147.22 10.402C 147.22 9.72067 147.369 9.1 147.668 8.54C 147.967 7.97067 148.387 7.518 148.928 7.182C 149.469 6.846 150.09 6.678 150.79 6.678ZM 158.149 6.79C 158.989 6.79 159.615 7.056 160.025 7.588C 160.436 8.11067 160.641 8.78733 160.641 9.618L 160.641 13.58C 160.641 13.7013 160.599 13.804 160.515 13.888C 160.441 13.9627 160.343 14 160.221 14C 160.1 14 159.997 13.9627 159.913 13.888C 159.839 13.804 159.801 13.7013 159.801 13.58L 159.801 9.618C 159.801 9.01133 159.657 8.52133 159.367 8.148C 159.078 7.76533 158.625 7.574 158.009 7.574C 157.617 7.574 157.244 7.66733 156.889 7.854C 156.544 8.04067 156.264 8.29267 156.049 8.61C 155.835 8.918 155.727 9.254 155.727 9.618L 155.727 13.58C 155.727 13.7013 155.685 13.804 155.601 13.888C 155.527 13.9627 155.429 14 155.307 14C 155.186 14 155.083 13.9627 154.999 13.888C 154.925 13.804 154.887 13.7013 154.887 13.58L 154.887 4.06C 154.887 3.93867 154.925 3.84067 154.999 3.766C 155.083 3.682 155.186 3.64 155.307 3.64C 155.429 3.64 155.527 3.682 155.601 3.766C 155.685 3.84067 155.727 3.93867 155.727 4.06L 155.727 8.162C 155.979 7.76067 156.329 7.434 156.777 7.182C 157.225 6.92067 157.683 6.79 158.149 6.79ZM 174.792 6.79C 175.632 6.79 176.248 7.05133 176.64 7.574C 177.042 8.08733 177.242 8.76867 177.242 9.618L 177.242 13.58C 177.242 13.7013 177.2 13.804 177.116 13.888C 177.042 13.9627 176.944 14 176.822 14C 176.701 14 176.598 13.9627 176.514 13.888C 176.44 13.804 176.402 13.7013 176.402 13.58L 176.402 9.66C 176.402 9.044 176.253 8.54467 175.954 8.162C 175.665 7.77 175.212 7.574 174.596 7.574C 174.204 7.574 173.831 7.66733 173.476 7.854C 173.131 8.04067 172.851 8.29733 172.636 8.624C 172.422 8.94133 172.314 9.28667 172.314 9.66L 172.314 13.58C 172.314 13.7013 172.272 13.804 172.188 13.888C 172.114 13.9627 172.016 14 171.894 14C 171.773 14 171.67 13.9627 171.586 13.888C 171.512 13.804 171.474 13.7013 171.474 13.58L 171.474 9.618C 171.474 9.01133 171.334 8.52133 171.054 8.148C 170.774 7.76533 170.336 7.574 169.738 7.574C 169.356 7.574 168.992 7.66733 168.646 7.854C 168.31 8.04067 168.035 8.29267 167.82 8.61C 167.615 8.918 167.512 9.254 167.512 9.618L 167.512 13.58C 167.512 13.7013 167.47 13.804 167.386 13.888C 167.312 13.9627 167.214 14 167.092 14C 166.971 14 166.868 13.9627 166.784 13.888C 166.71 13.804 166.672 13.7013 166.672 13.58L 166.672 7.308C 166.672 7.18667 166.71 7.08867 166.784 7.014C 166.868 6.93 166.971 6.888 167.092 6.888C 167.214 6.888 167.312 6.93 167.386 7.014C 167.47 7.08867 167.512 7.18667 167.512 7.308L 167.512 8.12C 167.764 7.73733 168.105 7.42 168.534 7.168C 168.964 6.916 169.416 6.79 169.892 6.79C 170.434 6.79 170.9 6.92067 171.292 7.182C 171.684 7.44333 171.964 7.826 172.132 8.33C 172.328 7.91933 172.688 7.56 173.21 7.252C 173.733 6.944 174.26 6.79 174.792 6.79ZM 186.05 10.416C 186.05 11.116 185.896 11.7507 185.588 12.32C 185.28 12.8893 184.855 13.3373 184.314 13.664C 183.773 13.9813 183.171 14.14 182.508 14.14C 181.845 14.14 181.243 13.9813 180.702 13.664C 180.161 13.3373 179.736 12.8893 179.428 12.32C 179.12 11.7507 178.966 11.116 178.966 10.416C 178.966 9.716 179.12 9.08133 179.428 8.512C 179.736 7.94267 180.161 7.49467 180.702 7.168C 181.243 6.84133 181.845 6.678 182.508 6.678C 183.171 6.678 183.773 6.84133 184.314 7.168C 184.855 7.49467 185.28 7.94267 185.588 8.512C 185.896 9.08133 186.05 9.716 186.05 10.416ZM 185.21 10.416C 185.21 9.856 185.093 9.352 184.86 8.904C 184.627 8.456 184.3 8.106 183.88 7.854C 183.469 7.59267 183.012 7.462 182.508 7.462C 182.004 7.462 181.547 7.59267 181.136 7.854C 180.725 8.106 180.399 8.456 180.156 8.904C 179.923 9.352 179.806 9.856 179.806 10.416C 179.806 10.9667 179.923 11.466 180.156 11.914C 180.399 12.362 180.725 12.7167 181.136 12.978C 181.547 13.23 182.004 13.356 182.508 13.356C 183.012 13.356 183.469 13.23 183.88 12.978C 184.3 12.726 184.627 12.376 184.86 11.928C 185.093 11.48 185.21 10.976 185.21 10.416ZM 191.142 6.678C 192.01 6.678 192.645 6.93467 193.046 7.448C 193.457 7.952 193.662 8.624 193.662 9.464L 193.662 13.58C 193.662 13.7013 193.62 13.804 193.536 13.888C 193.452 13.9627 193.354 14 193.242 14C 193.121 14 193.018 13.9627 192.934 13.888C 192.859 13.804 192.822 13.7013 192.822 13.58L 192.822 9.506C 192.822 8.89933 192.668 8.40933 192.36 8.036C 192.061 7.65333 191.595 7.462 190.96 7.462C 190.559 7.462 190.176 7.55533 189.812 7.742C 189.457 7.92867 189.168 8.18067 188.944 8.498C 188.72 8.806 188.608 9.142 188.608 9.506L 188.608 13.58C 188.608 13.7013 188.566 13.804 188.482 13.888C 188.407 13.9627 188.309 14 188.188 14C 188.067 14 187.964 13.9627 187.88 13.888C 187.805 13.804 187.768 13.7013 187.768 13.58L 187.768 7.308C 187.768 7.18667 187.805 7.08867 187.88 7.014C 187.964 6.93 188.067 6.888 188.188 6.888C 188.309 6.888 188.407 6.93 188.482 7.014C 188.566 7.08867 188.608 7.18667 188.608 7.308L 188.608 8.078C 188.86 7.67667 189.219 7.34533 189.686 7.084C 190.162 6.81333 190.647 6.678 191.142 6.678ZM 197.262 7.658L 197.262 12.348C 197.262 12.7027 197.327 12.9453 197.458 13.076C 197.589 13.1973 197.761 13.258 197.976 13.258C 198.032 13.258 198.102 13.2487 198.186 13.23C 198.27 13.202 198.335 13.188 198.382 13.188C 198.466 13.188 198.536 13.2253 198.592 13.3C 198.657 13.3653 198.69 13.4447 198.69 13.538C 198.69 13.6687 198.615 13.7807 198.466 13.874C 198.317 13.958 198.139 14 197.934 14C 197.682 14 197.458 13.9767 197.262 13.93C 197.066 13.8833 196.875 13.7433 196.688 13.51C 196.511 13.2767 196.422 12.9033 196.422 12.39L 196.422 7.658L 195.4 7.658C 195.288 7.658 195.19 7.62067 195.106 7.546C 195.031 7.47133 194.994 7.378 194.994 7.266C 194.994 7.154 195.031 7.06067 195.106 6.986C 195.19 6.91133 195.288 6.874 195.4 6.874L 196.422 6.874L 196.422 5.32C 196.422 5.19867 196.459 5.10067 196.534 5.026C 196.618 4.942 196.721 4.9 196.842 4.9C 196.963 4.9 197.061 4.942 197.136 5.026C 197.22 5.10067 197.262 5.19867 197.262 5.32L 197.262 6.874L 198.662 6.874C 198.765 6.874 198.853 6.916 198.928 7C 199.012 7.084 199.054 7.17733 199.054 7.28C 199.054 7.392 199.017 7.48533 198.942 7.56C 198.867 7.62533 198.774 7.658 198.662 7.658L 197.262 7.658ZM 203.868 6.79C 204.708 6.79 205.333 7.056 205.744 7.588C 206.155 8.11067 206.36 8.78733 206.36 9.618L 206.36 13.58C 206.36 13.7013 206.318 13.804 206.234 13.888C 206.159 13.9627 206.061 14 205.94 14C 205.819 14 205.716 13.9627 205.632 13.888C 205.557 13.804 205.52 13.7013 205.52 13.58L 205.52 9.618C 205.52 9.01133 205.375 8.52133 205.086 8.148C 204.797 7.76533 204.344 7.574 203.728 7.574C 203.336 7.574 202.963 7.66733 202.608 7.854C 202.263 8.04067 201.983 8.29267 201.768 8.61C 201.553 8.918 201.446 9.254 201.446 9.618L 201.446 13.58C 201.446 13.7013 201.404 13.804 201.32 13.888C 201.245 13.9627 201.147 14 201.026 14C 200.905 14 200.802 13.9627 200.718 13.888C 200.643 13.804 200.606 13.7013 200.606 13.58L 200.606 4.06C 200.606 3.93867 200.643 3.84067 200.718 3.766C 200.802 3.682 200.905 3.64 201.026 3.64C 201.147 3.64 201.245 3.682 201.32 3.766C 201.404 3.84067 201.446 3.93867 201.446 4.06L 201.446 8.162C 201.698 7.76067 202.048 7.434 202.496 7.182C 202.944 6.92067 203.401 6.79 203.868 6.79ZM 7.714 27.416C 7.714 28.116 7.56 28.7507 7.252 29.32C 6.944 29.8893 6.51933 30.3373 5.978 30.664C 5.43667 30.9813 4.83467 31.14 4.172 31.14C 3.50933 31.14 2.90733 30.9813 2.366 30.664C 1.82467 30.3373 1.4 29.8893 1.092 29.32C 0.784 28.7507 0.63 28.116 0.63 27.416C 0.63 26.716 0.784 26.0813 1.092 25.512C 1.4 24.9427 1.82467 24.4947 2.366 24.168C 2.90733 23.8413 3.50933 23.678 4.172 23.678C 4.83467 23.678 5.43667 23.8413 5.978 24.168C 6.51933 24.4947 6.944 24.9427 7.252 25.512C 7.56 26.0813 7.714 26.716 7.714 27.416ZM 6.874 27.416C 6.874 26.856 6.75733 26.352 6.524 25.904C 6.29067 25.456 5.964 25.106 5.544 24.854C 5.13333 24.5927 4.676 24.462 4.172 24.462C 3.668 24.462 3.21067 24.5927 2.8 24.854C 2.38933 25.106 2.06267 25.456 1.82 25.904C 1.58667 26.352 1.47 26.856 1.47 27.416C 1.47 27.9667 1.58667 28.466 1.82 28.914C 2.06267 29.362 2.38933 29.7167 2.8 29.978C 3.21067 30.23 3.668 30.356 4.172 30.356C 4.676 30.356 5.13333 30.23 5.544 29.978C 5.964 29.726 6.29067 29.376 6.524 28.928C 6.75733 28.48 6.874 27.976 6.874 27.416ZM 12.8062 23.678C 13.6742 23.678 14.3088 23.9347 14.7102 24.448C 15.1208 24.952 15.3262 25.624 15.3262 26.464L 15.3262 30.58C 15.3262 30.7013 15.2842 30.804 15.2002 30.888C 15.1162 30.9627 15.0182 31 14.9062 31C 14.7848 31 14.6822 30.9627 14.5982 30.888C 14.5235 30.804 14.4862 30.7013 14.4862 30.58L 14.4862 26.506C 14.4862 25.8993 14.3322 25.4093 14.0242 25.036C 13.7255 24.6533 13.2588 24.462 12.6242 24.462C 12.2228 24.462 11.8402 24.5553 11.4762 24.742C 11.1215 24.9287 10.8322 25.1807 10.6082 25.498C 10.3842 25.806 10.2722 26.142 10.2722 26.506L 10.2722 30.58C 10.2722 30.7013 10.2302 30.804 10.1462 30.888C 10.0715 30.9627 9.97351 31 9.85217 31C 9.73084 31 9.62817 30.9627 9.54417 30.888C 9.46951 30.804 9.43217 30.7013 9.43217 30.58L 9.43217 24.308C 9.43217 24.1867 9.46951 24.0887 9.54417 24.014C 9.62817 23.93 9.73084 23.888 9.85217 23.888C 9.97351 23.888 10.0715 23.93 10.1462 24.014C 10.2302 24.0887 10.2722 24.1867 10.2722 24.308L 10.2722 25.078C 10.5242 24.6767 10.8835 24.3453 11.3502 24.084C 11.8262 23.8133 12.3115 23.678 12.8062 23.678ZM 27.164 23.846C 27.2854 23.846 27.3834 23.888 27.458 23.972C 27.542 24.056 27.584 24.1587 27.584 24.28L 27.584 30.58C 27.584 30.7013 27.542 30.804 27.458 30.888C 27.3834 30.9627 27.2854 31 27.164 31C 27.0427 31 26.94 30.9627 26.856 30.888C 26.7814 30.804 26.744 30.7013 26.744 30.58L 26.744 29.642C 26.5107 30.062 26.1607 30.4167 25.694 30.706C 25.2274 30.9953 24.7187 31.14 24.168 31.14C 23.5427 31.14 22.978 30.9767 22.474 30.65C 21.9794 30.3233 21.5874 29.8753 21.298 29.306C 21.018 28.7367 20.878 28.0973 20.878 27.388C 20.878 26.6787 21.0227 26.044 21.312 25.484C 21.6014 24.9147 21.9934 24.4713 22.488 24.154C 22.992 23.8367 23.5474 23.678 24.154 23.678C 24.714 23.678 25.2274 23.8133 25.694 24.084C 26.1607 24.3547 26.5107 24.7093 26.744 25.148L 26.744 24.28C 26.744 24.1587 26.7814 24.056 26.856 23.972C 26.94 23.888 27.0427 23.846 27.164 23.846ZM 24.252 30.356C 24.7374 30.356 25.1714 30.23 25.554 29.978C 25.946 29.7167 26.2494 29.362 26.464 28.914C 26.688 28.4567 26.8 27.948 26.8 27.388C 26.8 26.8467 26.688 26.352 26.464 25.904C 26.2494 25.456 25.946 25.106 25.554 24.854C 25.1714 24.5927 24.7374 24.462 24.252 24.462C 23.7667 24.462 23.328 24.588 22.936 24.84C 22.5534 25.092 22.25 25.442 22.026 25.89C 21.8114 26.3287 21.704 26.828 21.704 27.388C 21.704 27.948 21.8114 28.4567 22.026 28.914C 22.2407 29.362 22.5394 29.7167 22.922 29.978C 23.314 30.23 23.7574 30.356 24.252 30.356ZM 33.1499 23.678C 34.0179 23.678 34.6526 23.9347 35.0539 24.448C 35.4646 24.952 35.6699 25.624 35.6699 26.464L 35.6699 30.58C 35.6699 30.7013 35.6279 30.804 35.5439 30.888C 35.4599 30.9627 35.3619 31 35.2499 31C 35.1286 31 35.0259 30.9627 34.9419 30.888C 34.8673 30.804 34.8299 30.7013 34.8299 30.58L 34.8299 26.506C 34.8299 25.8993 34.6759 25.4093 34.3679 25.036C 34.0693 24.6533 33.6026 24.462 32.9679 24.462C 32.5666 24.462 32.1839 24.5553 31.8199 24.742C 31.4653 24.9287 31.1759 25.1807 30.9519 25.498C 30.7279 25.806 30.6159 26.142 30.6159 26.506L 30.6159 30.58C 30.6159 30.7013 30.5739 30.804 30.4899 30.888C 30.4153 30.9627 30.3173 31 30.1959 31C 30.0746 31 29.9719 30.9627 29.8879 30.888C 29.8133 30.804 29.7759 30.7013 29.7759 30.58L 29.7759 24.308C 29.7759 24.1867 29.8133 24.0887 29.8879 24.014C 29.9719 23.93 30.0746 23.888 30.1959 23.888C 30.3173 23.888 30.4153 23.93 30.4899 24.014C 30.5739 24.0887 30.6159 24.1867 30.6159 24.308L 30.6159 25.078C 30.8679 24.6767 31.2273 24.3453 31.6939 24.084C 32.1699 23.8133 32.6553 23.678 33.1499 23.678ZM 43.1353 23.72C 43.2566 23.72 43.3546 23.762 43.4293 23.846C 43.5133 23.9207 43.5553 24.0187 43.5553 24.14L 43.5553 30.314C 43.5553 31.0513 43.4106 31.6813 43.1213 32.204C 42.832 32.7267 42.4306 33.1233 41.9173 33.394C 41.404 33.6647 40.8253 33.8 40.1813 33.8C 39.7893 33.8 39.4206 33.758 39.0753 33.674C 38.7393 33.59 38.4593 33.478 38.2353 33.338C 38.0393 33.2167 37.9413 33.0813 37.9413 32.932C 37.9413 32.9133 37.9506 32.8667 37.9693 32.792C 37.9973 32.6987 38.044 32.6287 38.1093 32.582C 38.1746 32.5353 38.2446 32.512 38.3193 32.512C 38.3753 32.512 38.4313 32.526 38.4873 32.554C 39.0846 32.8807 39.654 33.044 40.1953 33.044C 40.97 33.044 41.5813 32.8013 42.0293 32.316C 42.4866 31.8307 42.7153 31.168 42.7153 30.328L 42.7153 29.838C 42.482 30.23 42.146 30.5473 41.7073 30.79C 41.2686 31.0233 40.7926 31.14 40.2793 31.14C 39.4673 31.14 38.8513 30.8973 38.4313 30.412C 38.0113 29.9267 37.8013 29.2687 37.8013 28.438L 37.8013 24.14C 37.8013 24.0187 37.8386 23.9207 37.9133 23.846C 37.9973 23.762 38.1 23.72 38.2213 23.72C 38.3426 23.72 38.4406 23.762 38.5153 23.846C 38.5993 23.9207 38.6413 24.0187 38.6413 24.14L 38.6413 28.312C 38.6413 28.984 38.786 29.4927 39.0753 29.838C 39.374 30.1833 39.836 30.356 40.4613 30.356C 40.844 30.356 41.208 30.2627 41.5533 30.076C 41.908 29.88 42.188 29.628 42.3933 29.32C 42.608 29.0027 42.7153 28.6667 42.7153 28.312L 42.7153 24.14C 42.7153 24.0187 42.7526 23.9207 42.8273 23.846C 42.9113 23.762 43.014 23.72 43.1353 23.72ZM 56.1945 27.416C 56.1945 28.116 56.0405 28.7507 55.7325 29.32C 55.4245 29.8893 54.9998 30.3373 54.4585 30.664C 53.9171 30.9813 53.3151 31.14 52.6525 31.14C 51.9898 31.14 51.3878 30.9813 50.8465 30.664C 50.3051 30.3373 49.8805 29.8893 49.5725 29.32C 49.2645 28.7507 49.1105 28.116 49.1105 27.416C 49.1105 26.716 49.2645 26.0813 49.5725 25.512C 49.8805 24.9427 50.3051 24.4947 50.8465 24.168C 51.3878 23.8413 51.9898 23.678 52.6525 23.678C 53.3151 23.678 53.9171 23.8413 54.4585 24.168C 54.9998 24.4947 55.4245 24.9427 55.7325 25.512C 56.0405 26.0813 56.1945 26.716 56.1945 27.416ZM 55.3545 27.416C 55.3545 26.856 55.2378 26.352 55.0045 25.904C 54.7711 25.456 54.4445 25.106 54.0245 24.854C 53.6138 24.5927 53.1565 24.462 52.6525 24.462C 52.1485 24.462 51.6911 24.5927 51.2805 24.854C 50.8698 25.106 50.5431 25.456 50.3005 25.904C 50.0671 26.352 49.9505 26.856 49.9505 27.416C 49.9505 27.9667 50.0671 28.466 50.3005 28.914C 50.5431 29.362 50.8698 29.7167 51.2805 29.978C 51.6911 30.23 52.1485 30.356 52.6525 30.356C 53.1565 30.356 53.6138 30.23 54.0245 29.978C 54.4445 29.726 54.7711 29.376 55.0045 28.928C 55.2378 28.48 55.3545 27.976 55.3545 27.416ZM 60.4046 21.438C 60.106 21.438 59.8726 21.536 59.7046 21.732C 59.546 21.928 59.4666 22.1987 59.4666 22.544L 59.4666 23.986L 61.0346 23.986C 61.1373 23.986 61.226 24.0233 61.3006 24.098C 61.3846 24.1727 61.4266 24.266 61.4266 24.378C 61.4266 24.49 61.3846 24.5833 61.3006 24.658C 61.226 24.7327 61.1373 24.77 61.0346 24.77L 59.4666 24.77L 59.4666 30.58C 59.4666 30.7013 59.4246 30.804 59.3406 30.888C 59.266 30.9627 59.168 31 59.0466 31C 58.9253 31 58.8226 30.9627 58.7386 30.888C 58.664 30.804 58.6266 30.7013 58.6266 30.58L 58.6266 24.77L 57.6046 24.77C 57.4926 24.77 57.3993 24.7327 57.3246 24.658C 57.25 24.574 57.2126 24.4807 57.2126 24.378C 57.2126 24.2567 57.25 24.1633 57.3246 24.098C 57.3993 24.0233 57.4926 23.986 57.6046 23.986L 58.6266 23.986L 58.6266 22.544C 58.6266 21.956 58.7946 21.5033 59.1306 21.186C 59.476 20.8593 59.9333 20.696 60.5026 20.696C 60.764 20.696 61.0066 20.738 61.2306 20.822C 61.4546 20.8967 61.5666 21.0227 61.5666 21.2C 61.5666 21.312 61.5293 21.4053 61.4546 21.48C 61.38 21.5547 61.296 21.592 61.2026 21.592C 61.1186 21.592 61.016 21.5687 60.8946 21.522C 60.6893 21.466 60.526 21.438 60.4046 21.438ZM 72.0103 23.72C 72.1316 23.72 72.2296 23.762 72.3043 23.846C 72.3883 23.9207 72.4303 24.0187 72.4303 24.14L 72.4303 30.314C 72.4303 31.0513 72.2856 31.6813 71.9963 32.204C 71.707 32.7267 71.3056 33.1233 70.7923 33.394C 70.279 33.6647 69.7003 33.8 69.0563 33.8C 68.6643 33.8 68.2956 33.758 67.9503 33.674C 67.6143 33.59 67.3343 33.478 67.1103 33.338C 66.9143 33.2167 66.8163 33.0813 66.8163 32.932C 66.8163 32.9133 66.8256 32.8667 66.8443 32.792C 66.8723 32.6987 66.919 32.6287 66.9843 32.582C 67.0496 32.5353 67.1196 32.512 67.1943 32.512C 67.2503 32.512 67.3063 32.526 67.3623 32.554C 67.9596 32.8807 68.529 33.044 69.0703 33.044C 69.845 33.044 70.4563 32.8013 70.9043 32.316C 71.3616 31.8307 71.5903 31.168 71.5903 30.328L 71.5903 29.838C 71.357 30.23 71.021 30.5473 70.5823 30.79C 70.1436 31.0233 69.6676 31.14 69.1543 31.14C 68.3423 31.14 67.7263 30.8973 67.3063 30.412C 66.8863 29.9267 66.6763 29.2687 66.6763 28.438L 66.6763 24.14C 66.6763 24.0187 66.7136 23.9207 66.7883 23.846C 66.8723 23.762 66.975 23.72 67.0963 23.72C 67.2176 23.72 67.3156 23.762 67.3903 23.846C 67.4743 23.9207 67.5163 24.0187 67.5163 24.14L 67.5163 28.312C 67.5163 28.984 67.661 29.4927 67.9503 29.838C 68.249 30.1833 68.711 30.356 69.3363 30.356C 69.719 30.356 70.083 30.2627 70.4283 30.076C 70.783 29.88 71.063 29.628 71.2683 29.32C 71.483 29.0027 71.5903 28.6667 71.5903 28.312L 71.5903 24.14C 71.5903 24.0187 71.6276 23.9207 71.7023 23.846C 71.7863 23.762 71.889 23.72 72.0103 23.72ZM 81.173 27.416C 81.173 28.116 81.019 28.7507 80.711 29.32C 80.403 29.8893 79.9783 30.3373 79.437 30.664C 78.8957 30.9813 78.2937 31.14 77.631 31.14C 76.9683 31.14 76.3663 30.9813 75.825 30.664C 75.2837 30.3373 74.859 29.8893 74.551 29.32C 74.243 28.7507 74.089 28.116 74.089 27.416C 74.089 26.716 74.243 26.0813 74.551 25.512C 74.859 24.9427 75.2837 24.4947 75.825 24.168C 76.3663 23.8413 76.9683 23.678 77.631 23.678C 78.2937 23.678 78.8957 23.8413 79.437 24.168C 79.9783 24.4947 80.403 24.9427 80.711 25.512C 81.019 26.0813 81.173 26.716 81.173 27.416ZM 80.333 27.416C 80.333 26.856 80.2163 26.352 79.983 25.904C 79.7497 25.456 79.423 25.106 79.003 24.854C 78.5923 24.5927 78.135 24.462 77.631 24.462C 77.127 24.462 76.6697 24.5927 76.259 24.854C 75.8483 25.106 75.5217 25.456 75.279 25.904C 75.0457 26.352 74.929 26.856 74.929 27.416C 74.929 27.9667 75.0457 28.466 75.279 28.914C 75.5217 29.362 75.8483 29.7167 76.259 29.978C 76.6697 30.23 77.127 30.356 77.631 30.356C 78.135 30.356 78.5923 30.23 79.003 29.978C 79.423 29.726 79.7497 29.376 79.983 28.928C 80.2163 28.48 80.333 27.976 80.333 27.416ZM 88.2392 23.888C 88.3605 23.888 88.4585 23.93 88.5332 24.014C 88.6172 24.0887 88.6592 24.1867 88.6592 24.308L 88.6592 28.256C 88.6592 29.1707 88.4025 29.8753 87.8892 30.37C 87.3758 30.8553 86.6665 31.098 85.7612 31.098C 84.8652 31.098 84.1605 30.8553 83.6472 30.37C 83.1432 29.8753 82.8912 29.1707 82.8912 28.256L 82.8912 24.308C 82.8912 24.1867 82.9285 24.0887 83.0032 24.014C 83.0872 23.93 83.1898 23.888 83.3112 23.888C 83.4325 23.888 83.5305 23.93 83.6052 24.014C 83.6892 24.0887 83.7312 24.1867 83.7312 24.308L 83.7312 28.256C 83.7312 28.928 83.9085 29.4413 84.2632 29.796C 84.6178 30.1413 85.1172 30.314 85.7612 30.314C 86.4145 30.314 86.9185 30.1413 87.2732 29.796C 87.6372 29.4413 87.8192 28.928 87.8192 28.256L 87.8192 24.308C 87.8192 24.1867 87.8565 24.0887 87.9312 24.014C 88.0152 23.93 88.1178 23.888 88.2392 23.888ZM 94.2079 23.678C 94.3945 23.678 94.5625 23.7153 94.7119 23.79C 94.8612 23.8647 94.9359 23.9767 94.9359 24.126C 94.9359 24.2567 94.8985 24.364 94.8239 24.448C 94.7492 24.5227 94.6605 24.56 94.5579 24.56C 94.5112 24.56 94.4179 24.5367 94.2779 24.49C 94.1472 24.4433 94.0212 24.42 93.8999 24.42C 93.5545 24.42 93.2092 24.5553 92.8639 24.826C 92.5279 25.0873 92.2479 25.428 92.0239 25.848C 91.8092 26.268 91.7019 26.6927 91.7019 27.122L 91.7019 30.58C 91.7019 30.7013 91.6599 30.804 91.5759 30.888C 91.5012 30.9627 91.4032 31 91.2819 31C 91.1605 31 91.0579 30.9627 90.9739 30.888C 90.8992 30.804 90.8619 30.7013 90.8619 30.58L 90.8619 24.308C 90.8619 24.1867 90.8992 24.0887 90.9739 24.014C 91.0579 23.93 91.1605 23.888 91.2819 23.888C 91.4032 23.888 91.5012 23.93 91.5759 24.014C 91.6599 24.0887 91.7019 24.1867 91.7019 24.308L 91.7019 25.54C 91.9165 25.008 92.2385 24.5693 92.6679 24.224C 93.1065 23.8693 93.6199 23.6873 94.2079 23.678ZM 103.171 23.678C 103.609 23.678 104.015 23.7293 104.389 23.832C 104.771 23.9253 105.075 24.056 105.299 24.224C 105.532 24.392 105.649 24.574 105.649 24.77C 105.649 24.8727 105.611 24.966 105.537 25.05C 105.471 25.134 105.387 25.176 105.285 25.176C 105.191 25.176 105.112 25.1573 105.047 25.12C 104.991 25.0827 104.925 25.0267 104.851 24.952C 104.729 24.8307 104.613 24.742 104.501 24.686C 104.361 24.6207 104.174 24.5693 103.941 24.532C 103.717 24.4853 103.474 24.462 103.213 24.462C 102.699 24.462 102.228 24.5927 101.799 24.854C 101.379 25.1153 101.047 25.47 100.805 25.918C 100.562 26.366 100.441 26.8607 100.441 27.402C 100.441 27.962 100.557 28.466 100.791 28.914C 101.024 29.362 101.346 29.7167 101.757 29.978C 102.177 30.23 102.653 30.356 103.185 30.356C 103.521 30.356 103.787 30.328 103.983 30.272C 104.188 30.216 104.389 30.1367 104.585 30.034C 104.65 29.9967 104.762 29.9127 104.921 29.782C 104.995 29.7167 105.061 29.67 105.117 29.642C 105.173 29.6047 105.233 29.586 105.299 29.586C 105.411 29.586 105.499 29.6233 105.565 29.698C 105.63 29.7633 105.663 29.852 105.663 29.964C 105.663 30.1227 105.551 30.2953 105.327 30.482C 105.103 30.6593 104.795 30.8133 104.403 30.944C 104.011 31.0747 103.577 31.14 103.101 31.14C 102.419 31.14 101.813 30.9813 101.281 30.664C 100.749 30.3373 100.333 29.8893 100.035 29.32C 99.7454 28.7507 99.6007 28.1113 99.6007 27.402C 99.6007 26.7207 99.75 26.1 100.049 25.54C 100.347 24.9707 100.767 24.518 101.309 24.182C 101.85 23.846 102.471 23.678 103.171 23.678ZM 110.614 23.678C 110.801 23.678 110.969 23.7153 111.118 23.79C 111.267 23.8647 111.342 23.9767 111.342 24.126C 111.342 24.2567 111.305 24.364 111.23 24.448C 111.155 24.5227 111.067 24.56 110.964 24.56C 110.917 24.56 110.824 24.5367 110.684 24.49C 110.553 24.4433 110.427 24.42 110.306 24.42C 109.961 24.42 109.615 24.5553 109.27 24.826C 108.934 25.0873 108.654 25.428 108.43 25.848C 108.215 26.268 108.108 26.6927 108.108 27.122L 108.108 30.58C 108.108 30.7013 108.066 30.804 107.982 30.888C 107.907 30.9627 107.809 31 107.688 31C 107.567 31 107.464 30.9627 107.38 30.888C 107.305 30.804 107.268 30.7013 107.268 30.58L 107.268 24.308C 107.268 24.1867 107.305 24.0887 107.38 24.014C 107.464 23.93 107.567 23.888 107.688 23.888C 107.809 23.888 107.907 23.93 107.982 24.014C 108.066 24.0887 108.108 24.1867 108.108 24.308L 108.108 25.54C 108.323 25.008 108.645 24.5693 109.074 24.224C 109.513 23.8693 110.026 23.6873 110.614 23.678ZM 118.388 27.01C 118.388 27.122 118.346 27.22 118.262 27.304C 118.178 27.3787 118.08 27.416 117.968 27.416L 112.676 27.416C 112.676 27.976 112.788 28.48 113.012 28.928C 113.246 29.3667 113.572 29.7167 113.992 29.978C 114.422 30.23 114.926 30.356 115.504 30.356C 115.952 30.356 116.354 30.2627 116.708 30.076C 117.063 29.8893 117.348 29.6513 117.562 29.362C 117.665 29.278 117.763 29.236 117.856 29.236C 117.95 29.236 118.034 29.2733 118.108 29.348C 118.183 29.4227 118.22 29.5067 118.22 29.6C 118.22 29.7027 118.174 29.8007 118.08 29.894C 117.782 30.258 117.404 30.5567 116.946 30.79C 116.498 31.0233 116.022 31.14 115.518 31.14C 114.8 31.14 114.165 30.986 113.614 30.678C 113.064 30.37 112.634 29.9407 112.326 29.39C 112.018 28.83 111.864 28.186 111.864 27.458C 111.864 26.6927 112.014 26.0253 112.312 25.456C 112.62 24.8773 113.026 24.4387 113.53 24.14C 114.034 23.832 114.571 23.678 115.14 23.678C 115.7 23.678 116.223 23.8087 116.708 24.07C 117.203 24.3313 117.604 24.714 117.912 25.218C 118.22 25.722 118.379 26.3193 118.388 27.01ZM 115.14 24.49C 114.599 24.49 114.095 24.6767 113.628 25.05C 113.171 25.4233 112.877 25.96 112.746 26.66L 117.52 26.66L 117.52 26.548C 117.474 26.128 117.334 25.764 117.1 25.456C 116.867 25.1387 116.573 24.9007 116.218 24.742C 115.873 24.574 115.514 24.49 115.14 24.49ZM 125.93 20.64C 126.051 20.64 126.149 20.682 126.224 20.766C 126.308 20.8407 126.35 20.9387 126.35 21.06L 126.35 30.58C 126.35 30.7013 126.308 30.804 126.224 30.888C 126.149 30.9627 126.051 31 125.93 31C 125.808 31 125.706 30.9627 125.622 30.888C 125.547 30.804 125.51 30.7013 125.51 30.58L 125.51 29.6C 125.276 30.0293 124.926 30.3933 124.46 30.692C 124.002 30.9907 123.494 31.14 122.934 31.14C 122.318 31.14 121.758 30.9813 121.254 30.664C 120.759 30.3373 120.367 29.8893 120.078 29.32C 119.788 28.7507 119.644 28.1113 119.644 27.402C 119.644 26.702 119.788 26.0673 120.078 25.498C 120.367 24.9287 120.759 24.4853 121.254 24.168C 121.758 23.8413 122.313 23.678 122.92 23.678C 123.47 23.678 123.979 23.818 124.446 24.098C 124.912 24.3687 125.267 24.7233 125.51 25.162L 125.51 21.06C 125.51 20.9387 125.547 20.8407 125.622 20.766C 125.706 20.682 125.808 20.64 125.93 20.64ZM 123.018 30.356C 123.503 30.356 123.937 30.23 124.32 29.978C 124.712 29.726 125.015 29.376 125.23 28.928C 125.454 28.4707 125.566 27.962 125.566 27.402C 125.566 26.8513 125.454 26.352 125.23 25.904C 125.015 25.456 124.712 25.106 124.32 24.854C 123.937 24.5927 123.503 24.462 123.018 24.462C 122.532 24.462 122.094 24.5927 121.702 24.854C 121.319 25.106 121.016 25.456 120.792 25.904C 120.577 26.352 120.47 26.8513 120.47 27.402C 120.47 27.962 120.577 28.466 120.792 28.914C 121.016 29.362 121.319 29.7167 121.702 29.978C 122.094 30.23 122.532 30.356 123.018 30.356ZM 129.354 30.58C 129.354 30.7013 129.312 30.804 129.228 30.888C 129.153 30.9627 129.055 31 128.934 31C 128.812 31 128.71 30.9627 128.626 30.888C 128.551 30.804 128.514 30.7013 128.514 30.58L 128.514 24.14C 128.514 24.0187 128.551 23.9207 128.626 23.846C 128.71 23.762 128.812 23.72 128.934 23.72C 129.055 23.72 129.153 23.762 129.228 23.846C 129.312 23.9207 129.354 24.0187 129.354 24.14L 129.354 30.58ZM 128.934 22.782C 128.747 22.782 128.602 22.74 128.5 22.656C 128.397 22.5627 128.346 22.432 128.346 22.264L 128.346 22.124C 128.346 21.956 128.397 21.83 128.5 21.746C 128.612 21.6527 128.761 21.606 128.948 21.606C 129.321 21.606 129.508 21.7787 129.508 22.124L 129.508 22.264C 129.508 22.432 129.456 22.5627 129.354 22.656C 129.26 22.74 129.12 22.782 128.934 22.782ZM 132.936 24.658L 132.936 29.348C 132.936 29.7027 133.001 29.9453 133.132 30.076C 133.262 30.1973 133.435 30.258 133.65 30.258C 133.706 30.258 133.776 30.2487 133.86 30.23C 133.944 30.202 134.009 30.188 134.056 30.188C 134.14 30.188 134.21 30.2253 134.266 30.3C 134.331 30.3653 134.364 30.4447 134.364 30.538C 134.364 30.6687 134.289 30.7807 134.14 30.874C 133.99 30.958 133.813 31 133.608 31C 133.356 31 133.132 30.9767 132.936 30.93C 132.74 30.8833 132.548 30.7433 132.362 30.51C 132.184 30.2767 132.096 29.9033 132.096 29.39L 132.096 24.658L 131.074 24.658C 130.962 24.658 130.864 24.6207 130.78 24.546C 130.705 24.4713 130.668 24.378 130.668 24.266C 130.668 24.154 130.705 24.0607 130.78 23.986C 130.864 23.9113 130.962 23.874 131.074 23.874L 132.096 23.874L 132.096 22.32C 132.096 22.1987 132.133 22.1007 132.208 22.026C 132.292 21.942 132.394 21.9 132.516 21.9C 132.637 21.9 132.735 21.942 132.81 22.026C 132.894 22.1007 132.936 22.1987 132.936 22.32L 132.936 23.874L 134.336 23.874C 134.438 23.874 134.527 23.916 134.602 24C 134.686 24.084 134.728 24.1773 134.728 24.28C 134.728 24.392 134.69 24.4853 134.616 24.56C 134.541 24.6253 134.448 24.658 134.336 24.658L 132.936 24.658ZM 146.716 27.416C 146.716 28.116 146.562 28.7507 146.254 29.32C 145.946 29.8893 145.521 30.3373 144.98 30.664C 144.439 30.9813 143.837 31.14 143.174 31.14C 142.511 31.14 141.909 30.9813 141.368 30.664C 140.827 30.3373 140.402 29.8893 140.094 29.32C 139.786 28.7507 139.632 28.116 139.632 27.416C 139.632 26.716 139.786 26.0813 140.094 25.512C 140.402 24.9427 140.827 24.4947 141.368 24.168C 141.909 23.8413 142.511 23.678 143.174 23.678C 143.837 23.678 144.439 23.8413 144.98 24.168C 145.521 24.4947 145.946 24.9427 146.254 25.512C 146.562 26.0813 146.716 26.716 146.716 27.416ZM 145.876 27.416C 145.876 26.856 145.759 26.352 145.526 25.904C 145.293 25.456 144.966 25.106 144.546 24.854C 144.135 24.5927 143.678 24.462 143.174 24.462C 142.67 24.462 142.213 24.5927 141.802 24.854C 141.391 25.106 141.065 25.456 140.822 25.904C 140.589 26.352 140.472 26.856 140.472 27.416C 140.472 27.9667 140.589 28.466 140.822 28.914C 141.065 29.362 141.391 29.7167 141.802 29.978C 142.213 30.23 142.67 30.356 143.174 30.356C 143.678 30.356 144.135 30.23 144.546 29.978C 144.966 29.726 145.293 29.376 145.526 28.928C 145.759 28.48 145.876 27.976 145.876 27.416ZM 151.78 23.678C 151.967 23.678 152.135 23.7153 152.284 23.79C 152.433 23.8647 152.508 23.9767 152.508 24.126C 152.508 24.2567 152.471 24.364 152.396 24.448C 152.321 24.5227 152.233 24.56 152.13 24.56C 152.083 24.56 151.99 24.5367 151.85 24.49C 151.719 24.4433 151.593 24.42 151.472 24.42C 151.127 24.42 150.781 24.5553 150.436 24.826C 150.1 25.0873 149.82 25.428 149.596 25.848C 149.381 26.268 149.274 26.6927 149.274 27.122L 149.274 30.58C 149.274 30.7013 149.232 30.804 149.148 30.888C 149.073 30.9627 148.975 31 148.854 31C 148.733 31 148.63 30.9627 148.546 30.888C 148.471 30.804 148.434 30.7013 148.434 30.58L 148.434 24.308C 148.434 24.1867 148.471 24.0887 148.546 24.014C 148.63 23.93 148.733 23.888 148.854 23.888C 148.975 23.888 149.073 23.93 149.148 24.014C 149.232 24.0887 149.274 24.1867 149.274 24.308L 149.274 25.54C 149.489 25.008 149.811 24.5693 150.24 24.224C 150.679 23.8693 151.192 23.6873 151.78 23.678ZM 157.243 29.866C 157.168 29.7447 157.131 29.642 157.131 29.558C 157.131 29.4367 157.192 29.3433 157.313 29.278C 157.369 29.222 157.444 29.194 157.537 29.194C 157.649 29.194 157.752 29.2407 157.845 29.334C 158.396 30.062 159.128 30.426 160.043 30.426C 160.491 30.426 160.878 30.3233 161.205 30.118C 161.541 29.9033 161.709 29.5953 161.709 29.194C 161.709 28.802 161.555 28.508 161.247 28.312C 160.939 28.116 160.51 27.948 159.959 27.808C 159.184 27.612 158.578 27.36 158.139 27.052C 157.7 26.7347 157.481 26.2727 157.481 25.666C 157.481 25.2833 157.588 24.9427 157.803 24.644C 158.018 24.336 158.307 24.098 158.671 23.93C 159.044 23.762 159.464 23.678 159.931 23.678C 160.332 23.678 160.734 23.7573 161.135 23.916C 161.546 24.0653 161.896 24.308 162.185 24.644C 162.269 24.7093 162.311 24.8027 162.311 24.924C 162.311 25.036 162.264 25.134 162.171 25.218C 162.106 25.274 162.022 25.302 161.919 25.302C 161.826 25.302 161.742 25.2647 161.667 25.19C 161.443 24.938 161.177 24.7467 160.869 24.616C 160.561 24.4853 160.23 24.42 159.875 24.42C 159.436 24.42 159.058 24.5227 158.741 24.728C 158.433 24.9333 158.279 25.2413 158.279 25.652C 158.298 26.0253 158.466 26.31 158.783 26.506C 159.11 26.702 159.586 26.8793 160.211 27.038C 160.696 27.1593 161.098 27.2947 161.415 27.444C 161.732 27.5933 161.989 27.8033 162.185 28.074C 162.39 28.3447 162.493 28.704 162.493 29.152C 162.493 29.7587 162.25 30.244 161.765 30.608C 161.28 30.9627 160.678 31.14 159.959 31.14C 158.82 31.14 157.915 30.7153 157.243 29.866ZM 165.611 24.658L 165.611 29.348C 165.611 29.7027 165.677 29.9453 165.807 30.076C 165.938 30.1973 166.111 30.258 166.325 30.258C 166.381 30.258 166.451 30.2487 166.535 30.23C 166.619 30.202 166.685 30.188 166.731 30.188C 166.815 30.188 166.885 30.2253 166.941 30.3C 167.007 30.3653 167.039 30.4447 167.039 30.538C 167.039 30.6687 166.965 30.7807 166.815 30.874C 166.666 30.958 166.489 31 166.283 31C 166.031 31 165.807 30.9767 165.611 30.93C 165.415 30.8833 165.224 30.7433 165.037 30.51C 164.86 30.2767 164.771 29.9033 164.771 29.39L 164.771 24.658L 163.749 24.658C 163.637 24.658 163.539 24.6207 163.455 24.546C 163.381 24.4713 163.343 24.378 163.343 24.266C 163.343 24.154 163.381 24.0607 163.455 23.986C 163.539 23.9113 163.637 23.874 163.749 23.874L 164.771 23.874L 164.771 22.32C 164.771 22.1987 164.809 22.1007 164.883 22.026C 164.967 21.942 165.07 21.9 165.191 21.9C 165.313 21.9 165.411 21.942 165.485 22.026C 165.569 22.1007 165.611 22.1987 165.611 22.32L 165.611 23.874L 167.011 23.874C 167.114 23.874 167.203 23.916 167.277 24C 167.361 24.084 167.403 24.1773 167.403 24.28C 167.403 24.392 167.366 24.4853 167.291 24.56C 167.217 24.6253 167.123 24.658 167.011 24.658L 165.611 24.658ZM 175.495 27.416C 175.495 28.116 175.341 28.7507 175.033 29.32C 174.725 29.8893 174.301 30.3373 173.759 30.664C 173.218 30.9813 172.616 31.14 171.953 31.14C 171.291 31.14 170.689 30.9813 170.147 30.664C 169.606 30.3373 169.181 29.8893 168.873 29.32C 168.565 28.7507 168.411 28.116 168.411 27.416C 168.411 26.716 168.565 26.0813 168.873 25.512C 169.181 24.9427 169.606 24.4947 170.147 24.168C 170.689 23.8413 171.291 23.678 171.953 23.678C 172.616 23.678 173.218 23.8413 173.759 24.168C 174.301 24.4947 174.725 24.9427 175.033 25.512C 175.341 26.0813 175.495 26.716 175.495 27.416ZM 174.655 27.416C 174.655 26.856 174.539 26.352 174.305 25.904C 174.072 25.456 173.745 25.106 173.325 24.854C 172.915 24.5927 172.457 24.462 171.953 24.462C 171.449 24.462 170.992 24.5927 170.581 24.854C 170.171 25.106 169.844 25.456 169.601 25.904C 169.368 26.352 169.251 26.856 169.251 27.416C 169.251 27.9667 169.368 28.466 169.601 28.914C 169.844 29.362 170.171 29.7167 170.581 29.978C 170.992 30.23 171.449 30.356 171.953 30.356C 172.457 30.356 172.915 30.23 173.325 29.978C 173.745 29.726 174.072 29.376 174.305 28.928C 174.539 28.48 174.655 27.976 174.655 27.416ZM 180.559 23.678C 180.746 23.678 180.914 23.7153 181.063 23.79C 181.213 23.8647 181.287 23.9767 181.287 24.126C 181.287 24.2567 181.25 24.364 181.175 24.448C 181.101 24.5227 181.012 24.56 180.909 24.56C 180.863 24.56 180.769 24.5367 180.629 24.49C 180.499 24.4433 180.373 24.42 180.251 24.42C 179.906 24.42 179.561 24.5553 179.215 24.826C 178.879 25.0873 178.599 25.428 178.375 25.848C 178.161 26.268 178.053 26.6927 178.053 27.122L 178.053 30.58C 178.053 30.7013 178.011 30.804 177.927 30.888C 177.853 30.9627 177.755 31 177.633 31C 177.512 31 177.409 30.9627 177.325 30.888C 177.251 30.804 177.213 30.7013 177.213 30.58L 177.213 24.308C 177.213 24.1867 177.251 24.0887 177.325 24.014C 177.409 23.93 177.512 23.888 177.633 23.888C 177.755 23.888 177.853 23.93 177.927 24.014C 178.011 24.0887 178.053 24.1867 178.053 24.308L 178.053 25.54C 178.268 25.008 178.59 24.5693 179.019 24.224C 179.458 23.8693 179.971 23.6873 180.559 23.678ZM 188.334 27.01C 188.334 27.122 188.292 27.22 188.208 27.304C 188.124 27.3787 188.026 27.416 187.914 27.416L 182.622 27.416C 182.622 27.976 182.734 28.48 182.958 28.928C 183.191 29.3667 183.518 29.7167 183.938 29.978C 184.367 30.23 184.871 30.356 185.45 30.356C 185.898 30.356 186.299 30.2627 186.654 30.076C 187.008 29.8893 187.293 29.6513 187.508 29.362C 187.61 29.278 187.708 29.236 187.802 29.236C 187.895 29.236 187.979 29.2733 188.054 29.348C 188.128 29.4227 188.166 29.5067 188.166 29.6C 188.166 29.7027 188.119 29.8007 188.026 29.894C 187.727 30.258 187.349 30.5567 186.892 30.79C 186.444 31.0233 185.968 31.14 185.464 31.14C 184.745 31.14 184.11 30.986 183.56 30.678C 183.009 30.37 182.58 29.9407 182.272 29.39C 181.964 28.83 181.81 28.186 181.81 27.458C 181.81 26.6927 181.959 26.0253 182.258 25.456C 182.566 24.8773 182.972 24.4387 183.476 24.14C 183.98 23.832 184.516 23.678 185.086 23.678C 185.646 23.678 186.168 23.8087 186.654 24.07C 187.148 24.3313 187.55 24.714 187.858 25.218C 188.166 25.722 188.324 26.3193 188.334 27.01ZM 185.086 24.49C 184.544 24.49 184.04 24.6767 183.574 25.05C 183.116 25.4233 182.822 25.96 182.692 26.66L 187.466 26.66L 187.466 26.548C 187.419 26.128 187.279 25.764 187.046 25.456C 186.812 25.1387 186.518 24.9007 186.164 24.742C 185.818 24.574 185.459 24.49 185.086 24.49ZM 4.2 40.678C 4.63867 40.678 5.04467 40.7293 5.418 40.832C 5.80067 40.9253 6.104 41.056 6.328 41.224C 6.56133 41.392 6.678 41.574 6.678 41.77C 6.678 41.8727 6.64067 41.966 6.566 42.05C 6.50067 42.134 6.41667 42.176 6.314 42.176C 6.22067 42.176 6.14133 42.1573 6.076 42.12C 6.02 42.0827 5.95467 42.0267 5.88 41.952C 5.75867 41.8307 5.642 41.742 5.53 41.686C 5.39 41.6207 5.20333 41.5693 4.97 41.532C 4.746 41.4853 4.50333 41.462 4.242 41.462C 3.72867 41.462 3.25733 41.5927 2.828 41.854C 2.408 42.1153 2.07667 42.47 1.834 42.918C 1.59133 43.366 1.47 43.8607 1.47 44.402C 1.47 44.962 1.58667 45.466 1.82 45.914C 2.05333 46.362 2.37533 46.7167 2.786 46.978C 3.206 47.23 3.682 47.356 4.214 47.356C 4.55 47.356 4.816 47.328 5.012 47.272C 5.21733 47.216 5.418 47.1367 5.614 47.034C 5.67933 46.9967 5.79133 46.9127 5.95 46.782C 6.02467 46.7167 6.09 46.67 6.146 46.642C 6.202 46.6047 6.26267 46.586 6.328 46.586C 6.44 46.586 6.52867 46.6233 6.594 46.698C 6.65933 46.7633 6.692 46.852 6.692 46.964C 6.692 47.1227 6.58 47.2953 6.356 47.482C 6.132 47.6593 5.824 47.8133 5.432 47.944C 5.04 48.0747 4.606 48.14 4.13 48.14C 3.44867 48.14 2.842 47.9813 2.31 47.664C 1.778 47.3373 1.36267 46.8893 1.064 46.32C 0.774667 45.7507 0.63 45.1113 0.63 44.402C 0.63 43.7207 0.779333 43.1 1.078 42.54C 1.37667 41.9707 1.79667 41.518 2.338 41.182C 2.87933 40.846 3.5 40.678 4.2 40.678ZM 14.1074 40.846C 14.2287 40.846 14.3267 40.888 14.4014 40.972C 14.4854 41.056 14.5274 41.1587 14.5274 41.28L 14.5274 47.58C 14.5274 47.7013 14.4854 47.804 14.4014 47.888C 14.3267 47.9627 14.2287 48 14.1074 48C 13.9861 48 13.8834 47.9627 13.7994 47.888C 13.7247 47.804 13.6874 47.7013 13.6874 47.58L 13.6874 46.642C 13.4541 47.062 13.1041 47.4167 12.6374 47.706C 12.1707 47.9953 11.6621 48.14 11.1114 48.14C 10.4861 48.14 9.92141 47.9767 9.41741 47.65C 8.92274 47.3233 8.53074 46.8753 8.24141 46.306C 7.96141 45.7367 7.82141 45.0973 7.82141 44.388C 7.82141 43.6787 7.96607 43.044 8.25541 42.484C 8.54474 41.9147 8.93674 41.4713 9.43141 41.154C 9.93541 40.8367 10.4907 40.678 11.0974 40.678C 11.6574 40.678 12.1707 40.8133 12.6374 41.084C 13.1041 41.3547 13.4541 41.7093 13.6874 42.148L 13.6874 41.28C 13.6874 41.1587 13.7247 41.056 13.7994 40.972C 13.8834 40.888 13.9861 40.846 14.1074 40.846ZM 11.1954 47.356C 11.6807 47.356 12.1147 47.23 12.4974 46.978C 12.8894 46.7167 13.1927 46.362 13.4074 45.914C 13.6314 45.4567 13.7434 44.948 13.7434 44.388C 13.7434 43.8467 13.6314 43.352 13.4074 42.904C 13.1927 42.456 12.8894 42.106 12.4974 41.854C 12.1147 41.5927 11.6807 41.462 11.1954 41.462C 10.7101 41.462 10.2714 41.588 9.87941 41.84C 9.49674 42.092 9.19341 42.442 8.96941 42.89C 8.75474 43.3287 8.64741 43.828 8.64741 44.388C 8.64741 44.948 8.75474 45.4567 8.96941 45.914C 9.18407 46.362 9.48274 46.7167 9.86541 46.978C 10.2574 47.23 10.7007 47.356 11.1954 47.356ZM 20.0653 40.678C 20.2519 40.678 20.4199 40.7153 20.5693 40.79C 20.7186 40.8647 20.7933 40.9767 20.7933 41.126C 20.7933 41.2567 20.7559 41.364 20.6813 41.448C 20.6066 41.5227 20.5179 41.56 20.4153 41.56C 20.3686 41.56 20.2753 41.5367 20.1353 41.49C 20.0046 41.4433 19.8786 41.42 19.7573 41.42C 19.4119 41.42 19.0666 41.5553 18.7213 41.826C 18.3853 42.0873 18.1053 42.428 17.8813 42.848C 17.6666 43.268 17.5593 43.6927 17.5593 44.122L 17.5593 47.58C 17.5593 47.7013 17.5173 47.804 17.4333 47.888C 17.3586 47.9627 17.2606 48 17.1393 48C 17.0179 48 16.9153 47.9627 16.8313 47.888C 16.7566 47.804 16.7193 47.7013 16.7193 47.58L 16.7193 41.308C 16.7193 41.1867 16.7566 41.0887 16.8313 41.014C 16.9153 40.93 17.0179 40.888 17.1393 40.888C 17.2606 40.888 17.3586 40.93 17.4333 41.014C 17.5173 41.0887 17.5593 41.1867 17.5593 41.308L 17.5593 42.54C 17.7739 42.008 18.0959 41.5693 18.5253 41.224C 18.9639 40.8693 19.4773 40.6873 20.0653 40.678ZM 27.6015 37.64C 27.7229 37.64 27.8209 37.682 27.8955 37.766C 27.9795 37.8407 28.0215 37.9387 28.0215 38.06L 28.0215 47.58C 28.0215 47.7013 27.9795 47.804 27.8955 47.888C 27.8209 47.9627 27.7229 48 27.6015 48C 27.4802 48 27.3775 47.9627 27.2935 47.888C 27.2189 47.804 27.1815 47.7013 27.1815 47.58L 27.1815 46.6C 26.9482 47.0293 26.5982 47.3933 26.1315 47.692C 25.6742 47.9907 25.1655 48.14 24.6055 48.14C 23.9895 48.14 23.4295 47.9813 22.9255 47.664C 22.4309 47.3373 22.0389 46.8893 21.7495 46.32C 21.4602 45.7507 21.3155 45.1113 21.3155 44.402C 21.3155 43.702 21.4602 43.0673 21.7495 42.498C 22.0389 41.9287 22.4309 41.4853 22.9255 41.168C 23.4295 40.8413 23.9849 40.678 24.5915 40.678C 25.1422 40.678 25.6509 40.818 26.1175 41.098C 26.5842 41.3687 26.9389 41.7233 27.1815 42.162L 27.1815 38.06C 27.1815 37.9387 27.2189 37.8407 27.2935 37.766C 27.3775 37.682 27.4802 37.64 27.6015 37.64ZM 24.6895 47.356C 25.1749 47.356 25.6089 47.23 25.9915 46.978C 26.3835 46.726 26.6869 46.376 26.9015 45.928C 27.1255 45.4707 27.2375 44.962 27.2375 44.402C 27.2375 43.8513 27.1255 43.352 26.9015 42.904C 26.6869 42.456 26.3835 42.106 25.9915 41.854C 25.6089 41.5927 25.1749 41.462 24.6895 41.462C 24.2042 41.462 23.7655 41.5927 23.3735 41.854C 22.9909 42.106 22.6875 42.456 22.4635 42.904C 22.2489 43.352 22.1415 43.8513 22.1415 44.402C 22.1415 44.962 22.2489 45.466 22.4635 45.914C 22.6875 46.362 22.9909 46.7167 23.3735 46.978C 23.7655 47.23 24.2042 47.356 24.6895 47.356ZM 37.4435 40.678C 38.0595 40.678 38.6195 40.8367 39.1235 41.154C 39.6275 41.4713 40.0195 41.9147 40.2995 42.484C 40.5889 43.044 40.7335 43.6787 40.7335 44.388C 40.7335 45.088 40.5889 45.7273 40.2995 46.306C 40.0195 46.8753 39.6275 47.3233 39.1235 47.65C 38.6289 47.9767 38.0735 48.14 37.4575 48.14C 36.9255 48.14 36.4309 48.0093 35.9735 47.748C 35.5255 47.4773 35.1615 47.1227 34.8815 46.684L 34.8815 47.608C 34.8815 47.7293 34.8395 47.832 34.7555 47.916C 34.6809 48 34.5829 48.042 34.4615 48.042C 34.3402 48.042 34.2375 48 34.1535 47.916C 34.0789 47.832 34.0415 47.7293 34.0415 47.608L 34.0415 38.074C 34.0415 37.9527 34.0789 37.8547 34.1535 37.78C 34.2375 37.696 34.3402 37.654 34.4615 37.654C 34.5829 37.654 34.6809 37.696 34.7555 37.78C 34.8395 37.8547 34.8815 37.9527 34.8815 38.074L 34.8815 42.204C 35.1335 41.7467 35.4882 41.378 35.9455 41.098C 36.4029 40.818 36.9022 40.678 37.4435 40.678ZM 37.3735 47.356C 37.8589 47.356 38.2929 47.2253 38.6755 46.964C 39.0675 46.7027 39.3709 46.348 39.5855 45.9C 39.8095 45.4427 39.9215 44.9387 39.9215 44.388C 39.9215 43.828 39.8095 43.3287 39.5855 42.89C 39.3709 42.442 39.0675 42.092 38.6755 41.84C 38.2929 41.588 37.8589 41.462 37.3735 41.462C 36.8789 41.462 36.4355 41.588 36.0435 41.84C 35.6515 42.0827 35.3482 42.428 35.1335 42.876C 34.9189 43.324 34.8115 43.828 34.8115 44.388C 34.8115 44.948 34.9189 45.4567 35.1335 45.914C 35.3575 46.362 35.6609 46.7167 36.0435 46.978C 36.4355 47.23 36.8789 47.356 37.3735 47.356ZM 48.2734 40.846C 48.3948 40.846 48.4928 40.888 48.5674 40.972C 48.6514 41.056 48.6934 41.1587 48.6934 41.28L 48.6934 47.58C 48.6934 47.7013 48.6514 47.804 48.5674 47.888C 48.4928 47.9627 48.3948 48 48.2734 48C 48.1521 48 48.0494 47.9627 47.9654 47.888C 47.8908 47.804 47.8534 47.7013 47.8534 47.58L 47.8534 46.642C 47.6201 47.062 47.2701 47.4167 46.8034 47.706C 46.3368 47.9953 45.8281 48.14 45.2774 48.14C 44.6521 48.14 44.0874 47.9767 43.5834 47.65C 43.0888 47.3233 42.6968 46.8753 42.4074 46.306C 42.1274 45.7367 41.9874 45.0973 41.9874 44.388C 41.9874 43.6787 42.1321 43.044 42.4214 42.484C 42.7108 41.9147 43.1028 41.4713 43.5974 41.154C 44.1014 40.8367 44.6568 40.678 45.2634 40.678C 45.8234 40.678 46.3368 40.8133 46.8034 41.084C 47.2701 41.3547 47.6201 41.7093 47.8534 42.148L 47.8534 41.28C 47.8534 41.1587 47.8908 41.056 47.9654 40.972C 48.0494 40.888 48.1521 40.846 48.2734 40.846ZM 45.3614 47.356C 45.8468 47.356 46.2808 47.23 46.6634 46.978C 47.0554 46.7167 47.3588 46.362 47.5734 45.914C 47.7974 45.4567 47.9094 44.948 47.9094 44.388C 47.9094 43.8467 47.7974 43.352 47.5734 42.904C 47.3588 42.456 47.0554 42.106 46.6634 41.854C 46.2808 41.5927 45.8468 41.462 45.3614 41.462C 44.8761 41.462 44.4374 41.588 44.0454 41.84C 43.6628 42.092 43.3594 42.442 43.1354 42.89C 42.9208 43.3287 42.8134 43.828 42.8134 44.388C 42.8134 44.948 42.9208 45.4567 43.1354 45.914C 43.3501 46.362 43.6488 46.7167 44.0314 46.978C 44.4234 47.23 44.8668 47.356 45.3614 47.356ZM 51.8093 47.58C 51.8093 47.7013 51.7673 47.804 51.6833 47.888C 51.6086 47.9627 51.5106 48 51.3893 48C 51.268 48 51.1653 47.9627 51.0813 47.888C 51.0066 47.804 50.9693 47.7013 50.9693 47.58L 50.9693 38.06C 50.9693 37.9387 51.0066 37.8407 51.0813 37.766C 51.1653 37.682 51.268 37.64 51.3893 37.64C 51.5106 37.64 51.6086 37.682 51.6833 37.766C 51.7673 37.8407 51.8093 37.9387 51.8093 38.06L 51.8093 47.58ZM 59.9219 40.846C 60.0432 40.846 60.1412 40.888 60.2159 40.972C 60.2999 41.056 60.3419 41.1587 60.3419 41.28L 60.3419 47.58C 60.3419 47.7013 60.2999 47.804 60.2159 47.888C 60.1412 47.9627 60.0432 48 59.9219 48C 59.8005 48 59.6979 47.9627 59.6139 47.888C 59.5392 47.804 59.5019 47.7013 59.5019 47.58L 59.5019 46.642C 59.2685 47.062 58.9185 47.4167 58.4519 47.706C 57.9852 47.9953 57.4765 48.14 56.9259 48.14C 56.3005 48.14 55.7359 47.9767 55.2319 47.65C 54.7372 47.3233 54.3452 46.8753 54.0559 46.306C 53.7759 45.7367 53.6359 45.0973 53.6359 44.388C 53.6359 43.6787 53.7805 43.044 54.0699 42.484C 54.3592 41.9147 54.7512 41.4713 55.2459 41.154C 55.7499 40.8367 56.3052 40.678 56.9119 40.678C 57.4719 40.678 57.9852 40.8133 58.4519 41.084C 58.9185 41.3547 59.2685 41.7093 59.5019 42.148L 59.5019 41.28C 59.5019 41.1587 59.5392 41.056 59.6139 40.972C 59.6979 40.888 59.8005 40.846 59.9219 40.846ZM 57.0099 47.356C 57.4952 47.356 57.9292 47.23 58.3119 46.978C 58.7039 46.7167 59.0072 46.362 59.2219 45.914C 59.4459 45.4567 59.5579 44.948 59.5579 44.388C 59.5579 43.8467 59.4459 43.352 59.2219 42.904C 59.0072 42.456 58.7039 42.106 58.3119 41.854C 57.9292 41.5927 57.4952 41.462 57.0099 41.462C 56.5245 41.462 56.0859 41.588 55.6939 41.84C 55.3112 42.092 55.0079 42.442 54.7839 42.89C 54.5692 43.3287 54.4619 43.828 54.4619 44.388C 54.4619 44.948 54.5692 45.4567 54.7839 45.914C 54.9985 46.362 55.2972 46.7167 55.6799 46.978C 56.0719 47.23 56.5152 47.356 57.0099 47.356ZM 65.9077 40.678C 66.7757 40.678 67.4104 40.9347 67.8117 41.448C 68.2224 41.952 68.4277 42.624 68.4277 43.464L 68.4277 47.58C 68.4277 47.7013 68.3857 47.804 68.3017 47.888C 68.2177 47.9627 68.1197 48 68.0077 48C 67.8864 48 67.7837 47.9627 67.6997 47.888C 67.6251 47.804 67.5877 47.7013 67.5877 47.58L 67.5877 43.506C 67.5877 42.8993 67.4337 42.4093 67.1257 42.036C 66.8271 41.6533 66.3604 41.462 65.7257 41.462C 65.3244 41.462 64.9417 41.5553 64.5777 41.742C 64.2231 41.9287 63.9337 42.1807 63.7097 42.498C 63.4857 42.806 63.3737 43.142 63.3737 43.506L 63.3737 47.58C 63.3737 47.7013 63.3317 47.804 63.2477 47.888C 63.1731 47.9627 63.0751 48 62.9537 48C 62.8324 48 62.7297 47.9627 62.6457 47.888C 62.5711 47.804 62.5337 47.7013 62.5337 47.58L 62.5337 41.308C 62.5337 41.1867 62.5711 41.0887 62.6457 41.014C 62.7297 40.93 62.8324 40.888 62.9537 40.888C 63.0751 40.888 63.1731 40.93 63.2477 41.014C 63.3317 41.0887 63.3737 41.1867 63.3737 41.308L 63.3737 42.078C 63.6257 41.6767 63.9851 41.3453 64.4517 41.084C 64.9277 40.8133 65.4131 40.678 65.9077 40.678ZM 73.7215 40.678C 74.1602 40.678 74.5662 40.7293 74.9395 40.832C 75.3222 40.9253 75.6255 41.056 75.8495 41.224C 76.0828 41.392 76.1995 41.574 76.1995 41.77C 76.1995 41.8727 76.1622 41.966 76.0875 42.05C 76.0222 42.134 75.9382 42.176 75.8355 42.176C 75.7422 42.176 75.6628 42.1573 75.5975 42.12C 75.5415 42.0827 75.4762 42.0267 75.4015 41.952C 75.2802 41.8307 75.1635 41.742 75.0515 41.686C 74.9115 41.6207 74.7248 41.5693 74.4915 41.532C 74.2675 41.4853 74.0248 41.462 73.7635 41.462C 73.2502 41.462 72.7788 41.5927 72.3495 41.854C 71.9295 42.1153 71.5982 42.47 71.3555 42.918C 71.1128 43.366 70.9915 43.8607 70.9915 44.402C 70.9915 44.962 71.1082 45.466 71.3415 45.914C 71.5748 46.362 71.8968 46.7167 72.3075 46.978C 72.7275 47.23 73.2035 47.356 73.7355 47.356C 74.0715 47.356 74.3375 47.328 74.5335 47.272C 74.7388 47.216 74.9395 47.1367 75.1355 47.034C 75.2008 46.9967 75.3128 46.9127 75.4715 46.782C 75.5462 46.7167 75.6115 46.67 75.6675 46.642C 75.7235 46.6047 75.7842 46.586 75.8495 46.586C 75.9615 46.586 76.0502 46.6233 76.1155 46.698C 76.1808 46.7633 76.2135 46.852 76.2135 46.964C 76.2135 47.1227 76.1015 47.2953 75.8775 47.482C 75.6535 47.6593 75.3455 47.8133 74.9535 47.944C 74.5615 48.0747 74.1275 48.14 73.6515 48.14C 72.9702 48.14 72.3635 47.9813 71.8315 47.664C 71.2995 47.3373 70.8842 46.8893 70.5855 46.32C 70.2962 45.7507 70.1515 45.1113 70.1515 44.402C 70.1515 43.7207 70.3008 43.1 70.5995 42.54C 70.8982 41.9707 71.3182 41.518 71.8595 41.182C 72.4008 40.846 73.0215 40.678 73.7215 40.678ZM 83.8669 44.01C 83.8669 44.122 83.8249 44.22 83.7409 44.304C 83.6569 44.3787 83.5589 44.416 83.4469 44.416L 78.1549 44.416C 78.1549 44.976 78.2669 45.48 78.4909 45.928C 78.7242 46.3667 79.0509 46.7167 79.4709 46.978C 79.9002 47.23 80.4042 47.356 80.9829 47.356C 81.4309 47.356 81.8322 47.2627 82.1869 47.076C 82.5416 46.8893 82.8262 46.6513 83.0409 46.362C 83.1436 46.278 83.2416 46.236 83.3349 46.236C 83.4282 46.236 83.5122 46.2733 83.5869 46.348C 83.6616 46.4227 83.6989 46.5067 83.6989 46.6C 83.6989 46.7027 83.6522 46.8007 83.5589 46.894C 83.2602 47.258 82.8822 47.5567 82.4249 47.79C 81.9769 48.0233 81.5009 48.14 80.9969 48.14C 80.2782 48.14 79.6436 47.986 79.0929 47.678C 78.5422 47.37 78.1129 46.9407 77.8049 46.39C 77.4969 45.83 77.3429 45.186 77.3429 44.458C 77.3429 43.6927 77.4922 43.0253 77.7909 42.456C 78.0989 41.8773 78.5049 41.4387 79.0089 41.14C 79.5129 40.832 80.0496 40.678 80.6189 40.678C 81.1789 40.678 81.7016 40.8087 82.1869 41.07C 82.6816 41.3313 83.0829 41.714 83.3909 42.218C 83.6989 42.722 83.8576 43.3193 83.8669 44.01ZM 80.6189 41.49C 80.0776 41.49 79.5736 41.6767 79.1069 42.05C 78.6496 42.4233 78.3556 42.96 78.2249 43.66L 82.9989 43.66L 82.9989 43.548C 82.9522 43.128 82.8122 42.764 82.5789 42.456C 82.3456 42.1387 82.0516 41.9007 81.6969 41.742C 81.3516 41.574 80.9922 41.49 80.6189 41.49ZM 85.1922 46.866C 85.1175 46.7447 85.0802 46.642 85.0802 46.558C 85.0802 46.4367 85.1409 46.3433 85.2622 46.278C 85.3182 46.222 85.3929 46.194 85.4862 46.194C 85.5982 46.194 85.7009 46.2407 85.7942 46.334C 86.3449 47.062 87.0775 47.426 87.9922 47.426C 88.4402 47.426 88.8275 47.3233 89.1542 47.118C 89.4902 46.9033 89.6582 46.5953 89.6582 46.194C 89.6582 45.802 89.5042 45.508 89.1962 45.312C 88.8882 45.116 88.4589 44.948 87.9082 44.808C 87.1335 44.612 86.5269 44.36 86.0882 44.052C 85.6495 43.7347 85.4302 43.2727 85.4302 42.666C 85.4302 42.2833 85.5375 41.9427 85.7522 41.644C 85.9669 41.336 86.2562 41.098 86.6202 40.93C 86.9935 40.762 87.4135 40.678 87.8802 40.678C 88.2815 40.678 88.6829 40.7573 89.0842 40.916C 89.4949 41.0653 89.8449 41.308 90.1342 41.644C 90.2182 41.7093 90.2602 41.8027 90.2602 41.924C 90.2602 42.036 90.2135 42.134 90.1202 42.218C 90.0549 42.274 89.9709 42.302 89.8682 42.302C 89.7749 42.302 89.6909 42.2647 89.6162 42.19C 89.3922 41.938 89.1262 41.7467 88.8182 41.616C 88.5102 41.4853 88.1789 41.42 87.8242 41.42C 87.3855 41.42 87.0075 41.5227 86.6902 41.728C 86.3822 41.9333 86.2282 42.2413 86.2282 42.652C 86.2469 43.0253 86.4149 43.31 86.7322 43.506C 87.0589 43.702 87.5349 43.8793 88.1602 44.038C 88.6455 44.1593 89.0469 44.2947 89.3642 44.444C 89.6815 44.5933 89.9382 44.8033 90.1342 45.074C 90.3395 45.3447 90.4422 45.704 90.4422 46.152C 90.4422 46.7587 90.1995 47.244 89.7142 47.608C 89.2289 47.9627 88.6269 48.14 87.9082 48.14C 86.7695 48.14 85.8642 47.7153 85.1922 46.866ZM 94.4707 37.696C 95.012 37.696 95.502 37.8173 95.9407 38.06C 96.3887 38.3027 96.7434 38.6527 97.0047 39.11C 97.266 39.558 97.3967 40.0807 97.3967 40.678C 97.3967 41.154 97.2754 41.6067 97.0327 42.036C 96.7994 42.456 96.4727 42.806 96.0527 43.086C 95.642 43.366 95.1894 43.5293 94.6947 43.576L 94.6947 44.962C 94.6947 45.0833 94.6527 45.186 94.5687 45.27C 94.494 45.3447 94.396 45.382 94.2747 45.382C 94.1534 45.382 94.0507 45.3447 93.9667 45.27C 93.892 45.186 93.8594 45.0833 93.8687 44.962L 93.8687 43.296C 93.8687 43.1747 93.906 43.072 93.9807 42.988C 94.0647 42.904 94.1674 42.862 94.2887 42.862C 94.9327 42.8247 95.4647 42.6053 95.8847 42.204C 96.314 41.8027 96.5287 41.294 96.5287 40.678C 96.5287 40.258 96.4354 39.8847 96.2487 39.558C 96.0714 39.222 95.824 38.9653 95.5067 38.788C 95.1987 38.6013 94.8534 38.508 94.4707 38.508C 94.0974 38.508 93.7427 38.5967 93.4067 38.774C 93.0707 38.942 92.786 39.1753 92.5527 39.474C 92.4407 39.586 92.324 39.642 92.2027 39.642C 92.1094 39.642 92.0347 39.6187 91.9787 39.572C 91.8387 39.488 91.7687 39.376 91.7687 39.236C 91.7687 39.1427 91.806 39.0493 91.8807 38.956C 92.1794 38.5733 92.5574 38.27 93.0147 38.046C 93.472 37.8127 93.9574 37.696 94.4707 37.696ZM 94.3727 46.628C 94.5314 46.628 94.6527 46.6747 94.7367 46.768C 94.8207 46.8613 94.8627 46.992 94.8627 47.16L 94.8627 47.468C 94.8627 47.636 94.8207 47.7667 94.7367 47.86C 94.6527 47.9533 94.5314 48 94.3727 48L 94.2887 48C 94.1207 48 93.9947 47.9533 93.9107 47.86C 93.8267 47.7667 93.7847 47.636 93.7847 47.468L 93.7847 47.16C 93.7847 46.992 93.8267 46.8613 93.9107 46.768C 93.9947 46.6747 94.1207 46.628 94.2887 46.628L 94.3727 46.628Z"/>
</defs>
</svg>
