<?xml version="1.0" encoding="UTF-8"?>
<svg width="532px" height="282px" viewBox="0 0 532 282" version="1.1" xmlns="http://www.w3.org/2000/svg" xmlns:xlink="http://www.w3.org/1999/xlink">
    <!-- Generator: Sketch 47.1 (45422) - http://www.bohemiancoding.com/sketch -->
    <title>Card and Tick@2x</title>
    <desc>Created with Sketch.</desc>
    <defs>
        <rect id="path-1" x="0" y="0" width="552" height="289"></rect>
    </defs>
    <g id="Design" stroke="none" stroke-width="1" fill="none" fill-rule="evenodd">
        <g id="Card-and-Tick" transform="translate(-16.000000, -7.000000)">
            <g id="Group-9">
                <g id="Group-3-+-Group-9-Mask">
                    <mask id="mask-2" fill="white">
                        <use xlink:href="#path-1"></use>
                    </mask>
                    <g id="Mask"></g>
                    <g id="Group-3" opacity="0.2" mask="url(#mask-2)" stroke="#FFFFFF" stroke-width="30">
                        <g transform="translate(237.000000, 18.000000)">
                            <ellipse id="Oval-3" cx="121.5" cy="150" rx="121.5" ry="121"></ellipse>
                            <polyline id="Path-2" points="71 128.781305 121.816285 185 300 1.13686838e-13"></polyline>
                        </g>
                    </g>
                    <g id="Group-9" mask="url(#mask-2)">
                        <g transform="translate(13.000000, 109.000000)">
                            <path d="M32.0299819,206.321397 C24.4834264,206.321397 18.3095352,200.182341 18.3095352,192.678366 L18.3095352,49.6037026 C18.3095352,42.0997274 24.4834264,35.9606716 32.0299819,35.9606716 L283.459956,35.9606716 C291.006511,35.9606716 297.180403,42.0997274 297.180403,49.6037026 L297.180403,192.678366 C297.180403,200.182341 291.006511,206.321397 283.459956,206.321397 L32.0299819,206.321397 Z" id="Fill-27" fill="#24D5A6" transform="translate(157.744969, 121.141034) rotate(-16.000000) translate(-157.744969, -121.141034) "></path>
                            <path d="M27.1996004,193.093674 C27.1996004,200.591743 33.5253212,206.725967 41.2577906,206.725967 L292.012277,206.725967 C299.744747,206.725967 306.070468,200.591743 306.070468,193.093674 L306.070468,121.611873 C276.073258,110.933551 229.094362,98.1109443 170.415284,97.5798759 C107.884689,97.013403 58.0272255,110.641079 27.1996004,121.611873 L27.1996004,193.093674 Z" id="Fill-29" fill="#20AF89" transform="translate(166.635034, 152.144376) rotate(-16.000000) translate(-166.635034, -152.144376) "></path>
                            <path d="M145.714914,69.3637387 C145.10691,69.6629446 143.734882,69.985897 141.951083,69.985897 C136.881172,69.985897 134.269009,66.8798549 134.269009,62.7669613 C134.269009,57.8419374 137.838214,55.1000083 142.277604,55.1000083 C143.997063,55.1000083 145.301536,55.443541 145.888629,55.7427469 L145.214678,58.3342815 C144.540727,58.0556559 143.604595,57.7991937 142.4288,57.7991937 C139.795728,57.7991937 137.751357,59.3632964 137.751357,62.5754062 C137.751357,65.4661467 139.491726,67.2867116 142.451319,67.2867116 C143.45179,67.2867116 144.561637,67.0729931 145.214678,66.8165309 L145.714914,69.3637387 Z" id="Fill-31" fill="#FEFEFE" transform="translate(140.078819, 62.542953) rotate(-16.000000) translate(-140.078819, -62.542953) "></path>
                            <path d="M150.019777,58.3326462 L151.194226,58.3326462 C152.68109,58.3326462 153.561927,57.4996199 153.561927,56.2063222 C153.561927,54.8481976 152.740391,54.1675146 151.370683,54.1464458 C150.646053,54.1464458 150.235286,54.2112728 150.019777,54.255031 L150.019777,58.3326462 Z M147.066298,51.974743 C148.025239,51.7997102 149.452802,51.6684356 151.038018,51.6684356 C152.994951,51.6684356 154.364659,51.9974324 155.303351,52.8288381 C156.085835,53.5322105 156.516852,54.562959 156.516852,55.9227043 C156.516852,57.8075479 155.3236,59.1008456 154.188203,59.5611169 L154.188203,59.6275645 C155.108091,60.0440777 155.617212,61.0294474 155.94843,62.3891927 C156.359198,64.0552453 156.771412,65.9854678 157.025972,66.5543243 L153.972694,66.5543243 C153.757186,66.1378111 153.444771,64.9320298 153.054252,63.1120132 C152.701339,61.2709278 152.132917,60.7668982 150.920863,60.7442088 L150.019777,60.7442088 L150.019777,66.5543243 L147.066298,66.5543243 L147.066298,51.974743 Z" id="Fill-33" fill="#FEFEFE" transform="translate(152.046135, 59.111380) rotate(-16.000000) translate(-152.046135, -59.111380) "></path>
                            <polygon id="Fill-35" fill="#FEFEFE" transform="translate(163.000000, 56.000000) rotate(-16.000000) translate(-163.000000, -56.000000) " points="166.459608 57.0809388 161.846339 57.0809388 161.846339 60.4051327 167 60.4051327 167 63 159 63 159 49 166.738742 49 166.738742 51.5979381 161.846339 51.5979381 161.846339 54.5044966 166.459608 54.5044966"></polygon>
                            <path d="M172.748578,57.0444422 C173.038446,57.1102096 173.506187,57.1102096 173.92946,57.1102096 C177.004363,57.1326668 179.01038,55.4820655 179.01038,51.9899772 C179.03179,48.9502403 177.205294,47.3445534 174.286853,47.3445534 C173.529244,47.3445534 173.038446,47.4103208 172.748578,47.4744841 L172.748578,57.0444422 Z M169.340985,45.110066 C170.587746,44.9143679 172.214958,44.8052902 173.92946,44.8052902 C176.782021,44.8052902 178.631575,45.3057641 180.079267,46.369271 C181.638953,47.4969412 182.62055,49.2983262 182.62055,51.8792955 C182.62055,54.67842 181.573074,56.6097358 180.125382,57.8047775 C178.542638,59.0848356 176.136407,59.6911789 173.194908,59.6911789 C171.434291,59.6911789 170.187531,59.5837053 169.340985,59.4762318 L169.340985,45.110066 Z" id="Fill-37" fill="#FEFEFE" transform="translate(175.980768, 52.248235) rotate(-16.000000) translate(-175.980768, -52.248235) "></path>
                            <polygon id="Fill-39" fill="#FEFEFE" points="185.914442 57.2314122 181.907425 43.2572851 185.413541 42.2519225 189.420558 56.2260496"></polygon>
                            <polygon id="Fill-41" fill="#FEFEFE" points="192.215647 43.1724878 187.927308 44.402149 187.166599 41.7492411 199.438006 38.2304719 200.198715 40.8833798 195.838584 42.1336274 199.084891 53.4548466 195.461954 54.493707"></polygon>
                            <path d="M214.327527,49.6893885 C213.717915,49.9885944 212.347494,50.3115468 210.563696,50.3115468 C205.492176,50.3115468 202.881622,47.2055048 202.881622,43.0926111 C202.881622,38.1675873 206.450827,35.4256582 210.888608,35.4256582 C212.608067,35.4256582 213.914149,35.7691909 214.501242,36.0683968 L213.825682,38.6599313 C213.151732,38.3813058 212.217208,38.1248436 211.041413,38.1248436 C208.408341,38.1248436 206.363969,39.6889463 206.363969,42.9010561 C206.363969,45.7917965 208.104339,47.6123614 211.063932,47.6123614 C212.064403,47.6123614 213.17425,47.3986429 213.825682,47.1421808 L214.327527,49.6893885 Z" id="Fill-42" fill="#FEFEFE" transform="translate(208.691432, 42.868603) rotate(-16.000000) translate(-208.691432, -42.868603) "></path>
                            <path d="M223.689219,40.1009097 L222.690848,37.0085741 C222.406102,36.1424005 222.119598,35.0636787 221.882309,34.1991032 L221.834851,34.1991032 C221.597562,35.0636787 221.358516,36.164774 221.096619,37.0085741 L220.145706,40.1009097 L223.689219,40.1009097 Z M219.623671,42.5651896 L218.481169,46.3047583 L214.724974,46.3047583 L219.623671,31.7332252 L224.379993,31.7332252 L229.348997,46.3047583 L225.448672,46.3047583 L224.213012,42.5651896 L219.623671,42.5651896 Z" id="Fill-43" fill="#FEFEFE" transform="translate(222.036986, 39.018992) rotate(-16.000000) translate(-222.036986, -39.018992) "></path>
                            <path d="M232.994187,34.5404088 L234.168465,34.5404088 C235.655113,34.5404088 236.535822,33.7073825 236.535822,32.4140848 C236.535822,31.0559602 235.714405,30.3752772 234.344896,30.3542085 C233.620372,30.3542085 233.209664,30.4190354 232.994187,30.4627936 L232.994187,34.5404088 Z M230.039691,28.1825056 C230.998492,28.0074728 232.425848,27.8761983 234.010834,27.8761983 C235.968929,27.8761983 237.338438,28.205195 238.276993,29.0366007 C239.059363,29.7399731 239.488872,30.7707216 239.488872,32.1304669 C239.488872,34.0153105 238.297239,35.3086082 237.162007,35.7688795 L237.162007,35.8353272 C238.081762,36.2518403 238.589363,37.23721 238.923425,38.5969553 C239.332687,40.2630079 239.744841,42.1932304 239.999365,42.7620869 L236.94653,42.7620869 C236.731053,42.3455737 236.418683,41.1397924 236.028221,39.3197758 C235.675359,37.4786904 235.10702,36.9746608 233.895142,36.9519714 L232.994187,36.9519714 L232.994187,42.7620869 L230.039691,42.7620869 L230.039691,28.1825056 Z" id="Fill-44" fill="#FEFEFE" transform="translate(235.019528, 35.319143) rotate(-16.000000) translate(-235.019528, -35.319143) "></path>
                            <path d="M244.554122,36.455006 C244.84399,36.5207734 245.311731,36.5207734 245.735004,36.5207734 C248.809907,36.5432306 250.815924,34.8926293 250.815924,31.400541 C250.837334,28.3608041 249.010838,26.7551172 246.092397,26.7551172 C245.334789,26.7551172 244.84399,26.8208846 244.554122,26.8850479 L244.554122,36.455006 Z M241.144882,24.5206298 C242.39329,24.3249317 244.018855,24.215854 245.735004,24.215854 C248.585919,24.215854 250.435472,24.7163279 251.884811,25.7798348 C253.44285,26.907505 254.424448,28.70889 254.424448,31.2898593 C254.424448,34.0889838 253.376971,36.0202996 251.929279,37.2153413 C250.348183,38.4953994 247.941951,39.1017427 245.000453,39.1017427 C243.238189,39.1017427 241.991428,38.9942691 241.144882,38.8867956 L241.144882,24.5206298 Z" id="Fill-45" fill="#FEFEFE" transform="translate(247.784665, 31.658798) rotate(-16.000000) translate(-247.784665, -31.658798) "></path>
                            <path d="M50.1544445,143.232648 C45.9493746,143.232648 42.5107985,139.740749 42.5107985,135.473902 L42.5107985,116.257654 C42.5107985,111.990807 45.9493746,108.498908 50.1544445,108.498908 L76.3642726,108.498908 C80.5693425,108.498908 84.0094394,111.990807 84.0094394,116.257654 L84.0094394,135.473902 C84.0094394,139.740749 80.5693425,143.232648 76.3642726,143.232648 L50.1544445,143.232648 Z" id="Fill-46" fill="#B5B09B" transform="translate(63.260119, 125.865778) rotate(-16.000000) translate(-63.260119, -125.865778) "></path>
                            <path d="M59.759692,124.186383 C58.1990219,125.437562 57.1902071,127.386513 57.1902071,129.580587 C57.1902071,133.358184 60.1626339,136.419962 63.8299896,136.419962 C67.4973454,136.419962 70.4697722,133.358184 70.4697722,129.580587 C70.4697722,127.386513 69.4624173,125.437562 67.9002873,124.186383 C69.135392,123.037464 69.916457,121.383262 69.916457,119.533563 C69.916457,116.071768 67.1907591,113.264136 63.8299896,113.264136 C60.4677603,113.264136 57.7435223,116.071768 57.7435223,119.533563 C57.7435223,121.383262 58.5245873,123.037464 59.759692,124.186383" id="Fill-47" fill="#B5B09B" transform="translate(63.829990, 124.842049) rotate(-16.000000) translate(-63.829990, -124.842049) "></path>
                            <path d="M62.8049612,113.322683 C59.7807988,113.322683 57.3213449,115.833245 57.3213449,118.92025 C57.3213449,120.496367 57.9826482,122.011806 59.1388145,123.075192 L59.7689102,123.654669 L59.0986905,124.185604 C57.6111295,125.367313 56.7581225,127.142151 56.7581225,129.055033 C56.7581225,132.459082 59.4702092,135.227526 62.8049612,135.227526 C66.1397132,135.227526 68.8517999,132.459082 68.8517999,129.055033 C68.8517999,127.142151 67.9987929,125.367313 66.511232,124.185604 L65.8410122,123.654669 L66.4711079,123.075192 C67.6272742,122.011806 68.2885775,120.496367 68.2885775,118.92025 C68.2885775,115.833245 65.8291236,113.322683 62.8049612,113.322683 M62.8049612,136.68077 C58.6870477,136.68077 55.3344628,133.261551 55.3344628,129.055033 C55.3344628,126.96315 56.1592344,125.00476 57.6230181,123.571237 C56.5188645,122.289409 55.8976852,120.63441 55.8976852,118.92025 C55.8976852,115.033809 58.9961513,111.870956 62.8049612,111.870956 C66.6137711,111.870956 69.7107512,115.033809 69.7107512,118.92025 C69.7107512,120.63441 69.0895719,122.289409 67.9869043,123.571237 C69.449202,125.00476 70.2739736,126.96315 70.2739736,129.055033 C70.2739736,133.261551 66.9228747,136.68077 62.8049612,136.68077" id="Fill-48" fill="#585857" transform="translate(62.804218, 124.275863) rotate(-16.000000) translate(-62.804218, -124.275863) "></path>
                            <polygon id="Fill-49" fill="#585857" transform="translate(78.496093, 119.776290) rotate(-16.000000) translate(-78.496093, -119.776290) " points="77.9413281 132.181198 79.0508572 132.181198 79.0508572 107.371383 77.9413281 107.371383"></polygon>
                            <polygon id="Fill-50" fill="#585857" transform="translate(48.178892, 128.469608) rotate(-16.000000) translate(-48.178892, -128.469608) " points="47.624127 140.874515 48.7336561 140.874515 48.7336561 116.064701 47.624127 116.064701"></polygon>
                            <polygon id="Fill-51" fill="#585857" transform="translate(50.533356, 120.626635) rotate(-16.000000) translate(-50.533356, -120.626635) " points="45.5535187 121.179409 55.5131926 121.179409 55.5131926 120.073862 45.5535187 120.073862"></polygon>
                            <polygon id="Fill-52" fill="#585857" transform="translate(72.872346, 114.221033) rotate(-16.000000) translate(-72.872346, -114.221033) " points="67.892509 114.773806 77.8521828 114.773806 77.8521828 113.668259 67.892509 113.668259"></polygon>
                            <polygon id="Fill-53" fill="#585857" transform="translate(54.636304, 134.935315) rotate(-16.000000) translate(-54.636304, -134.935315) " points="49.6564666 135.487511 59.6161405 135.487511 59.6161405 134.383119 49.6564666 134.383119"></polygon>
                            <polygon id="Fill-54" fill="#585857" transform="translate(76.975294, 128.529713) rotate(-16.000000) translate(-76.975294, -128.529713) " points="71.9954569 129.081909 81.9551307 129.081909 81.9551307 127.977516 71.9954569 127.977516"></polygon>
                            <path d="M53.5627961,166.278052 L56.6534452,166.278052 C57.1922102,166.278052 57.5951392,166.364575 57.9980683,166.755476 C58.4681522,167.197363 58.5200446,167.605259 58.5200446,168.200108 L58.5200446,171.840271 C58.5200446,172.367137 58.4681522,172.742587 58.1155893,173.167478 C57.6958715,173.677348 57.259365,173.745331 56.6534452,173.745331 L52.9248251,173.745331 C52.4867924,173.745331 52.2349617,173.626361 51.8152439,173.439409 L51.1772729,173.148938 C50.7239777,172.94499 50.2203164,172.793574 50.2203164,172.19718 C50.2203164,171.755293 50.589668,171.345852 51.0261745,171.345852 C51.227639,171.345852 51.3787374,171.396839 51.5634133,171.483362 L52.0670746,171.704306 C52.3021165,171.80628 52.6882569,172.044219 52.9584025,172.044219 L56.838121,172.044219 L56.838121,167.980709 L51.8823988,167.980709 L51.8823988,160.51343 L57.6790828,160.51343 C58.1155893,160.51343 58.5200446,160.751369 58.5200446,161.363214 C58.5200446,161.975058 58.1155893,162.212997 57.6790828,162.212997 L53.5627961,162.212997 L53.5627961,166.278052 Z" id="Fill-55" fill="#D7D7D7" transform="translate(54.370180, 167.129381) rotate(-16.000000) translate(-54.370180, -167.129381) "></path>
                            <path d="M64.665851,168.384073 L70.4457463,168.384073 C70.8822528,168.384073 71.2851819,168.62044 71.2851819,169.233758 C71.2851819,169.84553 70.8822528,170.084987 70.4457463,170.084987 L62.9854537,170.084987 L62.9854537,164.540411 C62.9854537,163.265885 63.6234247,162.61858 64.8841042,162.61858 L69.6063108,162.61858 L69.6063108,158.553999 L63.8264155,158.553999 C63.389909,158.553999 62.9854537,158.314543 62.9854537,157.704315 C62.9854537,157.090997 63.389909,156.853086 63.8264155,156.853086 L69.40332,156.853086 C69.9588737,156.853086 70.345014,156.939599 70.7647318,157.330454 C71.236342,157.77229 71.2851819,158.231119 71.2851819,158.842892 L71.2851819,162.329687 C71.2851819,162.943005 71.236342,163.400289 70.7647318,163.84367 C70.345014,164.23298 69.9588737,164.319493 69.40332,164.319493 L64.665851,164.319493 L64.665851,168.384073 Z" id="Fill-56" fill="#D7D7D7" transform="translate(67.135318, 163.469036) rotate(-16.000000) translate(-67.135318, -163.469036) "></path>
                            <path d="M77.5142172,159.416452 L79.0938823,159.416452 L79.0938823,155.351397 L77.5142172,155.351397 L77.5142172,159.416452 Z M75.8353461,165.182619 L80.7742796,165.182619 L80.7742796,161.117564 L75.8353461,161.117564 L75.8353461,165.182619 Z M79.9348441,153.650285 C80.5056603,153.650285 80.7742796,154.059726 80.7742796,154.501613 L80.7742796,159.414907 C81.2962559,159.414907 81.699185,159.603404 82.0013818,159.89233 C82.3035786,160.182802 82.454677,160.606149 82.454677,161.134559 L82.454677,165.182619 C82.454677,166.219355 81.816706,166.882186 80.7742796,166.882186 L75.8353461,166.882186 C74.7929198,166.882186 74.1549488,166.219355 74.1549488,165.182619 L74.1549488,161.134559 C74.1549488,160.606149 74.3060472,160.182802 74.608244,159.89233 C74.911967,159.603404 75.3148961,159.414907 75.8353461,159.414907 L75.8353461,154.501613 C75.8353461,154.059726 76.1039655,153.650285 76.6747817,153.650285 L79.9348441,153.650285 Z" id="Fill-57" fill="#D7D7D7" transform="translate(78.304813, 160.266235) rotate(-16.000000) translate(-78.304813, -160.266235) "></path>
                            <path d="M88.5989572,161.522275 L93.5394169,161.522275 L93.5394169,158.903396 L88.5989572,158.903396 L88.5989572,161.522275 Z M88.5989572,157.202284 L94.2109653,157.202284 C95.0504009,157.202284 95.2198143,157.557648 95.2198143,158.340994 L95.2198143,162.151114 C95.2198143,162.951456 94.88404,163.221841 94.1270218,163.221841 L88.0113523,163.221841 C87.2207566,163.221841 86.9200861,162.932915 86.9200861,162.151114 L86.9200861,150.841269 C86.9200861,150.450369 87.0543957,149.98994 87.6420006,149.98994 L88.6508495,149.98994 C89.087356,149.98994 89.4399189,150.399382 89.4399189,150.841269 C89.4399189,151.351139 89.087356,151.691052 88.5989572,151.691052 L88.5989572,157.202284 Z" id="Fill-58" fill="#D7D7D7" transform="translate(91.069950, 156.605891) rotate(-16.000000) translate(-91.069950, -156.605891) "></path>
                            <path d="M110.939454,145.285251 C110.939454,145.659112 110.637261,146.136481 110.100028,146.136481 C109.562796,146.136481 109.259076,145.659112 109.259076,145.285251 L109.259076,144.435567 C109.259076,144.061706 109.562796,143.584338 110.100028,143.584338 L117.558709,143.584338 L117.558709,148.517141 C117.558709,149.113465 117.577024,149.179895 117.105419,149.587743 L114.753501,151.645524 C114.315473,152.037924 114.281896,152.071911 114.281896,152.66669 L114.281896,155.96501 C114.281896,156.510353 114.048383,156.816239 113.44247,156.816239 C112.838083,156.816239 112.603044,156.510353 112.603044,155.96501 L112.603044,151.867987 C112.603044,151.305651 112.619832,151.254669 113.039545,150.880808 L115.357887,148.857015 C115.911908,148.362653 115.878331,148.381192 115.878331,147.63347 L115.878331,145.285251 L110.939454,145.285251 Z" id="Fill-59" fill="#D7D7D7" transform="translate(113.408940, 150.200289) rotate(-16.000000) translate(-113.408940, -150.200289) "></path>
                            <path d="M122.863649,141.624907 C122.427143,141.624907 122.024214,141.386996 122.024214,140.775223 C122.024214,140.16345 122.427143,139.923994 122.863649,139.923994 L128.643544,139.923994 C129.600501,139.923994 130.323942,140.656267 130.323942,141.624907 L130.323942,144.88924 C130.323942,145.570532 130.189632,146.063349 129.667656,146.540717 C130.189632,147.01654 130.323942,147.510902 130.323942,148.190649 L130.323942,151.454981 C130.323942,152.423622 129.600501,153.155895 128.643544,153.155895 L122.863649,153.155895 C122.427143,153.155895 122.024214,152.917983 122.024214,152.304666 C122.024214,151.692893 122.427143,151.454981 122.863649,151.454981 L128.643544,151.454981 L128.643544,148.632485 C128.643544,147.679294 128.272667,147.390401 127.802583,147.390401 L124.510469,147.390401 C124.073963,147.390401 123.669507,147.152489 123.669507,146.540717 C123.669507,145.927399 124.073963,145.689488 124.510469,145.689488 L127.802583,145.689488 C128.272667,145.689488 128.643544,145.400595 128.643544,144.447404 L128.643544,141.624907 L122.863649,141.624907 Z" id="Fill-60" fill="#D7D7D7" transform="translate(126.174078, 146.539944) rotate(-16.000000) translate(-126.174078, -146.539944) "></path>
                            <path d="M136.552977,142.48736 L138.132642,142.48736 L138.132642,138.422305 L136.552977,138.422305 L136.552977,142.48736 Z M134.87258,148.253527 L139.81304,148.253527 L139.81304,144.188472 L134.87258,144.188472 L134.87258,148.253527 Z M138.972078,136.721193 C139.54442,136.721193 139.81304,137.130634 139.81304,137.572521 L139.81304,142.485815 C140.33349,142.485815 140.736419,142.674312 141.038615,142.963238 C141.342338,143.25371 141.493437,143.677057 141.493437,144.205467 L141.493437,148.253527 C141.493437,149.290263 140.85394,149.953094 139.81304,149.953094 L134.87258,149.953094 C133.83168,149.953094 133.193709,149.290263 133.193709,148.253527 L133.193709,144.205467 C133.193709,143.677057 133.344807,143.25371 133.647004,142.963238 C133.949201,142.674312 134.35213,142.485815 134.87258,142.485815 L134.87258,137.572521 C134.87258,137.130634 135.141199,136.721193 135.713542,136.721193 L138.972078,136.721193 Z" id="Fill-61" fill="#D7D7D7" transform="translate(137.343573, 143.337143) rotate(-16.000000) translate(-137.343573, -143.337143) "></path>
                            <path d="M147.639243,144.593183 L152.578177,144.593183 L152.578177,134.76196 L147.639243,134.76196 L147.639243,144.593183 Z M152.578177,133.060848 C153.501556,133.060848 154.258574,133.825654 154.258574,134.76196 L154.258574,144.593183 C154.258574,145.54494 153.535133,146.292749 152.578177,146.292749 L147.639243,146.292749 C146.680761,146.292749 145.958846,145.54494 145.958846,144.593183 L145.958846,134.76196 C145.958846,133.825654 146.714338,133.060848 147.639243,133.060848 L152.578177,133.060848 Z" id="Fill-62" fill="#D7D7D7" transform="translate(150.108710, 139.676799) rotate(-16.000000) translate(-150.108710, -139.676799) "></path>
                            <path d="M169.978234,138.186234 L175.758129,138.186234 C176.194635,138.186234 176.597564,138.4226 176.597564,139.035918 C176.597564,139.647691 176.194635,139.887147 175.758129,139.887147 L168.297836,139.887147 L168.297836,134.342571 C168.297836,133.068045 168.937333,132.42074 170.198013,132.42074 L174.917167,132.42074 L174.917167,128.356159 L169.138798,128.356159 C168.702292,128.356159 168.297836,128.116703 168.297836,127.506475 C168.297836,126.893158 168.702292,126.655246 169.138798,126.655246 L174.715703,126.655246 C175.271256,126.655246 175.657397,126.741759 176.077114,127.132614 C176.547198,127.57445 176.597564,128.033279 176.597564,128.645052 L176.597564,132.131847 C176.597564,132.745165 176.547198,133.202449 176.077114,133.64583 C175.657397,134.03514 175.271256,134.121653 174.715703,134.121653 L169.978234,134.121653 L169.978234,138.186234 Z" id="Fill-63" fill="#D7D7D7" transform="translate(172.447700, 133.271197) rotate(-16.000000) translate(-172.447700, -133.271197) "></path>
                            <path d="M182.743352,124.695815 C182.743352,125.069676 182.441158,125.547044 181.903926,125.547044 C181.366693,125.547044 181.062973,125.069676 181.062973,124.695815 L181.062973,123.846131 C181.062973,123.47227 181.366693,122.994902 181.903926,122.994902 L189.362607,122.994902 L189.362607,127.927705 C189.362607,128.524029 189.380921,128.590459 188.909317,128.998307 L186.558924,131.056088 C186.120896,131.448488 186.087319,131.482475 186.087319,132.077254 L186.087319,135.375574 C186.087319,135.920917 185.85228,136.226803 185.247893,136.226803 C184.64198,136.226803 184.406941,135.920917 184.406941,135.375574 L184.406941,131.278551 C184.406941,130.716214 184.42373,130.665233 184.843443,130.291372 L187.163311,128.267579 C187.717332,127.773217 187.683755,127.791756 187.683755,127.044034 L187.683755,124.695815 L182.743352,124.695815 Z" id="Fill-64" fill="#D7D7D7" transform="translate(185.212838, 129.610852) rotate(-16.000000) translate(-185.212838, -129.610852) "></path>
                            <path d="M193.912866,131.324435 L198.851799,131.324435 L198.851799,121.493213 L193.912866,121.493213 L193.912866,131.324435 Z M198.851799,119.792101 C199.775179,119.792101 200.532197,120.556906 200.532197,121.493213 L200.532197,131.324435 C200.532197,132.276192 199.808756,133.024002 198.851799,133.024002 L193.91134,133.024002 C192.954383,133.024002 192.232469,132.276192 192.232469,131.324435 L192.232469,121.493213 C192.232469,120.556906 192.987961,119.792101 193.91134,119.792101 L198.851799,119.792101 Z" id="Fill-65" fill="#D7D7D7" transform="translate(196.382333, 126.408051) rotate(-16.000000) translate(-196.382333, -126.408051) "></path>
                            <path d="M205.837041,117.83267 C205.400535,117.83267 204.997606,117.594758 204.997606,116.982986 C204.997606,116.371213 205.400535,116.131756 205.837041,116.131756 L211.616937,116.131756 C212.573893,116.131756 213.297334,116.86403 213.297334,117.83267 L213.297334,121.097002 C213.297334,121.778294 213.163024,122.271111 212.641048,122.748479 C213.163024,123.224303 213.297334,123.718664 213.297334,124.398412 L213.297334,127.662744 C213.297334,128.631384 212.573893,129.363657 211.616937,129.363657 L205.837041,129.363657 C205.400535,129.363657 204.997606,129.125746 204.997606,128.512428 C204.997606,127.900656 205.400535,127.662744 205.837041,127.662744 L211.616937,127.662744 L211.616937,124.840248 C211.616937,123.887056 211.246059,123.598164 210.775975,123.598164 L207.483861,123.598164 C207.047355,123.598164 206.6429,123.360252 206.6429,122.748479 C206.6429,122.135162 207.047355,121.89725 207.483861,121.89725 L210.775975,121.89725 C211.246059,121.89725 211.616937,121.608358 211.616937,120.655166 L211.616937,117.83267 L205.837041,117.83267 Z" id="Fill-66" fill="#D7D7D7" transform="translate(209.147470, 122.747707) rotate(-16.000000) translate(-209.147470, -122.747707) "></path>
                            <path d="M230.612636,113.624138 L235.551569,113.624138 L235.551569,110.969723 L230.612636,110.969723 L230.612636,113.624138 Z M235.551569,115.323704 L229.771674,115.323704 C229.30159,115.323704 228.932238,114.914263 228.932238,114.472376 L228.932238,110.11994 C228.932238,109.678052 229.30159,109.268611 229.771674,109.268611 L236.392531,109.268611 C236.862615,109.268611 237.231966,109.678052 237.231966,110.11994 L237.231966,121.650729 C237.231966,122.111157 236.896192,122.500512 236.392531,122.500512 L235.551569,122.500512 C235.047908,122.500512 234.712134,122.111157 234.712134,121.650729 C234.712134,121.140859 235.064697,120.800945 235.551569,120.800945 L235.551569,115.323704 Z" id="Fill-67" fill="#D7D7D7" transform="translate(233.082102, 115.884562) rotate(-16.000000) translate(-233.082102, -115.884562) "></path>
                            <path d="M240.941169,107.766723 C240.504662,107.766723 240.101733,107.528812 240.101733,106.917039 C240.101733,106.305266 240.504662,106.06581 240.941169,106.06581 L246.721064,106.06581 C247.679547,106.06581 248.401462,106.798083 248.401462,107.766723 L248.401462,111.031056 C248.401462,111.712348 248.267152,112.205165 247.745176,112.682533 C248.267152,113.158356 248.401462,113.652718 248.401462,114.332465 L248.401462,117.596797 C248.401462,118.565438 247.679547,119.297711 246.721064,119.297711 L240.941169,119.297711 C240.504662,119.297711 240.101733,119.059799 240.101733,118.446482 C240.101733,117.834709 240.504662,117.596797 240.941169,117.596797 L246.721064,117.596797 L246.721064,114.774301 C246.721064,113.82111 246.351713,113.532217 245.881629,113.532217 L242.587989,113.532217 C242.151482,113.532217 241.747027,113.294305 241.747027,112.682533 C241.747027,112.069215 242.151482,111.831304 242.587989,111.831304 L245.881629,111.831304 C246.351713,111.831304 246.721064,111.542411 246.721064,110.58922 L246.721064,107.766723 L240.941169,107.766723 Z" id="Fill-68" fill="#D7D7D7" transform="translate(244.251598, 112.681760) rotate(-16.000000) translate(-244.251598, -112.681760) "></path>
                            <path d="M252.951626,114.395343 L257.890559,114.395343 L257.890559,104.564121 L252.951626,104.564121 L252.951626,114.395343 Z M257.890559,102.863009 C258.815465,102.863009 259.570957,103.627814 259.570957,104.564121 L259.570957,114.395343 C259.570957,115.3471 258.847516,116.09491 257.890559,116.09491 L252.951626,116.09491 C251.993143,116.09491 251.271229,115.3471 251.271229,114.395343 L251.271229,104.564121 C251.271229,103.627814 252.026721,102.863009 252.951626,102.863009 L257.890559,102.863009 Z" id="Fill-69" fill="#D7D7D7" transform="translate(255.421093, 109.478959) rotate(-16.000000) translate(-255.421093, -109.478959) "></path>
                            <path d="M264.875801,100.903578 C264.439295,100.903578 264.036366,100.665666 264.036366,100.053894 C264.036366,99.4421209 264.439295,99.2026645 264.875801,99.2026645 L270.655697,99.2026645 C271.612653,99.2026645 272.336094,99.9349378 272.336094,100.903578 L272.336094,104.16791 C272.336094,104.849202 272.201784,105.342019 271.681334,105.819387 C272.201784,106.295211 272.336094,106.789572 272.336094,107.46932 L272.336094,110.733652 C272.336094,111.702292 271.612653,112.434565 270.655697,112.434565 L264.875801,112.434565 C264.439295,112.434565 264.036366,112.196654 264.036366,111.583336 C264.036366,110.971564 264.439295,110.733652 264.875801,110.733652 L270.655697,110.733652 L270.655697,107.911156 C270.655697,106.957964 270.286345,106.669072 269.814735,106.669072 L266.522621,106.669072 C266.086115,106.669072 265.681659,106.43116 265.681659,105.819387 C265.681659,105.20607 266.086115,104.968158 266.522621,104.968158 L269.814735,104.968158 C270.286345,104.968158 270.655697,104.679266 270.655697,103.726074 L270.655697,100.903578 L264.875801,100.903578 Z" id="Fill-70" fill="#D7D7D7" transform="translate(268.186230, 105.818615) rotate(-16.000000) translate(-268.186230, -105.818615) "></path>
                            <path d="M121.272382,185.866437 L124.23743,185.866437 L124.23743,179.722239 L121.272382,179.722239 L121.272382,185.866437 Z M124.23743,178.658576 C124.790745,178.658576 125.244825,179.137303 125.244825,179.722239 L125.244825,185.866437 C125.244825,186.460883 124.811795,186.928514 124.23743,186.928514 L121.272382,186.928514 C120.698017,186.928514 120.264988,186.460883 120.264988,185.866437 L120.264988,179.722239 C120.264988,179.137303 120.717564,178.658576 121.272382,178.658576 L124.23743,178.658576 Z" id="Fill-81" fill="#D7D7D7" transform="translate(122.754906, 182.793545) rotate(-16.000000) translate(-122.754906, -182.793545) "></path>
                            <path d="M129.250593,183.578721 L132.215641,183.578721 L132.215641,181.94122 L129.250593,181.94122 L129.250593,183.578721 Z M129.250593,180.879142 L132.618599,180.879142 C133.122296,180.879142 133.223036,181.101069 133.223036,181.590893 L133.223036,183.971849 C133.223036,184.471184 133.02306,184.640799 132.568981,184.640799 L128.897253,184.640799 C128.423628,184.640799 128.243199,184.458502 128.243199,183.971849 L128.243199,176.9019 C128.243199,176.65778 128.324392,176.370861 128.676228,176.370861 L129.282168,176.370861 C129.54379,176.370861 129.755794,176.626076 129.755794,176.9019 C129.755794,177.220523 129.54379,177.434524 129.250593,177.434524 L129.250593,180.879142 Z" id="Fill-82" fill="#D7D7D7" transform="translate(130.733117, 180.505830) rotate(-16.000000) translate(-130.733117, -180.505830) "></path>
                            <path d="M137.219481,181.982078 C137.097728,182.205633 136.977479,182.353084 136.724955,182.353084 C136.473934,182.353084 136.221409,182.131115 136.221409,181.855239 C136.221409,181.652295 136.343162,181.473134 136.443871,181.300316 L140.213696,174.485861 C140.333946,174.27499 140.454196,174.083146 140.70672,174.083146 C140.969766,174.083146 141.201246,174.305115 141.201246,174.582576 C141.201246,174.750639 141.15014,174.880649 141.090015,174.99639 L137.219481,181.982078 Z" id="Fill-83" fill="#D7D7D7" transform="translate(138.711328, 178.218115) rotate(-16.000000) translate(-138.711328, -178.218115) "></path>
                            <path d="M146.576725,179.460834 L146.576725,177.312901 C146.576725,177.003789 146.707496,176.781862 147.08027,176.781862 C147.453044,176.781862 147.583815,177.003789 147.583815,177.312901 L147.583815,179.991873 C147.583815,180.373904 147.341813,180.522912 147.08027,180.522912 L143.109026,180.522912 C142.847484,180.522912 142.603978,180.373904 142.603978,179.991873 C142.603978,179.609842 142.847484,179.460834 143.109026,179.460834 L144.591103,179.460834 L144.591103,173.316636 L143.109026,173.316636 C142.847484,173.316636 142.603978,173.166043 142.603978,172.784012 C142.603978,172.401981 142.847484,172.252974 143.109026,172.252974 L145.598193,172.252974 L145.598193,179.460834 L146.576725,179.460834 Z" id="Fill-84" fill="#D7D7D7" transform="translate(145.093897, 176.387943) rotate(-16.000000) translate(-145.093897, -176.387943) "></path>
                            <path d="M151.589573,171.028921 C151.589573,171.261944 151.407643,171.55996 151.085881,171.55996 C150.762616,171.55996 150.582189,171.261944 150.582189,171.028921 L150.582189,170.496297 C150.582189,170.263274 150.762616,169.965258 151.085881,169.965258 L155.561975,169.965258 L155.561975,173.048454 C155.561975,173.420973 155.5725,173.462188 155.289831,173.717404 L153.87799,175.004579 C153.61637,175.248698 153.59532,175.269305 153.59532,175.641825 L153.59532,177.704158 C153.59532,178.044974 153.45549,178.235197 153.091628,178.235197 C152.729271,178.235197 152.587936,178.044974 152.587936,177.704158 L152.587936,175.14249 C152.587936,174.792163 152.596958,174.760459 152.849555,174.525851 L154.241851,173.260869 C154.574137,172.951757 154.554591,172.964439 154.554591,172.496807 L154.554591,171.028921 L151.589573,171.028921 Z" id="Fill-85" fill="#D7D7D7" transform="translate(153.072107, 174.100227) rotate(-16.000000) translate(-153.072107, -174.100227) "></path>
                            <path d="M181.90648,168.479802 L184.870633,168.479802 L184.870633,162.335604 L181.90648,162.335604 L181.90648,168.479802 Z M184.870633,161.271941 C185.423781,161.271941 185.879227,161.750668 185.879227,162.335604 L185.879227,168.479802 C185.879227,169.074248 185.444825,169.541879 184.870633,169.541879 L181.90648,169.541879 C181.332288,169.541879 180.89939,169.074248 180.89939,168.479802 L180.89939,162.335604 C180.89939,161.750668 181.353332,161.271941 181.90648,161.271941 L184.870633,161.271941 Z" id="Fill-86" fill="#D7D7D7" transform="translate(183.389308, 165.406910) rotate(-16.000000) translate(-183.389308, -165.406910) "></path>
                            <path d="M189.886194,166.192086 L192.848844,166.192086 L192.848844,164.554585 L189.886194,164.554585 L189.886194,166.192086 Z M189.886194,163.492507 L193.25168,163.492507 C193.755225,163.492507 193.857438,163.714434 193.857438,164.204258 L193.857438,166.585214 C193.857438,167.084549 193.65602,167.254164 193.202077,167.254164 L189.532961,167.254164 C189.059478,167.254164 188.877601,167.071867 188.877601,166.585214 L188.877601,159.515265 C188.877601,159.271145 188.958769,158.984226 189.310499,158.984226 L189.916257,158.984226 C190.1778,158.984226 190.38974,159.239441 190.38974,159.515265 C190.38974,159.833888 190.1778,160.047889 189.886194,160.047889 L189.886194,163.492507 Z" id="Fill-87" fill="#D7D7D7" transform="translate(191.367519, 163.119195) rotate(-16.000000) translate(-191.367519, -163.119195) "></path>
                            <path d="M196.258542,165.052986 C196.136753,165.276541 196.016467,165.423992 195.763867,165.423992 C195.511266,165.423992 195.260169,165.202023 195.260169,164.926147 C195.260169,164.723203 195.381959,164.544042 195.481195,164.371224 L199.252158,157.556769 C199.373948,157.345898 199.494234,157.154054 199.746834,157.154054 C200.009959,157.154054 200.240006,157.376023 200.240006,157.653484 C200.240006,157.821547 200.190388,157.951557 200.130245,158.067298 L196.258542,165.052986 Z" id="Fill-88" fill="#D7D7D7" transform="translate(197.750088, 161.289023) rotate(-16.000000) translate(-197.750088, -161.289023) "></path>
                            <path d="M204.245471,162.074199 L207.713169,162.074199 C207.974712,162.074199 208.218217,162.223207 208.218217,162.605238 C208.218217,162.987269 207.974712,163.136277 207.713169,163.136277 L203.23838,163.136277 L203.23838,159.671051 C203.23838,158.8737 203.620173,158.471061 204.376242,158.471061 L207.209623,158.471061 L207.209623,155.930001 L203.741925,155.930001 C203.480382,155.930001 203.23838,155.779408 203.23838,155.397377 C203.23838,155.015346 203.480382,154.866339 203.741925,154.866339 L207.087871,154.866339 C207.42006,154.866339 207.653044,154.920235 207.905568,155.164354 C208.188155,155.440177 208.218217,155.727097 208.218217,156.109128 L208.218217,158.288765 C208.218217,158.672381 208.188155,158.9593 207.905568,159.235123 C207.653044,159.479243 207.42006,159.533139 207.087871,159.533139 L204.245471,159.533139 L204.245471,162.074199 Z" id="Fill-89" fill="#D7D7D7" transform="translate(205.728299, 159.001308) rotate(-16.000000) translate(-205.728299, -159.001308) "></path>
                            <path d="M212.225185,159.786484 L215.187834,159.786484 L215.187834,153.642286 L212.225185,153.642286 L212.225185,159.786484 Z M215.187834,152.578623 C215.742486,152.578623 216.196428,153.057351 216.196428,153.642286 L216.196428,159.786484 C216.196428,160.38093 215.763529,160.848562 215.187834,160.848562 L212.225185,160.848562 C211.650993,160.848562 211.216591,160.38093 211.216591,159.786484 L211.216591,153.642286 C211.216591,153.057351 211.670533,152.578623 212.225185,152.578623 L215.187834,152.578623 Z" id="Fill-90" fill="#D7D7D7" transform="translate(213.706509, 156.713592) rotate(-16.000000) translate(-213.706509, -156.713592) "></path>
                            <path d="M119.183164,174.145122 L117.073682,169.183159 L117.853619,169.183159 L119.268941,172.788437 C119.381722,173.07657 119.478618,173.347327 119.554864,173.60071 C119.639053,173.329953 119.735949,173.059195 119.847142,172.788437 L121.31806,169.183159 L122.053519,169.183159 L119.9218,174.145122 L119.183164,174.145122 Z" id="Fill-91" fill="#D7D7D7" transform="translate(119.563601, 171.664140) rotate(-16.000000) translate(-119.563601, -171.664140) "></path>
                            <path d="M121.800688,171.192837 L123.605044,171.192837 L123.049141,169.820225 C122.879886,169.401781 122.754109,169.05718 122.67181,168.790766 C122.603487,169.109304 122.508766,169.423499 122.384542,169.737694 L121.800688,171.192837 Z M120.264967,173.230036 L122.308455,168.268073 L123.067775,168.268073 L125.244804,173.230036 L124.443558,173.230036 L123.822437,171.728561 L121.597271,171.728561 L121.013417,173.230036 L120.264967,173.230036 Z" id="Fill-92" fill="#D7D7D7" transform="translate(122.754885, 170.749054) rotate(-16.000000) translate(-122.754885, -170.749054) "></path>
                            <polygon id="Fill-93" fill="#D7D7D7" transform="translate(126.743991, 169.605197) rotate(-16.000000) translate(-126.743991, -169.605197) " points="125.084045 172.086178 125.084045 167.124215 125.788029 167.124215 125.788029 171.501225 128.403936 171.501225 128.403936 172.086178"></polygon>
                            <polygon id="Fill-94" fill="#D7D7D7" transform="translate(130.415906, 168.552292) rotate(-16.000000) translate(-130.415906, -168.552292) " points="129.915906 171.033273 130.441716 171.033273 130.441716 166.071311 129.915906 166.071311"></polygon>
                            <path d="M132.230744,169.442111 L133.51745,169.442111 C133.914712,169.442111 134.225842,169.411696 134.452598,169.352315 C134.677596,169.290037 134.858649,169.204586 134.992242,169.094513 C135.182084,168.938094 135.327981,168.729535 135.433448,168.464491 C135.538916,168.203793 135.59165,167.883713 135.59165,167.508597 C135.59165,166.990096 135.489698,166.590358 135.282278,166.31228 C135.074858,166.032753 134.823493,165.847367 134.528183,165.751778 C134.31549,165.683707 133.970962,165.650395 133.496357,165.650395 L132.230744,165.650395 L132.230744,169.442111 Z M131.434462,170.027235 L131.434462,165.065272 L133.508661,165.065272 C133.977993,165.065272 134.334826,165.088445 134.580917,165.13624 C134.927203,165.199966 135.220755,165.318729 135.465089,165.491079 C135.78325,165.712673 136.020552,165.995097 136.178754,166.33835 C136.335198,166.6845 136.414299,167.076996 136.414299,167.520183 C136.414299,167.896748 136.361565,168.229863 136.254339,168.520976 C136.147114,168.81209 136.010006,169.052512 135.843015,169.243691 C135.676024,169.434869 135.493213,169.585495 135.294583,169.69412 C135.095952,169.804192 134.856891,169.886747 134.575644,169.943232 C134.294396,169.999716 133.97272,170.027235 133.607098,170.027235 L131.434462,170.027235 Z" id="Fill-95" fill="#D7D7D7" transform="translate(133.924380, 167.546253) rotate(-16.000000) translate(-133.924380, -167.546253) "></path>
                            <polygon id="Fill-96" fill="#D7D7D7" transform="translate(141.104770, 165.487310) rotate(-16.000000) translate(-141.104770, -165.487310) " points="139.444824 167.968291 139.444824 163.006328 142.764716 163.006328 142.764716 163.592729 140.096741 163.592729 140.096741 165.128954 142.405731 165.128954 142.405731 165.713906 140.096741 165.713906 140.096741 167.968291"></polygon>
                            <path d="M143.352581,164.053147 L144.96031,164.053147 C145.301643,164.053147 145.568774,164.022741 145.761701,163.960482 C145.954629,163.898222 146.101385,163.798317 146.201972,163.660766 C146.300909,163.526111 146.350377,163.376977 146.350377,163.217708 C146.350377,162.983147 146.254738,162.789128 146.060162,162.637098 C145.865585,162.486517 145.560529,162.411226 145.140046,162.411226 L143.352581,162.411226 L143.352581,164.053147 Z M142.603957,166.824433 L142.603957,161.86247 L145.110365,161.86247 C145.614944,161.86247 145.997501,161.908803 146.258036,161.997125 C146.520219,162.086895 146.729636,162.243269 146.887936,162.469142 C147.044586,162.695015 147.122087,162.942606 147.122087,163.217708 C147.122087,163.569548 146.99182,163.86492 146.732934,164.10672 C146.474049,164.34852 146.071704,164.501997 145.530848,164.567153 C145.727073,164.651131 145.878777,164.733662 145.981012,164.813296 C146.200323,164.989941 146.406442,165.21147 146.602667,165.47354 L147.583794,166.824433 L146.643891,166.824433 L145.895266,165.792079 C145.677605,165.495259 145.497869,165.26649 145.356059,165.108669 C145.215898,164.950847 145.088929,164.840807 144.9768,164.777099 C144.864671,164.713391 144.752542,164.669954 144.635467,164.64534 C144.55137,164.627965 144.412858,164.622173 144.219931,164.622173 L143.352581,164.622173 L143.352581,166.824433 L142.603957,166.824433 Z" id="Fill-97" fill="#D7D7D7" transform="translate(145.093875, 164.343452) rotate(-16.000000) translate(-145.093875, -164.343452) "></path>
                            <path d="M149.696194,162.586044 C149.696194,163.16396 149.864873,163.618737 150.202232,163.953173 C150.53959,164.28481 150.963568,164.451328 151.472645,164.451328 C151.99084,164.451328 152.417857,164.28341 152.753695,163.947575 C153.088015,163.610341 153.255174,163.135974 153.255174,162.517478 C153.255174,162.12707 153.183752,161.787037 153.040906,161.495979 C152.896541,161.204922 152.688351,160.979633 152.411778,160.817313 C152.135205,160.657791 151.826719,160.57803 151.483282,160.57803 C150.99548,160.57803 150.576062,160.733354 150.223507,161.041203 C149.872472,161.349052 149.696194,161.863999 149.696194,162.586044 M148.986526,162.576249 C148.986526,161.781439 149.21751,161.157346 149.682517,160.706767 C150.146005,160.257588 150.744741,160.032298 151.478724,160.032298 C151.960447,160.032298 152.393542,160.137247 152.779529,160.348543 C153.165516,160.561239 153.460325,160.856494 153.662436,161.232909 C153.864547,161.613522 153.966363,162.040312 153.966363,162.521676 C153.966363,163.007237 153.859988,163.442423 153.64724,163.827234 C153.432971,164.209247 153.130564,164.500304 152.740019,164.697607 C152.349473,164.89491 151.928535,164.994261 151.475684,164.994261 C150.986362,164.994261 150.548708,164.885115 150.161202,164.666822 C149.775215,164.448529 149.483446,164.150476 149.284374,163.774061 C149.085302,163.396246 148.986526,162.997442 148.986526,162.576249" id="Fill-98" fill="#D7D7D7" transform="translate(151.476444, 162.513280) rotate(-16.000000) translate(-151.476444, -162.513280) "></path>
                            <path d="M153.773452,163.621632 L153.773452,158.659669 L154.813265,158.659669 L156.047948,162.173729 C156.16213,162.500955 156.24434,162.745651 156.297625,162.907816 C156.356999,162.726828 156.448345,162.461862 156.574705,162.112917 L157.82309,158.659669 L158.753289,158.659669 L158.753289,163.621632 L158.086469,163.621632 L158.086469,159.469047 L156.570138,163.621632 L155.947468,163.621632 L154.43875,159.3981 L154.43875,163.621632 L153.773452,163.621632 Z" id="Fill-99" fill="#D7D7D7" transform="translate(156.263371, 161.140651) rotate(-16.000000) translate(-156.263371, -161.140651) "></path>
                            <path d="M181.849329,151.796524 L182.687921,151.796524 L182.687921,154.615659 C182.687921,155.105448 182.615884,155.495571 182.471808,155.784604 C182.327733,156.072212 182.067289,156.30714 181.692323,156.487964 C181.315511,156.668787 180.82233,156.758487 180.21278,156.758487 C179.619854,156.758487 179.134062,156.680177 178.759096,156.522135 C178.380436,156.365516 178.110757,156.137707 177.950057,155.838708 C177.789358,155.541133 177.708084,155.132501 177.708084,154.615659 L177.708084,151.796524 L178.546677,151.796524 L178.546677,154.612812 C178.546677,155.035682 178.596549,155.348919 178.698141,155.549676 C178.80158,155.749009 178.977056,155.904203 179.226418,156.013836 C179.475779,156.122046 179.778707,156.17615 180.138895,156.17615 C180.755833,156.17615 181.195448,156.069365 181.457739,155.85437 C181.718183,155.637952 181.849329,155.225048 181.849329,154.612812 L181.849329,151.796524 Z" id="Fill-100" fill="#D7D7D7" transform="translate(180.198003, 154.277505) rotate(-16.000000) translate(-180.198003, -154.277505) "></path>
                            <polygon id="Fill-101" fill="#D7D7D7" transform="translate(184.984929, 152.904876) rotate(-16.000000) translate(-184.984929, -152.904876) " points="182.495011 155.385858 182.495011 150.423895 183.35265 150.423895 186.672541 154.320201 186.672541 150.423895 187.474848 150.423895 187.474848 155.385858 186.615365 155.385858 183.297318 151.488103 183.297318 155.385858"></polygon>
                            <polygon id="Fill-102" fill="#D7D7D7" transform="translate(189.771856, 151.532247) rotate(-16.000000) translate(-189.771856, -151.532247) " points="189.35198 154.013229 189.35198 149.637666 187.281937 149.637666 187.281937 149.051266 192.261774 149.051266 192.261774 149.637666 190.184398 149.637666 190.184398 154.013229"></polygon>
                            <polygon id="Fill-103" fill="#D7D7D7" transform="translate(192.645950, 150.708114) rotate(-16.000000) translate(-192.645950, -150.708114) " points="192.14595 153.189095 192.67176 153.189095 192.67176 148.227133 192.14595 148.227133"></polygon>
                            <polygon id="Fill-104" fill="#D7D7D7" transform="translate(196.952246, 149.473304) rotate(-16.000000) translate(-196.952246, -149.473304) " points="195.2923 151.954285 195.2923 146.992322 195.996284 146.992322 195.996284 151.369332 198.612191 151.369332 198.612191 151.954285"></polygon>
                            <polygon id="Fill-105" fill="#D7D7D7" transform="translate(201.739172, 148.100674) rotate(-16.000000) translate(-201.739172, -148.100674) " points="200.079226 150.581656 200.079226 145.619693 203.296548 145.619693 203.296548 146.206094 200.668679 146.206094 200.668679 147.724944 203.12906 147.724944 203.12906 148.308449 200.668679 148.308449 200.668679 149.996703 203.399118 149.996703 203.399118 150.581656"></polygon>
                            <polygon id="Fill-106" fill="#D7D7D7" transform="translate(207.323920, 146.499274) rotate(-16.000000) translate(-207.323920, -146.499274) " points="204.834001 148.980255 204.834001 144.018292 205.69164 144.018292 209.011531 147.914599 209.011531 144.018292 209.813838 144.018292 209.813838 148.980255 208.954355 148.980255 205.636308 145.082501 205.636308 148.980255"></polygon>
                            <path d="M210.417209,147.022503 L211.703916,147.022503 C212.101178,147.022503 212.412308,146.992088 212.637306,146.932707 C212.864062,146.870429 213.043357,146.784977 213.178707,146.674905 C213.368549,146.518486 213.514446,146.309927 213.619914,146.044883 C213.725382,145.784185 213.778116,145.464105 213.778116,145.088988 C213.778116,144.570488 213.676164,144.17075 213.468744,143.892672 C213.261324,143.613145 213.009959,143.427759 212.714649,143.33217 C212.501956,143.264098 212.15567,143.230787 211.682823,143.230787 L210.417209,143.230787 L210.417209,147.022503 Z M209.620928,147.607626 L209.620928,142.645663 L211.695127,142.645663 C212.164459,142.645663 212.521292,142.668837 212.767383,142.716631 C213.113669,142.780358 213.407221,142.89912 213.651555,143.071471 C213.969716,143.293065 214.207018,143.575488 214.363462,143.918741 C214.521664,144.264891 214.600765,144.657387 214.600765,145.100575 C214.600765,145.47714 214.548031,145.810254 214.440805,146.101368 C214.33358,146.392481 214.196471,146.632903 214.029481,146.824082 C213.860732,147.015261 213.679679,147.165887 213.481048,147.274511 C213.282417,147.384584 213.043357,147.467139 212.760352,147.523623 C212.480862,147.580108 212.157428,147.607626 211.793564,147.607626 L209.620928,147.607626 Z" id="Fill-107" fill="#D7D7D7" transform="translate(212.110846, 145.126645) rotate(-16.000000) translate(-212.110846, -145.126645) "></path>
                            <path d="M97.4083519,112.275596 C97.4083519,115.362062 95.2605568,115.425983 95.2605568,116.556774 C95.2605568,117.183807 95.8051982,117.693652 96.4775381,117.693652 C96.7990919,117.693652 97.3668114,117.431881 97.3668114,117.431881 C98.8914998,116.162595 99.8777008,114.327152 99.8777008,112.275596 C99.8777008,110.248391 98.9145778,108.3749 97.371427,107.082785 C97.371427,107.082785 96.319069,106.242681 95.5451858,107.245631 C94.9620809,108.002028 95.6098042,108.718855 95.9698215,109.074986 C96.8237085,109.918133 97.4083519,111.036748 97.4083519,112.275596 L97.4083519,112.275596 Z M103.633265,112.275596 C103.633265,115.238786 102.319356,117.888459 100.223871,119.777169 L100.239257,119.789344 C100.086942,119.979585 99.996168,120.217006 99.996168,120.472689 C99.996168,121.099723 100.542348,121.609568 101.214688,121.609568 C101.543934,121.609568 101.845487,121.486292 102.063959,121.286919 L102.077806,121.297573 C104.559463,118.988811 106.104153,115.794289 106.104153,112.243635 C106.104153,108.711245 104.559463,105.52281 102.079345,103.218615 L102.062421,103.232312 C101.843949,103.03294 101.543934,102.911185 101.214688,102.911185 C100.542348,102.911185 99.996168,103.419509 99.996168,104.048064 C99.996168,104.303748 100.086942,104.539646 100.239257,104.728365 L100.228487,104.739019 C102.337819,106.652079 103.633265,109.330669 103.633265,112.275596 L103.633265,112.275596 Z M105.597975,100.63895 C110.888997,105.874375 110.536673,112.194934 110.536673,112.194934 C110.536673,117.721047 107.975012,121.487814 105.577974,123.893979 C105.310269,124.102483 105.139491,124.417521 105.139491,124.767564 C105.139491,125.39612 105.684133,125.904443 106.358011,125.904443 C106.708797,125.904443 107.027274,125.764426 107.248823,125.542224 C107.248823,125.542224 113.006022,120.594443 113.006022,112.290815 C113.006022,103.798468 107.248823,98.9770069 107.248823,98.9770069 C107.025735,98.7532837 106.708797,98.6132666 106.358011,98.6132666 C105.684133,98.6132666 105.139491,99.1231118 105.139491,99.7516672 C105.139491,100.110842 105.317961,100.431968 105.597975,100.63895 L105.597975,100.63895 Z M110.813609,96.0503432 C117.73394,102.758993 117.675476,111.185897 117.675476,112.258855 C117.675476,112.258855 118.357047,120.837951 110.819763,128.473454 C110.59206,128.701743 110.418205,128.981777 110.418205,129.316601 C110.418205,129.943634 110.962847,130.45348 111.636725,130.45348 C112.050591,130.45348 112.653697,129.978639 112.653697,129.978639 C120.844858,121.760238 120.144825,112.258855 120.144825,112.258855 C120.144825,101.370996 112.7137,94.55429 112.7137,94.55429 C112.493689,94.2590364 112.050591,94.0657518 111.636725,94.0657518 C110.962847,94.0657518 110.418205,94.575597 110.418205,95.2026305 C110.418205,95.5374542 110.572059,95.8387955 110.818225,96.0472994 L110.813609,96.0503432 Z" id="Fill-108" fill="#FEFEFE" transform="translate(107.710149, 112.259616) rotate(-16.000000) translate(-107.710149, -112.259616) "></path>
                        </g>
                    </g>
                </g>
            </g>
        </g>
    </g>
</svg>