<?xml version="1.0" encoding="UTF-8"?>
<svg width="240px" height="60px" viewBox="0 0 240 60" version="1.1" xmlns="http://www.w3.org/2000/svg" xmlns:xlink="http://www.w3.org/1999/xlink">
    <!-- Generator: Sketch 47 (45396) - http://www.bohemiancoding.com/sketch -->
    <title>creditclub_logo</title>
    <desc>Created with Sketch.</desc>
    <defs></defs>
    <g id="Symbols" stroke="none" stroke-width="1" fill="none" fill-rule="evenodd">
        <g id="creditclub_logo">
            <path d="M2,17.2957359 C2,26.5557084 8.93412132,34 18.5776013,34 C23.0319706,34 30.8845186,32.3204952 30.8845186,27.6905089 L30.8845186,24.2861073 L27.8077893,24.2861073 L27.8077893,26.7826685 C27.8077893,30.1416781 21.28696,31.1403026 18.669444,31.1403026 C11.0005813,31.1403026 5.35225733,25.1485557 5.35225733,17.2049519 C5.35225733,9.48830812 11.0005813,3.85969739 18.4857586,3.85969739 C21.7920946,3.85969739 27.3026546,5.08528198 27.3026546,8.2173315 L27.3026546,10.7592847 L30.3793839,10.7592847 L30.3793839,7.35488308 C30.3793839,2.4525447 22.251308,1 18.3479946,1 C9.11780665,1 2,7.99037139 2,17.2957359 Z M42.2004176,15.071293 L41.6301105,14.1242895 L41.6301105,14.7537827 C41.6301105,15.7070151 41.5382678,16.4786795 41.5382678,16.4786795 L41.6301105,16.4786795 C41.7922171,15.9915559 41.9827073,15.5207231 42.2004176,15.071293 Z M41.6301105,14.1242895 L42.2004176,15.071293 C43.5245244,12.3378741 45.8555109,10.3961486 48.9316025,10.3961486 C49.5745011,10.3961486 50.2173998,10.5323246 50.2173998,10.5323246 L50.2173998,13.5735901 C50.2173998,13.5735901 49.6204225,13.4828061 49.0234451,13.4828061 C43.8343345,13.4828061 41.7219532,19.2475928 41.7219532,23.786795 L41.7219532,30.9133425 L45.3038172,30.9133425 L45.3038172,33.4552957 L35.0174385,33.4552957 L35.0174385,30.9133425 L38.5993025,30.9133425 L38.5993025,14.1636864 C38.5993025,13.4828061 38.2319318,13.1650619 37.5890332,13.1650619 L34.4663825,13.1650619 L34.4663825,10.6231087 L38.8289092,10.6231087 C40.7576052,10.6231087 41.6301105,11.394773 41.6301105,13.2104539 L41.6301105,14.1242895 Z M51.9624104,22.0618982 C51.9624104,14.5722146 57.1055997,10.0784044 63.350901,10.0784044 C69.7339664,10.0784044 73.0403023,14.9353508 73.0403023,20.6093535 C73.0403023,21.1540578 72.9025383,22.0618982 72.9025383,22.0618982 L55.1769037,22.0618982 C55.3146677,27.9174691 59.355745,31.2310867 64.1315637,31.2310867 C68.3563264,31.2310867 71.1575277,28.5075653 71.1575277,28.5075653 L72.581089,30.8225585 C72.581089,30.8225585 69.274753,34 64.039721,34 C57.151521,34 51.9624104,29.0976616 51.9624104,22.0618982 Z M55.3146677,19.7922971 L69.7798877,19.7922971 C69.5962024,14.9807428 66.657237,12.6657497 63.2590584,12.6657497 C59.4016664,12.6657497 56.0494091,15.1623109 55.3146677,19.7922971 Z M76.4384809,22.0618982 C76.4384809,14.7991747 80.7091649,10.0784044 86.8626236,10.0784044 C92.3731836,10.0784044 94.3937222,14.5268226 94.3937222,14.5268226 L94.4855649,14.5268226 C94.4855649,14.5268226 94.3478009,13.7551582 94.3478009,12.7565337 L94.3478009,4.0866575 L90.2148809,4.0866575 L90.2148809,1.54470426 L97.4704515,1.54470426 L97.4704515,29.914718 C97.4704515,30.5955983 97.8378222,30.9133425 98.4807209,30.9133425 L101.052316,30.9133425 L101.052316,33.4552957 L97.2408449,33.4552957 C95.2662275,33.4552957 94.4855649,32.5928473 94.4855649,30.9587345 L94.4855649,30.5502063 C94.4855649,29.6423659 94.6692502,29.1430536 94.6692502,29.1430536 L94.5774075,29.1430536 C94.5774075,29.1430536 92.6027902,34 86.4493316,34 C80.2499516,34 76.4384809,29.0976616 76.4384809,22.0618982 Z M79.6529743,22.0618982 C79.6529743,27.6451169 82.6378609,31.2310867 86.9544662,31.2310867 C90.8118582,31.2310867 94.4396435,28.5075653 94.4396435,22.0618982 C94.4396435,17.3865199 92.0517342,12.8927098 87.1381516,12.8927098 C83.0052316,12.8927098 79.6529743,16.2517194 79.6529743,22.0618982 Z M107.527223,5.40302613 L111.063166,5.40302613 L111.063166,1.54470426 L107.527223,1.54470426 L107.527223,5.40302613 Z M103.807595,33.4552957 L114.736873,33.4552957 L114.736873,30.9133425 L110.833559,30.9133425 L110.833559,10.6231087 L103.577989,10.6231087 L103.577989,13.1650619 L107.710909,13.1650619 L107.710909,30.9133425 L103.807595,30.9133425 L103.807595,33.4552957 Z M119.925983,25.1485557 C119.925983,32.7744154 125.344701,33.6368638 128.008138,33.6368638 C128.788801,33.6368638 129.339857,33.5460798 129.339857,33.5460798 L129.339857,30.8679505 C129.339857,30.8679505 128.926565,30.9587345 128.283666,30.9587345 C126.492734,30.9587345 123.048634,30.2324622 123.048634,24.8762036 L123.048634,13.1650619 L128.880643,13.1650619 L128.880643,10.6231087 L123.048634,10.6231087 L123.048634,4.31361761 L119.971905,4.31361761 L119.971905,10.6231087 L115.793063,10.6231087 L115.793063,13.1650619 L119.925983,13.1650619 L119.925983,25.1485557 Z M142.657043,17.2957359 C142.657043,26.5557084 149.591164,34 159.234644,34 C163.689014,34 171.541562,32.3204952 171.541562,27.6905089 L171.541562,24.2861073 L168.464832,24.2861073 L168.464832,26.7826685 C168.464832,30.1416781 161.944003,31.1403026 159.326487,31.1403026 C151.657624,31.1403026 146.0093,25.1485557 146.0093,17.2049519 C146.0093,9.48830812 151.657624,3.85969739 159.142802,3.85969739 C162.449138,3.85969739 167.959698,5.08528198 167.959698,8.2173315 L167.959698,10.7592847 L171.036427,10.7592847 L171.036427,7.35488308 C171.036427,2.4525447 162.908351,1 159.005038,1 C149.77485,1 142.657043,7.99037139 142.657043,17.2957359 Z M177.419492,27.735901 C177.419492,32.0935351 179.623716,33.5914718 182.654524,33.5914718 C183.572951,33.5914718 184.445456,33.4552957 184.445456,33.4552957 L184.445456,30.8225585 C184.445456,30.8225585 183.986243,30.9133425 183.159659,30.9133425 C181.047278,30.9133425 180.542143,29.3700138 180.542143,27.5089409 L180.542143,1.54470426 L173.332494,1.54470426 L173.332494,4.0866575 L177.419492,4.0866575 L177.419492,27.735901 Z M189.772331,25.1485557 C189.772331,31.0949106 192.022476,34 197.349351,34 C203.043596,34 205.890719,29.869326 206.487696,28.1444292 L206.579539,28.1444292 C206.579539,28.1444292 206.533617,28.8707015 206.533617,29.778542 L206.533617,30.9133425 C206.533617,32.6382393 207.360201,33.4552957 209.288897,33.4552957 L213.192211,33.4552957 L213.192211,30.9587345 L210.574695,30.9587345 C209.931796,30.9587345 209.564425,30.6409904 209.564425,29.96011 L209.564425,10.6231087 L202.308855,10.6231087 L202.308855,13.1650619 L206.441775,13.1650619 L206.441775,21.4718019 C206.441775,26.4195323 203.135439,31.1403026 197.946328,31.1403026 C193.446038,31.1403026 192.894982,27.9628611 192.894982,24.3768913 L192.894982,10.6231087 L185.639411,10.6231087 L185.639411,13.1650619 L189.772331,13.1650619 L189.772331,25.1485557 Z M217.968029,33.4552957 L217.968029,4.0866575 L213.835109,4.0866575 L213.835109,1.54470426 L221.09068,1.54470426 L221.09068,12.8019257 C221.09068,13.8913343 220.952916,14.7083906 220.952916,14.7083906 L221.044759,14.7083906 C221.044759,14.7083906 223.065297,10.0784044 228.943228,10.0784044 C235.142608,10.0784044 239,14.9807428 239,22.0618982 C239,29.2792297 234.637473,34 228.575857,34 C223.019376,34 220.952916,29.3246217 220.952916,29.3246217 L220.861073,29.3246217 C220.861073,29.3246217 220.998837,30.1416781 220.998837,31.2310867 L220.998837,33.4552957 L217.968029,33.4552957 Z M220.998837,22.1072902 C220.998837,26.6918845 223.432668,31.2310867 228.346251,31.2310867 C232.433249,31.2310867 235.831428,27.872077 235.831428,22.0618982 C235.831428,16.4786795 232.80062,12.8927098 228.484015,12.8927098 C224.626623,12.8927098 220.998837,15.6162311 220.998837,22.1072902 Z" id="Credit-Club-Copy" fill="#24D5A6"></path>
            <path d="M4.44515989,54.3793103 L4.44515989,43.5 L3,43.5 L3,42.2068966 L6.09434235,42.2068966 L6.09434235,46.2413793 C6.09434235,46.6551724 6.04333671,46.9655172 6.04333671,46.9655172 L6.07734047,46.9655172 C6.07734047,46.9655172 6.84242512,45.4482759 8.84864708,45.4482759 C11.1779048,45.4482759 12.6400666,47.3103448 12.6400666,50.0172414 C12.6400666,52.7931034 10.9908841,54.5862069 8.71263204,54.5862069 C6.72341195,54.5862069 5.99233107,53 5.99233107,53 L5.9583273,53 C5.9583273,53 6.00933295,53.3103448 6.00933295,53.6896552 L6.00933295,54.3793103 L4.44515989,54.3793103 Z M6.04333671,50.0517241 C6.04333671,51.6034483 6.84242512,53.137931 8.49160758,53.137931 C9.83475619,53.137931 10.9568803,52.0172414 10.9568803,50.0344828 C10.9568803,48.137931 9.95376935,46.9137931 8.52561134,46.9137931 C7.25047026,46.9137931 6.04333671,47.8275862 6.04333671,50.0517241 Z M14.442266,56.1896552 L13.8812039,57.4482759 C13.8812039,57.4482759 14.6292866,58 15.7344089,58 C17.0605556,58 18.1826798,57.2413793 18.7607437,55.7586207 L22.16112,46.9482759 L23.2322385,46.9482759 L23.2322385,45.6551724 L19.4238171,45.6551724 L19.4238171,46.9482759 L20.5289394,46.9482759 L18.6247287,52.137931 C18.4887136,52.5172414 18.4207061,52.8965517 18.4207061,52.8965517 L18.3697005,52.8965517 C18.3697005,52.8965517 18.3356967,52.5172414 18.2166835,52.137931 L16.295471,46.9482759 L17.434597,46.9482759 L17.434597,45.6551724 L13.5071625,45.6551724 L13.5071625,46.9482759 L14.5952829,46.9482759 L17.6046158,54.5344828 L17.2475763,55.3965517 C16.9585443,56.0862069 16.3974823,56.6034483 15.6664014,56.6034483 C14.9353205,56.6034483 14.442266,56.1896552 14.442266,56.1896552 Z M28.2817971,54.3793103 L32.9063088,54.3793103 L32.9063088,53.0344828 L31.4611489,53.0344828 L32.0052091,45.7586207 C32.022211,45.3793103 31.9542034,44.7586207 31.9542034,44.7586207 L32.0052091,44.7586207 C32.0052091,44.7586207 32.1412241,45.3448276 32.2772392,45.6896552 L35.0315439,52.0862069 L36.5277094,52.0862069 L39.2820142,45.6896552 C39.4180292,45.3448276 39.5540443,44.7586207 39.5540443,44.7586207 L39.6050499,44.7586207 C39.6050499,44.7586207 39.5370424,45.3793103 39.5540443,45.7586207 L40.0981045,53.0344828 L38.6529446,53.0344828 L38.6529446,54.3793103 L43.2774562,54.3793103 L43.2774562,53.0344828 L41.7812907,53.0344828 L41.016206,43.5344828 L42.5463753,43.5344828 L42.5463753,42.2068966 L39.1459991,42.2068966 L36.0686587,49.6206897 C35.881638,50.1206897 35.7966286,50.5 35.7966286,50.5 L35.7626248,50.5 C35.7626248,50.5 35.6776154,50.1206897 35.4905947,49.6206897 L32.4132542,42.2068966 L29.012878,42.2068966 L29.012878,43.5344828 L30.5430473,43.5344828 L29.7779627,53.0344828 L28.2817971,53.0344828 L28.2817971,54.3793103 Z M44.603603,50 C44.603603,47.362069 46.6778324,45.4482759 49.2451165,45.4482759 C51.8124005,45.4482759 53.88663,47.362069 53.88663,50 C53.88663,52.6551724 51.8124005,54.5862069 49.2451165,54.5862069 C46.6778324,54.5862069 44.603603,52.6551724 44.603603,50 Z M46.2867892,50 C46.2867892,51.8275862 47.6129359,53.137931 49.2451165,53.137931 C50.8602952,53.137931 52.2034438,51.8275862 52.2034438,50 C52.2034438,48.1896552 50.8602952,46.8965517 49.2451165,46.8965517 C47.6129359,46.8965517 46.2867892,48.1896552 46.2867892,50 Z M55.3827955,54.3793103 L59.7352771,54.3793103 L59.7352771,53.0862069 L58.3751266,53.0862069 L58.3751266,50.3275862 C58.3751266,48.5862069 59.5142526,46.9827586 61.2484445,46.9827586 C62.6255969,46.9827586 62.8636232,47.9482759 62.8636232,49.1724138 L62.8636232,54.3793103 L65.8729562,54.3793103 L65.8729562,53.0862069 L64.5128057,53.0862069 L64.5128057,48.7931034 C64.5128057,46.5689655 63.6287079,45.4482759 61.6564897,45.4482759 C59.4802489,45.4482759 58.4771379,47.1034483 58.3071191,47.5689655 L58.2731153,47.5689655 C58.2731153,47.5689655 58.324121,47.3448276 58.324121,47.0689655 L58.324121,46.6206897 C58.324121,45.9827586 57.9840833,45.6551724 57.2360006,45.6551724 L55.2977861,45.6551724 L55.2977861,46.9482759 L56.3519028,46.9482759 C56.5899291,46.9482759 56.7259441,47.0689655 56.7259441,47.3275862 L56.7259441,53.0862069 L55.3827955,53.0862069 L55.3827955,54.3793103 Z M74.2038779,52.1551724 C74.2038779,52.1551724 74.2038771,52.1551731 74.2038757,52.1551745 L74.2038779,52.1551724 Z M74.2038779,52.1551724 L74.8839531,53.3793103 C74.8839531,53.3793103 73.5918102,54.5862069 71.5345825,54.5862069 C68.8312835,54.5862069 66.9780784,52.6034483 66.9780784,50.0172414 C66.9780784,47.2413793 68.8312835,45.4482759 71.2795543,45.4482759 C73.7278252,45.4482759 75.0029663,47.2758621 75.0029663,49.5344828 C75.0029663,49.7586207 74.9519606,50.1724138 74.9519606,50.1724138 L68.6612647,50.1724138 C68.7632759,52.1034483 70.1064245,53.137931 71.6365938,53.137931 C73.1315146,53.137931 74.2020953,52.156807 74.2038757,52.1551745 L74.2038779,52.1551724 Z M68.7292722,49.1034483 L73.3027782,49.1034483 C73.2517725,47.5689655 72.333671,46.7758621 71.2455506,46.7758621 C69.9874114,46.7758621 68.9672985,47.637931 68.7292722,49.1034483 Z M76.8051657,56.1896552 L76.2441036,57.4482759 C76.2441036,57.4482759 76.9921864,58 78.0973086,58 C79.4234554,58 80.5455795,57.2413793 81.1236435,55.7586207 L84.5240197,46.9482759 L85.5951382,46.9482759 L85.5951382,45.6551724 L81.7867168,45.6551724 L81.7867168,46.9482759 L82.8918391,46.9482759 L80.9876284,52.137931 C80.8516134,52.5172414 80.7836058,52.8965517 80.7836058,52.8965517 L80.7326002,52.8965517 C80.7326002,52.8965517 80.6985964,52.5172414 80.5795833,52.137931 L78.6583707,46.9482759 L79.7974967,46.9482759 L79.7974967,45.6551724 L75.8700622,45.6551724 L75.8700622,46.9482759 L76.9581826,46.9482759 L79.9675156,54.5344828 L79.6104761,55.3965517 C79.3214441,56.0862069 78.760382,56.6034483 78.0293011,56.6034483 C77.2982202,56.6034483 76.8051657,56.1896552 76.8051657,56.1896552 Z M86.6492548,50.7241379 L86.6492548,52 C86.6492548,53.7413793 88.7404862,54.5862069 90.6106931,54.5862069 C92.8379395,54.5862069 94.7081464,53.3793103 94.7081464,51.0517241 C94.7081464,48.7931034 92.9569527,48.1034483 91.1887571,47.4310345 C89.8456085,46.9137931 88.6384749,46.4827586 88.6384749,45.1896552 C88.6384749,44.0689655 89.5735784,43.5172414 90.7467081,43.5172414 C91.7328172,43.5172414 92.8039358,43.8965517 92.8039358,44.6034483 L92.8039358,45.4482759 L94.3851107,45.4482759 L94.3851107,44.0172414 C94.3851107,42.6896552 92.5489075,42 90.7467081,42 C88.7234843,42 86.904283,42.9827586 86.904283,45.2758621 C86.904283,47.4310345 88.5194617,48.1206897 90.1006367,48.7241379 C91.5798003,49.3103448 92.9909564,49.7758621 92.9909564,51.1896552 C92.9909564,52.3965517 91.9878455,53.0517241 90.6106931,53.0517241 C89.3525539,53.0517241 88.2134279,52.5172414 88.2134279,51.6206897 L88.2134279,50.7241379 L86.6492548,50.7241379 Z M96.1363044,51.9482759 C96.1363044,49.2068966 99.7237013,49.0172414 101.151859,49.0172414 L101.69592,49.0172414 L101.69592,48.6896552 C101.69592,47.3103448 100.913833,46.8275862 99.8597164,46.8275862 C98.4995659,46.8275862 97.3944436,47.6724138 97.3944436,47.6724138 L96.7313703,46.4827586 C96.7313703,46.4827586 97.9895095,45.4482759 99.9957314,45.4482759 C102.188974,45.4482759 103.345102,46.6034483 103.345102,48.8103448 L103.345102,52.7068966 C103.345102,52.9655172 103.481117,53.0862069 103.719143,53.0862069 L104.586239,53.0862069 L104.586239,54.3793103 L102.869049,54.3793103 C102.103965,54.3793103 101.797931,54 101.797931,53.4310345 L101.797931,53.3103448 C101.797931,52.9655172 101.865938,52.7413793 101.865938,52.7413793 L101.831935,52.7413793 C101.831935,52.7413793 101.083852,54.5862069 98.9926205,54.5862069 C97.5644625,54.5862069 96.1363044,53.7413793 96.1363044,51.9482759 Z M97.8024888,51.8103448 C97.8024888,52.5862069 98.3635509,53.2931034 99.34966,53.2931034 C100.811822,53.2931034 101.712921,51.7758621 101.712921,50.4655172 L101.712921,50.1034483 L101.287874,50.1034483 C100.505788,50.1034483 97.8024888,50.137931 97.8024888,51.8103448 Z M105.164303,46.9482759 L106.252424,46.9482759 L109.02373,54.3793103 L110.876935,54.3793103 L113.665244,46.9482759 L114.736362,46.9482759 L114.736362,45.6551724 L110.893937,45.6551724 L110.893937,46.9482759 L111.999059,46.9482759 L110.162856,52.0344828 C110.026841,52.4137931 109.975836,52.8448276 109.975836,52.8448276 L109.92483,52.8448276 C109.92483,52.8448276 109.873824,52.4137931 109.737809,52.0344828 L107.918608,46.9482759 L109.02373,46.9482759 L109.02373,45.6551724 L105.164303,45.6551724 L105.164303,46.9482759 Z M117.014614,43.9137931 L118.748806,43.9137931 L118.748806,42.2068966 L117.014614,42.2068966 L117.014614,43.9137931 Z M115.70547,54.3793103 L120.057951,54.3793103 L120.057951,53.0862069 L118.697801,53.0862069 L118.697801,45.6551724 L115.62046,45.6551724 L115.62046,46.9482759 L117.048618,46.9482759 L117.048618,53.0862069 L115.70547,53.0862069 L115.70547,54.3793103 Z M121.418102,54.3793103 L125.770583,54.3793103 L125.770583,53.0862069 L124.410433,53.0862069 L124.410433,50.3275862 C124.410433,48.5862069 125.549559,46.9827586 127.283751,46.9827586 C128.660903,46.9827586 128.898929,47.9482759 128.898929,49.1724138 L128.898929,54.3793103 L131.908262,54.3793103 L131.908262,53.0862069 L130.548112,53.0862069 L130.548112,48.7931034 C130.548112,46.5689655 129.664014,45.4482759 127.691796,45.4482759 C125.515555,45.4482759 124.512444,47.1034483 124.342425,47.5689655 L124.308421,47.5689655 C124.308421,47.5689655 124.359427,47.3448276 124.359427,47.0689655 L124.359427,46.6206897 C124.359427,45.9827586 124.019389,45.6551724 123.271307,45.6551724 L121.333092,45.6551724 L121.333092,46.9482759 L122.387209,46.9482759 C122.625235,46.9482759 122.76125,47.0689655 122.76125,47.3275862 L122.76125,53.0862069 L121.418102,53.0862069 L121.418102,54.3793103 Z M134.373535,56 C134.373535,56 135.444653,56.5862069 136.736796,56.5862069 C138.232962,56.5862069 139.457097,55.8965517 139.457097,54.1034483 L139.457097,53.4137931 C139.457097,53.137931 139.508103,52.862069 139.508103,52.862069 L139.474099,52.862069 C138.964043,53.7241379 138.147953,54.2758621 136.889813,54.2758621 C134.50955,54.2758621 133.047388,52.3275862 133.047388,49.8103448 C133.047388,47.3103448 134.424541,45.4482759 136.821806,45.4482759 C137.94393,45.4482759 139.134062,45.8793103 139.610114,46.8793103 L139.644118,46.8793103 C139.644118,46.8793103 139.610114,46.7586207 139.610114,46.5344828 C139.610114,45.9827586 139.882144,45.6551724 140.596223,45.6551724 L142.432427,45.6551724 L142.432427,46.9482759 L141.480321,46.9482759 C141.259297,46.9482759 141.10628,47.0689655 141.10628,47.2931034 L141.10628,54.0172414 C141.10628,56.8965517 138.947041,58 136.7708,58 C135.733685,58 134.679569,57.7068966 133.829475,57.2758621 L134.373535,56 Z M137.212849,52.8275862 C138.402981,52.8275862 139.491101,52.1034483 139.491101,49.8275862 C139.491101,47.5517241 138.402981,46.8965517 137.059832,46.8965517 C135.580668,46.8965517 134.730574,48 134.730574,49.7758621 C134.730574,51.5862069 135.665678,52.8275862 137.212849,52.8275862 Z M143.860585,54.3793103 L152.837578,54.3793103 L152.837578,51.5 L151.358414,51.5 L151.358414,52.9655172 L147.056938,52.9655172 L147.056938,48.9482759 L151.307408,48.9482759 L151.307408,47.5344828 L147.056938,47.5344828 L147.056938,43.6206897 L151.069382,43.6206897 L151.069382,45.0344828 L152.548546,45.0344828 L152.548546,42.2068966 L143.860585,42.2068966 L143.860585,43.5344828 L145.35675,43.5344828 L145.35675,53.0344828 L143.860585,53.0344828 L143.860585,54.3793103 Z M154.333743,54.3793103 L156.577992,54.3793103 L158.27818,51.5689655 C158.4652,51.2758621 158.584214,51 158.584214,51 L158.618217,51 C158.618217,51 158.754232,51.2931034 158.924251,51.5517241 L160.658443,54.3793103 L162.851686,54.3793103 L162.851686,53.0862069 L161.695558,53.0862069 L159.570323,49.862069 L161.491535,46.9482759 L162.80068,46.9482759 L162.80068,45.6551724 L160.522428,45.6551724 L158.958255,48.1896552 C158.788236,48.4655172 158.652221,48.7586207 158.652221,48.7586207 L158.618217,48.7586207 C158.618217,48.7586207 158.482202,48.4482759 158.329185,48.1896552 L156.799016,45.6551724 L154.384749,45.6551724 L154.384749,46.9482759 L155.778903,46.9482759 L157.683114,49.8793103 L155.625886,53.0862069 L154.333743,53.0862069 L154.333743,54.3793103 Z M164.007814,56.5344828 L165.350962,56.5344828 L165.350962,47.3275862 C165.350962,47.0689655 165.214947,46.9482759 164.976921,46.9482759 L163.922804,46.9482759 L163.922804,45.6551724 L165.827015,45.6551724 C166.5921,45.6551724 166.881132,46 166.881132,46.5172414 L166.881132,46.5862069 C166.881132,46.862069 166.847128,47.0862069 166.847128,47.0862069 L166.881132,47.0862069 C166.881132,47.0862069 167.595211,45.4482759 169.771451,45.4482759 C172.083707,45.4482759 173.545869,47.3103448 173.545869,50.0172414 C173.545869,52.7931034 171.896686,54.5862069 169.652438,54.5862069 C167.765229,54.5862069 166.983143,53.1034483 166.983143,53.1034483 L166.949139,53.1034483 C166.949139,53.1034483 167.000145,53.4137931 167.000145,53.862069 L167.000145,56.5344828 L168.360295,56.5344828 L168.360295,57.8275862 L164.007814,57.8275862 L164.007814,56.5344828 Z M166.966141,50.0517241 C166.966141,51.6034483 167.799233,53.137931 169.39741,53.137931 C170.75756,53.137931 171.879685,52.0172414 171.879685,50.0344828 C171.879685,48.137931 170.876574,46.9137931 169.431414,46.9137931 C168.156273,46.9137931 166.966141,47.8275862 166.966141,50.0517241 Z M174.957025,50.0172414 C174.957025,47.2413793 176.81023,45.4482759 179.258501,45.4482759 C181.706772,45.4482759 182.981913,47.2758621 182.981913,49.5344828 C182.981913,49.7586207 182.930907,50.1724138 182.930907,50.1724138 L176.640211,50.1724138 C176.742223,52.1034483 178.085371,53.137931 179.61554,53.137931 C181.111706,53.137931 182.182824,52.1551724 182.182824,52.1551724 L182.8629,53.3793103 C182.8629,53.3793103 181.570757,54.5862069 179.513529,54.5862069 C176.81023,54.5862069 174.957025,52.6034483 174.957025,50.0172414 Z M176.708219,49.1034483 L181.281725,49.1034483 C181.230719,47.5689655 180.312618,46.7758621 179.224497,46.7758621 C177.966358,46.7758621 176.946245,47.637931 176.708219,49.1034483 Z M187.627137,47.3285782 L187.436406,46.9711207 L187.436406,47.2241379 C187.436406,47.5689655 187.402402,47.8275862 187.402402,47.8275862 L187.436406,47.8275862 C187.489103,47.6556497 187.552916,47.4887229 187.627137,47.3285782 Z M187.436406,46.9711207 L187.627137,47.3285782 C188.103676,46.3003625 189.009273,45.5517241 190.156707,45.5517241 C190.377731,45.5517241 190.581754,45.5862069 190.581754,45.5862069 L190.581754,47.2413793 C190.581754,47.2413793 190.377731,47.1896552 190.105701,47.1896552 C188.269498,47.1896552 187.487411,49.0689655 187.487411,50.7758621 L187.487411,53.0862069 L188.762552,53.0862069 L188.762552,54.3793103 L184.546086,54.3793103 L184.546086,53.0862069 L185.838229,53.0862069 L185.838229,47.3275862 C185.838229,47.0689655 185.702214,46.9482759 185.464188,46.9482759 L184.393069,46.9482759 L184.393069,45.6551724 L186.331283,45.6551724 C187.079366,45.6551724 187.436406,45.9655172 187.436406,46.6724138 L187.436406,46.9711207 Z M192.638981,51.1896552 C192.638981,54.1034483 194.832224,54.4482759 195.920344,54.4482759 C196.277384,54.4482759 196.51541,54.4137931 196.51541,54.4137931 L196.51541,53.0172414 C196.51541,53.0172414 196.362393,53.0344828 196.124367,53.0344828 C195.478295,53.0344828 194.288164,52.8103448 194.288164,51.0344828 L194.288164,46.9482759 L196.345391,46.9482759 L196.345391,45.6551724 L194.288164,45.6551724 L194.288164,43.2586207 L192.672985,43.2586207 L192.672985,45.6551724 L191.193821,45.6551724 L191.193821,46.9482759 L192.638981,46.9482759 L192.638981,51.1896552 Z M198.300608,54.3793103 L200.068803,54.3793103 L200.068803,52.5689655 L198.300608,52.5689655 L198.300608,54.3793103 Z M202.041022,50.0344828 C202.041022,52.8448276 204.20026,54.5862069 206.682535,54.5862069 C208.501736,54.5862069 209.742874,53.6034483 210.133917,53.2413793 L209.504847,52.0172414 C209.198813,52.2586207 208.212704,53.137931 206.750543,53.137931 C205.10136,53.137931 203.724208,51.9827586 203.724208,50 C203.724208,48.137931 204.914339,46.8965517 206.648531,46.8965517 C207.413616,46.8965517 208.501736,47.2241379 208.501736,47.8965517 L208.501736,48.5 L209.963898,48.5 L209.963898,47.4310345 C209.963898,45.9310345 207.872667,45.4482759 206.597526,45.4482759 C204.030242,45.4482759 202.041022,47.362069 202.041022,50.0344828 Z M211.443062,50 C211.443062,47.362069 213.517291,45.4482759 216.084575,45.4482759 C218.651859,45.4482759 220.726089,47.362069 220.726089,50 C220.726089,52.6551724 218.651859,54.5862069 216.084575,54.5862069 C213.517291,54.5862069 211.443062,52.6551724 211.443062,50 Z M213.126248,50 C213.126248,51.8275862 214.452395,53.137931 216.084575,53.137931 C217.699754,53.137931 219.042903,51.8275862 219.042903,50 C219.042903,48.1896552 217.699754,46.8965517 216.084575,46.8965517 C214.452395,46.8965517 213.126248,48.1896552 213.126248,50 Z M222.222254,54.3793103 L226.574736,54.3793103 L226.574736,53.0862069 L225.214585,53.0862069 L225.214585,50.4310345 C225.214585,48.7241379 226.166691,46.9655172 227.798871,46.9655172 C229.125018,46.9655172 229.295037,48.0172414 229.295037,49.1551724 L229.295037,54.3793103 L232.287368,54.3793103 L232.287368,53.0862069 L230.944219,53.0862069 L230.944219,50.362069 C230.944219,48.637931 231.862321,46.9655172 233.4775,46.9655172 C234.769643,46.9655172 234.990667,47.9310345 234.990667,49.1551724 L234.990667,54.3793103 L238,54.3793103 L238,53.0862069 L236.63985,53.0862069 L236.63985,48.7931034 C236.63985,46.5689655 235.73875,45.4482759 233.834539,45.4482759 C232.423383,45.4482759 231.233251,46.4137931 230.757199,47.5 L230.723195,47.5 C230.434163,46.0862069 229.584069,45.4482759 228.206917,45.4482759 C226.812762,45.4482759 225.571625,46.5344828 225.146578,47.5689655 L225.112574,47.5689655 C225.112574,47.5689655 225.16358,47.3448276 225.16358,47.0689655 L225.16358,46.6206897 C225.16358,45.9827586 224.80654,45.6551724 224.075459,45.6551724 L222.137245,45.6551724 L222.137245,46.9482759 L223.191362,46.9482759 C223.429388,46.9482759 223.565403,47.0689655 223.565403,47.3103448 L223.565403,53.0862069 L222.222254,53.0862069 L222.222254,54.3793103 Z" id="by-MoneySavingExpert" fill="#EEEEEE"></path>
        </g>
    </g>
</svg>