<?xml version="1.0" encoding="UTF-8"?>
<svg width="375px" height="137px" viewBox="0 0 375 137" version="1.1" xmlns="http://www.w3.org/2000/svg" xmlns:xlink="http://www.w3.org/1999/xlink">
    <!-- Generator: Sketch 47 (45396) - http://www.bohemiancoding.com/sketch -->
    <title>hands_card_mobile</title>
    <desc>Created with Sketch.</desc>
    <defs>
        <polygon id="path-1" points="0 177 481 177 481 0 0 0"></polygon>
    </defs>
    <g id="Design" stroke="none" stroke-width="1" fill="none" fill-rule="evenodd">
        <g id="WW-carousel" transform="translate(0.000000, -256.000000)">
            <g id="hands_card_mobile" transform="translate(-53.000000, 216.000000)">
                <path d="M114,150.408494 C122.639285,149.696338 155.151007,122.09167 161.014369,115.375495 C166.87773,108.659319 188.642616,103 188.642616,103 C188.642616,103 190.675438,108.350016 185.044663,116.951508 C179.413888,125.552999 172.399349,124.46496 159.41985,135.449012 C146.440351,146.433064 134.300514,150.190212 128.087853,151.585025 C121.874353,152.980682 114,150.408494 114,150.408494 Z" id="Fill-1" fill="#FCCEA4"></path>
                <path d="M183.918316,133.008459 C183.918316,133.008459 180.410271,136.69939 170.759814,139.963073 C161.109358,143.227585 154.560507,142.965428 157.866998,136.242276 C161.174322,129.519123 174.212058,127.031125 182.924703,118 C182.924703,118 189.124582,127.683198 183.918316,133.008459" id="Fill-3" fill="#FCCEA4"></path>
                <path d="M193.922671,119.081854 C193.922671,119.081854 187.101864,132.883376 182.834216,130.782339 C178.566569,128.682144 178.168695,123.371471 180.136601,119.306604 C182.104506,115.241738 184.880541,107.048873 184.880541,107.048873 L192.882587,103 L197,111.290509 C197,111.290509 195.148485,116.791421 193.922671,119.081854" id="Fill-5" fill="#FCCEA4"></path>
                <path d="M108,113.582957 C108,113.582957 122.998811,101.517936 127.787069,95.0310217 C132.576172,88.5449483 145.207061,74.8111187 150.423928,72.6454511 C155.640796,70.4797836 160.658153,71.6937681 164.4683,71.7248743 C168.279294,71.7551398 175.003482,68.9295154 184.142088,68.470488 C193.279848,68.0114607 196.567548,66.5334934 199.53992,73.0725316 C202.512292,79.610729 209.014989,86.1976875 207.865266,96.5140332 C206.715543,106.829538 207.882174,118.037877 203.011914,116.923096 C198.1425,115.808315 196.664768,112.678354 194.525945,105.945112 C194.525945,105.945112 191.641493,94.3508878 182.669428,97.3244771 C173.698208,100.297226 140.471217,111.874636 129.07628,112.341229 C117.681343,112.807823 120.281745,115.863802 108,113.582957" id="Fill-7" fill="#FCCEA4"></path>
                <path d="M50.223532,144.301867 C50.223532,144.301867 101.735159,145.594022 105.982479,143.774593 C110.228954,141.955165 106.471385,140.531191 117.846264,135.717724 C129.221143,130.903417 140.498917,131.00501 149.688495,122.977527 C158.878073,114.950043 168.25933,108.682377 180.234576,105.564916 C192.209822,102.446615 195.535059,104.70096 201,100 C201,100 194.061585,106.58084 180.654241,111.191962 C178.199578,112.035767 176.060719,112.84263 174.187845,113.615908 C165.832532,117.068372 162.775812,119.87098 160.583756,122.482158 C157.901105,125.678542 154.538715,129.673393 146.560847,135.307156 C138.583823,140.94008 133.274251,145.628446 129.736226,147.630909 C126.197356,149.632532 124.994089,152.269738 111.500617,152.696258 C98.0079884,153.123618 50.1095384,160 50.1095384,160 L49,142.84095 L50.223532,144.301867 Z" id="Fill-9" fill="#FBC499"></path>
                <path d="M146.398487,103 C146.398487,103 137.193775,101.588395 140.864737,95.489404 C144.534859,89.3904134 155.444396,84.6611077 163.477829,80.9815231 C171.511262,77.3010829 174.636075,80.0892174 180.546248,78.2652522 C186.456421,76.441287 191.412094,68.5268863 194,86.8469572 C194,86.8469572 189.445957,87.2319405 187.5504,87.6434448 C185.654842,88.0549492 179.032995,89.8566709 176.127482,90.6471699 C173.221969,91.4385244 167.296671,94.0333117 163.887861,95.7819913 C160.479891,97.5298154 150.597953,102.891349 146.398487,103" id="Fill-11" fill="#FBC499"></path>
                <path d="M186,109 C186,109 185.943911,112.605684 184.240215,115.506995 C182.537394,118.409151 178.679538,126.239387 181.595278,130 C181.595278,130 178.416622,127.703165 179.094946,123.16029 C179.773269,118.617416 181.728489,116.326507 182.924758,113.24741 C184.121902,110.168313 184.317337,109.650191 184.317337,109.650191 L186,109 Z" id="Fill-13" fill="#FBC499"></path>
                <path d="M178.897411,125.890714 C178.897411,125.890714 169.483767,131.214952 164.965984,132.391898 C160.449033,133.569678 157.435235,136.695392 157.000528,139 C157.000528,139 156.832309,135.355562 162.498483,132.000139 C168.16549,128.645552 178.675061,122.866073 180,121 C180,121 179.135584,124.698733 179.551136,125.677711 L178.897411,125.890714 Z" id="Fill-15" fill="#FBC499"></path>
                <path d="M174.40054,113.512517 C174.40054,113.512517 176.697637,119.393899 179.238623,116.044779 C181.780419,112.695659 182,113.007699 182,113.007699 C182,113.007699 181.780419,113.513334 179.941931,115.998218 C178.102633,118.483102 178.365969,118.37446 177.719379,119.507443 C177.072789,120.641242 176.819986,122.293747 176.819986,122.293747 L176.621472,123.397323 L174.059419,125 C174.059419,125 174.635517,120.591414 172.558812,119.15456 C170.482107,117.717705 170,115.462359 170,115.462359 C170,115.462359 173.66077,113.814755 174.40054,113.512517" id="Fill-17" fill="#FBC499"></path>
                <path d="M204,116.892293 C204,116.892293 197.563856,113.893165 195.894981,104 L194,105.407182 C194,105.407182 196.071393,111.308107 197.39407,113.662209 C198.717575,116.015486 202.164651,117.410295 204,116.892293" id="Fill-19" fill="#FBC499"></path>
                <path d="M171.999812,118.813269 C172.047531,118.779516 163.011843,121.797897 157.431198,129.571261 C151.934271,137.22649 129.711317,154.257517 118,151.750497 C118,151.750497 126.801278,150.856037 139.975986,139.528459 C153.150694,128.200881 153.31227,130.36193 156.166218,126.458371 C159.021004,122.553969 164.44677,116.219335 169.355996,115 C169.355996,115 170.74739,118.177021 171.999812,118.813269" id="Fill-21" fill="#FBBE93"></path>
                <path d="M194,107.230231 C194,107.230231 184.01994,110.739832 181,118 L184.167697,109.892119 C184.167697,109.892119 185.473313,108.786972 188.162313,107.615949 C190.850449,106.44666 193.412429,105 193.412429,105 C193.412429,105 193.196411,105.492332 194,107.230231" id="Fill-23" fill="#FBBE93"></path>
                <path d="M179.52563,121 C179.52563,121 170.849534,127.654305 168,129 C168,129 177.979165,126.396909 180,128.675055 C180,128.675055 178.145567,126.415453 179.52563,121" id="Fill-25" fill="#FBBE93"></path>
                <path d="M183,112 C183,112 178.151705,118.024876 176.12977,116.444233 C174.107835,114.862774 174.696588,113.601033 174.696588,113.601033 L173.00338,114.133623 C173.00338,114.133623 172.859888,114.995718 174.44265,116.865901 C176.024542,118.736084 176.333268,118.989737 175.88192,120.832189 C175.431442,122.674641 175.463619,124 175.463619,124 L178.036041,122.326378 C178.036041,122.326378 177.081166,122.179569 178.859599,118.863318 C180.637163,115.547883 182.837376,113.471352 183,112" id="Fill-27" fill="#FBBE93"></path>
                <path d="M188.907858,85.3126082 C188.907858,85.3126082 187.593087,85.2122402 187.632572,81.5500708 C187.672897,77.8887448 188.791083,75 188.791083,75 C188.791083,75 186.299318,81.1696842 184.232649,82.4322977 C182.166821,83.6949111 175.32413,84.8048639 171.678056,83.356696 C168.031141,81.9093716 165.900624,79.113404 165.900624,79.113404 C165.900624,79.113404 167.48339,84.9482469 166.018239,86.8282504 C164.553088,88.7074106 135.006443,92.7271939 142.096966,99.6703027 C142.096966,99.6703027 144.749191,103.059201 151.95985,99.0166451 C157.083676,96.1439254 161.840375,95.9372853 168.835126,92.0895615 C175.829876,88.2426811 185.764169,87.3123788 190,86.3238798 L188.907858,85.3126082 Z" id="Fill-29" fill="#FBBE93"></path>
                <path d="M198.330312,101.770832 C198.330312,101.770832 204.243464,98.5496641 203.960347,93 C204.249416,93.4159787 203.429821,100.431004 185,109 C185,109 194.082704,105.889595 198.330312,101.770832" id="Fill-31" fill="#FBBE93"></path>
                <path d="M206.089203,102.167233 C206.089203,102.167233 204.403751,101.858801 203.901851,105.057703 C203.399951,108.257466 202.509759,114.508808 203.339256,116.386106 C204.168753,118.264265 205.60909,119.308453 206.04018,114.868932 C206.472048,110.42855 207.937285,100.601813 206.089203,102.167233" id="Fill-33" fill="#F8BDA6"></path>
                <path d="M194.860038,120.049161 C194.860038,120.049161 192.274654,115.939835 188.569145,119.359705 C184.864518,122.77872 183.324233,125.532259 184.274002,127.949207 C185.22377,130.365299 186.143528,133.429736 190.11296,127.876408 C194.082392,122.323079 195.477034,120.816555 194.860038,120.049161" id="Fill-35" fill="#F8BDA6"></path>
                <path d="M192.261994,123 C192.261994,123 191.617855,122.537915 191.141883,121.616863 C190.665911,120.696591 190,118.458637 190,118.458637 C190,118.458637 191.069811,116.759911 193.99096,119.900995 C194.054022,119.945411 193.819039,120.774514 192.261994,123" id="Fill-37" fill="#FBCEC2"></path>
                <path d="M194.081053,119 C194.081053,119 193.37401,121.237589 191.221803,124.233029 C189.069596,127.229346 186.98041,130.994916 185,129.852 C185,129.852 185.804596,131.08877 186.98041,130.994916 C188.155362,130.901062 190.361093,128.076665 191.339212,126.032047 C192.316468,123.987429 195.46147,120.65429 194.942626,119.323665 L194.081053,119 Z" id="Fill-39" fill="#F8AA92"></path>
                <path d="M205.111999,102.702858 C205.111999,102.702858 207.803784,101.942083 207.127041,106.894483 C206.450299,111.846065 206.42657,116.842639 205,116.928533 C205,116.928533 206.290842,117.601778 206.693281,114.815542 C207.095719,112.030123 208.168257,104.353658 207.977478,103.296753 C207.786699,102.240667 208.273612,101.311376 205.111999,102.702858" id="Fill-41" fill="#F8AA92"></path>
                <path d="M406.821854,129.877257 L382.57456,118.183713 C376.209382,115.15087 370.606275,110.029745 370.606275,110.029745 C359.584471,98.2765352 350.465737,90.029288 350.465737,90.029288 C347.803966,88.3225263 338.687759,78.6525574 338.687759,78.6525574 C335.548536,73.7238734 329.090731,75.2104619 329.090731,75.2104619 C324.528417,75.96258 318.320705,75.96258 318.320705,75.96258 C310.214135,74.7012066 289.567516,76.4684739 289.567516,76.4684739 C281.715249,77.2323569 280.44794,81.6559874 280.44794,81.6559874 L277.789537,86.964512 L289.694668,89.1116199 L317.053396,100.491712 C334.409221,102.128724 338.334933,103.522033 338.334933,103.522033 C337.449921,116.416446 308.189808,99.9832969 308.189808,99.9832969 C302.679327,96.0016933 288.999121,90.3124877 288.999121,90.3124877 C278.357932,85.0964021 273.036074,93.25037 273.036074,93.25037 C268.855216,102.357301 278.677917,110.029745 278.677917,110.029745 L289.505203,116.602164 C293.243135,118.883729 303.152569,122.264478 303.152569,122.264478 C314.934758,127.005763 325.350273,137.023639 325.350273,137.023639 C328.581281,140.624562 332.317528,144.35826 332.317528,144.35826 C342.389481,152.697106 359.364692,153.331575 359.364692,153.331575 C360.377697,153.837469 372.28367,156.364417 372.28367,156.364417 C388.957421,158.754388 409.238584,165.293193 415,169 L406.821854,129.877257 Z" id="Fill-43" fill="#FCD9AD"></path>
                <path d="M407.166071,129.877257 L382.856871,118.183713 C376.475442,115.15087 370.858029,110.029745 370.858029,110.029745 C359.808086,98.2765352 350.66607,90.029288 350.66607,90.029288 C347.997503,88.3225263 338.858021,78.6525574 338.858021,78.6525574 C335.710784,73.7238734 329.236491,75.2104619 329.236491,75.2104619 C324.662529,75.96258 318.438968,75.96258 318.438968,75.96258 C310.311701,74.7012066 289.612368,76.4684739 289.612368,76.4684739 C281.740054,77.2323569 280.469509,81.6559874 280.469509,81.6559874 L277.804319,86.964512 L289.739845,89.1116199 L317.168423,100.491712 C334.568559,102.128724 338.504294,103.522033 338.504294,103.522033 C337.617023,116.416446 308.282205,99.9832969 308.282205,99.9832969 C302.757656,96.0016933 289.042522,90.3124877 289.042522,90.3124877 C278.374164,85.0964021 273.038719,93.25037 273.038719,93.25037 C268.847187,102.357301 278.694967,110.029745 278.694967,110.029745 L289.549896,116.602164 C293.297371,118.883729 303.232105,122.264478 303.232105,122.264478 C315.044376,127.005763 325.486483,137.023639 325.486483,137.023639 C328.72574,140.624562 332.471527,144.35826 332.471527,144.35826 C342.569194,152.697106 359.587745,153.331575 359.587745,153.331575 C360.603337,153.837469 372.539707,156.364417 372.539707,156.364417 C389.256029,158.754388 408.222186,165.293193 414,169 L407.166071,129.877257 Z" id="Fill-45" fill="#E6B17E"></path>
                <path d="M287.095758,115 C287.095758,115 286.715263,121.291793 287.471203,123.54439 L290.037021,132.463242 C290.037021,132.463242 294.437129,140.567432 299.439968,141.631736 C299.439968,141.631736 306.722412,148.326284 309.569392,146.763529 C309.569392,146.763529 313.052776,147.765423 314.320533,142.259168 C314.320533,142.259168 325.8423,147.297762 329.069776,140.723042 C329.069776,140.723042 348.541538,119.78812 287.095758,115" id="Fill-47" fill="#DBA970"></path>
                <path d="M273.211675,94 C273.211675,94 268.556382,102.557772 269.034453,109.718858 C269.034453,109.718858 269.350922,114.298907 270.933267,116.96877 C270.933267,116.96877 272.356536,129.519492 277.483165,130 C277.483165,130 287.361038,129.664998 285.840977,113.727882 L273.211675,94 Z" id="Fill-49" fill="#F3C28A"></path>
                <path d="M276,91.4766255 C276,91.4766255 281.724553,86.9699528 289.007453,90.6318845 L295.308737,93.4474106 C295.308737,93.4474106 305.115671,97.5496063 308.710177,100.615642 C308.710177,100.615642 325.60637,109.62982 333.30086,108.877459 C333.30086,108.877459 343.198327,109.754658 344.710568,106.815126 C344.710568,106.815126 347.23125,101.870686 337.394976,94.9188413 C337.394976,94.9188413 329.293924,81.7117518 320.497107,86.5937725 C320.497107,86.5937725 298.275378,97.2050518 289.669687,85 C289.669687,85 291.465264,90.4412976 283.709579,86.5937725 C283.709579,86.5937725 283.142908,88.1426032 278.745338,87.1605397 L276,91.4766255 Z" id="Fill-51" fill="#E0A76E"></path>
                <path d="M298,94.0513924 C298,94.0513924 305.955303,97.8541613 308.524421,99.8615893 C308.524421,99.8615893 331.329847,112.045082 337,106.598228 C337,106.598228 327.109691,108.269441 328.369539,103.943031 C328.369539,103.943031 333.848705,92.3177047 326.732742,102.770798 C326.732742,102.770798 324.27252,105.550946 321.691675,102.952469 C321.691675,102.952469 319.485266,103.663536 319.927553,100.575122 C319.927553,100.575122 312.697667,104.002218 312.365114,98.4419218 C312.365114,98.4419218 312.05099,96.8931936 314.190386,93 C314.190386,93 309.249001,99.489204 298,94.0513924" id="Fill-53" fill="#D39D66"></path>
                <path d="M278.63318,130 C287.755852,127.003602 285.830344,114.317864 285.830344,114.317864 C278.953528,110.876457 275,106 275,106 C275,106 279.404579,111.961433 281.137878,114.956135 C281.137878,114.956135 284.736033,121.776224 279.241415,128.851452 L278.63318,130 Z" id="Fill-55" fill="#D39D66"></path>
                <path d="M314.222589,143 C314.222589,143 315.676708,135.952603 307.132919,130.984978 C307.132919,130.984978 305.992681,124.945092 304,123 C304,123 307.57555,124.103341 310.237227,126.17966 C310.237227,126.17966 309.749996,128.837866 310.930626,129.816887 C313.272531,131.765432 316.501382,138.711819 314.222589,143" id="Fill-57" fill="#D39D66"></path>
                <path d="M314.632216,93 C314.632216,93 318.075726,104.646168 331,98.4340434 C331,98.4340434 327.912126,109.545907 317.980832,102.858752 L313.349021,101.632357 L312,98.8080565 C312,98.8080565 313.701237,93.7839248 314.632216,93" id="Fill-59" fill="#D39D66"></path>
                <path d="M288.948464,94.275874 C288.858189,94.2060226 288.772884,94.130997 288.667701,94.0749433 L283.973406,91.3860947 C282.525695,90.5573636 280.710259,91.106689 279.912693,92.6132376 L276.370439,99.3198368 C275.574529,100.826385 276.103755,102.720998 277.54981,103.551453 L282.244932,106.235128 C282.498364,106.382592 282.763392,106.470553 283.031732,106.534368 C283.517891,106.722363 288.216326,108.406559 290.78709,103.936067 C290.78709,103.936067 294.49333,98.0875196 288.948464,94.275874" id="Fill-61" fill="#FFEED1"></path>
                <path d="M271,117.369807 C271,117.369807 271.793336,127.09286 276.214359,130 C276.214359,130 278.548581,129.303659 275.170078,118.145045 C275.170078,118.145045 274.973725,116.211239 271,117.369807" id="Fill-63" fill="#FCD9AD"></path>
                <path d="M300,141.768427 C300,141.768427 307.340253,148.426597 309.996069,146.7203 C309.996069,146.7203 310.356602,144.199799 304.171882,140.39536 C304.171882,140.39536 302.62591,138.884987 300,141.768427" id="Fill-65" fill="#FCCA90"></path>
                <path d="M314,142.200651 C314,142.200651 319.575472,144.466156 322.83262,143.912999 C322.83262,143.912999 324.527004,141.161041 317.13386,139.076939 C317.13386,139.076939 314.939658,138.223612 314,142.200651" id="Fill-67" fill="#FCCA90"></path>
                <path d="M311.5216,133 L174.479244,133 C170.365956,133 167,129.648687 167,125.552263 L167,47.447737 C167,43.3513135 170.365956,40 174.479244,40 L311.5216,40 C315.634889,40 319,43.3513135 319,47.447737 L319,125.552263 C319,129.648687 315.634889,133 311.5216,133" id="Fill-69" fill="#3E8EED"></path>
                <path d="M167,87.2182418 L167,126.506356 C167,130.627564 170.447867,134 174.662489,134 L311.337511,134 C315.552133,134 319,130.627564 319,126.506356 L319,87.2182418 C302.649867,81.3498991 277.043778,74.3012885 245.060444,74.0093943 C210.977822,73.6980404 183.802756,81.1882997 167,87.2182418" id="Fill-71" fill="#2464B0"></path>
                <path d="M244.910299,56.6656386 C244.595515,56.8272892 243.887874,57 242.966777,57 C240.348837,57 239,55.3307455 239,53.1203871 C239,50.4735723 240.843023,49 243.135382,49 C244.022425,49 244.696844,49.1846219 245,49.3454217 L244.651993,50.7381687 C244.303156,50.5884292 243.820598,50.4506009 243.213455,50.4506009 C241.853821,50.4506009 240.798173,51.2903329 240.798173,53.0174412 C240.798173,54.570988 241.696844,55.5493991 243.225083,55.5493991 C243.741694,55.5493991 244.314784,55.4345422 244.651993,55.295863 L244.910299,56.6656386 Z" id="Fill-73" fill="#FFFFFF"></path>
                <path d="M247.780134,52.5819726 L248.487656,52.5819726 C249.383387,52.5819726 249.914028,52.1343349 249.914028,51.4393642 C249.914028,50.7086871 249.419111,50.343784 248.593959,50.3315916 C248.157421,50.3315916 247.909962,50.3672981 247.780134,50.3908121 L247.780134,52.5819726 Z M246,49.1654692 C246.577694,49.0705421 247.438571,49 248.393552,49 C249.572466,49 250.397618,49.1767908 250.963114,49.6244285 C251.434505,50.0015241 251.694162,50.5554104 251.694162,51.2860875 C251.694162,52.2989332 250.974441,52.9939038 250.291316,53.2421076 L250.291316,53.2769432 C250.845484,53.500762 251.152193,54.0311343 251.351728,54.7618115 C251.599187,55.6570869 251.847517,56.6934465 252,57 L250.161487,57 C250.031658,56.7761811 249.842579,56.1282386 249.607319,55.1502286 C249.395585,54.160897 249.053151,53.8900501 248.322974,53.8778576 L247.780134,53.8778576 L247.780134,57 L246,57 L246,49.1654692 Z" id="Fill-75" fill="#FFFFFF"></path>
                <polygon id="Fill-77" fill="#FFFFFF" points="257.663057 53.6176793 254.779268 53.6176793 254.779268 55.5172187 258 55.5172187 258 57 253 57 253 49 257.837545 49 257.837545 50.4845361 254.779268 50.4845361 254.779268 52.1454266 257.663057 52.1454266"></polygon>
                <path d="M260.797098,55.5768775 C260.949895,55.6122185 261.196453,55.6122185 261.419571,55.6122185 C263.040432,55.6234242 264.097854,54.7373128 264.097854,52.8599289 C264.109141,51.2273462 263.146348,50.3645081 261.607962,50.3645081 C261.208607,50.3645081 260.949895,50.3998492 260.797098,50.4343282 L260.797098,55.5768775 Z M259,49.1629135 C259.658068,49.0586144 260.515813,49 261.419571,49 C262.92323,49 263.898177,49.2680746 264.661292,49.8395647 C265.483443,50.4463959 266,51.414395 266,52.8013145 C266,54.3063247 265.448716,55.344144 264.684733,55.9854542 C263.851296,56.6733111 262.58291,57 261.03237,57 C260.104304,57 259.447104,56.9413856 259,56.8827713 L259,49.1629135 Z" id="Fill-79" fill="#FFFFFF"></path>
                <mask id="mask-2" fill="white">
                    <use xlink:href="#path-1"></use>
                </mask>
                <g id="Clip-82"></g>
                <polygon id="Fill-81" fill="#FFFFFF" mask="url(#mask-2)" points="267 57 269 57 269 49 267 49"></polygon>
                <polygon id="Fill-83" fill="#FFFFFF" mask="url(#mask-2)" points="271.096747 50.5194649 269 50.5194649 269 49 275 49 275 50.5194649 272.869007 50.5194649 272.869007 57 271.096747 57"></polygon>
                <path d="M283.910299,56.6656386 C283.595515,56.8272892 282.887874,57 281.966777,57 C279.348007,57 278,55.3307455 278,53.1203871 C278,50.4735723 279.843023,49 282.135382,49 C283.022425,49 283.696844,49.1846219 284,49.3454217 L283.651993,50.7381687 C283.303156,50.5884292 282.820598,50.4506009 282.213455,50.4506009 C280.853821,50.4506009 279.798173,51.2903329 279.798173,53.0174412 C279.798173,54.570988 280.696844,55.5493991 282.225083,55.5493991 C282.741694,55.5493991 283.314784,55.4345422 283.651993,55.295863 L283.910299,56.6656386 Z" id="Fill-84" fill="#FFFFFF" mask="url(#mask-2)"></path>
                <path d="M289.290865,53.5934861 L288.812981,51.8959316 C288.676683,51.4213181 288.539543,50.8282706 288.425962,50.3536572 L288.403245,50.3536572 C288.289663,50.8282706 288.17524,51.4336002 288.04988,51.8959316 L287.595553,53.5934861 L289.290865,53.5934861 Z M287.344832,54.946266 L286.797957,57 L285,57 L287.344832,49 L289.621514,49 L292,57 L290.133053,57 L289.541587,54.946266 L287.344832,54.946266 Z" id="Fill-85" fill="#FFFFFF" mask="url(#mask-2)"></path>
                <path d="M294.780134,52.5819726 L295.487656,52.5819726 C296.383387,52.5819726 296.914028,52.1343349 296.914028,51.4393642 C296.914028,50.7086871 296.419111,50.343784 295.593959,50.3315916 C295.157421,50.3315916 294.909962,50.3672981 294.780134,50.3908121 L294.780134,52.5819726 Z M293,49.1654692 C293.577694,49.0705421 294.438571,49 295.393552,49 C296.572466,49 297.397618,49.1767908 297.963114,49.6244285 C298.434505,50.0015241 298.694162,50.5554104 298.694162,51.2860875 C298.694162,52.2989332 297.975312,52.9939038 297.291316,53.2421076 L297.291316,53.2769432 C297.845484,53.500762 298.152193,54.0311343 298.352599,54.7618115 C298.599187,55.6570869 298.847517,56.6934465 299,57 L297.161487,57 C297.031658,56.7761811 296.84345,56.1282386 296.607319,55.1502286 C296.395585,54.160897 296.053151,53.8900501 295.322974,53.8778576 L294.780134,53.8778576 L294.780134,57 L293,57 L293,49.1654692 Z" id="Fill-86" fill="#FFFFFF" mask="url(#mask-2)"></path>
                <path d="M301.797098,55.5768775 C301.949895,55.6122185 302.196453,55.6122185 302.419571,55.6122185 C304.040432,55.6234242 305.097854,54.7373128 305.097854,52.8599289 C305.109141,51.2273462 304.146348,50.3645081 302.607962,50.3645081 C302.208607,50.3645081 301.949895,50.3998492 301.797098,50.4343282 L301.797098,55.5768775 Z M300,49.1629135 C300.658068,49.0586144 301.515813,49 302.419571,49 C303.92323,49 304.898177,49.2680746 305.661292,49.8395647 C306.483443,50.4463959 307,51.414395 307,52.8013145 C307,54.3063247 306.448716,55.344144 305.684733,55.9854542 C304.851296,56.6733111 303.58291,57 302.03237,57 C301.104304,57 300.447104,56.9413856 300,56.8827713 L300,49.1629135 Z" id="Fill-87" fill="#FFFFFF" mask="url(#mask-2)"></path>
                <path d="M199.762936,84 L185.237064,84 C182.906552,84 181,82.0898667 181,79.7549778 L181,69.2450222 C181,66.9101333 182.906552,65 185.237064,65 L199.762936,65 C202.093448,65 204,66.9101333 204,69.2450222 L204,79.7549778 C204,82.0898667 202.093448,84 199.762936,84" id="Fill-88" fill="#B5B09A" mask="url(#mask-2)"></path>
                <path d="M190.547933,74.131056 C189.60774,74.8334849 189,75.9276529 189,77.1602806 C189,79.2802312 190.790677,81 193,81 C195.209323,81 197,79.2802312 197,77.1602806 C197,75.9276529 196.39226,74.8334849 195.452067,74.131056 C196.19613,73.4868814 196.666667,72.5573451 196.666667,71.5197428 C196.666667,69.5762437 195.024626,68 193,68 C190.975374,68 189.333333,69.5762437 189.333333,71.5197428 C189.333333,72.5573451 189.80387,73.4868814 190.547933,74.131056" id="Fill-89" fill="#B5B09A" mask="url(#mask-2)"></path>
                <path d="M193,67.819199 C191.380744,67.819199 190.063855,69.2358912 190.063855,70.9778661 C190.063855,71.8672577 190.417943,72.721553 191.037,73.3216142 L191.374378,73.649465 L191.015516,73.9490676 C190.219017,74.6158973 189.762284,75.6174259 189.762284,76.6968511 C189.762284,78.6177316 191.214442,80.179945 193,80.179945 C194.785558,80.179945 196.237716,78.6177316 196.237716,76.6968511 C196.237716,75.6174259 195.780983,74.6167533 194.984484,73.9490676 L194.625622,73.649465 L194.963,73.3216142 C195.581261,72.721553 195.936145,71.8672577 195.936145,70.9778661 C195.936145,69.2358912 194.619256,67.819199 193,67.819199 M193,81 C190.794311,81 189,79.0697035 189,76.6968511 C189,75.516417 189.442411,74.4113115 190.225383,73.6023846 C189.634175,72.8790584 189.301572,71.9451544 189.301572,70.9778661 C189.301572,68.7847753 190.960613,67 193,67 C195.039387,67 196.697633,68.7847753 196.697633,70.9778661 C196.697633,71.9451544 196.365825,72.8790584 195.774617,73.6023846 C196.557589,74.4113115 197,75.516417 197,76.6968511 C197,79.0697035 195.205689,81 193,81" id="Fill-90" fill="#585856" mask="url(#mask-2)"></path>
                <polygon id="Fill-91" fill="#585856" mask="url(#mask-2)" points="201 81 201.957 81 201.957 67 201 67"></polygon>
                <polygon id="Fill-92" fill="#585856" mask="url(#mask-2)" points="184 81 184.957 81 184.957 67 184 67"></polygon>
                <polygon id="Fill-93" fill="#585856" mask="url(#mask-2)" points="184 70.957 189 70.957 189 70 184 70"></polygon>
                <polygon id="Fill-94" fill="#585856" mask="url(#mask-2)" points="197 70.957 202 70.957 202 70 197 70"></polygon>
                <polygon id="Fill-95" fill="#585856" mask="url(#mask-2)" points="184 78.957 189 78.957 189 78 184 78"></polygon>
                <polygon id="Fill-96" fill="#585856" mask="url(#mask-2)" points="196 78.957 201 78.957 201 78 196 78"></polygon>
                <path d="M182.013608,94.0500876 L183.875506,94.0500876 C184.200074,94.0500876 184.44281,94.0950379 184.685546,94.3018097 C184.969658,94.5363689 185,94.7521308 185,95.0667834 L185,96.9922942 C185,97.2709866 184.969658,97.4687682 184.756344,97.6943374 C184.503494,97.9640397 184.24053,98 183.875506,98 L181.629275,98 C181.365392,98 181.213682,97.9362522 180.960831,97.8373614 L180.576499,97.6845301 C180.30342,97.5774664 180,97.4957385 180,97.1810858 C180,96.9473438 180.222508,96.7307647 180.485473,96.7307647 C180.606841,96.7307647 180.697867,96.7585522 180.809121,96.8035026 L181.112541,96.9203736 C181.254138,96.9743141 181.487679,97.1001751 181.649503,97.1001751 L183.987679,97.1001751 L183.987679,94.9499124 L181.001287,94.9499124 L181.001287,91 L184.49338,91 C184.756344,91 185,91.1258611 185,91.4503211 C185,91.7739638 184.756344,91.8998249 184.49338,91.8998249 L182.013608,91.8998249 L182.013608,94.0500876 Z" id="Fill-97" fill="#D7D7D7" mask="url(#mask-2)"></path>
                <path d="M188.012321,97.1008874 L191.494299,97.1008874 C191.757264,97.1008874 192,97.2267632 192,97.5504437 C192,97.8749416 191.757264,98 191.494299,98 L187,98 L187,95.0672583 C187,94.3921065 187.384332,94.0504437 188.143803,94.0504437 L190.988599,94.0504437 L190.988599,91.8999299 L187.50662,91.8999299 C187.242736,91.8999299 187,91.7740542 187,91.4503737 C187,91.1258758 187.242736,91 187.50662,91 L190.866311,91 C191.200993,91 191.433615,91.0449556 191.686466,91.2517515 C191.969658,91.4855208 192,91.7290986 192,92.0527791 L192,93.8975946 C192,94.2212751 191.969658,94.4640355 191.686466,94.6986221 C191.433615,94.905418 191.200993,94.9503737 190.866311,94.9503737 L188.012321,94.9503737 L188.012321,97.1008874 Z" id="Fill-98" fill="#D7D7D7" mask="url(#mask-2)"></path>
                <path d="M195.023722,94.0504437 L195.975359,94.0504437 L195.975359,91.8999299 L195.023722,91.8999299 L195.023722,94.0504437 Z M194.011401,97.1008874 L196.987679,97.1008874 L196.987679,94.9503737 L194.011401,94.9503737 L194.011401,97.1008874 Z M196.481059,91 C196.825855,91 196.987679,91.215787 196.987679,91.4503737 L196.987679,94.0504437 C197.301214,94.0504437 197.54395,94.1493461 197.726002,94.3021952 C197.908054,94.4550444 198,94.6798225 198,94.9593648 L198,97.1008874 C198,97.6493461 197.614748,98 196.987679,98 L194.011401,98 C193.384332,98 193,97.6493461 193,97.1008874 L193,94.9593648 C193,94.6798225 193.090107,94.4550444 193.273078,94.3021952 C193.455131,94.1493461 193.697867,94.0504437 194.011401,94.0504437 L194.011401,91.4503737 C194.011401,91.215787 194.173225,91 194.518021,91 L196.481059,91 Z" id="Fill-99" fill="#D7D7D7" mask="url(#mask-2)"></path>
                <path d="M201.012321,97.1008874 L203.988599,97.1008874 L203.988599,95.7146193 L201.012321,95.7146193 L201.012321,97.1008874 Z M201.012321,94.8155068 L204.39224,94.8155068 C204.89886,94.8155068 205,95.0043204 205,95.4179122 L205,97.4335591 C205,97.8569594 204.79772,98 204.34167,98 L200.657411,98 C200.182052,98 200,97.8471509 200,97.4335591 L200,91.4503737 C200,91.2435778 200.080912,91 200.434903,91 L201.042663,91 C201.305627,91 201.518021,91.215787 201.518021,91.4503737 C201.518021,91.7201074 201.305627,91.8999299 201.012321,91.8999299 L201.012321,94.8155068 Z" id="Fill-100" fill="#D7D7D7" mask="url(#mask-2)"></path>
                <path d="M214.011392,91.8998249 C214.011392,92.0984238 213.829342,92.3501459 213.505696,92.3501459 C213.182051,92.3501459 213,92.0984238 213,91.8998249 L213,91.4503211 C213,91.2525394 213.182051,91 213.505696,91 L217.999955,91 L217.999955,93.6095738 C217.999955,93.9242265 218.010069,93.9601868 217.72596,94.1759486 L216.309091,95.2645651 C216.046129,95.4721541 216.025902,95.4901343 216.025902,95.8047869 L216.025902,97.5496789 C216.025902,97.8373614 215.884307,98 215.519286,98 C215.155185,98 215.01359,97.8373614 215.01359,97.5496789 L215.01359,95.3814361 C215.01359,95.0847636 215.023704,95.0577933 215.276552,94.8600117 L216.673193,93.7893754 C217.006952,93.5278459 216.987644,93.5376532 216.987644,93.1412726 L216.987644,91.8998249 L214.011392,91.8998249 Z" id="Fill-101" fill="#D7D7D7" mask="url(#mask-2)"></path>
                <path d="M220.505701,91.8998249 C220.242736,91.8998249 220,91.7739638 220,91.4503211 C220,91.1258611 220.242736,91 220.505701,91 L223.987679,91 C224.564178,91 225,91.3873905 225,91.8998249 L225,93.627554 C225,93.987157 224.919088,94.2478692 224.605554,94.5004086 C224.919088,94.7521308 225,95.012843 225,95.3732633 L225,97.1001751 C225,97.6134267 224.564178,98 223.987679,98 L220.505701,98 C220.242736,98 220,97.8741389 220,97.5496789 C220,97.2260362 220.242736,97.1001751 220.505701,97.1001751 L223.987679,97.1001751 L223.987679,95.6070053 C223.987679,95.1027437 223.765171,94.9499124 223.481979,94.9499124 L221.497793,94.9499124 C221.234829,94.9499124 220.991173,94.8240514 220.991173,94.5004086 C220.991173,94.1759486 221.234829,94.0500876 221.497793,94.0500876 L223.481979,94.0500876 C223.765171,94.0500876 223.987679,93.8972563 223.987679,93.3929947 L223.987679,91.8998249 L220.505701,91.8998249 Z" id="Fill-102" fill="#D7D7D7" mask="url(#mask-2)"></path>
                <path d="M229.023722,94.0504437 L229.975359,94.0504437 L229.975359,91.8999299 L229.023722,91.8999299 L229.023722,94.0504437 Z M228.011401,97.1008874 L230.987679,97.1008874 L230.987679,94.9503737 L228.011401,94.9503737 L228.011401,97.1008874 Z M230.481979,91 C230.825855,91 230.987679,91.215787 230.987679,91.4503737 L230.987679,94.0504437 C231.301214,94.0504437 231.54395,94.1493461 231.726002,94.3021952 C231.908974,94.4550444 232,94.6798225 232,94.9593648 L232,97.1008874 C232,97.6493461 231.614748,98 230.987679,98 L228.011401,98 C227.384332,98 227,97.6493461 227,97.1008874 L227,94.9593648 C227,94.6798225 227.091026,94.4550444 227.273078,94.3021952 C227.455131,94.1493461 227.698786,94.0504437 228.011401,94.0504437 L228.011401,91.4503737 C228.011401,91.215787 228.174145,91 228.518021,91 L230.481979,91 Z" id="Fill-103" fill="#D7D7D7" mask="url(#mask-2)"></path>
                <path d="M234.011401,97.1008874 L236.987679,97.1008874 L236.987679,91.8999299 L234.011401,91.8999299 L234.011401,97.1008874 Z M236.987679,91 C237.544869,91 238,91.4046007 238,91.8999299 L238,97.1008874 C238,97.6043905 237.565097,98 236.987679,98 L234.012321,98 C233.434903,98 233,97.6043905 233,97.1008874 L233,91.8999299 C233,91.4046007 233.455131,91 234.012321,91 L236.987679,91 Z" id="Fill-104" fill="#D7D7D7" mask="url(#mask-2)"></path>
                <path d="M248.012321,97.1008874 L251.494299,97.1008874 C251.757264,97.1008874 252,97.2267632 252,97.5504437 C252,97.8749416 251.757264,98 251.494299,98 L247,98 L247,95.0672583 C247,94.3921065 247.385252,94.0504437 248.144722,94.0504437 L250.988599,94.0504437 L250.988599,91.8999299 L247.50662,91.8999299 C247.243656,91.8999299 247,91.7740542 247,91.4503737 C247,91.1258758 247.243656,91 247.50662,91 L250.867231,91 C251.200993,91 251.433615,91.0449556 251.686466,91.2517515 C251.969658,91.4855208 252,91.7290986 252,92.0527791 L252,93.8975946 C252,94.2212751 251.969658,94.4640355 251.686466,94.6986221 C251.433615,94.905418 251.200993,94.9503737 250.867231,94.9503737 L248.012321,94.9503737 L248.012321,97.1008874 Z" id="Fill-105" fill="#D7D7D7" mask="url(#mask-2)"></path>
                <path d="M254.011392,91.8998249 C254.011392,92.0984238 253.829342,92.3501459 253.505696,92.3501459 C253.182051,92.3501459 253,92.0984238 253,91.8998249 L253,91.4503211 C253,91.2525394 253.182051,91 253.505696,91 L257.999955,91 L257.999955,93.6095738 C257.999955,93.9242265 258.010069,93.9601868 257.72596,94.1759486 L256.309091,95.2645651 C256.046129,95.4721541 256.025902,95.4901343 256.025902,95.8047869 L256.025902,97.5496789 C256.025902,97.8373614 255.884307,98 255.519286,98 C255.155185,98 255.01359,97.8373614 255.01359,97.5496789 L255.01359,95.3814361 C255.01359,95.0847636 255.023704,95.0577933 255.276552,94.8600117 L256.673193,93.7893754 C257.007872,93.5278459 256.987644,93.5376532 256.987644,93.1412726 L256.987644,91.8998249 L254.011392,91.8998249 Z" id="Fill-106" fill="#D7D7D7" mask="url(#mask-2)"></path>
                <path d="M261.011401,97.1008874 L263.987679,97.1008874 L263.987679,91.8999299 L261.011401,91.8999299 L261.011401,97.1008874 Z M263.987679,91 C264.544869,91 265,91.4046007 265,91.8999299 L265,97.1008874 C265,97.6043905 264.564178,98 263.987679,98 L261.012321,98 C260.434903,98 260,97.6043905 260,97.1008874 L260,91.8999299 C260,91.4046007 260.455131,91 261.012321,91 L263.987679,91 Z" id="Fill-107" fill="#D7D7D7" mask="url(#mask-2)"></path>
                <path d="M267.505701,91.8998249 C267.242736,91.8998249 267,91.7739638 267,91.4503211 C267,91.1258611 267.242736,91 267.505701,91 L270.987679,91 C271.564178,91 272,91.3873905 272,91.8998249 L272,93.627554 C272,93.987157 271.919088,94.2478692 271.605554,94.5004086 C271.919088,94.7521308 272,95.012843 272,95.3732633 L272,97.1001751 C272,97.6134267 271.564178,98 270.987679,98 L267.505701,98 C267.242736,98 267,97.8741389 267,97.5496789 C267,97.2260362 267.242736,97.1001751 267.505701,97.1001751 L270.987679,97.1001751 L270.987679,95.6070053 C270.987679,95.1027437 270.765171,94.9499124 270.481979,94.9499124 L268.497793,94.9499124 C268.234829,94.9499124 267.991173,94.8240514 267.991173,94.5004086 C267.991173,94.1759486 268.234829,94.0500876 268.497793,94.0500876 L270.481979,94.0500876 C270.765171,94.0500876 270.987679,93.8972563 270.987679,93.3929947 L270.987679,91.8998249 L267.505701,91.8998249 Z" id="Fill-108" fill="#D7D7D7" mask="url(#mask-2)"></path>
                <path d="M281.011401,93.3041803 L283.987679,93.3041803 L283.987679,91.8999299 L281.011401,91.8999299 L281.011401,93.3041803 Z M283.987679,94.2032929 L280.50662,94.2032929 C280.223428,94.2032929 280,93.9875058 280,93.7537366 L280,91.4503737 C280,91.215787 280.223428,91 280.50662,91 L284.494299,91 C284.777492,91 285,91.215787 285,91.4503737 L285,97.5504437 C285,97.7940215 284.79772,98 284.494299,98 L283.987679,98 C283.684259,98 283.481979,97.7940215 283.481979,97.5504437 C283.481979,97.2807099 283.694373,97.1008874 283.987679,97.1008874 L283.987679,94.2032929 Z" id="Fill-109" fill="#D7D7D7" mask="url(#mask-2)"></path>
                <path d="M287.505701,91.8998249 C287.242736,91.8998249 287,91.7739638 287,91.4503211 C287,91.1258611 287.242736,91 287.505701,91 L290.987679,91 C291.564178,91 292,91.3873905 292,91.8998249 L292,93.627554 C292,93.987157 291.919088,94.2478692 291.605554,94.5004086 C291.919088,94.7521308 292,95.012843 292,95.3732633 L292,97.1001751 C292,97.6134267 291.564178,98 290.987679,98 L287.505701,98 C287.242736,98 287,97.8741389 287,97.5496789 C287,97.2260362 287.242736,97.1001751 287.505701,97.1001751 L290.987679,97.1001751 L290.987679,95.6070053 C290.987679,95.1027437 290.765171,94.9499124 290.481979,94.9499124 L288.497793,94.9499124 C288.234829,94.9499124 287.991173,94.8240514 287.991173,94.5004086 C287.991173,94.1759486 288.234829,94.0500876 288.497793,94.0500876 L290.481979,94.0500876 C290.765171,94.0500876 290.987679,93.8972563 290.987679,93.3929947 L290.987679,91.8998249 L287.505701,91.8998249 Z" id="Fill-110" fill="#D7D7D7" mask="url(#mask-2)"></path>
                <path d="M294.011401,97.1008874 L296.987679,97.1008874 L296.987679,91.8999299 L294.011401,91.8999299 L294.011401,97.1008874 Z M296.987679,91 C297.544869,91 298,91.4046007 298,91.8999299 L298,97.1008874 C298,97.6043905 297.565097,98 296.987679,98 L294.012321,98 C293.434903,98 293,97.6043905 293,97.1008874 L293,91.8999299 C293,91.4046007 293.455131,91 294.012321,91 L296.987679,91 Z" id="Fill-111" fill="#D7D7D7" mask="url(#mask-2)"></path>
                <path d="M300.505701,91.8998249 C300.242736,91.8998249 300,91.7739638 300,91.4503211 C300,91.1258611 300.242736,91 300.505701,91 L303.987679,91 C304.564178,91 305,91.3873905 305,91.8998249 L305,93.627554 C305,93.987157 304.919088,94.2478692 304.605554,94.5004086 C304.919088,94.7521308 305,95.012843 305,95.3732633 L305,97.1001751 C305,97.6134267 304.564178,98 303.987679,98 L300.505701,98 C300.242736,98 300,97.8741389 300,97.5496789 C300,97.2260362 300.242736,97.1001751 300.505701,97.1001751 L303.987679,97.1001751 L303.987679,95.6070053 C303.987679,95.1027437 303.765171,94.9499124 303.481979,94.9499124 L301.497793,94.9499124 C301.234829,94.9499124 300.991173,94.8240514 300.991173,94.5004086 C300.991173,94.1759486 301.234829,94.0500876 301.497793,94.0500876 L303.481979,94.0500876 C303.765171,94.0500876 303.987679,93.8972563 303.987679,93.3929947 L303.987679,91.8998249 L300.505701,91.8998249 Z" id="Fill-112" fill="#D7D7D7" mask="url(#mask-2)"></path>
                <path d="M176.633565,124 C176.178086,124 175.917296,123.845888 175.722608,123.511597 L175.1639,122.554725 C175.06067,122.379912 175,122.215833 175,122.014951 C175,121.788767 175.048898,121.650757 175.170238,121.444508 L175.728947,120.493004 C175.935406,120.138777 176.196197,120 176.663447,120 L177.695744,120 C177.829762,120 178,120.061338 178,120.256853 C178,120.4424 177.8361,120.514472 177.695744,120.514472 L176.682463,120.514472 C176.420767,120.514472 176.378207,120.534407 176.263206,120.729921 L175.73438,121.624689 C175.655599,121.763466 175.607606,121.855472 175.607606,122.014951 C175.607606,122.159095 175.661938,122.246502 175.73438,122.369944 L176.250528,123.259344 C176.372774,123.470194 176.433444,123.485528 176.706007,123.485528 L177.695744,123.485528 C177.829762,123.485528 178,123.547633 178,123.743147 C178,123.927928 177.8361,124 177.695744,124 L176.633565,124 Z" id="Fill-113" fill="#D7D7D7" mask="url(#mask-2)"></path>
                <path d="M180.512221,121.218858 L180.500453,121.218858 L180.027015,122.611729 L180.979322,122.611729 L180.512221,121.218858 Z M180.196294,120.262936 C180.245176,120.124186 180.312164,120 180.505884,120 C180.706846,120 180.779265,120.128785 180.821811,120.262936 L181.993185,123.743197 C182.035731,123.865849 181.871883,124 181.701699,124 C181.514316,124 181.41655,123.865849 181.374004,123.743197 L181.149506,123.126102 L179.856831,123.126102 L179.625996,123.743197 C179.58345,123.865849 179.48659,124 179.298301,124 C179.128117,124 178.964269,123.865849 179.006815,123.743197 L180.196294,120.262936 Z" id="Fill-114" fill="#D7D7D7" mask="url(#mask-2)"></path>
                <path d="M183.606884,121.316213 L184.955616,121.316213 C185.125,121.316213 185.393116,121.306248 185.393116,121.100805 L185.393116,120.74588 C185.393116,120.53967 185.144022,120.514373 184.961957,120.514373 L183.606884,120.514373 L183.606884,121.316213 Z M183.606884,123.74243 C183.606884,123.907244 183.521739,124 183.303442,124 C183.084239,124 183,123.907244 183,123.74243 L183,120 L185.040761,120 C185.519928,120 186,120.288233 186,120.74588 L186,121.100805 C186,121.583749 185.526268,121.830586 185.040761,121.830586 L184.481884,121.830586 L185.847826,123.485627 C185.914855,123.563051 186,123.660406 186,123.758528 C186,123.901878 185.860507,124 185.690217,124 C185.568841,124 185.490036,123.937907 185.423007,123.855883 L183.746377,121.830586 L183.606884,121.830586 L183.606884,123.74243 Z" id="Fill-115" fill="#D7D7D7" mask="url(#mask-2)"></path>
                <path d="M188.202535,123.485528 L188.317537,123.485528 C188.572895,123.485528 188.633565,123.460226 188.743133,123.270079 L189.277392,122.35461 C189.344401,122.236534 189.392394,122.149128 189.392394,122.020318 C189.392394,121.845505 189.32629,121.748131 189.241171,121.59862 L188.736794,120.729921 C188.609116,120.508338 188.554784,120.513705 188.274977,120.513705 L188.202535,120.513705 L188.202535,123.485528 Z M187.594929,120.513705 L187.370359,120.513705 C187.170238,120.513705 187,120.452367 187,120.256853 C187,120.071305 187.1639,120 187.352249,120 L188.366435,120 C188.840024,120 189.077271,120.164079 189.283731,120.513705 L189.81799,121.41844 C189.93933,121.629289 190,121.7788 190,122.014951 C190,122.2212 189.932991,122.396013 189.823423,122.580794 L189.271053,123.516197 C189.059161,123.881924 188.785693,124 188.312104,124 L187.30335,124 C187.145789,124 187,123.927928 187,123.743147 C187,123.5576 187.145789,123.485528 187.30335,123.485528 L187.594929,123.485528 L187.594929,120.513705 Z" id="Fill-116" fill="#D7D7D7" mask="url(#mask-2)"></path>
                <path d="M195.606884,122.257236 L195.606884,123.743147 C195.606884,123.907993 195.521739,124 195.303442,124 C195.084239,124 195,123.907993 195,123.743147 L195,120.257619 C195,120.092774 195.084239,120 195.303442,120 C195.521739,120 195.606884,120.092774 195.606884,120.257619 L195.606884,121.743531 L197.393116,121.743531 L197.393116,120.257619 C197.393116,120.092774 197.477355,120 197.696558,120 C197.914855,120 198,120.092774 198,120.257619 L198,123.743147 C198,123.907993 197.914855,124 197.696558,124 C197.477355,124 197.393116,123.907993 197.393116,123.743147 L197.393116,122.257236 L195.606884,122.257236 Z" id="Fill-117" fill="#D7D7D7" mask="url(#mask-2)"></path>
                <path d="M201.706522,120.668583 C201.657609,120.586544 201.627717,120.514472 201.5,120.514472 C201.372283,120.514472 201.342391,120.586544 201.293478,120.668583 L200.746377,121.599387 C200.655797,121.748131 200.606884,121.846272 200.606884,122.015718 C200.606884,122.149128 200.644022,122.241901 200.710145,122.355377 L201.293478,123.332183 C201.336051,123.404255 201.378623,123.486295 201.5,123.486295 C201.621377,123.486295 201.663949,123.404255 201.706522,123.332183 L202.289855,122.355377 C202.355978,122.241901 202.393116,122.149128 202.393116,122.015718 C202.393116,121.846272 202.344203,121.748131 202.253623,121.599387 L201.706522,120.668583 Z M202.842391,121.445275 C202.957428,121.64539 203,121.794135 203,122.015718 C203,122.262603 202.921196,122.416715 202.799819,122.627564 L202.240942,123.573701 C202.095109,123.820587 201.852355,124 201.5,124 C201.147645,124 200.904891,123.820587 200.759058,123.573701 L200.200181,122.627564 C200.078804,122.416715 200,122.262603 200,122.015718 C200,121.794135 200.041667,121.64539 200.157609,121.445275 L200.765399,120.421698 C200.911232,120.18018 201.15942,120 201.5,120 C201.839674,120 202.088768,120.18018 202.234601,120.421698 L202.842391,121.445275 Z" id="Fill-118" fill="#D7D7D7" mask="url(#mask-2)"></path>
                <path d="M206.696558,123.485528 C206.854167,123.485528 207,123.5576 207,123.743147 C207,123.927928 206.854167,124 206.696558,124 L204,124 L204,120.256853 C204,120.092774 204.084239,120 204.303442,120 C204.521739,120 204.606884,120.092774 204.606884,120.256853 L204.606884,123.485528 L206.696558,123.485528 Z" id="Fill-119" fill="#D7D7D7" mask="url(#mask-2)"></path>
                <path d="M209.202535,123.485528 L209.317537,123.485528 C209.572895,123.485528 209.633565,123.460226 209.743133,123.270079 L210.277392,122.35461 C210.344401,122.236534 210.392394,122.149128 210.392394,122.020318 C210.392394,121.845505 210.325385,121.748131 210.241171,121.59862 L209.736794,120.729921 C209.609116,120.508338 209.554784,120.513705 209.274977,120.513705 L209.202535,120.513705 L209.202535,123.485528 Z M208.594929,120.513705 L208.370359,120.513705 C208.170238,120.513705 208,120.452367 208,120.256853 C208,120.071305 208.1639,120 208.352249,120 L209.366435,120 C209.840024,120 210.076366,120.164079 210.283731,120.513705 L210.81799,121.41844 C210.93933,121.629289 211,121.7788 211,122.014951 C211,122.2212 210.932991,122.396013 210.824328,122.580794 L210.271053,123.516197 C210.058255,123.881924 209.785693,124 209.312104,124 L208.30335,124 C208.145789,124 208,123.927928 208,123.743147 C208,123.5576 208.145789,123.485528 208.30335,123.485528 L208.594929,123.485528 L208.594929,120.513705 Z" id="Fill-120" fill="#D7D7D7" mask="url(#mask-2)"></path>
                <path d="M214.695744,123.485528 C214.853305,123.485528 215,123.5576 215,123.743147 C215,123.927928 214.853305,124 214.695744,124 L212,124 L212,120 L214.695744,120 C214.853305,120 215,120.071305 215,120.256853 C215,120.441633 214.853305,120.513705 214.695744,120.513705 L212.606701,120.513705 L212.606701,121.742764 L213.499547,121.742764 C213.658014,121.742764 213.802898,121.814836 213.802898,121.999617 C213.802898,122.184397 213.658014,122.256469 213.499547,122.256469 L212.606701,122.256469 L212.606701,123.485528 L214.695744,123.485528 Z" id="Fill-121" fill="#D7D7D7" mask="url(#mask-2)"></path>
                <path d="M216.606884,121.316213 L217.955616,121.316213 C218.125,121.316213 218.39221,121.306248 218.39221,121.100805 L218.39221,120.74588 C218.39221,120.53967 218.144022,120.514373 217.961957,120.514373 L216.606884,120.514373 L216.606884,121.316213 Z M216.606884,123.74243 C216.606884,123.907244 216.521739,124 216.303442,124 C216.085145,124 216,123.907244 216,123.74243 L216,120 L218.040761,120 C218.520833,120 219,120.288233 219,120.74588 L219,121.100805 C219,121.583749 218.526268,121.830586 218.040761,121.830586 L217.481884,121.830586 L218.848732,123.485627 C218.914855,123.563051 219,123.660406 219,123.758528 C219,123.901878 218.860507,124 218.690217,124 C218.568841,124 218.490036,123.937907 218.423007,123.855883 L216.746377,121.830586 L216.606884,121.830586 L216.606884,123.74243 Z" id="Fill-122" fill="#D7D7D7" mask="url(#mask-2)"></path>
                <path d="M214.606701,114.486295 L216.392394,114.486295 L216.392394,111.514472 L214.606701,111.514472 L214.606701,114.486295 Z M216.392394,111 C216.726532,111 217,111.231551 217,111.514472 L217,114.486295 C217,114.773816 216.738304,115 216.392394,115 L214.607606,115 C214.260791,115 214,114.773816 214,114.486295 L214,111.514472 C214,111.231551 214.273468,111 214.607606,111 L216.392394,111 Z" id="Fill-123" fill="#D7D7D7" mask="url(#mask-2)"></path>
                <path d="M218.607606,114.486295 L220.393299,114.486295 L220.393299,113.694269 L218.607606,113.694269 L218.607606,114.486295 Z M218.607606,113.180564 L220.635074,113.180564 C220.93933,113.180564 221,113.287905 221,113.524823 L221,114.676442 C221,114.917961 220.87866,115 220.605192,115 L218.394808,115 C218.109568,115 218,114.912593 218,114.676442 L218,111.256853 C218,111.138777 218.048898,111 218.260791,111 L218.625717,111 C218.783278,111 218.910957,111.123443 218.910957,111.256853 C218.910957,111.411731 218.783278,111.514472 218.607606,111.514472 L218.607606,113.180564 Z" id="Fill-124" fill="#D7D7D7" mask="url(#mask-2)"></path>
                <path d="M222.601268,114.81982 C222.52792,114.927928 222.455478,115 222.30335,115 C222.152128,115 222,114.891892 222,114.758482 C222,114.660341 222.073347,114.572935 222.134018,114.490895 L224.405071,111.195515 C224.477513,111.092007 224.549955,111 224.702083,111 C224.859644,111 225,111.108108 225,111.241518 C225,111.323558 224.969212,111.385662 224.932991,111.441633 L222.601268,114.81982 Z" id="Fill-125" fill="#D7D7D7" mask="url(#mask-2)"></path>
                <path d="M229.393116,114.486196 L229.393116,113.447086 C229.393116,113.298313 229.47192,113.190184 229.696558,113.190184 C229.921196,113.190184 230,113.298313 230,113.447086 L230,114.743098 C230,114.927914 229.855072,115 229.696558,115 L227.303442,115 C227.145833,115 227,114.927914 227,114.743098 C227,114.558282 227.145833,114.486196 227.303442,114.486196 L228.196558,114.486196 L228.196558,111.513804 L227.303442,111.513804 C227.145833,111.513804 227,111.441718 227,111.256902 C227,111.072086 227.145833,111 227.303442,111 L228.803442,111 L228.803442,114.486196 L229.393116,114.486196 Z" id="Fill-126" fill="#D7D7D7" mask="url(#mask-2)"></path>
                <path d="M231.606878,111.513804 C231.606878,111.627301 231.497278,111.770706 231.303439,111.770706 C231.108695,111.770706 231,111.627301 231,111.513804 L231,111.256902 C231,111.143405 231.108695,111 231.303439,111 L233.99997,111 L233.99997,112.490798 C233.99997,112.671012 234.00631,112.691718 233.836022,112.815184 L232.985487,113.437117 C232.82788,113.555215 232.815199,113.565951 232.815199,113.745399 L232.815199,114.743098 C232.815199,114.907975 232.730961,115 232.51176,115 C232.293465,115 232.208321,114.907975 232.208321,114.743098 L232.208321,113.503834 C232.208321,113.334356 232.214662,113.319018 232.365928,113.205521 L233.204688,112.593558 C233.404867,112.444785 233.393092,112.450153 233.393092,112.223926 L233.393092,111.513804 L231.606878,111.513804 Z" id="Fill-127" fill="#D7D7D7" mask="url(#mask-2)"></path>
                <path d="M248.607606,114.486295 L250.392394,114.486295 L250.392394,111.514472 L248.607606,111.514472 L248.607606,114.486295 Z M250.392394,111 C250.726532,111 251,111.231551 251,111.514472 L251,114.486295 C251,114.773816 250.738304,115 250.392394,115 L248.607606,115 C248.261696,115 248,114.773816 248,114.486295 L248,111.514472 C248,111.231551 248.273468,111 248.607606,111 L250.392394,111 Z" id="Fill-128" fill="#D7D7D7" mask="url(#mask-2)"></path>
                <path d="M252.607606,114.486295 L254.392394,114.486295 L254.392394,113.694269 L252.607606,113.694269 L252.607606,114.486295 Z M252.607606,113.180564 L254.635979,113.180564 C254.93933,113.180564 255,113.287905 255,113.524823 L255,114.676442 C255,114.917961 254.87866,115 254.605192,115 L252.394808,115 C252.109568,115 252,114.912593 252,114.676442 L252,111.256853 C252,111.138777 252.048898,111 252.261696,111 L252.625717,111 C252.783278,111 252.910957,111.123443 252.910957,111.256853 C252.910957,111.411731 252.783278,111.514472 252.607606,111.514472 L252.607606,113.180564 Z" id="Fill-129" fill="#D7D7D7" mask="url(#mask-2)"></path>
                <path d="M257.601268,114.81982 C257.528826,114.927928 257.455478,115 257.30335,115 C257.152128,115 257,114.891892 257,114.758482 C257,114.660341 257.073347,114.572935 257.133112,114.490895 L259.405071,111.195515 C259.477513,111.092007 259.549955,111 259.702083,111 C259.860549,111 260,111.108108 260,111.241518 C260,111.323558 259.969212,111.385662 259.932991,111.441633 L257.601268,114.81982 Z" id="Fill-130" fill="#D7D7D7" mask="url(#mask-2)"></path>
                <path d="M261.606884,114.486196 L263.696558,114.486196 C263.854167,114.486196 264,114.558282 264,114.743098 C264,114.927914 263.854167,115 263.696558,115 L261,115 L261,113.32362 C261,112.937883 261.230072,112.743098 261.685688,112.743098 L263.39221,112.743098 L263.39221,111.513804 L261.303442,111.513804 C261.144928,111.513804 261,111.441718 261,111.256902 C261,111.072086 261.144928,111 261.303442,111 L263.319746,111 C263.519928,111 263.65942,111.025307 263.811594,111.143405 C263.981884,111.27684 264,111.416411 264,111.601227 L264,112.655675 C264,112.840491 263.981884,112.979294 263.811594,113.11273 C263.65942,113.231595 263.519928,113.256902 263.319746,113.256902 L261.606884,113.256902 L261.606884,114.486196 Z" id="Fill-131" fill="#D7D7D7" mask="url(#mask-2)"></path>
                <path d="M265.60779,114.486295 L267.393116,114.486295 L267.393116,111.514472 L265.60779,111.514472 L265.60779,114.486295 Z M267.393116,111 C267.726449,111 268,111.231551 268,111.514472 L268,114.486295 C268,114.773816 267.73913,115 267.393116,115 L265.606884,115 C265.26087,115 265,114.773816 265,114.486295 L265,111.514472 C265,111.231551 265.272645,111 265.606884,111 L267.393116,111 Z" id="Fill-132" fill="#D7D7D7" mask="url(#mask-2)"></path>
                <path d="M214.270813,109 L213,106 L213.469856,106 L214.322488,108.179749 C214.391388,108.353954 214.447847,108.517654 214.494737,108.670849 C214.545455,108.507149 214.603828,108.343449 214.670813,108.179749 L215.556938,106 L216,106 L214.715789,109 L214.270813,109 Z" id="Fill-133" fill="#D7D7D7" mask="url(#mask-2)"></path>
                <path d="M216.925164,107.76831 L218.012161,107.76831 L217.677268,106.937555 C217.575304,106.685439 217.499532,106.477094 217.449953,106.315144 C217.408793,106.507733 217.351731,106.69857 217.276894,106.888532 L216.925164,107.76831 Z M216,109 L217.231057,106 L217.688494,106 L219,109 L218.517306,109 L218.143124,108.091334 L216.802619,108.091334 L216.450889,109 L216,109 Z" id="Fill-134" fill="#D7D7D7" mask="url(#mask-2)"></path>
                <polygon id="Fill-135" fill="#D7D7D7" mask="url(#mask-2)" points="219 109 219 106 219.423167 106 219.423167 108.646338 221 108.646338 221 109"></polygon>
                <polygon id="Fill-136" fill="#D7D7D7" mask="url(#mask-2)" points="221 109 221.453 109 221.453 106 221 106"></polygon>
                <path d="M222.319802,108.646235 L222.836569,108.646235 C222.996117,108.646235 223.121073,108.627846 223.211437,108.591068 C223.302506,108.554291 223.374515,108.501751 223.428874,108.435201 C223.504412,108.341506 223.563713,108.214536 223.606071,108.055166 C223.648429,107.896673 223.669608,107.704028 223.669608,107.477233 C223.669608,107.163748 223.627956,106.922067 223.545358,106.75394 C223.462054,106.585814 223.361101,106.472855 223.242499,106.415061 C223.156371,106.373905 223.018002,106.353765 222.828097,106.353765 L222.319802,106.353765 L222.319802,108.646235 Z M222,109 L222,106 L222.833039,106 C223.020826,106 223.164843,106.014011 223.263678,106.042907 C223.402047,106.082312 223.520649,106.15324 223.618779,106.257443 C223.745852,106.391419 223.841864,106.562172 223.904695,106.769702 C223.968232,106.978109 224,107.216287 224,107.483363 C224,107.711033 223.978115,107.91331 223.935051,108.089317 C223.892693,108.265324 223.837628,108.411559 223.770561,108.52627 C223.703495,108.641856 223.630074,108.732925 223.5503,108.798599 C223.470526,108.865149 223.373809,108.915061 223.26156,108.949212 C223.148606,108.983363 223.018708,109 222.872573,109 L222,109 Z" id="Fill-137" fill="#D7D7D7" mask="url(#mask-2)"></path>
                <polygon id="Fill-138" fill="#D7D7D7" mask="url(#mask-2)" points="226 109 226 106 228 106 228 106.354537 226.391869 106.354537 226.391869 107.283338 227.783737 107.283338 227.783737 107.637 226.391869 107.637 226.391869 109"></polygon>
                <path d="M229.45,107.323993 L230.418543,107.323993 C230.624172,107.323993 230.785099,107.305604 230.901325,107.267075 C231.01755,107.230298 231.10596,107.169877 231.165563,107.087566 C231.226159,107.005254 231.256954,106.915061 231.256954,106.818739 C231.256954,106.676007 231.198344,106.559545 231.081126,106.468476 C230.964901,106.376532 230.780132,106.330998 230.527815,106.330998 L229.45,106.330998 L229.45,107.323993 Z M229,109 L229,106 L230.50894,106 C230.811921,106 231.043377,106.02627 231.201325,106.08056 C231.358278,106.133975 231.484437,106.229422 231.579801,106.366025 C231.674172,106.502627 231.720861,106.65324 231.720861,106.818739 C231.720861,107.031524 231.642384,107.210158 231.486424,107.356392 C231.330464,107.502627 231.089073,107.595447 230.762252,107.634851 C230.881457,107.685639 230.971854,107.735552 231.033444,107.784588 C231.165563,107.890543 231.289735,108.023643 231.407947,108.183888 L232,109 L231.432781,109 L230.982781,108.375657 C230.850662,108.196147 230.742384,108.057793 230.657947,107.962347 C230.572517,107.8669 230.496026,107.80035 230.428477,107.761821 C230.360927,107.723292 230.293377,107.697023 230.222848,107.682137 C230.172185,107.672504 230.088742,107.668126 229.972517,107.668126 L229.45,107.668126 L229.45,109 L229,109 Z" id="Fill-139" fill="#D7D7D7" mask="url(#mask-2)"></path>
                <path d="M231.427525,107.544839 C231.427525,107.894247 231.529143,108.169205 231.732377,108.370558 C231.935612,108.571912 232.191028,108.671743 232.497711,108.671743 C232.809887,108.671743 233.067135,108.57022 233.268538,108.367174 C233.470857,108.164129 233.571559,107.876481 233.571559,107.503384 C233.571559,107.267343 233.528532,107.060914 233.442478,106.884941 C233.356424,106.708968 233.230088,106.572758 233.063473,106.475465 C232.896857,106.379019 232.711016,106.330795 232.50412,106.330795 C232.210253,106.330795 231.957583,106.423858 231.745194,106.609983 C231.53372,106.796954 231.427525,107.108291 231.427525,107.544839 M231,107.538917 C231,107.05753 231.139152,106.681049 231.419286,106.408629 C231.698505,106.13621 232.0592,106 232.501373,106 C232.791578,106 233.052487,106.064298 233.285017,106.192047 C233.517547,106.319797 233.695148,106.498308 233.816906,106.726734 C233.938663,106.956007 234,107.21489 234,107.505076 C234,107.799492 233.935917,108.06176 233.806836,108.294416 C233.67867,108.526227 233.496491,108.7022 233.261215,108.821489 C233.025938,108.940778 232.772353,109 232.499542,109 C232.20476,109 231.940189,108.93401 231.707659,108.802876 C231.47513,108.670897 231.299359,108.490694 231.179432,108.263113 C231.059506,108.034687 231,107.79357 231,107.538917" id="Fill-140" fill="#D7D7D7" mask="url(#mask-2)"></path>
                <path d="M235,109 L235,106 L235.626606,106 L236.370642,108.124599 C236.438532,108.321564 236.488991,108.470382 236.520183,108.568427 C236.555963,108.459002 236.611927,108.298804 236.688073,108.086957 L237.440367,106 L238,106 L238,109 L237.599083,109 L237.599083,106.489349 L236.685321,109 L236.310092,109 L235.400917,106.446455 L235.400917,109 L235,109 Z" id="Fill-141" fill="#D7D7D7" mask="url(#mask-2)"></path>
                <path d="M249.663822,106 L250,106 L250,107.704448 C250,108.000574 249.971058,108.235581 249.913915,108.41033 C249.85603,108.585079 249.751391,108.727116 249.6,108.835581 C249.449351,108.945768 249.251206,109 249.006308,109 C248.768089,109 248.572913,108.952654 248.421521,108.857102 C248.27013,108.761549 248.161781,108.624677 248.097217,108.443902 C248.032653,108.263128 248,108.01693 248,107.704448 L248,106 L248.33692,106 L248.33692,107.702726 C248.33692,107.958393 248.356957,108.147776 248.398516,108.268293 C248.439332,108.390531 248.509833,108.483501 248.610019,108.549785 C248.710204,108.615208 248.831911,108.64792 248.976623,108.64792 C249.22449,108.64792 249.400371,108.582496 249.505751,108.452511 C249.611132,108.322525 249.663822,108.072884 249.663822,107.702726 L249.663822,106 Z" id="Fill-142" fill="#D7D7D7" mask="url(#mask-2)"></path>
                <polygon id="Fill-143" fill="#D7D7D7" mask="url(#mask-2)" points="251 109 251 106 251.344444 106 252.677778 108.355705 252.677778 106 253 106 253 109 252.655556 109 251.322222 106.642544 251.322222 109"></polygon>
                <polygon id="Fill-144" fill="#D7D7D7" mask="url(#mask-2)" points="254.83137 109 254.83137 106.354537 254 106.354537 254 106 256 106 256 106.354537 255.164948 106.354537 255.164948 109"></polygon>
                <polygon id="Fill-145" fill="#D7D7D7" mask="url(#mask-2)" points="257 109 257.453 109 257.453 106 257 106"></polygon>
                <polygon id="Fill-146" fill="#D7D7D7" mask="url(#mask-2)" points="258 109 258 106 258.423167 106 258.423167 108.646338 260 108.646338 260 109"></polygon>
                <polygon id="Fill-147" fill="#D7D7D7" mask="url(#mask-2)" points="261 109 261 106 262.938209 106 262.938209 106.354537 261.354321 106.354537 261.354321 107.272833 262.837309 107.272833 262.837309 107.624745 261.354321 107.624745 261.354321 108.646338 263 108.646338 263 109"></polygon>
                <polygon id="Fill-148" fill="#D7D7D7" mask="url(#mask-2)" points="263 109 263 106 263.344444 106 264.677778 108.355705 264.677778 106 265 106 265 109 264.655556 109 263.322222 106.642544 263.322222 109"></polygon>
                <path d="M266.319802,108.646235 L266.836569,108.646235 C266.995411,108.646235 267.121073,108.627846 267.211437,108.591068 C267.302506,108.554291 267.374515,108.501751 267.428874,108.435201 C267.504412,108.341506 267.563713,108.214536 267.606071,108.055166 C267.648429,107.896673 267.669608,107.704028 267.669608,107.477233 C267.669608,107.163748 267.627956,106.922067 267.544652,106.75394 C267.462054,106.585814 267.361101,106.472855 267.242499,106.415061 C267.156371,106.373905 267.018002,106.353765 266.828097,106.353765 L266.319802,106.353765 L266.319802,108.646235 Z M266,109 L266,106 L266.833039,106 C267.020826,106 267.164843,106.014011 267.263678,106.042907 C267.402047,106.082312 267.520649,106.15324 267.618779,106.257443 C267.745852,106.391419 267.841864,106.562172 267.904695,106.769702 C267.968232,106.978109 268,107.216287 268,107.483363 C268,107.711033 267.978115,107.91331 267.935051,108.089317 C267.892693,108.265324 267.837628,108.411559 267.770561,108.52627 C267.702789,108.641856 267.630074,108.732925 267.549594,108.798599 C267.470526,108.865149 267.373809,108.915061 267.260854,108.949212 C267.148606,108.983363 267.018708,109 266.872573,109 L266,109 Z" id="Fill-149" fill="#D7D7D7" mask="url(#mask-2)"></path>
                <path d="M212.207561,74.0087833 C212.207561,75.7052156 211,75.7403488 211,76.3610356 C211,76.7065122 211.306215,76.9859049 211.684227,76.9859049 C211.86588,76.9859049 212.184205,76.8428625 212.184205,76.8428625 C213.041435,76.1452173 213.59591,75.1355556 213.59591,74.0087833 C213.59591,72.8945585 213.053545,71.8656573 212.1868,71.154628 C212.1868,71.154628 211.59513,70.6928772 211.160028,71.2449705 C210.832187,71.6607135 211.196358,72.0538709 211.398772,72.2496131 C211.878855,72.7130369 212.207561,73.3278682 212.207561,74.0087833 L212.207561,74.0087833 Z M215.708276,74.0087833 C215.708276,75.6382952 214.968688,77.0929775 213.790538,78.1319169 L213.800053,78.1386089 C213.713552,78.243172 213.662516,78.3736668 213.662516,78.5141997 C213.662516,78.8588398 213.969596,79.139069 214.347608,79.139069 C214.533586,79.139069 214.702264,79.0713121 214.825961,78.9617299 L214.832881,78.9675854 C216.22815,77.6986072 217.096625,75.9427831 217.096625,73.9912167 C217.096625,72.0496884 216.22815,70.2980468 214.833746,69.0307416 L214.825096,69.0382701 C214.701399,68.9286879 214.533586,68.860931 214.347608,68.860931 C213.969596,68.860931 213.662516,69.1411602 213.662516,69.4866368 C213.662516,69.6271697 213.713552,69.756828 213.799188,69.8605546 L213.793133,69.8664101 C214.979069,70.917897 215.708276,72.390146 215.708276,74.0087833 L215.708276,74.0087833 Z M216.812035,67.613702 C219.786821,70.4904429 219.588733,73.9644485 219.588733,73.9644485 C219.588733,77.0017985 218.148483,79.0721486 216.80079,80.3946631 C216.650277,80.5092643 216.554261,80.6824208 216.554261,80.874817 C216.554261,81.2202936 216.861341,81.4996863 217.239353,81.4996863 C217.437441,81.4996863 217.615634,81.4235643 217.741061,81.3005981 C217.741061,81.3005981 220.977082,78.5811201 220.977082,74.0171484 C220.977082,69.3486135 217.740196,66.6994019 217.740196,66.6994019 C217.615634,66.5764357 217.437441,66.5003137 217.239353,66.5003137 C216.861341,66.5003137 216.554261,66.7797064 216.554261,67.125183 C216.554261,67.3225982 216.654602,67.4991008 216.812035,67.613702 L216.812035,67.613702 Z M219.744436,65.0908026 C223.636138,68.778117 223.602402,73.4098457 223.602402,74.0004183 C223.602402,74.0004183 223.985604,78.7149609 219.747896,82.9117069 C219.620739,83.0371827 219.522127,83.1910996 219.522127,83.3751307 C219.522127,83.7206073 219.828342,84 220.207219,84 C220.439908,84 220.778994,83.7390104 220.778994,83.7390104 C225.385198,79.221883 224.991616,74.0004183 224.991616,74.0004183 C224.991616,68.0152244 220.812729,64.2685181 220.812729,64.2685181 C220.689032,64.1062361 220.439908,64 220.207219,64 C219.828342,64 219.522127,64.2802292 219.522127,64.6248693 C219.522127,64.8089004 219.608628,64.9745284 219.747031,65.0882931 L219.744436,65.0908026 Z" id="Fill-150" fill="#FFFFFF" mask="url(#mask-2)"></path>
                <polygon id="Fill-151" fill="#FFFFFF" mask="url(#mask-2)" points="293.46085 126 291 126 292.53915 116 295 116"></polygon>
                <path d="M303,116.412081 C302.473661,116.21597 301.63963,116 300.608111,116 C297.974653,116 296.119683,117.318163 296.108221,119.202317 C296.087062,120.59247 297.435971,121.365329 298.445449,121.828713 C299.477849,122.302027 299.82786,122.611502 299.82786,123.033513 C299.818162,123.682251 298.99471,123.980968 298.226802,123.980968 C297.161781,123.980968 296.59136,123.827058 295.724708,123.466281 L295.373815,123.311543 L295,125.484485 C295.625964,125.751758 296.778268,125.989243 297.974653,126 C300.772978,126 302.594446,124.701696 302.615605,122.694249 C302.627066,121.592056 301.91382,120.748035 300.377121,120.057923 C299.444346,119.614398 298.873926,119.315681 298.873926,118.863053 C298.884505,118.450972 299.357064,118.028962 300.409742,118.028962 C301.276394,118.008275 301.91382,118.203558 302.396077,118.399669 L302.637646,118.502276 L303,116.412081 Z" id="Fill-152" fill="#FFFFFF" mask="url(#mask-2)"></path>
                <path d="M308.976783,116 L307.036484,116 C306.43864,116 305.984245,116.180373 305.725539,116.830056 L302,126 L304.631841,126 C304.631841,126 305.065506,124.765601 305.158375,124.499744 L308.378939,124.499744 C308.451078,124.851086 308.678275,126 308.678275,126 L311,126 L308.976783,116 Z M305.880597,122.457514 C306.087065,121.883057 306.882255,119.6596 306.882255,119.6596 C306.871476,119.680971 307.087894,119.07403 307.212272,118.702171 L307.387231,119.563857 C307.387231,119.563857 307.862355,121.957429 307.965174,122.457514 L305.880597,122.457514 Z" id="Fill-153" fill="#FFFFFF" mask="url(#mask-2)"></path>
                <path d="M289.300928,116 L286.801819,122.826117 L286.528452,121.441554 C286.066092,119.844772 284.617418,118.108506 283,117.245935 L285.289022,126 L287.988094,126 L292,116 L289.300928,116 Z" id="Fill-154" fill="#FFFFFF" mask="url(#mask-2)"></path>
                <path d="M284.016887,116 L280.040038,116 L280,116.185535 C283.10173,116.948899 285.155931,118.788522 286,121 L285.135503,116.772799 C284.993327,116.185535 284.556176,116.019654 284.016887,116" id="Fill-155" fill="#FFFFFF" mask="url(#mask-2)"></path>
                <path d="M334.38522,108.816053 C326.266234,110.827359 308.125228,100.525569 308.125228,100.525569 C302.624591,96.5055028 288.968823,90.7601266 288.968823,90.7601266 C278.346643,85.4925416 273.034292,93.7270151 273.034292,93.7270151 C268.860902,102.92386 278.665216,110.671207 278.665216,110.671207 L289.47316,117.309366 C293.205255,119.613457 303.096146,123.026736 303.096146,123.026736 C314.857287,127.815681 325.255038,137.932466 325.255038,137.932466 C328.480273,141.568941 332.209846,145.338654 332.209846,145.338654 C339.135236,151.138344 349.328729,153.248943 355,154 C351.717606,138.324543 338.413193,115.492401 334.38522,108.816053" id="Fill-156" fill="#E6B17E" mask="url(#mask-2)"></path>
                <path d="M288.948464,94.275874 C288.858189,94.2060226 288.772884,94.130997 288.667701,94.0749433 L283.973406,91.3860947 C282.525695,90.5573636 280.710259,91.106689 279.912693,92.6132376 L276.370439,99.3198368 C275.574529,100.826385 276.103755,102.720998 277.54981,103.551453 L282.244932,106.235128 C282.498364,106.382592 282.763392,106.470553 283.031732,106.534368 C283.517891,106.722363 288.216326,108.406559 290.78709,103.936067 C290.78709,103.936067 294.49333,98.0875196 288.948464,94.275874" id="Fill-157" fill="#FCCA90" mask="url(#mask-2)"></path>
                <polygon id="Fill-158" fill="#FFFFFF" mask="url(#mask-2)" points="391 169 405 169 405 115 391 115"></polygon>
                <polygon id="Fill-159" fill="#28334A" mask="url(#mask-2)" points="405 176 482 176 482 110 405 110"></polygon>
                <polygon id="Fill-160" fill="#444D6F" mask="url(#mask-2)" points="405 176 482 176 482 143 405 143"></polygon>
                <path d="M427,157.998722 C427,160.759605 424.762351,163 422,163 C419.237649,163 417,160.759605 417,157.998722 C417,155.236988 419.237649,153 422,153 C424.762351,153 427,155.236988 427,157.998722" id="Fill-161" fill="#28334A" mask="url(#mask-2)"></path>
                <path d="M300.252069,108.332296 C298.936968,111.639388 297.53259,114.173848 297.118806,113.990663 C296.698813,113.809921 297.427785,110.975853 298.746768,107.671203 C300.058763,104.358412 301.466247,101.823952 301.88236,102.009579 C302.300025,102.19195 301.570276,105.020319 300.252069,108.332296" id="Fill-164" fill="#D39D66" mask="url(#mask-2)"></path>
                <path d="M306.254094,110.330487 C304.940805,113.636537 303.5336,116.171636 303.11757,115.990907 C302.699988,115.807735 303.430369,112.981188 304.744433,109.668625 C306.060826,106.362575 307.467256,103.829104 307.882509,104.009019 C308.300092,104.190563 307.568935,107.016296 306.254094,110.330487" id="Fill-165" fill="#D39D66" mask="url(#mask-2)"></path>
                <path d="M302.606275,109.276343 C301.552314,112.033226 300.427237,114.147389 300.093229,113.991949 C299.76082,113.842622 300.345733,111.481326 301.395698,108.727062 C302.450459,105.96756 303.570742,103.853396 303.904749,104.007963 C304.241154,104.160784 303.657839,106.520333 302.606275,109.276343" id="Fill-166" fill="#D39D66" mask="url(#mask-2)"></path>
                <path d="M50.0662396,159 C50.0662396,159 104.66269,151.510811 110.345319,152.26209 C116.027948,153.01337 126.143247,150.518379 130.801265,146.4129 C135.459282,142.307422 149.374253,133.371323 154.425573,128.818112 C159.476048,124.264057 160.488,120.398887 167.267825,116.435063 C174.047649,112.47124 180.133709,110.804259 183.864174,109.714017 C187.594639,108.62462 196.684482,103.382524 200.930629,99.4448397 C205.177619,95.5071551 204.517614,89.7827567 201.9679,87.4176164 C199.417343,85.0533193 189.621074,85.9799821 183.824506,87.7692255 C178.027937,89.5576257 174.531259,89.9286281 170.828646,91.4387765 C167.126033,92.9489249 149.478065,103.116077 145.526473,101.82853 C141.574881,100.540983 124.537122,97.861334 116.211096,106.713957 C99.9810414,123.970628 55.6028572,112.563147 47,112.539538 L50.0662396,159 Z" id="Fill-167" fill="#FCCEA4" mask="url(#mask-2)"></path>
                <path d="M186.02634,90.9392515 C186.02634,90.9392515 187.297293,99.3643005 189.240598,99.8301104 C191.183046,100.296746 201.759739,100.186901 204.152424,94.3361956 C206.545108,88.4846642 203.67646,85.5948253 198.005198,86.045769 C192.333936,86.4967127 185.522933,88.2550628 186.02634,90.9392515" id="Fill-168" fill="#F8BDA6" mask="url(#mask-2)"></path>
                <path d="M189.536434,101 C189.536434,101 192.305137,99.3633989 191.972214,95.8857308 C191.638399,92.4080628 189.212436,89.255443 186.607071,90.1554426 C186.607071,90.1554426 185.48156,90.1615591 186.295569,93.142043 C187.110471,96.121653 187.122074,99.9138841 189.536434,101" id="Fill-169" fill="#FBCEC2" mask="url(#mask-2)"></path>
                <path d="M204.853764,92.3585144 C204.853764,92.3585144 204.428415,96.600167 201.988789,98.0968137 C199.550008,99.5925953 196.709556,101.722505 189,100.757904 C189,100.757904 202.87162,100.800294 203.726546,93.2677489 C203.726546,93.2677489 204.79457,88.3495774 202.110558,87 C202.110558,87 205.766192,88.1125362 204.853764,92.3585144" id="Fill-170" fill="#F8AA92" mask="url(#mask-2)"></path>
                <polygon id="Fill-171" fill="#FFFFFF" mask="url(#mask-2)" points="86 174 62 170.335606 62 102 86 105.663553"></polygon>
                <polygon id="Fill-172" fill="#6F4199" mask="url(#mask-2)" points="77 177 0 168.023792 0 89 77 97.977054"></polygon>
            </g>
        </g>
    </g>
</svg>