<?xml version="1.0" encoding="UTF-8"?>
<svg width="175px" height="464px" viewBox="0 0 175 464" version="1.1" xmlns="http://www.w3.org/2000/svg" xmlns:xlink="http://www.w3.org/1999/xlink">
    <!-- Generator: Sketch 47.1 (45422) - http://www.bohemiancoding.com/sketch -->
    <title>Page 1</title>
    <desc>Created with Sketch.</desc>
    <defs>
        <polygon id="path-1" points="100.414491 0.185131732 100.414491 446.072903 0.203530181 446.072903 0.203530181 0.185131732 100.414491 0.185131732"></polygon>
    </defs>
    <g id="Design" stroke="none" stroke-width="1" fill="none" fill-rule="evenodd">
        <g id="Desktop-HD-Copy-7" transform="translate(-1054.000000, -1730.000000)">
            <g id="Group-11" transform="translate(770.000000, 1533.000000)">
                <g id="Page-1" transform="translate(284.900000, 196.900000)">
                    <g id="Group-3" transform="translate(0.000000, 0.501970)" fill="#EFAA74">
                        <path d="M102.556237,10.7518954 L106.201106,59.2748067 C106.235003,59.7213403 106.344091,60.1587361 106.523438,60.5687185 L126.263913,105.577234 C126.42477,105.943964 126.528311,106.332016 126.573301,106.729205 L129.72204,134.984487 C129.757169,135.301263 129.757786,135.608903 129.724505,135.925679 C129.069365,142.150346 129.579055,195.284798 135.140039,212.692907 C135.03465,213.615215 157.4832,418.658812 156.549487,418.554641 C138.200028,415.598869 62.7794567,468.240489 46.2438042,462.551298 C46.0428865,462.48246 39.1186205,454.604462 38.1319049,453.799118 C18.229956,437.560037 -0.571875957,378.538408 0.0130041844,353.03604 C3.99684532,268.497422 55.9094262,201.597796 55.9094262,201.597796 C56.0388517,201.249341 56.118356,200.886266 56.14609,200.515881 C56.14609,200.515881 54.4795822,146.001622 58.7198091,128.473503 C59.2381276,126.331604 62.4688354,120.480978 62.4688354,120.480978 L53.0891822,75.0557792 C52.1548531,69.1003734 52.5770269,63.0133834 54.3248879,57.2395151 L65.896763,19.0203818 C67.4640446,13.842907 71.2334091,9.59626892 76.2224552,7.38614084 C76.2224552,7.38614084 96.5989645,-2.19026861 97.9616304,0.625390709 L102.171042,9.32274425 C102.3886,9.77110541 102.518642,10.2560177 102.556237,10.7518954" id="Fill-1"></path>
                    </g>
                    <path d="M61.2362729,120.854165 C61.2103878,120.396666 61.098219,119.35313 61.098219,119.35313 C62.6168119,110.755074 47.0154885,77.5927966 55.4897793,53.8948384 L60.2797566,38.0736596 C61.4661573,35.6369142 61.8162226,31.5894801 63.4457516,29.4177308 C62.9668772,32.5343281 43.8396325,117.305655 88.5734105,115.668162 C55.6222864,136.933639 61.0378204,158.18145 56.6798779,198.370692 C56.636736,198.773364 58.1984708,201.236305 58.337141,201.236305 C58.3309779,201.34474 63.2546949,202.830545 63.1696438,202.874407 C62.0300828,203.454352 54.9665304,203.261849 54.9548204,203.368457 C55.3344687,202.87928 55.8373793,202.359035 56.0074814,201.782745 C56.1966892,200.400501 56.0795899,198.843421 56.0598679,198.298199 C55.7923885,190.852114 54.9431105,169.110253 56.4087006,149.11432 C58.1984708,136.958007 60.8221112,126.586 61.2362729,120.854165" id="Fill-4" fill="#D29165"></path>
                    <g id="Group-8" transform="translate(73.341135, 9.639765)">
                        <mask id="mask-2" fill="white">
                            <use xlink:href="#path-1"></use>
                        </mask>
                        <g id="Clip-7"></g>
                        <path d="M100.414799,440.36004 L87.4784089,445.842718 C78.107384,432.580121 71.524555,424.085627 70.3221301,424.691158 C42.7082684,427.420922 17.1658316,449.665362 0.321406738,445.57163 C0.208621631,445.532642 0.183352837,445.536906 0.217866312,445.469286 C35.9436273,438.201693 50.4990691,406.617818 65.3620507,409.450534 C66.2341323,409.57359 51.758811,234.921081 50.0257415,211.79454 C49.9111074,210.254517 55.4110762,207.086138 54.9969145,204.425212 C55.2039954,204.219917 49.3071216,203.717947 49.1641372,203.10937 C44.6490351,183.941321 46.0018401,132.185458 46.8129067,126.172789 C46.8554323,125.85723 47.0144408,101.706037 46.9885557,101.388651 L48.9213103,97.8401407 C48.8886457,97.4417328 44.3914167,96.1094422 44.2410365,95.7384477 L29.868023,50.6208882 C29.7003862,50.2054231 29.8883613,43.425179 29.868023,42.9786454 L28.8301535,0.185131732 C29.0470954,0.633492887 29.1777535,1.11840522 29.2153486,1.61428291 L32.8602181,50.1371942 C32.8934989,50.5831186 33.0025862,51.0205144 33.1825493,51.431106 L52.9224082,96.439012 C53.0832656,96.8057422 53.1874223,97.1944031 53.2317968,97.5915926 L56.3811514,125.846874 C56.4156649,126.163651 56.4162812,126.47129 56.3836167,126.788067 C55.728477,133.012733 56.2375507,186.146576 61.7991507,203.554685 C61.6937613,204.477602 84.1423117,409.5212 83.2085989,409.417029 C82.8135429,409.353673 89.9245514,421.98698 100.414799,440.36004" id="Fill-6" fill="#FFC392" mask="url(#mask-2)"></path>
                    </g>
                    <path d="M96.5965609,5.87621155 C95.6036821,9.34430945 95.3516105,16.1263811 96.0979644,23.8642661 L97.6097779,39.5343667 C98.6827772,50.6477533 100.660523,51.7930236 102.948273,51.6194055 C104.614164,51.4914764 105.98361,50.6928331 106.190074,45.972248 C106.13892,51.8624709 104.537742,52.8024454 102.562462,52.954742 C100.065165,53.144199 97.9179339,52.0117215 96.843702,40.8983349 L95.3325048,25.2282344 C94.4727495,16.3127921 95.046536,8.65653806 96.5965609,5.87621155" id="Fill-9" fill="#EDBD8E"></path>
                    <path d="M97.7750111,38.9070266 C98.7709714,50.3438911 100.745019,51.5110922 103.040165,51.3179801 C105.334079,51.1218221 107.080091,49.6384533 106.083514,38.2015888 L104.68202,22.0745985 C103.687909,10.6359064 101.021127,1.52186934 98.7272133,1.71741816 C96.4320672,1.91113942 95.3781735,11.3413441 96.3735175,22.7800363 L97.7750111,38.9070266 Z" id="Fill-11" fill="#FFE5C7"></path>
                    <path d="M59.1652179,105.978748 C59.1652179,105.978748 62.4791278,122.355505 74.0768881,119.489283 C85.6746484,116.623671 89.40272,116.214298 89.40272,116.214298 C89.40272,116.214298 64.2738285,120.30803 58.1988406,137.777058 C62.3404576,121.127385 61.6501881,118.261164 59.1652179,105.978748" id="Fill-13" fill="#BC835E"></path>
                </g>
            </g>
        </g>
    </g>
</svg>